G04 #@! TF.GenerationSoftware,KiCad,Pcbnew,(5.1.5-0-10_14)*
G04 #@! TF.CreationDate,2020-10-26T17:46:19+01:00*
G04 #@! TF.ProjectId,io,696f2e6b-6963-4616-945f-706362585858,1*
G04 #@! TF.SameCoordinates,Original*
G04 #@! TF.FileFunction,Legend,Bot*
G04 #@! TF.FilePolarity,Positive*
%FSLAX46Y46*%
G04 Gerber Fmt 4.6, Leading zero omitted, Abs format (unit mm)*
G04 Created by KiCad (PCBNEW (5.1.5-0-10_14)) date 2020-10-26 17:46:19*
%MOMM*%
%LPD*%
G04 APERTURE LIST*
%ADD10C,0.150000*%
%ADD11C,0.120000*%
G04 APERTURE END LIST*
D10*
X194671428Y-91427380D02*
X195147619Y-91427380D01*
X195147619Y-90427380D01*
X194338095Y-91427380D02*
X194338095Y-90760714D01*
X194338095Y-90427380D02*
X194385714Y-90475000D01*
X194338095Y-90522619D01*
X194290476Y-90475000D01*
X194338095Y-90427380D01*
X194338095Y-90522619D01*
X193433333Y-91379761D02*
X193528571Y-91427380D01*
X193719047Y-91427380D01*
X193814285Y-91379761D01*
X193861904Y-91332142D01*
X193909523Y-91236904D01*
X193909523Y-90951190D01*
X193861904Y-90855952D01*
X193814285Y-90808333D01*
X193719047Y-90760714D01*
X193528571Y-90760714D01*
X193433333Y-90808333D01*
X192623809Y-91379761D02*
X192719047Y-91427380D01*
X192909523Y-91427380D01*
X193004761Y-91379761D01*
X193052380Y-91284523D01*
X193052380Y-90903571D01*
X193004761Y-90808333D01*
X192909523Y-90760714D01*
X192719047Y-90760714D01*
X192623809Y-90808333D01*
X192576190Y-90903571D01*
X192576190Y-90998809D01*
X193052380Y-91094047D01*
X192147619Y-90760714D02*
X192147619Y-91427380D01*
X192147619Y-90855952D02*
X192100000Y-90808333D01*
X192004761Y-90760714D01*
X191861904Y-90760714D01*
X191766666Y-90808333D01*
X191719047Y-90903571D01*
X191719047Y-91427380D01*
X191290476Y-91379761D02*
X191195238Y-91427380D01*
X191004761Y-91427380D01*
X190909523Y-91379761D01*
X190861904Y-91284523D01*
X190861904Y-91236904D01*
X190909523Y-91141666D01*
X191004761Y-91094047D01*
X191147619Y-91094047D01*
X191242857Y-91046428D01*
X191290476Y-90951190D01*
X191290476Y-90903571D01*
X191242857Y-90808333D01*
X191147619Y-90760714D01*
X191004761Y-90760714D01*
X190909523Y-90808333D01*
X190052380Y-91379761D02*
X190147619Y-91427380D01*
X190338095Y-91427380D01*
X190433333Y-91379761D01*
X190480952Y-91284523D01*
X190480952Y-90903571D01*
X190433333Y-90808333D01*
X190338095Y-90760714D01*
X190147619Y-90760714D01*
X190052380Y-90808333D01*
X190004761Y-90903571D01*
X190004761Y-90998809D01*
X190480952Y-91094047D01*
X189147619Y-91427380D02*
X189147619Y-90427380D01*
X189147619Y-91379761D02*
X189242857Y-91427380D01*
X189433333Y-91427380D01*
X189528571Y-91379761D01*
X189576190Y-91332142D01*
X189623809Y-91236904D01*
X189623809Y-90951190D01*
X189576190Y-90855952D01*
X189528571Y-90808333D01*
X189433333Y-90760714D01*
X189242857Y-90760714D01*
X189147619Y-90808333D01*
X187480952Y-90760714D02*
X187480952Y-91427380D01*
X187909523Y-90760714D02*
X187909523Y-91284523D01*
X187861904Y-91379761D01*
X187766666Y-91427380D01*
X187623809Y-91427380D01*
X187528571Y-91379761D01*
X187480952Y-91332142D01*
X187004761Y-90760714D02*
X187004761Y-91427380D01*
X187004761Y-90855952D02*
X186957142Y-90808333D01*
X186861904Y-90760714D01*
X186719047Y-90760714D01*
X186623809Y-90808333D01*
X186576190Y-90903571D01*
X186576190Y-91427380D01*
X185671428Y-91427380D02*
X185671428Y-90427380D01*
X185671428Y-91379761D02*
X185766666Y-91427380D01*
X185957142Y-91427380D01*
X186052380Y-91379761D01*
X186100000Y-91332142D01*
X186147619Y-91236904D01*
X186147619Y-90951190D01*
X186100000Y-90855952D01*
X186052380Y-90808333D01*
X185957142Y-90760714D01*
X185766666Y-90760714D01*
X185671428Y-90808333D01*
X184814285Y-91379761D02*
X184909523Y-91427380D01*
X185100000Y-91427380D01*
X185195238Y-91379761D01*
X185242857Y-91284523D01*
X185242857Y-90903571D01*
X185195238Y-90808333D01*
X185100000Y-90760714D01*
X184909523Y-90760714D01*
X184814285Y-90808333D01*
X184766666Y-90903571D01*
X184766666Y-90998809D01*
X185242857Y-91094047D01*
X184338095Y-91427380D02*
X184338095Y-90760714D01*
X184338095Y-90951190D02*
X184290476Y-90855952D01*
X184242857Y-90808333D01*
X184147619Y-90760714D01*
X184052380Y-90760714D01*
X183100000Y-90760714D02*
X182719047Y-90760714D01*
X182957142Y-90427380D02*
X182957142Y-91284523D01*
X182909523Y-91379761D01*
X182814285Y-91427380D01*
X182719047Y-91427380D01*
X182385714Y-91427380D02*
X182385714Y-90427380D01*
X181957142Y-91427380D02*
X181957142Y-90903571D01*
X182004761Y-90808333D01*
X182100000Y-90760714D01*
X182242857Y-90760714D01*
X182338095Y-90808333D01*
X182385714Y-90855952D01*
X181100000Y-91379761D02*
X181195238Y-91427380D01*
X181385714Y-91427380D01*
X181480952Y-91379761D01*
X181528571Y-91284523D01*
X181528571Y-90903571D01*
X181480952Y-90808333D01*
X181385714Y-90760714D01*
X181195238Y-90760714D01*
X181100000Y-90808333D01*
X181052380Y-90903571D01*
X181052380Y-90998809D01*
X181528571Y-91094047D01*
X180004761Y-90427380D02*
X179433333Y-90427380D01*
X179719047Y-91427380D02*
X179719047Y-90427380D01*
X179147619Y-91141666D02*
X178671428Y-91141666D01*
X179242857Y-91427380D02*
X178909523Y-90427380D01*
X178576190Y-91427380D01*
X178242857Y-91427380D02*
X178242857Y-90427380D01*
X177861904Y-90427380D01*
X177766666Y-90475000D01*
X177719047Y-90522619D01*
X177671428Y-90617857D01*
X177671428Y-90760714D01*
X177719047Y-90855952D01*
X177766666Y-90903571D01*
X177861904Y-90951190D01*
X178242857Y-90951190D01*
X176671428Y-91427380D02*
X177004761Y-90951190D01*
X177242857Y-91427380D02*
X177242857Y-90427380D01*
X176861904Y-90427380D01*
X176766666Y-90475000D01*
X176719047Y-90522619D01*
X176671428Y-90617857D01*
X176671428Y-90760714D01*
X176719047Y-90855952D01*
X176766666Y-90903571D01*
X176861904Y-90951190D01*
X177242857Y-90951190D01*
X175290476Y-90427380D02*
X175100000Y-90427380D01*
X175004761Y-90475000D01*
X174909523Y-90570238D01*
X174861904Y-90760714D01*
X174861904Y-91094047D01*
X174909523Y-91284523D01*
X175004761Y-91379761D01*
X175100000Y-91427380D01*
X175290476Y-91427380D01*
X175385714Y-91379761D01*
X175480952Y-91284523D01*
X175528571Y-91094047D01*
X175528571Y-90760714D01*
X175480952Y-90570238D01*
X175385714Y-90475000D01*
X175290476Y-90427380D01*
X174433333Y-91427380D02*
X174433333Y-90427380D01*
X174433333Y-90903571D02*
X173861904Y-90903571D01*
X173861904Y-91427380D02*
X173861904Y-90427380D01*
X172909523Y-91427380D02*
X173385714Y-91427380D01*
X173385714Y-90427380D01*
X190980952Y-93458333D02*
X191028571Y-93410714D01*
X191123809Y-93267857D01*
X191171428Y-93172619D01*
X191219047Y-93029761D01*
X191266666Y-92791666D01*
X191266666Y-92601190D01*
X191219047Y-92363095D01*
X191171428Y-92220238D01*
X191123809Y-92125000D01*
X191028571Y-91982142D01*
X190980952Y-91934523D01*
X190695238Y-92410714D02*
X190504761Y-93077380D01*
X190314285Y-92601190D01*
X190123809Y-93077380D01*
X189933333Y-92410714D01*
X189647619Y-92410714D02*
X189457142Y-93077380D01*
X189266666Y-92601190D01*
X189076190Y-93077380D01*
X188885714Y-92410714D01*
X188600000Y-92410714D02*
X188409523Y-93077380D01*
X188219047Y-92601190D01*
X188028571Y-93077380D01*
X187838095Y-92410714D01*
X187457142Y-92982142D02*
X187409523Y-93029761D01*
X187457142Y-93077380D01*
X187504761Y-93029761D01*
X187457142Y-92982142D01*
X187457142Y-93077380D01*
X187123809Y-92410714D02*
X186742857Y-92410714D01*
X186980952Y-92077380D02*
X186980952Y-92934523D01*
X186933333Y-93029761D01*
X186838095Y-93077380D01*
X186742857Y-93077380D01*
X185980952Y-93077380D02*
X185980952Y-92553571D01*
X186028571Y-92458333D01*
X186123809Y-92410714D01*
X186314285Y-92410714D01*
X186409523Y-92458333D01*
X185980952Y-93029761D02*
X186076190Y-93077380D01*
X186314285Y-93077380D01*
X186409523Y-93029761D01*
X186457142Y-92934523D01*
X186457142Y-92839285D01*
X186409523Y-92744047D01*
X186314285Y-92696428D01*
X186076190Y-92696428D01*
X185980952Y-92648809D01*
X185504761Y-92410714D02*
X185504761Y-93410714D01*
X185504761Y-92458333D02*
X185409523Y-92410714D01*
X185219047Y-92410714D01*
X185123809Y-92458333D01*
X185076190Y-92505952D01*
X185028571Y-92601190D01*
X185028571Y-92886904D01*
X185076190Y-92982142D01*
X185123809Y-93029761D01*
X185219047Y-93077380D01*
X185409523Y-93077380D01*
X185504761Y-93029761D01*
X184600000Y-93077380D02*
X184600000Y-92410714D01*
X184600000Y-92601190D02*
X184552380Y-92505952D01*
X184504761Y-92458333D01*
X184409523Y-92410714D01*
X184314285Y-92410714D01*
X183980952Y-92982142D02*
X183933333Y-93029761D01*
X183980952Y-93077380D01*
X184028571Y-93029761D01*
X183980952Y-92982142D01*
X183980952Y-93077380D01*
X183361904Y-93077380D02*
X183457142Y-93029761D01*
X183504761Y-92982142D01*
X183552380Y-92886904D01*
X183552380Y-92601190D01*
X183504761Y-92505952D01*
X183457142Y-92458333D01*
X183361904Y-92410714D01*
X183219047Y-92410714D01*
X183123809Y-92458333D01*
X183076190Y-92505952D01*
X183028571Y-92601190D01*
X183028571Y-92886904D01*
X183076190Y-92982142D01*
X183123809Y-93029761D01*
X183219047Y-93077380D01*
X183361904Y-93077380D01*
X182600000Y-93077380D02*
X182600000Y-92410714D01*
X182600000Y-92601190D02*
X182552380Y-92505952D01*
X182504761Y-92458333D01*
X182409523Y-92410714D01*
X182314285Y-92410714D01*
X181552380Y-92410714D02*
X181552380Y-93220238D01*
X181600000Y-93315476D01*
X181647619Y-93363095D01*
X181742857Y-93410714D01*
X181885714Y-93410714D01*
X181980952Y-93363095D01*
X181552380Y-93029761D02*
X181647619Y-93077380D01*
X181838095Y-93077380D01*
X181933333Y-93029761D01*
X181980952Y-92982142D01*
X182028571Y-92886904D01*
X182028571Y-92601190D01*
X181980952Y-92505952D01*
X181933333Y-92458333D01*
X181838095Y-92410714D01*
X181647619Y-92410714D01*
X181552380Y-92458333D01*
X180361904Y-92029761D02*
X181219047Y-93315476D01*
X179838095Y-92077380D02*
X179647619Y-92077380D01*
X179552380Y-92125000D01*
X179457142Y-92220238D01*
X179409523Y-92410714D01*
X179409523Y-92744047D01*
X179457142Y-92934523D01*
X179552380Y-93029761D01*
X179647619Y-93077380D01*
X179838095Y-93077380D01*
X179933333Y-93029761D01*
X180028571Y-92934523D01*
X180076190Y-92744047D01*
X180076190Y-92410714D01*
X180028571Y-92220238D01*
X179933333Y-92125000D01*
X179838095Y-92077380D01*
X178980952Y-93077380D02*
X178980952Y-92077380D01*
X178980952Y-92553571D02*
X178409523Y-92553571D01*
X178409523Y-93077380D02*
X178409523Y-92077380D01*
X177457142Y-93077380D02*
X177933333Y-93077380D01*
X177933333Y-92077380D01*
X177219047Y-93458333D02*
X177171428Y-93410714D01*
X177076190Y-93267857D01*
X177028571Y-93172619D01*
X176980952Y-93029761D01*
X176933333Y-92791666D01*
X176933333Y-92601190D01*
X176980952Y-92363095D01*
X177028571Y-92220238D01*
X177076190Y-92125000D01*
X177171428Y-91982142D01*
X177219047Y-91934523D01*
D11*
X175460000Y-57020000D02*
X124540000Y-57020000D01*
X124540000Y-57020000D02*
X124540000Y-54360000D01*
X124540000Y-54360000D02*
X175460000Y-54360000D01*
X175460000Y-54360000D02*
X175460000Y-57020000D01*
X174510000Y-54360000D02*
X174510000Y-48360000D01*
X174510000Y-48360000D02*
X173750000Y-48360000D01*
X173750000Y-48360000D02*
X173750000Y-54360000D01*
X174450000Y-54360000D02*
X174450000Y-48360000D01*
X174330000Y-54360000D02*
X174330000Y-48360000D01*
X174210000Y-54360000D02*
X174210000Y-48360000D01*
X174090000Y-54360000D02*
X174090000Y-48360000D01*
X173970000Y-54360000D02*
X173970000Y-48360000D01*
X173850000Y-54360000D02*
X173850000Y-48360000D01*
X174510000Y-57417071D02*
X174510000Y-57020000D01*
X173750000Y-57417071D02*
X173750000Y-57020000D01*
X174510000Y-59890000D02*
X174510000Y-59502929D01*
X173750000Y-59890000D02*
X173750000Y-59502929D01*
X172860000Y-57020000D02*
X172860000Y-54360000D01*
X171970000Y-54360000D02*
X171970000Y-48360000D01*
X171970000Y-48360000D02*
X171210000Y-48360000D01*
X171210000Y-48360000D02*
X171210000Y-54360000D01*
X171970000Y-57417071D02*
X171970000Y-57020000D01*
X171210000Y-57417071D02*
X171210000Y-57020000D01*
X171970000Y-59957071D02*
X171970000Y-59502929D01*
X171210000Y-59957071D02*
X171210000Y-59502929D01*
X170320000Y-57020000D02*
X170320000Y-54360000D01*
X169430000Y-54360000D02*
X169430000Y-48360000D01*
X169430000Y-48360000D02*
X168670000Y-48360000D01*
X168670000Y-48360000D02*
X168670000Y-54360000D01*
X169430000Y-57417071D02*
X169430000Y-57020000D01*
X168670000Y-57417071D02*
X168670000Y-57020000D01*
X169430000Y-59957071D02*
X169430000Y-59502929D01*
X168670000Y-59957071D02*
X168670000Y-59502929D01*
X167780000Y-57020000D02*
X167780000Y-54360000D01*
X166890000Y-54360000D02*
X166890000Y-48360000D01*
X166890000Y-48360000D02*
X166130000Y-48360000D01*
X166130000Y-48360000D02*
X166130000Y-54360000D01*
X166890000Y-57417071D02*
X166890000Y-57020000D01*
X166130000Y-57417071D02*
X166130000Y-57020000D01*
X166890000Y-59957071D02*
X166890000Y-59502929D01*
X166130000Y-59957071D02*
X166130000Y-59502929D01*
X165240000Y-57020000D02*
X165240000Y-54360000D01*
X164350000Y-54360000D02*
X164350000Y-48360000D01*
X164350000Y-48360000D02*
X163590000Y-48360000D01*
X163590000Y-48360000D02*
X163590000Y-54360000D01*
X164350000Y-57417071D02*
X164350000Y-57020000D01*
X163590000Y-57417071D02*
X163590000Y-57020000D01*
X164350000Y-59957071D02*
X164350000Y-59502929D01*
X163590000Y-59957071D02*
X163590000Y-59502929D01*
X162700000Y-57020000D02*
X162700000Y-54360000D01*
X161810000Y-54360000D02*
X161810000Y-48360000D01*
X161810000Y-48360000D02*
X161050000Y-48360000D01*
X161050000Y-48360000D02*
X161050000Y-54360000D01*
X161810000Y-57417071D02*
X161810000Y-57020000D01*
X161050000Y-57417071D02*
X161050000Y-57020000D01*
X161810000Y-59957071D02*
X161810000Y-59502929D01*
X161050000Y-59957071D02*
X161050000Y-59502929D01*
X160160000Y-57020000D02*
X160160000Y-54360000D01*
X159270000Y-54360000D02*
X159270000Y-48360000D01*
X159270000Y-48360000D02*
X158510000Y-48360000D01*
X158510000Y-48360000D02*
X158510000Y-54360000D01*
X159270000Y-57417071D02*
X159270000Y-57020000D01*
X158510000Y-57417071D02*
X158510000Y-57020000D01*
X159270000Y-59957071D02*
X159270000Y-59502929D01*
X158510000Y-59957071D02*
X158510000Y-59502929D01*
X157620000Y-57020000D02*
X157620000Y-54360000D01*
X156730000Y-54360000D02*
X156730000Y-48360000D01*
X156730000Y-48360000D02*
X155970000Y-48360000D01*
X155970000Y-48360000D02*
X155970000Y-54360000D01*
X156730000Y-57417071D02*
X156730000Y-57020000D01*
X155970000Y-57417071D02*
X155970000Y-57020000D01*
X156730000Y-59957071D02*
X156730000Y-59502929D01*
X155970000Y-59957071D02*
X155970000Y-59502929D01*
X155080000Y-57020000D02*
X155080000Y-54360000D01*
X154190000Y-54360000D02*
X154190000Y-48360000D01*
X154190000Y-48360000D02*
X153430000Y-48360000D01*
X153430000Y-48360000D02*
X153430000Y-54360000D01*
X154190000Y-57417071D02*
X154190000Y-57020000D01*
X153430000Y-57417071D02*
X153430000Y-57020000D01*
X154190000Y-59957071D02*
X154190000Y-59502929D01*
X153430000Y-59957071D02*
X153430000Y-59502929D01*
X152540000Y-57020000D02*
X152540000Y-54360000D01*
X151650000Y-54360000D02*
X151650000Y-48360000D01*
X151650000Y-48360000D02*
X150890000Y-48360000D01*
X150890000Y-48360000D02*
X150890000Y-54360000D01*
X151650000Y-57417071D02*
X151650000Y-57020000D01*
X150890000Y-57417071D02*
X150890000Y-57020000D01*
X151650000Y-59957071D02*
X151650000Y-59502929D01*
X150890000Y-59957071D02*
X150890000Y-59502929D01*
X150000000Y-57020000D02*
X150000000Y-54360000D01*
X149110000Y-54360000D02*
X149110000Y-48360000D01*
X149110000Y-48360000D02*
X148350000Y-48360000D01*
X148350000Y-48360000D02*
X148350000Y-54360000D01*
X149110000Y-57417071D02*
X149110000Y-57020000D01*
X148350000Y-57417071D02*
X148350000Y-57020000D01*
X149110000Y-59957071D02*
X149110000Y-59502929D01*
X148350000Y-59957071D02*
X148350000Y-59502929D01*
X147460000Y-57020000D02*
X147460000Y-54360000D01*
X146570000Y-54360000D02*
X146570000Y-48360000D01*
X146570000Y-48360000D02*
X145810000Y-48360000D01*
X145810000Y-48360000D02*
X145810000Y-54360000D01*
X146570000Y-57417071D02*
X146570000Y-57020000D01*
X145810000Y-57417071D02*
X145810000Y-57020000D01*
X146570000Y-59957071D02*
X146570000Y-59502929D01*
X145810000Y-59957071D02*
X145810000Y-59502929D01*
X144920000Y-57020000D02*
X144920000Y-54360000D01*
X144030000Y-54360000D02*
X144030000Y-48360000D01*
X144030000Y-48360000D02*
X143270000Y-48360000D01*
X143270000Y-48360000D02*
X143270000Y-54360000D01*
X144030000Y-57417071D02*
X144030000Y-57020000D01*
X143270000Y-57417071D02*
X143270000Y-57020000D01*
X144030000Y-59957071D02*
X144030000Y-59502929D01*
X143270000Y-59957071D02*
X143270000Y-59502929D01*
X142380000Y-57020000D02*
X142380000Y-54360000D01*
X141490000Y-54360000D02*
X141490000Y-48360000D01*
X141490000Y-48360000D02*
X140730000Y-48360000D01*
X140730000Y-48360000D02*
X140730000Y-54360000D01*
X141490000Y-57417071D02*
X141490000Y-57020000D01*
X140730000Y-57417071D02*
X140730000Y-57020000D01*
X141490000Y-59957071D02*
X141490000Y-59502929D01*
X140730000Y-59957071D02*
X140730000Y-59502929D01*
X139840000Y-57020000D02*
X139840000Y-54360000D01*
X138950000Y-54360000D02*
X138950000Y-48360000D01*
X138950000Y-48360000D02*
X138190000Y-48360000D01*
X138190000Y-48360000D02*
X138190000Y-54360000D01*
X138950000Y-57417071D02*
X138950000Y-57020000D01*
X138190000Y-57417071D02*
X138190000Y-57020000D01*
X138950000Y-59957071D02*
X138950000Y-59502929D01*
X138190000Y-59957071D02*
X138190000Y-59502929D01*
X137300000Y-57020000D02*
X137300000Y-54360000D01*
X136410000Y-54360000D02*
X136410000Y-48360000D01*
X136410000Y-48360000D02*
X135650000Y-48360000D01*
X135650000Y-48360000D02*
X135650000Y-54360000D01*
X136410000Y-57417071D02*
X136410000Y-57020000D01*
X135650000Y-57417071D02*
X135650000Y-57020000D01*
X136410000Y-59957071D02*
X136410000Y-59502929D01*
X135650000Y-59957071D02*
X135650000Y-59502929D01*
X134760000Y-57020000D02*
X134760000Y-54360000D01*
X133870000Y-54360000D02*
X133870000Y-48360000D01*
X133870000Y-48360000D02*
X133110000Y-48360000D01*
X133110000Y-48360000D02*
X133110000Y-54360000D01*
X133870000Y-57417071D02*
X133870000Y-57020000D01*
X133110000Y-57417071D02*
X133110000Y-57020000D01*
X133870000Y-59957071D02*
X133870000Y-59502929D01*
X133110000Y-59957071D02*
X133110000Y-59502929D01*
X132220000Y-57020000D02*
X132220000Y-54360000D01*
X131330000Y-54360000D02*
X131330000Y-48360000D01*
X131330000Y-48360000D02*
X130570000Y-48360000D01*
X130570000Y-48360000D02*
X130570000Y-54360000D01*
X131330000Y-57417071D02*
X131330000Y-57020000D01*
X130570000Y-57417071D02*
X130570000Y-57020000D01*
X131330000Y-59957071D02*
X131330000Y-59502929D01*
X130570000Y-59957071D02*
X130570000Y-59502929D01*
X129680000Y-57020000D02*
X129680000Y-54360000D01*
X128790000Y-54360000D02*
X128790000Y-48360000D01*
X128790000Y-48360000D02*
X128030000Y-48360000D01*
X128030000Y-48360000D02*
X128030000Y-54360000D01*
X128790000Y-57417071D02*
X128790000Y-57020000D01*
X128030000Y-57417071D02*
X128030000Y-57020000D01*
X128790000Y-59957071D02*
X128790000Y-59502929D01*
X128030000Y-59957071D02*
X128030000Y-59502929D01*
X127140000Y-57020000D02*
X127140000Y-54360000D01*
X126250000Y-54360000D02*
X126250000Y-48360000D01*
X126250000Y-48360000D02*
X125490000Y-48360000D01*
X125490000Y-48360000D02*
X125490000Y-54360000D01*
X126250000Y-57417071D02*
X126250000Y-57020000D01*
X125490000Y-57417071D02*
X125490000Y-57020000D01*
X126250000Y-59957071D02*
X126250000Y-59502929D01*
X125490000Y-59957071D02*
X125490000Y-59502929D01*
X174130000Y-62270000D02*
X175400000Y-62270000D01*
X175400000Y-62270000D02*
X175400000Y-61000000D01*
D10*
X175852380Y-55011666D02*
X176566666Y-55011666D01*
X176709523Y-54964047D01*
X176804761Y-54868809D01*
X176852380Y-54725952D01*
X176852380Y-54630714D01*
X176852380Y-56011666D02*
X176852380Y-55440238D01*
X176852380Y-55725952D02*
X175852380Y-55725952D01*
X175995238Y-55630714D01*
X176090476Y-55535476D01*
X176138095Y-55440238D01*
M02*
