G04 #@! TF.GenerationSoftware,KiCad,Pcbnew,(5.1.6-0-10_14)*
G04 #@! TF.CreationDate,2021-01-21T22:24:26+01:00*
G04 #@! TF.ProjectId,io,696f2e6b-6963-4616-945f-706362585858,3*
G04 #@! TF.SameCoordinates,Original*
G04 #@! TF.FileFunction,Legend,Bot*
G04 #@! TF.FilePolarity,Positive*
%FSLAX46Y46*%
G04 Gerber Fmt 4.6, Leading zero omitted, Abs format (unit mm)*
G04 Created by KiCad (PCBNEW (5.1.6-0-10_14)) date 2021-01-21 22:24:26*
%MOMM*%
%LPD*%
G01*
G04 APERTURE LIST*
%ADD10C,0.150000*%
%ADD11C,0.120000*%
G04 APERTURE END LIST*
D10*
X184227380Y-88028571D02*
X184227380Y-87552380D01*
X183227380Y-87552380D01*
X184227380Y-88361904D02*
X183560714Y-88361904D01*
X183227380Y-88361904D02*
X183275000Y-88314285D01*
X183322619Y-88361904D01*
X183275000Y-88409523D01*
X183227380Y-88361904D01*
X183322619Y-88361904D01*
X184179761Y-89266666D02*
X184227380Y-89171428D01*
X184227380Y-88980952D01*
X184179761Y-88885714D01*
X184132142Y-88838095D01*
X184036904Y-88790476D01*
X183751190Y-88790476D01*
X183655952Y-88838095D01*
X183608333Y-88885714D01*
X183560714Y-88980952D01*
X183560714Y-89171428D01*
X183608333Y-89266666D01*
X184179761Y-90076190D02*
X184227380Y-89980952D01*
X184227380Y-89790476D01*
X184179761Y-89695238D01*
X184084523Y-89647619D01*
X183703571Y-89647619D01*
X183608333Y-89695238D01*
X183560714Y-89790476D01*
X183560714Y-89980952D01*
X183608333Y-90076190D01*
X183703571Y-90123809D01*
X183798809Y-90123809D01*
X183894047Y-89647619D01*
X183560714Y-90552380D02*
X184227380Y-90552380D01*
X183655952Y-90552380D02*
X183608333Y-90600000D01*
X183560714Y-90695238D01*
X183560714Y-90838095D01*
X183608333Y-90933333D01*
X183703571Y-90980952D01*
X184227380Y-90980952D01*
X184179761Y-91409523D02*
X184227380Y-91504761D01*
X184227380Y-91695238D01*
X184179761Y-91790476D01*
X184084523Y-91838095D01*
X184036904Y-91838095D01*
X183941666Y-91790476D01*
X183894047Y-91695238D01*
X183894047Y-91552380D01*
X183846428Y-91457142D01*
X183751190Y-91409523D01*
X183703571Y-91409523D01*
X183608333Y-91457142D01*
X183560714Y-91552380D01*
X183560714Y-91695238D01*
X183608333Y-91790476D01*
X184179761Y-92647619D02*
X184227380Y-92552380D01*
X184227380Y-92361904D01*
X184179761Y-92266666D01*
X184084523Y-92219047D01*
X183703571Y-92219047D01*
X183608333Y-92266666D01*
X183560714Y-92361904D01*
X183560714Y-92552380D01*
X183608333Y-92647619D01*
X183703571Y-92695238D01*
X183798809Y-92695238D01*
X183894047Y-92219047D01*
X184227380Y-93552380D02*
X183227380Y-93552380D01*
X184179761Y-93552380D02*
X184227380Y-93457142D01*
X184227380Y-93266666D01*
X184179761Y-93171428D01*
X184132142Y-93123809D01*
X184036904Y-93076190D01*
X183751190Y-93076190D01*
X183655952Y-93123809D01*
X183608333Y-93171428D01*
X183560714Y-93266666D01*
X183560714Y-93457142D01*
X183608333Y-93552380D01*
X183560714Y-95219047D02*
X184227380Y-95219047D01*
X183560714Y-94790476D02*
X184084523Y-94790476D01*
X184179761Y-94838095D01*
X184227380Y-94933333D01*
X184227380Y-95076190D01*
X184179761Y-95171428D01*
X184132142Y-95219047D01*
X183560714Y-95695238D02*
X184227380Y-95695238D01*
X183655952Y-95695238D02*
X183608333Y-95742857D01*
X183560714Y-95838095D01*
X183560714Y-95980952D01*
X183608333Y-96076190D01*
X183703571Y-96123809D01*
X184227380Y-96123809D01*
X184227380Y-97028571D02*
X183227380Y-97028571D01*
X184179761Y-97028571D02*
X184227380Y-96933333D01*
X184227380Y-96742857D01*
X184179761Y-96647619D01*
X184132142Y-96600000D01*
X184036904Y-96552380D01*
X183751190Y-96552380D01*
X183655952Y-96600000D01*
X183608333Y-96647619D01*
X183560714Y-96742857D01*
X183560714Y-96933333D01*
X183608333Y-97028571D01*
X184179761Y-97885714D02*
X184227380Y-97790476D01*
X184227380Y-97600000D01*
X184179761Y-97504761D01*
X184084523Y-97457142D01*
X183703571Y-97457142D01*
X183608333Y-97504761D01*
X183560714Y-97600000D01*
X183560714Y-97790476D01*
X183608333Y-97885714D01*
X183703571Y-97933333D01*
X183798809Y-97933333D01*
X183894047Y-97457142D01*
X184227380Y-98361904D02*
X183560714Y-98361904D01*
X183751190Y-98361904D02*
X183655952Y-98409523D01*
X183608333Y-98457142D01*
X183560714Y-98552380D01*
X183560714Y-98647619D01*
X183560714Y-99600000D02*
X183560714Y-99980952D01*
X183227380Y-99742857D02*
X184084523Y-99742857D01*
X184179761Y-99790476D01*
X184227380Y-99885714D01*
X184227380Y-99980952D01*
X184227380Y-100314285D02*
X183227380Y-100314285D01*
X184227380Y-100742857D02*
X183703571Y-100742857D01*
X183608333Y-100695238D01*
X183560714Y-100600000D01*
X183560714Y-100457142D01*
X183608333Y-100361904D01*
X183655952Y-100314285D01*
X184179761Y-101600000D02*
X184227380Y-101504761D01*
X184227380Y-101314285D01*
X184179761Y-101219047D01*
X184084523Y-101171428D01*
X183703571Y-101171428D01*
X183608333Y-101219047D01*
X183560714Y-101314285D01*
X183560714Y-101504761D01*
X183608333Y-101600000D01*
X183703571Y-101647619D01*
X183798809Y-101647619D01*
X183894047Y-101171428D01*
X183227380Y-102695238D02*
X183227380Y-103266666D01*
X184227380Y-102980952D02*
X183227380Y-102980952D01*
X183941666Y-103552380D02*
X183941666Y-104028571D01*
X184227380Y-103457142D02*
X183227380Y-103790476D01*
X184227380Y-104123809D01*
X184227380Y-104457142D02*
X183227380Y-104457142D01*
X183227380Y-104838095D01*
X183275000Y-104933333D01*
X183322619Y-104980952D01*
X183417857Y-105028571D01*
X183560714Y-105028571D01*
X183655952Y-104980952D01*
X183703571Y-104933333D01*
X183751190Y-104838095D01*
X183751190Y-104457142D01*
X184227380Y-106028571D02*
X183751190Y-105695238D01*
X184227380Y-105457142D02*
X183227380Y-105457142D01*
X183227380Y-105838095D01*
X183275000Y-105933333D01*
X183322619Y-105980952D01*
X183417857Y-106028571D01*
X183560714Y-106028571D01*
X183655952Y-105980952D01*
X183703571Y-105933333D01*
X183751190Y-105838095D01*
X183751190Y-105457142D01*
X183227380Y-107409523D02*
X183227380Y-107600000D01*
X183275000Y-107695238D01*
X183370238Y-107790476D01*
X183560714Y-107838095D01*
X183894047Y-107838095D01*
X184084523Y-107790476D01*
X184179761Y-107695238D01*
X184227380Y-107600000D01*
X184227380Y-107409523D01*
X184179761Y-107314285D01*
X184084523Y-107219047D01*
X183894047Y-107171428D01*
X183560714Y-107171428D01*
X183370238Y-107219047D01*
X183275000Y-107314285D01*
X183227380Y-107409523D01*
X184227380Y-108266666D02*
X183227380Y-108266666D01*
X183703571Y-108266666D02*
X183703571Y-108838095D01*
X184227380Y-108838095D02*
X183227380Y-108838095D01*
X184227380Y-109790476D02*
X184227380Y-109314285D01*
X183227380Y-109314285D01*
X186258333Y-91719047D02*
X186210714Y-91671428D01*
X186067857Y-91576190D01*
X185972619Y-91528571D01*
X185829761Y-91480952D01*
X185591666Y-91433333D01*
X185401190Y-91433333D01*
X185163095Y-91480952D01*
X185020238Y-91528571D01*
X184925000Y-91576190D01*
X184782142Y-91671428D01*
X184734523Y-91719047D01*
X185210714Y-92004761D02*
X185877380Y-92195238D01*
X185401190Y-92385714D01*
X185877380Y-92576190D01*
X185210714Y-92766666D01*
X185210714Y-93052380D02*
X185877380Y-93242857D01*
X185401190Y-93433333D01*
X185877380Y-93623809D01*
X185210714Y-93814285D01*
X185210714Y-94100000D02*
X185877380Y-94290476D01*
X185401190Y-94480952D01*
X185877380Y-94671428D01*
X185210714Y-94861904D01*
X185782142Y-95242857D02*
X185829761Y-95290476D01*
X185877380Y-95242857D01*
X185829761Y-95195238D01*
X185782142Y-95242857D01*
X185877380Y-95242857D01*
X185210714Y-95576190D02*
X185210714Y-95957142D01*
X184877380Y-95719047D02*
X185734523Y-95719047D01*
X185829761Y-95766666D01*
X185877380Y-95861904D01*
X185877380Y-95957142D01*
X185877380Y-96719047D02*
X185353571Y-96719047D01*
X185258333Y-96671428D01*
X185210714Y-96576190D01*
X185210714Y-96385714D01*
X185258333Y-96290476D01*
X185829761Y-96719047D02*
X185877380Y-96623809D01*
X185877380Y-96385714D01*
X185829761Y-96290476D01*
X185734523Y-96242857D01*
X185639285Y-96242857D01*
X185544047Y-96290476D01*
X185496428Y-96385714D01*
X185496428Y-96623809D01*
X185448809Y-96719047D01*
X185210714Y-97195238D02*
X186210714Y-97195238D01*
X185258333Y-97195238D02*
X185210714Y-97290476D01*
X185210714Y-97480952D01*
X185258333Y-97576190D01*
X185305952Y-97623809D01*
X185401190Y-97671428D01*
X185686904Y-97671428D01*
X185782142Y-97623809D01*
X185829761Y-97576190D01*
X185877380Y-97480952D01*
X185877380Y-97290476D01*
X185829761Y-97195238D01*
X185877380Y-98100000D02*
X185210714Y-98100000D01*
X185401190Y-98100000D02*
X185305952Y-98147619D01*
X185258333Y-98195238D01*
X185210714Y-98290476D01*
X185210714Y-98385714D01*
X185782142Y-98719047D02*
X185829761Y-98766666D01*
X185877380Y-98719047D01*
X185829761Y-98671428D01*
X185782142Y-98719047D01*
X185877380Y-98719047D01*
X185877380Y-99338095D02*
X185829761Y-99242857D01*
X185782142Y-99195238D01*
X185686904Y-99147619D01*
X185401190Y-99147619D01*
X185305952Y-99195238D01*
X185258333Y-99242857D01*
X185210714Y-99338095D01*
X185210714Y-99480952D01*
X185258333Y-99576190D01*
X185305952Y-99623809D01*
X185401190Y-99671428D01*
X185686904Y-99671428D01*
X185782142Y-99623809D01*
X185829761Y-99576190D01*
X185877380Y-99480952D01*
X185877380Y-99338095D01*
X185877380Y-100100000D02*
X185210714Y-100100000D01*
X185401190Y-100100000D02*
X185305952Y-100147619D01*
X185258333Y-100195238D01*
X185210714Y-100290476D01*
X185210714Y-100385714D01*
X185210714Y-101147619D02*
X186020238Y-101147619D01*
X186115476Y-101100000D01*
X186163095Y-101052380D01*
X186210714Y-100957142D01*
X186210714Y-100814285D01*
X186163095Y-100719047D01*
X185829761Y-101147619D02*
X185877380Y-101052380D01*
X185877380Y-100861904D01*
X185829761Y-100766666D01*
X185782142Y-100719047D01*
X185686904Y-100671428D01*
X185401190Y-100671428D01*
X185305952Y-100719047D01*
X185258333Y-100766666D01*
X185210714Y-100861904D01*
X185210714Y-101052380D01*
X185258333Y-101147619D01*
X184829761Y-102338095D02*
X186115476Y-101480952D01*
X184877380Y-102861904D02*
X184877380Y-103052380D01*
X184925000Y-103147619D01*
X185020238Y-103242857D01*
X185210714Y-103290476D01*
X185544047Y-103290476D01*
X185734523Y-103242857D01*
X185829761Y-103147619D01*
X185877380Y-103052380D01*
X185877380Y-102861904D01*
X185829761Y-102766666D01*
X185734523Y-102671428D01*
X185544047Y-102623809D01*
X185210714Y-102623809D01*
X185020238Y-102671428D01*
X184925000Y-102766666D01*
X184877380Y-102861904D01*
X185877380Y-103719047D02*
X184877380Y-103719047D01*
X185353571Y-103719047D02*
X185353571Y-104290476D01*
X185877380Y-104290476D02*
X184877380Y-104290476D01*
X185877380Y-105242857D02*
X185877380Y-104766666D01*
X184877380Y-104766666D01*
X186258333Y-105480952D02*
X186210714Y-105528571D01*
X186067857Y-105623809D01*
X185972619Y-105671428D01*
X185829761Y-105719047D01*
X185591666Y-105766666D01*
X185401190Y-105766666D01*
X185163095Y-105719047D01*
X185020238Y-105671428D01*
X184925000Y-105623809D01*
X184782142Y-105528571D01*
X184734523Y-105480952D01*
D11*
X194818000Y-74540000D02*
X193708000Y-74540000D01*
X193708000Y-74540000D02*
X193708000Y-75870000D01*
X207448000Y-74540000D02*
X207448000Y-125460000D01*
X207448000Y-125460000D02*
X198818000Y-125460000D01*
X198818000Y-74540000D02*
X198818000Y-125460000D01*
X207448000Y-74540000D02*
X198818000Y-74540000D01*
X207448000Y-122860000D02*
X198818000Y-122860000D01*
X207448000Y-120320000D02*
X198818000Y-120320000D01*
X207448000Y-117780000D02*
X198818000Y-117780000D01*
X207448000Y-115240000D02*
X198818000Y-115240000D01*
X207448000Y-112700000D02*
X198818000Y-112700000D01*
X207448000Y-110160000D02*
X198818000Y-110160000D01*
X207448000Y-107620000D02*
X198818000Y-107620000D01*
X207448000Y-105080000D02*
X198818000Y-105080000D01*
X207448000Y-102540000D02*
X198818000Y-102540000D01*
X207448000Y-100000000D02*
X198818000Y-100000000D01*
X207448000Y-97460000D02*
X198818000Y-97460000D01*
X207448000Y-94920000D02*
X198818000Y-94920000D01*
X207448000Y-92380000D02*
X198818000Y-92380000D01*
X207448000Y-89840000D02*
X198818000Y-89840000D01*
X207448000Y-87300000D02*
X198818000Y-87300000D01*
X207448000Y-84760000D02*
X198818000Y-84760000D01*
X207448000Y-82220000D02*
X198818000Y-82220000D01*
X207448000Y-79680000D02*
X198818000Y-79680000D01*
X207448000Y-77140000D02*
X198818000Y-77140000D01*
X196308000Y-124490000D02*
X195868000Y-124490000D01*
X198818000Y-124490000D02*
X198408000Y-124490000D01*
X196308000Y-123770000D02*
X195868000Y-123770000D01*
X198818000Y-123770000D02*
X198408000Y-123770000D01*
X196308000Y-121950000D02*
X195868000Y-121950000D01*
X198818000Y-121950000D02*
X198408000Y-121950000D01*
X196308000Y-121230000D02*
X195868000Y-121230000D01*
X198818000Y-121230000D02*
X198408000Y-121230000D01*
X196308000Y-119410000D02*
X195868000Y-119410000D01*
X198818000Y-119410000D02*
X198408000Y-119410000D01*
X196308000Y-118690000D02*
X195868000Y-118690000D01*
X198818000Y-118690000D02*
X198408000Y-118690000D01*
X196308000Y-116870000D02*
X195868000Y-116870000D01*
X198818000Y-116870000D02*
X198408000Y-116870000D01*
X196308000Y-116150000D02*
X195868000Y-116150000D01*
X198818000Y-116150000D02*
X198408000Y-116150000D01*
X196308000Y-114330000D02*
X195868000Y-114330000D01*
X198818000Y-114330000D02*
X198408000Y-114330000D01*
X196308000Y-113610000D02*
X195868000Y-113610000D01*
X198818000Y-113610000D02*
X198408000Y-113610000D01*
X196308000Y-111790000D02*
X195868000Y-111790000D01*
X198818000Y-111790000D02*
X198408000Y-111790000D01*
X196308000Y-111070000D02*
X195868000Y-111070000D01*
X198818000Y-111070000D02*
X198408000Y-111070000D01*
X196308000Y-109250000D02*
X195868000Y-109250000D01*
X198818000Y-109250000D02*
X198408000Y-109250000D01*
X196308000Y-108530000D02*
X195868000Y-108530000D01*
X198818000Y-108530000D02*
X198408000Y-108530000D01*
X196308000Y-106710000D02*
X195868000Y-106710000D01*
X198818000Y-106710000D02*
X198408000Y-106710000D01*
X196308000Y-105990000D02*
X195868000Y-105990000D01*
X198818000Y-105990000D02*
X198408000Y-105990000D01*
X196308000Y-104170000D02*
X195868000Y-104170000D01*
X198818000Y-104170000D02*
X198408000Y-104170000D01*
X196308000Y-103450000D02*
X195868000Y-103450000D01*
X198818000Y-103450000D02*
X198408000Y-103450000D01*
X196308000Y-101630000D02*
X195868000Y-101630000D01*
X198818000Y-101630000D02*
X198408000Y-101630000D01*
X196308000Y-100910000D02*
X195868000Y-100910000D01*
X198818000Y-100910000D02*
X198408000Y-100910000D01*
X196308000Y-99090000D02*
X195868000Y-99090000D01*
X198818000Y-99090000D02*
X198408000Y-99090000D01*
X196308000Y-98370000D02*
X195868000Y-98370000D01*
X198818000Y-98370000D02*
X198408000Y-98370000D01*
X196308000Y-96550000D02*
X195868000Y-96550000D01*
X198818000Y-96550000D02*
X198408000Y-96550000D01*
X196308000Y-95830000D02*
X195868000Y-95830000D01*
X198818000Y-95830000D02*
X198408000Y-95830000D01*
X196308000Y-94010000D02*
X195868000Y-94010000D01*
X198818000Y-94010000D02*
X198408000Y-94010000D01*
X196308000Y-93290000D02*
X195868000Y-93290000D01*
X198818000Y-93290000D02*
X198408000Y-93290000D01*
X196308000Y-91470000D02*
X195868000Y-91470000D01*
X198818000Y-91470000D02*
X198408000Y-91470000D01*
X196308000Y-90750000D02*
X195868000Y-90750000D01*
X198818000Y-90750000D02*
X198408000Y-90750000D01*
X196308000Y-88930000D02*
X195868000Y-88930000D01*
X198818000Y-88930000D02*
X198408000Y-88930000D01*
X196308000Y-88210000D02*
X195868000Y-88210000D01*
X198818000Y-88210000D02*
X198408000Y-88210000D01*
X196308000Y-86390000D02*
X195868000Y-86390000D01*
X198818000Y-86390000D02*
X198408000Y-86390000D01*
X196308000Y-85670000D02*
X195868000Y-85670000D01*
X198818000Y-85670000D02*
X198408000Y-85670000D01*
X196308000Y-83850000D02*
X195868000Y-83850000D01*
X198818000Y-83850000D02*
X198408000Y-83850000D01*
X196308000Y-83130000D02*
X195868000Y-83130000D01*
X198818000Y-83130000D02*
X198408000Y-83130000D01*
X196308000Y-81310000D02*
X195868000Y-81310000D01*
X198818000Y-81310000D02*
X198408000Y-81310000D01*
X196308000Y-80590000D02*
X195868000Y-80590000D01*
X198818000Y-80590000D02*
X198408000Y-80590000D01*
X196308000Y-78770000D02*
X195868000Y-78770000D01*
X198818000Y-78770000D02*
X198408000Y-78770000D01*
X196308000Y-78050000D02*
X195868000Y-78050000D01*
X198818000Y-78050000D02*
X198408000Y-78050000D01*
X196308000Y-76230000D02*
X195928000Y-76230000D01*
X198818000Y-76230000D02*
X198408000Y-76230000D01*
X196308000Y-75510000D02*
X195928000Y-75510000D01*
X198818000Y-75510000D02*
X198408000Y-75510000D01*
X207448000Y-77021900D02*
X198818000Y-77021900D01*
X207448000Y-76903805D02*
X198818000Y-76903805D01*
X207448000Y-76785710D02*
X198818000Y-76785710D01*
X207448000Y-76667615D02*
X198818000Y-76667615D01*
X207448000Y-76549520D02*
X198818000Y-76549520D01*
X207448000Y-76431425D02*
X198818000Y-76431425D01*
X207448000Y-76313330D02*
X198818000Y-76313330D01*
X207448000Y-76195235D02*
X198818000Y-76195235D01*
X207448000Y-76077140D02*
X198818000Y-76077140D01*
X207448000Y-75959045D02*
X198818000Y-75959045D01*
X207448000Y-75840950D02*
X198818000Y-75840950D01*
X207448000Y-75722855D02*
X198818000Y-75722855D01*
X207448000Y-75604760D02*
X198818000Y-75604760D01*
X207448000Y-75486665D02*
X198818000Y-75486665D01*
X207448000Y-75368570D02*
X198818000Y-75368570D01*
X207448000Y-75250475D02*
X198818000Y-75250475D01*
X207448000Y-75132380D02*
X198818000Y-75132380D01*
X207448000Y-75014285D02*
X198818000Y-75014285D01*
X207448000Y-74896190D02*
X198818000Y-74896190D01*
X207448000Y-74778095D02*
X198818000Y-74778095D01*
X207448000Y-74660000D02*
X198818000Y-74660000D01*
X105182000Y-125460000D02*
X106292000Y-125460000D01*
X106292000Y-125460000D02*
X106292000Y-124130000D01*
X92552000Y-125460000D02*
X92552000Y-74540000D01*
X92552000Y-74540000D02*
X101182000Y-74540000D01*
X101182000Y-125460000D02*
X101182000Y-74540000D01*
X92552000Y-125460000D02*
X101182000Y-125460000D01*
X92552000Y-77140000D02*
X101182000Y-77140000D01*
X92552000Y-79680000D02*
X101182000Y-79680000D01*
X92552000Y-82220000D02*
X101182000Y-82220000D01*
X92552000Y-84760000D02*
X101182000Y-84760000D01*
X92552000Y-87300000D02*
X101182000Y-87300000D01*
X92552000Y-89840000D02*
X101182000Y-89840000D01*
X92552000Y-92380000D02*
X101182000Y-92380000D01*
X92552000Y-94920000D02*
X101182000Y-94920000D01*
X92552000Y-97460000D02*
X101182000Y-97460000D01*
X92552000Y-100000000D02*
X101182000Y-100000000D01*
X92552000Y-102540000D02*
X101182000Y-102540000D01*
X92552000Y-105080000D02*
X101182000Y-105080000D01*
X92552000Y-107620000D02*
X101182000Y-107620000D01*
X92552000Y-110160000D02*
X101182000Y-110160000D01*
X92552000Y-112700000D02*
X101182000Y-112700000D01*
X92552000Y-115240000D02*
X101182000Y-115240000D01*
X92552000Y-117780000D02*
X101182000Y-117780000D01*
X92552000Y-120320000D02*
X101182000Y-120320000D01*
X92552000Y-122860000D02*
X101182000Y-122860000D01*
X103692000Y-75510000D02*
X104132000Y-75510000D01*
X101182000Y-75510000D02*
X101592000Y-75510000D01*
X103692000Y-76230000D02*
X104132000Y-76230000D01*
X101182000Y-76230000D02*
X101592000Y-76230000D01*
X103692000Y-78050000D02*
X104132000Y-78050000D01*
X101182000Y-78050000D02*
X101592000Y-78050000D01*
X103692000Y-78770000D02*
X104132000Y-78770000D01*
X101182000Y-78770000D02*
X101592000Y-78770000D01*
X103692000Y-80590000D02*
X104132000Y-80590000D01*
X101182000Y-80590000D02*
X101592000Y-80590000D01*
X103692000Y-81310000D02*
X104132000Y-81310000D01*
X101182000Y-81310000D02*
X101592000Y-81310000D01*
X103692000Y-83130000D02*
X104132000Y-83130000D01*
X101182000Y-83130000D02*
X101592000Y-83130000D01*
X103692000Y-83850000D02*
X104132000Y-83850000D01*
X101182000Y-83850000D02*
X101592000Y-83850000D01*
X103692000Y-85670000D02*
X104132000Y-85670000D01*
X101182000Y-85670000D02*
X101592000Y-85670000D01*
X103692000Y-86390000D02*
X104132000Y-86390000D01*
X101182000Y-86390000D02*
X101592000Y-86390000D01*
X103692000Y-88210000D02*
X104132000Y-88210000D01*
X101182000Y-88210000D02*
X101592000Y-88210000D01*
X103692000Y-88930000D02*
X104132000Y-88930000D01*
X101182000Y-88930000D02*
X101592000Y-88930000D01*
X103692000Y-90750000D02*
X104132000Y-90750000D01*
X101182000Y-90750000D02*
X101592000Y-90750000D01*
X103692000Y-91470000D02*
X104132000Y-91470000D01*
X101182000Y-91470000D02*
X101592000Y-91470000D01*
X103692000Y-93290000D02*
X104132000Y-93290000D01*
X101182000Y-93290000D02*
X101592000Y-93290000D01*
X103692000Y-94010000D02*
X104132000Y-94010000D01*
X101182000Y-94010000D02*
X101592000Y-94010000D01*
X103692000Y-95830000D02*
X104132000Y-95830000D01*
X101182000Y-95830000D02*
X101592000Y-95830000D01*
X103692000Y-96550000D02*
X104132000Y-96550000D01*
X101182000Y-96550000D02*
X101592000Y-96550000D01*
X103692000Y-98370000D02*
X104132000Y-98370000D01*
X101182000Y-98370000D02*
X101592000Y-98370000D01*
X103692000Y-99090000D02*
X104132000Y-99090000D01*
X101182000Y-99090000D02*
X101592000Y-99090000D01*
X103692000Y-100910000D02*
X104132000Y-100910000D01*
X101182000Y-100910000D02*
X101592000Y-100910000D01*
X103692000Y-101630000D02*
X104132000Y-101630000D01*
X101182000Y-101630000D02*
X101592000Y-101630000D01*
X103692000Y-103450000D02*
X104132000Y-103450000D01*
X101182000Y-103450000D02*
X101592000Y-103450000D01*
X103692000Y-104170000D02*
X104132000Y-104170000D01*
X101182000Y-104170000D02*
X101592000Y-104170000D01*
X103692000Y-105990000D02*
X104132000Y-105990000D01*
X101182000Y-105990000D02*
X101592000Y-105990000D01*
X103692000Y-106710000D02*
X104132000Y-106710000D01*
X101182000Y-106710000D02*
X101592000Y-106710000D01*
X103692000Y-108530000D02*
X104132000Y-108530000D01*
X101182000Y-108530000D02*
X101592000Y-108530000D01*
X103692000Y-109250000D02*
X104132000Y-109250000D01*
X101182000Y-109250000D02*
X101592000Y-109250000D01*
X103692000Y-111070000D02*
X104132000Y-111070000D01*
X101182000Y-111070000D02*
X101592000Y-111070000D01*
X103692000Y-111790000D02*
X104132000Y-111790000D01*
X101182000Y-111790000D02*
X101592000Y-111790000D01*
X103692000Y-113610000D02*
X104132000Y-113610000D01*
X101182000Y-113610000D02*
X101592000Y-113610000D01*
X103692000Y-114330000D02*
X104132000Y-114330000D01*
X101182000Y-114330000D02*
X101592000Y-114330000D01*
X103692000Y-116150000D02*
X104132000Y-116150000D01*
X101182000Y-116150000D02*
X101592000Y-116150000D01*
X103692000Y-116870000D02*
X104132000Y-116870000D01*
X101182000Y-116870000D02*
X101592000Y-116870000D01*
X103692000Y-118690000D02*
X104132000Y-118690000D01*
X101182000Y-118690000D02*
X101592000Y-118690000D01*
X103692000Y-119410000D02*
X104132000Y-119410000D01*
X101182000Y-119410000D02*
X101592000Y-119410000D01*
X103692000Y-121230000D02*
X104132000Y-121230000D01*
X101182000Y-121230000D02*
X101592000Y-121230000D01*
X103692000Y-121950000D02*
X104132000Y-121950000D01*
X101182000Y-121950000D02*
X101592000Y-121950000D01*
X103692000Y-123770000D02*
X104072000Y-123770000D01*
X101182000Y-123770000D02*
X101592000Y-123770000D01*
X103692000Y-124490000D02*
X104072000Y-124490000D01*
X101182000Y-124490000D02*
X101592000Y-124490000D01*
X92552000Y-122978100D02*
X101182000Y-122978100D01*
X92552000Y-123096195D02*
X101182000Y-123096195D01*
X92552000Y-123214290D02*
X101182000Y-123214290D01*
X92552000Y-123332385D02*
X101182000Y-123332385D01*
X92552000Y-123450480D02*
X101182000Y-123450480D01*
X92552000Y-123568575D02*
X101182000Y-123568575D01*
X92552000Y-123686670D02*
X101182000Y-123686670D01*
X92552000Y-123804765D02*
X101182000Y-123804765D01*
X92552000Y-123922860D02*
X101182000Y-123922860D01*
X92552000Y-124040955D02*
X101182000Y-124040955D01*
X92552000Y-124159050D02*
X101182000Y-124159050D01*
X92552000Y-124277145D02*
X101182000Y-124277145D01*
X92552000Y-124395240D02*
X101182000Y-124395240D01*
X92552000Y-124513335D02*
X101182000Y-124513335D01*
X92552000Y-124631430D02*
X101182000Y-124631430D01*
X92552000Y-124749525D02*
X101182000Y-124749525D01*
X92552000Y-124867620D02*
X101182000Y-124867620D01*
X92552000Y-124985715D02*
X101182000Y-124985715D01*
X92552000Y-125103810D02*
X101182000Y-125103810D01*
X92552000Y-125221905D02*
X101182000Y-125221905D01*
X92552000Y-125340000D02*
X101182000Y-125340000D01*
X175460000Y-57020000D02*
X124540000Y-57020000D01*
X124540000Y-57020000D02*
X124540000Y-54360000D01*
X124540000Y-54360000D02*
X175460000Y-54360000D01*
X175460000Y-54360000D02*
X175460000Y-57020000D01*
X174510000Y-54360000D02*
X174510000Y-48360000D01*
X174510000Y-48360000D02*
X173750000Y-48360000D01*
X173750000Y-48360000D02*
X173750000Y-54360000D01*
X174450000Y-54360000D02*
X174450000Y-48360000D01*
X174330000Y-54360000D02*
X174330000Y-48360000D01*
X174210000Y-54360000D02*
X174210000Y-48360000D01*
X174090000Y-54360000D02*
X174090000Y-48360000D01*
X173970000Y-54360000D02*
X173970000Y-48360000D01*
X173850000Y-54360000D02*
X173850000Y-48360000D01*
X174510000Y-57417071D02*
X174510000Y-57020000D01*
X173750000Y-57417071D02*
X173750000Y-57020000D01*
X174510000Y-59890000D02*
X174510000Y-59502929D01*
X173750000Y-59890000D02*
X173750000Y-59502929D01*
X172860000Y-57020000D02*
X172860000Y-54360000D01*
X171970000Y-54360000D02*
X171970000Y-48360000D01*
X171970000Y-48360000D02*
X171210000Y-48360000D01*
X171210000Y-48360000D02*
X171210000Y-54360000D01*
X171970000Y-57417071D02*
X171970000Y-57020000D01*
X171210000Y-57417071D02*
X171210000Y-57020000D01*
X171970000Y-59957071D02*
X171970000Y-59502929D01*
X171210000Y-59957071D02*
X171210000Y-59502929D01*
X170320000Y-57020000D02*
X170320000Y-54360000D01*
X169430000Y-54360000D02*
X169430000Y-48360000D01*
X169430000Y-48360000D02*
X168670000Y-48360000D01*
X168670000Y-48360000D02*
X168670000Y-54360000D01*
X169430000Y-57417071D02*
X169430000Y-57020000D01*
X168670000Y-57417071D02*
X168670000Y-57020000D01*
X169430000Y-59957071D02*
X169430000Y-59502929D01*
X168670000Y-59957071D02*
X168670000Y-59502929D01*
X167780000Y-57020000D02*
X167780000Y-54360000D01*
X166890000Y-54360000D02*
X166890000Y-48360000D01*
X166890000Y-48360000D02*
X166130000Y-48360000D01*
X166130000Y-48360000D02*
X166130000Y-54360000D01*
X166890000Y-57417071D02*
X166890000Y-57020000D01*
X166130000Y-57417071D02*
X166130000Y-57020000D01*
X166890000Y-59957071D02*
X166890000Y-59502929D01*
X166130000Y-59957071D02*
X166130000Y-59502929D01*
X165240000Y-57020000D02*
X165240000Y-54360000D01*
X164350000Y-54360000D02*
X164350000Y-48360000D01*
X164350000Y-48360000D02*
X163590000Y-48360000D01*
X163590000Y-48360000D02*
X163590000Y-54360000D01*
X164350000Y-57417071D02*
X164350000Y-57020000D01*
X163590000Y-57417071D02*
X163590000Y-57020000D01*
X164350000Y-59957071D02*
X164350000Y-59502929D01*
X163590000Y-59957071D02*
X163590000Y-59502929D01*
X162700000Y-57020000D02*
X162700000Y-54360000D01*
X161810000Y-54360000D02*
X161810000Y-48360000D01*
X161810000Y-48360000D02*
X161050000Y-48360000D01*
X161050000Y-48360000D02*
X161050000Y-54360000D01*
X161810000Y-57417071D02*
X161810000Y-57020000D01*
X161050000Y-57417071D02*
X161050000Y-57020000D01*
X161810000Y-59957071D02*
X161810000Y-59502929D01*
X161050000Y-59957071D02*
X161050000Y-59502929D01*
X160160000Y-57020000D02*
X160160000Y-54360000D01*
X159270000Y-54360000D02*
X159270000Y-48360000D01*
X159270000Y-48360000D02*
X158510000Y-48360000D01*
X158510000Y-48360000D02*
X158510000Y-54360000D01*
X159270000Y-57417071D02*
X159270000Y-57020000D01*
X158510000Y-57417071D02*
X158510000Y-57020000D01*
X159270000Y-59957071D02*
X159270000Y-59502929D01*
X158510000Y-59957071D02*
X158510000Y-59502929D01*
X157620000Y-57020000D02*
X157620000Y-54360000D01*
X156730000Y-54360000D02*
X156730000Y-48360000D01*
X156730000Y-48360000D02*
X155970000Y-48360000D01*
X155970000Y-48360000D02*
X155970000Y-54360000D01*
X156730000Y-57417071D02*
X156730000Y-57020000D01*
X155970000Y-57417071D02*
X155970000Y-57020000D01*
X156730000Y-59957071D02*
X156730000Y-59502929D01*
X155970000Y-59957071D02*
X155970000Y-59502929D01*
X155080000Y-57020000D02*
X155080000Y-54360000D01*
X154190000Y-54360000D02*
X154190000Y-48360000D01*
X154190000Y-48360000D02*
X153430000Y-48360000D01*
X153430000Y-48360000D02*
X153430000Y-54360000D01*
X154190000Y-57417071D02*
X154190000Y-57020000D01*
X153430000Y-57417071D02*
X153430000Y-57020000D01*
X154190000Y-59957071D02*
X154190000Y-59502929D01*
X153430000Y-59957071D02*
X153430000Y-59502929D01*
X152540000Y-57020000D02*
X152540000Y-54360000D01*
X151650000Y-54360000D02*
X151650000Y-48360000D01*
X151650000Y-48360000D02*
X150890000Y-48360000D01*
X150890000Y-48360000D02*
X150890000Y-54360000D01*
X151650000Y-57417071D02*
X151650000Y-57020000D01*
X150890000Y-57417071D02*
X150890000Y-57020000D01*
X151650000Y-59957071D02*
X151650000Y-59502929D01*
X150890000Y-59957071D02*
X150890000Y-59502929D01*
X150000000Y-57020000D02*
X150000000Y-54360000D01*
X149110000Y-54360000D02*
X149110000Y-48360000D01*
X149110000Y-48360000D02*
X148350000Y-48360000D01*
X148350000Y-48360000D02*
X148350000Y-54360000D01*
X149110000Y-57417071D02*
X149110000Y-57020000D01*
X148350000Y-57417071D02*
X148350000Y-57020000D01*
X149110000Y-59957071D02*
X149110000Y-59502929D01*
X148350000Y-59957071D02*
X148350000Y-59502929D01*
X147460000Y-57020000D02*
X147460000Y-54360000D01*
X146570000Y-54360000D02*
X146570000Y-48360000D01*
X146570000Y-48360000D02*
X145810000Y-48360000D01*
X145810000Y-48360000D02*
X145810000Y-54360000D01*
X146570000Y-57417071D02*
X146570000Y-57020000D01*
X145810000Y-57417071D02*
X145810000Y-57020000D01*
X146570000Y-59957071D02*
X146570000Y-59502929D01*
X145810000Y-59957071D02*
X145810000Y-59502929D01*
X144920000Y-57020000D02*
X144920000Y-54360000D01*
X144030000Y-54360000D02*
X144030000Y-48360000D01*
X144030000Y-48360000D02*
X143270000Y-48360000D01*
X143270000Y-48360000D02*
X143270000Y-54360000D01*
X144030000Y-57417071D02*
X144030000Y-57020000D01*
X143270000Y-57417071D02*
X143270000Y-57020000D01*
X144030000Y-59957071D02*
X144030000Y-59502929D01*
X143270000Y-59957071D02*
X143270000Y-59502929D01*
X142380000Y-57020000D02*
X142380000Y-54360000D01*
X141490000Y-54360000D02*
X141490000Y-48360000D01*
X141490000Y-48360000D02*
X140730000Y-48360000D01*
X140730000Y-48360000D02*
X140730000Y-54360000D01*
X141490000Y-57417071D02*
X141490000Y-57020000D01*
X140730000Y-57417071D02*
X140730000Y-57020000D01*
X141490000Y-59957071D02*
X141490000Y-59502929D01*
X140730000Y-59957071D02*
X140730000Y-59502929D01*
X139840000Y-57020000D02*
X139840000Y-54360000D01*
X138950000Y-54360000D02*
X138950000Y-48360000D01*
X138950000Y-48360000D02*
X138190000Y-48360000D01*
X138190000Y-48360000D02*
X138190000Y-54360000D01*
X138950000Y-57417071D02*
X138950000Y-57020000D01*
X138190000Y-57417071D02*
X138190000Y-57020000D01*
X138950000Y-59957071D02*
X138950000Y-59502929D01*
X138190000Y-59957071D02*
X138190000Y-59502929D01*
X137300000Y-57020000D02*
X137300000Y-54360000D01*
X136410000Y-54360000D02*
X136410000Y-48360000D01*
X136410000Y-48360000D02*
X135650000Y-48360000D01*
X135650000Y-48360000D02*
X135650000Y-54360000D01*
X136410000Y-57417071D02*
X136410000Y-57020000D01*
X135650000Y-57417071D02*
X135650000Y-57020000D01*
X136410000Y-59957071D02*
X136410000Y-59502929D01*
X135650000Y-59957071D02*
X135650000Y-59502929D01*
X134760000Y-57020000D02*
X134760000Y-54360000D01*
X133870000Y-54360000D02*
X133870000Y-48360000D01*
X133870000Y-48360000D02*
X133110000Y-48360000D01*
X133110000Y-48360000D02*
X133110000Y-54360000D01*
X133870000Y-57417071D02*
X133870000Y-57020000D01*
X133110000Y-57417071D02*
X133110000Y-57020000D01*
X133870000Y-59957071D02*
X133870000Y-59502929D01*
X133110000Y-59957071D02*
X133110000Y-59502929D01*
X132220000Y-57020000D02*
X132220000Y-54360000D01*
X131330000Y-54360000D02*
X131330000Y-48360000D01*
X131330000Y-48360000D02*
X130570000Y-48360000D01*
X130570000Y-48360000D02*
X130570000Y-54360000D01*
X131330000Y-57417071D02*
X131330000Y-57020000D01*
X130570000Y-57417071D02*
X130570000Y-57020000D01*
X131330000Y-59957071D02*
X131330000Y-59502929D01*
X130570000Y-59957071D02*
X130570000Y-59502929D01*
X129680000Y-57020000D02*
X129680000Y-54360000D01*
X128790000Y-54360000D02*
X128790000Y-48360000D01*
X128790000Y-48360000D02*
X128030000Y-48360000D01*
X128030000Y-48360000D02*
X128030000Y-54360000D01*
X128790000Y-57417071D02*
X128790000Y-57020000D01*
X128030000Y-57417071D02*
X128030000Y-57020000D01*
X128790000Y-59957071D02*
X128790000Y-59502929D01*
X128030000Y-59957071D02*
X128030000Y-59502929D01*
X127140000Y-57020000D02*
X127140000Y-54360000D01*
X126250000Y-54360000D02*
X126250000Y-48360000D01*
X126250000Y-48360000D02*
X125490000Y-48360000D01*
X125490000Y-48360000D02*
X125490000Y-54360000D01*
X126250000Y-57417071D02*
X126250000Y-57020000D01*
X125490000Y-57417071D02*
X125490000Y-57020000D01*
X126250000Y-59957071D02*
X126250000Y-59502929D01*
X125490000Y-59957071D02*
X125490000Y-59502929D01*
X174130000Y-62270000D02*
X175400000Y-62270000D01*
X175400000Y-62270000D02*
X175400000Y-61000000D01*
D10*
X200801333Y-72552380D02*
X200801333Y-73266666D01*
X200848952Y-73409523D01*
X200944190Y-73504761D01*
X201087047Y-73552380D01*
X201182285Y-73552380D01*
X199896571Y-72552380D02*
X200087047Y-72552380D01*
X200182285Y-72600000D01*
X200229904Y-72647619D01*
X200325142Y-72790476D01*
X200372761Y-72980952D01*
X200372761Y-73361904D01*
X200325142Y-73457142D01*
X200277523Y-73504761D01*
X200182285Y-73552380D01*
X199991809Y-73552380D01*
X199896571Y-73504761D01*
X199848952Y-73457142D01*
X199801333Y-73361904D01*
X199801333Y-73123809D01*
X199848952Y-73028571D01*
X199896571Y-72980952D01*
X199991809Y-72933333D01*
X200182285Y-72933333D01*
X200277523Y-72980952D01*
X200325142Y-73028571D01*
X200372761Y-73123809D01*
X99865333Y-126352380D02*
X99865333Y-127066666D01*
X99912952Y-127209523D01*
X100008190Y-127304761D01*
X100151047Y-127352380D01*
X100246285Y-127352380D01*
X99436761Y-126447619D02*
X99389142Y-126400000D01*
X99293904Y-126352380D01*
X99055809Y-126352380D01*
X98960571Y-126400000D01*
X98912952Y-126447619D01*
X98865333Y-126542857D01*
X98865333Y-126638095D01*
X98912952Y-126780952D01*
X99484380Y-127352380D01*
X98865333Y-127352380D01*
X175852380Y-55011666D02*
X176566666Y-55011666D01*
X176709523Y-54964047D01*
X176804761Y-54868809D01*
X176852380Y-54725952D01*
X176852380Y-54630714D01*
X176852380Y-56011666D02*
X176852380Y-55440238D01*
X176852380Y-55725952D02*
X175852380Y-55725952D01*
X175995238Y-55630714D01*
X176090476Y-55535476D01*
X176138095Y-55440238D01*
M02*
