G04 #@! TF.GenerationSoftware,KiCad,Pcbnew,(5.1.5-0-10_14)*
G04 #@! TF.CreationDate,2020-03-03T11:48:17+01:00*
G04 #@! TF.ProjectId,io,696f2e6b-6963-4616-945f-706362585858,1*
G04 #@! TF.SameCoordinates,Original*
G04 #@! TF.FileFunction,Legend,Top*
G04 #@! TF.FilePolarity,Positive*
%FSLAX46Y46*%
G04 Gerber Fmt 4.6, Leading zero omitted, Abs format (unit mm)*
G04 Created by KiCad (PCBNEW (5.1.5-0-10_14)) date 2020-03-03 11:48:17*
%MOMM*%
%LPD*%
G04 APERTURE LIST*
%ADD10C,0.150000*%
%ADD11C,0.225000*%
%ADD12C,0.120000*%
G04 APERTURE END LIST*
D10*
X113976190Y-132452380D02*
X113976190Y-131452380D01*
X114642857Y-131452380D02*
X114833333Y-131452380D01*
X114928571Y-131500000D01*
X115023809Y-131595238D01*
X115071428Y-131785714D01*
X115071428Y-132119047D01*
X115023809Y-132309523D01*
X114928571Y-132404761D01*
X114833333Y-132452380D01*
X114642857Y-132452380D01*
X114547619Y-132404761D01*
X114452380Y-132309523D01*
X114404761Y-132119047D01*
X114404761Y-131785714D01*
X114452380Y-131595238D01*
X114547619Y-131500000D01*
X114642857Y-131452380D01*
X113814285Y-129452380D02*
X113480952Y-128976190D01*
X113242857Y-129452380D02*
X113242857Y-128452380D01*
X113623809Y-128452380D01*
X113719047Y-128500000D01*
X113766666Y-128547619D01*
X113814285Y-128642857D01*
X113814285Y-128785714D01*
X113766666Y-128880952D01*
X113719047Y-128928571D01*
X113623809Y-128976190D01*
X113242857Y-128976190D01*
X114433333Y-128452380D02*
X114623809Y-128452380D01*
X114719047Y-128500000D01*
X114814285Y-128595238D01*
X114861904Y-128785714D01*
X114861904Y-129119047D01*
X114814285Y-129309523D01*
X114719047Y-129404761D01*
X114623809Y-129452380D01*
X114433333Y-129452380D01*
X114338095Y-129404761D01*
X114242857Y-129309523D01*
X114195238Y-129119047D01*
X114195238Y-128785714D01*
X114242857Y-128595238D01*
X114338095Y-128500000D01*
X114433333Y-128452380D01*
X115290476Y-129452380D02*
X115290476Y-128452380D01*
X115623809Y-129166666D01*
X115957142Y-128452380D01*
X115957142Y-129452380D01*
X113909523Y-126552380D02*
X113576190Y-126076190D01*
X113338095Y-126552380D02*
X113338095Y-125552380D01*
X113719047Y-125552380D01*
X113814285Y-125600000D01*
X113861904Y-125647619D01*
X113909523Y-125742857D01*
X113909523Y-125885714D01*
X113861904Y-125980952D01*
X113814285Y-126028571D01*
X113719047Y-126076190D01*
X113338095Y-126076190D01*
X114290476Y-126266666D02*
X114766666Y-126266666D01*
X114195238Y-126552380D02*
X114528571Y-125552380D01*
X114861904Y-126552380D01*
X115195238Y-126552380D02*
X115195238Y-125552380D01*
X115528571Y-126266666D01*
X115861904Y-125552380D01*
X115861904Y-126552380D01*
X114052380Y-122552380D02*
X114242857Y-122552380D01*
X114338095Y-122600000D01*
X114433333Y-122695238D01*
X114480952Y-122885714D01*
X114480952Y-123219047D01*
X114433333Y-123409523D01*
X114338095Y-123504761D01*
X114242857Y-123552380D01*
X114052380Y-123552380D01*
X113957142Y-123504761D01*
X113861904Y-123409523D01*
X113814285Y-123219047D01*
X113814285Y-122885714D01*
X113861904Y-122695238D01*
X113957142Y-122600000D01*
X114052380Y-122552380D01*
X114909523Y-123028571D02*
X115242857Y-123028571D01*
X115385714Y-123552380D02*
X114909523Y-123552380D01*
X114909523Y-122552380D01*
X115385714Y-122552380D01*
X113719047Y-119452380D02*
X113957142Y-120452380D01*
X114147619Y-119738095D01*
X114338095Y-120452380D01*
X114576190Y-119452380D01*
X114957142Y-119928571D02*
X115290476Y-119928571D01*
X115433333Y-120452380D02*
X114957142Y-120452380D01*
X114957142Y-119452380D01*
X115433333Y-119452380D01*
X168652380Y-67952380D02*
X168747619Y-67952380D01*
X168842857Y-68000000D01*
X168890476Y-68047619D01*
X168938095Y-68142857D01*
X168985714Y-68333333D01*
X168985714Y-68571428D01*
X168938095Y-68761904D01*
X168890476Y-68857142D01*
X168842857Y-68904761D01*
X168747619Y-68952380D01*
X168652380Y-68952380D01*
X168557142Y-68904761D01*
X168509523Y-68857142D01*
X168461904Y-68761904D01*
X168414285Y-68571428D01*
X168414285Y-68333333D01*
X168461904Y-68142857D01*
X168509523Y-68047619D01*
X168557142Y-68000000D01*
X168652380Y-67952380D01*
X150766666Y-68052380D02*
X151433333Y-68052380D01*
X151004761Y-69052380D01*
X148052380Y-67952380D02*
X148147619Y-67952380D01*
X148242857Y-68000000D01*
X148290476Y-68047619D01*
X148338095Y-68142857D01*
X148385714Y-68333333D01*
X148385714Y-68571428D01*
X148338095Y-68761904D01*
X148290476Y-68857142D01*
X148242857Y-68904761D01*
X148147619Y-68952380D01*
X148052380Y-68952380D01*
X147957142Y-68904761D01*
X147909523Y-68857142D01*
X147861904Y-68761904D01*
X147814285Y-68571428D01*
X147814285Y-68333333D01*
X147861904Y-68142857D01*
X147909523Y-68047619D01*
X147957142Y-68000000D01*
X148052380Y-67952380D01*
X114009523Y-69052380D02*
X113438095Y-69052380D01*
X113723809Y-69052380D02*
X113723809Y-68052380D01*
X113628571Y-68195238D01*
X113533333Y-68290476D01*
X113438095Y-68338095D01*
X114914285Y-68052380D02*
X114438095Y-68052380D01*
X114390476Y-68528571D01*
X114438095Y-68480952D01*
X114533333Y-68433333D01*
X114771428Y-68433333D01*
X114866666Y-68480952D01*
X114914285Y-68528571D01*
X114961904Y-68623809D01*
X114961904Y-68861904D01*
X114914285Y-68957142D01*
X114866666Y-69004761D01*
X114771428Y-69052380D01*
X114533333Y-69052380D01*
X114438095Y-69004761D01*
X114390476Y-68957142D01*
D11*
X157950000Y-65878571D02*
X157950000Y-64378571D01*
X158307142Y-64378571D01*
X158521428Y-64450000D01*
X158664285Y-64592857D01*
X158735714Y-64735714D01*
X158807142Y-65021428D01*
X158807142Y-65235714D01*
X158735714Y-65521428D01*
X158664285Y-65664285D01*
X158521428Y-65807142D01*
X158307142Y-65878571D01*
X157950000Y-65878571D01*
X159378571Y-65450000D02*
X160092857Y-65450000D01*
X159235714Y-65878571D02*
X159735714Y-64378571D01*
X160235714Y-65878571D01*
X160521428Y-64378571D02*
X161378571Y-64378571D01*
X160950000Y-65878571D02*
X160950000Y-64378571D01*
X161807142Y-65450000D02*
X162521428Y-65450000D01*
X161664285Y-65878571D02*
X162164285Y-64378571D01*
X162664285Y-65878571D01*
X126785714Y-65550000D02*
X127500000Y-65550000D01*
X126642857Y-65978571D02*
X127142857Y-64478571D01*
X127642857Y-65978571D01*
X128142857Y-65978571D02*
X128142857Y-64478571D01*
X128500000Y-64478571D01*
X128714285Y-64550000D01*
X128857142Y-64692857D01*
X128928571Y-64835714D01*
X129000000Y-65121428D01*
X129000000Y-65335714D01*
X128928571Y-65621428D01*
X128857142Y-65764285D01*
X128714285Y-65907142D01*
X128500000Y-65978571D01*
X128142857Y-65978571D01*
X129642857Y-65978571D02*
X129642857Y-64478571D01*
X130000000Y-64478571D01*
X130214285Y-64550000D01*
X130357142Y-64692857D01*
X130428571Y-64835714D01*
X130500000Y-65121428D01*
X130500000Y-65335714D01*
X130428571Y-65621428D01*
X130357142Y-65764285D01*
X130214285Y-65907142D01*
X130000000Y-65978571D01*
X129642857Y-65978571D01*
X132000000Y-65978571D02*
X131500000Y-65264285D01*
X131142857Y-65978571D02*
X131142857Y-64478571D01*
X131714285Y-64478571D01*
X131857142Y-64550000D01*
X131928571Y-64621428D01*
X132000000Y-64764285D01*
X132000000Y-64978571D01*
X131928571Y-65121428D01*
X131857142Y-65192857D01*
X131714285Y-65264285D01*
X131142857Y-65264285D01*
X132642857Y-65192857D02*
X133142857Y-65192857D01*
X133357142Y-65978571D02*
X132642857Y-65978571D01*
X132642857Y-64478571D01*
X133357142Y-64478571D01*
X133928571Y-65907142D02*
X134142857Y-65978571D01*
X134500000Y-65978571D01*
X134642857Y-65907142D01*
X134714285Y-65835714D01*
X134785714Y-65692857D01*
X134785714Y-65550000D01*
X134714285Y-65407142D01*
X134642857Y-65335714D01*
X134500000Y-65264285D01*
X134214285Y-65192857D01*
X134071428Y-65121428D01*
X134000000Y-65050000D01*
X133928571Y-64907142D01*
X133928571Y-64764285D01*
X134000000Y-64621428D01*
X134071428Y-64550000D01*
X134214285Y-64478571D01*
X134571428Y-64478571D01*
X134785714Y-64550000D01*
X135357142Y-65907142D02*
X135571428Y-65978571D01*
X135928571Y-65978571D01*
X136071428Y-65907142D01*
X136142857Y-65835714D01*
X136214285Y-65692857D01*
X136214285Y-65550000D01*
X136142857Y-65407142D01*
X136071428Y-65335714D01*
X135928571Y-65264285D01*
X135642857Y-65192857D01*
X135500000Y-65121428D01*
X135428571Y-65050000D01*
X135357142Y-64907142D01*
X135357142Y-64764285D01*
X135428571Y-64621428D01*
X135500000Y-64550000D01*
X135642857Y-64478571D01*
X136000000Y-64478571D01*
X136214285Y-64550000D01*
D12*
X110000000Y-111000000D02*
X110000000Y-75000000D01*
X190000000Y-111000000D02*
X110000000Y-111000000D01*
X190000000Y-75000000D02*
X190000000Y-111000000D01*
X110000000Y-75000000D02*
X190000000Y-75000000D01*
X184900000Y-70000000D02*
X184900000Y-67900000D01*
X184600000Y-70300000D02*
X186200000Y-70300000D01*
X184600000Y-68600000D02*
X184600000Y-70300000D01*
X184900000Y-60800000D02*
X186700000Y-60800000D01*
X184900000Y-62900000D02*
X184900000Y-60800000D01*
X199600000Y-70000000D02*
X184900000Y-70000000D01*
X199600000Y-60800000D02*
X199600000Y-70000000D01*
X191100000Y-60800000D02*
X199600000Y-60800000D01*
X158290000Y-115158578D02*
X158290000Y-114641422D01*
X156870000Y-115158578D02*
X156870000Y-114641422D01*
X160830000Y-115158578D02*
X160830000Y-114641422D01*
X159410000Y-115158578D02*
X159410000Y-114641422D01*
X163370000Y-115158578D02*
X163370000Y-114641422D01*
X161950000Y-115158578D02*
X161950000Y-114641422D01*
X165910000Y-115158578D02*
X165910000Y-114641422D01*
X164490000Y-115158578D02*
X164490000Y-114641422D01*
X168450000Y-115158578D02*
X168450000Y-114641422D01*
X167030000Y-115158578D02*
X167030000Y-114641422D01*
X170990000Y-115158578D02*
X170990000Y-114641422D01*
X169570000Y-115158578D02*
X169570000Y-114641422D01*
X173530000Y-115158578D02*
X173530000Y-114641422D01*
X172110000Y-115158578D02*
X172110000Y-114641422D01*
X176070000Y-115158578D02*
X176070000Y-114641422D01*
X174650000Y-115158578D02*
X174650000Y-114641422D01*
X167610000Y-83141422D02*
X167610000Y-83658578D01*
X166190000Y-83141422D02*
X166190000Y-83658578D01*
X130658578Y-114810000D02*
X130141422Y-114810000D01*
X130658578Y-113390000D02*
X130141422Y-113390000D01*
X166710000Y-96458578D02*
X166710000Y-95941422D01*
X165290000Y-96458578D02*
X165290000Y-95941422D01*
X118558578Y-98210000D02*
X118041422Y-98210000D01*
X118558578Y-96790000D02*
X118041422Y-96790000D01*
X165041422Y-139310000D02*
X165558578Y-139310000D01*
X165041422Y-137890000D02*
X165558578Y-137890000D01*
X192641422Y-128510000D02*
X193158578Y-128510000D01*
X192641422Y-127090000D02*
X193158578Y-127090000D01*
X184860000Y-52040000D02*
X183660000Y-52040000D01*
X180340000Y-52040000D02*
X181540000Y-52040000D01*
X180340000Y-55495563D02*
X180340000Y-52040000D01*
X184860000Y-55495563D02*
X184860000Y-52040000D01*
X183795563Y-56560000D02*
X183660000Y-56560000D01*
X181404437Y-56560000D02*
X181540000Y-56560000D01*
X181404437Y-56560000D02*
X180340000Y-55495563D01*
X183795563Y-56560000D02*
X184860000Y-55495563D01*
X181040000Y-57300000D02*
X181040000Y-56800000D01*
X180790000Y-57050000D02*
X181290000Y-57050000D01*
X112685000Y-119040000D02*
X110000000Y-119040000D01*
X112685000Y-120960000D02*
X112685000Y-119040000D01*
X110000000Y-120960000D02*
X112685000Y-120960000D01*
X112685000Y-122040000D02*
X110000000Y-122040000D01*
X112685000Y-123960000D02*
X112685000Y-122040000D01*
X110000000Y-123960000D02*
X112685000Y-123960000D01*
X112685000Y-125040000D02*
X110000000Y-125040000D01*
X112685000Y-126960000D02*
X112685000Y-125040000D01*
X110000000Y-126960000D02*
X112685000Y-126960000D01*
X112685000Y-128040000D02*
X110000000Y-128040000D01*
X112685000Y-129960000D02*
X112685000Y-128040000D01*
X110000000Y-129960000D02*
X112685000Y-129960000D01*
X112685000Y-131040000D02*
X110000000Y-131040000D01*
X112685000Y-132960000D02*
X112685000Y-131040000D01*
X110000000Y-132960000D02*
X112685000Y-132960000D01*
X147460000Y-70185000D02*
X147460000Y-67500000D01*
X145540000Y-70185000D02*
X147460000Y-70185000D01*
X145540000Y-67500000D02*
X145540000Y-70185000D01*
X145460000Y-70185000D02*
X145460000Y-67500000D01*
X143540000Y-70185000D02*
X145460000Y-70185000D01*
X143540000Y-67500000D02*
X143540000Y-70185000D01*
X143460000Y-70185000D02*
X143460000Y-67500000D01*
X141540000Y-70185000D02*
X143460000Y-70185000D01*
X141540000Y-67500000D02*
X141540000Y-70185000D01*
X141460000Y-70185000D02*
X141460000Y-67500000D01*
X139540000Y-70185000D02*
X141460000Y-70185000D01*
X139540000Y-67500000D02*
X139540000Y-70185000D01*
X137540000Y-67500000D02*
X137540000Y-70185000D01*
X137540000Y-70185000D02*
X139460000Y-70185000D01*
X139460000Y-70185000D02*
X139460000Y-67500000D01*
X135540000Y-67500000D02*
X135540000Y-70185000D01*
X135540000Y-70185000D02*
X137460000Y-70185000D01*
X137460000Y-70185000D02*
X137460000Y-67500000D01*
X133540000Y-67500000D02*
X133540000Y-70185000D01*
X133540000Y-70185000D02*
X135460000Y-70185000D01*
X135460000Y-70185000D02*
X135460000Y-67500000D01*
X131540000Y-67500000D02*
X131540000Y-70185000D01*
X131540000Y-70185000D02*
X133460000Y-70185000D01*
X133460000Y-70185000D02*
X133460000Y-67500000D01*
X129540000Y-67500000D02*
X129540000Y-70185000D01*
X129540000Y-70185000D02*
X131460000Y-70185000D01*
X131460000Y-70185000D02*
X131460000Y-67500000D01*
X127540000Y-67500000D02*
X127540000Y-70185000D01*
X127540000Y-70185000D02*
X129460000Y-70185000D01*
X129460000Y-70185000D02*
X129460000Y-67500000D01*
X125540000Y-67500000D02*
X125540000Y-70185000D01*
X125540000Y-70185000D02*
X127460000Y-70185000D01*
X127460000Y-70185000D02*
X127460000Y-67500000D01*
X123540000Y-67500000D02*
X123540000Y-70185000D01*
X123540000Y-70185000D02*
X125460000Y-70185000D01*
X125460000Y-70185000D02*
X125460000Y-67500000D01*
X121540000Y-67500000D02*
X121540000Y-70185000D01*
X121540000Y-70185000D02*
X123460000Y-70185000D01*
X123460000Y-70185000D02*
X123460000Y-67500000D01*
X119540000Y-67500000D02*
X119540000Y-70185000D01*
X119540000Y-70185000D02*
X121460000Y-70185000D01*
X121460000Y-70185000D02*
X121460000Y-67500000D01*
X117540000Y-67500000D02*
X117540000Y-70185000D01*
X117540000Y-70185000D02*
X119460000Y-70185000D01*
X119460000Y-70185000D02*
X119460000Y-67500000D01*
X115540000Y-67500000D02*
X115540000Y-70185000D01*
X115540000Y-70185000D02*
X117460000Y-70185000D01*
X117460000Y-70185000D02*
X117460000Y-67500000D01*
X166040000Y-67500000D02*
X166040000Y-70185000D01*
X166040000Y-70185000D02*
X167960000Y-70185000D01*
X167960000Y-70185000D02*
X167960000Y-67500000D01*
X164040000Y-67500000D02*
X164040000Y-70185000D01*
X164040000Y-70185000D02*
X165960000Y-70185000D01*
X165960000Y-70185000D02*
X165960000Y-67500000D01*
X162040000Y-67500000D02*
X162040000Y-70185000D01*
X162040000Y-70185000D02*
X163960000Y-70185000D01*
X163960000Y-70185000D02*
X163960000Y-67500000D01*
X161960000Y-70185000D02*
X161960000Y-67500000D01*
X160040000Y-70185000D02*
X161960000Y-70185000D01*
X160040000Y-67500000D02*
X160040000Y-70185000D01*
X159960000Y-70185000D02*
X159960000Y-67500000D01*
X158040000Y-70185000D02*
X159960000Y-70185000D01*
X158040000Y-67500000D02*
X158040000Y-70185000D01*
X157960000Y-70185000D02*
X157960000Y-67500000D01*
X156040000Y-70185000D02*
X157960000Y-70185000D01*
X156040000Y-67500000D02*
X156040000Y-70185000D01*
X155960000Y-70185000D02*
X155960000Y-67500000D01*
X154040000Y-70185000D02*
X155960000Y-70185000D01*
X154040000Y-67500000D02*
X154040000Y-70185000D01*
X153960000Y-70185000D02*
X153960000Y-67500000D01*
X152040000Y-70185000D02*
X153960000Y-70185000D01*
X152040000Y-67500000D02*
X152040000Y-70185000D01*
X176570000Y-120530000D02*
X176570000Y-119200000D01*
X177900000Y-120530000D02*
X176570000Y-120530000D01*
X179170000Y-120530000D02*
X179170000Y-117870000D01*
X179170000Y-117870000D02*
X197010000Y-117870000D01*
X179170000Y-120530000D02*
X197010000Y-120530000D01*
X197010000Y-120530000D02*
X197010000Y-117870000D01*
X156250000Y-117870000D02*
X156250000Y-120530000D01*
X174090000Y-117870000D02*
X156250000Y-117870000D01*
X174090000Y-120530000D02*
X156250000Y-120530000D01*
X174090000Y-117870000D02*
X174090000Y-120530000D01*
X175360000Y-117870000D02*
X176690000Y-117870000D01*
X176690000Y-117870000D02*
X176690000Y-119200000D01*
X151741422Y-81990000D02*
X152258578Y-81990000D01*
X151741422Y-83410000D02*
X152258578Y-83410000D01*
X106741422Y-119290000D02*
X107258578Y-119290000D01*
X106741422Y-120710000D02*
X107258578Y-120710000D01*
X106741422Y-122290000D02*
X107258578Y-122290000D01*
X106741422Y-123710000D02*
X107258578Y-123710000D01*
X106741422Y-125290000D02*
X107258578Y-125290000D01*
X106741422Y-126710000D02*
X107258578Y-126710000D01*
X106741422Y-128290000D02*
X107258578Y-128290000D01*
X106741422Y-129710000D02*
X107258578Y-129710000D01*
X106741422Y-131290000D02*
X107258578Y-131290000D01*
X106741422Y-132710000D02*
X107258578Y-132710000D01*
X177190000Y-122711422D02*
X177190000Y-123228578D01*
X178610000Y-122711422D02*
X178610000Y-123228578D01*
X181150000Y-122711422D02*
X181150000Y-123228578D01*
X179730000Y-122711422D02*
X179730000Y-123228578D01*
X182270000Y-122711422D02*
X182270000Y-123228578D01*
X183690000Y-122711422D02*
X183690000Y-123228578D01*
X186230000Y-122711422D02*
X186230000Y-123228578D01*
X184810000Y-122711422D02*
X184810000Y-123228578D01*
X187350000Y-122711422D02*
X187350000Y-123228578D01*
X188770000Y-122711422D02*
X188770000Y-123228578D01*
X191310000Y-122711422D02*
X191310000Y-123228578D01*
X189890000Y-122711422D02*
X189890000Y-123228578D01*
X192430000Y-122711422D02*
X192430000Y-123228578D01*
X193850000Y-122711422D02*
X193850000Y-123228578D01*
X196390000Y-122711422D02*
X196390000Y-123228578D01*
X194970000Y-122711422D02*
X194970000Y-123228578D01*
X147210000Y-72258578D02*
X147210000Y-71741422D01*
X145790000Y-72258578D02*
X145790000Y-71741422D01*
X143790000Y-72258578D02*
X143790000Y-71741422D01*
X145210000Y-72258578D02*
X145210000Y-71741422D01*
X143210000Y-72258578D02*
X143210000Y-71741422D01*
X141790000Y-72258578D02*
X141790000Y-71741422D01*
X141210000Y-72258578D02*
X141210000Y-71741422D01*
X139790000Y-72258578D02*
X139790000Y-71741422D01*
X137790000Y-72258578D02*
X137790000Y-71741422D01*
X139210000Y-72258578D02*
X139210000Y-71741422D01*
X135790000Y-72258578D02*
X135790000Y-71741422D01*
X137210000Y-72258578D02*
X137210000Y-71741422D01*
X133790000Y-72258578D02*
X133790000Y-71741422D01*
X135210000Y-72258578D02*
X135210000Y-71741422D01*
X133210000Y-72258578D02*
X133210000Y-71741422D01*
X131790000Y-72258578D02*
X131790000Y-71741422D01*
X131210000Y-72258578D02*
X131210000Y-71741422D01*
X129790000Y-72258578D02*
X129790000Y-71741422D01*
X129210000Y-72258578D02*
X129210000Y-71741422D01*
X127790000Y-72258578D02*
X127790000Y-71741422D01*
X127210000Y-72258578D02*
X127210000Y-71741422D01*
X125790000Y-72258578D02*
X125790000Y-71741422D01*
X125210000Y-72258578D02*
X125210000Y-71741422D01*
X123790000Y-72258578D02*
X123790000Y-71741422D01*
X123210000Y-72258578D02*
X123210000Y-71741422D01*
X121790000Y-72258578D02*
X121790000Y-71741422D01*
X119790000Y-72258578D02*
X119790000Y-71741422D01*
X121210000Y-72258578D02*
X121210000Y-71741422D01*
X119210000Y-72258578D02*
X119210000Y-71741422D01*
X117790000Y-72258578D02*
X117790000Y-71741422D01*
X115790000Y-72258578D02*
X115790000Y-71741422D01*
X117210000Y-72258578D02*
X117210000Y-71741422D01*
X167710000Y-72258578D02*
X167710000Y-71741422D01*
X166290000Y-72258578D02*
X166290000Y-71741422D01*
X164290000Y-72258578D02*
X164290000Y-71741422D01*
X165710000Y-72258578D02*
X165710000Y-71741422D01*
X163710000Y-72258578D02*
X163710000Y-71741422D01*
X162290000Y-72258578D02*
X162290000Y-71741422D01*
X160290000Y-72258578D02*
X160290000Y-71741422D01*
X161710000Y-72258578D02*
X161710000Y-71741422D01*
X159710000Y-72258578D02*
X159710000Y-71741422D01*
X158290000Y-72258578D02*
X158290000Y-71741422D01*
X157710000Y-72258578D02*
X157710000Y-71741422D01*
X156290000Y-72258578D02*
X156290000Y-71741422D01*
X154290000Y-72258578D02*
X154290000Y-71741422D01*
X155710000Y-72258578D02*
X155710000Y-71741422D01*
X153710000Y-72258578D02*
X153710000Y-71741422D01*
X152290000Y-72258578D02*
X152290000Y-71741422D01*
X105270000Y-79575000D02*
X105270000Y-89345000D01*
X100200000Y-79575000D02*
X100200000Y-89345000D01*
X105270000Y-79575000D02*
X100200000Y-79575000D01*
X105270000Y-89345000D02*
X100200000Y-89345000D01*
X102805000Y-78055000D02*
X102805000Y-79574000D01*
X100375000Y-78055000D02*
X100375000Y-79574000D01*
X102805000Y-78055000D02*
X100375000Y-78055000D01*
X102805000Y-79574000D02*
X100375000Y-79574000D01*
X101590000Y-78055000D02*
X101590000Y-78814000D01*
D10*
X158175000Y-98175000D02*
X158175000Y-98300000D01*
X162825000Y-98175000D02*
X162825000Y-98400000D01*
X162825000Y-103425000D02*
X162825000Y-103200000D01*
X158175000Y-103425000D02*
X158175000Y-103200000D01*
X158175000Y-98175000D02*
X162825000Y-98175000D01*
X158175000Y-103425000D02*
X162825000Y-103425000D01*
X158175000Y-98300000D02*
X156825000Y-98300000D01*
X158175000Y-89875000D02*
X158175000Y-90000000D01*
X162825000Y-89875000D02*
X162825000Y-90100000D01*
X162825000Y-95125000D02*
X162825000Y-94900000D01*
X158175000Y-95125000D02*
X158175000Y-94900000D01*
X158175000Y-89875000D02*
X162825000Y-89875000D01*
X158175000Y-95125000D02*
X162825000Y-95125000D01*
X158175000Y-90000000D02*
X156825000Y-90000000D01*
X158175000Y-81500000D02*
X156825000Y-81500000D01*
X158175000Y-86625000D02*
X162825000Y-86625000D01*
X158175000Y-81375000D02*
X162825000Y-81375000D01*
X158175000Y-86625000D02*
X158175000Y-86400000D01*
X162825000Y-86625000D02*
X162825000Y-86400000D01*
X162825000Y-81375000D02*
X162825000Y-81600000D01*
X158175000Y-81375000D02*
X158175000Y-81500000D01*
D12*
X120400000Y-137400000D02*
X138600000Y-137400000D01*
X138600000Y-137400000D02*
X138600000Y-116600000D01*
X138600000Y-116600000D02*
X122400000Y-116600000D01*
X122400000Y-116600000D02*
X120400000Y-118600000D01*
X120400000Y-118600000D02*
X120400000Y-137400000D01*
X122600000Y-99610000D02*
X134400000Y-99610000D01*
X121295000Y-91390000D02*
X134400000Y-91390000D01*
X119270000Y-78830000D02*
X119270000Y-76170000D01*
X119270000Y-78830000D02*
X157430000Y-78830000D01*
X157430000Y-78830000D02*
X157430000Y-76170000D01*
X119270000Y-76170000D02*
X157430000Y-76170000D01*
X116670000Y-76170000D02*
X118000000Y-76170000D01*
X116670000Y-77500000D02*
X116670000Y-76170000D01*
D10*
X183850000Y-129150000D02*
X189825000Y-129150000D01*
X185375000Y-136050000D02*
X189825000Y-136050000D01*
X167525000Y-129050000D02*
X163075000Y-129050000D01*
X169050000Y-135950000D02*
X163075000Y-135950000D01*
X182852380Y-65733333D02*
X183566666Y-65733333D01*
X183709523Y-65780952D01*
X183804761Y-65876190D01*
X183852380Y-66019047D01*
X183852380Y-66114285D01*
X183185714Y-64828571D02*
X183852380Y-64828571D01*
X182804761Y-65066666D02*
X183519047Y-65304761D01*
X183519047Y-64685714D01*
X156252380Y-115542857D02*
X155776190Y-115876190D01*
X156252380Y-116114285D02*
X155252380Y-116114285D01*
X155252380Y-115733333D01*
X155300000Y-115638095D01*
X155347619Y-115590476D01*
X155442857Y-115542857D01*
X155585714Y-115542857D01*
X155680952Y-115590476D01*
X155728571Y-115638095D01*
X155776190Y-115733333D01*
X155776190Y-116114285D01*
X155585714Y-114685714D02*
X156252380Y-114685714D01*
X155204761Y-114923809D02*
X155919047Y-115161904D01*
X155919047Y-114542857D01*
X155252380Y-113733333D02*
X155252380Y-113923809D01*
X155300000Y-114019047D01*
X155347619Y-114066666D01*
X155490476Y-114161904D01*
X155680952Y-114209523D01*
X156061904Y-114209523D01*
X156157142Y-114161904D01*
X156204761Y-114114285D01*
X156252380Y-114019047D01*
X156252380Y-113828571D01*
X156204761Y-113733333D01*
X156157142Y-113685714D01*
X156061904Y-113638095D01*
X155823809Y-113638095D01*
X155728571Y-113685714D01*
X155680952Y-113733333D01*
X155633333Y-113828571D01*
X155633333Y-114019047D01*
X155680952Y-114114285D01*
X155728571Y-114161904D01*
X155823809Y-114209523D01*
X177752380Y-115442857D02*
X177276190Y-115776190D01*
X177752380Y-116014285D02*
X176752380Y-116014285D01*
X176752380Y-115633333D01*
X176800000Y-115538095D01*
X176847619Y-115490476D01*
X176942857Y-115442857D01*
X177085714Y-115442857D01*
X177180952Y-115490476D01*
X177228571Y-115538095D01*
X177276190Y-115633333D01*
X177276190Y-116014285D01*
X176752380Y-115109523D02*
X176752380Y-114490476D01*
X177133333Y-114823809D01*
X177133333Y-114680952D01*
X177180952Y-114585714D01*
X177228571Y-114538095D01*
X177323809Y-114490476D01*
X177561904Y-114490476D01*
X177657142Y-114538095D01*
X177704761Y-114585714D01*
X177752380Y-114680952D01*
X177752380Y-114966666D01*
X177704761Y-115061904D01*
X177657142Y-115109523D01*
X177752380Y-114014285D02*
X177752380Y-113823809D01*
X177704761Y-113728571D01*
X177657142Y-113680952D01*
X177514285Y-113585714D01*
X177323809Y-113538095D01*
X176942857Y-113538095D01*
X176847619Y-113585714D01*
X176800000Y-113633333D01*
X176752380Y-113728571D01*
X176752380Y-113919047D01*
X176800000Y-114014285D01*
X176847619Y-114061904D01*
X176942857Y-114109523D01*
X177180952Y-114109523D01*
X177276190Y-114061904D01*
X177323809Y-114014285D01*
X177371428Y-113919047D01*
X177371428Y-113728571D01*
X177323809Y-113633333D01*
X177276190Y-113585714D01*
X177180952Y-113538095D01*
X168907142Y-83566666D02*
X168954761Y-83614285D01*
X169002380Y-83757142D01*
X169002380Y-83852380D01*
X168954761Y-83995238D01*
X168859523Y-84090476D01*
X168764285Y-84138095D01*
X168573809Y-84185714D01*
X168430952Y-84185714D01*
X168240476Y-84138095D01*
X168145238Y-84090476D01*
X168050000Y-83995238D01*
X168002380Y-83852380D01*
X168002380Y-83757142D01*
X168050000Y-83614285D01*
X168097619Y-83566666D01*
X169002380Y-82614285D02*
X169002380Y-83185714D01*
X169002380Y-82900000D02*
X168002380Y-82900000D01*
X168145238Y-82995238D01*
X168240476Y-83090476D01*
X168288095Y-83185714D01*
X130233333Y-116107142D02*
X130185714Y-116154761D01*
X130042857Y-116202380D01*
X129947619Y-116202380D01*
X129804761Y-116154761D01*
X129709523Y-116059523D01*
X129661904Y-115964285D01*
X129614285Y-115773809D01*
X129614285Y-115630952D01*
X129661904Y-115440476D01*
X129709523Y-115345238D01*
X129804761Y-115250000D01*
X129947619Y-115202380D01*
X130042857Y-115202380D01*
X130185714Y-115250000D01*
X130233333Y-115297619D01*
X130614285Y-115297619D02*
X130661904Y-115250000D01*
X130757142Y-115202380D01*
X130995238Y-115202380D01*
X131090476Y-115250000D01*
X131138095Y-115297619D01*
X131185714Y-115392857D01*
X131185714Y-115488095D01*
X131138095Y-115630952D01*
X130566666Y-116202380D01*
X131185714Y-116202380D01*
X164707142Y-96366666D02*
X164754761Y-96414285D01*
X164802380Y-96557142D01*
X164802380Y-96652380D01*
X164754761Y-96795238D01*
X164659523Y-96890476D01*
X164564285Y-96938095D01*
X164373809Y-96985714D01*
X164230952Y-96985714D01*
X164040476Y-96938095D01*
X163945238Y-96890476D01*
X163850000Y-96795238D01*
X163802380Y-96652380D01*
X163802380Y-96557142D01*
X163850000Y-96414285D01*
X163897619Y-96366666D01*
X163802380Y-96033333D02*
X163802380Y-95414285D01*
X164183333Y-95747619D01*
X164183333Y-95604761D01*
X164230952Y-95509523D01*
X164278571Y-95461904D01*
X164373809Y-95414285D01*
X164611904Y-95414285D01*
X164707142Y-95461904D01*
X164754761Y-95509523D01*
X164802380Y-95604761D01*
X164802380Y-95890476D01*
X164754761Y-95985714D01*
X164707142Y-96033333D01*
X118133333Y-99507142D02*
X118085714Y-99554761D01*
X117942857Y-99602380D01*
X117847619Y-99602380D01*
X117704761Y-99554761D01*
X117609523Y-99459523D01*
X117561904Y-99364285D01*
X117514285Y-99173809D01*
X117514285Y-99030952D01*
X117561904Y-98840476D01*
X117609523Y-98745238D01*
X117704761Y-98650000D01*
X117847619Y-98602380D01*
X117942857Y-98602380D01*
X118085714Y-98650000D01*
X118133333Y-98697619D01*
X118990476Y-98935714D02*
X118990476Y-99602380D01*
X118752380Y-98554761D02*
X118514285Y-99269047D01*
X119133333Y-99269047D01*
X165233333Y-140857142D02*
X165185714Y-140904761D01*
X165042857Y-140952380D01*
X164947619Y-140952380D01*
X164804761Y-140904761D01*
X164709523Y-140809523D01*
X164661904Y-140714285D01*
X164614285Y-140523809D01*
X164614285Y-140380952D01*
X164661904Y-140190476D01*
X164709523Y-140095238D01*
X164804761Y-140000000D01*
X164947619Y-139952380D01*
X165042857Y-139952380D01*
X165185714Y-140000000D01*
X165233333Y-140047619D01*
X166138095Y-139952380D02*
X165661904Y-139952380D01*
X165614285Y-140428571D01*
X165661904Y-140380952D01*
X165757142Y-140333333D01*
X165995238Y-140333333D01*
X166090476Y-140380952D01*
X166138095Y-140428571D01*
X166185714Y-140523809D01*
X166185714Y-140761904D01*
X166138095Y-140857142D01*
X166090476Y-140904761D01*
X165995238Y-140952380D01*
X165757142Y-140952380D01*
X165661904Y-140904761D01*
X165614285Y-140857142D01*
X192733333Y-126507142D02*
X192685714Y-126554761D01*
X192542857Y-126602380D01*
X192447619Y-126602380D01*
X192304761Y-126554761D01*
X192209523Y-126459523D01*
X192161904Y-126364285D01*
X192114285Y-126173809D01*
X192114285Y-126030952D01*
X192161904Y-125840476D01*
X192209523Y-125745238D01*
X192304761Y-125650000D01*
X192447619Y-125602380D01*
X192542857Y-125602380D01*
X192685714Y-125650000D01*
X192733333Y-125697619D01*
X193590476Y-125602380D02*
X193400000Y-125602380D01*
X193304761Y-125650000D01*
X193257142Y-125697619D01*
X193161904Y-125840476D01*
X193114285Y-126030952D01*
X193114285Y-126411904D01*
X193161904Y-126507142D01*
X193209523Y-126554761D01*
X193304761Y-126602380D01*
X193495238Y-126602380D01*
X193590476Y-126554761D01*
X193638095Y-126507142D01*
X193685714Y-126411904D01*
X193685714Y-126173809D01*
X193638095Y-126078571D01*
X193590476Y-126030952D01*
X193495238Y-125983333D01*
X193304761Y-125983333D01*
X193209523Y-126030952D01*
X193161904Y-126078571D01*
X193114285Y-126173809D01*
X179757142Y-54466666D02*
X179804761Y-54514285D01*
X179852380Y-54657142D01*
X179852380Y-54752380D01*
X179804761Y-54895238D01*
X179709523Y-54990476D01*
X179614285Y-55038095D01*
X179423809Y-55085714D01*
X179280952Y-55085714D01*
X179090476Y-55038095D01*
X178995238Y-54990476D01*
X178900000Y-54895238D01*
X178852380Y-54752380D01*
X178852380Y-54657142D01*
X178900000Y-54514285D01*
X178947619Y-54466666D01*
X178852380Y-54133333D02*
X178852380Y-53466666D01*
X179852380Y-53895238D01*
X110361904Y-118452380D02*
X110361904Y-117452380D01*
X110600000Y-117452380D01*
X110742857Y-117500000D01*
X110838095Y-117595238D01*
X110885714Y-117690476D01*
X110933333Y-117880952D01*
X110933333Y-118023809D01*
X110885714Y-118214285D01*
X110838095Y-118309523D01*
X110742857Y-118404761D01*
X110600000Y-118452380D01*
X110361904Y-118452380D01*
X111885714Y-118452380D02*
X111314285Y-118452380D01*
X111600000Y-118452380D02*
X111600000Y-117452380D01*
X111504761Y-117595238D01*
X111409523Y-117690476D01*
X111314285Y-117738095D01*
X110261904Y-134252380D02*
X110261904Y-133252380D01*
X110500000Y-133252380D01*
X110642857Y-133300000D01*
X110738095Y-133395238D01*
X110785714Y-133490476D01*
X110833333Y-133680952D01*
X110833333Y-133823809D01*
X110785714Y-134014285D01*
X110738095Y-134109523D01*
X110642857Y-134204761D01*
X110500000Y-134252380D01*
X110261904Y-134252380D01*
X111738095Y-133252380D02*
X111261904Y-133252380D01*
X111214285Y-133728571D01*
X111261904Y-133680952D01*
X111357142Y-133633333D01*
X111595238Y-133633333D01*
X111690476Y-133680952D01*
X111738095Y-133728571D01*
X111785714Y-133823809D01*
X111785714Y-134061904D01*
X111738095Y-134157142D01*
X111690476Y-134204761D01*
X111595238Y-134252380D01*
X111357142Y-134252380D01*
X111261904Y-134204761D01*
X111214285Y-134157142D01*
X197352380Y-119633333D02*
X198066666Y-119633333D01*
X198209523Y-119680952D01*
X198304761Y-119776190D01*
X198352380Y-119919047D01*
X198352380Y-120014285D01*
X197447619Y-119204761D02*
X197400000Y-119157142D01*
X197352380Y-119061904D01*
X197352380Y-118823809D01*
X197400000Y-118728571D01*
X197447619Y-118680952D01*
X197542857Y-118633333D01*
X197638095Y-118633333D01*
X197780952Y-118680952D01*
X198352380Y-119252380D01*
X198352380Y-118633333D01*
X154652380Y-119533333D02*
X155366666Y-119533333D01*
X155509523Y-119580952D01*
X155604761Y-119676190D01*
X155652380Y-119819047D01*
X155652380Y-119914285D01*
X154652380Y-119152380D02*
X154652380Y-118533333D01*
X155033333Y-118866666D01*
X155033333Y-118723809D01*
X155080952Y-118628571D01*
X155128571Y-118580952D01*
X155223809Y-118533333D01*
X155461904Y-118533333D01*
X155557142Y-118580952D01*
X155604761Y-118628571D01*
X155652380Y-118723809D01*
X155652380Y-119009523D01*
X155604761Y-119104761D01*
X155557142Y-119152380D01*
X151833333Y-81502380D02*
X151500000Y-81026190D01*
X151261904Y-81502380D02*
X151261904Y-80502380D01*
X151642857Y-80502380D01*
X151738095Y-80550000D01*
X151785714Y-80597619D01*
X151833333Y-80692857D01*
X151833333Y-80835714D01*
X151785714Y-80930952D01*
X151738095Y-80978571D01*
X151642857Y-81026190D01*
X151261904Y-81026190D01*
X152785714Y-81502380D02*
X152214285Y-81502380D01*
X152500000Y-81502380D02*
X152500000Y-80502380D01*
X152404761Y-80645238D01*
X152309523Y-80740476D01*
X152214285Y-80788095D01*
X103633333Y-120552380D02*
X103300000Y-120076190D01*
X103061904Y-120552380D02*
X103061904Y-119552380D01*
X103442857Y-119552380D01*
X103538095Y-119600000D01*
X103585714Y-119647619D01*
X103633333Y-119742857D01*
X103633333Y-119885714D01*
X103585714Y-119980952D01*
X103538095Y-120028571D01*
X103442857Y-120076190D01*
X103061904Y-120076190D01*
X104014285Y-119647619D02*
X104061904Y-119600000D01*
X104157142Y-119552380D01*
X104395238Y-119552380D01*
X104490476Y-119600000D01*
X104538095Y-119647619D01*
X104585714Y-119742857D01*
X104585714Y-119838095D01*
X104538095Y-119980952D01*
X103966666Y-120552380D01*
X104585714Y-120552380D01*
X103633333Y-123452380D02*
X103300000Y-122976190D01*
X103061904Y-123452380D02*
X103061904Y-122452380D01*
X103442857Y-122452380D01*
X103538095Y-122500000D01*
X103585714Y-122547619D01*
X103633333Y-122642857D01*
X103633333Y-122785714D01*
X103585714Y-122880952D01*
X103538095Y-122928571D01*
X103442857Y-122976190D01*
X103061904Y-122976190D01*
X103966666Y-122452380D02*
X104585714Y-122452380D01*
X104252380Y-122833333D01*
X104395238Y-122833333D01*
X104490476Y-122880952D01*
X104538095Y-122928571D01*
X104585714Y-123023809D01*
X104585714Y-123261904D01*
X104538095Y-123357142D01*
X104490476Y-123404761D01*
X104395238Y-123452380D01*
X104109523Y-123452380D01*
X104014285Y-123404761D01*
X103966666Y-123357142D01*
X103633333Y-126452380D02*
X103300000Y-125976190D01*
X103061904Y-126452380D02*
X103061904Y-125452380D01*
X103442857Y-125452380D01*
X103538095Y-125500000D01*
X103585714Y-125547619D01*
X103633333Y-125642857D01*
X103633333Y-125785714D01*
X103585714Y-125880952D01*
X103538095Y-125928571D01*
X103442857Y-125976190D01*
X103061904Y-125976190D01*
X104490476Y-125785714D02*
X104490476Y-126452380D01*
X104252380Y-125404761D02*
X104014285Y-126119047D01*
X104633333Y-126119047D01*
X103633333Y-129452380D02*
X103300000Y-128976190D01*
X103061904Y-129452380D02*
X103061904Y-128452380D01*
X103442857Y-128452380D01*
X103538095Y-128500000D01*
X103585714Y-128547619D01*
X103633333Y-128642857D01*
X103633333Y-128785714D01*
X103585714Y-128880952D01*
X103538095Y-128928571D01*
X103442857Y-128976190D01*
X103061904Y-128976190D01*
X104538095Y-128452380D02*
X104061904Y-128452380D01*
X104014285Y-128928571D01*
X104061904Y-128880952D01*
X104157142Y-128833333D01*
X104395238Y-128833333D01*
X104490476Y-128880952D01*
X104538095Y-128928571D01*
X104585714Y-129023809D01*
X104585714Y-129261904D01*
X104538095Y-129357142D01*
X104490476Y-129404761D01*
X104395238Y-129452380D01*
X104157142Y-129452380D01*
X104061904Y-129404761D01*
X104014285Y-129357142D01*
X103633333Y-132452380D02*
X103300000Y-131976190D01*
X103061904Y-132452380D02*
X103061904Y-131452380D01*
X103442857Y-131452380D01*
X103538095Y-131500000D01*
X103585714Y-131547619D01*
X103633333Y-131642857D01*
X103633333Y-131785714D01*
X103585714Y-131880952D01*
X103538095Y-131928571D01*
X103442857Y-131976190D01*
X103061904Y-131976190D01*
X104490476Y-131452380D02*
X104300000Y-131452380D01*
X104204761Y-131500000D01*
X104157142Y-131547619D01*
X104061904Y-131690476D01*
X104014285Y-131880952D01*
X104014285Y-132261904D01*
X104061904Y-132357142D01*
X104109523Y-132404761D01*
X104204761Y-132452380D01*
X104395238Y-132452380D01*
X104490476Y-132404761D01*
X104538095Y-132357142D01*
X104585714Y-132261904D01*
X104585714Y-132023809D01*
X104538095Y-131928571D01*
X104490476Y-131880952D01*
X104395238Y-131833333D01*
X104204761Y-131833333D01*
X104109523Y-131880952D01*
X104061904Y-131928571D01*
X104014285Y-132023809D01*
X176652380Y-123066666D02*
X176176190Y-123400000D01*
X176652380Y-123638095D02*
X175652380Y-123638095D01*
X175652380Y-123257142D01*
X175700000Y-123161904D01*
X175747619Y-123114285D01*
X175842857Y-123066666D01*
X175985714Y-123066666D01*
X176080952Y-123114285D01*
X176128571Y-123161904D01*
X176176190Y-123257142D01*
X176176190Y-123638095D01*
X175652380Y-122733333D02*
X175652380Y-122066666D01*
X176652380Y-122495238D01*
X197782380Y-123612857D02*
X197306190Y-123946190D01*
X197782380Y-124184285D02*
X196782380Y-124184285D01*
X196782380Y-123803333D01*
X196830000Y-123708095D01*
X196877619Y-123660476D01*
X196972857Y-123612857D01*
X197115714Y-123612857D01*
X197210952Y-123660476D01*
X197258571Y-123708095D01*
X197306190Y-123803333D01*
X197306190Y-124184285D01*
X197782380Y-122660476D02*
X197782380Y-123231904D01*
X197782380Y-122946190D02*
X196782380Y-122946190D01*
X196925238Y-123041428D01*
X197020476Y-123136666D01*
X197068095Y-123231904D01*
X197115714Y-121803333D02*
X197782380Y-121803333D01*
X196734761Y-122041428D02*
X197449047Y-122279523D01*
X197449047Y-121660476D01*
X106852380Y-84295238D02*
X106376190Y-84628571D01*
X106852380Y-84866666D02*
X105852380Y-84866666D01*
X105852380Y-84485714D01*
X105900000Y-84390476D01*
X105947619Y-84342857D01*
X106042857Y-84295238D01*
X106185714Y-84295238D01*
X106280952Y-84342857D01*
X106328571Y-84390476D01*
X106376190Y-84485714D01*
X106376190Y-84866666D01*
X105852380Y-84009523D02*
X106852380Y-83676190D01*
X105852380Y-83342857D01*
X106852380Y-82485714D02*
X106852380Y-83057142D01*
X106852380Y-82771428D02*
X105852380Y-82771428D01*
X105995238Y-82866666D01*
X106090476Y-82961904D01*
X106138095Y-83057142D01*
X159738095Y-96702380D02*
X159738095Y-97511904D01*
X159785714Y-97607142D01*
X159833333Y-97654761D01*
X159928571Y-97702380D01*
X160119047Y-97702380D01*
X160214285Y-97654761D01*
X160261904Y-97607142D01*
X160309523Y-97511904D01*
X160309523Y-96702380D01*
X161309523Y-97702380D02*
X160738095Y-97702380D01*
X161023809Y-97702380D02*
X161023809Y-96702380D01*
X160928571Y-96845238D01*
X160833333Y-96940476D01*
X160738095Y-96988095D01*
X159738095Y-88402380D02*
X159738095Y-89211904D01*
X159785714Y-89307142D01*
X159833333Y-89354761D01*
X159928571Y-89402380D01*
X160119047Y-89402380D01*
X160214285Y-89354761D01*
X160261904Y-89307142D01*
X160309523Y-89211904D01*
X160309523Y-88402380D01*
X160738095Y-88497619D02*
X160785714Y-88450000D01*
X160880952Y-88402380D01*
X161119047Y-88402380D01*
X161214285Y-88450000D01*
X161261904Y-88497619D01*
X161309523Y-88592857D01*
X161309523Y-88688095D01*
X161261904Y-88830952D01*
X160690476Y-89402380D01*
X161309523Y-89402380D01*
X159738095Y-79902380D02*
X159738095Y-80711904D01*
X159785714Y-80807142D01*
X159833333Y-80854761D01*
X159928571Y-80902380D01*
X160119047Y-80902380D01*
X160214285Y-80854761D01*
X160261904Y-80807142D01*
X160309523Y-80711904D01*
X160309523Y-79902380D01*
X160690476Y-79902380D02*
X161309523Y-79902380D01*
X160976190Y-80283333D01*
X161119047Y-80283333D01*
X161214285Y-80330952D01*
X161261904Y-80378571D01*
X161309523Y-80473809D01*
X161309523Y-80711904D01*
X161261904Y-80807142D01*
X161214285Y-80854761D01*
X161119047Y-80902380D01*
X160833333Y-80902380D01*
X160738095Y-80854761D01*
X160690476Y-80807142D01*
X128738095Y-126952380D02*
X128738095Y-127761904D01*
X128785714Y-127857142D01*
X128833333Y-127904761D01*
X128928571Y-127952380D01*
X129119047Y-127952380D01*
X129214285Y-127904761D01*
X129261904Y-127857142D01*
X129309523Y-127761904D01*
X129309523Y-126952380D01*
X130214285Y-127285714D02*
X130214285Y-127952380D01*
X129976190Y-126904761D02*
X129738095Y-127619047D01*
X130357142Y-127619047D01*
X128238095Y-89852380D02*
X128238095Y-90661904D01*
X128285714Y-90757142D01*
X128333333Y-90804761D01*
X128428571Y-90852380D01*
X128619047Y-90852380D01*
X128714285Y-90804761D01*
X128761904Y-90757142D01*
X128809523Y-90661904D01*
X128809523Y-89852380D01*
X129761904Y-89852380D02*
X129285714Y-89852380D01*
X129238095Y-90328571D01*
X129285714Y-90280952D01*
X129380952Y-90233333D01*
X129619047Y-90233333D01*
X129714285Y-90280952D01*
X129761904Y-90328571D01*
X129809523Y-90423809D01*
X129809523Y-90661904D01*
X129761904Y-90757142D01*
X129714285Y-90804761D01*
X129619047Y-90852380D01*
X129380952Y-90852380D01*
X129285714Y-90804761D01*
X129238095Y-90757142D01*
X114682380Y-78261904D02*
X115491904Y-78261904D01*
X115587142Y-78214285D01*
X115634761Y-78166666D01*
X115682380Y-78071428D01*
X115682380Y-77880952D01*
X115634761Y-77785714D01*
X115587142Y-77738095D01*
X115491904Y-77690476D01*
X114682380Y-77690476D01*
X114682380Y-76785714D02*
X114682380Y-76976190D01*
X114730000Y-77071428D01*
X114777619Y-77119047D01*
X114920476Y-77214285D01*
X115110952Y-77261904D01*
X115491904Y-77261904D01*
X115587142Y-77214285D01*
X115634761Y-77166666D01*
X115682380Y-77071428D01*
X115682380Y-76880952D01*
X115634761Y-76785714D01*
X115587142Y-76738095D01*
X115491904Y-76690476D01*
X115253809Y-76690476D01*
X115158571Y-76738095D01*
X115110952Y-76785714D01*
X115063333Y-76880952D01*
X115063333Y-77071428D01*
X115110952Y-77166666D01*
X115158571Y-77214285D01*
X115253809Y-77261904D01*
X186938095Y-136452380D02*
X186938095Y-137261904D01*
X186985714Y-137357142D01*
X187033333Y-137404761D01*
X187128571Y-137452380D01*
X187319047Y-137452380D01*
X187414285Y-137404761D01*
X187461904Y-137357142D01*
X187509523Y-137261904D01*
X187509523Y-136452380D01*
X187890476Y-136452380D02*
X188557142Y-136452380D01*
X188128571Y-137452380D01*
X164538095Y-136252380D02*
X164538095Y-137061904D01*
X164585714Y-137157142D01*
X164633333Y-137204761D01*
X164728571Y-137252380D01*
X164919047Y-137252380D01*
X165014285Y-137204761D01*
X165061904Y-137157142D01*
X165109523Y-137061904D01*
X165109523Y-136252380D01*
X165728571Y-136680952D02*
X165633333Y-136633333D01*
X165585714Y-136585714D01*
X165538095Y-136490476D01*
X165538095Y-136442857D01*
X165585714Y-136347619D01*
X165633333Y-136300000D01*
X165728571Y-136252380D01*
X165919047Y-136252380D01*
X166014285Y-136300000D01*
X166061904Y-136347619D01*
X166109523Y-136442857D01*
X166109523Y-136490476D01*
X166061904Y-136585714D01*
X166014285Y-136633333D01*
X165919047Y-136680952D01*
X165728571Y-136680952D01*
X165633333Y-136728571D01*
X165585714Y-136776190D01*
X165538095Y-136871428D01*
X165538095Y-137061904D01*
X165585714Y-137157142D01*
X165633333Y-137204761D01*
X165728571Y-137252380D01*
X165919047Y-137252380D01*
X166014285Y-137204761D01*
X166061904Y-137157142D01*
X166109523Y-137061904D01*
X166109523Y-136871428D01*
X166061904Y-136776190D01*
X166014285Y-136728571D01*
X165919047Y-136680952D01*
M02*
