G04 #@! TF.GenerationSoftware,KiCad,Pcbnew,(5.1.6-0-10_14)*
G04 #@! TF.CreationDate,2021-01-21T22:24:26+01:00*
G04 #@! TF.ProjectId,io,696f2e6b-6963-4616-945f-706362585858,3*
G04 #@! TF.SameCoordinates,Original*
G04 #@! TF.FileFunction,Legend,Top*
G04 #@! TF.FilePolarity,Positive*
%FSLAX46Y46*%
G04 Gerber Fmt 4.6, Leading zero omitted, Abs format (unit mm)*
G04 Created by KiCad (PCBNEW (5.1.6-0-10_14)) date 2021-01-21 22:24:26*
%MOMM*%
%LPD*%
G01*
G04 APERTURE LIST*
%ADD10C,0.150000*%
%ADD11C,0.225000*%
%ADD12C,0.120000*%
G04 APERTURE END LIST*
D10*
X139242857Y-132952380D02*
X138909523Y-132476190D01*
X138671428Y-132952380D02*
X138671428Y-131952380D01*
X139052380Y-131952380D01*
X139147619Y-132000000D01*
X139195238Y-132047619D01*
X139242857Y-132142857D01*
X139242857Y-132285714D01*
X139195238Y-132380952D01*
X139147619Y-132428571D01*
X139052380Y-132476190D01*
X138671428Y-132476190D01*
X139623809Y-132666666D02*
X140100000Y-132666666D01*
X139528571Y-132952380D02*
X139861904Y-131952380D01*
X140195238Y-132952380D01*
X140528571Y-132952380D02*
X140528571Y-131952380D01*
X140861904Y-132666666D01*
X141195238Y-131952380D01*
X141195238Y-132952380D01*
X142385714Y-132904761D02*
X142480952Y-132952380D01*
X142671428Y-132952380D01*
X142766666Y-132904761D01*
X142814285Y-132809523D01*
X142814285Y-132761904D01*
X142766666Y-132666666D01*
X142671428Y-132619047D01*
X142528571Y-132619047D01*
X142433333Y-132571428D01*
X142385714Y-132476190D01*
X142385714Y-132428571D01*
X142433333Y-132333333D01*
X142528571Y-132285714D01*
X142671428Y-132285714D01*
X142766666Y-132333333D01*
X143623809Y-132904761D02*
X143528571Y-132952380D01*
X143338095Y-132952380D01*
X143242857Y-132904761D01*
X143195238Y-132809523D01*
X143195238Y-132428571D01*
X143242857Y-132333333D01*
X143338095Y-132285714D01*
X143528571Y-132285714D01*
X143623809Y-132333333D01*
X143671428Y-132428571D01*
X143671428Y-132523809D01*
X143195238Y-132619047D01*
X144528571Y-132285714D02*
X144528571Y-133095238D01*
X144480952Y-133190476D01*
X144433333Y-133238095D01*
X144338095Y-133285714D01*
X144195238Y-133285714D01*
X144100000Y-133238095D01*
X144528571Y-132904761D02*
X144433333Y-132952380D01*
X144242857Y-132952380D01*
X144147619Y-132904761D01*
X144100000Y-132857142D01*
X144052380Y-132761904D01*
X144052380Y-132476190D01*
X144100000Y-132380952D01*
X144147619Y-132333333D01*
X144242857Y-132285714D01*
X144433333Y-132285714D01*
X144528571Y-132333333D01*
X123595238Y-103627380D02*
X123595238Y-102627380D01*
X123595238Y-103103571D02*
X124166666Y-103103571D01*
X124166666Y-103627380D02*
X124166666Y-102627380D01*
X124642857Y-103627380D02*
X124642857Y-102960714D01*
X124642857Y-102627380D02*
X124595238Y-102675000D01*
X124642857Y-102722619D01*
X124690476Y-102675000D01*
X124642857Y-102627380D01*
X124642857Y-102722619D01*
X126452380Y-103627380D02*
X126119047Y-103151190D01*
X125880952Y-103627380D02*
X125880952Y-102627380D01*
X126261904Y-102627380D01*
X126357142Y-102675000D01*
X126404761Y-102722619D01*
X126452380Y-102817857D01*
X126452380Y-102960714D01*
X126404761Y-103055952D01*
X126357142Y-103103571D01*
X126261904Y-103151190D01*
X125880952Y-103151190D01*
X126833333Y-103341666D02*
X127309523Y-103341666D01*
X126738095Y-103627380D02*
X127071428Y-102627380D01*
X127404761Y-103627380D01*
X127738095Y-103627380D02*
X127738095Y-102627380D01*
X128071428Y-103341666D01*
X128404761Y-102627380D01*
X128404761Y-103627380D01*
X122119047Y-104705952D02*
X122023809Y-104658333D01*
X121976190Y-104610714D01*
X121928571Y-104515476D01*
X121928571Y-104467857D01*
X121976190Y-104372619D01*
X122023809Y-104325000D01*
X122119047Y-104277380D01*
X122309523Y-104277380D01*
X122404761Y-104325000D01*
X122452380Y-104372619D01*
X122500000Y-104467857D01*
X122500000Y-104515476D01*
X122452380Y-104610714D01*
X122404761Y-104658333D01*
X122309523Y-104705952D01*
X122119047Y-104705952D01*
X122023809Y-104753571D01*
X121976190Y-104801190D01*
X121928571Y-104896428D01*
X121928571Y-105086904D01*
X121976190Y-105182142D01*
X122023809Y-105229761D01*
X122119047Y-105277380D01*
X122309523Y-105277380D01*
X122404761Y-105229761D01*
X122452380Y-105182142D01*
X122500000Y-105086904D01*
X122500000Y-104896428D01*
X122452380Y-104801190D01*
X122404761Y-104753571D01*
X122309523Y-104705952D01*
X123119047Y-104277380D02*
X123214285Y-104277380D01*
X123309523Y-104325000D01*
X123357142Y-104372619D01*
X123404761Y-104467857D01*
X123452380Y-104658333D01*
X123452380Y-104896428D01*
X123404761Y-105086904D01*
X123357142Y-105182142D01*
X123309523Y-105229761D01*
X123214285Y-105277380D01*
X123119047Y-105277380D01*
X123023809Y-105229761D01*
X122976190Y-105182142D01*
X122928571Y-105086904D01*
X122880952Y-104896428D01*
X122880952Y-104658333D01*
X122928571Y-104467857D01*
X122976190Y-104372619D01*
X123023809Y-104325000D01*
X123119047Y-104277380D01*
X124071428Y-104277380D02*
X124166666Y-104277380D01*
X124261904Y-104325000D01*
X124309523Y-104372619D01*
X124357142Y-104467857D01*
X124404761Y-104658333D01*
X124404761Y-104896428D01*
X124357142Y-105086904D01*
X124309523Y-105182142D01*
X124261904Y-105229761D01*
X124166666Y-105277380D01*
X124071428Y-105277380D01*
X123976190Y-105229761D01*
X123928571Y-105182142D01*
X123880952Y-105086904D01*
X123833333Y-104896428D01*
X123833333Y-104658333D01*
X123880952Y-104467857D01*
X123928571Y-104372619D01*
X123976190Y-104325000D01*
X124071428Y-104277380D01*
X125023809Y-104277380D02*
X125119047Y-104277380D01*
X125214285Y-104325000D01*
X125261904Y-104372619D01*
X125309523Y-104467857D01*
X125357142Y-104658333D01*
X125357142Y-104896428D01*
X125309523Y-105086904D01*
X125261904Y-105182142D01*
X125214285Y-105229761D01*
X125119047Y-105277380D01*
X125023809Y-105277380D01*
X124928571Y-105229761D01*
X124880952Y-105182142D01*
X124833333Y-105086904D01*
X124785714Y-104896428D01*
X124785714Y-104658333D01*
X124833333Y-104467857D01*
X124880952Y-104372619D01*
X124928571Y-104325000D01*
X125023809Y-104277380D01*
X125785714Y-104896428D02*
X126547619Y-104896428D01*
X127023809Y-104753571D02*
X127357142Y-104753571D01*
X127500000Y-105277380D02*
X127023809Y-105277380D01*
X127023809Y-104277380D01*
X127500000Y-104277380D01*
X128261904Y-104753571D02*
X127928571Y-104753571D01*
X127928571Y-105277380D02*
X127928571Y-104277380D01*
X128404761Y-104277380D01*
X129119047Y-104753571D02*
X128785714Y-104753571D01*
X128785714Y-105277380D02*
X128785714Y-104277380D01*
X129261904Y-104277380D01*
X129976190Y-104753571D02*
X129642857Y-104753571D01*
X129642857Y-105277380D02*
X129642857Y-104277380D01*
X130119047Y-104277380D01*
X139676190Y-103827380D02*
X139200000Y-103827380D01*
X139200000Y-102827380D01*
X140152380Y-103827380D02*
X140057142Y-103779761D01*
X140009523Y-103732142D01*
X139961904Y-103636904D01*
X139961904Y-103351190D01*
X140009523Y-103255952D01*
X140057142Y-103208333D01*
X140152380Y-103160714D01*
X140295238Y-103160714D01*
X140390476Y-103208333D01*
X140438095Y-103255952D01*
X140485714Y-103351190D01*
X140485714Y-103636904D01*
X140438095Y-103732142D01*
X140390476Y-103779761D01*
X140295238Y-103827380D01*
X140152380Y-103827380D01*
X142247619Y-103827380D02*
X141914285Y-103351190D01*
X141676190Y-103827380D02*
X141676190Y-102827380D01*
X142057142Y-102827380D01*
X142152380Y-102875000D01*
X142200000Y-102922619D01*
X142247619Y-103017857D01*
X142247619Y-103160714D01*
X142200000Y-103255952D01*
X142152380Y-103303571D01*
X142057142Y-103351190D01*
X141676190Y-103351190D01*
X142628571Y-103541666D02*
X143104761Y-103541666D01*
X142533333Y-103827380D02*
X142866666Y-102827380D01*
X143200000Y-103827380D01*
X143533333Y-103827380D02*
X143533333Y-102827380D01*
X143866666Y-103541666D01*
X144200000Y-102827380D01*
X144200000Y-103827380D01*
X137842857Y-104477380D02*
X137938095Y-104477380D01*
X138033333Y-104525000D01*
X138080952Y-104572619D01*
X138128571Y-104667857D01*
X138176190Y-104858333D01*
X138176190Y-105096428D01*
X138128571Y-105286904D01*
X138080952Y-105382142D01*
X138033333Y-105429761D01*
X137938095Y-105477380D01*
X137842857Y-105477380D01*
X137747619Y-105429761D01*
X137700000Y-105382142D01*
X137652380Y-105286904D01*
X137604761Y-105096428D01*
X137604761Y-104858333D01*
X137652380Y-104667857D01*
X137700000Y-104572619D01*
X137747619Y-104525000D01*
X137842857Y-104477380D01*
X138795238Y-104477380D02*
X138890476Y-104477380D01*
X138985714Y-104525000D01*
X139033333Y-104572619D01*
X139080952Y-104667857D01*
X139128571Y-104858333D01*
X139128571Y-105096428D01*
X139080952Y-105286904D01*
X139033333Y-105382142D01*
X138985714Y-105429761D01*
X138890476Y-105477380D01*
X138795238Y-105477380D01*
X138700000Y-105429761D01*
X138652380Y-105382142D01*
X138604761Y-105286904D01*
X138557142Y-105096428D01*
X138557142Y-104858333D01*
X138604761Y-104667857D01*
X138652380Y-104572619D01*
X138700000Y-104525000D01*
X138795238Y-104477380D01*
X139747619Y-104477380D02*
X139842857Y-104477380D01*
X139938095Y-104525000D01*
X139985714Y-104572619D01*
X140033333Y-104667857D01*
X140080952Y-104858333D01*
X140080952Y-105096428D01*
X140033333Y-105286904D01*
X139985714Y-105382142D01*
X139938095Y-105429761D01*
X139842857Y-105477380D01*
X139747619Y-105477380D01*
X139652380Y-105429761D01*
X139604761Y-105382142D01*
X139557142Y-105286904D01*
X139509523Y-105096428D01*
X139509523Y-104858333D01*
X139557142Y-104667857D01*
X139604761Y-104572619D01*
X139652380Y-104525000D01*
X139747619Y-104477380D01*
X140700000Y-104477380D02*
X140795238Y-104477380D01*
X140890476Y-104525000D01*
X140938095Y-104572619D01*
X140985714Y-104667857D01*
X141033333Y-104858333D01*
X141033333Y-105096428D01*
X140985714Y-105286904D01*
X140938095Y-105382142D01*
X140890476Y-105429761D01*
X140795238Y-105477380D01*
X140700000Y-105477380D01*
X140604761Y-105429761D01*
X140557142Y-105382142D01*
X140509523Y-105286904D01*
X140461904Y-105096428D01*
X140461904Y-104858333D01*
X140509523Y-104667857D01*
X140557142Y-104572619D01*
X140604761Y-104525000D01*
X140700000Y-104477380D01*
X141461904Y-105096428D02*
X142223809Y-105096428D01*
X142604761Y-104477380D02*
X143271428Y-104477380D01*
X142842857Y-105477380D01*
X143985714Y-104953571D02*
X143652380Y-104953571D01*
X143652380Y-105477380D02*
X143652380Y-104477380D01*
X144128571Y-104477380D01*
X144842857Y-104953571D02*
X144509523Y-104953571D01*
X144509523Y-105477380D02*
X144509523Y-104477380D01*
X144985714Y-104477380D01*
X145700000Y-104953571D02*
X145366666Y-104953571D01*
X145366666Y-105477380D02*
X145366666Y-104477380D01*
X145842857Y-104477380D01*
X138578690Y-146966666D02*
X139054880Y-146966666D01*
X138483452Y-147252380D02*
X138816785Y-146252380D01*
X139150119Y-147252380D01*
X139673928Y-146252380D02*
X139769166Y-146252380D01*
X139864404Y-146300000D01*
X139912023Y-146347619D01*
X139959642Y-146442857D01*
X140007261Y-146633333D01*
X140007261Y-146871428D01*
X139959642Y-147061904D01*
X139912023Y-147157142D01*
X139864404Y-147204761D01*
X139769166Y-147252380D01*
X139673928Y-147252380D01*
X139578690Y-147204761D01*
X139531071Y-147157142D01*
X139483452Y-147061904D01*
X139435833Y-146871428D01*
X139435833Y-146633333D01*
X139483452Y-146442857D01*
X139531071Y-146347619D01*
X139578690Y-146300000D01*
X139673928Y-146252380D01*
X140626309Y-146252380D02*
X140721547Y-146252380D01*
X140816785Y-146300000D01*
X140864404Y-146347619D01*
X140912023Y-146442857D01*
X140959642Y-146633333D01*
X140959642Y-146871428D01*
X140912023Y-147061904D01*
X140864404Y-147157142D01*
X140816785Y-147204761D01*
X140721547Y-147252380D01*
X140626309Y-147252380D01*
X140531071Y-147204761D01*
X140483452Y-147157142D01*
X140435833Y-147061904D01*
X140388214Y-146871428D01*
X140388214Y-146633333D01*
X140435833Y-146442857D01*
X140483452Y-146347619D01*
X140531071Y-146300000D01*
X140626309Y-146252380D01*
X141578690Y-146252380D02*
X141673928Y-146252380D01*
X141769166Y-146300000D01*
X141816785Y-146347619D01*
X141864404Y-146442857D01*
X141912023Y-146633333D01*
X141912023Y-146871428D01*
X141864404Y-147061904D01*
X141816785Y-147157142D01*
X141769166Y-147204761D01*
X141673928Y-147252380D01*
X141578690Y-147252380D01*
X141483452Y-147204761D01*
X141435833Y-147157142D01*
X141388214Y-147061904D01*
X141340595Y-146871428D01*
X141340595Y-146633333D01*
X141388214Y-146442857D01*
X141435833Y-146347619D01*
X141483452Y-146300000D01*
X141578690Y-146252380D01*
X138816785Y-143728571D02*
X138959642Y-143776190D01*
X139007261Y-143823809D01*
X139054880Y-143919047D01*
X139054880Y-144061904D01*
X139007261Y-144157142D01*
X138959642Y-144204761D01*
X138864404Y-144252380D01*
X138483452Y-144252380D01*
X138483452Y-143252380D01*
X138816785Y-143252380D01*
X138912023Y-143300000D01*
X138959642Y-143347619D01*
X139007261Y-143442857D01*
X139007261Y-143538095D01*
X138959642Y-143633333D01*
X138912023Y-143680952D01*
X138816785Y-143728571D01*
X138483452Y-143728571D01*
X139673928Y-143252380D02*
X139769166Y-143252380D01*
X139864404Y-143300000D01*
X139912023Y-143347619D01*
X139959642Y-143442857D01*
X140007261Y-143633333D01*
X140007261Y-143871428D01*
X139959642Y-144061904D01*
X139912023Y-144157142D01*
X139864404Y-144204761D01*
X139769166Y-144252380D01*
X139673928Y-144252380D01*
X139578690Y-144204761D01*
X139531071Y-144157142D01*
X139483452Y-144061904D01*
X139435833Y-143871428D01*
X139435833Y-143633333D01*
X139483452Y-143442857D01*
X139531071Y-143347619D01*
X139578690Y-143300000D01*
X139673928Y-143252380D01*
X140626309Y-143252380D02*
X140721547Y-143252380D01*
X140816785Y-143300000D01*
X140864404Y-143347619D01*
X140912023Y-143442857D01*
X140959642Y-143633333D01*
X140959642Y-143871428D01*
X140912023Y-144061904D01*
X140864404Y-144157142D01*
X140816785Y-144204761D01*
X140721547Y-144252380D01*
X140626309Y-144252380D01*
X140531071Y-144204761D01*
X140483452Y-144157142D01*
X140435833Y-144061904D01*
X140388214Y-143871428D01*
X140388214Y-143633333D01*
X140435833Y-143442857D01*
X140483452Y-143347619D01*
X140531071Y-143300000D01*
X140626309Y-143252380D01*
X141578690Y-143252380D02*
X141673928Y-143252380D01*
X141769166Y-143300000D01*
X141816785Y-143347619D01*
X141864404Y-143442857D01*
X141912023Y-143633333D01*
X141912023Y-143871428D01*
X141864404Y-144061904D01*
X141816785Y-144157142D01*
X141769166Y-144204761D01*
X141673928Y-144252380D01*
X141578690Y-144252380D01*
X141483452Y-144204761D01*
X141435833Y-144157142D01*
X141388214Y-144061904D01*
X141340595Y-143871428D01*
X141340595Y-143633333D01*
X141388214Y-143442857D01*
X141435833Y-143347619D01*
X141483452Y-143300000D01*
X141578690Y-143252380D01*
X139054880Y-141057142D02*
X139007261Y-141104761D01*
X138864404Y-141152380D01*
X138769166Y-141152380D01*
X138626309Y-141104761D01*
X138531071Y-141009523D01*
X138483452Y-140914285D01*
X138435833Y-140723809D01*
X138435833Y-140580952D01*
X138483452Y-140390476D01*
X138531071Y-140295238D01*
X138626309Y-140200000D01*
X138769166Y-140152380D01*
X138864404Y-140152380D01*
X139007261Y-140200000D01*
X139054880Y-140247619D01*
X139673928Y-140152380D02*
X139769166Y-140152380D01*
X139864404Y-140200000D01*
X139912023Y-140247619D01*
X139959642Y-140342857D01*
X140007261Y-140533333D01*
X140007261Y-140771428D01*
X139959642Y-140961904D01*
X139912023Y-141057142D01*
X139864404Y-141104761D01*
X139769166Y-141152380D01*
X139673928Y-141152380D01*
X139578690Y-141104761D01*
X139531071Y-141057142D01*
X139483452Y-140961904D01*
X139435833Y-140771428D01*
X139435833Y-140533333D01*
X139483452Y-140342857D01*
X139531071Y-140247619D01*
X139578690Y-140200000D01*
X139673928Y-140152380D01*
X140626309Y-140152380D02*
X140721547Y-140152380D01*
X140816785Y-140200000D01*
X140864404Y-140247619D01*
X140912023Y-140342857D01*
X140959642Y-140533333D01*
X140959642Y-140771428D01*
X140912023Y-140961904D01*
X140864404Y-141057142D01*
X140816785Y-141104761D01*
X140721547Y-141152380D01*
X140626309Y-141152380D01*
X140531071Y-141104761D01*
X140483452Y-141057142D01*
X140435833Y-140961904D01*
X140388214Y-140771428D01*
X140388214Y-140533333D01*
X140435833Y-140342857D01*
X140483452Y-140247619D01*
X140531071Y-140200000D01*
X140626309Y-140152380D01*
X141578690Y-140152380D02*
X141673928Y-140152380D01*
X141769166Y-140200000D01*
X141816785Y-140247619D01*
X141864404Y-140342857D01*
X141912023Y-140533333D01*
X141912023Y-140771428D01*
X141864404Y-140961904D01*
X141816785Y-141057142D01*
X141769166Y-141104761D01*
X141673928Y-141152380D01*
X141578690Y-141152380D01*
X141483452Y-141104761D01*
X141435833Y-141057142D01*
X141388214Y-140961904D01*
X141340595Y-140771428D01*
X141340595Y-140533333D01*
X141388214Y-140342857D01*
X141435833Y-140247619D01*
X141483452Y-140200000D01*
X141578690Y-140152380D01*
X138483452Y-138252380D02*
X138483452Y-137252380D01*
X138721547Y-137252380D01*
X138864404Y-137300000D01*
X138959642Y-137395238D01*
X139007261Y-137490476D01*
X139054880Y-137680952D01*
X139054880Y-137823809D01*
X139007261Y-138014285D01*
X138959642Y-138109523D01*
X138864404Y-138204761D01*
X138721547Y-138252380D01*
X138483452Y-138252380D01*
X139673928Y-137252380D02*
X139769166Y-137252380D01*
X139864404Y-137300000D01*
X139912023Y-137347619D01*
X139959642Y-137442857D01*
X140007261Y-137633333D01*
X140007261Y-137871428D01*
X139959642Y-138061904D01*
X139912023Y-138157142D01*
X139864404Y-138204761D01*
X139769166Y-138252380D01*
X139673928Y-138252380D01*
X139578690Y-138204761D01*
X139531071Y-138157142D01*
X139483452Y-138061904D01*
X139435833Y-137871428D01*
X139435833Y-137633333D01*
X139483452Y-137442857D01*
X139531071Y-137347619D01*
X139578690Y-137300000D01*
X139673928Y-137252380D01*
X140626309Y-137252380D02*
X140721547Y-137252380D01*
X140816785Y-137300000D01*
X140864404Y-137347619D01*
X140912023Y-137442857D01*
X140959642Y-137633333D01*
X140959642Y-137871428D01*
X140912023Y-138061904D01*
X140864404Y-138157142D01*
X140816785Y-138204761D01*
X140721547Y-138252380D01*
X140626309Y-138252380D01*
X140531071Y-138204761D01*
X140483452Y-138157142D01*
X140435833Y-138061904D01*
X140388214Y-137871428D01*
X140388214Y-137633333D01*
X140435833Y-137442857D01*
X140483452Y-137347619D01*
X140531071Y-137300000D01*
X140626309Y-137252380D01*
X141578690Y-137252380D02*
X141673928Y-137252380D01*
X141769166Y-137300000D01*
X141816785Y-137347619D01*
X141864404Y-137442857D01*
X141912023Y-137633333D01*
X141912023Y-137871428D01*
X141864404Y-138061904D01*
X141816785Y-138157142D01*
X141769166Y-138204761D01*
X141673928Y-138252380D01*
X141578690Y-138252380D01*
X141483452Y-138204761D01*
X141435833Y-138157142D01*
X141388214Y-138061904D01*
X141340595Y-137871428D01*
X141340595Y-137633333D01*
X141388214Y-137442857D01*
X141435833Y-137347619D01*
X141483452Y-137300000D01*
X141578690Y-137252380D01*
X138578690Y-134728571D02*
X138912023Y-134728571D01*
X139054880Y-135252380D02*
X138578690Y-135252380D01*
X138578690Y-134252380D01*
X139054880Y-134252380D01*
X139673928Y-134252380D02*
X139769166Y-134252380D01*
X139864404Y-134300000D01*
X139912023Y-134347619D01*
X139959642Y-134442857D01*
X140007261Y-134633333D01*
X140007261Y-134871428D01*
X139959642Y-135061904D01*
X139912023Y-135157142D01*
X139864404Y-135204761D01*
X139769166Y-135252380D01*
X139673928Y-135252380D01*
X139578690Y-135204761D01*
X139531071Y-135157142D01*
X139483452Y-135061904D01*
X139435833Y-134871428D01*
X139435833Y-134633333D01*
X139483452Y-134442857D01*
X139531071Y-134347619D01*
X139578690Y-134300000D01*
X139673928Y-134252380D01*
X140626309Y-134252380D02*
X140721547Y-134252380D01*
X140816785Y-134300000D01*
X140864404Y-134347619D01*
X140912023Y-134442857D01*
X140959642Y-134633333D01*
X140959642Y-134871428D01*
X140912023Y-135061904D01*
X140864404Y-135157142D01*
X140816785Y-135204761D01*
X140721547Y-135252380D01*
X140626309Y-135252380D01*
X140531071Y-135204761D01*
X140483452Y-135157142D01*
X140435833Y-135061904D01*
X140388214Y-134871428D01*
X140388214Y-134633333D01*
X140435833Y-134442857D01*
X140483452Y-134347619D01*
X140531071Y-134300000D01*
X140626309Y-134252380D01*
X141578690Y-134252380D02*
X141673928Y-134252380D01*
X141769166Y-134300000D01*
X141816785Y-134347619D01*
X141864404Y-134442857D01*
X141912023Y-134633333D01*
X141912023Y-134871428D01*
X141864404Y-135061904D01*
X141816785Y-135157142D01*
X141769166Y-135204761D01*
X141673928Y-135252380D01*
X141578690Y-135252380D01*
X141483452Y-135204761D01*
X141435833Y-135157142D01*
X141388214Y-135061904D01*
X141340595Y-134871428D01*
X141340595Y-134633333D01*
X141388214Y-134442857D01*
X141435833Y-134347619D01*
X141483452Y-134300000D01*
X141578690Y-134252380D01*
X135876190Y-147252380D02*
X135876190Y-146252380D01*
X136542857Y-146252380D02*
X136733333Y-146252380D01*
X136828571Y-146300000D01*
X136923809Y-146395238D01*
X136971428Y-146585714D01*
X136971428Y-146919047D01*
X136923809Y-147109523D01*
X136828571Y-147204761D01*
X136733333Y-147252380D01*
X136542857Y-147252380D01*
X136447619Y-147204761D01*
X136352380Y-147109523D01*
X136304761Y-146919047D01*
X136304761Y-146585714D01*
X136352380Y-146395238D01*
X136447619Y-146300000D01*
X136542857Y-146252380D01*
X136257142Y-144252380D02*
X135780952Y-144252380D01*
X135780952Y-143252380D01*
X136733333Y-144252380D02*
X136638095Y-144204761D01*
X136590476Y-144157142D01*
X136542857Y-144061904D01*
X136542857Y-143776190D01*
X136590476Y-143680952D01*
X136638095Y-143633333D01*
X136733333Y-143585714D01*
X136876190Y-143585714D01*
X136971428Y-143633333D01*
X137019047Y-143680952D01*
X137066666Y-143776190D01*
X137066666Y-144061904D01*
X137019047Y-144157142D01*
X136971428Y-144204761D01*
X136876190Y-144252380D01*
X136733333Y-144252380D01*
X135776190Y-141252380D02*
X135776190Y-140252380D01*
X135776190Y-140728571D02*
X136347619Y-140728571D01*
X136347619Y-141252380D02*
X136347619Y-140252380D01*
X136823809Y-141252380D02*
X136823809Y-140585714D01*
X136823809Y-140252380D02*
X136776190Y-140300000D01*
X136823809Y-140347619D01*
X136871428Y-140300000D01*
X136823809Y-140252380D01*
X136823809Y-140347619D01*
X135852380Y-137352380D02*
X136042857Y-137352380D01*
X136138095Y-137400000D01*
X136233333Y-137495238D01*
X136280952Y-137685714D01*
X136280952Y-138019047D01*
X136233333Y-138209523D01*
X136138095Y-138304761D01*
X136042857Y-138352380D01*
X135852380Y-138352380D01*
X135757142Y-138304761D01*
X135661904Y-138209523D01*
X135614285Y-138019047D01*
X135614285Y-137685714D01*
X135661904Y-137495238D01*
X135757142Y-137400000D01*
X135852380Y-137352380D01*
X136709523Y-137828571D02*
X137042857Y-137828571D01*
X137185714Y-138352380D02*
X136709523Y-138352380D01*
X136709523Y-137352380D01*
X137185714Y-137352380D01*
X135619047Y-134252380D02*
X135857142Y-135252380D01*
X136047619Y-134538095D01*
X136238095Y-135252380D01*
X136476190Y-134252380D01*
X136857142Y-134728571D02*
X137190476Y-134728571D01*
X137333333Y-135252380D02*
X136857142Y-135252380D01*
X136857142Y-134252380D01*
X137333333Y-134252380D01*
X168652380Y-67952380D02*
X168747619Y-67952380D01*
X168842857Y-68000000D01*
X168890476Y-68047619D01*
X168938095Y-68142857D01*
X168985714Y-68333333D01*
X168985714Y-68571428D01*
X168938095Y-68761904D01*
X168890476Y-68857142D01*
X168842857Y-68904761D01*
X168747619Y-68952380D01*
X168652380Y-68952380D01*
X168557142Y-68904761D01*
X168509523Y-68857142D01*
X168461904Y-68761904D01*
X168414285Y-68571428D01*
X168414285Y-68333333D01*
X168461904Y-68142857D01*
X168509523Y-68047619D01*
X168557142Y-68000000D01*
X168652380Y-67952380D01*
X150766666Y-68052380D02*
X151433333Y-68052380D01*
X151004761Y-69052380D01*
X148052380Y-67952380D02*
X148147619Y-67952380D01*
X148242857Y-68000000D01*
X148290476Y-68047619D01*
X148338095Y-68142857D01*
X148385714Y-68333333D01*
X148385714Y-68571428D01*
X148338095Y-68761904D01*
X148290476Y-68857142D01*
X148242857Y-68904761D01*
X148147619Y-68952380D01*
X148052380Y-68952380D01*
X147957142Y-68904761D01*
X147909523Y-68857142D01*
X147861904Y-68761904D01*
X147814285Y-68571428D01*
X147814285Y-68333333D01*
X147861904Y-68142857D01*
X147909523Y-68047619D01*
X147957142Y-68000000D01*
X148052380Y-67952380D01*
X114009523Y-69052380D02*
X113438095Y-69052380D01*
X113723809Y-69052380D02*
X113723809Y-68052380D01*
X113628571Y-68195238D01*
X113533333Y-68290476D01*
X113438095Y-68338095D01*
X114914285Y-68052380D02*
X114438095Y-68052380D01*
X114390476Y-68528571D01*
X114438095Y-68480952D01*
X114533333Y-68433333D01*
X114771428Y-68433333D01*
X114866666Y-68480952D01*
X114914285Y-68528571D01*
X114961904Y-68623809D01*
X114961904Y-68861904D01*
X114914285Y-68957142D01*
X114866666Y-69004761D01*
X114771428Y-69052380D01*
X114533333Y-69052380D01*
X114438095Y-69004761D01*
X114390476Y-68957142D01*
D11*
X157950000Y-65878571D02*
X157950000Y-64378571D01*
X158307142Y-64378571D01*
X158521428Y-64450000D01*
X158664285Y-64592857D01*
X158735714Y-64735714D01*
X158807142Y-65021428D01*
X158807142Y-65235714D01*
X158735714Y-65521428D01*
X158664285Y-65664285D01*
X158521428Y-65807142D01*
X158307142Y-65878571D01*
X157950000Y-65878571D01*
X159378571Y-65450000D02*
X160092857Y-65450000D01*
X159235714Y-65878571D02*
X159735714Y-64378571D01*
X160235714Y-65878571D01*
X160521428Y-64378571D02*
X161378571Y-64378571D01*
X160950000Y-65878571D02*
X160950000Y-64378571D01*
X161807142Y-65450000D02*
X162521428Y-65450000D01*
X161664285Y-65878571D02*
X162164285Y-64378571D01*
X162664285Y-65878571D01*
X126785714Y-65550000D02*
X127500000Y-65550000D01*
X126642857Y-65978571D02*
X127142857Y-64478571D01*
X127642857Y-65978571D01*
X128142857Y-65978571D02*
X128142857Y-64478571D01*
X128500000Y-64478571D01*
X128714285Y-64550000D01*
X128857142Y-64692857D01*
X128928571Y-64835714D01*
X129000000Y-65121428D01*
X129000000Y-65335714D01*
X128928571Y-65621428D01*
X128857142Y-65764285D01*
X128714285Y-65907142D01*
X128500000Y-65978571D01*
X128142857Y-65978571D01*
X129642857Y-65978571D02*
X129642857Y-64478571D01*
X130000000Y-64478571D01*
X130214285Y-64550000D01*
X130357142Y-64692857D01*
X130428571Y-64835714D01*
X130500000Y-65121428D01*
X130500000Y-65335714D01*
X130428571Y-65621428D01*
X130357142Y-65764285D01*
X130214285Y-65907142D01*
X130000000Y-65978571D01*
X129642857Y-65978571D01*
X132000000Y-65978571D02*
X131500000Y-65264285D01*
X131142857Y-65978571D02*
X131142857Y-64478571D01*
X131714285Y-64478571D01*
X131857142Y-64550000D01*
X131928571Y-64621428D01*
X132000000Y-64764285D01*
X132000000Y-64978571D01*
X131928571Y-65121428D01*
X131857142Y-65192857D01*
X131714285Y-65264285D01*
X131142857Y-65264285D01*
X132642857Y-65192857D02*
X133142857Y-65192857D01*
X133357142Y-65978571D02*
X132642857Y-65978571D01*
X132642857Y-64478571D01*
X133357142Y-64478571D01*
X133928571Y-65907142D02*
X134142857Y-65978571D01*
X134500000Y-65978571D01*
X134642857Y-65907142D01*
X134714285Y-65835714D01*
X134785714Y-65692857D01*
X134785714Y-65550000D01*
X134714285Y-65407142D01*
X134642857Y-65335714D01*
X134500000Y-65264285D01*
X134214285Y-65192857D01*
X134071428Y-65121428D01*
X134000000Y-65050000D01*
X133928571Y-64907142D01*
X133928571Y-64764285D01*
X134000000Y-64621428D01*
X134071428Y-64550000D01*
X134214285Y-64478571D01*
X134571428Y-64478571D01*
X134785714Y-64550000D01*
X135357142Y-65907142D02*
X135571428Y-65978571D01*
X135928571Y-65978571D01*
X136071428Y-65907142D01*
X136142857Y-65835714D01*
X136214285Y-65692857D01*
X136214285Y-65550000D01*
X136142857Y-65407142D01*
X136071428Y-65335714D01*
X135928571Y-65264285D01*
X135642857Y-65192857D01*
X135500000Y-65121428D01*
X135428571Y-65050000D01*
X135357142Y-64907142D01*
X135357142Y-64764285D01*
X135428571Y-64621428D01*
X135500000Y-64550000D01*
X135642857Y-64478571D01*
X136000000Y-64478571D01*
X136214285Y-64550000D01*
D10*
X156650000Y-122125000D02*
X156650000Y-126575000D01*
X163550000Y-120600000D02*
X163550000Y-126575000D01*
D12*
X146810000Y-114026000D02*
X146810000Y-110426000D01*
X146810000Y-114026000D02*
X146810000Y-116226000D01*
X141340000Y-114026000D02*
X141340000Y-111826000D01*
X141340000Y-114026000D02*
X141340000Y-116226000D01*
X122588000Y-125886000D02*
X122588000Y-122286000D01*
X122588000Y-125886000D02*
X122588000Y-128086000D01*
X117368000Y-125886000D02*
X117368000Y-123686000D01*
X117368000Y-125886000D02*
X117368000Y-128086000D01*
X176590000Y-137170000D02*
X176590000Y-138500000D01*
X175260000Y-137170000D02*
X176590000Y-137170000D01*
X173990000Y-137170000D02*
X173990000Y-139830000D01*
X173990000Y-139830000D02*
X156150000Y-139830000D01*
X173990000Y-137170000D02*
X156150000Y-137170000D01*
X156150000Y-137170000D02*
X156150000Y-139830000D01*
X176470000Y-139830000D02*
X176470000Y-138500000D01*
X177800000Y-139830000D02*
X176470000Y-139830000D01*
X179070000Y-139830000D02*
X179070000Y-137170000D01*
X179070000Y-137170000D02*
X196910000Y-137170000D01*
X179070000Y-139830000D02*
X196910000Y-139830000D01*
X196910000Y-139830000D02*
X196910000Y-137170000D01*
X149357000Y-116697578D02*
X149357000Y-116180422D01*
X147937000Y-116697578D02*
X147937000Y-116180422D01*
X123459000Y-128557578D02*
X123459000Y-128040422D01*
X124879000Y-128557578D02*
X124879000Y-128040422D01*
X145910000Y-87295000D02*
X145910000Y-100400000D01*
X137690000Y-88600000D02*
X137690000Y-100400000D01*
X147185000Y-124400000D02*
X147185000Y-120800000D01*
X147185000Y-124400000D02*
X147185000Y-126600000D01*
X140415000Y-124400000D02*
X140415000Y-122200000D01*
X140415000Y-124400000D02*
X140415000Y-126600000D01*
X133352000Y-124511000D02*
X133352000Y-120911000D01*
X133352000Y-124511000D02*
X133352000Y-126711000D01*
X127882000Y-124511000D02*
X127882000Y-122311000D01*
X127882000Y-124511000D02*
X127882000Y-126711000D01*
X124306000Y-82020000D02*
X124306000Y-78570000D01*
X124306000Y-82020000D02*
X124306000Y-83970000D01*
X115436000Y-82020000D02*
X115436000Y-80070000D01*
X115436000Y-82020000D02*
X115436000Y-83970000D01*
X147290000Y-92341422D02*
X147290000Y-92858578D01*
X148710000Y-92341422D02*
X148710000Y-92858578D01*
X104258578Y-68590000D02*
X103741422Y-68590000D01*
X104258578Y-70010000D02*
X103741422Y-70010000D01*
X195541422Y-70010000D02*
X196058578Y-70010000D01*
X195541422Y-68590000D02*
X196058578Y-68590000D01*
X147959578Y-146102000D02*
X147442422Y-146102000D01*
X147959578Y-147522000D02*
X147442422Y-147522000D01*
X147959578Y-143054000D02*
X147442422Y-143054000D01*
X147959578Y-144474000D02*
X147442422Y-144474000D01*
X147959578Y-140006000D02*
X147442422Y-140006000D01*
X147959578Y-141426000D02*
X147442422Y-141426000D01*
X147959578Y-137085000D02*
X147442422Y-137085000D01*
X147959578Y-138505000D02*
X147442422Y-138505000D01*
X147959578Y-134037000D02*
X147442422Y-134037000D01*
X147959578Y-135457000D02*
X147442422Y-135457000D01*
X147040000Y-94715000D02*
X147040000Y-97400000D01*
X148960000Y-94715000D02*
X147040000Y-94715000D01*
X148960000Y-97400000D02*
X148960000Y-94715000D01*
X102315000Y-72560000D02*
X105000000Y-72560000D01*
X102315000Y-70640000D02*
X102315000Y-72560000D01*
X105000000Y-70640000D02*
X102315000Y-70640000D01*
X197485000Y-70440000D02*
X194800000Y-70440000D01*
X197485000Y-72360000D02*
X197485000Y-70440000D01*
X194800000Y-72360000D02*
X197485000Y-72360000D01*
X145576000Y-145852000D02*
X142891000Y-145852000D01*
X145576000Y-147772000D02*
X145576000Y-145852000D01*
X142891000Y-147772000D02*
X145576000Y-147772000D01*
X145576000Y-142835750D02*
X142891000Y-142835750D01*
X145576000Y-144755750D02*
X145576000Y-142835750D01*
X142891000Y-144755750D02*
X145576000Y-144755750D01*
X145576000Y-139819500D02*
X142891000Y-139819500D01*
X145576000Y-141739500D02*
X145576000Y-139819500D01*
X142891000Y-141739500D02*
X145576000Y-141739500D01*
X145576000Y-136803250D02*
X142891000Y-136803250D01*
X145576000Y-138723250D02*
X145576000Y-136803250D01*
X142891000Y-138723250D02*
X145576000Y-138723250D01*
X145576000Y-133787000D02*
X142891000Y-133787000D01*
X145576000Y-135707000D02*
X145576000Y-133787000D01*
X142891000Y-135707000D02*
X145576000Y-135707000D01*
X135510000Y-127055578D02*
X135510000Y-126538422D01*
X134090000Y-127055578D02*
X134090000Y-126538422D01*
X127185000Y-84310578D02*
X127185000Y-83793422D01*
X125765000Y-84310578D02*
X125765000Y-83793422D01*
X142710000Y-84658578D02*
X142710000Y-84141422D01*
X141290000Y-84658578D02*
X141290000Y-84141422D01*
X149510000Y-126858578D02*
X149510000Y-126341422D01*
X148090000Y-126858578D02*
X148090000Y-126341422D01*
X105510000Y-137385000D02*
X105510000Y-133000000D01*
X102490000Y-137385000D02*
X105510000Y-137385000D01*
X102490000Y-133000000D02*
X102490000Y-137385000D01*
X158700000Y-84600000D02*
X158700000Y-103400000D01*
X160700000Y-82600000D02*
X158700000Y-84600000D01*
X176900000Y-82600000D02*
X160700000Y-82600000D01*
X176900000Y-103400000D02*
X176900000Y-82600000D01*
X158700000Y-103400000D02*
X176900000Y-103400000D01*
X113400000Y-135000000D02*
X115500000Y-135000000D01*
X113100000Y-134700000D02*
X113100000Y-136300000D01*
X114800000Y-134700000D02*
X113100000Y-134700000D01*
X122600000Y-135000000D02*
X122600000Y-136800000D01*
X120500000Y-135000000D02*
X122600000Y-135000000D01*
X113400000Y-149700000D02*
X113400000Y-135000000D01*
X122600000Y-149700000D02*
X113400000Y-149700000D01*
X122600000Y-141200000D02*
X122600000Y-149700000D01*
X156690000Y-142678922D02*
X156690000Y-143196078D01*
X158110000Y-142678922D02*
X158110000Y-143196078D01*
X159232857Y-142678922D02*
X159232857Y-143196078D01*
X160652857Y-142678922D02*
X160652857Y-143196078D01*
X161775714Y-142678922D02*
X161775714Y-143196078D01*
X163195714Y-142678922D02*
X163195714Y-143196078D01*
X164318571Y-142678922D02*
X164318571Y-143196078D01*
X165738571Y-142678922D02*
X165738571Y-143196078D01*
X166861428Y-142678922D02*
X166861428Y-143196078D01*
X168281428Y-142678922D02*
X168281428Y-143196078D01*
X169404285Y-142678922D02*
X169404285Y-143196078D01*
X170824285Y-142678922D02*
X170824285Y-143196078D01*
X171947142Y-142678922D02*
X171947142Y-143196078D01*
X173367142Y-142678922D02*
X173367142Y-143196078D01*
X174490000Y-142678922D02*
X174490000Y-143196078D01*
X175910000Y-142678922D02*
X175910000Y-143196078D01*
X169741422Y-80090000D02*
X170258578Y-80090000D01*
X169741422Y-81510000D02*
X170258578Y-81510000D01*
X166003000Y-116714578D02*
X166003000Y-116197422D01*
X164583000Y-116714578D02*
X164583000Y-116197422D01*
X107290000Y-134758578D02*
X107290000Y-134241422D01*
X108710000Y-134758578D02*
X108710000Y-134241422D01*
X180610000Y-126296078D02*
X180610000Y-125778922D01*
X179190000Y-126296078D02*
X179190000Y-125778922D01*
X165910000Y-126858578D02*
X165910000Y-126341422D01*
X164490000Y-126858578D02*
X164490000Y-126341422D01*
X135315000Y-133827000D02*
X132630000Y-133827000D01*
X135315000Y-135747000D02*
X135315000Y-133827000D01*
X132630000Y-135747000D02*
X135315000Y-135747000D01*
X135315000Y-136827000D02*
X132630000Y-136827000D01*
X135315000Y-138747000D02*
X135315000Y-136827000D01*
X132630000Y-138747000D02*
X135315000Y-138747000D01*
X135315000Y-139827000D02*
X132630000Y-139827000D01*
X135315000Y-141747000D02*
X135315000Y-139827000D01*
X132630000Y-141747000D02*
X135315000Y-141747000D01*
X135315000Y-142827000D02*
X132630000Y-142827000D01*
X135315000Y-144747000D02*
X135315000Y-142827000D01*
X132630000Y-144747000D02*
X135315000Y-144747000D01*
X135315000Y-145827000D02*
X132630000Y-145827000D01*
X135315000Y-147747000D02*
X135315000Y-145827000D01*
X132630000Y-147747000D02*
X135315000Y-147747000D01*
X147460000Y-70185000D02*
X147460000Y-67500000D01*
X145540000Y-70185000D02*
X147460000Y-70185000D01*
X145540000Y-67500000D02*
X145540000Y-70185000D01*
X145460000Y-70185000D02*
X145460000Y-67500000D01*
X143540000Y-70185000D02*
X145460000Y-70185000D01*
X143540000Y-67500000D02*
X143540000Y-70185000D01*
X143460000Y-70185000D02*
X143460000Y-67500000D01*
X141540000Y-70185000D02*
X143460000Y-70185000D01*
X141540000Y-67500000D02*
X141540000Y-70185000D01*
X141460000Y-70185000D02*
X141460000Y-67500000D01*
X139540000Y-70185000D02*
X141460000Y-70185000D01*
X139540000Y-67500000D02*
X139540000Y-70185000D01*
X137540000Y-67500000D02*
X137540000Y-70185000D01*
X137540000Y-70185000D02*
X139460000Y-70185000D01*
X139460000Y-70185000D02*
X139460000Y-67500000D01*
X135540000Y-67500000D02*
X135540000Y-70185000D01*
X135540000Y-70185000D02*
X137460000Y-70185000D01*
X137460000Y-70185000D02*
X137460000Y-67500000D01*
X133540000Y-67500000D02*
X133540000Y-70185000D01*
X133540000Y-70185000D02*
X135460000Y-70185000D01*
X135460000Y-70185000D02*
X135460000Y-67500000D01*
X131540000Y-67500000D02*
X131540000Y-70185000D01*
X131540000Y-70185000D02*
X133460000Y-70185000D01*
X133460000Y-70185000D02*
X133460000Y-67500000D01*
X129540000Y-67500000D02*
X129540000Y-70185000D01*
X129540000Y-70185000D02*
X131460000Y-70185000D01*
X131460000Y-70185000D02*
X131460000Y-67500000D01*
X127540000Y-67500000D02*
X127540000Y-70185000D01*
X127540000Y-70185000D02*
X129460000Y-70185000D01*
X129460000Y-70185000D02*
X129460000Y-67500000D01*
X125540000Y-67500000D02*
X125540000Y-70185000D01*
X125540000Y-70185000D02*
X127460000Y-70185000D01*
X127460000Y-70185000D02*
X127460000Y-67500000D01*
X123540000Y-67500000D02*
X123540000Y-70185000D01*
X123540000Y-70185000D02*
X125460000Y-70185000D01*
X125460000Y-70185000D02*
X125460000Y-67500000D01*
X121540000Y-67500000D02*
X121540000Y-70185000D01*
X121540000Y-70185000D02*
X123460000Y-70185000D01*
X123460000Y-70185000D02*
X123460000Y-67500000D01*
X119540000Y-67500000D02*
X119540000Y-70185000D01*
X119540000Y-70185000D02*
X121460000Y-70185000D01*
X121460000Y-70185000D02*
X121460000Y-67500000D01*
X117540000Y-67500000D02*
X117540000Y-70185000D01*
X117540000Y-70185000D02*
X119460000Y-70185000D01*
X119460000Y-70185000D02*
X119460000Y-67500000D01*
X115540000Y-67500000D02*
X115540000Y-70185000D01*
X115540000Y-70185000D02*
X117460000Y-70185000D01*
X117460000Y-70185000D02*
X117460000Y-67500000D01*
X166040000Y-67500000D02*
X166040000Y-70185000D01*
X166040000Y-70185000D02*
X167960000Y-70185000D01*
X167960000Y-70185000D02*
X167960000Y-67500000D01*
X164040000Y-67500000D02*
X164040000Y-70185000D01*
X164040000Y-70185000D02*
X165960000Y-70185000D01*
X165960000Y-70185000D02*
X165960000Y-67500000D01*
X162040000Y-67500000D02*
X162040000Y-70185000D01*
X162040000Y-70185000D02*
X163960000Y-70185000D01*
X163960000Y-70185000D02*
X163960000Y-67500000D01*
X161960000Y-70185000D02*
X161960000Y-67500000D01*
X160040000Y-70185000D02*
X161960000Y-70185000D01*
X160040000Y-67500000D02*
X160040000Y-70185000D01*
X159960000Y-70185000D02*
X159960000Y-67500000D01*
X158040000Y-70185000D02*
X159960000Y-70185000D01*
X158040000Y-67500000D02*
X158040000Y-70185000D01*
X157960000Y-70185000D02*
X157960000Y-67500000D01*
X156040000Y-70185000D02*
X157960000Y-70185000D01*
X156040000Y-67500000D02*
X156040000Y-70185000D01*
X155960000Y-70185000D02*
X155960000Y-67500000D01*
X154040000Y-70185000D02*
X155960000Y-70185000D01*
X154040000Y-67500000D02*
X154040000Y-70185000D01*
X153960000Y-70185000D02*
X153960000Y-67500000D01*
X152040000Y-70185000D02*
X153960000Y-70185000D01*
X152040000Y-67500000D02*
X152040000Y-70185000D01*
X129371422Y-134077000D02*
X129888578Y-134077000D01*
X129371422Y-135497000D02*
X129888578Y-135497000D01*
X129371422Y-137077000D02*
X129888578Y-137077000D01*
X129371422Y-138497000D02*
X129888578Y-138497000D01*
X129371422Y-140077000D02*
X129888578Y-140077000D01*
X129371422Y-141497000D02*
X129888578Y-141497000D01*
X129371422Y-143077000D02*
X129888578Y-143077000D01*
X129371422Y-144497000D02*
X129888578Y-144497000D01*
X129371422Y-146077000D02*
X129888578Y-146077000D01*
X129371422Y-147497000D02*
X129888578Y-147497000D01*
X178660000Y-134578578D02*
X178660000Y-134061422D01*
X177240000Y-134578578D02*
X177240000Y-134061422D01*
X179780000Y-134578578D02*
X179780000Y-134061422D01*
X181200000Y-134578578D02*
X181200000Y-134061422D01*
X183740000Y-134578578D02*
X183740000Y-134061422D01*
X182320000Y-134578578D02*
X182320000Y-134061422D01*
X184860000Y-134578578D02*
X184860000Y-134061422D01*
X186280000Y-134578578D02*
X186280000Y-134061422D01*
X188820000Y-134578578D02*
X188820000Y-134061422D01*
X187400000Y-134578578D02*
X187400000Y-134061422D01*
X189940000Y-134578578D02*
X189940000Y-134061422D01*
X191360000Y-134578578D02*
X191360000Y-134061422D01*
X193900000Y-134578578D02*
X193900000Y-134061422D01*
X192480000Y-134578578D02*
X192480000Y-134061422D01*
X195020000Y-134578578D02*
X195020000Y-134061422D01*
X196440000Y-134578578D02*
X196440000Y-134061422D01*
X147210000Y-72258578D02*
X147210000Y-71741422D01*
X145790000Y-72258578D02*
X145790000Y-71741422D01*
X143790000Y-72258578D02*
X143790000Y-71741422D01*
X145210000Y-72258578D02*
X145210000Y-71741422D01*
X143210000Y-72258578D02*
X143210000Y-71741422D01*
X141790000Y-72258578D02*
X141790000Y-71741422D01*
X141210000Y-72258578D02*
X141210000Y-71741422D01*
X139790000Y-72258578D02*
X139790000Y-71741422D01*
X137790000Y-72258578D02*
X137790000Y-71741422D01*
X139210000Y-72258578D02*
X139210000Y-71741422D01*
X135790000Y-72258578D02*
X135790000Y-71741422D01*
X137210000Y-72258578D02*
X137210000Y-71741422D01*
X133790000Y-72258578D02*
X133790000Y-71741422D01*
X135210000Y-72258578D02*
X135210000Y-71741422D01*
X133210000Y-72258578D02*
X133210000Y-71741422D01*
X131790000Y-72258578D02*
X131790000Y-71741422D01*
X131210000Y-72258578D02*
X131210000Y-71741422D01*
X129790000Y-72258578D02*
X129790000Y-71741422D01*
X129210000Y-72258578D02*
X129210000Y-71741422D01*
X127790000Y-72258578D02*
X127790000Y-71741422D01*
X127210000Y-72258578D02*
X127210000Y-71741422D01*
X125790000Y-72258578D02*
X125790000Y-71741422D01*
X125210000Y-72258578D02*
X125210000Y-71741422D01*
X123790000Y-72258578D02*
X123790000Y-71741422D01*
X123210000Y-72258578D02*
X123210000Y-71741422D01*
X121790000Y-72258578D02*
X121790000Y-71741422D01*
X119790000Y-72258578D02*
X119790000Y-71741422D01*
X121210000Y-72258578D02*
X121210000Y-71741422D01*
X119210000Y-72258578D02*
X119210000Y-71741422D01*
X117790000Y-72258578D02*
X117790000Y-71741422D01*
X115790000Y-72258578D02*
X115790000Y-71741422D01*
X117210000Y-72258578D02*
X117210000Y-71741422D01*
X167710000Y-72258578D02*
X167710000Y-71741422D01*
X166290000Y-72258578D02*
X166290000Y-71741422D01*
X164290000Y-72258578D02*
X164290000Y-71741422D01*
X165710000Y-72258578D02*
X165710000Y-71741422D01*
X163710000Y-72258578D02*
X163710000Y-71741422D01*
X162290000Y-72258578D02*
X162290000Y-71741422D01*
X160290000Y-72258578D02*
X160290000Y-71741422D01*
X161710000Y-72258578D02*
X161710000Y-71741422D01*
X159710000Y-72258578D02*
X159710000Y-71741422D01*
X158290000Y-72258578D02*
X158290000Y-71741422D01*
X157710000Y-72258578D02*
X157710000Y-71741422D01*
X156290000Y-72258578D02*
X156290000Y-71741422D01*
X154290000Y-72258578D02*
X154290000Y-71741422D01*
X155710000Y-72258578D02*
X155710000Y-71741422D01*
X153710000Y-72258578D02*
X153710000Y-71741422D01*
X152290000Y-72258578D02*
X152290000Y-71741422D01*
D10*
X163727000Y-111718000D02*
X163602000Y-111718000D01*
X163727000Y-116368000D02*
X163502000Y-116368000D01*
X158477000Y-116368000D02*
X158702000Y-116368000D01*
X158477000Y-111718000D02*
X158702000Y-111718000D01*
X163727000Y-111718000D02*
X163727000Y-116368000D01*
X158477000Y-111718000D02*
X158477000Y-116368000D01*
X163602000Y-111718000D02*
X163602000Y-110368000D01*
D12*
X122090000Y-88700000D02*
X122090000Y-100500000D01*
X130310000Y-87395000D02*
X130310000Y-100500000D01*
D10*
X178100000Y-120100000D02*
X178100000Y-126075000D01*
X171200000Y-121625000D02*
X171200000Y-126075000D01*
X159338095Y-118802380D02*
X159338095Y-119611904D01*
X159385714Y-119707142D01*
X159433333Y-119754761D01*
X159528571Y-119802380D01*
X159719047Y-119802380D01*
X159814285Y-119754761D01*
X159861904Y-119707142D01*
X159909523Y-119611904D01*
X159909523Y-118802380D01*
X160528571Y-119230952D02*
X160433333Y-119183333D01*
X160385714Y-119135714D01*
X160338095Y-119040476D01*
X160338095Y-118992857D01*
X160385714Y-118897619D01*
X160433333Y-118850000D01*
X160528571Y-118802380D01*
X160719047Y-118802380D01*
X160814285Y-118850000D01*
X160861904Y-118897619D01*
X160909523Y-118992857D01*
X160909523Y-119040476D01*
X160861904Y-119135714D01*
X160814285Y-119183333D01*
X160719047Y-119230952D01*
X160528571Y-119230952D01*
X160433333Y-119278571D01*
X160385714Y-119326190D01*
X160338095Y-119421428D01*
X160338095Y-119611904D01*
X160385714Y-119707142D01*
X160433333Y-119754761D01*
X160528571Y-119802380D01*
X160719047Y-119802380D01*
X160814285Y-119754761D01*
X160861904Y-119707142D01*
X160909523Y-119611904D01*
X160909523Y-119421428D01*
X160861904Y-119326190D01*
X160814285Y-119278571D01*
X160719047Y-119230952D01*
X142836904Y-108779380D02*
X142836904Y-109588904D01*
X142884523Y-109684142D01*
X142932142Y-109731761D01*
X143027380Y-109779380D01*
X143217857Y-109779380D01*
X143313095Y-109731761D01*
X143360714Y-109684142D01*
X143408333Y-109588904D01*
X143408333Y-108779380D01*
X144408333Y-109779380D02*
X143836904Y-109779380D01*
X144122619Y-109779380D02*
X144122619Y-108779380D01*
X144027380Y-108922238D01*
X143932142Y-109017476D01*
X143836904Y-109065095D01*
X145265476Y-109112714D02*
X145265476Y-109779380D01*
X145027380Y-108731761D02*
X144789285Y-109446047D01*
X145408333Y-109446047D01*
X119089095Y-120639380D02*
X119089095Y-121448904D01*
X119136714Y-121544142D01*
X119184333Y-121591761D01*
X119279571Y-121639380D01*
X119470047Y-121639380D01*
X119565285Y-121591761D01*
X119612904Y-121544142D01*
X119660523Y-121448904D01*
X119660523Y-120639380D01*
X120089095Y-120734619D02*
X120136714Y-120687000D01*
X120231952Y-120639380D01*
X120470047Y-120639380D01*
X120565285Y-120687000D01*
X120612904Y-120734619D01*
X120660523Y-120829857D01*
X120660523Y-120925095D01*
X120612904Y-121067952D01*
X120041476Y-121639380D01*
X120660523Y-121639380D01*
X174166666Y-135452380D02*
X174166666Y-136166666D01*
X174119047Y-136309523D01*
X174023809Y-136404761D01*
X173880952Y-136452380D01*
X173785714Y-136452380D01*
X174547619Y-135452380D02*
X175214285Y-135452380D01*
X174785714Y-136452380D01*
X179266666Y-140652380D02*
X179266666Y-141366666D01*
X179219047Y-141509523D01*
X179123809Y-141604761D01*
X178980952Y-141652380D01*
X178885714Y-141652380D01*
X180219047Y-140652380D02*
X179742857Y-140652380D01*
X179695238Y-141128571D01*
X179742857Y-141080952D01*
X179838095Y-141033333D01*
X180076190Y-141033333D01*
X180171428Y-141080952D01*
X180219047Y-141128571D01*
X180266666Y-141223809D01*
X180266666Y-141461904D01*
X180219047Y-141557142D01*
X180171428Y-141604761D01*
X180076190Y-141652380D01*
X179838095Y-141652380D01*
X179742857Y-141604761D01*
X179695238Y-141557142D01*
X148131142Y-114256142D02*
X148083523Y-114303761D01*
X147940666Y-114351380D01*
X147845428Y-114351380D01*
X147702571Y-114303761D01*
X147607333Y-114208523D01*
X147559714Y-114113285D01*
X147512095Y-113922809D01*
X147512095Y-113779952D01*
X147559714Y-113589476D01*
X147607333Y-113494238D01*
X147702571Y-113399000D01*
X147845428Y-113351380D01*
X147940666Y-113351380D01*
X148083523Y-113399000D01*
X148131142Y-113446619D01*
X149083523Y-114351380D02*
X148512095Y-114351380D01*
X148797809Y-114351380D02*
X148797809Y-113351380D01*
X148702571Y-113494238D01*
X148607333Y-113589476D01*
X148512095Y-113637095D01*
X149940666Y-113351380D02*
X149750190Y-113351380D01*
X149654952Y-113399000D01*
X149607333Y-113446619D01*
X149512095Y-113589476D01*
X149464476Y-113779952D01*
X149464476Y-114160904D01*
X149512095Y-114256142D01*
X149559714Y-114303761D01*
X149654952Y-114351380D01*
X149845428Y-114351380D01*
X149940666Y-114303761D01*
X149988285Y-114256142D01*
X150035904Y-114160904D01*
X150035904Y-113922809D01*
X149988285Y-113827571D01*
X149940666Y-113779952D01*
X149845428Y-113732333D01*
X149654952Y-113732333D01*
X149559714Y-113779952D01*
X149512095Y-113827571D01*
X149464476Y-113922809D01*
X123780142Y-126116142D02*
X123732523Y-126163761D01*
X123589666Y-126211380D01*
X123494428Y-126211380D01*
X123351571Y-126163761D01*
X123256333Y-126068523D01*
X123208714Y-125973285D01*
X123161095Y-125782809D01*
X123161095Y-125639952D01*
X123208714Y-125449476D01*
X123256333Y-125354238D01*
X123351571Y-125259000D01*
X123494428Y-125211380D01*
X123589666Y-125211380D01*
X123732523Y-125259000D01*
X123780142Y-125306619D01*
X124732523Y-126211380D02*
X124161095Y-126211380D01*
X124446809Y-126211380D02*
X124446809Y-125211380D01*
X124351571Y-125354238D01*
X124256333Y-125449476D01*
X124161095Y-125497095D01*
X125589666Y-125544714D02*
X125589666Y-126211380D01*
X125351571Y-125163761D02*
X125113476Y-125878047D01*
X125732523Y-125878047D01*
X136052380Y-95838095D02*
X136861904Y-95838095D01*
X136957142Y-95790476D01*
X137004761Y-95742857D01*
X137052380Y-95647619D01*
X137052380Y-95457142D01*
X137004761Y-95361904D01*
X136957142Y-95314285D01*
X136861904Y-95266666D01*
X136052380Y-95266666D01*
X137052380Y-94266666D02*
X137052380Y-94838095D01*
X137052380Y-94552380D02*
X136052380Y-94552380D01*
X136195238Y-94647619D01*
X136290476Y-94742857D01*
X136338095Y-94838095D01*
X136052380Y-93933333D02*
X136052380Y-93314285D01*
X136433333Y-93647619D01*
X136433333Y-93504761D01*
X136480952Y-93409523D01*
X136528571Y-93361904D01*
X136623809Y-93314285D01*
X136861904Y-93314285D01*
X136957142Y-93361904D01*
X137004761Y-93409523D01*
X137052380Y-93504761D01*
X137052380Y-93790476D01*
X137004761Y-93885714D01*
X136957142Y-93933333D01*
X142561904Y-119026380D02*
X142561904Y-119835904D01*
X142609523Y-119931142D01*
X142657142Y-119978761D01*
X142752380Y-120026380D01*
X142942857Y-120026380D01*
X143038095Y-119978761D01*
X143085714Y-119931142D01*
X143133333Y-119835904D01*
X143133333Y-119026380D01*
X144133333Y-120026380D02*
X143561904Y-120026380D01*
X143847619Y-120026380D02*
X143847619Y-119026380D01*
X143752380Y-119169238D01*
X143657142Y-119264476D01*
X143561904Y-119312095D01*
X145085714Y-120026380D02*
X144514285Y-120026380D01*
X144800000Y-120026380D02*
X144800000Y-119026380D01*
X144704761Y-119169238D01*
X144609523Y-119264476D01*
X144514285Y-119312095D01*
X129378904Y-119391380D02*
X129378904Y-120200904D01*
X129426523Y-120296142D01*
X129474142Y-120343761D01*
X129569380Y-120391380D01*
X129759857Y-120391380D01*
X129855095Y-120343761D01*
X129902714Y-120296142D01*
X129950333Y-120200904D01*
X129950333Y-119391380D01*
X130950333Y-120391380D02*
X130378904Y-120391380D01*
X130664619Y-120391380D02*
X130664619Y-119391380D01*
X130569380Y-119534238D01*
X130474142Y-119629476D01*
X130378904Y-119677095D01*
X131569380Y-119391380D02*
X131664619Y-119391380D01*
X131759857Y-119439000D01*
X131807476Y-119486619D01*
X131855095Y-119581857D01*
X131902714Y-119772333D01*
X131902714Y-120010428D01*
X131855095Y-120200904D01*
X131807476Y-120296142D01*
X131759857Y-120343761D01*
X131664619Y-120391380D01*
X131569380Y-120391380D01*
X131474142Y-120343761D01*
X131426523Y-120296142D01*
X131378904Y-120200904D01*
X131331285Y-120010428D01*
X131331285Y-119772333D01*
X131378904Y-119581857D01*
X131426523Y-119486619D01*
X131474142Y-119439000D01*
X131569380Y-119391380D01*
X119109095Y-76773380D02*
X119109095Y-77582904D01*
X119156714Y-77678142D01*
X119204333Y-77725761D01*
X119299571Y-77773380D01*
X119490047Y-77773380D01*
X119585285Y-77725761D01*
X119632904Y-77678142D01*
X119680523Y-77582904D01*
X119680523Y-76773380D01*
X120204333Y-77773380D02*
X120394809Y-77773380D01*
X120490047Y-77725761D01*
X120537666Y-77678142D01*
X120632904Y-77535285D01*
X120680523Y-77344809D01*
X120680523Y-76963857D01*
X120632904Y-76868619D01*
X120585285Y-76821000D01*
X120490047Y-76773380D01*
X120299571Y-76773380D01*
X120204333Y-76821000D01*
X120156714Y-76868619D01*
X120109095Y-76963857D01*
X120109095Y-77201952D01*
X120156714Y-77297190D01*
X120204333Y-77344809D01*
X120299571Y-77392428D01*
X120490047Y-77392428D01*
X120585285Y-77344809D01*
X120632904Y-77297190D01*
X120680523Y-77201952D01*
X150102380Y-93242857D02*
X149626190Y-93576190D01*
X150102380Y-93814285D02*
X149102380Y-93814285D01*
X149102380Y-93433333D01*
X149150000Y-93338095D01*
X149197619Y-93290476D01*
X149292857Y-93242857D01*
X149435714Y-93242857D01*
X149530952Y-93290476D01*
X149578571Y-93338095D01*
X149626190Y-93433333D01*
X149626190Y-93814285D01*
X149102380Y-92338095D02*
X149102380Y-92814285D01*
X149578571Y-92861904D01*
X149530952Y-92814285D01*
X149483333Y-92719047D01*
X149483333Y-92480952D01*
X149530952Y-92385714D01*
X149578571Y-92338095D01*
X149673809Y-92290476D01*
X149911904Y-92290476D01*
X150007142Y-92338095D01*
X150054761Y-92385714D01*
X150102380Y-92480952D01*
X150102380Y-92719047D01*
X150054761Y-92814285D01*
X150007142Y-92861904D01*
X149102380Y-91957142D02*
X149102380Y-91338095D01*
X149483333Y-91671428D01*
X149483333Y-91528571D01*
X149530952Y-91433333D01*
X149578571Y-91385714D01*
X149673809Y-91338095D01*
X149911904Y-91338095D01*
X150007142Y-91385714D01*
X150054761Y-91433333D01*
X150102380Y-91528571D01*
X150102380Y-91814285D01*
X150054761Y-91909523D01*
X150007142Y-91957142D01*
X103357142Y-68152380D02*
X103023809Y-67676190D01*
X102785714Y-68152380D02*
X102785714Y-67152380D01*
X103166666Y-67152380D01*
X103261904Y-67200000D01*
X103309523Y-67247619D01*
X103357142Y-67342857D01*
X103357142Y-67485714D01*
X103309523Y-67580952D01*
X103261904Y-67628571D01*
X103166666Y-67676190D01*
X102785714Y-67676190D01*
X104261904Y-67152380D02*
X103785714Y-67152380D01*
X103738095Y-67628571D01*
X103785714Y-67580952D01*
X103880952Y-67533333D01*
X104119047Y-67533333D01*
X104214285Y-67580952D01*
X104261904Y-67628571D01*
X104309523Y-67723809D01*
X104309523Y-67961904D01*
X104261904Y-68057142D01*
X104214285Y-68104761D01*
X104119047Y-68152380D01*
X103880952Y-68152380D01*
X103785714Y-68104761D01*
X103738095Y-68057142D01*
X104690476Y-67247619D02*
X104738095Y-67200000D01*
X104833333Y-67152380D01*
X105071428Y-67152380D01*
X105166666Y-67200000D01*
X105214285Y-67247619D01*
X105261904Y-67342857D01*
X105261904Y-67438095D01*
X105214285Y-67580952D01*
X104642857Y-68152380D01*
X105261904Y-68152380D01*
X195157142Y-68152380D02*
X194823809Y-67676190D01*
X194585714Y-68152380D02*
X194585714Y-67152380D01*
X194966666Y-67152380D01*
X195061904Y-67200000D01*
X195109523Y-67247619D01*
X195157142Y-67342857D01*
X195157142Y-67485714D01*
X195109523Y-67580952D01*
X195061904Y-67628571D01*
X194966666Y-67676190D01*
X194585714Y-67676190D01*
X196061904Y-67152380D02*
X195585714Y-67152380D01*
X195538095Y-67628571D01*
X195585714Y-67580952D01*
X195680952Y-67533333D01*
X195919047Y-67533333D01*
X196014285Y-67580952D01*
X196061904Y-67628571D01*
X196109523Y-67723809D01*
X196109523Y-67961904D01*
X196061904Y-68057142D01*
X196014285Y-68104761D01*
X195919047Y-68152380D01*
X195680952Y-68152380D01*
X195585714Y-68104761D01*
X195538095Y-68057142D01*
X197061904Y-68152380D02*
X196490476Y-68152380D01*
X196776190Y-68152380D02*
X196776190Y-67152380D01*
X196680952Y-67295238D01*
X196585714Y-67390476D01*
X196490476Y-67438095D01*
X150487142Y-147264380D02*
X150153809Y-146788190D01*
X149915714Y-147264380D02*
X149915714Y-146264380D01*
X150296666Y-146264380D01*
X150391904Y-146312000D01*
X150439523Y-146359619D01*
X150487142Y-146454857D01*
X150487142Y-146597714D01*
X150439523Y-146692952D01*
X150391904Y-146740571D01*
X150296666Y-146788190D01*
X149915714Y-146788190D01*
X151391904Y-146264380D02*
X150915714Y-146264380D01*
X150868095Y-146740571D01*
X150915714Y-146692952D01*
X151010952Y-146645333D01*
X151249047Y-146645333D01*
X151344285Y-146692952D01*
X151391904Y-146740571D01*
X151439523Y-146835809D01*
X151439523Y-147073904D01*
X151391904Y-147169142D01*
X151344285Y-147216761D01*
X151249047Y-147264380D01*
X151010952Y-147264380D01*
X150915714Y-147216761D01*
X150868095Y-147169142D01*
X152058571Y-146264380D02*
X152153809Y-146264380D01*
X152249047Y-146312000D01*
X152296666Y-146359619D01*
X152344285Y-146454857D01*
X152391904Y-146645333D01*
X152391904Y-146883428D01*
X152344285Y-147073904D01*
X152296666Y-147169142D01*
X152249047Y-147216761D01*
X152153809Y-147264380D01*
X152058571Y-147264380D01*
X151963333Y-147216761D01*
X151915714Y-147169142D01*
X151868095Y-147073904D01*
X151820476Y-146883428D01*
X151820476Y-146645333D01*
X151868095Y-146454857D01*
X151915714Y-146359619D01*
X151963333Y-146312000D01*
X152058571Y-146264380D01*
X150487142Y-144216380D02*
X150153809Y-143740190D01*
X149915714Y-144216380D02*
X149915714Y-143216380D01*
X150296666Y-143216380D01*
X150391904Y-143264000D01*
X150439523Y-143311619D01*
X150487142Y-143406857D01*
X150487142Y-143549714D01*
X150439523Y-143644952D01*
X150391904Y-143692571D01*
X150296666Y-143740190D01*
X149915714Y-143740190D01*
X151344285Y-143549714D02*
X151344285Y-144216380D01*
X151106190Y-143168761D02*
X150868095Y-143883047D01*
X151487142Y-143883047D01*
X151915714Y-144216380D02*
X152106190Y-144216380D01*
X152201428Y-144168761D01*
X152249047Y-144121142D01*
X152344285Y-143978285D01*
X152391904Y-143787809D01*
X152391904Y-143406857D01*
X152344285Y-143311619D01*
X152296666Y-143264000D01*
X152201428Y-143216380D01*
X152010952Y-143216380D01*
X151915714Y-143264000D01*
X151868095Y-143311619D01*
X151820476Y-143406857D01*
X151820476Y-143644952D01*
X151868095Y-143740190D01*
X151915714Y-143787809D01*
X152010952Y-143835428D01*
X152201428Y-143835428D01*
X152296666Y-143787809D01*
X152344285Y-143740190D01*
X152391904Y-143644952D01*
X150487142Y-141168380D02*
X150153809Y-140692190D01*
X149915714Y-141168380D02*
X149915714Y-140168380D01*
X150296666Y-140168380D01*
X150391904Y-140216000D01*
X150439523Y-140263619D01*
X150487142Y-140358857D01*
X150487142Y-140501714D01*
X150439523Y-140596952D01*
X150391904Y-140644571D01*
X150296666Y-140692190D01*
X149915714Y-140692190D01*
X151344285Y-140501714D02*
X151344285Y-141168380D01*
X151106190Y-140120761D02*
X150868095Y-140835047D01*
X151487142Y-140835047D01*
X152010952Y-140596952D02*
X151915714Y-140549333D01*
X151868095Y-140501714D01*
X151820476Y-140406476D01*
X151820476Y-140358857D01*
X151868095Y-140263619D01*
X151915714Y-140216000D01*
X152010952Y-140168380D01*
X152201428Y-140168380D01*
X152296666Y-140216000D01*
X152344285Y-140263619D01*
X152391904Y-140358857D01*
X152391904Y-140406476D01*
X152344285Y-140501714D01*
X152296666Y-140549333D01*
X152201428Y-140596952D01*
X152010952Y-140596952D01*
X151915714Y-140644571D01*
X151868095Y-140692190D01*
X151820476Y-140787428D01*
X151820476Y-140977904D01*
X151868095Y-141073142D01*
X151915714Y-141120761D01*
X152010952Y-141168380D01*
X152201428Y-141168380D01*
X152296666Y-141120761D01*
X152344285Y-141073142D01*
X152391904Y-140977904D01*
X152391904Y-140787428D01*
X152344285Y-140692190D01*
X152296666Y-140644571D01*
X152201428Y-140596952D01*
X150487142Y-138374380D02*
X150153809Y-137898190D01*
X149915714Y-138374380D02*
X149915714Y-137374380D01*
X150296666Y-137374380D01*
X150391904Y-137422000D01*
X150439523Y-137469619D01*
X150487142Y-137564857D01*
X150487142Y-137707714D01*
X150439523Y-137802952D01*
X150391904Y-137850571D01*
X150296666Y-137898190D01*
X149915714Y-137898190D01*
X151344285Y-137707714D02*
X151344285Y-138374380D01*
X151106190Y-137326761D02*
X150868095Y-138041047D01*
X151487142Y-138041047D01*
X151772857Y-137374380D02*
X152439523Y-137374380D01*
X152010952Y-138374380D01*
X150455333Y-135199380D02*
X150122000Y-134723190D01*
X149883904Y-135199380D02*
X149883904Y-134199380D01*
X150264857Y-134199380D01*
X150360095Y-134247000D01*
X150407714Y-134294619D01*
X150455333Y-134389857D01*
X150455333Y-134532714D01*
X150407714Y-134627952D01*
X150360095Y-134675571D01*
X150264857Y-134723190D01*
X149883904Y-134723190D01*
X151407714Y-135199380D02*
X150836285Y-135199380D01*
X151122000Y-135199380D02*
X151122000Y-134199380D01*
X151026761Y-134342238D01*
X150931523Y-134437476D01*
X150836285Y-134485095D01*
X150102380Y-97614285D02*
X149102380Y-97614285D01*
X149102380Y-97376190D01*
X149150000Y-97233333D01*
X149245238Y-97138095D01*
X149340476Y-97090476D01*
X149530952Y-97042857D01*
X149673809Y-97042857D01*
X149864285Y-97090476D01*
X149959523Y-97138095D01*
X150054761Y-97233333D01*
X150102380Y-97376190D01*
X150102380Y-97614285D01*
X149102380Y-96709523D02*
X149102380Y-96090476D01*
X149483333Y-96423809D01*
X149483333Y-96280952D01*
X149530952Y-96185714D01*
X149578571Y-96138095D01*
X149673809Y-96090476D01*
X149911904Y-96090476D01*
X150007142Y-96138095D01*
X150054761Y-96185714D01*
X150102380Y-96280952D01*
X150102380Y-96566666D01*
X150054761Y-96661904D01*
X150007142Y-96709523D01*
X149102380Y-95757142D02*
X149102380Y-95090476D01*
X150102380Y-95519047D01*
X102785714Y-73852380D02*
X102785714Y-72852380D01*
X103023809Y-72852380D01*
X103166666Y-72900000D01*
X103261904Y-72995238D01*
X103309523Y-73090476D01*
X103357142Y-73280952D01*
X103357142Y-73423809D01*
X103309523Y-73614285D01*
X103261904Y-73709523D01*
X103166666Y-73804761D01*
X103023809Y-73852380D01*
X102785714Y-73852380D01*
X103690476Y-72852380D02*
X104309523Y-72852380D01*
X103976190Y-73233333D01*
X104119047Y-73233333D01*
X104214285Y-73280952D01*
X104261904Y-73328571D01*
X104309523Y-73423809D01*
X104309523Y-73661904D01*
X104261904Y-73757142D01*
X104214285Y-73804761D01*
X104119047Y-73852380D01*
X103833333Y-73852380D01*
X103738095Y-73804761D01*
X103690476Y-73757142D01*
X105166666Y-72852380D02*
X104976190Y-72852380D01*
X104880952Y-72900000D01*
X104833333Y-72947619D01*
X104738095Y-73090476D01*
X104690476Y-73280952D01*
X104690476Y-73661904D01*
X104738095Y-73757142D01*
X104785714Y-73804761D01*
X104880952Y-73852380D01*
X105071428Y-73852380D01*
X105166666Y-73804761D01*
X105214285Y-73757142D01*
X105261904Y-73661904D01*
X105261904Y-73423809D01*
X105214285Y-73328571D01*
X105166666Y-73280952D01*
X105071428Y-73233333D01*
X104880952Y-73233333D01*
X104785714Y-73280952D01*
X104738095Y-73328571D01*
X104690476Y-73423809D01*
X194785714Y-73652380D02*
X194785714Y-72652380D01*
X195023809Y-72652380D01*
X195166666Y-72700000D01*
X195261904Y-72795238D01*
X195309523Y-72890476D01*
X195357142Y-73080952D01*
X195357142Y-73223809D01*
X195309523Y-73414285D01*
X195261904Y-73509523D01*
X195166666Y-73604761D01*
X195023809Y-73652380D01*
X194785714Y-73652380D01*
X195690476Y-72652380D02*
X196309523Y-72652380D01*
X195976190Y-73033333D01*
X196119047Y-73033333D01*
X196214285Y-73080952D01*
X196261904Y-73128571D01*
X196309523Y-73223809D01*
X196309523Y-73461904D01*
X196261904Y-73557142D01*
X196214285Y-73604761D01*
X196119047Y-73652380D01*
X195833333Y-73652380D01*
X195738095Y-73604761D01*
X195690476Y-73557142D01*
X197214285Y-72652380D02*
X196738095Y-72652380D01*
X196690476Y-73128571D01*
X196738095Y-73080952D01*
X196833333Y-73033333D01*
X197071428Y-73033333D01*
X197166666Y-73080952D01*
X197214285Y-73128571D01*
X197261904Y-73223809D01*
X197261904Y-73461904D01*
X197214285Y-73557142D01*
X197166666Y-73604761D01*
X197071428Y-73652380D01*
X196833333Y-73652380D01*
X196738095Y-73604761D01*
X196690476Y-73557142D01*
X142676714Y-148914380D02*
X142676714Y-147914380D01*
X142914809Y-147914380D01*
X143057666Y-147962000D01*
X143152904Y-148057238D01*
X143200523Y-148152476D01*
X143248142Y-148342952D01*
X143248142Y-148485809D01*
X143200523Y-148676285D01*
X143152904Y-148771523D01*
X143057666Y-148866761D01*
X142914809Y-148914380D01*
X142676714Y-148914380D01*
X143581476Y-147914380D02*
X144200523Y-147914380D01*
X143867190Y-148295333D01*
X144010047Y-148295333D01*
X144105285Y-148342952D01*
X144152904Y-148390571D01*
X144200523Y-148485809D01*
X144200523Y-148723904D01*
X144152904Y-148819142D01*
X144105285Y-148866761D01*
X144010047Y-148914380D01*
X143724333Y-148914380D01*
X143629095Y-148866761D01*
X143581476Y-148819142D01*
X145057666Y-148247714D02*
X145057666Y-148914380D01*
X144819571Y-147866761D02*
X144581476Y-148581047D01*
X145200523Y-148581047D01*
X134157142Y-124614142D02*
X134109523Y-124661761D01*
X133966666Y-124709380D01*
X133871428Y-124709380D01*
X133728571Y-124661761D01*
X133633333Y-124566523D01*
X133585714Y-124471285D01*
X133538095Y-124280809D01*
X133538095Y-124137952D01*
X133585714Y-123947476D01*
X133633333Y-123852238D01*
X133728571Y-123757000D01*
X133871428Y-123709380D01*
X133966666Y-123709380D01*
X134109523Y-123757000D01*
X134157142Y-123804619D01*
X135109523Y-124709380D02*
X134538095Y-124709380D01*
X134823809Y-124709380D02*
X134823809Y-123709380D01*
X134728571Y-123852238D01*
X134633333Y-123947476D01*
X134538095Y-123995095D01*
X135442857Y-123709380D02*
X136061904Y-123709380D01*
X135728571Y-124090333D01*
X135871428Y-124090333D01*
X135966666Y-124137952D01*
X136014285Y-124185571D01*
X136061904Y-124280809D01*
X136061904Y-124518904D01*
X136014285Y-124614142D01*
X135966666Y-124661761D01*
X135871428Y-124709380D01*
X135585714Y-124709380D01*
X135490476Y-124661761D01*
X135442857Y-124614142D01*
X125959142Y-81742142D02*
X125911523Y-81789761D01*
X125768666Y-81837380D01*
X125673428Y-81837380D01*
X125530571Y-81789761D01*
X125435333Y-81694523D01*
X125387714Y-81599285D01*
X125340095Y-81408809D01*
X125340095Y-81265952D01*
X125387714Y-81075476D01*
X125435333Y-80980238D01*
X125530571Y-80885000D01*
X125673428Y-80837380D01*
X125768666Y-80837380D01*
X125911523Y-80885000D01*
X125959142Y-80932619D01*
X126911523Y-81837380D02*
X126340095Y-81837380D01*
X126625809Y-81837380D02*
X126625809Y-80837380D01*
X126530571Y-80980238D01*
X126435333Y-81075476D01*
X126340095Y-81123095D01*
X127292476Y-80932619D02*
X127340095Y-80885000D01*
X127435333Y-80837380D01*
X127673428Y-80837380D01*
X127768666Y-80885000D01*
X127816285Y-80932619D01*
X127863904Y-81027857D01*
X127863904Y-81123095D01*
X127816285Y-81265952D01*
X127244857Y-81837380D01*
X127863904Y-81837380D01*
X140707142Y-84566666D02*
X140754761Y-84614285D01*
X140802380Y-84757142D01*
X140802380Y-84852380D01*
X140754761Y-84995238D01*
X140659523Y-85090476D01*
X140564285Y-85138095D01*
X140373809Y-85185714D01*
X140230952Y-85185714D01*
X140040476Y-85138095D01*
X139945238Y-85090476D01*
X139850000Y-84995238D01*
X139802380Y-84852380D01*
X139802380Y-84757142D01*
X139850000Y-84614285D01*
X139897619Y-84566666D01*
X140802380Y-84090476D02*
X140802380Y-83900000D01*
X140754761Y-83804761D01*
X140707142Y-83757142D01*
X140564285Y-83661904D01*
X140373809Y-83614285D01*
X139992857Y-83614285D01*
X139897619Y-83661904D01*
X139850000Y-83709523D01*
X139802380Y-83804761D01*
X139802380Y-83995238D01*
X139850000Y-84090476D01*
X139897619Y-84138095D01*
X139992857Y-84185714D01*
X140230952Y-84185714D01*
X140326190Y-84138095D01*
X140373809Y-84090476D01*
X140421428Y-83995238D01*
X140421428Y-83804761D01*
X140373809Y-83709523D01*
X140326190Y-83661904D01*
X140230952Y-83614285D01*
X149665142Y-123972666D02*
X149712761Y-124020285D01*
X149760380Y-124163142D01*
X149760380Y-124258380D01*
X149712761Y-124401238D01*
X149617523Y-124496476D01*
X149522285Y-124544095D01*
X149331809Y-124591714D01*
X149188952Y-124591714D01*
X148998476Y-124544095D01*
X148903238Y-124496476D01*
X148808000Y-124401238D01*
X148760380Y-124258380D01*
X148760380Y-124163142D01*
X148808000Y-124020285D01*
X148855619Y-123972666D01*
X149188952Y-123401238D02*
X149141333Y-123496476D01*
X149093714Y-123544095D01*
X148998476Y-123591714D01*
X148950857Y-123591714D01*
X148855619Y-123544095D01*
X148808000Y-123496476D01*
X148760380Y-123401238D01*
X148760380Y-123210761D01*
X148808000Y-123115523D01*
X148855619Y-123067904D01*
X148950857Y-123020285D01*
X148998476Y-123020285D01*
X149093714Y-123067904D01*
X149141333Y-123115523D01*
X149188952Y-123210761D01*
X149188952Y-123401238D01*
X149236571Y-123496476D01*
X149284190Y-123544095D01*
X149379428Y-123591714D01*
X149569904Y-123591714D01*
X149665142Y-123544095D01*
X149712761Y-123496476D01*
X149760380Y-123401238D01*
X149760380Y-123210761D01*
X149712761Y-123115523D01*
X149665142Y-123067904D01*
X149569904Y-123020285D01*
X149379428Y-123020285D01*
X149284190Y-123067904D01*
X149236571Y-123115523D01*
X149188952Y-123210761D01*
X102007142Y-134916666D02*
X102054761Y-134964285D01*
X102102380Y-135107142D01*
X102102380Y-135202380D01*
X102054761Y-135345238D01*
X101959523Y-135440476D01*
X101864285Y-135488095D01*
X101673809Y-135535714D01*
X101530952Y-135535714D01*
X101340476Y-135488095D01*
X101245238Y-135440476D01*
X101150000Y-135345238D01*
X101102380Y-135202380D01*
X101102380Y-135107142D01*
X101150000Y-134964285D01*
X101197619Y-134916666D01*
X101102380Y-134583333D02*
X101102380Y-133916666D01*
X102102380Y-134345238D01*
X167038095Y-92952380D02*
X167038095Y-93761904D01*
X167085714Y-93857142D01*
X167133333Y-93904761D01*
X167228571Y-93952380D01*
X167419047Y-93952380D01*
X167514285Y-93904761D01*
X167561904Y-93857142D01*
X167609523Y-93761904D01*
X167609523Y-92952380D01*
X168514285Y-93285714D02*
X168514285Y-93952380D01*
X168276190Y-92904761D02*
X168038095Y-93619047D01*
X168657142Y-93619047D01*
X117666666Y-132952380D02*
X117666666Y-133666666D01*
X117619047Y-133809523D01*
X117523809Y-133904761D01*
X117380952Y-133952380D01*
X117285714Y-133952380D01*
X118571428Y-133285714D02*
X118571428Y-133952380D01*
X118333333Y-132904761D02*
X118095238Y-133619047D01*
X118714285Y-133619047D01*
X156052380Y-143642857D02*
X155576190Y-143976190D01*
X156052380Y-144214285D02*
X155052380Y-144214285D01*
X155052380Y-143833333D01*
X155100000Y-143738095D01*
X155147619Y-143690476D01*
X155242857Y-143642857D01*
X155385714Y-143642857D01*
X155480952Y-143690476D01*
X155528571Y-143738095D01*
X155576190Y-143833333D01*
X155576190Y-144214285D01*
X155385714Y-142785714D02*
X156052380Y-142785714D01*
X155004761Y-143023809D02*
X155719047Y-143261904D01*
X155719047Y-142642857D01*
X155052380Y-141833333D02*
X155052380Y-142023809D01*
X155100000Y-142119047D01*
X155147619Y-142166666D01*
X155290476Y-142261904D01*
X155480952Y-142309523D01*
X155861904Y-142309523D01*
X155957142Y-142261904D01*
X156004761Y-142214285D01*
X156052380Y-142119047D01*
X156052380Y-141928571D01*
X156004761Y-141833333D01*
X155957142Y-141785714D01*
X155861904Y-141738095D01*
X155623809Y-141738095D01*
X155528571Y-141785714D01*
X155480952Y-141833333D01*
X155433333Y-141928571D01*
X155433333Y-142119047D01*
X155480952Y-142214285D01*
X155528571Y-142261904D01*
X155623809Y-142309523D01*
X177452380Y-143642857D02*
X176976190Y-143976190D01*
X177452380Y-144214285D02*
X176452380Y-144214285D01*
X176452380Y-143833333D01*
X176500000Y-143738095D01*
X176547619Y-143690476D01*
X176642857Y-143642857D01*
X176785714Y-143642857D01*
X176880952Y-143690476D01*
X176928571Y-143738095D01*
X176976190Y-143833333D01*
X176976190Y-144214285D01*
X176452380Y-143309523D02*
X176452380Y-142690476D01*
X176833333Y-143023809D01*
X176833333Y-142880952D01*
X176880952Y-142785714D01*
X176928571Y-142738095D01*
X177023809Y-142690476D01*
X177261904Y-142690476D01*
X177357142Y-142738095D01*
X177404761Y-142785714D01*
X177452380Y-142880952D01*
X177452380Y-143166666D01*
X177404761Y-143261904D01*
X177357142Y-143309523D01*
X177452380Y-142214285D02*
X177452380Y-142023809D01*
X177404761Y-141928571D01*
X177357142Y-141880952D01*
X177214285Y-141785714D01*
X177023809Y-141738095D01*
X176642857Y-141738095D01*
X176547619Y-141785714D01*
X176500000Y-141833333D01*
X176452380Y-141928571D01*
X176452380Y-142119047D01*
X176500000Y-142214285D01*
X176547619Y-142261904D01*
X176642857Y-142309523D01*
X176880952Y-142309523D01*
X176976190Y-142261904D01*
X177023809Y-142214285D01*
X177071428Y-142119047D01*
X177071428Y-141928571D01*
X177023809Y-141833333D01*
X176976190Y-141785714D01*
X176880952Y-141738095D01*
X169833333Y-79507142D02*
X169785714Y-79554761D01*
X169642857Y-79602380D01*
X169547619Y-79602380D01*
X169404761Y-79554761D01*
X169309523Y-79459523D01*
X169261904Y-79364285D01*
X169214285Y-79173809D01*
X169214285Y-79030952D01*
X169261904Y-78840476D01*
X169309523Y-78745238D01*
X169404761Y-78650000D01*
X169547619Y-78602380D01*
X169642857Y-78602380D01*
X169785714Y-78650000D01*
X169833333Y-78697619D01*
X170214285Y-78697619D02*
X170261904Y-78650000D01*
X170357142Y-78602380D01*
X170595238Y-78602380D01*
X170690476Y-78650000D01*
X170738095Y-78697619D01*
X170785714Y-78792857D01*
X170785714Y-78888095D01*
X170738095Y-79030952D01*
X170166666Y-79602380D01*
X170785714Y-79602380D01*
X165253333Y-114400142D02*
X165205714Y-114447761D01*
X165062857Y-114495380D01*
X164967619Y-114495380D01*
X164824761Y-114447761D01*
X164729523Y-114352523D01*
X164681904Y-114257285D01*
X164634285Y-114066809D01*
X164634285Y-113923952D01*
X164681904Y-113733476D01*
X164729523Y-113638238D01*
X164824761Y-113543000D01*
X164967619Y-113495380D01*
X165062857Y-113495380D01*
X165205714Y-113543000D01*
X165253333Y-113590619D01*
X165586666Y-113495380D02*
X166205714Y-113495380D01*
X165872380Y-113876333D01*
X166015238Y-113876333D01*
X166110476Y-113923952D01*
X166158095Y-113971571D01*
X166205714Y-114066809D01*
X166205714Y-114304904D01*
X166158095Y-114400142D01*
X166110476Y-114447761D01*
X166015238Y-114495380D01*
X165729523Y-114495380D01*
X165634285Y-114447761D01*
X165586666Y-114400142D01*
X106707142Y-134666666D02*
X106754761Y-134714285D01*
X106802380Y-134857142D01*
X106802380Y-134952380D01*
X106754761Y-135095238D01*
X106659523Y-135190476D01*
X106564285Y-135238095D01*
X106373809Y-135285714D01*
X106230952Y-135285714D01*
X106040476Y-135238095D01*
X105945238Y-135190476D01*
X105850000Y-135095238D01*
X105802380Y-134952380D01*
X105802380Y-134857142D01*
X105850000Y-134714285D01*
X105897619Y-134666666D01*
X106135714Y-133809523D02*
X106802380Y-133809523D01*
X105754761Y-134047619D02*
X106469047Y-134285714D01*
X106469047Y-133666666D01*
X179733333Y-123894642D02*
X179685714Y-123942261D01*
X179542857Y-123989880D01*
X179447619Y-123989880D01*
X179304761Y-123942261D01*
X179209523Y-123847023D01*
X179161904Y-123751785D01*
X179114285Y-123561309D01*
X179114285Y-123418452D01*
X179161904Y-123227976D01*
X179209523Y-123132738D01*
X179304761Y-123037500D01*
X179447619Y-122989880D01*
X179542857Y-122989880D01*
X179685714Y-123037500D01*
X179733333Y-123085119D01*
X180638095Y-122989880D02*
X180161904Y-122989880D01*
X180114285Y-123466071D01*
X180161904Y-123418452D01*
X180257142Y-123370833D01*
X180495238Y-123370833D01*
X180590476Y-123418452D01*
X180638095Y-123466071D01*
X180685714Y-123561309D01*
X180685714Y-123799404D01*
X180638095Y-123894642D01*
X180590476Y-123942261D01*
X180495238Y-123989880D01*
X180257142Y-123989880D01*
X180161904Y-123942261D01*
X180114285Y-123894642D01*
X165033333Y-124457142D02*
X164985714Y-124504761D01*
X164842857Y-124552380D01*
X164747619Y-124552380D01*
X164604761Y-124504761D01*
X164509523Y-124409523D01*
X164461904Y-124314285D01*
X164414285Y-124123809D01*
X164414285Y-123980952D01*
X164461904Y-123790476D01*
X164509523Y-123695238D01*
X164604761Y-123600000D01*
X164747619Y-123552380D01*
X164842857Y-123552380D01*
X164985714Y-123600000D01*
X165033333Y-123647619D01*
X165890476Y-123552380D02*
X165700000Y-123552380D01*
X165604761Y-123600000D01*
X165557142Y-123647619D01*
X165461904Y-123790476D01*
X165414285Y-123980952D01*
X165414285Y-124361904D01*
X165461904Y-124457142D01*
X165509523Y-124504761D01*
X165604761Y-124552380D01*
X165795238Y-124552380D01*
X165890476Y-124504761D01*
X165938095Y-124457142D01*
X165985714Y-124361904D01*
X165985714Y-124123809D01*
X165938095Y-124028571D01*
X165890476Y-123980952D01*
X165795238Y-123933333D01*
X165604761Y-123933333D01*
X165509523Y-123980952D01*
X165461904Y-124028571D01*
X165414285Y-124123809D01*
X132991904Y-133239380D02*
X132991904Y-132239380D01*
X133230000Y-132239380D01*
X133372857Y-132287000D01*
X133468095Y-132382238D01*
X133515714Y-132477476D01*
X133563333Y-132667952D01*
X133563333Y-132810809D01*
X133515714Y-133001285D01*
X133468095Y-133096523D01*
X133372857Y-133191761D01*
X133230000Y-133239380D01*
X132991904Y-133239380D01*
X134515714Y-133239380D02*
X133944285Y-133239380D01*
X134230000Y-133239380D02*
X134230000Y-132239380D01*
X134134761Y-132382238D01*
X134039523Y-132477476D01*
X133944285Y-132525095D01*
X132891904Y-149039380D02*
X132891904Y-148039380D01*
X133130000Y-148039380D01*
X133272857Y-148087000D01*
X133368095Y-148182238D01*
X133415714Y-148277476D01*
X133463333Y-148467952D01*
X133463333Y-148610809D01*
X133415714Y-148801285D01*
X133368095Y-148896523D01*
X133272857Y-148991761D01*
X133130000Y-149039380D01*
X132891904Y-149039380D01*
X134368095Y-148039380D02*
X133891904Y-148039380D01*
X133844285Y-148515571D01*
X133891904Y-148467952D01*
X133987142Y-148420333D01*
X134225238Y-148420333D01*
X134320476Y-148467952D01*
X134368095Y-148515571D01*
X134415714Y-148610809D01*
X134415714Y-148848904D01*
X134368095Y-148944142D01*
X134320476Y-148991761D01*
X134225238Y-149039380D01*
X133987142Y-149039380D01*
X133891904Y-148991761D01*
X133844285Y-148944142D01*
X126263333Y-135339380D02*
X125930000Y-134863190D01*
X125691904Y-135339380D02*
X125691904Y-134339380D01*
X126072857Y-134339380D01*
X126168095Y-134387000D01*
X126215714Y-134434619D01*
X126263333Y-134529857D01*
X126263333Y-134672714D01*
X126215714Y-134767952D01*
X126168095Y-134815571D01*
X126072857Y-134863190D01*
X125691904Y-134863190D01*
X126644285Y-134434619D02*
X126691904Y-134387000D01*
X126787142Y-134339380D01*
X127025238Y-134339380D01*
X127120476Y-134387000D01*
X127168095Y-134434619D01*
X127215714Y-134529857D01*
X127215714Y-134625095D01*
X127168095Y-134767952D01*
X126596666Y-135339380D01*
X127215714Y-135339380D01*
X126263333Y-138239380D02*
X125930000Y-137763190D01*
X125691904Y-138239380D02*
X125691904Y-137239380D01*
X126072857Y-137239380D01*
X126168095Y-137287000D01*
X126215714Y-137334619D01*
X126263333Y-137429857D01*
X126263333Y-137572714D01*
X126215714Y-137667952D01*
X126168095Y-137715571D01*
X126072857Y-137763190D01*
X125691904Y-137763190D01*
X126596666Y-137239380D02*
X127215714Y-137239380D01*
X126882380Y-137620333D01*
X127025238Y-137620333D01*
X127120476Y-137667952D01*
X127168095Y-137715571D01*
X127215714Y-137810809D01*
X127215714Y-138048904D01*
X127168095Y-138144142D01*
X127120476Y-138191761D01*
X127025238Y-138239380D01*
X126739523Y-138239380D01*
X126644285Y-138191761D01*
X126596666Y-138144142D01*
X126263333Y-141239380D02*
X125930000Y-140763190D01*
X125691904Y-141239380D02*
X125691904Y-140239380D01*
X126072857Y-140239380D01*
X126168095Y-140287000D01*
X126215714Y-140334619D01*
X126263333Y-140429857D01*
X126263333Y-140572714D01*
X126215714Y-140667952D01*
X126168095Y-140715571D01*
X126072857Y-140763190D01*
X125691904Y-140763190D01*
X127120476Y-140572714D02*
X127120476Y-141239380D01*
X126882380Y-140191761D02*
X126644285Y-140906047D01*
X127263333Y-140906047D01*
X126263333Y-144239380D02*
X125930000Y-143763190D01*
X125691904Y-144239380D02*
X125691904Y-143239380D01*
X126072857Y-143239380D01*
X126168095Y-143287000D01*
X126215714Y-143334619D01*
X126263333Y-143429857D01*
X126263333Y-143572714D01*
X126215714Y-143667952D01*
X126168095Y-143715571D01*
X126072857Y-143763190D01*
X125691904Y-143763190D01*
X127168095Y-143239380D02*
X126691904Y-143239380D01*
X126644285Y-143715571D01*
X126691904Y-143667952D01*
X126787142Y-143620333D01*
X127025238Y-143620333D01*
X127120476Y-143667952D01*
X127168095Y-143715571D01*
X127215714Y-143810809D01*
X127215714Y-144048904D01*
X127168095Y-144144142D01*
X127120476Y-144191761D01*
X127025238Y-144239380D01*
X126787142Y-144239380D01*
X126691904Y-144191761D01*
X126644285Y-144144142D01*
X126263333Y-147239380D02*
X125930000Y-146763190D01*
X125691904Y-147239380D02*
X125691904Y-146239380D01*
X126072857Y-146239380D01*
X126168095Y-146287000D01*
X126215714Y-146334619D01*
X126263333Y-146429857D01*
X126263333Y-146572714D01*
X126215714Y-146667952D01*
X126168095Y-146715571D01*
X126072857Y-146763190D01*
X125691904Y-146763190D01*
X127120476Y-146239380D02*
X126930000Y-146239380D01*
X126834761Y-146287000D01*
X126787142Y-146334619D01*
X126691904Y-146477476D01*
X126644285Y-146667952D01*
X126644285Y-147048904D01*
X126691904Y-147144142D01*
X126739523Y-147191761D01*
X126834761Y-147239380D01*
X127025238Y-147239380D01*
X127120476Y-147191761D01*
X127168095Y-147144142D01*
X127215714Y-147048904D01*
X127215714Y-146810809D01*
X127168095Y-146715571D01*
X127120476Y-146667952D01*
X127025238Y-146620333D01*
X126834761Y-146620333D01*
X126739523Y-146667952D01*
X126691904Y-146715571D01*
X126644285Y-146810809D01*
X176852380Y-134466666D02*
X176376190Y-134800000D01*
X176852380Y-135038095D02*
X175852380Y-135038095D01*
X175852380Y-134657142D01*
X175900000Y-134561904D01*
X175947619Y-134514285D01*
X176042857Y-134466666D01*
X176185714Y-134466666D01*
X176280952Y-134514285D01*
X176328571Y-134561904D01*
X176376190Y-134657142D01*
X176376190Y-135038095D01*
X175852380Y-134133333D02*
X175852380Y-133466666D01*
X176852380Y-133895238D01*
X197952380Y-134942857D02*
X197476190Y-135276190D01*
X197952380Y-135514285D02*
X196952380Y-135514285D01*
X196952380Y-135133333D01*
X197000000Y-135038095D01*
X197047619Y-134990476D01*
X197142857Y-134942857D01*
X197285714Y-134942857D01*
X197380952Y-134990476D01*
X197428571Y-135038095D01*
X197476190Y-135133333D01*
X197476190Y-135514285D01*
X197952380Y-133990476D02*
X197952380Y-134561904D01*
X197952380Y-134276190D02*
X196952380Y-134276190D01*
X197095238Y-134371428D01*
X197190476Y-134466666D01*
X197238095Y-134561904D01*
X197285714Y-133133333D02*
X197952380Y-133133333D01*
X196904761Y-133371428D02*
X197619047Y-133609523D01*
X197619047Y-132990476D01*
X160340095Y-108796380D02*
X160340095Y-109605904D01*
X160387714Y-109701142D01*
X160435333Y-109748761D01*
X160530571Y-109796380D01*
X160721047Y-109796380D01*
X160816285Y-109748761D01*
X160863904Y-109701142D01*
X160911523Y-109605904D01*
X160911523Y-108796380D01*
X161911523Y-109796380D02*
X161340095Y-109796380D01*
X161625809Y-109796380D02*
X161625809Y-108796380D01*
X161530571Y-108939238D01*
X161435333Y-109034476D01*
X161340095Y-109082095D01*
X130752380Y-95861904D02*
X131561904Y-95861904D01*
X131657142Y-95814285D01*
X131704761Y-95766666D01*
X131752380Y-95671428D01*
X131752380Y-95480952D01*
X131704761Y-95385714D01*
X131657142Y-95338095D01*
X131561904Y-95290476D01*
X130752380Y-95290476D01*
X130752380Y-94338095D02*
X130752380Y-94814285D01*
X131228571Y-94861904D01*
X131180952Y-94814285D01*
X131133333Y-94719047D01*
X131133333Y-94480952D01*
X131180952Y-94385714D01*
X131228571Y-94338095D01*
X131323809Y-94290476D01*
X131561904Y-94290476D01*
X131657142Y-94338095D01*
X131704761Y-94385714D01*
X131752380Y-94480952D01*
X131752380Y-94719047D01*
X131704761Y-94814285D01*
X131657142Y-94861904D01*
X173888095Y-118552380D02*
X173888095Y-119361904D01*
X173935714Y-119457142D01*
X173983333Y-119504761D01*
X174078571Y-119552380D01*
X174269047Y-119552380D01*
X174364285Y-119504761D01*
X174411904Y-119457142D01*
X174459523Y-119361904D01*
X174459523Y-118552380D01*
X174840476Y-118552380D02*
X175507142Y-118552380D01*
X175078571Y-119552380D01*
M02*
