M48
; DRILL file {KiCad (5.1.5-0-10_14)} date 2020 March 03, Tuesday 11:48:23
; FORMAT={-:-/ absolute / metric / decimal}
; #@! TF.CreationDate,2020-03-03T11:48:23+01:00
; #@! TF.GenerationSoftware,Kicad,Pcbnew,(5.1.5-0-10_14)
; #@! TF.FileFunction,Plated,1,2,PTH
FMAT,2
METRIC
T1C0.300
T2C0.500
T3C0.800
T4C1.000
%
G90
G05
T1
X113.4Y-120.0
X114.2Y-116.7
X114.2Y-123.0
X114.3Y-94.7
X114.8Y-90.6
X114.8Y-126.0
X115.4Y-117.2
X115.4Y-129.0
X115.6Y-85.1
X115.888Y-106.615
X115.9Y-107.9
X115.9Y-132.0
X116.3Y-95.8
X116.3Y-106.1
X116.6Y-64.4
X116.6Y-66.6
X117.3Y-98.7
X118.3Y-94.1
X118.3Y-105.6
X118.4Y-63.2
X118.4Y-66.6
X118.9Y-100.9
X118.9Y-129.6
X119.4Y-94.1
X119.4Y-101.4
X119.4Y-128.3
X119.9Y-127.0
X119.928Y-101.9
X120.2Y-94.6
X120.3Y-80.1
X120.4Y-102.48
X120.4Y-125.7
X120.6Y-65.0
X120.6Y-66.6
X120.9Y-124.6
X120.978Y-102.9
X121.4Y-123.2
X121.457Y-103.4
X121.9Y-85.8
X122.6Y-63.8
X122.6Y-66.6
X123.1Y-84.4
X123.2Y-74.1
X123.8Y-88.9
X123.9Y-91.9
X123.9Y-120.9
X124.0Y-103.9
X124.5Y-104.8
X124.5Y-93.0
X125.0Y-118.3
X125.1Y-96.3
X125.2Y-85.7
X125.5Y-81.4
X125.7Y-118.9
X126.0Y-104.4
X126.1Y-93.6
X126.4Y-65.4
X126.4Y-66.6
X126.6Y-86.3
X126.6Y-96.8
X127.0Y-103.9
X127.1Y-86.8
X127.1Y-97.4
X127.2Y-64.3
X127.5Y-103.4
X127.6Y-87.4
X127.6Y-98.0
X128.1Y-74.2
X128.1Y-87.9
X128.1Y-98.5
X128.1Y-102.9
X128.3Y-106.05
X128.3Y-118.8
X128.4Y-63.2
X128.6Y-64.4
X128.6Y-66.6
X128.6Y-88.4
X128.6Y-99.1
X128.7Y-102.4
X128.8Y-135.4
X129.0Y-75.7
X129.2Y-115.7
X129.6Y-86.2
X129.8Y-64.8
X130.1Y-124.4
X130.2Y-79.3
X130.2Y-92.5
X130.6Y-64.8
X130.6Y-66.6
X131.0Y-63.8
X131.0Y-81.2
X131.1Y-96.0
X131.2Y-75.8
X131.9Y-86.8
X132.1Y-102.5
X132.1Y-132.0
X132.2Y-66.0
X132.2Y-97.4
X132.525Y-66.575
X132.7Y-91.9
X132.7Y-128.3
X133.1Y-79.6
X133.4Y-65.4
X133.4Y-105.55
X133.4Y-118.8
X134.6Y-65.4
X134.6Y-66.6
X134.6Y-87.4
X135.0Y-64.3
X135.0Y-104.3
X135.0Y-121.0
X136.0Y-64.8
X136.1Y-66.5
X136.2Y-96.9
X136.5Y-90.6
X136.5Y-92.5
X136.6Y-124.8
X136.6Y-137.1
X137.1Y-87.8
X137.2Y-66.0
X137.2Y-123.1
X137.4Y-105.0
X137.8Y-106.5
X137.8Y-117.3
X137.8Y-129.5
X138.4Y-96.2
X138.4Y-124.2
X138.4Y-136.4
X138.6Y-65.4
X139.2Y-88.3
X139.5Y-102.5
X139.5Y-125.25
X139.825Y-65.9
X140.9Y-95.3
X140.9Y-123.7
X140.9Y-136.0
X141.0Y-66.4
X141.8Y-66.6
X142.3Y-99.076
X142.3Y-101.866
X142.6Y-66.6
X142.65Y-80.6
X142.7Y-88.9
X142.8Y-116.7
X142.8Y-127.0
X143.4Y-94.6
X143.4Y-123.2
X143.4Y-135.3
X144.5Y-88.4
X144.5Y-98.5
X144.5Y-101.4
X144.6Y-66.6
X145.9Y-94.1
X145.9Y-122.7
X145.9Y-133.7
X146.6Y-66.6
X146.8Y-100.9
X146.9Y-81.8
X146.9Y-97.9
X148.5Y-93.7
X148.5Y-122.2
X148.5Y-130.9
X149.9Y-85.2
X150.0Y-90.6
X151.0Y-93.1
X151.0Y-121.6
X151.0Y-132.1
X151.8Y-92.5
X151.8Y-106.0
X152.4Y-91.2
X152.4Y-105.5
X152.5Y-66.5
X153.1Y-85.7
X153.15Y-90.55
X153.5Y-76.0
X154.0Y-66.5
X154.1Y-82.7
X155.0Y-75.5
X155.1Y-83.4
X155.1Y-99.5
X155.1Y-100.8
X155.1Y-107.9
X155.5Y-66.5
X155.6Y-82.6
X155.6Y-93.8
X156.0Y-75.0
X156.2Y-101.4
X156.2Y-88.4
X156.5Y-66.5
X157.25Y-74.5
X157.5Y-66.0
X157.5Y-95.2
X157.6Y-103.9
X157.6Y-129.5
X158.75Y-74.0
X158.9Y-84.7
X158.9Y-93.1
X159.0Y-65.5
X159.4Y-82.0
X159.4Y-91.8
X159.6Y-125.25
X159.7Y-134.2
X160.0Y-78.5
X160.0Y-84.7
X160.0Y-100.0
X160.1Y-130.9
X160.344Y-66.199
X161.0Y-134.8
X161.1Y-124.75
X161.1Y-132.8
X161.25Y-79.0
X161.3Y-102.8
X161.5Y-65.0
X161.6Y-81.0
X161.8Y-92.5
X162.2Y-86.0
X162.2Y-91.9
X163.0Y-65.5
X163.0Y-66.5
X163.0Y-74.2
X163.6Y-132.2
X164.0Y-95.8
X164.2Y-124.25
X164.3Y-131.5
X164.6Y-88.4
X164.6Y-91.2
X164.7Y-123.75
X164.7Y-130.2
X164.8Y-93.1
X165.0Y-99.5
X165.2Y-133.4
X165.3Y-79.8
X166.05Y-123.25
X166.1Y-134.1
X166.5Y-80.5
X166.5Y-101.6
X166.7Y-122.75
X166.8Y-132.8
X167.0Y-65.0
X167.0Y-66.5
X167.1Y-130.8
X167.7Y-138.6
X168.7Y-128.6
X169.5Y-121.6
X169.5Y-130.2
X170.3Y-132.1
X170.8Y-122.0
X170.8Y-131.5
X172.9Y-133.4
X175.36Y-134.64
X177.9Y-125.0
X177.9Y-130.2
X180.5Y-125.0
X180.5Y-132.3
X182.5Y-129.0
X182.5Y-131.0
X183.0Y-125.0
X183.0Y-132.9
X184.7Y-136.3
X185.7Y-125.0
X185.7Y-134.9
X186.3Y-128.5
X186.4Y-131.6
X186.9Y-127.915
X186.9Y-133.6
X187.4Y-127.4
X187.5Y-134.2
X188.1Y-124.9
X188.1Y-134.8
X188.6Y-126.9
X188.6Y-134.2
X189.3Y-126.4
X189.4Y-133.5
X190.5Y-105.6
X190.6Y-125.0
X191.7Y-133.0
X192.1Y-125.4
X192.1Y-131.0
X192.6Y-125.9
X192.6Y-131.6
X193.1Y-124.9
X193.2Y-132.3
X194.4Y-135.5
X195.1Y-127.7
X195.7Y-124.9
X195.7Y-130.3
T2
X157.5Y-86.8
X162.2Y-83.3
X168.2Y-84.4
X184.5Y-52.6
T3
X101.46Y-84.46
X104.0Y-81.92
X104.0Y-87.0
T4
X118.0Y-77.5
X120.54Y-77.5
X123.08Y-77.5
X125.62Y-77.5
X128.16Y-77.5
X130.7Y-77.5
X133.24Y-77.5
X135.78Y-77.5
X138.32Y-77.5
X140.86Y-77.5
X143.4Y-77.5
X145.94Y-77.5
X148.48Y-77.5
X151.02Y-77.5
X153.56Y-77.5
X156.1Y-77.5
X177.9Y-119.2
X180.44Y-119.2
X182.98Y-119.2
X185.52Y-119.2
X188.06Y-119.2
X190.6Y-119.2
X193.14Y-119.2
X195.68Y-119.2
X157.58Y-119.2
X160.12Y-119.2
X162.66Y-119.2
X165.2Y-119.2
X167.74Y-119.2
X170.28Y-119.2
X172.82Y-119.2
X175.36Y-119.2
X125.87Y-58.46
X125.87Y-61.0
X128.41Y-58.46
X128.41Y-61.0
X130.95Y-58.46
X130.95Y-61.0
X133.49Y-58.46
X133.49Y-61.0
X136.03Y-58.46
X136.03Y-61.0
X138.57Y-58.46
X138.57Y-61.0
X141.11Y-58.46
X141.11Y-61.0
X143.65Y-58.46
X143.65Y-61.0
X146.19Y-58.46
X146.19Y-61.0
X148.73Y-58.46
X148.73Y-61.0
X151.27Y-58.46
X151.27Y-61.0
X153.81Y-58.46
X153.81Y-61.0
X156.35Y-58.46
X156.35Y-61.0
X158.89Y-58.46
X158.89Y-61.0
X161.43Y-58.46
X161.43Y-61.0
X163.97Y-58.46
X163.97Y-61.0
X166.51Y-58.46
X166.51Y-61.0
X169.05Y-58.46
X169.05Y-61.0
X171.59Y-58.46
X171.59Y-61.0
X174.13Y-58.46
X174.13Y-61.0
T3
G00X185.9Y-66.7
M15
G01X185.9Y-64.1
M16
G05
G00X190.0Y-60.6
M15
G01X187.8Y-60.6
M16
G05
G00X191.7Y-66.5
M15
G01X191.7Y-64.3
M16
G05
T0
M30
