M48
; DRILL file {KiCad (5.1.6-0-10_14)} date Saturday, December 19, 2020 at 03:42:00 PM
; FORMAT={-:-/ absolute / inch / decimal}
; #@! TF.CreationDate,2020-12-19T15:42:00+01:00
; #@! TF.GenerationSoftware,Kicad,Pcbnew,(5.1.6-0-10_14)
; #@! TF.FileFunction,Plated,1,2,PTH
FMAT,2
INCH
T1C0.0118
T2C0.0157
T3C0.0197
T4C0.0315
T5C0.0394
%
G90
G05
T1
X4.1457Y-4.6732
X4.1551Y-2.9315
X4.4724Y-3.063
X4.4724Y-3.2953
X4.4724Y-3.6732
X4.4882Y-3.0276
X4.4917Y-3.3346
X4.4917Y-3.5984
X4.5079Y-3.622
X4.511Y-3.3858
X4.5315Y-3.4449
X4.5315Y-3.6457
X4.5512Y-3.4882
X4.5512Y-3.6925
X4.5709Y-3.7126
X4.5709Y-3.5423
X4.5866Y-2.9134
X4.5902Y-3.5787
X4.5945Y-3.7319
X4.6102Y-3.8622
X4.6102Y-4.685
X4.6181Y-3.1886
X4.622Y-3.0197
X4.6378Y-3.5276
X4.6417Y-4.4213
X4.6535Y-3.2402
X4.6654Y-2.9134
X4.6732Y-4.311
X4.6863Y-2.9983
X4.6909Y-3.0807
X4.6949Y-3.5579
X4.6965Y-4.6024
X4.698Y-4.7272
X4.7165Y-4.6417
X4.7193Y-3.4106
X4.7244Y-2.9961
X4.7244Y-3.5315
X4.7438Y-3.2516
X4.7441Y-2.9134
X4.7441Y-4.6181
X4.7441Y-4.8898
X4.748Y-3.5787
X4.7501Y-3.0276
X4.7677Y-3.063
X4.7693Y-4.2582
X4.7913Y-3.2366
X4.8112Y-3.7728
X4.8189Y-3.0394
X4.8228Y-2.9134
X4.8268Y-3.752
X4.8465Y-3.7319
X4.847Y-3.792
X4.8622Y-2.9961
X4.8701Y-3.7126
X4.8701Y-3.8189
X4.8892Y-4.2358
X4.8937Y-3.6925
X4.8976Y-3.1299
X4.9016Y-2.9134
X4.9094Y-4.2165
X4.9173Y-3.6457
X4.9291Y-4.1969
X4.9331Y-4.5984
X4.937Y-3.5591
X4.9409Y-3.063
X4.9409Y-4.9606
X4.9553Y-3.4134
X4.9803Y-2.9134
X4.9882Y-4.1776
X4.9886Y-4.6417
X5.0014Y-4.1552
X5.0033Y-3.3941
X5.0055Y-4.6195
X5.0173Y-3.0378
X5.0197Y-3.5315
X5.0236Y-4.1339
X5.0433Y-3.6181
X5.0433Y-4.1039
X5.0591Y-2.9134
X5.063Y-3.598
X5.0689Y-4.0846
X5.0811Y-4.8874
X5.0866Y-3.5787
X5.0949Y-3.8425
X5.0984Y-4.9606
X5.1008Y-3.1276
X5.1024Y-4.7087
X5.1142Y-3.6732
X5.1378Y-2.9134
X5.1457Y-3.622
X5.1575Y-5.1063
X5.1772Y-3.6457
X5.1811Y-5.1579
X5.2047Y-5.189
X5.2087Y-4.8622
X5.2165Y-2.9134
X5.2165Y-3.3898
X5.2165Y-4.5472
X5.2323Y-4.8386
X5.2563Y-3.6925
X5.2953Y-2.9134
X5.2981Y-3.7728
X5.2992Y-3.0512
X5.3386Y-3.7126
X5.3465Y-4.5472
X5.3551Y-3.7984
X5.3583Y-3.0748
X5.3622Y-3.8425
X5.3657Y-4.5783
X5.374Y-2.9134
X5.3976Y-4.7087
X5.4138Y-3.7319
X5.4173Y-4.8346
X5.4173Y-5.0866
X5.4331Y-3.752
X5.437Y-4.2598
X5.4413Y-3.7791
X5.4528Y-2.9134
X5.4573Y-4.2791
X5.4606Y-3.7323
X5.4606Y-4.4213
X5.4646Y-3.7984
X5.4792Y-4.2984
X5.4839Y-3.819
X5.4843Y-3.7126
X5.5079Y-3.6929
X5.5117Y-4.2164
X5.5236Y-4.1772
X5.5236Y-4.8504
X5.5276Y-3.6457
X5.5315Y-2.9134
X5.5472Y-5.0669
X5.5512Y-3.5591
X5.5551Y-4.1457
X5.5669Y-3.0276
X5.5695Y-3.4094
X5.5709Y-5.087
X5.5787Y-5.189
X5.588Y-4.1291
X5.5984Y-4.878
X5.5984Y-4.9213
X5.5984Y-5.1579
X5.6102Y-2.9134
X5.6143Y-4.1185
X5.622Y-4.937
X5.626Y-4.8744
X5.626Y-5.1063
X5.6378Y-3.3898
X5.6378Y-3.5315
X5.6417Y-4.1024
X5.6496Y-4.6969
X5.6496Y-5.189
X5.6535Y-3.0551
X5.6614Y-3.626
X5.6614Y-4.4406
X5.667Y-4.0933
X5.6732Y-4.6693
X5.6732Y-5.1614
X5.6849Y-3.5825
X5.685Y-4.4803
X5.6874Y-4.0772
X5.689Y-2.9134
X5.6913Y-4.3189
X5.6929Y-4.8622
X5.6969Y-4.9409
X5.7008Y-3.5394
X5.7051Y-3.8386
X5.7087Y-4.2791
X5.7244Y-3.6732
X5.7244Y-4.9528
X5.7283Y-4.8386
X5.7307Y-4.2928
X5.7441Y-4.7165
X5.752Y-5.1063
X5.7638Y-4.4213
X5.7676Y-3.819
X5.7677Y-2.9134
X5.7756Y-4.7362
X5.8268Y-3.8937
X5.9238Y-4.0717
X5.9438Y-4.9585
X5.9528Y-4.0839
X5.961Y-4.9391
X5.9844Y-4.9278
X5.9857Y-4.1025
X6.0034Y-4.1214
X6.0063Y-4.9139
X6.0149Y-4.1448
X6.0224Y-4.8935
X6.0236Y-2.9134
X6.0432Y-4.8778
X6.0471Y-4.1657
X6.0664Y-4.8661
X6.0676Y-4.1891
X6.0868Y-4.8425
X6.0906Y-4.2087
X6.0945Y-3.8701
X6.1024Y-2.9134
X6.1063Y-4.6969
X6.1299Y-5.0669
X6.1354Y-4.4409
X6.1492Y-4.7126
X6.1575Y-4.3031
X6.1614Y-3.8858
X6.1811Y-2.9134
X6.1811Y-4.5161
X6.185Y-3.8386
X6.1945Y-4.9617
X6.2126Y-3.6969
X6.22Y-4.8988
X6.2369Y-3.713
X6.2402Y-4.8307
X6.2478Y-4.9508
X6.2555Y-3.7366
X6.2598Y-2.9134
X6.2677Y-4.6854
X6.2717Y-3.7598
X6.2795Y-3.2441
X6.2835Y-3.1614
X6.2841Y-4.8862
X6.29Y-3.7791
X6.2913Y-3.8661
X6.2913Y-4.4803
X6.2913Y-4.7283
X6.308Y-4.9359
X6.311Y-3.7984
X6.315Y-4.3031
X6.315Y-4.5161
X6.3269Y-3.819
X6.3352Y-4.8736
X6.3386Y-2.9134
X6.3415Y-4.7234
X6.3425Y-4.2598
X6.3425Y-4.5547
X6.3696Y-4.9293
X6.3701Y-4.437
X6.3701Y-4.4803
X6.3864Y-4.8656
X6.3898Y-4.2084
X6.3927Y-4.7077
X6.3937Y-4.4528
X6.3976Y-4.5472
X6.4173Y-2.9134
X6.4173Y-4.6854
X6.4567Y-4.1969
X6.4606Y-3.6535
X6.4961Y-2.9134
X6.5039Y-4.1693
X6.5079Y-3.4957
X6.5118Y-2.4921
X6.5472Y-4.8346
X6.5551Y-2.5114
X6.5551Y-3.4488
X6.5748Y-2.9134
X6.5752Y-4.7445
X6.6102Y-4.7323
X6.626Y-2.6575
X6.6353Y-4.7219
X6.6535Y-2.5307
X6.6575Y-4.1535
X6.6635Y-3.8404
X6.685Y-3.8622
X6.7087Y-4.5787
X6.7091Y-4.1343
X6.7126Y-2.5669
X6.7205Y-3.626
X6.7402Y-3.5787
X6.752Y-3.4764
X6.7559Y-4.1185
X6.7598Y-3.7126
X6.7638Y-3.5591
X6.7874Y-4.8035
X6.7874Y-4.9028
X6.7874Y-5.0433
X6.8117Y-4.912
X6.8228Y-4.1059
X6.8386Y-4.8902
X6.8386Y-4.9161
X6.8622Y-4.8071
X6.8661Y-5.0626
X6.878Y-2.5118
X6.878Y-3.2913
X6.8898Y-5.0819
X6.8936Y-4.8072
X6.8972Y-2.5433
X6.9004Y-4.9012
X6.9016Y-3.1614
X6.9055Y-3.748
X6.9094Y-4.0827
X6.9134Y-4.9335
X6.9248Y-3.7874
X6.9291Y-4.1059
X6.937Y-4.8819
X6.9409Y-4.9449
X6.9646Y-4.8035
X6.9646Y-5.1024
X6.9881Y-3.6926
X6.9882Y-4.3346
X7.0079Y-4.4882
X7.0157Y-3.6929
X7.0157Y-4.7441
X7.0394Y-3.437
X7.0486Y-4.2004
X7.0669Y-4.1811
X7.0748Y-3.5866
X7.0906Y-4.1654
X7.102Y-4.115
X7.1102Y-3.5472
X7.1142Y-4.8071
X7.1146Y-3.6339
X7.1146Y-3.685
X7.117Y-4.1433
X7.1181Y-4.2598
X7.122Y-4.7441
X7.1417Y-4.2244
X7.1457Y-4.8228
X7.1496Y-4.7047
X7.1732Y-2.6614
X7.1772Y-3.4882
X7.185Y-3.9213
X7.189Y-3.8898
X7.1929Y-4.0827
X7.2008Y-2.4921
X7.2008Y-3.3898
X7.2047Y-4.8465
X7.2083Y-4.0354
X7.2091Y-3.8667
X7.2126Y-4.189
X7.2283Y-2.5748
X7.2283Y-3.1299
X7.2283Y-3.8465
X7.2283Y-4.1496
X7.2488Y-3.8264
X7.2559Y-4.2874
X7.2677Y-4.2323
X7.2681Y-3.8071
X7.2756Y-3.6102
X7.2795Y-3.6614
X7.2953Y-4.4409
X7.2992Y-3.5669
X7.3031Y-4.878
X7.3067Y-3.7598
X7.3071Y-3.7126
X7.3071Y-4.3858
X7.315Y-4.5709
X7.3232Y-3.5075
X7.3307Y-4.5354
X7.3425Y-3.4563
X7.3504Y-4.6811
X7.353Y-4.7651
X7.3701Y-4.6378
X7.4094Y-5.0394
X7.5079Y-5.063
X7.6063Y-5.0827
X7.7047Y-5.1024
X7.7098Y-2.987
T2
X4.2701Y-5.1984
X4.4242Y-5.1329
X4.5374Y-2.9134
X4.5669Y-3.2126
X4.6457Y-4.7874
X4.8898Y-4.7874
X4.8898Y-5.1339
X4.9311Y-5.8293
X4.9567Y-4.7874
X4.9606Y-4.0472
X4.9764Y-3.2126
X5.0236Y-4.7874
X5.0394Y-3.3465
X5.3071Y-4.7874
X5.3071Y-5.1339
X5.5197Y-4.7874
X5.5512Y-4.378
X5.5748Y-4.0472
X5.5906Y-3.2126
X5.6457Y-3.3465
X5.8268Y-3.2126
X5.8504Y-4.0472
X5.8504Y-4.378
X5.8504Y-4.6614
X5.8583Y-4.7874
X5.8583Y-5.1339
X5.8661Y-5.8268
X5.8898Y-4.7874
X6.1575Y-4.7874
X6.2205Y-4.378
X6.5039Y-4.7874
X6.5039Y-5.1339
X6.5118Y-4.6614
X6.5512Y-4.7874
X6.5591Y-4.0472
X6.6563Y-3.3335
X6.7323Y-4.7795
X6.7717Y-2.9134
X6.7717Y-3.2047
X7.0669Y-3.3366
X7.0866Y-4.7795
X7.0866Y-5.1339
X7.5531Y-5.1339
T3
X4.0945Y-5.1673
T5
X6.2Y-5.4528
X6.3Y-5.4528
X6.4Y-5.4528
X6.5Y-5.4528
X6.6Y-5.4528
X6.7Y-5.4528
X6.8Y-5.4528
X6.9Y-5.4528
X7.0Y-5.4528
X7.1Y-5.4528
X7.2Y-5.4528
X7.3Y-5.4528
X7.4Y-5.4528
X7.5Y-5.4528
X7.6Y-5.4528
X7.7Y-5.4528
X4.9555Y-2.3016
X4.9555Y-2.4016
X5.0555Y-2.3016
X5.0555Y-2.4016
X5.1555Y-2.3016
X5.1555Y-2.4016
X5.2555Y-2.3016
X5.2555Y-2.4016
X5.3555Y-2.3016
X5.3555Y-2.4016
X5.4555Y-2.3016
X5.4555Y-2.4016
X5.5555Y-2.3016
X5.5555Y-2.4016
X5.6555Y-2.3016
X5.6555Y-2.4016
X5.7555Y-2.3016
X5.7555Y-2.4016
X5.8555Y-2.3016
X5.8555Y-2.4016
X5.9555Y-2.3016
X5.9555Y-2.4016
X6.0555Y-2.3016
X6.0555Y-2.4016
X6.1555Y-2.3016
X6.1555Y-2.4016
X6.2555Y-2.3016
X6.2555Y-2.4016
X6.3555Y-2.3016
X6.3555Y-2.4016
X6.4555Y-2.3016
X6.4555Y-2.4016
X6.5555Y-2.3016
X6.5555Y-2.4016
X6.6555Y-2.3016
X6.6555Y-2.4016
X6.7555Y-2.3016
X6.7555Y-2.4016
X6.8555Y-2.3016
X6.8555Y-2.4016
X7.4409Y-2.987
X7.4409Y-3.087
X7.4409Y-3.187
X7.4409Y-3.287
X7.4409Y-3.387
X7.4409Y-3.487
X7.4409Y-3.587
X7.4409Y-3.687
X7.4409Y-3.787
X7.4409Y-3.887
X7.4409Y-3.987
X7.4409Y-4.087
X7.4409Y-4.187
X7.4409Y-4.287
X7.4409Y-4.387
X7.4409Y-4.487
X7.4409Y-4.587
X7.4409Y-4.687
X7.4409Y-4.787
X7.4409Y-4.887
X7.5409Y-2.987
X7.5409Y-3.087
X7.5409Y-3.187
X7.5409Y-3.287
X7.5409Y-3.387
X7.5409Y-3.487
X7.5409Y-3.587
X7.5409Y-3.687
X7.5409Y-3.787
X7.5409Y-3.887
X7.5409Y-3.987
X7.5409Y-4.087
X7.5409Y-4.187
X7.5409Y-4.287
X7.5409Y-4.387
X7.5409Y-4.487
X7.5409Y-4.587
X7.5409Y-4.687
X7.5409Y-4.787
X7.5409Y-4.887
X4.2701Y-2.987
X4.2701Y-3.087
X4.2701Y-3.187
X4.2701Y-3.287
X4.2701Y-3.387
X4.2701Y-3.487
X4.2701Y-3.587
X4.2701Y-3.687
X4.2701Y-3.787
X4.2701Y-3.887
X4.2701Y-3.987
X4.2701Y-4.087
X4.2701Y-4.187
X4.2701Y-4.287
X4.2701Y-4.387
X4.2701Y-4.487
X4.2701Y-4.587
X4.2701Y-4.687
X4.2701Y-4.787
X4.2701Y-4.887
X4.3701Y-2.987
X4.3701Y-3.087
X4.3701Y-3.187
X4.3701Y-3.287
X4.3701Y-3.387
X4.3701Y-3.487
X4.3701Y-3.587
X4.3701Y-3.687
X4.3701Y-3.787
X4.3701Y-3.887
X4.3701Y-3.987
X4.3701Y-4.087
X4.3701Y-4.187
X4.3701Y-4.287
X4.3701Y-4.387
X4.3701Y-4.487
X4.3701Y-4.587
X4.3701Y-4.687
X4.3701Y-4.787
X4.3701Y-4.887
T4
G00X4.5945Y-5.3543
M15
G01X4.6969Y-5.3543
M16
G05
G00X4.6024Y-5.5827
M15
G01X4.689Y-5.5827
M16
G05
G00X4.8346Y-5.5157
M15
G01X4.8346Y-5.4291
M16
G05
T0
M30
