%TF.GenerationSoftware,KiCad,Pcbnew,(5.1.6-0-10_14)*%
%TF.CreationDate,2020-12-19T15:47:54+01:00*%
%TF.ProjectId,vga,7667612e-6b69-4636-9164-5f7063625858,1*%
%TF.SameCoordinates,Original*%
%TF.FileFunction,Soldermask,Bot*%
%TF.FilePolarity,Negative*%
%FSLAX46Y46*%
G04 Gerber Fmt 4.6, Leading zero omitted, Abs format (unit mm)*
G04 Created by KiCad (PCBNEW (5.1.6-0-10_14)) date 2020-12-19 15:47:54*
%MOMM*%
%LPD*%
G01*
G04 APERTURE LIST*
%ADD10C,3.300000*%
%ADD11R,1.800000X1.800000*%
%ADD12O,1.800000X1.800000*%
%ADD13R,1.700000X1.700000*%
%ADD14C,1.700000*%
%ADD15C,4.100000*%
G04 APERTURE END LIST*
%TO.C,R6*%
G36*
G01*
X74381250Y-113600000D02*
X73418750Y-113600000D01*
G75*
G02*
X73150000Y-113331250I0J268750D01*
G01*
X73150000Y-112793750D01*
G75*
G02*
X73418750Y-112525000I268750J0D01*
G01*
X74381250Y-112525000D01*
G75*
G02*
X74650000Y-112793750I0J-268750D01*
G01*
X74650000Y-113331250D01*
G75*
G02*
X74381250Y-113600000I-268750J0D01*
G01*
G37*
G36*
G01*
X74381250Y-115475000D02*
X73418750Y-115475000D01*
G75*
G02*
X73150000Y-115206250I0J268750D01*
G01*
X73150000Y-114668750D01*
G75*
G02*
X73418750Y-114400000I268750J0D01*
G01*
X74381250Y-114400000D01*
G75*
G02*
X74650000Y-114668750I0J-268750D01*
G01*
X74650000Y-115206250D01*
G75*
G02*
X74381250Y-115475000I-268750J0D01*
G01*
G37*
%TD*%
%TO.C,C13*%
G36*
G01*
X54925000Y-130481250D02*
X54925000Y-129518750D01*
G75*
G02*
X55193750Y-129250000I268750J0D01*
G01*
X55731250Y-129250000D01*
G75*
G02*
X56000000Y-129518750I0J-268750D01*
G01*
X56000000Y-130481250D01*
G75*
G02*
X55731250Y-130750000I-268750J0D01*
G01*
X55193750Y-130750000D01*
G75*
G02*
X54925000Y-130481250I0J268750D01*
G01*
G37*
G36*
G01*
X56800000Y-130481250D02*
X56800000Y-129518750D01*
G75*
G02*
X57068750Y-129250000I268750J0D01*
G01*
X57606250Y-129250000D01*
G75*
G02*
X57875000Y-129518750I0J-268750D01*
G01*
X57875000Y-130481250D01*
G75*
G02*
X57606250Y-130750000I-268750J0D01*
G01*
X57068750Y-130750000D01*
G75*
G02*
X56800000Y-130481250I0J268750D01*
G01*
G37*
%TD*%
%TO.C,C17*%
G36*
G01*
X123600000Y-54681250D02*
X123600000Y-53718750D01*
G75*
G02*
X123868750Y-53450000I268750J0D01*
G01*
X124406250Y-53450000D01*
G75*
G02*
X124675000Y-53718750I0J-268750D01*
G01*
X124675000Y-54681250D01*
G75*
G02*
X124406250Y-54950000I-268750J0D01*
G01*
X123868750Y-54950000D01*
G75*
G02*
X123600000Y-54681250I0J268750D01*
G01*
G37*
G36*
G01*
X121725000Y-54681250D02*
X121725000Y-53718750D01*
G75*
G02*
X121993750Y-53450000I268750J0D01*
G01*
X122531250Y-53450000D01*
G75*
G02*
X122800000Y-53718750I0J-268750D01*
G01*
X122800000Y-54681250D01*
G75*
G02*
X122531250Y-54950000I-268750J0D01*
G01*
X121993750Y-54950000D01*
G75*
G02*
X121725000Y-54681250I0J268750D01*
G01*
G37*
%TD*%
D10*
%TO.C,H1*%
X55000000Y-55000000D03*
%TD*%
%TO.C,H2*%
X145000000Y-55000000D03*
%TD*%
%TO.C,H3*%
X55000000Y-145000000D03*
%TD*%
%TO.C,H4*%
X145000000Y-145000000D03*
%TD*%
D11*
%TO.C,J1*%
X61000000Y-75870000D03*
D12*
X58460000Y-75870000D03*
X61000000Y-78410000D03*
X58460000Y-78410000D03*
X61000000Y-80950000D03*
X58460000Y-80950000D03*
X61000000Y-83490000D03*
X58460000Y-83490000D03*
X61000000Y-86030000D03*
X58460000Y-86030000D03*
X61000000Y-88570000D03*
X58460000Y-88570000D03*
X61000000Y-91110000D03*
X58460000Y-91110000D03*
X61000000Y-93650000D03*
X58460000Y-93650000D03*
X61000000Y-96190000D03*
X58460000Y-96190000D03*
X61000000Y-98730000D03*
X58460000Y-98730000D03*
X61000000Y-101270000D03*
X58460000Y-101270000D03*
X61000000Y-103810000D03*
X58460000Y-103810000D03*
X61000000Y-106350000D03*
X58460000Y-106350000D03*
X61000000Y-108890000D03*
X58460000Y-108890000D03*
X61000000Y-111430000D03*
X58460000Y-111430000D03*
X61000000Y-113970000D03*
X58460000Y-113970000D03*
X61000000Y-116510000D03*
X58460000Y-116510000D03*
X61000000Y-119050000D03*
X58460000Y-119050000D03*
X61000000Y-121590000D03*
X58460000Y-121590000D03*
X61000000Y-124130000D03*
X58460000Y-124130000D03*
%TD*%
D13*
%TO.C,J2*%
X137400000Y-123800000D03*
D14*
X137400000Y-121510000D03*
X137400000Y-119220000D03*
X137400000Y-116930000D03*
X137400000Y-114640000D03*
X139380000Y-124945000D03*
X139380000Y-122655000D03*
X139380000Y-120365000D03*
X139380000Y-118075000D03*
X139380000Y-115785000D03*
X141360000Y-123800000D03*
X141360000Y-121510000D03*
X141360000Y-119220000D03*
X141360000Y-116930000D03*
X141360000Y-114640000D03*
D15*
X138820000Y-106985000D03*
X138820000Y-131985000D03*
%TD*%
D13*
%TO.C,X1*%
X53200000Y-137600000D03*
D14*
X53200000Y-129980000D03*
X60820000Y-129980000D03*
X60820000Y-137600000D03*
%TD*%
M02*
