M48
; DRILL file {KiCad (5.1.6-0-10_14)} date Saturday, December 19, 2020 at 03:48:07 PM
; FORMAT={-:-/ absolute / inch / decimal}
; #@! TF.CreationDate,2020-12-19T15:48:07+01:00
; #@! TF.GenerationSoftware,Kicad,Pcbnew,(5.1.6-0-10_14)
; #@! TF.FileFunction,Plated,1,2,PTH
FMAT,2
INCH
T1C0.0118
T2C0.0157
T3C0.0315
T4C0.0394
T5C0.1260
%
G90
G05
T1
X2.5079Y-3.1299
X2.5118Y-4.7559
X2.5118Y-5.063
X2.5354Y-4.4488
X2.5394Y-4.0146
X2.5512Y-4.7323
X2.5622Y-3.3655
X2.5622Y-3.7362
X2.563Y-4.3858
X2.5669Y-4.1555
X2.5669Y-5.3898
X2.5827Y-3.7874
X2.5831Y-3.3419
X2.5878Y-4.7874
X2.5906Y-5.3465
X2.6024Y-3.9409
X2.6039Y-3.3193
X2.6039Y-3.6339
X2.6063Y-4.4921
X2.6181Y-2.6299
X2.6181Y-3.0394
X2.622Y-3.689
X2.622Y-4.8217
X2.6248Y-3.2992
X2.6457Y-3.0079
X2.6457Y-3.5394
X2.6457Y-4.3425
X2.6461Y-2.374
X2.6491Y-3.6836
X2.6614Y-4.5866
X2.6614Y-5.3031
X2.6654Y-3.5866
X2.6654Y-5.0984
X2.6669Y-2.3189
X2.6669Y-2.9606
X2.6693Y-4.0315
X2.676Y-4.1839
X2.676Y-3.7362
X2.6878Y-2.2677
X2.6878Y-2.9055
X2.6878Y-3.437
X2.6929Y-5.1772
X2.6929Y-5.2835
X2.6941Y-4.5472
X2.695Y-4.0725
X2.6969Y-3.7165
X2.6997Y-4.0996
X2.7087Y-2.2165
X2.7087Y-2.8543
X2.7087Y-3.4921
X2.7087Y-4.685
X2.7165Y-5.4724
X2.7165Y-5.6693
X2.7165Y-5.7717
X2.7177Y-4.2795
X2.7362Y-4.5551
X2.7441Y-4.7992
X2.7441Y-5.0197
X2.7928Y-2.4873
X2.7972Y-5.4449
X2.7992Y-5.6024
X2.7996Y-3.0945
X2.8031Y-2.5129
X2.8078Y-3.1218
X2.8081Y-2.9321
X2.811Y-2.2913
X2.815Y-2.2441
X2.815Y-2.8819
X2.8199Y-2.9833
X2.8217Y-2.5333
X2.823Y-4.7493
X2.8238Y-2.3396
X2.8256Y-4.7172
X2.8268Y-3.1417
X2.8346Y-5.0748
X2.835Y-4.4567
X2.835Y-5.122
X2.835Y-5.2681
X2.8386Y-5.7717
X2.8447Y-2.3976
X2.8465Y-2.5472
X2.8492Y-4.4291
X2.8492Y-4.7835
X2.8492Y-4.815
X2.8492Y-5.1496
X2.8543Y-3.1689
X2.8543Y-3.3832
X2.8575Y-3.0354
X2.8583Y-2.1929
X2.8622Y-2.8307
X2.8763Y-3.3642
X2.8858Y-2.4173
X2.8858Y-5.7205
X2.887Y-5.4961
X2.8888Y-3.9124
X2.8953Y-2.3701
X2.9055Y-3.0551
X2.9094Y-4.2205
X2.9094Y-5.2008
X2.9094Y-5.424
X2.9134Y-5.0748
X2.9161Y-2.3189
X2.9166Y-3.0079
X2.9173Y-4.7484
X2.9201Y-3.3429
X2.9289Y-2.9567
X2.9329Y-3.3201
X2.937Y-2.2677
X2.9412Y-2.9055
X2.9452Y-3.2975
X2.9488Y-5.6929
X2.9501Y-4.5336
X2.9513Y-5.2681
X2.9606Y-4.5079
X2.9606Y-4.5591
X2.9607Y-4.2008
X2.9921Y-3.7419
X3.0067Y-3.8504
X3.0079Y-3.2047
X3.0079Y-3.4449
X3.0106Y-3.1451
X3.0189Y-4.153
X3.0197Y-3.4724
X3.0214Y-3.1705
X3.0276Y-5.126
X3.0276Y-5.5315
X3.0289Y-4.8079
X3.0372Y-2.5516
X3.0394Y-2.2441
X3.0394Y-2.8819
X3.0394Y-3.5748
X3.0423Y-3.1885
X3.0433Y-5.437
X3.0443Y-2.9321
X3.0512Y-5.0748
X3.0512Y-5.1772
X3.0551Y-2.9803
X3.0579Y-3.5472
X3.0591Y-4.1732
X3.0591Y-5.7953
X3.0602Y-2.2953
X3.0624Y-2.5657
X3.0635Y-4.7821
X3.0669Y-3.2008
X3.0669Y-5.6693
X3.0719Y-3.0344
X3.0787Y-3.4961
X3.0787Y-4.6929
X3.079Y-2.5878
X3.0811Y-2.3465
X3.0827Y-5.1496
X3.0866Y-4.1956
X3.0886Y-4.4803
X3.0906Y-5.3189
X3.0906Y-5.7402
X3.0906Y-5.8711
X3.1003Y-4.1532
X3.1012Y-2.3976
X3.1012Y-3.9882
X3.1057Y-2.5945
X3.1161Y-4.4803
X3.1181Y-4.0236
X3.1181Y-5.6969
X3.122Y-2.2283
X3.122Y-2.8543
X3.1417Y-4.374
X3.1417Y-4.4567
X3.1429Y-2.2492
X3.1457Y-3.9606
X3.1457Y-2.8752
X3.1595Y-4.8012
X3.1654Y-3.0394
X3.1654Y-4.0394
X3.1746Y-5.4724
X3.1772Y-4.3976
X3.1772Y-5.6102
X3.1811Y-3.063
X3.182Y-4.1563
X3.1822Y-3.5208
X3.1839Y-3.5984
X3.1839Y-3.9606
X3.1839Y-4.0713
X3.1929Y-2.4213
X3.2012Y-4.8012
X3.2087Y-5.4461
X3.2126Y-3.0866
X3.2138Y-2.4421
X3.2165Y-3.4843
X3.2205Y-5.1732
X3.2244Y-5.3976
X3.2248Y-4.6875
X3.2288Y-2.4652
X3.2362Y-5.6575
X3.2402Y-4.4646
X3.2402Y-5.6929
X3.2438Y-5.4914
X3.2441Y-5.126
X3.2453Y-4.563
X3.252Y-4.374
X3.2567Y-4.7412
X3.2594Y-4.5354
X3.2638Y-5.1575
X3.2669Y-4.0912
X3.2697Y-4.8484
X3.2735Y-4.5075
X3.2736Y-4.2717
X3.3051Y-3.5236
X3.3051Y-3.685
X3.315Y-5.7992
X3.3189Y-5.878
X3.3268Y-5.1969
X3.3268Y-5.3417
X3.3366Y-5.1516
X3.3386Y-2.8776
X3.3453Y-2.2571
X3.3465Y-5.6654
X3.3465Y-5.874
X3.3577Y-4.7256
X3.3583Y-5.2559
X3.3622Y-4.185
X3.3626Y-3.9882
X3.3626Y-4.4803
X3.3661Y-2.8193
X3.374Y-2.1929
X3.3768Y-3.811
X3.387Y-2.378
X3.387Y-3.0
X3.3937Y-3.7795
X3.4011Y-5.2524
X3.4132Y-4.7823
X3.4161Y-5.0173
X3.4173Y-5.311
X3.4213Y-3.5472
X3.4291Y-3.5748
X3.4291Y-4.2402
X3.435Y-5.1004
X3.4509Y-4.0933
X3.4528Y-4.7823
X3.4528Y-5.7205
X3.4535Y-4.7122
X3.4543Y-5.1535
X3.4543Y-5.5028
X3.4593Y-4.2704
X3.4598Y-4.0516
X3.4606Y-3.5945
X3.4685Y-4.5039
X3.4752Y-5.126
X3.4752Y-5.7441
X3.4843Y-3.622
X3.4902Y-2.3976
X3.4902Y-3.0197
X3.4961Y-5.0709
X3.4961Y-5.7717
X3.5Y-4.0157
X3.5157Y-3.4724
X3.5236Y-5.6969
X3.5276Y-4.4843
X3.5513Y-5.2524
X3.5551Y-2.1142
X3.5551Y-2.2913
X3.5551Y-2.9134
X3.5551Y-5.1772
X3.563Y-3.8425
X3.5787Y-3.7419
X3.5787Y-5.4744
X3.5787Y-5.6102
X3.5827Y-3.4843
X3.5866Y-4.7638
X3.5906Y-4.4016
X3.5945Y-3.2311
X3.5984Y-2.1811
X3.5984Y-2.8031
X3.5984Y-3.4488
X3.5984Y-4.122
X3.6063Y-3.5551
X3.6371Y-4.7256
X3.6417Y-5.2874
X3.6417Y-5.4886
X3.6417Y-5.6654
X3.6496Y-4.4528
X3.6563Y-5.1772
X3.6772Y-3.937
X3.6772Y-5.0472
X3.6772Y-5.6929
X3.689Y-3.0669
X3.6917Y-2.4409
X3.7008Y-5.7165
X3.7047Y-5.2602
X3.7087Y-3.6063
X3.7126Y-2.4213
X3.7126Y-3.0433
X3.7126Y-3.5315
X3.7126Y-4.3819
X3.7126Y-4.5628
X3.7205Y-3.689
X3.7205Y-4.8858
X3.7244Y-5.1811
X3.7335Y-3.5039
X3.7402Y-2.5906
X3.7441Y-2.311
X3.7441Y-4.2205
X3.7441Y-4.5079
X3.7441Y-5.7953
X3.7441Y-5.8711
X3.7453Y-5.1496
X3.7477Y-3.7211
X3.748Y-5.3768
X3.752Y-4.8543
X3.7543Y-3.5827
X3.7559Y-5.0709
X3.761Y-2.3583
X3.7633Y-4.7398
X3.7638Y-5.1063
X3.7655Y-2.5797
X3.7665Y-4.2461
X3.7677Y-4.4803
X3.7756Y-5.3626
X3.7808Y-2.5568
X3.7835Y-3.5039
X3.7874Y-4.2677
X3.7913Y-2.378
X3.8021Y-3.1516
X3.8047Y-2.5431
X3.811Y-2.8465
X3.814Y-2.3986
X3.815Y-4.802
X3.8189Y-3.7689
X3.8257Y-2.5252
X3.8258Y-3.5817
X3.8294Y-3.1374
X3.8307Y-2.2244
X3.8307Y-2.8701
X3.8426Y-4.0107
X3.8437Y-3.7898
X3.8465Y-3.5315
X3.8465Y-4.7638
X3.8486Y-2.5098
X3.8504Y-3.6063
X3.8512Y-2.2464
X3.8523Y-3.1033
X3.8543Y-2.8937
X3.8582Y-2.2795
X3.87Y-5.7621
X3.8701Y-4.0437
X3.8701Y-5.3386
X3.8759Y-2.5136
X3.8774Y-3.0909
X3.878Y-2.9134
X3.878Y-4.815
X3.8819Y-4.5039
X3.8829Y-2.2917
X3.8858Y-2.4869
X3.8898Y-5.4213
X3.8902Y-4.0241
X3.8937Y-5.748
X3.9055Y-4.7429
X3.9083Y-4.8189
X3.9083Y-5.2008
X3.9094Y-4.5276
X3.9134Y-5.6299
X3.9291Y-4.7638
X3.9382Y-5.5354
X3.9606Y-4.6102
X3.9882Y-4.9961
X3.9882Y-5.2638
X3.9921Y-4.0591
X3.9941Y-4.3346
X4.0197Y-3.4764
X4.0276Y-2.1693
X4.0315Y-2.8031
X4.0453Y-3.5551
X4.0551Y-2.4646
X4.0579Y-3.0562
X4.063Y-3.6339
X4.0748Y-3.0236
X4.0754Y-3.1614
X4.0933Y-3.1824
X4.0942Y-3.0011
X4.0984Y-2.1929
X4.1063Y-3.315
X4.1079Y-3.2057
X4.1142Y-2.9764
X4.1181Y-2.9409
X4.1181Y-4.9724
X4.1181Y-5.7945
X4.1209Y-4.8465
X4.1224Y-4.7441
X4.1248Y-5.2874
X4.1256Y-3.232
X4.126Y-5.3386
X4.1339Y-4.3819
X4.1339Y-4.5039
X4.1417Y-3.3083
X4.1417Y-4.2795
X4.1427Y-2.3907
X4.1433Y-4.0354
X4.1433Y-4.7165
X4.1457Y-5.3661
X4.1626Y-5.0213
X4.1626Y-5.2598
X4.1654Y-2.4331
X4.1768Y-4.7967
X4.1768Y-4.8701
X4.1929Y-2.4843
X4.2008Y-3.8268
X4.2059Y-4.3307
X4.2059Y-4.8463
X4.2165Y-2.5315
X4.2165Y-3.7953
X4.2244Y-4.7441
X4.2244Y-5.315
X4.2291Y-3.7707
X4.2305Y-4.8219
X4.235Y-4.3858
X4.235Y-4.4764
X4.2415Y-2.2413
X4.2441Y-3.8386
X4.2468Y-3.7478
X4.2476Y-2.8705
X4.2559Y-4.3583
X4.2559Y-4.5197
X4.2583Y-2.8451
X4.2677Y-2.2244
X4.2744Y-3.3762
X4.2852Y-2.2555
X4.2913Y-2.8346
X4.302Y-3.2795
X4.315Y-2.8189
X4.315Y-3.9173
X4.3228Y-3.2008
X4.3228Y-3.8425
X4.348Y-5.2402
X4.348Y-5.3661
X4.3583Y-2.626
X4.3583Y-2.9606
X4.361Y-3.1404
X4.3689Y-5.7165
X4.3701Y-4.4055
X4.3819Y-2.1181
X4.3898Y-5.7638
X4.3898Y-5.5661
X4.4051Y-3.7598
X4.4074Y-4.0436
X4.424Y-3.3268
X4.4291Y-3.9449
X4.4409Y-4.2008
X4.4449Y-3.2953
X4.4449Y-4.5551
X4.4488Y-5.2835
X4.4516Y-3.8701
X4.4518Y-3.3809
X4.4528Y-5.3543
X4.4567Y-5.4646
X4.461Y-4.1693
X4.4646Y-4.8228
X4.4724Y-4.7362
X4.4724Y-5.0512
X4.4854Y-4.7717
X4.4882Y-4.689
X4.4933Y-3.8935
X4.4944Y-4.8624
X4.5031Y-4.3307
X4.5039Y-3.126
X4.5039Y-4.3031
X4.5197Y-3.2205
X4.5217Y-3.8547
X4.5264Y-3.3307
X4.5276Y-3.4567
X4.53Y-3.1169
X4.5303Y-3.4045
X4.5315Y-3.8228
X4.5315Y-3.2598
X4.5315Y-3.9449
X4.5472Y-4.2559
X4.5489Y-3.3505
X4.5492Y-3.8937
X4.5511Y-3.0992
X4.5512Y-3.378
X4.559Y-3.8248
X4.5679Y-3.0774
X4.5748Y-5.6654
X4.5776Y-5.7402
X4.5866Y-2.9606
X4.5866Y-5.315
X4.5945Y-5.7677
X4.5985Y-5.5698
X4.6063Y-2.1102
X4.6063Y-2.2323
X4.6075Y-4.0183
X4.6075Y-4.7677
X4.6075Y-5.2638
X4.6102Y-5.0197
X4.6132Y-4.8199
X4.6142Y-2.2835
X4.6142Y-2.811
X4.6174Y-5.5072
X4.6193Y-5.6929
X4.6339Y-4.1299
X4.6339Y-4.5276
X4.635Y-2.3346
X4.6378Y-2.8268
X4.6385Y-3.2795
X4.6417Y-5.7992
X4.642Y-5.5146
X4.6457Y-4.8228
X4.6457Y-4.9724
X4.6482Y-5.3503
X4.6535Y-3.9213
X4.6559Y-2.4843
X4.6575Y-2.8504
X4.6575Y-3.8386
X4.6575Y-5.7165
X4.6614Y-3.9724
X4.6614Y-4.2159
X4.6614Y-5.4646
X4.6675Y-5.5441
X4.6752Y-3.1969
X4.6771Y-3.4855
X4.6771Y-5.3661
X4.7638Y-2.8031
X4.7654Y-3.252
X4.7835Y-2.6339
X4.7862Y-3.3307
X4.7913Y-3.9213
X4.7913Y-4.0392
X4.8071Y-2.7559
X4.8071Y-3.3583
X4.828Y-2.8268
X4.828Y-3.2283
X4.8587Y-3.3858
X4.8587Y-3.7126
X4.878Y-4.748
X4.8793Y-4.16
X4.8795Y-3.3071
X4.8795Y-3.7638
X4.8873Y-2.4355
X4.8873Y-2.5261
X4.8898Y-5.0197
X4.8976Y-5.3583
X4.9004Y-3.2795
X4.9004Y-3.815
X4.9173Y-4.2795
X4.9173Y-5.1811
X4.9213Y-3.2008
X4.9213Y-3.8622
X4.9252Y-2.9606
X4.9252Y-3.1732
X4.937Y-5.3898
X4.9382Y-4.3031
X4.9488Y-5.4579
X4.9528Y-5.7559
X4.9591Y-4.8701
X4.9594Y-5.0748
X4.9783Y-3.4665
X4.9803Y-4.8071
X4.9803Y-5.6732
X5.0118Y-5.4094
X5.0118Y-5.6496
X5.0512Y-2.6339
X5.0618Y-3.252
X5.0787Y-3.9646
X5.0787Y-4.5276
X5.0787Y-5.1496
X5.0797Y-4.125
X5.0805Y-2.8122
X5.0827Y-3.3583
X5.1022Y-2.7876
X5.1024Y-5.4094
X5.1035Y-3.3307
X5.1063Y-4.0157
X5.1067Y-4.1309
X5.1181Y-5.7244
X5.122Y-2.5866
X5.122Y-3.815
X5.1244Y-3.2283
X5.1339Y-3.7677
X5.1378Y-3.3071
X5.1496Y-3.3819
X5.1654Y-4.0945
X5.1654Y-5.1772
X5.252Y-3.2008
X5.252Y-3.9134
X5.2559Y-5.2244
X5.2598Y-5.4587
X5.2728Y-3.2795
X5.2728Y-3.8622
X5.315Y-5.3543
X5.315Y-5.6772
X5.3189Y-4.9961
X5.3189Y-5.0984
X5.3425Y-5.0157
X5.3465Y-5.3819
X5.3465Y-5.748
X5.3622Y-4.9882
X5.4094Y-4.9764
X5.5512Y-5.4094
X5.5787Y-5.0748
X5.5945Y-4.3791
X5.6063Y-5.0366
X5.626Y-4.3307
X5.6457Y-4.3583
X5.6512Y-5.0212
X5.6811Y-4.1102
X5.6846Y-4.5787
X5.685Y-4.6929
X5.685Y-5.0098
X5.7087Y-4.8622
X5.7156Y-4.0996
X5.7165Y-4.5433
X5.7598Y-4.5787
X5.7638Y-4.2835
X5.7638Y-4.3701
X5.7638Y-4.689
X5.7717Y-4.1181
X5.7795Y-4.2126
T2
X2.0787Y-4.6969
X2.0787Y-4.9843
X2.1811Y-2.8898
X2.2756Y-2.7559
X2.2978Y-4.9907
X2.4685Y-4.8898
X2.5748Y-2.9921
X2.5748Y-3.1102
X2.7638Y-2.0433
X2.7638Y-2.4567
X2.7638Y-2.6811
X2.7638Y-3.0945
X2.7638Y-5.8583
X2.7717Y-4.6457
X2.7717Y-4.8898
X2.7717Y-5.2598
X3.1142Y-4.3504
X3.1142Y-4.9685
X3.1161Y-5.2264
X3.1181Y-5.5709
X3.125Y-5.8455
X3.126Y-4.063
X3.2598Y-2.0394
X3.2598Y-2.3858
X3.2598Y-3.0
X3.2963Y-4.6329
X3.2972Y-5.2264
X3.2992Y-3.8898
X3.3307Y-3.3701
X3.3307Y-3.7638
X3.3307Y-4.2992
X3.3307Y-4.9134
X3.3386Y-2.378
X3.3386Y-2.748
X3.3386Y-2.9921
X3.3465Y-2.1181
X3.5118Y-2.0394
X3.5128Y-3.6486
X3.5157Y-3.3819
X3.5236Y-4.9685
X3.5236Y-5.5787
X3.5246Y-4.6329
X3.5256Y-5.2264
X3.5266Y-5.8455
X3.5276Y-4.3583
X3.9606Y-3.3228
X3.9606Y-4.1732
X3.9606Y-4.2992
X3.9606Y-4.9055
X3.9606Y-5.0866
X3.9606Y-5.5039
X4.0Y-2.0394
X4.0Y-2.3307
X4.0Y-2.9528
X4.0157Y-5.3976
X4.0157Y-5.5748
X4.0167Y-5.8455
X4.0197Y-3.3819
X4.0197Y-4.4055
X4.0197Y-4.9685
X4.2923Y-5.8455
X4.2953Y-5.6811
X4.374Y-3.4409
X4.374Y-4.0079
X4.4124Y-5.8455
X4.4134Y-4.1732
X4.4134Y-4.6339
X4.4134Y-5.1575
X4.4154Y-4.8957
X4.4154Y-5.4154
X4.6983Y-3.1078
X4.7008Y-2.0787
X4.7008Y-3.6299
X4.7008Y-3.7323
X4.7008Y-4.6457
X4.7008Y-5.1575
X4.7008Y-5.5118
X4.7298Y-2.7677
X4.7298Y-3.034
X4.7323Y-3.5945
X4.7352Y-3.4301
X4.7362Y-4.0709
X4.8031Y-2.0787
X4.8219Y-5.8455
X4.8228Y-4.5827
X4.8228Y-5.5591
X4.8268Y-5.1024
X4.8268Y-5.2835
X4.8268Y-5.4803
X4.8883Y-3.034
X4.8898Y-2.0354
X5.063Y-5.5354
X5.0866Y-5.2835
X5.1929Y-5.0512
X5.1929Y-5.4843
X5.3425Y-2.0354
X5.3425Y-3.0315
X5.3425Y-3.626
X5.4646Y-5.8386
X5.4654Y-5.4693
T3
X2.0945Y-5.1173
X2.0945Y-5.4173
X2.3945Y-5.1173
X2.3945Y-5.4173
T4
X5.4094Y-4.5134
X5.4094Y-4.6035
X5.4094Y-4.6937
X5.4094Y-4.7839
X5.4094Y-4.874
X5.4874Y-4.5585
X5.4874Y-4.6486
X5.4874Y-4.7388
X5.4874Y-4.8289
X5.4874Y-4.9191
X5.5654Y-4.5134
X5.5654Y-4.6035
X5.5654Y-4.6937
X5.5654Y-4.7839
X5.5654Y-4.874
X2.3016Y-2.987
X2.3016Y-3.087
X2.3016Y-3.187
X2.3016Y-3.287
X2.3016Y-3.387
X2.3016Y-3.487
X2.3016Y-3.587
X2.3016Y-3.687
X2.3016Y-3.787
X2.3016Y-3.887
X2.3016Y-3.987
X2.3016Y-4.087
X2.3016Y-4.187
X2.3016Y-4.287
X2.3016Y-4.387
X2.3016Y-4.487
X2.3016Y-4.587
X2.3016Y-4.687
X2.3016Y-4.787
X2.3016Y-4.887
X2.4016Y-2.987
X2.4016Y-3.087
X2.4016Y-3.187
X2.4016Y-3.287
X2.4016Y-3.387
X2.4016Y-3.487
X2.4016Y-3.587
X2.4016Y-3.687
X2.4016Y-3.787
X2.4016Y-3.887
X2.4016Y-3.987
X2.4016Y-4.087
X2.4016Y-4.187
X2.4016Y-4.287
X2.4016Y-4.387
X2.4016Y-4.487
X2.4016Y-4.587
X2.4016Y-4.687
X2.4016Y-4.787
X2.4016Y-4.887
T5
X5.4654Y-4.212
X5.4654Y-5.1963
T0
M30
