%TF.GenerationSoftware,KiCad,Pcbnew,(5.1.6-0-10_14)*%
%TF.CreationDate,2020-12-19T15:47:54+01:00*%
%TF.ProjectId,vga,7667612e-6b69-4636-9164-5f7063625858,1*%
%TF.SameCoordinates,Original*%
%TF.FileFunction,Legend,Top*%
%TF.FilePolarity,Positive*%
%FSLAX46Y46*%
G04 Gerber Fmt 4.6, Leading zero omitted, Abs format (unit mm)*
G04 Created by KiCad (PCBNEW (5.1.6-0-10_14)) date 2020-12-19 15:47:54*
%MOMM*%
%LPD*%
G01*
G04 APERTURE LIST*
%ADD10C,0.120000*%
%ADD11C,0.150000*%
G04 APERTURE END LIST*
D10*
%TO.C,C31*%
X56450000Y-71510000D02*
X60835000Y-71510000D01*
X60835000Y-71510000D02*
X60835000Y-68490000D01*
X60835000Y-68490000D02*
X56450000Y-68490000D01*
%TO.C,R5*%
X124341422Y-122810000D02*
X124858578Y-122810000D01*
X124341422Y-121390000D02*
X124858578Y-121390000D01*
%TO.C,C32*%
X54058578Y-124490000D02*
X53541422Y-124490000D01*
X54058578Y-125910000D02*
X53541422Y-125910000D01*
%TO.C,RV6*%
X148800000Y-127800000D02*
X148800000Y-127100000D01*
X148100000Y-127800000D02*
X148800000Y-127800000D01*
X144300000Y-124400000D02*
X144300000Y-125000000D01*
X147200000Y-124400000D02*
X144300000Y-124400000D01*
X144300000Y-127600000D02*
X144300000Y-127000000D01*
X147200000Y-127600000D02*
X144300000Y-127600000D01*
X148300000Y-126200000D02*
X148300000Y-125800000D01*
%TO.C,RV5*%
X148800000Y-123800000D02*
X148800000Y-123100000D01*
X148100000Y-123800000D02*
X148800000Y-123800000D01*
X144300000Y-120400000D02*
X144300000Y-121000000D01*
X147200000Y-120400000D02*
X144300000Y-120400000D01*
X144300000Y-123600000D02*
X144300000Y-123000000D01*
X147200000Y-123600000D02*
X144300000Y-123600000D01*
X148300000Y-122200000D02*
X148300000Y-121800000D01*
%TO.C,RV4*%
X148800000Y-119800000D02*
X148800000Y-119100000D01*
X148100000Y-119800000D02*
X148800000Y-119800000D01*
X144300000Y-116400000D02*
X144300000Y-117000000D01*
X147200000Y-116400000D02*
X144300000Y-116400000D01*
X144300000Y-119600000D02*
X144300000Y-119000000D01*
X147200000Y-119600000D02*
X144300000Y-119600000D01*
X148300000Y-118200000D02*
X148300000Y-117800000D01*
%TO.C,RV3*%
X148800000Y-115800000D02*
X148800000Y-115100000D01*
X148100000Y-115800000D02*
X148800000Y-115800000D01*
X144300000Y-112400000D02*
X144300000Y-113000000D01*
X147200000Y-112400000D02*
X144300000Y-112400000D01*
X144300000Y-115600000D02*
X144300000Y-115000000D01*
X147200000Y-115600000D02*
X144300000Y-115600000D01*
X148300000Y-114200000D02*
X148300000Y-113800000D01*
%TO.C,RV2*%
X148800000Y-111800000D02*
X148800000Y-111100000D01*
X148100000Y-111800000D02*
X148800000Y-111800000D01*
X144300000Y-108400000D02*
X144300000Y-109000000D01*
X147200000Y-108400000D02*
X144300000Y-108400000D01*
X144300000Y-111600000D02*
X144300000Y-111000000D01*
X147200000Y-111600000D02*
X144300000Y-111600000D01*
X148300000Y-110200000D02*
X148300000Y-109800000D01*
%TO.C,RV1*%
X148800000Y-107800000D02*
X148800000Y-107100000D01*
X148100000Y-107800000D02*
X148800000Y-107800000D01*
X144300000Y-104400000D02*
X144300000Y-105000000D01*
X147200000Y-104400000D02*
X144300000Y-104400000D01*
X144300000Y-107600000D02*
X144300000Y-107000000D01*
X147200000Y-107600000D02*
X144300000Y-107600000D01*
X148300000Y-106200000D02*
X148300000Y-105800000D01*
%TO.C,R4*%
X108458578Y-142290000D02*
X107941422Y-142290000D01*
X108458578Y-143710000D02*
X107941422Y-143710000D01*
%TO.C,D2*%
X106285000Y-142040000D02*
X103600000Y-142040000D01*
X106285000Y-143960000D02*
X106285000Y-142040000D01*
X103600000Y-143960000D02*
X106285000Y-143960000D01*
%TO.C,D1*%
X133300000Y-110760000D02*
X134700000Y-110760000D01*
X134700000Y-108440000D02*
X132800000Y-108440000D01*
%TO.C,C1*%
X76541422Y-142310000D02*
X77058578Y-142310000D01*
X76541422Y-140890000D02*
X77058578Y-140890000D01*
%TO.C,C2*%
X76541422Y-109890000D02*
X77058578Y-109890000D01*
X76541422Y-111310000D02*
X77058578Y-111310000D01*
%TO.C,C3*%
X99741422Y-86710000D02*
X100258578Y-86710000D01*
X99741422Y-85290000D02*
X100258578Y-85290000D01*
%TO.C,C4*%
X86341422Y-85090000D02*
X86858578Y-85090000D01*
X86341422Y-86510000D02*
X86858578Y-86510000D01*
%TO.C,C5*%
X86941422Y-140890000D02*
X87458578Y-140890000D01*
X86941422Y-142310000D02*
X87458578Y-142310000D01*
%TO.C,C6*%
X75290000Y-53058578D02*
X75290000Y-52541422D01*
X76710000Y-53058578D02*
X76710000Y-52541422D01*
%TO.C,C7*%
X82541422Y-97710000D02*
X83058578Y-97710000D01*
X82541422Y-96290000D02*
X83058578Y-96290000D01*
%TO.C,C8*%
X87141422Y-111510000D02*
X87658578Y-111510000D01*
X87141422Y-110090000D02*
X87658578Y-110090000D01*
%TO.C,C9*%
X96941422Y-140890000D02*
X97458578Y-140890000D01*
X96941422Y-142310000D02*
X97458578Y-142310000D01*
%TO.C,C10*%
X97341422Y-110090000D02*
X97858578Y-110090000D01*
X97341422Y-111510000D02*
X97858578Y-111510000D01*
%TO.C,C11*%
X84058578Y-58290000D02*
X83541422Y-58290000D01*
X84058578Y-59710000D02*
X83541422Y-59710000D01*
%TO.C,C12*%
X84058578Y-75310000D02*
X83541422Y-75310000D01*
X84058578Y-73890000D02*
X83541422Y-73890000D01*
%TO.C,C14*%
X86141422Y-126910000D02*
X86658578Y-126910000D01*
X86141422Y-125490000D02*
X86658578Y-125490000D01*
%TO.C,C15*%
X76710000Y-69258578D02*
X76710000Y-68741422D01*
X75290000Y-69258578D02*
X75290000Y-68741422D01*
%TO.C,C16*%
X109741422Y-106710000D02*
X110258578Y-106710000D01*
X109741422Y-105290000D02*
X110258578Y-105290000D01*
%TO.C,C18*%
X120141422Y-140490000D02*
X120658578Y-140490000D01*
X120141422Y-141910000D02*
X120658578Y-141910000D01*
%TO.C,C19*%
X75741422Y-126910000D02*
X76258578Y-126910000D01*
X75741422Y-125490000D02*
X76258578Y-125490000D01*
%TO.C,C20*%
X132910000Y-78258578D02*
X132910000Y-77741422D01*
X131490000Y-78258578D02*
X131490000Y-77741422D01*
%TO.C,C21*%
X116290000Y-78258578D02*
X116290000Y-77741422D01*
X117710000Y-78258578D02*
X117710000Y-77741422D01*
%TO.C,C22*%
X137341422Y-139890000D02*
X137858578Y-139890000D01*
X137341422Y-141310000D02*
X137858578Y-141310000D01*
%TO.C,C23*%
X121341422Y-118510000D02*
X121858578Y-118510000D01*
X121341422Y-117090000D02*
X121858578Y-117090000D01*
%TO.C,C24*%
X132541422Y-91490000D02*
X133058578Y-91490000D01*
X132541422Y-92910000D02*
X133058578Y-92910000D01*
%TO.C,C25*%
X127458578Y-134910000D02*
X126941422Y-134910000D01*
X127458578Y-133490000D02*
X126941422Y-133490000D01*
%TO.C,C26*%
X97941422Y-126910000D02*
X98458578Y-126910000D01*
X97941422Y-125490000D02*
X98458578Y-125490000D01*
%TO.C,C27*%
X117710000Y-94058578D02*
X117710000Y-93541422D01*
X116290000Y-94058578D02*
X116290000Y-93541422D01*
%TO.C,C28*%
X109541422Y-130290000D02*
X110058578Y-130290000D01*
X109541422Y-131710000D02*
X110058578Y-131710000D01*
%TO.C,C29*%
X109341422Y-118510000D02*
X109858578Y-118510000D01*
X109341422Y-117090000D02*
X109858578Y-117090000D01*
%TO.C,C30*%
X121541422Y-130290000D02*
X122058578Y-130290000D01*
X121541422Y-131710000D02*
X122058578Y-131710000D01*
%TO.C,Q1*%
X63640000Y-79420000D02*
X65100000Y-79420000D01*
X63640000Y-82580000D02*
X65800000Y-82580000D01*
X63640000Y-82580000D02*
X63640000Y-81650000D01*
X63640000Y-79420000D02*
X63640000Y-80350000D01*
%TO.C,R1*%
X128058578Y-145490000D02*
X127541422Y-145490000D01*
X128058578Y-146910000D02*
X127541422Y-146910000D01*
%TO.C,R2*%
X79741422Y-118290000D02*
X80258578Y-118290000D01*
X79741422Y-119710000D02*
X80258578Y-119710000D01*
%TO.C,R3*%
X123341422Y-100310000D02*
X123858578Y-100310000D01*
X123341422Y-98890000D02*
X123858578Y-98890000D01*
%TO.C,U1*%
X73600000Y-112065000D02*
X70000000Y-112065000D01*
X73600000Y-112065000D02*
X75800000Y-112065000D01*
X73600000Y-117535000D02*
X71400000Y-117535000D01*
X73600000Y-117535000D02*
X75800000Y-117535000D01*
%TO.C,U2*%
X73200000Y-148335000D02*
X75400000Y-148335000D01*
X73200000Y-148335000D02*
X71000000Y-148335000D01*
X73200000Y-142865000D02*
X75400000Y-142865000D01*
X73200000Y-142865000D02*
X69600000Y-142865000D01*
%TO.C,U3*%
X96000000Y-92735000D02*
X98200000Y-92735000D01*
X96000000Y-92735000D02*
X93800000Y-92735000D01*
X96000000Y-87265000D02*
X98200000Y-87265000D01*
X96000000Y-87265000D02*
X92400000Y-87265000D01*
%TO.C,U4*%
X82800000Y-87065000D02*
X79200000Y-87065000D01*
X82800000Y-87065000D02*
X85000000Y-87065000D01*
X82800000Y-92535000D02*
X80600000Y-92535000D01*
X82800000Y-92535000D02*
X85000000Y-92535000D01*
%TO.C,U5*%
X79400000Y-103735000D02*
X81600000Y-103735000D01*
X79400000Y-103735000D02*
X77200000Y-103735000D01*
X79400000Y-98265000D02*
X81600000Y-98265000D01*
X79400000Y-98265000D02*
X75800000Y-98265000D01*
%TO.C,U6*%
X84000000Y-117535000D02*
X86200000Y-117535000D01*
X84000000Y-117535000D02*
X81800000Y-117535000D01*
X84000000Y-112065000D02*
X86200000Y-112065000D01*
X84000000Y-112065000D02*
X80400000Y-112065000D01*
%TO.C,U7*%
X83600000Y-142865000D02*
X80000000Y-142865000D01*
X83600000Y-142865000D02*
X85800000Y-142865000D01*
X83600000Y-148335000D02*
X81400000Y-148335000D01*
X83600000Y-148335000D02*
X85800000Y-148335000D01*
%TO.C,U8*%
X73000000Y-55215000D02*
X69400000Y-55215000D01*
X73000000Y-55215000D02*
X75200000Y-55215000D01*
X73000000Y-61985000D02*
X70800000Y-61985000D01*
X73000000Y-61985000D02*
X75200000Y-61985000D01*
%TO.C,U9*%
X86395000Y-54890000D02*
X99500000Y-54890000D01*
X87700000Y-63110000D02*
X99500000Y-63110000D01*
%TO.C,U10*%
X87700000Y-78910000D02*
X99500000Y-78910000D01*
X86395000Y-70690000D02*
X99500000Y-70690000D01*
%TO.C,U11*%
X94200000Y-112065000D02*
X90600000Y-112065000D01*
X94200000Y-112065000D02*
X96400000Y-112065000D01*
X94200000Y-117535000D02*
X92000000Y-117535000D01*
X94200000Y-117535000D02*
X96400000Y-117535000D01*
%TO.C,U12*%
X93800000Y-148335000D02*
X96000000Y-148335000D01*
X93800000Y-148335000D02*
X91600000Y-148335000D01*
X93800000Y-142865000D02*
X96000000Y-142865000D01*
X93800000Y-142865000D02*
X90200000Y-142865000D01*
%TO.C,U13*%
X73000000Y-78185000D02*
X75200000Y-78185000D01*
X73000000Y-78185000D02*
X70800000Y-78185000D01*
X73000000Y-71415000D02*
X75200000Y-71415000D01*
X73000000Y-71415000D02*
X69400000Y-71415000D01*
%TO.C,U14*%
X83000000Y-127590000D02*
X79400000Y-127590000D01*
X83000000Y-127590000D02*
X85200000Y-127590000D01*
X83000000Y-132810000D02*
X80800000Y-132810000D01*
X83000000Y-132810000D02*
X85200000Y-132810000D01*
%TO.C,U15*%
X106600000Y-112610000D02*
X108800000Y-112610000D01*
X106600000Y-112610000D02*
X104400000Y-112610000D01*
X106600000Y-107390000D02*
X108800000Y-107390000D01*
X106600000Y-107390000D02*
X103000000Y-107390000D01*
%TO.C,U16*%
X117000000Y-142590000D02*
X113400000Y-142590000D01*
X117000000Y-142590000D02*
X119200000Y-142590000D01*
X117000000Y-147810000D02*
X114800000Y-147810000D01*
X117000000Y-147810000D02*
X119200000Y-147810000D01*
%TO.C,U17*%
X111700000Y-53400000D02*
X111700000Y-72200000D01*
X113700000Y-51400000D02*
X111700000Y-53400000D01*
X129900000Y-51400000D02*
X113700000Y-51400000D01*
X129900000Y-72200000D02*
X129900000Y-51400000D01*
X111700000Y-72200000D02*
X129900000Y-72200000D01*
%TO.C,U18*%
X129200000Y-86985000D02*
X131400000Y-86985000D01*
X129200000Y-86985000D02*
X127000000Y-86985000D01*
X129200000Y-80215000D02*
X131400000Y-80215000D01*
X129200000Y-80215000D02*
X125600000Y-80215000D01*
%TO.C,U19*%
X114000000Y-80215000D02*
X110400000Y-80215000D01*
X114000000Y-80215000D02*
X116200000Y-80215000D01*
X114000000Y-86985000D02*
X111800000Y-86985000D01*
X114000000Y-86985000D02*
X116200000Y-86985000D01*
%TO.C,U20*%
X129400000Y-93740000D02*
X125950000Y-93740000D01*
X129400000Y-93740000D02*
X131350000Y-93740000D01*
X129400000Y-103860000D02*
X127450000Y-103860000D01*
X129400000Y-103860000D02*
X131350000Y-103860000D01*
%TO.C,U21*%
X114000000Y-95865000D02*
X110400000Y-95865000D01*
X114000000Y-95865000D02*
X116200000Y-95865000D01*
X114000000Y-101335000D02*
X111800000Y-101335000D01*
X114000000Y-101335000D02*
X116200000Y-101335000D01*
%TO.C,U22*%
X72600000Y-132810000D02*
X74800000Y-132810000D01*
X72600000Y-132810000D02*
X70400000Y-132810000D01*
X72600000Y-127590000D02*
X74800000Y-127590000D01*
X72600000Y-127590000D02*
X69000000Y-127590000D01*
%TO.C,U23*%
X134200000Y-142190000D02*
X130600000Y-142190000D01*
X134200000Y-142190000D02*
X136400000Y-142190000D01*
X134200000Y-147410000D02*
X132000000Y-147410000D01*
X134200000Y-147410000D02*
X136400000Y-147410000D01*
%TO.C,U24*%
X118200000Y-124410000D02*
X120400000Y-124410000D01*
X118200000Y-124410000D02*
X116000000Y-124410000D01*
X118200000Y-119190000D02*
X120400000Y-119190000D01*
X118200000Y-119190000D02*
X114600000Y-119190000D01*
%TO.C,U25*%
X130600000Y-132810000D02*
X134200000Y-132810000D01*
X130600000Y-132810000D02*
X128400000Y-132810000D01*
X130600000Y-127590000D02*
X132800000Y-127590000D01*
X130600000Y-127590000D02*
X128400000Y-127590000D01*
%TO.C,U26*%
X94600000Y-132810000D02*
X96800000Y-132810000D01*
X94600000Y-132810000D02*
X92400000Y-132810000D01*
X94600000Y-127590000D02*
X96800000Y-127590000D01*
X94600000Y-127590000D02*
X91000000Y-127590000D01*
%TO.C,U27*%
X55410000Y-122500000D02*
X55410000Y-120050000D01*
X52190000Y-120700000D02*
X52190000Y-122500000D01*
%TO.C,U28*%
X106400000Y-132390000D02*
X102800000Y-132390000D01*
X106400000Y-132390000D02*
X108600000Y-132390000D01*
X106400000Y-137610000D02*
X104200000Y-137610000D01*
X106400000Y-137610000D02*
X108600000Y-137610000D01*
%TO.C,U29*%
X106400000Y-119190000D02*
X102800000Y-119190000D01*
X106400000Y-119190000D02*
X108600000Y-119190000D01*
X106400000Y-124410000D02*
X104200000Y-124410000D01*
X106400000Y-124410000D02*
X108600000Y-124410000D01*
%TO.C,U30*%
X118200000Y-137610000D02*
X120400000Y-137610000D01*
X118200000Y-137610000D02*
X116000000Y-137610000D01*
X118200000Y-132390000D02*
X120400000Y-132390000D01*
X118200000Y-132390000D02*
X114600000Y-132390000D01*
%TO.C,X1*%
X50560000Y-140240000D02*
X62710000Y-140240000D01*
X63460000Y-139490000D02*
X63460000Y-128090000D01*
X62710000Y-127340000D02*
X51310000Y-127340000D01*
X50560000Y-128090000D02*
X50560000Y-140240000D01*
X62710000Y-140240000D02*
G75*
G03*
X63460000Y-139490000I0J750000D01*
G01*
X63460000Y-128090000D02*
G75*
G03*
X62710000Y-127340000I-750000J0D01*
G01*
X51310000Y-127340000D02*
G75*
G03*
X50560000Y-128090000I0J-750000D01*
G01*
%TO.C,C31*%
D11*
X57557142Y-72707142D02*
X57509523Y-72754761D01*
X57366666Y-72802380D01*
X57271428Y-72802380D01*
X57128571Y-72754761D01*
X57033333Y-72659523D01*
X56985714Y-72564285D01*
X56938095Y-72373809D01*
X56938095Y-72230952D01*
X56985714Y-72040476D01*
X57033333Y-71945238D01*
X57128571Y-71850000D01*
X57271428Y-71802380D01*
X57366666Y-71802380D01*
X57509523Y-71850000D01*
X57557142Y-71897619D01*
X57890476Y-71802380D02*
X58509523Y-71802380D01*
X58176190Y-72183333D01*
X58319047Y-72183333D01*
X58414285Y-72230952D01*
X58461904Y-72278571D01*
X58509523Y-72373809D01*
X58509523Y-72611904D01*
X58461904Y-72707142D01*
X58414285Y-72754761D01*
X58319047Y-72802380D01*
X58033333Y-72802380D01*
X57938095Y-72754761D01*
X57890476Y-72707142D01*
X59461904Y-72802380D02*
X58890476Y-72802380D01*
X59176190Y-72802380D02*
X59176190Y-71802380D01*
X59080952Y-71945238D01*
X58985714Y-72040476D01*
X58890476Y-72088095D01*
%TO.C,R5*%
X124433333Y-120902380D02*
X124100000Y-120426190D01*
X123861904Y-120902380D02*
X123861904Y-119902380D01*
X124242857Y-119902380D01*
X124338095Y-119950000D01*
X124385714Y-119997619D01*
X124433333Y-120092857D01*
X124433333Y-120235714D01*
X124385714Y-120330952D01*
X124338095Y-120378571D01*
X124242857Y-120426190D01*
X123861904Y-120426190D01*
X125338095Y-119902380D02*
X124861904Y-119902380D01*
X124814285Y-120378571D01*
X124861904Y-120330952D01*
X124957142Y-120283333D01*
X125195238Y-120283333D01*
X125290476Y-120330952D01*
X125338095Y-120378571D01*
X125385714Y-120473809D01*
X125385714Y-120711904D01*
X125338095Y-120807142D01*
X125290476Y-120854761D01*
X125195238Y-120902380D01*
X124957142Y-120902380D01*
X124861904Y-120854761D01*
X124814285Y-120807142D01*
%TO.C,C32*%
X51757142Y-125842857D02*
X51804761Y-125890476D01*
X51852380Y-126033333D01*
X51852380Y-126128571D01*
X51804761Y-126271428D01*
X51709523Y-126366666D01*
X51614285Y-126414285D01*
X51423809Y-126461904D01*
X51280952Y-126461904D01*
X51090476Y-126414285D01*
X50995238Y-126366666D01*
X50900000Y-126271428D01*
X50852380Y-126128571D01*
X50852380Y-126033333D01*
X50900000Y-125890476D01*
X50947619Y-125842857D01*
X50852380Y-125509523D02*
X50852380Y-124890476D01*
X51233333Y-125223809D01*
X51233333Y-125080952D01*
X51280952Y-124985714D01*
X51328571Y-124938095D01*
X51423809Y-124890476D01*
X51661904Y-124890476D01*
X51757142Y-124938095D01*
X51804761Y-124985714D01*
X51852380Y-125080952D01*
X51852380Y-125366666D01*
X51804761Y-125461904D01*
X51757142Y-125509523D01*
X50947619Y-124509523D02*
X50900000Y-124461904D01*
X50852380Y-124366666D01*
X50852380Y-124128571D01*
X50900000Y-124033333D01*
X50947619Y-123985714D01*
X51042857Y-123938095D01*
X51138095Y-123938095D01*
X51280952Y-123985714D01*
X51852380Y-124557142D01*
X51852380Y-123938095D01*
%TO.C,RV6*%
X143652380Y-126595238D02*
X143176190Y-126928571D01*
X143652380Y-127166666D02*
X142652380Y-127166666D01*
X142652380Y-126785714D01*
X142700000Y-126690476D01*
X142747619Y-126642857D01*
X142842857Y-126595238D01*
X142985714Y-126595238D01*
X143080952Y-126642857D01*
X143128571Y-126690476D01*
X143176190Y-126785714D01*
X143176190Y-127166666D01*
X142652380Y-126309523D02*
X143652380Y-125976190D01*
X142652380Y-125642857D01*
X142652380Y-124880952D02*
X142652380Y-125071428D01*
X142700000Y-125166666D01*
X142747619Y-125214285D01*
X142890476Y-125309523D01*
X143080952Y-125357142D01*
X143461904Y-125357142D01*
X143557142Y-125309523D01*
X143604761Y-125261904D01*
X143652380Y-125166666D01*
X143652380Y-124976190D01*
X143604761Y-124880952D01*
X143557142Y-124833333D01*
X143461904Y-124785714D01*
X143223809Y-124785714D01*
X143128571Y-124833333D01*
X143080952Y-124880952D01*
X143033333Y-124976190D01*
X143033333Y-125166666D01*
X143080952Y-125261904D01*
X143128571Y-125309523D01*
X143223809Y-125357142D01*
%TO.C,RV5*%
X143652380Y-122595238D02*
X143176190Y-122928571D01*
X143652380Y-123166666D02*
X142652380Y-123166666D01*
X142652380Y-122785714D01*
X142700000Y-122690476D01*
X142747619Y-122642857D01*
X142842857Y-122595238D01*
X142985714Y-122595238D01*
X143080952Y-122642857D01*
X143128571Y-122690476D01*
X143176190Y-122785714D01*
X143176190Y-123166666D01*
X142652380Y-122309523D02*
X143652380Y-121976190D01*
X142652380Y-121642857D01*
X142652380Y-120833333D02*
X142652380Y-121309523D01*
X143128571Y-121357142D01*
X143080952Y-121309523D01*
X143033333Y-121214285D01*
X143033333Y-120976190D01*
X143080952Y-120880952D01*
X143128571Y-120833333D01*
X143223809Y-120785714D01*
X143461904Y-120785714D01*
X143557142Y-120833333D01*
X143604761Y-120880952D01*
X143652380Y-120976190D01*
X143652380Y-121214285D01*
X143604761Y-121309523D01*
X143557142Y-121357142D01*
%TO.C,RV4*%
X143652380Y-118595238D02*
X143176190Y-118928571D01*
X143652380Y-119166666D02*
X142652380Y-119166666D01*
X142652380Y-118785714D01*
X142700000Y-118690476D01*
X142747619Y-118642857D01*
X142842857Y-118595238D01*
X142985714Y-118595238D01*
X143080952Y-118642857D01*
X143128571Y-118690476D01*
X143176190Y-118785714D01*
X143176190Y-119166666D01*
X142652380Y-118309523D02*
X143652380Y-117976190D01*
X142652380Y-117642857D01*
X142985714Y-116880952D02*
X143652380Y-116880952D01*
X142604761Y-117119047D02*
X143319047Y-117357142D01*
X143319047Y-116738095D01*
%TO.C,RV3*%
X143652380Y-114595238D02*
X143176190Y-114928571D01*
X143652380Y-115166666D02*
X142652380Y-115166666D01*
X142652380Y-114785714D01*
X142700000Y-114690476D01*
X142747619Y-114642857D01*
X142842857Y-114595238D01*
X142985714Y-114595238D01*
X143080952Y-114642857D01*
X143128571Y-114690476D01*
X143176190Y-114785714D01*
X143176190Y-115166666D01*
X142652380Y-114309523D02*
X143652380Y-113976190D01*
X142652380Y-113642857D01*
X142652380Y-113404761D02*
X142652380Y-112785714D01*
X143033333Y-113119047D01*
X143033333Y-112976190D01*
X143080952Y-112880952D01*
X143128571Y-112833333D01*
X143223809Y-112785714D01*
X143461904Y-112785714D01*
X143557142Y-112833333D01*
X143604761Y-112880952D01*
X143652380Y-112976190D01*
X143652380Y-113261904D01*
X143604761Y-113357142D01*
X143557142Y-113404761D01*
%TO.C,RV2*%
X143652380Y-110795238D02*
X143176190Y-111128571D01*
X143652380Y-111366666D02*
X142652380Y-111366666D01*
X142652380Y-110985714D01*
X142700000Y-110890476D01*
X142747619Y-110842857D01*
X142842857Y-110795238D01*
X142985714Y-110795238D01*
X143080952Y-110842857D01*
X143128571Y-110890476D01*
X143176190Y-110985714D01*
X143176190Y-111366666D01*
X142652380Y-110509523D02*
X143652380Y-110176190D01*
X142652380Y-109842857D01*
X142747619Y-109557142D02*
X142700000Y-109509523D01*
X142652380Y-109414285D01*
X142652380Y-109176190D01*
X142700000Y-109080952D01*
X142747619Y-109033333D01*
X142842857Y-108985714D01*
X142938095Y-108985714D01*
X143080952Y-109033333D01*
X143652380Y-109604761D01*
X143652380Y-108985714D01*
%TO.C,RV1*%
X143652380Y-106595238D02*
X143176190Y-106928571D01*
X143652380Y-107166666D02*
X142652380Y-107166666D01*
X142652380Y-106785714D01*
X142700000Y-106690476D01*
X142747619Y-106642857D01*
X142842857Y-106595238D01*
X142985714Y-106595238D01*
X143080952Y-106642857D01*
X143128571Y-106690476D01*
X143176190Y-106785714D01*
X143176190Y-107166666D01*
X142652380Y-106309523D02*
X143652380Y-105976190D01*
X142652380Y-105642857D01*
X143652380Y-104785714D02*
X143652380Y-105357142D01*
X143652380Y-105071428D02*
X142652380Y-105071428D01*
X142795238Y-105166666D01*
X142890476Y-105261904D01*
X142938095Y-105357142D01*
%TO.C,R4*%
X108033333Y-145102380D02*
X107700000Y-144626190D01*
X107461904Y-145102380D02*
X107461904Y-144102380D01*
X107842857Y-144102380D01*
X107938095Y-144150000D01*
X107985714Y-144197619D01*
X108033333Y-144292857D01*
X108033333Y-144435714D01*
X107985714Y-144530952D01*
X107938095Y-144578571D01*
X107842857Y-144626190D01*
X107461904Y-144626190D01*
X108890476Y-144435714D02*
X108890476Y-145102380D01*
X108652380Y-144054761D02*
X108414285Y-144769047D01*
X109033333Y-144769047D01*
%TO.C,D2*%
X103861904Y-145102380D02*
X103861904Y-144102380D01*
X104100000Y-144102380D01*
X104242857Y-144150000D01*
X104338095Y-144245238D01*
X104385714Y-144340476D01*
X104433333Y-144530952D01*
X104433333Y-144673809D01*
X104385714Y-144864285D01*
X104338095Y-144959523D01*
X104242857Y-145054761D01*
X104100000Y-145102380D01*
X103861904Y-145102380D01*
X104814285Y-144197619D02*
X104861904Y-144150000D01*
X104957142Y-144102380D01*
X105195238Y-144102380D01*
X105290476Y-144150000D01*
X105338095Y-144197619D01*
X105385714Y-144292857D01*
X105385714Y-144388095D01*
X105338095Y-144530952D01*
X104766666Y-145102380D01*
X105385714Y-145102380D01*
%TO.C,D1*%
X133261904Y-108052380D02*
X133261904Y-107052380D01*
X133500000Y-107052380D01*
X133642857Y-107100000D01*
X133738095Y-107195238D01*
X133785714Y-107290476D01*
X133833333Y-107480952D01*
X133833333Y-107623809D01*
X133785714Y-107814285D01*
X133738095Y-107909523D01*
X133642857Y-108004761D01*
X133500000Y-108052380D01*
X133261904Y-108052380D01*
X134785714Y-108052380D02*
X134214285Y-108052380D01*
X134500000Y-108052380D02*
X134500000Y-107052380D01*
X134404761Y-107195238D01*
X134309523Y-107290476D01*
X134214285Y-107338095D01*
%TO.C,C1*%
X76633333Y-140357142D02*
X76585714Y-140404761D01*
X76442857Y-140452380D01*
X76347619Y-140452380D01*
X76204761Y-140404761D01*
X76109523Y-140309523D01*
X76061904Y-140214285D01*
X76014285Y-140023809D01*
X76014285Y-139880952D01*
X76061904Y-139690476D01*
X76109523Y-139595238D01*
X76204761Y-139500000D01*
X76347619Y-139452380D01*
X76442857Y-139452380D01*
X76585714Y-139500000D01*
X76633333Y-139547619D01*
X77585714Y-140452380D02*
X77014285Y-140452380D01*
X77300000Y-140452380D02*
X77300000Y-139452380D01*
X77204761Y-139595238D01*
X77109523Y-139690476D01*
X77014285Y-139738095D01*
%TO.C,C2*%
X76633333Y-109357142D02*
X76585714Y-109404761D01*
X76442857Y-109452380D01*
X76347619Y-109452380D01*
X76204761Y-109404761D01*
X76109523Y-109309523D01*
X76061904Y-109214285D01*
X76014285Y-109023809D01*
X76014285Y-108880952D01*
X76061904Y-108690476D01*
X76109523Y-108595238D01*
X76204761Y-108500000D01*
X76347619Y-108452380D01*
X76442857Y-108452380D01*
X76585714Y-108500000D01*
X76633333Y-108547619D01*
X77014285Y-108547619D02*
X77061904Y-108500000D01*
X77157142Y-108452380D01*
X77395238Y-108452380D01*
X77490476Y-108500000D01*
X77538095Y-108547619D01*
X77585714Y-108642857D01*
X77585714Y-108738095D01*
X77538095Y-108880952D01*
X76966666Y-109452380D01*
X77585714Y-109452380D01*
%TO.C,C3*%
X99833333Y-84707142D02*
X99785714Y-84754761D01*
X99642857Y-84802380D01*
X99547619Y-84802380D01*
X99404761Y-84754761D01*
X99309523Y-84659523D01*
X99261904Y-84564285D01*
X99214285Y-84373809D01*
X99214285Y-84230952D01*
X99261904Y-84040476D01*
X99309523Y-83945238D01*
X99404761Y-83850000D01*
X99547619Y-83802380D01*
X99642857Y-83802380D01*
X99785714Y-83850000D01*
X99833333Y-83897619D01*
X100166666Y-83802380D02*
X100785714Y-83802380D01*
X100452380Y-84183333D01*
X100595238Y-84183333D01*
X100690476Y-84230952D01*
X100738095Y-84278571D01*
X100785714Y-84373809D01*
X100785714Y-84611904D01*
X100738095Y-84707142D01*
X100690476Y-84754761D01*
X100595238Y-84802380D01*
X100309523Y-84802380D01*
X100214285Y-84754761D01*
X100166666Y-84707142D01*
%TO.C,C4*%
X86433333Y-84507142D02*
X86385714Y-84554761D01*
X86242857Y-84602380D01*
X86147619Y-84602380D01*
X86004761Y-84554761D01*
X85909523Y-84459523D01*
X85861904Y-84364285D01*
X85814285Y-84173809D01*
X85814285Y-84030952D01*
X85861904Y-83840476D01*
X85909523Y-83745238D01*
X86004761Y-83650000D01*
X86147619Y-83602380D01*
X86242857Y-83602380D01*
X86385714Y-83650000D01*
X86433333Y-83697619D01*
X87290476Y-83935714D02*
X87290476Y-84602380D01*
X87052380Y-83554761D02*
X86814285Y-84269047D01*
X87433333Y-84269047D01*
%TO.C,C5*%
X87033333Y-140357142D02*
X86985714Y-140404761D01*
X86842857Y-140452380D01*
X86747619Y-140452380D01*
X86604761Y-140404761D01*
X86509523Y-140309523D01*
X86461904Y-140214285D01*
X86414285Y-140023809D01*
X86414285Y-139880952D01*
X86461904Y-139690476D01*
X86509523Y-139595238D01*
X86604761Y-139500000D01*
X86747619Y-139452380D01*
X86842857Y-139452380D01*
X86985714Y-139500000D01*
X87033333Y-139547619D01*
X87938095Y-139452380D02*
X87461904Y-139452380D01*
X87414285Y-139928571D01*
X87461904Y-139880952D01*
X87557142Y-139833333D01*
X87795238Y-139833333D01*
X87890476Y-139880952D01*
X87938095Y-139928571D01*
X87985714Y-140023809D01*
X87985714Y-140261904D01*
X87938095Y-140357142D01*
X87890476Y-140404761D01*
X87795238Y-140452380D01*
X87557142Y-140452380D01*
X87461904Y-140404761D01*
X87414285Y-140357142D01*
%TO.C,C6*%
X73833333Y-53157142D02*
X73785714Y-53204761D01*
X73642857Y-53252380D01*
X73547619Y-53252380D01*
X73404761Y-53204761D01*
X73309523Y-53109523D01*
X73261904Y-53014285D01*
X73214285Y-52823809D01*
X73214285Y-52680952D01*
X73261904Y-52490476D01*
X73309523Y-52395238D01*
X73404761Y-52300000D01*
X73547619Y-52252380D01*
X73642857Y-52252380D01*
X73785714Y-52300000D01*
X73833333Y-52347619D01*
X74690476Y-52252380D02*
X74500000Y-52252380D01*
X74404761Y-52300000D01*
X74357142Y-52347619D01*
X74261904Y-52490476D01*
X74214285Y-52680952D01*
X74214285Y-53061904D01*
X74261904Y-53157142D01*
X74309523Y-53204761D01*
X74404761Y-53252380D01*
X74595238Y-53252380D01*
X74690476Y-53204761D01*
X74738095Y-53157142D01*
X74785714Y-53061904D01*
X74785714Y-52823809D01*
X74738095Y-52728571D01*
X74690476Y-52680952D01*
X74595238Y-52633333D01*
X74404761Y-52633333D01*
X74309523Y-52680952D01*
X74261904Y-52728571D01*
X74214285Y-52823809D01*
%TO.C,C7*%
X82633333Y-95707142D02*
X82585714Y-95754761D01*
X82442857Y-95802380D01*
X82347619Y-95802380D01*
X82204761Y-95754761D01*
X82109523Y-95659523D01*
X82061904Y-95564285D01*
X82014285Y-95373809D01*
X82014285Y-95230952D01*
X82061904Y-95040476D01*
X82109523Y-94945238D01*
X82204761Y-94850000D01*
X82347619Y-94802380D01*
X82442857Y-94802380D01*
X82585714Y-94850000D01*
X82633333Y-94897619D01*
X82966666Y-94802380D02*
X83633333Y-94802380D01*
X83204761Y-95802380D01*
%TO.C,C8*%
X87233333Y-109557142D02*
X87185714Y-109604761D01*
X87042857Y-109652380D01*
X86947619Y-109652380D01*
X86804761Y-109604761D01*
X86709523Y-109509523D01*
X86661904Y-109414285D01*
X86614285Y-109223809D01*
X86614285Y-109080952D01*
X86661904Y-108890476D01*
X86709523Y-108795238D01*
X86804761Y-108700000D01*
X86947619Y-108652380D01*
X87042857Y-108652380D01*
X87185714Y-108700000D01*
X87233333Y-108747619D01*
X87804761Y-109080952D02*
X87709523Y-109033333D01*
X87661904Y-108985714D01*
X87614285Y-108890476D01*
X87614285Y-108842857D01*
X87661904Y-108747619D01*
X87709523Y-108700000D01*
X87804761Y-108652380D01*
X87995238Y-108652380D01*
X88090476Y-108700000D01*
X88138095Y-108747619D01*
X88185714Y-108842857D01*
X88185714Y-108890476D01*
X88138095Y-108985714D01*
X88090476Y-109033333D01*
X87995238Y-109080952D01*
X87804761Y-109080952D01*
X87709523Y-109128571D01*
X87661904Y-109176190D01*
X87614285Y-109271428D01*
X87614285Y-109461904D01*
X87661904Y-109557142D01*
X87709523Y-109604761D01*
X87804761Y-109652380D01*
X87995238Y-109652380D01*
X88090476Y-109604761D01*
X88138095Y-109557142D01*
X88185714Y-109461904D01*
X88185714Y-109271428D01*
X88138095Y-109176190D01*
X88090476Y-109128571D01*
X87995238Y-109080952D01*
%TO.C,C9*%
X97033333Y-140357142D02*
X96985714Y-140404761D01*
X96842857Y-140452380D01*
X96747619Y-140452380D01*
X96604761Y-140404761D01*
X96509523Y-140309523D01*
X96461904Y-140214285D01*
X96414285Y-140023809D01*
X96414285Y-139880952D01*
X96461904Y-139690476D01*
X96509523Y-139595238D01*
X96604761Y-139500000D01*
X96747619Y-139452380D01*
X96842857Y-139452380D01*
X96985714Y-139500000D01*
X97033333Y-139547619D01*
X97509523Y-140452380D02*
X97700000Y-140452380D01*
X97795238Y-140404761D01*
X97842857Y-140357142D01*
X97938095Y-140214285D01*
X97985714Y-140023809D01*
X97985714Y-139642857D01*
X97938095Y-139547619D01*
X97890476Y-139500000D01*
X97795238Y-139452380D01*
X97604761Y-139452380D01*
X97509523Y-139500000D01*
X97461904Y-139547619D01*
X97414285Y-139642857D01*
X97414285Y-139880952D01*
X97461904Y-139976190D01*
X97509523Y-140023809D01*
X97604761Y-140071428D01*
X97795238Y-140071428D01*
X97890476Y-140023809D01*
X97938095Y-139976190D01*
X97985714Y-139880952D01*
%TO.C,C10*%
X100557142Y-111442857D02*
X100604761Y-111490476D01*
X100652380Y-111633333D01*
X100652380Y-111728571D01*
X100604761Y-111871428D01*
X100509523Y-111966666D01*
X100414285Y-112014285D01*
X100223809Y-112061904D01*
X100080952Y-112061904D01*
X99890476Y-112014285D01*
X99795238Y-111966666D01*
X99700000Y-111871428D01*
X99652380Y-111728571D01*
X99652380Y-111633333D01*
X99700000Y-111490476D01*
X99747619Y-111442857D01*
X100652380Y-110490476D02*
X100652380Y-111061904D01*
X100652380Y-110776190D02*
X99652380Y-110776190D01*
X99795238Y-110871428D01*
X99890476Y-110966666D01*
X99938095Y-111061904D01*
X99652380Y-109871428D02*
X99652380Y-109776190D01*
X99700000Y-109680952D01*
X99747619Y-109633333D01*
X99842857Y-109585714D01*
X100033333Y-109538095D01*
X100271428Y-109538095D01*
X100461904Y-109585714D01*
X100557142Y-109633333D01*
X100604761Y-109680952D01*
X100652380Y-109776190D01*
X100652380Y-109871428D01*
X100604761Y-109966666D01*
X100557142Y-110014285D01*
X100461904Y-110061904D01*
X100271428Y-110109523D01*
X100033333Y-110109523D01*
X99842857Y-110061904D01*
X99747619Y-110014285D01*
X99700000Y-109966666D01*
X99652380Y-109871428D01*
%TO.C,C11*%
X83157142Y-61007142D02*
X83109523Y-61054761D01*
X82966666Y-61102380D01*
X82871428Y-61102380D01*
X82728571Y-61054761D01*
X82633333Y-60959523D01*
X82585714Y-60864285D01*
X82538095Y-60673809D01*
X82538095Y-60530952D01*
X82585714Y-60340476D01*
X82633333Y-60245238D01*
X82728571Y-60150000D01*
X82871428Y-60102380D01*
X82966666Y-60102380D01*
X83109523Y-60150000D01*
X83157142Y-60197619D01*
X84109523Y-61102380D02*
X83538095Y-61102380D01*
X83823809Y-61102380D02*
X83823809Y-60102380D01*
X83728571Y-60245238D01*
X83633333Y-60340476D01*
X83538095Y-60388095D01*
X85061904Y-61102380D02*
X84490476Y-61102380D01*
X84776190Y-61102380D02*
X84776190Y-60102380D01*
X84680952Y-60245238D01*
X84585714Y-60340476D01*
X84490476Y-60388095D01*
%TO.C,C12*%
X83157142Y-76607142D02*
X83109523Y-76654761D01*
X82966666Y-76702380D01*
X82871428Y-76702380D01*
X82728571Y-76654761D01*
X82633333Y-76559523D01*
X82585714Y-76464285D01*
X82538095Y-76273809D01*
X82538095Y-76130952D01*
X82585714Y-75940476D01*
X82633333Y-75845238D01*
X82728571Y-75750000D01*
X82871428Y-75702380D01*
X82966666Y-75702380D01*
X83109523Y-75750000D01*
X83157142Y-75797619D01*
X84109523Y-76702380D02*
X83538095Y-76702380D01*
X83823809Y-76702380D02*
X83823809Y-75702380D01*
X83728571Y-75845238D01*
X83633333Y-75940476D01*
X83538095Y-75988095D01*
X84490476Y-75797619D02*
X84538095Y-75750000D01*
X84633333Y-75702380D01*
X84871428Y-75702380D01*
X84966666Y-75750000D01*
X85014285Y-75797619D01*
X85061904Y-75892857D01*
X85061904Y-75988095D01*
X85014285Y-76130952D01*
X84442857Y-76702380D01*
X85061904Y-76702380D01*
%TO.C,C14*%
X85757142Y-124957142D02*
X85709523Y-125004761D01*
X85566666Y-125052380D01*
X85471428Y-125052380D01*
X85328571Y-125004761D01*
X85233333Y-124909523D01*
X85185714Y-124814285D01*
X85138095Y-124623809D01*
X85138095Y-124480952D01*
X85185714Y-124290476D01*
X85233333Y-124195238D01*
X85328571Y-124100000D01*
X85471428Y-124052380D01*
X85566666Y-124052380D01*
X85709523Y-124100000D01*
X85757142Y-124147619D01*
X86709523Y-125052380D02*
X86138095Y-125052380D01*
X86423809Y-125052380D02*
X86423809Y-124052380D01*
X86328571Y-124195238D01*
X86233333Y-124290476D01*
X86138095Y-124338095D01*
X87566666Y-124385714D02*
X87566666Y-125052380D01*
X87328571Y-124004761D02*
X87090476Y-124719047D01*
X87709523Y-124719047D01*
%TO.C,C15*%
X75357142Y-66957142D02*
X75309523Y-67004761D01*
X75166666Y-67052380D01*
X75071428Y-67052380D01*
X74928571Y-67004761D01*
X74833333Y-66909523D01*
X74785714Y-66814285D01*
X74738095Y-66623809D01*
X74738095Y-66480952D01*
X74785714Y-66290476D01*
X74833333Y-66195238D01*
X74928571Y-66100000D01*
X75071428Y-66052380D01*
X75166666Y-66052380D01*
X75309523Y-66100000D01*
X75357142Y-66147619D01*
X76309523Y-67052380D02*
X75738095Y-67052380D01*
X76023809Y-67052380D02*
X76023809Y-66052380D01*
X75928571Y-66195238D01*
X75833333Y-66290476D01*
X75738095Y-66338095D01*
X77214285Y-66052380D02*
X76738095Y-66052380D01*
X76690476Y-66528571D01*
X76738095Y-66480952D01*
X76833333Y-66433333D01*
X77071428Y-66433333D01*
X77166666Y-66480952D01*
X77214285Y-66528571D01*
X77261904Y-66623809D01*
X77261904Y-66861904D01*
X77214285Y-66957142D01*
X77166666Y-67004761D01*
X77071428Y-67052380D01*
X76833333Y-67052380D01*
X76738095Y-67004761D01*
X76690476Y-66957142D01*
%TO.C,C16*%
X109357142Y-104707142D02*
X109309523Y-104754761D01*
X109166666Y-104802380D01*
X109071428Y-104802380D01*
X108928571Y-104754761D01*
X108833333Y-104659523D01*
X108785714Y-104564285D01*
X108738095Y-104373809D01*
X108738095Y-104230952D01*
X108785714Y-104040476D01*
X108833333Y-103945238D01*
X108928571Y-103850000D01*
X109071428Y-103802380D01*
X109166666Y-103802380D01*
X109309523Y-103850000D01*
X109357142Y-103897619D01*
X110309523Y-104802380D02*
X109738095Y-104802380D01*
X110023809Y-104802380D02*
X110023809Y-103802380D01*
X109928571Y-103945238D01*
X109833333Y-104040476D01*
X109738095Y-104088095D01*
X111166666Y-103802380D02*
X110976190Y-103802380D01*
X110880952Y-103850000D01*
X110833333Y-103897619D01*
X110738095Y-104040476D01*
X110690476Y-104230952D01*
X110690476Y-104611904D01*
X110738095Y-104707142D01*
X110785714Y-104754761D01*
X110880952Y-104802380D01*
X111071428Y-104802380D01*
X111166666Y-104754761D01*
X111214285Y-104707142D01*
X111261904Y-104611904D01*
X111261904Y-104373809D01*
X111214285Y-104278571D01*
X111166666Y-104230952D01*
X111071428Y-104183333D01*
X110880952Y-104183333D01*
X110785714Y-104230952D01*
X110738095Y-104278571D01*
X110690476Y-104373809D01*
%TO.C,C18*%
X119757142Y-139907142D02*
X119709523Y-139954761D01*
X119566666Y-140002380D01*
X119471428Y-140002380D01*
X119328571Y-139954761D01*
X119233333Y-139859523D01*
X119185714Y-139764285D01*
X119138095Y-139573809D01*
X119138095Y-139430952D01*
X119185714Y-139240476D01*
X119233333Y-139145238D01*
X119328571Y-139050000D01*
X119471428Y-139002380D01*
X119566666Y-139002380D01*
X119709523Y-139050000D01*
X119757142Y-139097619D01*
X120709523Y-140002380D02*
X120138095Y-140002380D01*
X120423809Y-140002380D02*
X120423809Y-139002380D01*
X120328571Y-139145238D01*
X120233333Y-139240476D01*
X120138095Y-139288095D01*
X121280952Y-139430952D02*
X121185714Y-139383333D01*
X121138095Y-139335714D01*
X121090476Y-139240476D01*
X121090476Y-139192857D01*
X121138095Y-139097619D01*
X121185714Y-139050000D01*
X121280952Y-139002380D01*
X121471428Y-139002380D01*
X121566666Y-139050000D01*
X121614285Y-139097619D01*
X121661904Y-139192857D01*
X121661904Y-139240476D01*
X121614285Y-139335714D01*
X121566666Y-139383333D01*
X121471428Y-139430952D01*
X121280952Y-139430952D01*
X121185714Y-139478571D01*
X121138095Y-139526190D01*
X121090476Y-139621428D01*
X121090476Y-139811904D01*
X121138095Y-139907142D01*
X121185714Y-139954761D01*
X121280952Y-140002380D01*
X121471428Y-140002380D01*
X121566666Y-139954761D01*
X121614285Y-139907142D01*
X121661904Y-139811904D01*
X121661904Y-139621428D01*
X121614285Y-139526190D01*
X121566666Y-139478571D01*
X121471428Y-139430952D01*
%TO.C,C19*%
X75357142Y-124957142D02*
X75309523Y-125004761D01*
X75166666Y-125052380D01*
X75071428Y-125052380D01*
X74928571Y-125004761D01*
X74833333Y-124909523D01*
X74785714Y-124814285D01*
X74738095Y-124623809D01*
X74738095Y-124480952D01*
X74785714Y-124290476D01*
X74833333Y-124195238D01*
X74928571Y-124100000D01*
X75071428Y-124052380D01*
X75166666Y-124052380D01*
X75309523Y-124100000D01*
X75357142Y-124147619D01*
X76309523Y-125052380D02*
X75738095Y-125052380D01*
X76023809Y-125052380D02*
X76023809Y-124052380D01*
X75928571Y-124195238D01*
X75833333Y-124290476D01*
X75738095Y-124338095D01*
X76785714Y-125052380D02*
X76976190Y-125052380D01*
X77071428Y-125004761D01*
X77119047Y-124957142D01*
X77214285Y-124814285D01*
X77261904Y-124623809D01*
X77261904Y-124242857D01*
X77214285Y-124147619D01*
X77166666Y-124100000D01*
X77071428Y-124052380D01*
X76880952Y-124052380D01*
X76785714Y-124100000D01*
X76738095Y-124147619D01*
X76690476Y-124242857D01*
X76690476Y-124480952D01*
X76738095Y-124576190D01*
X76785714Y-124623809D01*
X76880952Y-124671428D01*
X77071428Y-124671428D01*
X77166666Y-124623809D01*
X77214285Y-124576190D01*
X77261904Y-124480952D01*
%TO.C,C20*%
X131557142Y-75957142D02*
X131509523Y-76004761D01*
X131366666Y-76052380D01*
X131271428Y-76052380D01*
X131128571Y-76004761D01*
X131033333Y-75909523D01*
X130985714Y-75814285D01*
X130938095Y-75623809D01*
X130938095Y-75480952D01*
X130985714Y-75290476D01*
X131033333Y-75195238D01*
X131128571Y-75100000D01*
X131271428Y-75052380D01*
X131366666Y-75052380D01*
X131509523Y-75100000D01*
X131557142Y-75147619D01*
X131938095Y-75147619D02*
X131985714Y-75100000D01*
X132080952Y-75052380D01*
X132319047Y-75052380D01*
X132414285Y-75100000D01*
X132461904Y-75147619D01*
X132509523Y-75242857D01*
X132509523Y-75338095D01*
X132461904Y-75480952D01*
X131890476Y-76052380D01*
X132509523Y-76052380D01*
X133128571Y-75052380D02*
X133223809Y-75052380D01*
X133319047Y-75100000D01*
X133366666Y-75147619D01*
X133414285Y-75242857D01*
X133461904Y-75433333D01*
X133461904Y-75671428D01*
X133414285Y-75861904D01*
X133366666Y-75957142D01*
X133319047Y-76004761D01*
X133223809Y-76052380D01*
X133128571Y-76052380D01*
X133033333Y-76004761D01*
X132985714Y-75957142D01*
X132938095Y-75861904D01*
X132890476Y-75671428D01*
X132890476Y-75433333D01*
X132938095Y-75242857D01*
X132985714Y-75147619D01*
X133033333Y-75100000D01*
X133128571Y-75052380D01*
%TO.C,C21*%
X116357142Y-75957142D02*
X116309523Y-76004761D01*
X116166666Y-76052380D01*
X116071428Y-76052380D01*
X115928571Y-76004761D01*
X115833333Y-75909523D01*
X115785714Y-75814285D01*
X115738095Y-75623809D01*
X115738095Y-75480952D01*
X115785714Y-75290476D01*
X115833333Y-75195238D01*
X115928571Y-75100000D01*
X116071428Y-75052380D01*
X116166666Y-75052380D01*
X116309523Y-75100000D01*
X116357142Y-75147619D01*
X116738095Y-75147619D02*
X116785714Y-75100000D01*
X116880952Y-75052380D01*
X117119047Y-75052380D01*
X117214285Y-75100000D01*
X117261904Y-75147619D01*
X117309523Y-75242857D01*
X117309523Y-75338095D01*
X117261904Y-75480952D01*
X116690476Y-76052380D01*
X117309523Y-76052380D01*
X118261904Y-76052380D02*
X117690476Y-76052380D01*
X117976190Y-76052380D02*
X117976190Y-75052380D01*
X117880952Y-75195238D01*
X117785714Y-75290476D01*
X117690476Y-75338095D01*
%TO.C,C22*%
X137457142Y-139257142D02*
X137409523Y-139304761D01*
X137266666Y-139352380D01*
X137171428Y-139352380D01*
X137028571Y-139304761D01*
X136933333Y-139209523D01*
X136885714Y-139114285D01*
X136838095Y-138923809D01*
X136838095Y-138780952D01*
X136885714Y-138590476D01*
X136933333Y-138495238D01*
X137028571Y-138400000D01*
X137171428Y-138352380D01*
X137266666Y-138352380D01*
X137409523Y-138400000D01*
X137457142Y-138447619D01*
X137838095Y-138447619D02*
X137885714Y-138400000D01*
X137980952Y-138352380D01*
X138219047Y-138352380D01*
X138314285Y-138400000D01*
X138361904Y-138447619D01*
X138409523Y-138542857D01*
X138409523Y-138638095D01*
X138361904Y-138780952D01*
X137790476Y-139352380D01*
X138409523Y-139352380D01*
X138790476Y-138447619D02*
X138838095Y-138400000D01*
X138933333Y-138352380D01*
X139171428Y-138352380D01*
X139266666Y-138400000D01*
X139314285Y-138447619D01*
X139361904Y-138542857D01*
X139361904Y-138638095D01*
X139314285Y-138780952D01*
X138742857Y-139352380D01*
X139361904Y-139352380D01*
%TO.C,C23*%
X120957142Y-116507142D02*
X120909523Y-116554761D01*
X120766666Y-116602380D01*
X120671428Y-116602380D01*
X120528571Y-116554761D01*
X120433333Y-116459523D01*
X120385714Y-116364285D01*
X120338095Y-116173809D01*
X120338095Y-116030952D01*
X120385714Y-115840476D01*
X120433333Y-115745238D01*
X120528571Y-115650000D01*
X120671428Y-115602380D01*
X120766666Y-115602380D01*
X120909523Y-115650000D01*
X120957142Y-115697619D01*
X121338095Y-115697619D02*
X121385714Y-115650000D01*
X121480952Y-115602380D01*
X121719047Y-115602380D01*
X121814285Y-115650000D01*
X121861904Y-115697619D01*
X121909523Y-115792857D01*
X121909523Y-115888095D01*
X121861904Y-116030952D01*
X121290476Y-116602380D01*
X121909523Y-116602380D01*
X122242857Y-115602380D02*
X122861904Y-115602380D01*
X122528571Y-115983333D01*
X122671428Y-115983333D01*
X122766666Y-116030952D01*
X122814285Y-116078571D01*
X122861904Y-116173809D01*
X122861904Y-116411904D01*
X122814285Y-116507142D01*
X122766666Y-116554761D01*
X122671428Y-116602380D01*
X122385714Y-116602380D01*
X122290476Y-116554761D01*
X122242857Y-116507142D01*
%TO.C,C24*%
X132157142Y-90907142D02*
X132109523Y-90954761D01*
X131966666Y-91002380D01*
X131871428Y-91002380D01*
X131728571Y-90954761D01*
X131633333Y-90859523D01*
X131585714Y-90764285D01*
X131538095Y-90573809D01*
X131538095Y-90430952D01*
X131585714Y-90240476D01*
X131633333Y-90145238D01*
X131728571Y-90050000D01*
X131871428Y-90002380D01*
X131966666Y-90002380D01*
X132109523Y-90050000D01*
X132157142Y-90097619D01*
X132538095Y-90097619D02*
X132585714Y-90050000D01*
X132680952Y-90002380D01*
X132919047Y-90002380D01*
X133014285Y-90050000D01*
X133061904Y-90097619D01*
X133109523Y-90192857D01*
X133109523Y-90288095D01*
X133061904Y-90430952D01*
X132490476Y-91002380D01*
X133109523Y-91002380D01*
X133966666Y-90335714D02*
X133966666Y-91002380D01*
X133728571Y-89954761D02*
X133490476Y-90669047D01*
X134109523Y-90669047D01*
%TO.C,C25*%
X126557142Y-136207142D02*
X126509523Y-136254761D01*
X126366666Y-136302380D01*
X126271428Y-136302380D01*
X126128571Y-136254761D01*
X126033333Y-136159523D01*
X125985714Y-136064285D01*
X125938095Y-135873809D01*
X125938095Y-135730952D01*
X125985714Y-135540476D01*
X126033333Y-135445238D01*
X126128571Y-135350000D01*
X126271428Y-135302380D01*
X126366666Y-135302380D01*
X126509523Y-135350000D01*
X126557142Y-135397619D01*
X126938095Y-135397619D02*
X126985714Y-135350000D01*
X127080952Y-135302380D01*
X127319047Y-135302380D01*
X127414285Y-135350000D01*
X127461904Y-135397619D01*
X127509523Y-135492857D01*
X127509523Y-135588095D01*
X127461904Y-135730952D01*
X126890476Y-136302380D01*
X127509523Y-136302380D01*
X128414285Y-135302380D02*
X127938095Y-135302380D01*
X127890476Y-135778571D01*
X127938095Y-135730952D01*
X128033333Y-135683333D01*
X128271428Y-135683333D01*
X128366666Y-135730952D01*
X128414285Y-135778571D01*
X128461904Y-135873809D01*
X128461904Y-136111904D01*
X128414285Y-136207142D01*
X128366666Y-136254761D01*
X128271428Y-136302380D01*
X128033333Y-136302380D01*
X127938095Y-136254761D01*
X127890476Y-136207142D01*
%TO.C,C26*%
X97557142Y-124957142D02*
X97509523Y-125004761D01*
X97366666Y-125052380D01*
X97271428Y-125052380D01*
X97128571Y-125004761D01*
X97033333Y-124909523D01*
X96985714Y-124814285D01*
X96938095Y-124623809D01*
X96938095Y-124480952D01*
X96985714Y-124290476D01*
X97033333Y-124195238D01*
X97128571Y-124100000D01*
X97271428Y-124052380D01*
X97366666Y-124052380D01*
X97509523Y-124100000D01*
X97557142Y-124147619D01*
X97938095Y-124147619D02*
X97985714Y-124100000D01*
X98080952Y-124052380D01*
X98319047Y-124052380D01*
X98414285Y-124100000D01*
X98461904Y-124147619D01*
X98509523Y-124242857D01*
X98509523Y-124338095D01*
X98461904Y-124480952D01*
X97890476Y-125052380D01*
X98509523Y-125052380D01*
X99366666Y-124052380D02*
X99176190Y-124052380D01*
X99080952Y-124100000D01*
X99033333Y-124147619D01*
X98938095Y-124290476D01*
X98890476Y-124480952D01*
X98890476Y-124861904D01*
X98938095Y-124957142D01*
X98985714Y-125004761D01*
X99080952Y-125052380D01*
X99271428Y-125052380D01*
X99366666Y-125004761D01*
X99414285Y-124957142D01*
X99461904Y-124861904D01*
X99461904Y-124623809D01*
X99414285Y-124528571D01*
X99366666Y-124480952D01*
X99271428Y-124433333D01*
X99080952Y-124433333D01*
X98985714Y-124480952D01*
X98938095Y-124528571D01*
X98890476Y-124623809D01*
%TO.C,C27*%
X116357142Y-91557142D02*
X116309523Y-91604761D01*
X116166666Y-91652380D01*
X116071428Y-91652380D01*
X115928571Y-91604761D01*
X115833333Y-91509523D01*
X115785714Y-91414285D01*
X115738095Y-91223809D01*
X115738095Y-91080952D01*
X115785714Y-90890476D01*
X115833333Y-90795238D01*
X115928571Y-90700000D01*
X116071428Y-90652380D01*
X116166666Y-90652380D01*
X116309523Y-90700000D01*
X116357142Y-90747619D01*
X116738095Y-90747619D02*
X116785714Y-90700000D01*
X116880952Y-90652380D01*
X117119047Y-90652380D01*
X117214285Y-90700000D01*
X117261904Y-90747619D01*
X117309523Y-90842857D01*
X117309523Y-90938095D01*
X117261904Y-91080952D01*
X116690476Y-91652380D01*
X117309523Y-91652380D01*
X117642857Y-90652380D02*
X118309523Y-90652380D01*
X117880952Y-91652380D01*
%TO.C,C28*%
X109157142Y-129707142D02*
X109109523Y-129754761D01*
X108966666Y-129802380D01*
X108871428Y-129802380D01*
X108728571Y-129754761D01*
X108633333Y-129659523D01*
X108585714Y-129564285D01*
X108538095Y-129373809D01*
X108538095Y-129230952D01*
X108585714Y-129040476D01*
X108633333Y-128945238D01*
X108728571Y-128850000D01*
X108871428Y-128802380D01*
X108966666Y-128802380D01*
X109109523Y-128850000D01*
X109157142Y-128897619D01*
X109538095Y-128897619D02*
X109585714Y-128850000D01*
X109680952Y-128802380D01*
X109919047Y-128802380D01*
X110014285Y-128850000D01*
X110061904Y-128897619D01*
X110109523Y-128992857D01*
X110109523Y-129088095D01*
X110061904Y-129230952D01*
X109490476Y-129802380D01*
X110109523Y-129802380D01*
X110680952Y-129230952D02*
X110585714Y-129183333D01*
X110538095Y-129135714D01*
X110490476Y-129040476D01*
X110490476Y-128992857D01*
X110538095Y-128897619D01*
X110585714Y-128850000D01*
X110680952Y-128802380D01*
X110871428Y-128802380D01*
X110966666Y-128850000D01*
X111014285Y-128897619D01*
X111061904Y-128992857D01*
X111061904Y-129040476D01*
X111014285Y-129135714D01*
X110966666Y-129183333D01*
X110871428Y-129230952D01*
X110680952Y-129230952D01*
X110585714Y-129278571D01*
X110538095Y-129326190D01*
X110490476Y-129421428D01*
X110490476Y-129611904D01*
X110538095Y-129707142D01*
X110585714Y-129754761D01*
X110680952Y-129802380D01*
X110871428Y-129802380D01*
X110966666Y-129754761D01*
X111014285Y-129707142D01*
X111061904Y-129611904D01*
X111061904Y-129421428D01*
X111014285Y-129326190D01*
X110966666Y-129278571D01*
X110871428Y-129230952D01*
%TO.C,C29*%
X108957142Y-116507142D02*
X108909523Y-116554761D01*
X108766666Y-116602380D01*
X108671428Y-116602380D01*
X108528571Y-116554761D01*
X108433333Y-116459523D01*
X108385714Y-116364285D01*
X108338095Y-116173809D01*
X108338095Y-116030952D01*
X108385714Y-115840476D01*
X108433333Y-115745238D01*
X108528571Y-115650000D01*
X108671428Y-115602380D01*
X108766666Y-115602380D01*
X108909523Y-115650000D01*
X108957142Y-115697619D01*
X109338095Y-115697619D02*
X109385714Y-115650000D01*
X109480952Y-115602380D01*
X109719047Y-115602380D01*
X109814285Y-115650000D01*
X109861904Y-115697619D01*
X109909523Y-115792857D01*
X109909523Y-115888095D01*
X109861904Y-116030952D01*
X109290476Y-116602380D01*
X109909523Y-116602380D01*
X110385714Y-116602380D02*
X110576190Y-116602380D01*
X110671428Y-116554761D01*
X110719047Y-116507142D01*
X110814285Y-116364285D01*
X110861904Y-116173809D01*
X110861904Y-115792857D01*
X110814285Y-115697619D01*
X110766666Y-115650000D01*
X110671428Y-115602380D01*
X110480952Y-115602380D01*
X110385714Y-115650000D01*
X110338095Y-115697619D01*
X110290476Y-115792857D01*
X110290476Y-116030952D01*
X110338095Y-116126190D01*
X110385714Y-116173809D01*
X110480952Y-116221428D01*
X110671428Y-116221428D01*
X110766666Y-116173809D01*
X110814285Y-116126190D01*
X110861904Y-116030952D01*
%TO.C,C30*%
X121157142Y-129707142D02*
X121109523Y-129754761D01*
X120966666Y-129802380D01*
X120871428Y-129802380D01*
X120728571Y-129754761D01*
X120633333Y-129659523D01*
X120585714Y-129564285D01*
X120538095Y-129373809D01*
X120538095Y-129230952D01*
X120585714Y-129040476D01*
X120633333Y-128945238D01*
X120728571Y-128850000D01*
X120871428Y-128802380D01*
X120966666Y-128802380D01*
X121109523Y-128850000D01*
X121157142Y-128897619D01*
X121490476Y-128802380D02*
X122109523Y-128802380D01*
X121776190Y-129183333D01*
X121919047Y-129183333D01*
X122014285Y-129230952D01*
X122061904Y-129278571D01*
X122109523Y-129373809D01*
X122109523Y-129611904D01*
X122061904Y-129707142D01*
X122014285Y-129754761D01*
X121919047Y-129802380D01*
X121633333Y-129802380D01*
X121538095Y-129754761D01*
X121490476Y-129707142D01*
X122728571Y-128802380D02*
X122823809Y-128802380D01*
X122919047Y-128850000D01*
X122966666Y-128897619D01*
X123014285Y-128992857D01*
X123061904Y-129183333D01*
X123061904Y-129421428D01*
X123014285Y-129611904D01*
X122966666Y-129707142D01*
X122919047Y-129754761D01*
X122823809Y-129802380D01*
X122728571Y-129802380D01*
X122633333Y-129754761D01*
X122585714Y-129707142D01*
X122538095Y-129611904D01*
X122490476Y-129421428D01*
X122490476Y-129183333D01*
X122538095Y-128992857D01*
X122585714Y-128897619D01*
X122633333Y-128850000D01*
X122728571Y-128802380D01*
%TO.C,Q1*%
X64304761Y-84047619D02*
X64209523Y-84000000D01*
X64114285Y-83904761D01*
X63971428Y-83761904D01*
X63876190Y-83714285D01*
X63780952Y-83714285D01*
X63828571Y-83952380D02*
X63733333Y-83904761D01*
X63638095Y-83809523D01*
X63590476Y-83619047D01*
X63590476Y-83285714D01*
X63638095Y-83095238D01*
X63733333Y-83000000D01*
X63828571Y-82952380D01*
X64019047Y-82952380D01*
X64114285Y-83000000D01*
X64209523Y-83095238D01*
X64257142Y-83285714D01*
X64257142Y-83619047D01*
X64209523Y-83809523D01*
X64114285Y-83904761D01*
X64019047Y-83952380D01*
X63828571Y-83952380D01*
X65209523Y-83952380D02*
X64638095Y-83952380D01*
X64923809Y-83952380D02*
X64923809Y-82952380D01*
X64828571Y-83095238D01*
X64733333Y-83190476D01*
X64638095Y-83238095D01*
%TO.C,R1*%
X127633333Y-145052380D02*
X127300000Y-144576190D01*
X127061904Y-145052380D02*
X127061904Y-144052380D01*
X127442857Y-144052380D01*
X127538095Y-144100000D01*
X127585714Y-144147619D01*
X127633333Y-144242857D01*
X127633333Y-144385714D01*
X127585714Y-144480952D01*
X127538095Y-144528571D01*
X127442857Y-144576190D01*
X127061904Y-144576190D01*
X128585714Y-145052380D02*
X128014285Y-145052380D01*
X128300000Y-145052380D02*
X128300000Y-144052380D01*
X128204761Y-144195238D01*
X128109523Y-144290476D01*
X128014285Y-144338095D01*
%TO.C,R2*%
X79833333Y-121052380D02*
X79500000Y-120576190D01*
X79261904Y-121052380D02*
X79261904Y-120052380D01*
X79642857Y-120052380D01*
X79738095Y-120100000D01*
X79785714Y-120147619D01*
X79833333Y-120242857D01*
X79833333Y-120385714D01*
X79785714Y-120480952D01*
X79738095Y-120528571D01*
X79642857Y-120576190D01*
X79261904Y-120576190D01*
X80214285Y-120147619D02*
X80261904Y-120100000D01*
X80357142Y-120052380D01*
X80595238Y-120052380D01*
X80690476Y-120100000D01*
X80738095Y-120147619D01*
X80785714Y-120242857D01*
X80785714Y-120338095D01*
X80738095Y-120480952D01*
X80166666Y-121052380D01*
X80785714Y-121052380D01*
%TO.C,R3*%
X123433333Y-98402380D02*
X123100000Y-97926190D01*
X122861904Y-98402380D02*
X122861904Y-97402380D01*
X123242857Y-97402380D01*
X123338095Y-97450000D01*
X123385714Y-97497619D01*
X123433333Y-97592857D01*
X123433333Y-97735714D01*
X123385714Y-97830952D01*
X123338095Y-97878571D01*
X123242857Y-97926190D01*
X122861904Y-97926190D01*
X123766666Y-97402380D02*
X124385714Y-97402380D01*
X124052380Y-97783333D01*
X124195238Y-97783333D01*
X124290476Y-97830952D01*
X124338095Y-97878571D01*
X124385714Y-97973809D01*
X124385714Y-98211904D01*
X124338095Y-98307142D01*
X124290476Y-98354761D01*
X124195238Y-98402380D01*
X123909523Y-98402380D01*
X123814285Y-98354761D01*
X123766666Y-98307142D01*
%TO.C,U1*%
X72838095Y-110802380D02*
X72838095Y-111611904D01*
X72885714Y-111707142D01*
X72933333Y-111754761D01*
X73028571Y-111802380D01*
X73219047Y-111802380D01*
X73314285Y-111754761D01*
X73361904Y-111707142D01*
X73409523Y-111611904D01*
X73409523Y-110802380D01*
X74409523Y-111802380D02*
X73838095Y-111802380D01*
X74123809Y-111802380D02*
X74123809Y-110802380D01*
X74028571Y-110945238D01*
X73933333Y-111040476D01*
X73838095Y-111088095D01*
%TO.C,U2*%
X72438095Y-141602380D02*
X72438095Y-142411904D01*
X72485714Y-142507142D01*
X72533333Y-142554761D01*
X72628571Y-142602380D01*
X72819047Y-142602380D01*
X72914285Y-142554761D01*
X72961904Y-142507142D01*
X73009523Y-142411904D01*
X73009523Y-141602380D01*
X73438095Y-141697619D02*
X73485714Y-141650000D01*
X73580952Y-141602380D01*
X73819047Y-141602380D01*
X73914285Y-141650000D01*
X73961904Y-141697619D01*
X74009523Y-141792857D01*
X74009523Y-141888095D01*
X73961904Y-142030952D01*
X73390476Y-142602380D01*
X74009523Y-142602380D01*
%TO.C,U3*%
X95238095Y-86002380D02*
X95238095Y-86811904D01*
X95285714Y-86907142D01*
X95333333Y-86954761D01*
X95428571Y-87002380D01*
X95619047Y-87002380D01*
X95714285Y-86954761D01*
X95761904Y-86907142D01*
X95809523Y-86811904D01*
X95809523Y-86002380D01*
X96190476Y-86002380D02*
X96809523Y-86002380D01*
X96476190Y-86383333D01*
X96619047Y-86383333D01*
X96714285Y-86430952D01*
X96761904Y-86478571D01*
X96809523Y-86573809D01*
X96809523Y-86811904D01*
X96761904Y-86907142D01*
X96714285Y-86954761D01*
X96619047Y-87002380D01*
X96333333Y-87002380D01*
X96238095Y-86954761D01*
X96190476Y-86907142D01*
%TO.C,U4*%
X82038095Y-85802380D02*
X82038095Y-86611904D01*
X82085714Y-86707142D01*
X82133333Y-86754761D01*
X82228571Y-86802380D01*
X82419047Y-86802380D01*
X82514285Y-86754761D01*
X82561904Y-86707142D01*
X82609523Y-86611904D01*
X82609523Y-85802380D01*
X83514285Y-86135714D02*
X83514285Y-86802380D01*
X83276190Y-85754761D02*
X83038095Y-86469047D01*
X83657142Y-86469047D01*
%TO.C,U5*%
X78638095Y-97002380D02*
X78638095Y-97811904D01*
X78685714Y-97907142D01*
X78733333Y-97954761D01*
X78828571Y-98002380D01*
X79019047Y-98002380D01*
X79114285Y-97954761D01*
X79161904Y-97907142D01*
X79209523Y-97811904D01*
X79209523Y-97002380D01*
X80161904Y-97002380D02*
X79685714Y-97002380D01*
X79638095Y-97478571D01*
X79685714Y-97430952D01*
X79780952Y-97383333D01*
X80019047Y-97383333D01*
X80114285Y-97430952D01*
X80161904Y-97478571D01*
X80209523Y-97573809D01*
X80209523Y-97811904D01*
X80161904Y-97907142D01*
X80114285Y-97954761D01*
X80019047Y-98002380D01*
X79780952Y-98002380D01*
X79685714Y-97954761D01*
X79638095Y-97907142D01*
%TO.C,U6*%
X83238095Y-110802380D02*
X83238095Y-111611904D01*
X83285714Y-111707142D01*
X83333333Y-111754761D01*
X83428571Y-111802380D01*
X83619047Y-111802380D01*
X83714285Y-111754761D01*
X83761904Y-111707142D01*
X83809523Y-111611904D01*
X83809523Y-110802380D01*
X84714285Y-110802380D02*
X84523809Y-110802380D01*
X84428571Y-110850000D01*
X84380952Y-110897619D01*
X84285714Y-111040476D01*
X84238095Y-111230952D01*
X84238095Y-111611904D01*
X84285714Y-111707142D01*
X84333333Y-111754761D01*
X84428571Y-111802380D01*
X84619047Y-111802380D01*
X84714285Y-111754761D01*
X84761904Y-111707142D01*
X84809523Y-111611904D01*
X84809523Y-111373809D01*
X84761904Y-111278571D01*
X84714285Y-111230952D01*
X84619047Y-111183333D01*
X84428571Y-111183333D01*
X84333333Y-111230952D01*
X84285714Y-111278571D01*
X84238095Y-111373809D01*
%TO.C,U7*%
X82838095Y-141602380D02*
X82838095Y-142411904D01*
X82885714Y-142507142D01*
X82933333Y-142554761D01*
X83028571Y-142602380D01*
X83219047Y-142602380D01*
X83314285Y-142554761D01*
X83361904Y-142507142D01*
X83409523Y-142411904D01*
X83409523Y-141602380D01*
X83790476Y-141602380D02*
X84457142Y-141602380D01*
X84028571Y-142602380D01*
%TO.C,U8*%
X72238095Y-53852380D02*
X72238095Y-54661904D01*
X72285714Y-54757142D01*
X72333333Y-54804761D01*
X72428571Y-54852380D01*
X72619047Y-54852380D01*
X72714285Y-54804761D01*
X72761904Y-54757142D01*
X72809523Y-54661904D01*
X72809523Y-53852380D01*
X73428571Y-54280952D02*
X73333333Y-54233333D01*
X73285714Y-54185714D01*
X73238095Y-54090476D01*
X73238095Y-54042857D01*
X73285714Y-53947619D01*
X73333333Y-53900000D01*
X73428571Y-53852380D01*
X73619047Y-53852380D01*
X73714285Y-53900000D01*
X73761904Y-53947619D01*
X73809523Y-54042857D01*
X73809523Y-54090476D01*
X73761904Y-54185714D01*
X73714285Y-54233333D01*
X73619047Y-54280952D01*
X73428571Y-54280952D01*
X73333333Y-54328571D01*
X73285714Y-54376190D01*
X73238095Y-54471428D01*
X73238095Y-54661904D01*
X73285714Y-54757142D01*
X73333333Y-54804761D01*
X73428571Y-54852380D01*
X73619047Y-54852380D01*
X73714285Y-54804761D01*
X73761904Y-54757142D01*
X73809523Y-54661904D01*
X73809523Y-54471428D01*
X73761904Y-54376190D01*
X73714285Y-54328571D01*
X73619047Y-54280952D01*
%TO.C,U9*%
X93338095Y-53352380D02*
X93338095Y-54161904D01*
X93385714Y-54257142D01*
X93433333Y-54304761D01*
X93528571Y-54352380D01*
X93719047Y-54352380D01*
X93814285Y-54304761D01*
X93861904Y-54257142D01*
X93909523Y-54161904D01*
X93909523Y-53352380D01*
X94433333Y-54352380D02*
X94623809Y-54352380D01*
X94719047Y-54304761D01*
X94766666Y-54257142D01*
X94861904Y-54114285D01*
X94909523Y-53923809D01*
X94909523Y-53542857D01*
X94861904Y-53447619D01*
X94814285Y-53400000D01*
X94719047Y-53352380D01*
X94528571Y-53352380D01*
X94433333Y-53400000D01*
X94385714Y-53447619D01*
X94338095Y-53542857D01*
X94338095Y-53780952D01*
X94385714Y-53876190D01*
X94433333Y-53923809D01*
X94528571Y-53971428D01*
X94719047Y-53971428D01*
X94814285Y-53923809D01*
X94861904Y-53876190D01*
X94909523Y-53780952D01*
%TO.C,U10*%
X92861904Y-69152380D02*
X92861904Y-69961904D01*
X92909523Y-70057142D01*
X92957142Y-70104761D01*
X93052380Y-70152380D01*
X93242857Y-70152380D01*
X93338095Y-70104761D01*
X93385714Y-70057142D01*
X93433333Y-69961904D01*
X93433333Y-69152380D01*
X94433333Y-70152380D02*
X93861904Y-70152380D01*
X94147619Y-70152380D02*
X94147619Y-69152380D01*
X94052380Y-69295238D01*
X93957142Y-69390476D01*
X93861904Y-69438095D01*
X95052380Y-69152380D02*
X95147619Y-69152380D01*
X95242857Y-69200000D01*
X95290476Y-69247619D01*
X95338095Y-69342857D01*
X95385714Y-69533333D01*
X95385714Y-69771428D01*
X95338095Y-69961904D01*
X95290476Y-70057142D01*
X95242857Y-70104761D01*
X95147619Y-70152380D01*
X95052380Y-70152380D01*
X94957142Y-70104761D01*
X94909523Y-70057142D01*
X94861904Y-69961904D01*
X94814285Y-69771428D01*
X94814285Y-69533333D01*
X94861904Y-69342857D01*
X94909523Y-69247619D01*
X94957142Y-69200000D01*
X95052380Y-69152380D01*
%TO.C,U11*%
X92961904Y-110802380D02*
X92961904Y-111611904D01*
X93009523Y-111707142D01*
X93057142Y-111754761D01*
X93152380Y-111802380D01*
X93342857Y-111802380D01*
X93438095Y-111754761D01*
X93485714Y-111707142D01*
X93533333Y-111611904D01*
X93533333Y-110802380D01*
X94533333Y-111802380D02*
X93961904Y-111802380D01*
X94247619Y-111802380D02*
X94247619Y-110802380D01*
X94152380Y-110945238D01*
X94057142Y-111040476D01*
X93961904Y-111088095D01*
X95485714Y-111802380D02*
X94914285Y-111802380D01*
X95200000Y-111802380D02*
X95200000Y-110802380D01*
X95104761Y-110945238D01*
X95009523Y-111040476D01*
X94914285Y-111088095D01*
%TO.C,U12*%
X92561904Y-141602380D02*
X92561904Y-142411904D01*
X92609523Y-142507142D01*
X92657142Y-142554761D01*
X92752380Y-142602380D01*
X92942857Y-142602380D01*
X93038095Y-142554761D01*
X93085714Y-142507142D01*
X93133333Y-142411904D01*
X93133333Y-141602380D01*
X94133333Y-142602380D02*
X93561904Y-142602380D01*
X93847619Y-142602380D02*
X93847619Y-141602380D01*
X93752380Y-141745238D01*
X93657142Y-141840476D01*
X93561904Y-141888095D01*
X94514285Y-141697619D02*
X94561904Y-141650000D01*
X94657142Y-141602380D01*
X94895238Y-141602380D01*
X94990476Y-141650000D01*
X95038095Y-141697619D01*
X95085714Y-141792857D01*
X95085714Y-141888095D01*
X95038095Y-142030952D01*
X94466666Y-142602380D01*
X95085714Y-142602380D01*
%TO.C,U13*%
X71761904Y-70052380D02*
X71761904Y-70861904D01*
X71809523Y-70957142D01*
X71857142Y-71004761D01*
X71952380Y-71052380D01*
X72142857Y-71052380D01*
X72238095Y-71004761D01*
X72285714Y-70957142D01*
X72333333Y-70861904D01*
X72333333Y-70052380D01*
X73333333Y-71052380D02*
X72761904Y-71052380D01*
X73047619Y-71052380D02*
X73047619Y-70052380D01*
X72952380Y-70195238D01*
X72857142Y-70290476D01*
X72761904Y-70338095D01*
X73666666Y-70052380D02*
X74285714Y-70052380D01*
X73952380Y-70433333D01*
X74095238Y-70433333D01*
X74190476Y-70480952D01*
X74238095Y-70528571D01*
X74285714Y-70623809D01*
X74285714Y-70861904D01*
X74238095Y-70957142D01*
X74190476Y-71004761D01*
X74095238Y-71052380D01*
X73809523Y-71052380D01*
X73714285Y-71004761D01*
X73666666Y-70957142D01*
%TO.C,U14*%
X81761904Y-126202380D02*
X81761904Y-127011904D01*
X81809523Y-127107142D01*
X81857142Y-127154761D01*
X81952380Y-127202380D01*
X82142857Y-127202380D01*
X82238095Y-127154761D01*
X82285714Y-127107142D01*
X82333333Y-127011904D01*
X82333333Y-126202380D01*
X83333333Y-127202380D02*
X82761904Y-127202380D01*
X83047619Y-127202380D02*
X83047619Y-126202380D01*
X82952380Y-126345238D01*
X82857142Y-126440476D01*
X82761904Y-126488095D01*
X84190476Y-126535714D02*
X84190476Y-127202380D01*
X83952380Y-126154761D02*
X83714285Y-126869047D01*
X84333333Y-126869047D01*
%TO.C,U15*%
X105361904Y-106002380D02*
X105361904Y-106811904D01*
X105409523Y-106907142D01*
X105457142Y-106954761D01*
X105552380Y-107002380D01*
X105742857Y-107002380D01*
X105838095Y-106954761D01*
X105885714Y-106907142D01*
X105933333Y-106811904D01*
X105933333Y-106002380D01*
X106933333Y-107002380D02*
X106361904Y-107002380D01*
X106647619Y-107002380D02*
X106647619Y-106002380D01*
X106552380Y-106145238D01*
X106457142Y-106240476D01*
X106361904Y-106288095D01*
X107838095Y-106002380D02*
X107361904Y-106002380D01*
X107314285Y-106478571D01*
X107361904Y-106430952D01*
X107457142Y-106383333D01*
X107695238Y-106383333D01*
X107790476Y-106430952D01*
X107838095Y-106478571D01*
X107885714Y-106573809D01*
X107885714Y-106811904D01*
X107838095Y-106907142D01*
X107790476Y-106954761D01*
X107695238Y-107002380D01*
X107457142Y-107002380D01*
X107361904Y-106954761D01*
X107314285Y-106907142D01*
%TO.C,U16*%
X115761904Y-141202380D02*
X115761904Y-142011904D01*
X115809523Y-142107142D01*
X115857142Y-142154761D01*
X115952380Y-142202380D01*
X116142857Y-142202380D01*
X116238095Y-142154761D01*
X116285714Y-142107142D01*
X116333333Y-142011904D01*
X116333333Y-141202380D01*
X117333333Y-142202380D02*
X116761904Y-142202380D01*
X117047619Y-142202380D02*
X117047619Y-141202380D01*
X116952380Y-141345238D01*
X116857142Y-141440476D01*
X116761904Y-141488095D01*
X118190476Y-141202380D02*
X118000000Y-141202380D01*
X117904761Y-141250000D01*
X117857142Y-141297619D01*
X117761904Y-141440476D01*
X117714285Y-141630952D01*
X117714285Y-142011904D01*
X117761904Y-142107142D01*
X117809523Y-142154761D01*
X117904761Y-142202380D01*
X118095238Y-142202380D01*
X118190476Y-142154761D01*
X118238095Y-142107142D01*
X118285714Y-142011904D01*
X118285714Y-141773809D01*
X118238095Y-141678571D01*
X118190476Y-141630952D01*
X118095238Y-141583333D01*
X117904761Y-141583333D01*
X117809523Y-141630952D01*
X117761904Y-141678571D01*
X117714285Y-141773809D01*
%TO.C,U17*%
X119561904Y-61752380D02*
X119561904Y-62561904D01*
X119609523Y-62657142D01*
X119657142Y-62704761D01*
X119752380Y-62752380D01*
X119942857Y-62752380D01*
X120038095Y-62704761D01*
X120085714Y-62657142D01*
X120133333Y-62561904D01*
X120133333Y-61752380D01*
X121133333Y-62752380D02*
X120561904Y-62752380D01*
X120847619Y-62752380D02*
X120847619Y-61752380D01*
X120752380Y-61895238D01*
X120657142Y-61990476D01*
X120561904Y-62038095D01*
X121466666Y-61752380D02*
X122133333Y-61752380D01*
X121704761Y-62752380D01*
%TO.C,U18*%
X127961904Y-78852380D02*
X127961904Y-79661904D01*
X128009523Y-79757142D01*
X128057142Y-79804761D01*
X128152380Y-79852380D01*
X128342857Y-79852380D01*
X128438095Y-79804761D01*
X128485714Y-79757142D01*
X128533333Y-79661904D01*
X128533333Y-78852380D01*
X129533333Y-79852380D02*
X128961904Y-79852380D01*
X129247619Y-79852380D02*
X129247619Y-78852380D01*
X129152380Y-78995238D01*
X129057142Y-79090476D01*
X128961904Y-79138095D01*
X130104761Y-79280952D02*
X130009523Y-79233333D01*
X129961904Y-79185714D01*
X129914285Y-79090476D01*
X129914285Y-79042857D01*
X129961904Y-78947619D01*
X130009523Y-78900000D01*
X130104761Y-78852380D01*
X130295238Y-78852380D01*
X130390476Y-78900000D01*
X130438095Y-78947619D01*
X130485714Y-79042857D01*
X130485714Y-79090476D01*
X130438095Y-79185714D01*
X130390476Y-79233333D01*
X130295238Y-79280952D01*
X130104761Y-79280952D01*
X130009523Y-79328571D01*
X129961904Y-79376190D01*
X129914285Y-79471428D01*
X129914285Y-79661904D01*
X129961904Y-79757142D01*
X130009523Y-79804761D01*
X130104761Y-79852380D01*
X130295238Y-79852380D01*
X130390476Y-79804761D01*
X130438095Y-79757142D01*
X130485714Y-79661904D01*
X130485714Y-79471428D01*
X130438095Y-79376190D01*
X130390476Y-79328571D01*
X130295238Y-79280952D01*
%TO.C,U19*%
X112761904Y-78852380D02*
X112761904Y-79661904D01*
X112809523Y-79757142D01*
X112857142Y-79804761D01*
X112952380Y-79852380D01*
X113142857Y-79852380D01*
X113238095Y-79804761D01*
X113285714Y-79757142D01*
X113333333Y-79661904D01*
X113333333Y-78852380D01*
X114333333Y-79852380D02*
X113761904Y-79852380D01*
X114047619Y-79852380D02*
X114047619Y-78852380D01*
X113952380Y-78995238D01*
X113857142Y-79090476D01*
X113761904Y-79138095D01*
X114809523Y-79852380D02*
X115000000Y-79852380D01*
X115095238Y-79804761D01*
X115142857Y-79757142D01*
X115238095Y-79614285D01*
X115285714Y-79423809D01*
X115285714Y-79042857D01*
X115238095Y-78947619D01*
X115190476Y-78900000D01*
X115095238Y-78852380D01*
X114904761Y-78852380D01*
X114809523Y-78900000D01*
X114761904Y-78947619D01*
X114714285Y-79042857D01*
X114714285Y-79280952D01*
X114761904Y-79376190D01*
X114809523Y-79423809D01*
X114904761Y-79471428D01*
X115095238Y-79471428D01*
X115190476Y-79423809D01*
X115238095Y-79376190D01*
X115285714Y-79280952D01*
%TO.C,U20*%
X128161904Y-92352380D02*
X128161904Y-93161904D01*
X128209523Y-93257142D01*
X128257142Y-93304761D01*
X128352380Y-93352380D01*
X128542857Y-93352380D01*
X128638095Y-93304761D01*
X128685714Y-93257142D01*
X128733333Y-93161904D01*
X128733333Y-92352380D01*
X129161904Y-92447619D02*
X129209523Y-92400000D01*
X129304761Y-92352380D01*
X129542857Y-92352380D01*
X129638095Y-92400000D01*
X129685714Y-92447619D01*
X129733333Y-92542857D01*
X129733333Y-92638095D01*
X129685714Y-92780952D01*
X129114285Y-93352380D01*
X129733333Y-93352380D01*
X130352380Y-92352380D02*
X130447619Y-92352380D01*
X130542857Y-92400000D01*
X130590476Y-92447619D01*
X130638095Y-92542857D01*
X130685714Y-92733333D01*
X130685714Y-92971428D01*
X130638095Y-93161904D01*
X130590476Y-93257142D01*
X130542857Y-93304761D01*
X130447619Y-93352380D01*
X130352380Y-93352380D01*
X130257142Y-93304761D01*
X130209523Y-93257142D01*
X130161904Y-93161904D01*
X130114285Y-92971428D01*
X130114285Y-92733333D01*
X130161904Y-92542857D01*
X130209523Y-92447619D01*
X130257142Y-92400000D01*
X130352380Y-92352380D01*
%TO.C,U21*%
X112761904Y-94602380D02*
X112761904Y-95411904D01*
X112809523Y-95507142D01*
X112857142Y-95554761D01*
X112952380Y-95602380D01*
X113142857Y-95602380D01*
X113238095Y-95554761D01*
X113285714Y-95507142D01*
X113333333Y-95411904D01*
X113333333Y-94602380D01*
X113761904Y-94697619D02*
X113809523Y-94650000D01*
X113904761Y-94602380D01*
X114142857Y-94602380D01*
X114238095Y-94650000D01*
X114285714Y-94697619D01*
X114333333Y-94792857D01*
X114333333Y-94888095D01*
X114285714Y-95030952D01*
X113714285Y-95602380D01*
X114333333Y-95602380D01*
X115285714Y-95602380D02*
X114714285Y-95602380D01*
X115000000Y-95602380D02*
X115000000Y-94602380D01*
X114904761Y-94745238D01*
X114809523Y-94840476D01*
X114714285Y-94888095D01*
%TO.C,U22*%
X71361904Y-126202380D02*
X71361904Y-127011904D01*
X71409523Y-127107142D01*
X71457142Y-127154761D01*
X71552380Y-127202380D01*
X71742857Y-127202380D01*
X71838095Y-127154761D01*
X71885714Y-127107142D01*
X71933333Y-127011904D01*
X71933333Y-126202380D01*
X72361904Y-126297619D02*
X72409523Y-126250000D01*
X72504761Y-126202380D01*
X72742857Y-126202380D01*
X72838095Y-126250000D01*
X72885714Y-126297619D01*
X72933333Y-126392857D01*
X72933333Y-126488095D01*
X72885714Y-126630952D01*
X72314285Y-127202380D01*
X72933333Y-127202380D01*
X73314285Y-126297619D02*
X73361904Y-126250000D01*
X73457142Y-126202380D01*
X73695238Y-126202380D01*
X73790476Y-126250000D01*
X73838095Y-126297619D01*
X73885714Y-126392857D01*
X73885714Y-126488095D01*
X73838095Y-126630952D01*
X73266666Y-127202380D01*
X73885714Y-127202380D01*
%TO.C,U23*%
X132961904Y-140802380D02*
X132961904Y-141611904D01*
X133009523Y-141707142D01*
X133057142Y-141754761D01*
X133152380Y-141802380D01*
X133342857Y-141802380D01*
X133438095Y-141754761D01*
X133485714Y-141707142D01*
X133533333Y-141611904D01*
X133533333Y-140802380D01*
X133961904Y-140897619D02*
X134009523Y-140850000D01*
X134104761Y-140802380D01*
X134342857Y-140802380D01*
X134438095Y-140850000D01*
X134485714Y-140897619D01*
X134533333Y-140992857D01*
X134533333Y-141088095D01*
X134485714Y-141230952D01*
X133914285Y-141802380D01*
X134533333Y-141802380D01*
X134866666Y-140802380D02*
X135485714Y-140802380D01*
X135152380Y-141183333D01*
X135295238Y-141183333D01*
X135390476Y-141230952D01*
X135438095Y-141278571D01*
X135485714Y-141373809D01*
X135485714Y-141611904D01*
X135438095Y-141707142D01*
X135390476Y-141754761D01*
X135295238Y-141802380D01*
X135009523Y-141802380D01*
X134914285Y-141754761D01*
X134866666Y-141707142D01*
%TO.C,U24*%
X116961904Y-117802380D02*
X116961904Y-118611904D01*
X117009523Y-118707142D01*
X117057142Y-118754761D01*
X117152380Y-118802380D01*
X117342857Y-118802380D01*
X117438095Y-118754761D01*
X117485714Y-118707142D01*
X117533333Y-118611904D01*
X117533333Y-117802380D01*
X117961904Y-117897619D02*
X118009523Y-117850000D01*
X118104761Y-117802380D01*
X118342857Y-117802380D01*
X118438095Y-117850000D01*
X118485714Y-117897619D01*
X118533333Y-117992857D01*
X118533333Y-118088095D01*
X118485714Y-118230952D01*
X117914285Y-118802380D01*
X118533333Y-118802380D01*
X119390476Y-118135714D02*
X119390476Y-118802380D01*
X119152380Y-117754761D02*
X118914285Y-118469047D01*
X119533333Y-118469047D01*
%TO.C,U25*%
X129361904Y-133102380D02*
X129361904Y-133911904D01*
X129409523Y-134007142D01*
X129457142Y-134054761D01*
X129552380Y-134102380D01*
X129742857Y-134102380D01*
X129838095Y-134054761D01*
X129885714Y-134007142D01*
X129933333Y-133911904D01*
X129933333Y-133102380D01*
X130361904Y-133197619D02*
X130409523Y-133150000D01*
X130504761Y-133102380D01*
X130742857Y-133102380D01*
X130838095Y-133150000D01*
X130885714Y-133197619D01*
X130933333Y-133292857D01*
X130933333Y-133388095D01*
X130885714Y-133530952D01*
X130314285Y-134102380D01*
X130933333Y-134102380D01*
X131838095Y-133102380D02*
X131361904Y-133102380D01*
X131314285Y-133578571D01*
X131361904Y-133530952D01*
X131457142Y-133483333D01*
X131695238Y-133483333D01*
X131790476Y-133530952D01*
X131838095Y-133578571D01*
X131885714Y-133673809D01*
X131885714Y-133911904D01*
X131838095Y-134007142D01*
X131790476Y-134054761D01*
X131695238Y-134102380D01*
X131457142Y-134102380D01*
X131361904Y-134054761D01*
X131314285Y-134007142D01*
%TO.C,U26*%
X93361904Y-126202380D02*
X93361904Y-127011904D01*
X93409523Y-127107142D01*
X93457142Y-127154761D01*
X93552380Y-127202380D01*
X93742857Y-127202380D01*
X93838095Y-127154761D01*
X93885714Y-127107142D01*
X93933333Y-127011904D01*
X93933333Y-126202380D01*
X94361904Y-126297619D02*
X94409523Y-126250000D01*
X94504761Y-126202380D01*
X94742857Y-126202380D01*
X94838095Y-126250000D01*
X94885714Y-126297619D01*
X94933333Y-126392857D01*
X94933333Y-126488095D01*
X94885714Y-126630952D01*
X94314285Y-127202380D01*
X94933333Y-127202380D01*
X95790476Y-126202380D02*
X95600000Y-126202380D01*
X95504761Y-126250000D01*
X95457142Y-126297619D01*
X95361904Y-126440476D01*
X95314285Y-126630952D01*
X95314285Y-127011904D01*
X95361904Y-127107142D01*
X95409523Y-127154761D01*
X95504761Y-127202380D01*
X95695238Y-127202380D01*
X95790476Y-127154761D01*
X95838095Y-127107142D01*
X95885714Y-127011904D01*
X95885714Y-126773809D01*
X95838095Y-126678571D01*
X95790476Y-126630952D01*
X95695238Y-126583333D01*
X95504761Y-126583333D01*
X95409523Y-126630952D01*
X95361904Y-126678571D01*
X95314285Y-126773809D01*
%TO.C,U27*%
X52761904Y-118252380D02*
X52761904Y-119061904D01*
X52809523Y-119157142D01*
X52857142Y-119204761D01*
X52952380Y-119252380D01*
X53142857Y-119252380D01*
X53238095Y-119204761D01*
X53285714Y-119157142D01*
X53333333Y-119061904D01*
X53333333Y-118252380D01*
X53761904Y-118347619D02*
X53809523Y-118300000D01*
X53904761Y-118252380D01*
X54142857Y-118252380D01*
X54238095Y-118300000D01*
X54285714Y-118347619D01*
X54333333Y-118442857D01*
X54333333Y-118538095D01*
X54285714Y-118680952D01*
X53714285Y-119252380D01*
X54333333Y-119252380D01*
X54666666Y-118252380D02*
X55333333Y-118252380D01*
X54904761Y-119252380D01*
%TO.C,U28*%
X105161904Y-131002380D02*
X105161904Y-131811904D01*
X105209523Y-131907142D01*
X105257142Y-131954761D01*
X105352380Y-132002380D01*
X105542857Y-132002380D01*
X105638095Y-131954761D01*
X105685714Y-131907142D01*
X105733333Y-131811904D01*
X105733333Y-131002380D01*
X106161904Y-131097619D02*
X106209523Y-131050000D01*
X106304761Y-131002380D01*
X106542857Y-131002380D01*
X106638095Y-131050000D01*
X106685714Y-131097619D01*
X106733333Y-131192857D01*
X106733333Y-131288095D01*
X106685714Y-131430952D01*
X106114285Y-132002380D01*
X106733333Y-132002380D01*
X107304761Y-131430952D02*
X107209523Y-131383333D01*
X107161904Y-131335714D01*
X107114285Y-131240476D01*
X107114285Y-131192857D01*
X107161904Y-131097619D01*
X107209523Y-131050000D01*
X107304761Y-131002380D01*
X107495238Y-131002380D01*
X107590476Y-131050000D01*
X107638095Y-131097619D01*
X107685714Y-131192857D01*
X107685714Y-131240476D01*
X107638095Y-131335714D01*
X107590476Y-131383333D01*
X107495238Y-131430952D01*
X107304761Y-131430952D01*
X107209523Y-131478571D01*
X107161904Y-131526190D01*
X107114285Y-131621428D01*
X107114285Y-131811904D01*
X107161904Y-131907142D01*
X107209523Y-131954761D01*
X107304761Y-132002380D01*
X107495238Y-132002380D01*
X107590476Y-131954761D01*
X107638095Y-131907142D01*
X107685714Y-131811904D01*
X107685714Y-131621428D01*
X107638095Y-131526190D01*
X107590476Y-131478571D01*
X107495238Y-131430952D01*
%TO.C,U29*%
X105161904Y-117802380D02*
X105161904Y-118611904D01*
X105209523Y-118707142D01*
X105257142Y-118754761D01*
X105352380Y-118802380D01*
X105542857Y-118802380D01*
X105638095Y-118754761D01*
X105685714Y-118707142D01*
X105733333Y-118611904D01*
X105733333Y-117802380D01*
X106161904Y-117897619D02*
X106209523Y-117850000D01*
X106304761Y-117802380D01*
X106542857Y-117802380D01*
X106638095Y-117850000D01*
X106685714Y-117897619D01*
X106733333Y-117992857D01*
X106733333Y-118088095D01*
X106685714Y-118230952D01*
X106114285Y-118802380D01*
X106733333Y-118802380D01*
X107209523Y-118802380D02*
X107400000Y-118802380D01*
X107495238Y-118754761D01*
X107542857Y-118707142D01*
X107638095Y-118564285D01*
X107685714Y-118373809D01*
X107685714Y-117992857D01*
X107638095Y-117897619D01*
X107590476Y-117850000D01*
X107495238Y-117802380D01*
X107304761Y-117802380D01*
X107209523Y-117850000D01*
X107161904Y-117897619D01*
X107114285Y-117992857D01*
X107114285Y-118230952D01*
X107161904Y-118326190D01*
X107209523Y-118373809D01*
X107304761Y-118421428D01*
X107495238Y-118421428D01*
X107590476Y-118373809D01*
X107638095Y-118326190D01*
X107685714Y-118230952D01*
%TO.C,U30*%
X116961904Y-131002380D02*
X116961904Y-131811904D01*
X117009523Y-131907142D01*
X117057142Y-131954761D01*
X117152380Y-132002380D01*
X117342857Y-132002380D01*
X117438095Y-131954761D01*
X117485714Y-131907142D01*
X117533333Y-131811904D01*
X117533333Y-131002380D01*
X117914285Y-131002380D02*
X118533333Y-131002380D01*
X118200000Y-131383333D01*
X118342857Y-131383333D01*
X118438095Y-131430952D01*
X118485714Y-131478571D01*
X118533333Y-131573809D01*
X118533333Y-131811904D01*
X118485714Y-131907142D01*
X118438095Y-131954761D01*
X118342857Y-132002380D01*
X118057142Y-132002380D01*
X117961904Y-131954761D01*
X117914285Y-131907142D01*
X119152380Y-131002380D02*
X119247619Y-131002380D01*
X119342857Y-131050000D01*
X119390476Y-131097619D01*
X119438095Y-131192857D01*
X119485714Y-131383333D01*
X119485714Y-131621428D01*
X119438095Y-131811904D01*
X119390476Y-131907142D01*
X119342857Y-131954761D01*
X119247619Y-132002380D01*
X119152380Y-132002380D01*
X119057142Y-131954761D01*
X119009523Y-131907142D01*
X118961904Y-131811904D01*
X118914285Y-131621428D01*
X118914285Y-131383333D01*
X118961904Y-131192857D01*
X119009523Y-131097619D01*
X119057142Y-131050000D01*
X119152380Y-131002380D01*
%TO.C,X1*%
X56200476Y-125792380D02*
X56867142Y-126792380D01*
X56867142Y-125792380D02*
X56200476Y-126792380D01*
X57771904Y-126792380D02*
X57200476Y-126792380D01*
X57486190Y-126792380D02*
X57486190Y-125792380D01*
X57390952Y-125935238D01*
X57295714Y-126030476D01*
X57200476Y-126078095D01*
%TD*%
M02*
