M48
; DRILL file {KiCad 7.0.8} date 2023 November 02, Thursday 18:45:51
; FORMAT={-:-/ absolute / metric / decimal}
; #@! TF.CreationDate,2023-11-02T18:45:51+01:00
; #@! TF.GenerationSoftware,Kicad,Pcbnew,7.0.8
; #@! TF.FileFunction,Plated,1,4,PTH
FMAT,2
METRIC
; #@! TA.AperFunction,Plated,PTH,ViaDrill
T1C0.300
; #@! TA.AperFunction,Plated,PTH,ViaDrill
T2C0.400
; #@! TA.AperFunction,Plated,PTH,ComponentDrill
T3C0.900
; #@! TA.AperFunction,Plated,PTH,ComponentDrill
T4C1.000
%
G90
G05
T1
X2.565Y21.085
X2.565Y18.951
X4.75Y70.361
X4.851Y82.197
X6.426Y49.939
X7.391Y81.486
X7.493Y85.398
X9.525Y11.687
X9.525Y9.756
X10.592Y3.051
X10.642Y80.318
X10.642Y18.9
X10.693Y82.807
X11.201Y97.488
X11.303Y83.416
X11.608Y23.879
X12.014Y75.644
X12.065Y91.29
X12.166Y96.878
X13.589Y28.095
X13.589Y19.764
X13.69Y87.48
X13.741Y92.103
X13.894Y18.088
X14.148Y30.127
X14.351Y73.612
X14.351Y70.31
X14.808Y13.16
X14.859Y38.408
X14.859Y33.48
X14.859Y21.694
X14.91Y96.167
X14.96Y93.576
X15.672Y17.529
X15.773Y21.085
X15.773Y19.612
X15.842Y72.118
X16.078Y82.146
X16.078Y16.106
X16.129Y94.796
X16.23Y18.189
X16.383Y20.384
X16.535Y23.015
X17.196Y1.425
X17.399Y74.222
X17.399Y61.674
X17.754Y87.531
X17.754Y84.534
X17.754Y76.812
X17.754Y18.291
X17.805Y28.71
X18.161Y46.383
X18.212Y74.933
X18.669Y5.438
X18.821Y88.649
X18.872Y83.467
X18.872Y72.901
X19.177Y21.034
X19.228Y32.007
X19.736Y75.542
X19.736Y70.92
X19.786Y43.183
X19.939Y32.769
X19.939Y27.689
X20.091Y1.933
X20.244Y18.951
X20.244Y14.481
X20.294Y76.203
X20.294Y68.634
X20.548Y33.429
X20.548Y27.13
X20.802Y82.096
X20.802Y80.318
X20.82Y78.722
X21.006Y24.336
X21.056Y20.374
X21.26Y99.063
X21.26Y93.576
X21.361Y35.969
X21.361Y32.159
X21.361Y3.457
X21.971Y71.58
X21.971Y30.127
X21.971Y0.765
X22.022Y69.599
X22.022Y34.496
X22.022Y7.369
X22.123Y19.764
X22.326Y16.462
X22.326Y14.481
X22.53Y35.309
X22.603Y24.846
X22.987Y80.572
X22.987Y74.882
X23.546Y85.601
X23.546Y73.561
X23.698Y95.862
X23.749Y69.548
X23.8Y91.29
X23.8Y62.385
X23.901Y56.442
X24.358Y97.793
X24.765Y61.064
X24.765Y44.453
X24.866Y73.968
X24.898Y78.722
X25.019Y86.414
X25.019Y21.034
X25.019Y16.411
X25.07Y37.29
X25.07Y30.838
X25.12Y94.542
X25.12Y10.518
X25.476Y95.304
X25.882Y17.58
X25.933Y20.018
X26.086Y58.677
X26.086Y45.824
X26.238Y15.751
X26.238Y12.144
X26.644Y59.642
X26.748Y35.278
X26.797Y24.844
X26.898Y50.193
X26.949Y92.459
X26.949Y82.756
X26.949Y77.828
X27.051Y11.89
X27.051Y5.337
X27.152Y3.406
X27.203Y73.307
X27.203Y66.449
X27.457Y43.132
X27.813Y26.724
X27.864Y62.995
X27.864Y31.804
X27.864Y8.69
X27.965Y9.909
X28.016Y55.781
X28.067Y61.725
X28.067Y14.43
X28.575Y5.997
X28.778Y57.204
X28.829Y97.132
X28.829Y88.649
X28.829Y74.984
X28.829Y63.655
X29.187Y42.322
X29.235Y28.4
X29.388Y57.915
X29.438Y75.593
X29.438Y64.316
X29.489Y95.202
X29.489Y81.435
X29.591Y2.848
X30.404Y47.044
X30.505Y21.085
X30.556Y41.811
X30.556Y33.074
X30.556Y32.261
X30.607Y77.828
X30.607Y61.725
X30.708Y50.65
X31.013Y87.176
X31.013Y45.062
X31.166Y31.042
X31.216Y46.282
X31.267Y60.353
X31.42Y43.792
X31.521Y66.5
X31.775Y30.483
X31.775Y23.523
X31.826Y59.286
X32.232Y43.792
X32.283Y6.048
X32.537Y55.832
X32.639Y24.184
X32.69Y31.143
X32.842Y32.464
X32.893Y47.45
X32.893Y46.383
X32.893Y41.303
X33.299Y15.497
X33.299Y4.128
X33.452Y44.453
X33.502Y56.492
X33.502Y45.723
X33.502Y40.744
X33.604Y30.483
X33.604Y24.742
X33.655Y29.162
X33.909Y86.414
X33.909Y61.064
X33.96Y13.922
X34.219Y35.29
X34.264Y94.542
X34.315Y95.862
X34.518Y99.012
X34.772Y64.925
X34.823Y18.545
X34.925Y77.676
X34.976Y70.31
X35.077Y93.272
X35.077Y81.943
X35.128Y17.732
X35.128Y4.778
X35.433Y61.014
X35.433Y58.728
X35.738Y66.5
X36.093Y62.284
X36.093Y59.286
X36.144Y45.113
X36.144Y33.074
X36.398Y57.204
X36.601Y45.875
X36.601Y31.773
X36.754Y7.572
X36.957Y11.687
X37.058Y48.72
X37.16Y57.915
X37.16Y44.453
X37.211Y29.823
X37.262Y64.417
X37.312Y10.925
X37.719Y97.793
X37.922Y32.413
X37.922Y12.855
X37.941Y9.611
X38.125Y5.388
X38.176Y63.604
X38.176Y0.765
X38.227Y35.258
X38.278Y2.746
X38.532Y42.065
X38.532Y25.2
X38.582Y31.753
X38.772Y55.951
X38.786Y67.414
X38.786Y48.669
X38.786Y29.772
X39.04Y42.776
X39.09Y20.628
X39.141Y25.86
X39.141Y4.829
X39.446Y33.683
X39.751Y27.74
X39.802Y43.792
X40.056Y30.432
X40.614Y13.516
X40.665Y10.265
X41.122Y28.405
X41.132Y42.289
X41.173Y21.999
X41.173Y15.497
X41.834Y23.574
X41.884Y6.81
X42.545Y45.875
X42.545Y22.812
X42.545Y9.604
X42.596Y66.094
X42.799Y45.113
X42.85Y31.143
X42.85Y40.135
X43.002Y12.195
X43.104Y29.822
X43.256Y50.041
X43.358Y43.792
X43.408Y10.925
X43.408Y3.559
X43.561Y65.382
X43.561Y58.372
X43.815Y47.094
X43.815Y31.804
X43.815Y12.246
X43.866Y39.525
X43.866Y33.074
X44.17Y74.425
X44.223Y15.7
X44.272Y71.885
X44.323Y96.929
X44.374Y83.366
X44.374Y69.954
X44.374Y28.4
X44.374Y19.408
X44.424Y45.316
X44.526Y20.628
X44.678Y66.754
X44.678Y59.845
X44.678Y38.916
X44.678Y32.464
X44.831Y2.492
X44.882Y95.608
X44.882Y91.138
X45.034Y77.016
X45.085Y85.652
X45.186Y46.586
X45.288Y37.798
X45.288Y30.483
X45.339Y64.773
X45.39Y62.944
X45.39Y44.453
X45.39Y29.111
X45.39Y27.232
X45.44Y1.786
X45.44Y7.318
X45.491Y45.723
X45.491Y3.203
X45.542Y33.683
X45.593Y78.692
X45.593Y47.958
X45.593Y5.083
X45.796Y23.472
X45.796Y17.732
X46.025Y35.258
X46.101Y39.982
X46.152Y85.855
X46.152Y57.254
X46.202Y92.154
X46.863Y39.22
X46.914Y68.634
X46.914Y42.573
X47.625Y93.678
X47.676Y89.97
X47.726Y17.224
X47.777Y12.195
X47.879Y81.943
X47.879Y66.094
X48.082Y63.554
X48.082Y41.862
X48.184Y87.531
X48.184Y62.334
X48.234Y94.338
X48.234Y37.798
X48.234Y31.143
X48.336Y15.7
X48.336Y5.743
X48.336Y8.232
X48.742Y72.088
X48.742Y48.415
X48.844Y86.972
X48.895Y94.948
X48.895Y33.074
X49.047Y18.545
X49.098Y5.032
X49.657Y11.585
X49.708Y97.894
X49.708Y93.018
X49.708Y32.413
X49.86Y10.214
X49.86Y8.791
X49.86Y2.441
X50.114Y35.258
X50.266Y30.483
X50.317Y12.855
X50.368Y45.52
X50.47Y88.7
X50.47Y4.372
X50.52Y10.925
X50.52Y3.508
X50.622Y93.729
X50.622Y48.415
X50.825Y98.707
X50.927Y6.048
X51.13Y36.68
X51.13Y33.074
X51.232Y67.364
X51.232Y43.843
X51.384Y13.516
X51.384Y3.102
X51.587Y55.984
X51.638Y62.284
X51.74Y76.101
X51.841Y70.716
X51.943Y45.062
X51.943Y37.341
X51.943Y31.143
X52.095Y46.383
X52.146Y68.024
X52.146Y61.623
X52.146Y58.778
X52.4Y10.925
X52.451Y19.104
X52.552Y40.033
X52.654Y6.703
X52.806Y68.634
X52.806Y45.774
X53.01Y72.19
X53.264Y84.483
X53.264Y81.943
X53.264Y67.922
X53.264Y58.169
X53.467Y86.363
X53.772Y71.123
X53.772Y50.142
X53.873Y9.604
X53.919Y42.446
X53.924Y36.071
X54.127Y28.304
X54.381Y61.268
X54.381Y60.455
X54.381Y56.848
X54.432Y92.408
X54.534Y39.17
X54.584Y55.832
X54.889Y98.758
X54.991Y62.944
X54.991Y58.169
X55.042Y75.542
X55.042Y70.615
X55.245Y95.598
X55.245Y88.09
X55.346Y38.916
X55.346Y31.753
X55.448Y65.332
X55.499Y86.464
X55.499Y77.676
X55.6Y74.933
X55.6Y70.005
X55.651Y64.112
X55.651Y59.439
X55.702Y97.619
X55.702Y44.453
X55.956Y94.369
X55.956Y89.004
X56.058Y29.873
X56.108Y39.627
X56.312Y65.586
X56.312Y52.987
X56.362Y47.653
X56.515Y96.969
X56.515Y90.528
X56.515Y84.28
X56.566Y19.053
X56.566Y7.572
X56.616Y37.595
X56.616Y10.925
X56.769Y66.703
X56.769Y43.132
X56.769Y41.913
X56.972Y52.378
X56.972Y17.478
X56.972Y12.906
X57.023Y64.316
X57.124Y98.91
X57.328Y49.431
X57.429Y61.019
X57.531Y42.421
X57.531Y6.048
X57.582Y4.27
X57.785Y91.798
X57.785Y44.453
X57.785Y12.246
X57.836Y38.408
X57.836Y18.088
X58.496Y43.742
X58.496Y11.585
X58.547Y18.596
X58.598Y40.694
X58.598Y32.464
X58.598Y6.505
X58.648Y30.483
X58.699Y79.556
X58.699Y55.832
X58.902Y49.228
X58.953Y35.258
X59.207Y13.465
X59.207Y8.74
X59.563Y57.559
X59.715Y19.154
X59.766Y9.604
X59.817Y4.88
X59.868Y14.989
X59.969Y63.858
X60.172Y51.87
X60.223Y62.995
X60.274Y94.491
X60.274Y15.7
X60.477Y67.922
X60.63Y62.284
X60.63Y59.947
X61.036Y93.678
X61.036Y51.26
X61.138Y95.05
X61.138Y63.808
X61.188Y19.561
X61.188Y2.949
X61.29Y46.383
X61.442Y61.776
X61.442Y33.886
X61.442Y27.232
X61.646Y1.628
X61.696Y65.586
X61.696Y55.273
X61.849Y96.32
X61.849Y85.855
X62.052Y33.074
X62.103Y25.911
X62.306Y54.156
X62.357Y63.046
X62.458Y95.507
X62.458Y90.02
X62.458Y10.214
X62.56Y64.976
X62.56Y13.516
X62.662Y85.042
X62.662Y47.348
X62.712Y98.961
X62.712Y96.32
X62.763Y74.018
X62.763Y31.854
X62.763Y25.25
X62.865Y61.674
X62.865Y53.546
X63.116Y35.255
X63.17Y93.119
X63.22Y64.265
X63.274Y49.279
X63.322Y83.62
X63.322Y30.534
X63.322Y24.184
X63.322Y22.761
X63.474Y54.816
X63.576Y68.532
X64.135Y29.264
X64.135Y24.793
X64.186Y31.245
X64.186Y3.559
X64.287Y35.563
X64.44Y15.7
X64.643Y6.962
X64.643Y5.54
X64.694Y57.458
X64.694Y2.34
X65.457Y71.732
X65.457Y29.975
X65.506Y3.61
X65.557Y75.238
X65.862Y94.338
X65.862Y91.189
X65.913Y87.48
X66.014Y8.334
X66.065Y66.195
X66.065Y44.504
X66.522Y92.408
X66.522Y76.0
X66.629Y21.644
X66.726Y99.317
X66.776Y24.234
X66.929Y50.65
X66.929Y41.811
X66.98Y0.816
X67.03Y4.93
X67.081Y66.856
X67.132Y94.999
X67.132Y84.331
X67.386Y77.016
X67.488Y10.874
X67.538Y49.279
X67.691Y93.119
X67.691Y91.748
X67.691Y86.922
X67.691Y68.532
X68.199Y42.776
X68.3Y73.307
X68.351Y86.109
X68.351Y81.384
X68.656Y8.944
X68.758Y13.516
X68.91Y14.836
X68.961Y40.186
X69.062Y78.794
X69.52Y69.446
X69.52Y62.385
X69.723Y98.148
X70.028Y46.688
X70.028Y21.694
X70.078Y66.246
X70.129Y56.746
X70.129Y2.949
X70.282Y54.206
X70.282Y4.168
X70.383Y48.669
X70.739Y25.504
X70.84Y86.972
X70.891Y55.476
X70.891Y50.447
X70.942Y72.139
X70.942Y56.797
X70.993Y51.26
X71.298Y10.264
X71.399Y12.957
X71.45Y48.009
X71.45Y23.015
X71.602Y5.794
X71.653Y57.458
X71.704Y54.867
X71.704Y49.99
X71.806Y85.042
X71.856Y64.925
X71.958Y7.674
X72.009Y14.176
X72.11Y23.98
X72.161Y35.004
X72.364Y22.914
X72.466Y63.604
X72.466Y57.61
X72.568Y41.151
X72.72Y10.265
X72.822Y38.255
X72.822Y28.705
X73.126Y24.184
X73.177Y11.026
X73.584Y39.678
X73.584Y33.124
X73.685Y5.794
X73.736Y25.454
X73.736Y12.804
X74.193Y60.201
X74.193Y45.215
X74.244Y71.566
X74.295Y26.724
X74.295Y13.465
X74.346Y72.799
X74.396Y80.318
X74.396Y34.394
X74.447Y39.017
X74.955Y16.462
X75.514Y51.87
X75.616Y98.047
X75.616Y93.17
X76.022Y64.265
X76.022Y53.597
X76.022Y31.804
X76.073Y48.669
X76.327Y95.253
X76.581Y47.348
X76.632Y74.577
X76.632Y62.944
X76.632Y52.987
X76.739Y37.747
X76.886Y79.505
X77.089Y72.901
X77.089Y69.192
X77.089Y63.604
X77.14Y17.478
X77.14Y9.604
X77.19Y61.674
X77.241Y52.378
X77.292Y46.028
X77.394Y77.219
X77.495Y84.382
X77.648Y92.51
X77.698Y65.586
X77.749Y75.898
X77.749Y18.037
X77.749Y11.585
X77.8Y89.004
X77.8Y86.363
X77.8Y54.156
X77.8Y49.939
X78.206Y68.176
X78.308Y46.739
X78.359Y61.674
X78.46Y18.596
X78.46Y12.195
X78.613Y64.925
X78.613Y63.046
X78.918Y54.968
X79.019Y53.495
X79.045Y68.533
X79.121Y67.618
X79.121Y16.411
X79.222Y82.197
X79.222Y73.054
X79.527Y29.314
X79.527Y28.044
X79.832Y70.005
X80.442Y96.37
X80.492Y85.702
X80.848Y22.253
X80.848Y12.55
X81.0Y37.849
X81.051Y95.761
X81.051Y83.772
X81.153Y58.067
X81.153Y46.739
X81.204Y71.021
X81.204Y62.385
X81.204Y61.014
X81.254Y93.78
X81.407Y84.839
X81.61Y26.724
X81.61Y9.96
X81.712Y98.199
X81.813Y89.004
X81.813Y77.879
X81.813Y13.82
X82.016Y48.11
X82.067Y25.454
X82.118Y84.077
X82.22Y97.132
X82.22Y93.78
X82.474Y89.563
X82.474Y85.702
X82.474Y75.238
X82.626Y24.184
X82.677Y65.586
X82.677Y49.33
X82.728Y56.137
X82.931Y90.579
X83.185Y68.532
X83.236Y77.219
X83.236Y87.176
X83.236Y53.546
X83.286Y22.964
X83.337Y50.701
X83.439Y64.214
X83.49Y94.44
X83.49Y55.476
X83.642Y66.246
X83.744Y74.577
X83.896Y98.25
X83.896Y83.061
X84.066Y79.674
X84.121Y88.873
X84.15Y44.402
X84.15Y36.172
X84.201Y45.316
X84.506Y17.122
X84.506Y11.89
X84.556Y66.297
X84.556Y58.575
X84.658Y31.829
X84.709Y1.273
X84.76Y11.128
X85.014Y48.872
X85.014Y42.268
X85.166Y64.976
X85.166Y59.388
X85.268Y39.932
X85.318Y34.242
X85.623Y63.604
X85.826Y43.843
X85.826Y10.671
X85.928Y95.1
X86.131Y42.776
X86.131Y36.782
X86.131Y23.371
X86.284Y73.917
X86.334Y91.138
X86.334Y76.558
X86.741Y30.584
X86.741Y10.01
X86.792Y46.84
X86.842Y40.694
X86.893Y60.252
X87.046Y91.697
X87.096Y75.187
X87.35Y11.179
X87.35Y5.642
X87.452Y38.001
X87.452Y34.852
X87.503Y46.129
X87.503Y13.16
X87.604Y41.202
X87.706Y92.459
X87.757Y83.772
X87.858Y57.559
X87.909Y15.7
X88.011Y98.25
X88.259Y79.708
X88.285Y88.866
X88.468Y40.541
X88.468Y35.512
X88.519Y66.906
X88.519Y43.538
X88.519Y42.659
X88.722Y25.911
X88.773Y86.21
X88.773Y81.384
X88.824Y33.582
X88.874Y77.016
X88.874Y22.05
X89.433Y81.892
X89.433Y76.304
X89.586Y63.554
X89.636Y86.871
X89.636Y85.55
X90.449Y4.69
X90.957Y82.756
X90.957Y78.184
X90.957Y72.903
X91.16Y62.995
X91.16Y54.918
X91.668Y44.859
X91.668Y23.98
X91.668Y20.272
X91.692Y68.5
X92.075Y15.7
X92.278Y22.71
X92.329Y47.552
X92.38Y70.92
X92.43Y87.531
X92.43Y84.94
X92.43Y80.724
X92.43Y75.644
X92.43Y98.555
X92.989Y40.541
X93.04Y44.504
X93.345Y75.593
X93.446Y37.544
X93.446Y34.191
X93.751Y45.52
X93.802Y66.297
X93.802Y43.894
X93.802Y39.017
X93.853Y19.408
X94.005Y76.965
X94.005Y71.936
X94.361Y48.161
X94.361Y46.79
X94.513Y34.852
X94.564Y91.748
X94.564Y62.284
X94.564Y61.064
X94.615Y86.16
X94.615Y74.984
X94.716Y25.25
X94.716Y22.66
X94.767Y17.224
X94.818Y27.841
X94.823Y48.974
X94.869Y64.925
X95.072Y39.322
X95.174Y74.374
X95.682Y89.36
X95.834Y79.403
X95.885Y68.583
X97.409Y29.162
X97.409Y23.371
X98.069Y56.746
X98.069Y22.05
X98.171Y84.229
X98.272Y69.904
X98.323Y76.304
X98.783Y80.724
X98.831Y90.681
X98.933Y48.974
X98.984Y27.841
X99.034Y74.984
X99.187Y39.322
T2
X6.121Y77.93
X11.404Y77.879
T3
X28.38Y18.46
X30.92Y81.96
X30.92Y18.46
X36.0Y21.0
X38.54Y79.42
X48.7Y21.0
X51.24Y81.96
X51.24Y21.0
X51.24Y18.46
X53.78Y21.0
X58.86Y81.96
X63.94Y81.96
T4
X3.175Y12.601
X8.46Y74.13
X8.46Y71.59
X8.46Y69.05
X8.46Y66.51
X8.46Y63.97
X8.46Y61.43
X8.46Y58.89
X8.46Y56.35
X8.46Y53.81
X8.46Y51.27
X8.46Y48.73
X8.46Y46.19
X8.46Y43.65
X8.46Y41.11
X8.46Y38.57
X8.46Y36.03
X8.46Y33.49
X8.46Y30.95
X8.46Y28.41
X8.46Y25.87
X11.0Y74.13
X11.0Y71.59
X11.0Y69.05
X11.0Y66.51
X11.0Y63.97
X11.0Y61.43
X11.0Y58.89
X11.0Y56.35
X11.0Y53.81
X11.0Y51.27
X11.0Y48.73
X11.0Y46.19
X11.0Y43.65
X11.0Y41.11
X11.0Y38.57
X11.0Y36.03
X11.0Y33.49
X11.0Y30.95
X11.0Y28.41
X11.0Y25.87
X39.954Y92.103
X87.757Y2.34
X97.409Y61.064
T0
M30
