%TF.GenerationSoftware,KiCad,Pcbnew,7.0.8*%
%TF.CreationDate,2023-11-02T18:43:55+01:00*%
%TF.ProjectId,eth,6574682e-6b69-4636-9164-5f7063625858,1*%
%TF.SameCoordinates,PX5f5e100PY7bfa480*%
%TF.FileFunction,Soldermask,Bot*%
%TF.FilePolarity,Negative*%
%FSLAX46Y46*%
G04 Gerber Fmt 4.6, Leading zero omitted, Abs format (unit mm)*
G04 Created by KiCad (PCBNEW 7.0.8) date 2023-11-02 18:43:55*
%MOMM*%
%LPD*%
G01*
G04 APERTURE LIST*
%ADD10C,2.000000*%
%ADD11C,3.200000*%
%ADD12C,1.600000*%
%ADD13R,1.700000X1.700000*%
%ADD14O,1.700000X1.700000*%
G04 APERTURE END LIST*
D10*
%TO.C,TP4*%
X87756800Y2339600D03*
%TD*%
%TO.C,TP3*%
X97408800Y61064400D03*
%TD*%
%TO.C,TP2*%
X39954000Y92103200D03*
%TD*%
%TO.C,TP1*%
X3174800Y12601200D03*
%TD*%
D11*
%TO.C,H1*%
X5000000Y95000000D03*
%TD*%
%TO.C,H3*%
X5000000Y5000000D03*
%TD*%
D12*
%TO.C,J2*%
X48700000Y21000000D03*
X51240000Y18460000D03*
X36000000Y21000000D03*
X51240000Y21000000D03*
X53780000Y21000000D03*
X38540000Y79420000D03*
X51240000Y81960000D03*
X63940000Y81960000D03*
X58860000Y81960000D03*
X30920000Y81960000D03*
X28380000Y18460000D03*
X30920000Y18460000D03*
%TD*%
D11*
%TO.C,H2*%
X95000000Y95000000D03*
%TD*%
%TO.C,H4*%
X95000000Y5000000D03*
%TD*%
D13*
%TO.C,J1*%
X11000000Y74130000D03*
D14*
X8460000Y74130000D03*
X11000000Y71590000D03*
X8460000Y71590000D03*
X11000000Y69050000D03*
X8460000Y69050000D03*
X11000000Y66510000D03*
X8460000Y66510000D03*
X11000000Y63970000D03*
X8460000Y63970000D03*
X11000000Y61430000D03*
X8460000Y61430000D03*
X11000000Y58890000D03*
X8460000Y58890000D03*
X11000000Y56350000D03*
X8460000Y56350000D03*
X11000000Y53810000D03*
X8460000Y53810000D03*
X11000000Y51270000D03*
X8460000Y51270000D03*
X11000000Y48730000D03*
X8460000Y48730000D03*
X11000000Y46190000D03*
X8460000Y46190000D03*
X11000000Y43650000D03*
X8460000Y43650000D03*
X11000000Y41110000D03*
X8460000Y41110000D03*
X11000000Y38570000D03*
X8460000Y38570000D03*
X11000000Y36030000D03*
X8460000Y36030000D03*
X11000000Y33490000D03*
X8460000Y33490000D03*
X11000000Y30950000D03*
X8460000Y30950000D03*
X11000000Y28410000D03*
X8460000Y28410000D03*
X11000000Y25870000D03*
X8460000Y25870000D03*
%TD*%
M02*
