%TF.GenerationSoftware,KiCad,Pcbnew,7.0.8*%
%TF.CreationDate,2023-11-02T18:43:55+01:00*%
%TF.ProjectId,eth,6574682e-6b69-4636-9164-5f7063625858,1*%
%TF.SameCoordinates,PX5f5e100PY7bfa480*%
%TF.FileFunction,Legend,Bot*%
%TF.FilePolarity,Positive*%
%FSLAX46Y46*%
G04 Gerber Fmt 4.6, Leading zero omitted, Abs format (unit mm)*
G04 Created by KiCad (PCBNEW 7.0.8) date 2023-11-02 18:43:55*
%MOMM*%
%LPD*%
G01*
G04 APERTURE LIST*
%ADD10C,0.150000*%
%ADD11C,0.120000*%
G04 APERTURE END LIST*
D10*
X15185819Y75694631D02*
X15185819Y76170821D01*
X15185819Y76170821D02*
X14185819Y76170821D01*
X15185819Y75361297D02*
X14519152Y75361297D01*
X14185819Y75361297D02*
X14233438Y75408916D01*
X14233438Y75408916D02*
X14281057Y75361297D01*
X14281057Y75361297D02*
X14233438Y75313678D01*
X14233438Y75313678D02*
X14185819Y75361297D01*
X14185819Y75361297D02*
X14281057Y75361297D01*
X15138200Y74456536D02*
X15185819Y74551774D01*
X15185819Y74551774D02*
X15185819Y74742250D01*
X15185819Y74742250D02*
X15138200Y74837488D01*
X15138200Y74837488D02*
X15090580Y74885107D01*
X15090580Y74885107D02*
X14995342Y74932726D01*
X14995342Y74932726D02*
X14709628Y74932726D01*
X14709628Y74932726D02*
X14614390Y74885107D01*
X14614390Y74885107D02*
X14566771Y74837488D01*
X14566771Y74837488D02*
X14519152Y74742250D01*
X14519152Y74742250D02*
X14519152Y74551774D01*
X14519152Y74551774D02*
X14566771Y74456536D01*
X15138200Y73647012D02*
X15185819Y73742250D01*
X15185819Y73742250D02*
X15185819Y73932726D01*
X15185819Y73932726D02*
X15138200Y74027964D01*
X15138200Y74027964D02*
X15042961Y74075583D01*
X15042961Y74075583D02*
X14662009Y74075583D01*
X14662009Y74075583D02*
X14566771Y74027964D01*
X14566771Y74027964D02*
X14519152Y73932726D01*
X14519152Y73932726D02*
X14519152Y73742250D01*
X14519152Y73742250D02*
X14566771Y73647012D01*
X14566771Y73647012D02*
X14662009Y73599393D01*
X14662009Y73599393D02*
X14757247Y73599393D01*
X14757247Y73599393D02*
X14852485Y74075583D01*
X14519152Y73170821D02*
X15185819Y73170821D01*
X14614390Y73170821D02*
X14566771Y73123202D01*
X14566771Y73123202D02*
X14519152Y73027964D01*
X14519152Y73027964D02*
X14519152Y72885107D01*
X14519152Y72885107D02*
X14566771Y72789869D01*
X14566771Y72789869D02*
X14662009Y72742250D01*
X14662009Y72742250D02*
X15185819Y72742250D01*
X15138200Y72313678D02*
X15185819Y72218440D01*
X15185819Y72218440D02*
X15185819Y72027964D01*
X15185819Y72027964D02*
X15138200Y71932726D01*
X15138200Y71932726D02*
X15042961Y71885107D01*
X15042961Y71885107D02*
X14995342Y71885107D01*
X14995342Y71885107D02*
X14900104Y71932726D01*
X14900104Y71932726D02*
X14852485Y72027964D01*
X14852485Y72027964D02*
X14852485Y72170821D01*
X14852485Y72170821D02*
X14804866Y72266059D01*
X14804866Y72266059D02*
X14709628Y72313678D01*
X14709628Y72313678D02*
X14662009Y72313678D01*
X14662009Y72313678D02*
X14566771Y72266059D01*
X14566771Y72266059D02*
X14519152Y72170821D01*
X14519152Y72170821D02*
X14519152Y72027964D01*
X14519152Y72027964D02*
X14566771Y71932726D01*
X15138200Y71075583D02*
X15185819Y71170821D01*
X15185819Y71170821D02*
X15185819Y71361297D01*
X15185819Y71361297D02*
X15138200Y71456535D01*
X15138200Y71456535D02*
X15042961Y71504154D01*
X15042961Y71504154D02*
X14662009Y71504154D01*
X14662009Y71504154D02*
X14566771Y71456535D01*
X14566771Y71456535D02*
X14519152Y71361297D01*
X14519152Y71361297D02*
X14519152Y71170821D01*
X14519152Y71170821D02*
X14566771Y71075583D01*
X14566771Y71075583D02*
X14662009Y71027964D01*
X14662009Y71027964D02*
X14757247Y71027964D01*
X14757247Y71027964D02*
X14852485Y71504154D01*
X15185819Y70170821D02*
X14185819Y70170821D01*
X15138200Y70170821D02*
X15185819Y70266059D01*
X15185819Y70266059D02*
X15185819Y70456535D01*
X15185819Y70456535D02*
X15138200Y70551773D01*
X15138200Y70551773D02*
X15090580Y70599392D01*
X15090580Y70599392D02*
X14995342Y70647011D01*
X14995342Y70647011D02*
X14709628Y70647011D01*
X14709628Y70647011D02*
X14614390Y70599392D01*
X14614390Y70599392D02*
X14566771Y70551773D01*
X14566771Y70551773D02*
X14519152Y70456535D01*
X14519152Y70456535D02*
X14519152Y70266059D01*
X14519152Y70266059D02*
X14566771Y70170821D01*
X14519152Y68504154D02*
X15185819Y68504154D01*
X14519152Y68932725D02*
X15042961Y68932725D01*
X15042961Y68932725D02*
X15138200Y68885106D01*
X15138200Y68885106D02*
X15185819Y68789868D01*
X15185819Y68789868D02*
X15185819Y68647011D01*
X15185819Y68647011D02*
X15138200Y68551773D01*
X15138200Y68551773D02*
X15090580Y68504154D01*
X14519152Y68027963D02*
X15185819Y68027963D01*
X14614390Y68027963D02*
X14566771Y67980344D01*
X14566771Y67980344D02*
X14519152Y67885106D01*
X14519152Y67885106D02*
X14519152Y67742249D01*
X14519152Y67742249D02*
X14566771Y67647011D01*
X14566771Y67647011D02*
X14662009Y67599392D01*
X14662009Y67599392D02*
X15185819Y67599392D01*
X15185819Y66694630D02*
X14185819Y66694630D01*
X15138200Y66694630D02*
X15185819Y66789868D01*
X15185819Y66789868D02*
X15185819Y66980344D01*
X15185819Y66980344D02*
X15138200Y67075582D01*
X15138200Y67075582D02*
X15090580Y67123201D01*
X15090580Y67123201D02*
X14995342Y67170820D01*
X14995342Y67170820D02*
X14709628Y67170820D01*
X14709628Y67170820D02*
X14614390Y67123201D01*
X14614390Y67123201D02*
X14566771Y67075582D01*
X14566771Y67075582D02*
X14519152Y66980344D01*
X14519152Y66980344D02*
X14519152Y66789868D01*
X14519152Y66789868D02*
X14566771Y66694630D01*
X15138200Y65837487D02*
X15185819Y65932725D01*
X15185819Y65932725D02*
X15185819Y66123201D01*
X15185819Y66123201D02*
X15138200Y66218439D01*
X15138200Y66218439D02*
X15042961Y66266058D01*
X15042961Y66266058D02*
X14662009Y66266058D01*
X14662009Y66266058D02*
X14566771Y66218439D01*
X14566771Y66218439D02*
X14519152Y66123201D01*
X14519152Y66123201D02*
X14519152Y65932725D01*
X14519152Y65932725D02*
X14566771Y65837487D01*
X14566771Y65837487D02*
X14662009Y65789868D01*
X14662009Y65789868D02*
X14757247Y65789868D01*
X14757247Y65789868D02*
X14852485Y66266058D01*
X15185819Y65361296D02*
X14519152Y65361296D01*
X14709628Y65361296D02*
X14614390Y65313677D01*
X14614390Y65313677D02*
X14566771Y65266058D01*
X14566771Y65266058D02*
X14519152Y65170820D01*
X14519152Y65170820D02*
X14519152Y65075582D01*
X14519152Y64123200D02*
X14519152Y63742248D01*
X14185819Y63980343D02*
X15042961Y63980343D01*
X15042961Y63980343D02*
X15138200Y63932724D01*
X15138200Y63932724D02*
X15185819Y63837486D01*
X15185819Y63837486D02*
X15185819Y63742248D01*
X15185819Y63408914D02*
X14185819Y63408914D01*
X15185819Y62980343D02*
X14662009Y62980343D01*
X14662009Y62980343D02*
X14566771Y63027962D01*
X14566771Y63027962D02*
X14519152Y63123200D01*
X14519152Y63123200D02*
X14519152Y63266057D01*
X14519152Y63266057D02*
X14566771Y63361295D01*
X14566771Y63361295D02*
X14614390Y63408914D01*
X15138200Y62123200D02*
X15185819Y62218438D01*
X15185819Y62218438D02*
X15185819Y62408914D01*
X15185819Y62408914D02*
X15138200Y62504152D01*
X15138200Y62504152D02*
X15042961Y62551771D01*
X15042961Y62551771D02*
X14662009Y62551771D01*
X14662009Y62551771D02*
X14566771Y62504152D01*
X14566771Y62504152D02*
X14519152Y62408914D01*
X14519152Y62408914D02*
X14519152Y62218438D01*
X14519152Y62218438D02*
X14566771Y62123200D01*
X14566771Y62123200D02*
X14662009Y62075581D01*
X14662009Y62075581D02*
X14757247Y62075581D01*
X14757247Y62075581D02*
X14852485Y62551771D01*
X14185819Y61027961D02*
X14185819Y60456533D01*
X15185819Y60742247D02*
X14185819Y60742247D01*
X14900104Y60170818D02*
X14900104Y59694628D01*
X15185819Y60266056D02*
X14185819Y59932723D01*
X14185819Y59932723D02*
X15185819Y59599390D01*
X15185819Y59266056D02*
X14185819Y59266056D01*
X14185819Y59266056D02*
X14185819Y58885104D01*
X14185819Y58885104D02*
X14233438Y58789866D01*
X14233438Y58789866D02*
X14281057Y58742247D01*
X14281057Y58742247D02*
X14376295Y58694628D01*
X14376295Y58694628D02*
X14519152Y58694628D01*
X14519152Y58694628D02*
X14614390Y58742247D01*
X14614390Y58742247D02*
X14662009Y58789866D01*
X14662009Y58789866D02*
X14709628Y58885104D01*
X14709628Y58885104D02*
X14709628Y59266056D01*
X15185819Y57694628D02*
X14709628Y58027961D01*
X15185819Y58266056D02*
X14185819Y58266056D01*
X14185819Y58266056D02*
X14185819Y57885104D01*
X14185819Y57885104D02*
X14233438Y57789866D01*
X14233438Y57789866D02*
X14281057Y57742247D01*
X14281057Y57742247D02*
X14376295Y57694628D01*
X14376295Y57694628D02*
X14519152Y57694628D01*
X14519152Y57694628D02*
X14614390Y57742247D01*
X14614390Y57742247D02*
X14662009Y57789866D01*
X14662009Y57789866D02*
X14709628Y57885104D01*
X14709628Y57885104D02*
X14709628Y58266056D01*
X14185819Y56313675D02*
X14185819Y56123199D01*
X14185819Y56123199D02*
X14233438Y56027961D01*
X14233438Y56027961D02*
X14328676Y55932723D01*
X14328676Y55932723D02*
X14519152Y55885104D01*
X14519152Y55885104D02*
X14852485Y55885104D01*
X14852485Y55885104D02*
X15042961Y55932723D01*
X15042961Y55932723D02*
X15138200Y56027961D01*
X15138200Y56027961D02*
X15185819Y56123199D01*
X15185819Y56123199D02*
X15185819Y56313675D01*
X15185819Y56313675D02*
X15138200Y56408913D01*
X15138200Y56408913D02*
X15042961Y56504151D01*
X15042961Y56504151D02*
X14852485Y56551770D01*
X14852485Y56551770D02*
X14519152Y56551770D01*
X14519152Y56551770D02*
X14328676Y56504151D01*
X14328676Y56504151D02*
X14233438Y56408913D01*
X14233438Y56408913D02*
X14185819Y56313675D01*
X14519152Y55456532D02*
X15519152Y55456532D01*
X14566771Y55456532D02*
X14519152Y55361294D01*
X14519152Y55361294D02*
X14519152Y55170818D01*
X14519152Y55170818D02*
X14566771Y55075580D01*
X14566771Y55075580D02*
X14614390Y55027961D01*
X14614390Y55027961D02*
X14709628Y54980342D01*
X14709628Y54980342D02*
X14995342Y54980342D01*
X14995342Y54980342D02*
X15090580Y55027961D01*
X15090580Y55027961D02*
X15138200Y55075580D01*
X15138200Y55075580D02*
X15185819Y55170818D01*
X15185819Y55170818D02*
X15185819Y55361294D01*
X15185819Y55361294D02*
X15138200Y55456532D01*
X15138200Y54170818D02*
X15185819Y54266056D01*
X15185819Y54266056D02*
X15185819Y54456532D01*
X15185819Y54456532D02*
X15138200Y54551770D01*
X15138200Y54551770D02*
X15042961Y54599389D01*
X15042961Y54599389D02*
X14662009Y54599389D01*
X14662009Y54599389D02*
X14566771Y54551770D01*
X14566771Y54551770D02*
X14519152Y54456532D01*
X14519152Y54456532D02*
X14519152Y54266056D01*
X14519152Y54266056D02*
X14566771Y54170818D01*
X14566771Y54170818D02*
X14662009Y54123199D01*
X14662009Y54123199D02*
X14757247Y54123199D01*
X14757247Y54123199D02*
X14852485Y54599389D01*
X14519152Y53694627D02*
X15185819Y53694627D01*
X14614390Y53694627D02*
X14566771Y53647008D01*
X14566771Y53647008D02*
X14519152Y53551770D01*
X14519152Y53551770D02*
X14519152Y53408913D01*
X14519152Y53408913D02*
X14566771Y53313675D01*
X14566771Y53313675D02*
X14662009Y53266056D01*
X14662009Y53266056D02*
X15185819Y53266056D01*
X15185819Y52027960D02*
X14185819Y52027960D01*
X14662009Y52027960D02*
X14662009Y51456532D01*
X15185819Y51456532D02*
X14185819Y51456532D01*
X15185819Y50551770D02*
X14662009Y50551770D01*
X14662009Y50551770D02*
X14566771Y50599389D01*
X14566771Y50599389D02*
X14519152Y50694627D01*
X14519152Y50694627D02*
X14519152Y50885103D01*
X14519152Y50885103D02*
X14566771Y50980341D01*
X15138200Y50551770D02*
X15185819Y50647008D01*
X15185819Y50647008D02*
X15185819Y50885103D01*
X15185819Y50885103D02*
X15138200Y50980341D01*
X15138200Y50980341D02*
X15042961Y51027960D01*
X15042961Y51027960D02*
X14947723Y51027960D01*
X14947723Y51027960D02*
X14852485Y50980341D01*
X14852485Y50980341D02*
X14804866Y50885103D01*
X14804866Y50885103D02*
X14804866Y50647008D01*
X14804866Y50647008D02*
X14757247Y50551770D01*
X15185819Y50075579D02*
X14519152Y50075579D01*
X14709628Y50075579D02*
X14614390Y50027960D01*
X14614390Y50027960D02*
X14566771Y49980341D01*
X14566771Y49980341D02*
X14519152Y49885103D01*
X14519152Y49885103D02*
X14519152Y49789865D01*
X15185819Y49027960D02*
X14185819Y49027960D01*
X15138200Y49027960D02*
X15185819Y49123198D01*
X15185819Y49123198D02*
X15185819Y49313674D01*
X15185819Y49313674D02*
X15138200Y49408912D01*
X15138200Y49408912D02*
X15090580Y49456531D01*
X15090580Y49456531D02*
X14995342Y49504150D01*
X14995342Y49504150D02*
X14709628Y49504150D01*
X14709628Y49504150D02*
X14614390Y49456531D01*
X14614390Y49456531D02*
X14566771Y49408912D01*
X14566771Y49408912D02*
X14519152Y49313674D01*
X14519152Y49313674D02*
X14519152Y49123198D01*
X14519152Y49123198D02*
X14566771Y49027960D01*
X14519152Y48647007D02*
X15185819Y48456531D01*
X15185819Y48456531D02*
X14709628Y48266055D01*
X14709628Y48266055D02*
X15185819Y48075579D01*
X15185819Y48075579D02*
X14519152Y47885103D01*
X15185819Y47075579D02*
X14662009Y47075579D01*
X14662009Y47075579D02*
X14566771Y47123198D01*
X14566771Y47123198D02*
X14519152Y47218436D01*
X14519152Y47218436D02*
X14519152Y47408912D01*
X14519152Y47408912D02*
X14566771Y47504150D01*
X15138200Y47075579D02*
X15185819Y47170817D01*
X15185819Y47170817D02*
X15185819Y47408912D01*
X15185819Y47408912D02*
X15138200Y47504150D01*
X15138200Y47504150D02*
X15042961Y47551769D01*
X15042961Y47551769D02*
X14947723Y47551769D01*
X14947723Y47551769D02*
X14852485Y47504150D01*
X14852485Y47504150D02*
X14804866Y47408912D01*
X14804866Y47408912D02*
X14804866Y47170817D01*
X14804866Y47170817D02*
X14757247Y47075579D01*
X15185819Y46599388D02*
X14519152Y46599388D01*
X14709628Y46599388D02*
X14614390Y46551769D01*
X14614390Y46551769D02*
X14566771Y46504150D01*
X14566771Y46504150D02*
X14519152Y46408912D01*
X14519152Y46408912D02*
X14519152Y46313674D01*
X15138200Y45599388D02*
X15185819Y45694626D01*
X15185819Y45694626D02*
X15185819Y45885102D01*
X15185819Y45885102D02*
X15138200Y45980340D01*
X15138200Y45980340D02*
X15042961Y46027959D01*
X15042961Y46027959D02*
X14662009Y46027959D01*
X14662009Y46027959D02*
X14566771Y45980340D01*
X14566771Y45980340D02*
X14519152Y45885102D01*
X14519152Y45885102D02*
X14519152Y45694626D01*
X14519152Y45694626D02*
X14566771Y45599388D01*
X14566771Y45599388D02*
X14662009Y45551769D01*
X14662009Y45551769D02*
X14757247Y45551769D01*
X14757247Y45551769D02*
X14852485Y46027959D01*
X15185819Y43885102D02*
X15185819Y44361292D01*
X15185819Y44361292D02*
X14185819Y44361292D01*
X15185819Y43551768D02*
X14519152Y43551768D01*
X14185819Y43551768D02*
X14233438Y43599387D01*
X14233438Y43599387D02*
X14281057Y43551768D01*
X14281057Y43551768D02*
X14233438Y43504149D01*
X14233438Y43504149D02*
X14185819Y43551768D01*
X14185819Y43551768D02*
X14281057Y43551768D01*
X15138200Y42647007D02*
X15185819Y42742245D01*
X15185819Y42742245D02*
X15185819Y42932721D01*
X15185819Y42932721D02*
X15138200Y43027959D01*
X15138200Y43027959D02*
X15090580Y43075578D01*
X15090580Y43075578D02*
X14995342Y43123197D01*
X14995342Y43123197D02*
X14709628Y43123197D01*
X14709628Y43123197D02*
X14614390Y43075578D01*
X14614390Y43075578D02*
X14566771Y43027959D01*
X14566771Y43027959D02*
X14519152Y42932721D01*
X14519152Y42932721D02*
X14519152Y42742245D01*
X14519152Y42742245D02*
X14566771Y42647007D01*
X15138200Y41837483D02*
X15185819Y41932721D01*
X15185819Y41932721D02*
X15185819Y42123197D01*
X15185819Y42123197D02*
X15138200Y42218435D01*
X15138200Y42218435D02*
X15042961Y42266054D01*
X15042961Y42266054D02*
X14662009Y42266054D01*
X14662009Y42266054D02*
X14566771Y42218435D01*
X14566771Y42218435D02*
X14519152Y42123197D01*
X14519152Y42123197D02*
X14519152Y41932721D01*
X14519152Y41932721D02*
X14566771Y41837483D01*
X14566771Y41837483D02*
X14662009Y41789864D01*
X14662009Y41789864D02*
X14757247Y41789864D01*
X14757247Y41789864D02*
X14852485Y42266054D01*
X14519152Y41361292D02*
X15185819Y41361292D01*
X14614390Y41361292D02*
X14566771Y41313673D01*
X14566771Y41313673D02*
X14519152Y41218435D01*
X14519152Y41218435D02*
X14519152Y41075578D01*
X14519152Y41075578D02*
X14566771Y40980340D01*
X14566771Y40980340D02*
X14662009Y40932721D01*
X14662009Y40932721D02*
X15185819Y40932721D01*
X15138200Y40504149D02*
X15185819Y40408911D01*
X15185819Y40408911D02*
X15185819Y40218435D01*
X15185819Y40218435D02*
X15138200Y40123197D01*
X15138200Y40123197D02*
X15042961Y40075578D01*
X15042961Y40075578D02*
X14995342Y40075578D01*
X14995342Y40075578D02*
X14900104Y40123197D01*
X14900104Y40123197D02*
X14852485Y40218435D01*
X14852485Y40218435D02*
X14852485Y40361292D01*
X14852485Y40361292D02*
X14804866Y40456530D01*
X14804866Y40456530D02*
X14709628Y40504149D01*
X14709628Y40504149D02*
X14662009Y40504149D01*
X14662009Y40504149D02*
X14566771Y40456530D01*
X14566771Y40456530D02*
X14519152Y40361292D01*
X14519152Y40361292D02*
X14519152Y40218435D01*
X14519152Y40218435D02*
X14566771Y40123197D01*
X15138200Y39266054D02*
X15185819Y39361292D01*
X15185819Y39361292D02*
X15185819Y39551768D01*
X15185819Y39551768D02*
X15138200Y39647006D01*
X15138200Y39647006D02*
X15042961Y39694625D01*
X15042961Y39694625D02*
X14662009Y39694625D01*
X14662009Y39694625D02*
X14566771Y39647006D01*
X14566771Y39647006D02*
X14519152Y39551768D01*
X14519152Y39551768D02*
X14519152Y39361292D01*
X14519152Y39361292D02*
X14566771Y39266054D01*
X14566771Y39266054D02*
X14662009Y39218435D01*
X14662009Y39218435D02*
X14757247Y39218435D01*
X14757247Y39218435D02*
X14852485Y39694625D01*
X15566771Y37742244D02*
X15519152Y37789863D01*
X15519152Y37789863D02*
X15376295Y37885101D01*
X15376295Y37885101D02*
X15281057Y37932720D01*
X15281057Y37932720D02*
X15138200Y37980339D01*
X15138200Y37980339D02*
X14900104Y38027958D01*
X14900104Y38027958D02*
X14709628Y38027958D01*
X14709628Y38027958D02*
X14471533Y37980339D01*
X14471533Y37980339D02*
X14328676Y37932720D01*
X14328676Y37932720D02*
X14233438Y37885101D01*
X14233438Y37885101D02*
X14090580Y37789863D01*
X14090580Y37789863D02*
X14042961Y37742244D01*
X14519152Y37456529D02*
X15185819Y37266053D01*
X15185819Y37266053D02*
X14709628Y37075577D01*
X14709628Y37075577D02*
X15185819Y36885101D01*
X15185819Y36885101D02*
X14519152Y36694625D01*
X14519152Y36408910D02*
X15185819Y36218434D01*
X15185819Y36218434D02*
X14709628Y36027958D01*
X14709628Y36027958D02*
X15185819Y35837482D01*
X15185819Y35837482D02*
X14519152Y35647006D01*
X14519152Y35361291D02*
X15185819Y35170815D01*
X15185819Y35170815D02*
X14709628Y34980339D01*
X14709628Y34980339D02*
X15185819Y34789863D01*
X15185819Y34789863D02*
X14519152Y34599387D01*
X15090580Y34218434D02*
X15138200Y34170815D01*
X15138200Y34170815D02*
X15185819Y34218434D01*
X15185819Y34218434D02*
X15138200Y34266053D01*
X15138200Y34266053D02*
X15090580Y34218434D01*
X15090580Y34218434D02*
X15185819Y34218434D01*
X14519152Y33885101D02*
X14519152Y33504149D01*
X14185819Y33742244D02*
X15042961Y33742244D01*
X15042961Y33742244D02*
X15138200Y33694625D01*
X15138200Y33694625D02*
X15185819Y33599387D01*
X15185819Y33599387D02*
X15185819Y33504149D01*
X15185819Y32742244D02*
X14662009Y32742244D01*
X14662009Y32742244D02*
X14566771Y32789863D01*
X14566771Y32789863D02*
X14519152Y32885101D01*
X14519152Y32885101D02*
X14519152Y33075577D01*
X14519152Y33075577D02*
X14566771Y33170815D01*
X15138200Y32742244D02*
X15185819Y32837482D01*
X15185819Y32837482D02*
X15185819Y33075577D01*
X15185819Y33075577D02*
X15138200Y33170815D01*
X15138200Y33170815D02*
X15042961Y33218434D01*
X15042961Y33218434D02*
X14947723Y33218434D01*
X14947723Y33218434D02*
X14852485Y33170815D01*
X14852485Y33170815D02*
X14804866Y33075577D01*
X14804866Y33075577D02*
X14804866Y32837482D01*
X14804866Y32837482D02*
X14757247Y32742244D01*
X14519152Y32266053D02*
X15519152Y32266053D01*
X14566771Y32266053D02*
X14519152Y32170815D01*
X14519152Y32170815D02*
X14519152Y31980339D01*
X14519152Y31980339D02*
X14566771Y31885101D01*
X14566771Y31885101D02*
X14614390Y31837482D01*
X14614390Y31837482D02*
X14709628Y31789863D01*
X14709628Y31789863D02*
X14995342Y31789863D01*
X14995342Y31789863D02*
X15090580Y31837482D01*
X15090580Y31837482D02*
X15138200Y31885101D01*
X15138200Y31885101D02*
X15185819Y31980339D01*
X15185819Y31980339D02*
X15185819Y32170815D01*
X15185819Y32170815D02*
X15138200Y32266053D01*
X15185819Y31361291D02*
X14519152Y31361291D01*
X14709628Y31361291D02*
X14614390Y31313672D01*
X14614390Y31313672D02*
X14566771Y31266053D01*
X14566771Y31266053D02*
X14519152Y31170815D01*
X14519152Y31170815D02*
X14519152Y31075577D01*
X15090580Y30742243D02*
X15138200Y30694624D01*
X15138200Y30694624D02*
X15185819Y30742243D01*
X15185819Y30742243D02*
X15138200Y30789862D01*
X15138200Y30789862D02*
X15090580Y30742243D01*
X15090580Y30742243D02*
X15185819Y30742243D01*
X15185819Y30123196D02*
X15138200Y30218434D01*
X15138200Y30218434D02*
X15090580Y30266053D01*
X15090580Y30266053D02*
X14995342Y30313672D01*
X14995342Y30313672D02*
X14709628Y30313672D01*
X14709628Y30313672D02*
X14614390Y30266053D01*
X14614390Y30266053D02*
X14566771Y30218434D01*
X14566771Y30218434D02*
X14519152Y30123196D01*
X14519152Y30123196D02*
X14519152Y29980339D01*
X14519152Y29980339D02*
X14566771Y29885101D01*
X14566771Y29885101D02*
X14614390Y29837482D01*
X14614390Y29837482D02*
X14709628Y29789863D01*
X14709628Y29789863D02*
X14995342Y29789863D01*
X14995342Y29789863D02*
X15090580Y29837482D01*
X15090580Y29837482D02*
X15138200Y29885101D01*
X15138200Y29885101D02*
X15185819Y29980339D01*
X15185819Y29980339D02*
X15185819Y30123196D01*
X15185819Y29361291D02*
X14519152Y29361291D01*
X14709628Y29361291D02*
X14614390Y29313672D01*
X14614390Y29313672D02*
X14566771Y29266053D01*
X14566771Y29266053D02*
X14519152Y29170815D01*
X14519152Y29170815D02*
X14519152Y29075577D01*
X14519152Y28313672D02*
X15328676Y28313672D01*
X15328676Y28313672D02*
X15423914Y28361291D01*
X15423914Y28361291D02*
X15471533Y28408910D01*
X15471533Y28408910D02*
X15519152Y28504148D01*
X15519152Y28504148D02*
X15519152Y28647005D01*
X15519152Y28647005D02*
X15471533Y28742243D01*
X15138200Y28313672D02*
X15185819Y28408910D01*
X15185819Y28408910D02*
X15185819Y28599386D01*
X15185819Y28599386D02*
X15138200Y28694624D01*
X15138200Y28694624D02*
X15090580Y28742243D01*
X15090580Y28742243D02*
X14995342Y28789862D01*
X14995342Y28789862D02*
X14709628Y28789862D01*
X14709628Y28789862D02*
X14614390Y28742243D01*
X14614390Y28742243D02*
X14566771Y28694624D01*
X14566771Y28694624D02*
X14519152Y28599386D01*
X14519152Y28599386D02*
X14519152Y28408910D01*
X14519152Y28408910D02*
X14566771Y28313672D01*
X14138200Y27123196D02*
X15423914Y27980338D01*
X14185819Y26599386D02*
X14185819Y26408910D01*
X14185819Y26408910D02*
X14233438Y26313672D01*
X14233438Y26313672D02*
X14328676Y26218434D01*
X14328676Y26218434D02*
X14519152Y26170815D01*
X14519152Y26170815D02*
X14852485Y26170815D01*
X14852485Y26170815D02*
X15042961Y26218434D01*
X15042961Y26218434D02*
X15138200Y26313672D01*
X15138200Y26313672D02*
X15185819Y26408910D01*
X15185819Y26408910D02*
X15185819Y26599386D01*
X15185819Y26599386D02*
X15138200Y26694624D01*
X15138200Y26694624D02*
X15042961Y26789862D01*
X15042961Y26789862D02*
X14852485Y26837481D01*
X14852485Y26837481D02*
X14519152Y26837481D01*
X14519152Y26837481D02*
X14328676Y26789862D01*
X14328676Y26789862D02*
X14233438Y26694624D01*
X14233438Y26694624D02*
X14185819Y26599386D01*
X15185819Y25742243D02*
X14185819Y25742243D01*
X14662009Y25742243D02*
X14662009Y25170815D01*
X15185819Y25170815D02*
X14185819Y25170815D01*
X15185819Y24218434D02*
X15185819Y24694624D01*
X15185819Y24694624D02*
X14185819Y24694624D01*
X15566771Y23980338D02*
X15519152Y23932719D01*
X15519152Y23932719D02*
X15376295Y23837481D01*
X15376295Y23837481D02*
X15281057Y23789862D01*
X15281057Y23789862D02*
X15138200Y23742243D01*
X15138200Y23742243D02*
X14900104Y23694624D01*
X14900104Y23694624D02*
X14709628Y23694624D01*
X14709628Y23694624D02*
X14471533Y23742243D01*
X14471533Y23742243D02*
X14328676Y23789862D01*
X14328676Y23789862D02*
X14233438Y23837481D01*
X14233438Y23837481D02*
X14090580Y23932719D01*
X14090580Y23932719D02*
X14042961Y23980338D01*
X5678333Y76945181D02*
X5678333Y76230896D01*
X5678333Y76230896D02*
X5725952Y76088039D01*
X5725952Y76088039D02*
X5821190Y75992800D01*
X5821190Y75992800D02*
X5964047Y75945181D01*
X5964047Y75945181D02*
X6059285Y75945181D01*
X4678333Y75945181D02*
X5249761Y75945181D01*
X4964047Y75945181D02*
X4964047Y76945181D01*
X4964047Y76945181D02*
X5059285Y76802324D01*
X5059285Y76802324D02*
X5154523Y76707086D01*
X5154523Y76707086D02*
X5249761Y76659467D01*
D11*
%TO.C,J1*%
X12270000Y74130000D02*
X12270000Y75400000D01*
X12270000Y75400000D02*
X11000000Y75400000D01*
X9957071Y25490000D02*
X9502929Y25490000D01*
X9957071Y26250000D02*
X9502929Y26250000D01*
X9957071Y28030000D02*
X9502929Y28030000D01*
X9957071Y28790000D02*
X9502929Y28790000D01*
X9957071Y30570000D02*
X9502929Y30570000D01*
X9957071Y31330000D02*
X9502929Y31330000D01*
X9957071Y33110000D02*
X9502929Y33110000D01*
X9957071Y33870000D02*
X9502929Y33870000D01*
X9957071Y35650000D02*
X9502929Y35650000D01*
X9957071Y36410000D02*
X9502929Y36410000D01*
X9957071Y38190000D02*
X9502929Y38190000D01*
X9957071Y38950000D02*
X9502929Y38950000D01*
X9957071Y40730000D02*
X9502929Y40730000D01*
X9957071Y41490000D02*
X9502929Y41490000D01*
X9957071Y43270000D02*
X9502929Y43270000D01*
X9957071Y44030000D02*
X9502929Y44030000D01*
X9957071Y45810000D02*
X9502929Y45810000D01*
X9957071Y46570000D02*
X9502929Y46570000D01*
X9957071Y48350000D02*
X9502929Y48350000D01*
X9957071Y49110000D02*
X9502929Y49110000D01*
X9957071Y50890000D02*
X9502929Y50890000D01*
X9957071Y51650000D02*
X9502929Y51650000D01*
X9957071Y53430000D02*
X9502929Y53430000D01*
X9957071Y54190000D02*
X9502929Y54190000D01*
X9957071Y55970000D02*
X9502929Y55970000D01*
X9957071Y56730000D02*
X9502929Y56730000D01*
X9957071Y58510000D02*
X9502929Y58510000D01*
X9957071Y59270000D02*
X9502929Y59270000D01*
X9957071Y61050000D02*
X9502929Y61050000D01*
X9957071Y61810000D02*
X9502929Y61810000D01*
X9957071Y63590000D02*
X9502929Y63590000D01*
X9957071Y64350000D02*
X9502929Y64350000D01*
X9957071Y66130000D02*
X9502929Y66130000D01*
X9957071Y66890000D02*
X9502929Y66890000D01*
X9957071Y68670000D02*
X9502929Y68670000D01*
X9957071Y69430000D02*
X9502929Y69430000D01*
X9957071Y71210000D02*
X9502929Y71210000D01*
X9957071Y71970000D02*
X9502929Y71970000D01*
X9890000Y73750000D02*
X9502929Y73750000D01*
X9890000Y74510000D02*
X9502929Y74510000D01*
X7417071Y25490000D02*
X7020000Y25490000D01*
X7417071Y26250000D02*
X7020000Y26250000D01*
X7417071Y28030000D02*
X7020000Y28030000D01*
X7417071Y28790000D02*
X7020000Y28790000D01*
X7417071Y30570000D02*
X7020000Y30570000D01*
X7417071Y31330000D02*
X7020000Y31330000D01*
X7417071Y33110000D02*
X7020000Y33110000D01*
X7417071Y33870000D02*
X7020000Y33870000D01*
X7417071Y35650000D02*
X7020000Y35650000D01*
X7417071Y36410000D02*
X7020000Y36410000D01*
X7417071Y38190000D02*
X7020000Y38190000D01*
X7417071Y38950000D02*
X7020000Y38950000D01*
X7417071Y40730000D02*
X7020000Y40730000D01*
X7417071Y41490000D02*
X7020000Y41490000D01*
X7417071Y43270000D02*
X7020000Y43270000D01*
X7417071Y44030000D02*
X7020000Y44030000D01*
X7417071Y45810000D02*
X7020000Y45810000D01*
X7417071Y46570000D02*
X7020000Y46570000D01*
X7417071Y48350000D02*
X7020000Y48350000D01*
X7417071Y49110000D02*
X7020000Y49110000D01*
X7417071Y50890000D02*
X7020000Y50890000D01*
X7417071Y51650000D02*
X7020000Y51650000D01*
X7417071Y53430000D02*
X7020000Y53430000D01*
X7417071Y54190000D02*
X7020000Y54190000D01*
X7417071Y55970000D02*
X7020000Y55970000D01*
X7417071Y56730000D02*
X7020000Y56730000D01*
X7417071Y58510000D02*
X7020000Y58510000D01*
X7417071Y59270000D02*
X7020000Y59270000D01*
X7417071Y61050000D02*
X7020000Y61050000D01*
X7417071Y61810000D02*
X7020000Y61810000D01*
X7417071Y63590000D02*
X7020000Y63590000D01*
X7417071Y64350000D02*
X7020000Y64350000D01*
X7417071Y66130000D02*
X7020000Y66130000D01*
X7417071Y66890000D02*
X7020000Y66890000D01*
X7417071Y68670000D02*
X7020000Y68670000D01*
X7417071Y69430000D02*
X7020000Y69430000D01*
X7417071Y71210000D02*
X7020000Y71210000D01*
X7417071Y71970000D02*
X7020000Y71970000D01*
X7417071Y73750000D02*
X7020000Y73750000D01*
X7417071Y74510000D02*
X7020000Y74510000D01*
X7020000Y24540000D02*
X4360000Y24540000D01*
X7020000Y27140000D02*
X4360000Y27140000D01*
X7020000Y29680000D02*
X4360000Y29680000D01*
X7020000Y32220000D02*
X4360000Y32220000D01*
X7020000Y34760000D02*
X4360000Y34760000D01*
X7020000Y37300000D02*
X4360000Y37300000D01*
X7020000Y39840000D02*
X4360000Y39840000D01*
X7020000Y42380000D02*
X4360000Y42380000D01*
X7020000Y44920000D02*
X4360000Y44920000D01*
X7020000Y47460000D02*
X4360000Y47460000D01*
X7020000Y50000000D02*
X4360000Y50000000D01*
X7020000Y52540000D02*
X4360000Y52540000D01*
X7020000Y55080000D02*
X4360000Y55080000D01*
X7020000Y57620000D02*
X4360000Y57620000D01*
X7020000Y60160000D02*
X4360000Y60160000D01*
X7020000Y62700000D02*
X4360000Y62700000D01*
X7020000Y65240000D02*
X4360000Y65240000D01*
X7020000Y67780000D02*
X4360000Y67780000D01*
X7020000Y70320000D02*
X4360000Y70320000D01*
X7020000Y72860000D02*
X4360000Y72860000D01*
X7020000Y75460000D02*
X7020000Y24540000D01*
X4360000Y24540000D02*
X4360000Y75460000D01*
X4360000Y26250000D02*
X-1640000Y26250000D01*
X4360000Y28790000D02*
X-1640000Y28790000D01*
X4360000Y31330000D02*
X-1640000Y31330000D01*
X4360000Y33870000D02*
X-1640000Y33870000D01*
X4360000Y36410000D02*
X-1640000Y36410000D01*
X4360000Y38950000D02*
X-1640000Y38950000D01*
X4360000Y41490000D02*
X-1640000Y41490000D01*
X4360000Y44030000D02*
X-1640000Y44030000D01*
X4360000Y46570000D02*
X-1640000Y46570000D01*
X4360000Y49110000D02*
X-1640000Y49110000D01*
X4360000Y51650000D02*
X-1640000Y51650000D01*
X4360000Y54190000D02*
X-1640000Y54190000D01*
X4360000Y56730000D02*
X-1640000Y56730000D01*
X4360000Y59270000D02*
X-1640000Y59270000D01*
X4360000Y61810000D02*
X-1640000Y61810000D01*
X4360000Y64350000D02*
X-1640000Y64350000D01*
X4360000Y66890000D02*
X-1640000Y66890000D01*
X4360000Y69430000D02*
X-1640000Y69430000D01*
X4360000Y71970000D02*
X-1640000Y71970000D01*
X4360000Y73850000D02*
X-1640000Y73850000D01*
X4360000Y73970000D02*
X-1640000Y73970000D01*
X4360000Y74090000D02*
X-1640000Y74090000D01*
X4360000Y74210000D02*
X-1640000Y74210000D01*
X4360000Y74330000D02*
X-1640000Y74330000D01*
X4360000Y74450000D02*
X-1640000Y74450000D01*
X4360000Y74510000D02*
X-1640000Y74510000D01*
X4360000Y75460000D02*
X7020000Y75460000D01*
X-1640000Y25490000D02*
X4360000Y25490000D01*
X-1640000Y26250000D02*
X-1640000Y25490000D01*
X-1640000Y28030000D02*
X4360000Y28030000D01*
X-1640000Y28790000D02*
X-1640000Y28030000D01*
X-1640000Y30570000D02*
X4360000Y30570000D01*
X-1640000Y31330000D02*
X-1640000Y30570000D01*
X-1640000Y33110000D02*
X4360000Y33110000D01*
X-1640000Y33870000D02*
X-1640000Y33110000D01*
X-1640000Y35650000D02*
X4360000Y35650000D01*
X-1640000Y36410000D02*
X-1640000Y35650000D01*
X-1640000Y38190000D02*
X4360000Y38190000D01*
X-1640000Y38950000D02*
X-1640000Y38190000D01*
X-1640000Y40730000D02*
X4360000Y40730000D01*
X-1640000Y41490000D02*
X-1640000Y40730000D01*
X-1640000Y43270000D02*
X4360000Y43270000D01*
X-1640000Y44030000D02*
X-1640000Y43270000D01*
X-1640000Y45810000D02*
X4360000Y45810000D01*
X-1640000Y46570000D02*
X-1640000Y45810000D01*
X-1640000Y48350000D02*
X4360000Y48350000D01*
X-1640000Y49110000D02*
X-1640000Y48350000D01*
X-1640000Y50890000D02*
X4360000Y50890000D01*
X-1640000Y51650000D02*
X-1640000Y50890000D01*
X-1640000Y53430000D02*
X4360000Y53430000D01*
X-1640000Y54190000D02*
X-1640000Y53430000D01*
X-1640000Y55970000D02*
X4360000Y55970000D01*
X-1640000Y56730000D02*
X-1640000Y55970000D01*
X-1640000Y58510000D02*
X4360000Y58510000D01*
X-1640000Y59270000D02*
X-1640000Y58510000D01*
X-1640000Y61050000D02*
X4360000Y61050000D01*
X-1640000Y61810000D02*
X-1640000Y61050000D01*
X-1640000Y63590000D02*
X4360000Y63590000D01*
X-1640000Y64350000D02*
X-1640000Y63590000D01*
X-1640000Y66130000D02*
X4360000Y66130000D01*
X-1640000Y66890000D02*
X-1640000Y66130000D01*
X-1640000Y68670000D02*
X4360000Y68670000D01*
X-1640000Y69430000D02*
X-1640000Y68670000D01*
X-1640000Y71210000D02*
X4360000Y71210000D01*
X-1640000Y71970000D02*
X-1640000Y71210000D01*
X-1640000Y73750000D02*
X4360000Y73750000D01*
X-1640000Y74510000D02*
X-1640000Y73750000D01*
%TD*%
M02*
