M48
; DRILL file {KiCad (5.1.10-1-10_14)} date Monday, December 06, 2021 at 08:26:33 AM
; FORMAT={-:-/ absolute / inch / decimal}
; #@! TF.CreationDate,2021-12-06T08:26:33+01:00
; #@! TF.GenerationSoftware,Kicad,Pcbnew,(5.1.10-1-10_14)
; #@! TF.FileFunction,Plated,1,2,PTH
FMAT,2
INCH
T1C0.0118
T2C0.0157
T3C0.0394
%
G90
G05
T1
X2.2205Y-2.4409
X2.2205Y-3.7402
X2.2283Y-5.5039
X2.252Y-3.6142
X2.252Y-5.5354
X2.2756Y-3.189
X2.2756Y-5.4331
X2.2802Y-2.8346
X2.2992Y-2.4724
X2.2992Y-3.2362
X2.2992Y-5.4016
X2.3228Y-5.5906
X2.3386Y-2.5827
X2.3386Y-3.1339
X2.3386Y-5.6142
X2.3576Y-3.0866
X2.3622Y-2.5591
X2.3622Y-4.2362
X2.3622Y-4.3858
X2.378Y-3.6457
X2.3858Y-4.3307
X2.3891Y-3.8346
X2.3891Y-3.8976
X2.3937Y-3.685
X2.4014Y-3.9213
X2.4094Y-3.7244
X2.4137Y-4.189
X2.4298Y-3.748
X2.4331Y-4.8268
X2.4375Y-4.1793
X2.4409Y-4.1417
X2.4488Y-3.7008
X2.4488Y-4.0315
X2.4724Y-3.6772
X2.4724Y-4.0866
X2.4724Y-4.126
X2.4803Y-4.5433
X2.4882Y-5.3465
X2.4961Y-4.2835
X2.5039Y-3.8661
X2.5454Y-3.5296
X2.5748Y-5.5591
X2.622Y-3.2598
X2.6299Y-4.5512
X2.6378Y-3.0519
X2.6614Y-2.0551
X2.6693Y-2.8583
X2.6929Y-2.6772
X2.7638Y-3.1102
X2.7717Y-2.8346
X2.7874Y-4.2441
X2.7874Y-4.4724
X2.7874Y-4.6378
X2.7874Y-4.7403
X2.8189Y-2.7402
X2.8346Y-3.9921
X2.8346Y-4.181
X2.8583Y-4.3543
X2.8629Y-4.5594
X2.8681Y-4.4633
X2.874Y-4.5276
X2.8976Y-3.8536
X2.8976Y-4.0472
X2.9291Y-5.3701
X2.9308Y-3.3796
X2.952Y-3.3535
X2.9606Y-2.0472
X2.9633Y-5.4567
X3.0079Y-4.4488
X3.0157Y-5.4803
X3.0236Y-5.5906
X3.0367Y-5.0787
X3.0394Y-3.2441
X3.0444Y-2.5877
X3.0709Y-2.8583
X3.0866Y-5.6142
X3.087Y-2.5594
X3.0984Y-3.3268
X3.1211Y-5.0837
X3.126Y-3.2441
X3.1339Y-5.4094
X3.1417Y-4.5433
X3.1467Y-4.4518
X3.1496Y-2.685
X3.1496Y-5.1024
X3.1654Y-2.6535
X3.1732Y-2.8346
X3.1732Y-3.3228
X3.1732Y-4.126
X3.1732Y-4.181
X3.1732Y-4.7691
X3.1732Y-4.8189
X3.1732Y-5.3228
X3.189Y-5.4331
X3.1969Y-2.8583
X3.1969Y-3.0519
X3.1969Y-4.4836
X3.1969Y-4.5577
X3.1969Y-5.0787
X3.1969Y-5.1181
X3.2205Y-2.8773
X3.2205Y-4.2756
X3.2205Y-4.8425
X3.2283Y-2.4724
X3.2283Y-4.5702
X3.2283Y-5.1417
X3.2441Y-4.4993
X3.2441Y-4.7403
X3.2441Y-5.0597
X3.252Y-5.3071
X3.2735Y-4.5702
X3.2756Y-2.8346
X3.2756Y-4.2912
X3.2756Y-4.866
X3.2756Y-5.1371
X3.2913Y-2.6535
X3.2913Y-5.3905
X3.2992Y-3.2835
X3.2992Y-4.3465
X3.2992Y-4.5702
X3.2992Y-4.685
X3.2992Y-5.0394
X3.2992Y-5.2835
X3.3307Y-2.8583
X3.3307Y-4.3387
X3.3307Y-4.5197
X3.3307Y-4.9135
X3.3307Y-5.1181
X3.3386Y-5.4803
X3.3535Y-3.3535
X3.3543Y-4.2441
X3.3543Y-5.0157
X3.3751Y-4.685
X3.3858Y-5.4567
X3.4094Y-3.1181
X3.4094Y-4.2912
X3.4094Y-4.866
X3.4284Y-4.8417
X3.4331Y-2.5591
X3.4331Y-4.2624
X3.4331Y-5.3715
X3.4474Y-4.8189
X3.4567Y-4.181
X3.4724Y-3.0945
X3.4803Y-4.1496
X3.4803Y-4.5197
X3.4803Y-5.1181
X3.4882Y-2.5827
X3.4969Y-3.3535
X3.5039Y-4.1306
X3.5039Y-4.767
X3.5039Y-5.3261
X3.5101Y-3.3796
X3.5197Y-3.5039
X3.5276Y-2.6693
X3.5276Y-5.5748
X3.5354Y-2.4724
X3.5354Y-5.3543
X3.5354Y-5.4724
X3.5512Y-2.6378
X3.5591Y-4.5906
X3.5591Y-5.1654
X3.5748Y-2.8583
X3.587Y-3.587
X3.5906Y-2.5354
X3.5984Y-5.2047
X3.6063Y-2.9134
X3.6063Y-4.6142
X3.614Y-3.5276
X3.622Y-5.3905
X3.6299Y-2.4914
X3.6299Y-2.874
X3.6299Y-3.2835
X3.6299Y-5.5433
X3.6437Y-4.3406
X3.6457Y-4.9449
X3.6535Y-2.8038
X3.6614Y-2.578
X3.6614Y-3.5322
X3.6772Y-4.2624
X3.685Y-3.8346
X3.7087Y-2.5433
X3.7087Y-3.2598
X3.7165Y-3.3228
X3.7323Y-2.4724
X3.7323Y-3.5276
X3.7323Y-5.5039
X3.7559Y-2.4882
X3.7638Y-3.6142
X3.7638Y-4.1306
X3.7638Y-4.4993
X3.7638Y-4.6772
X3.7638Y-5.3307
X3.7684Y-5.0597
X3.7795Y-3.7874
X3.7874Y-4.5197
X3.7874Y-5.1181
X3.7874Y-5.5984
X3.8031Y-2.5512
X3.811Y-3.3543
X3.811Y-4.1522
X3.811Y-4.4456
X3.811Y-4.4836
X3.811Y-4.9135
X3.811Y-5.0787
X3.8268Y-5.6299
X3.8346Y-4.767
X3.8346Y-5.378
X3.8583Y-4.2835
X3.862Y-3.3896
X3.8622Y-5.3701
X3.8661Y-4.811
X3.8898Y-4.252
X3.8898Y-4.5702
X3.8898Y-5.0394
X3.8976Y-4.8346
X3.9055Y-3.2598
X3.9125Y-2.6693
X3.9134Y-3.5906
X3.9134Y-4.181
X3.9134Y-4.3387
X3.9134Y-4.685
X3.9134Y-4.9135
X3.9134Y-5.0157
X3.937Y-2.874
X3.937Y-3.315
X3.937Y-3.7559
X3.937Y-4.2912
X3.937Y-4.866
X3.9528Y-2.6378
X3.9606Y-3.7874
X3.9685Y-2.8661
X3.9685Y-3.252
X3.9764Y-4.5197
X3.9764Y-5.1181
X3.9843Y-3.189
X3.9921Y-3.7008
X3.9954Y-4.6772
X4.0Y-3.2835
X4.0Y-5.3307
X4.0079Y-3.1181
X4.0157Y-2.8038
X4.0157Y-3.8346
X4.0157Y-4.2835
X4.0163Y-4.8562
X4.0394Y-2.8661
X4.0394Y-3.6772
X4.0414Y-4.3485
X4.0452Y-4.9233
X4.063Y-2.9134
X4.063Y-4.0551
X4.063Y-4.622
X4.063Y-4.767
X4.0709Y-2.6883
X4.0709Y-4.5197
X4.0787Y-3.7244
X4.0866Y-2.8038
X4.1008Y-3.1024
X4.1008Y-3.3228
X4.1102Y-3.811
X4.1181Y-3.7008
X4.1575Y-3.6772
X4.1654Y-2.8038
X4.1654Y-3.9009
X4.1654Y-5.0408
X4.1732Y-4.4456
X4.1732Y-4.5702
X4.1732Y-4.7795
X4.189Y-3.189
X4.189Y-3.315
X4.189Y-4.9135
X4.189Y-5.1181
X4.1969Y-4.3387
X4.1969Y-4.5197
X4.2015Y-5.0157
X4.2126Y-2.5039
X4.2126Y-3.0473
X4.2126Y-3.748
X4.2126Y-3.9213
X4.2205Y-3.3353
X4.2205Y-4.4836
X4.2205Y-4.6928
X4.2205Y-5.0787
X4.2431Y-5.3297
X4.2441Y-4.2835
X4.2441Y-4.6772
X4.2441Y-4.8583
X4.252Y-3.7198
X4.2598Y-3.874
X4.2677Y-4.748
X4.2677Y-5.0408
X4.2677Y-5.3071
X4.2748Y-4.4958
X4.2835Y-2.5433
X4.2835Y-5.5039
X4.2913Y-4.9291
X4.2966Y-5.1022
X4.2992Y-4.3465
X4.2992Y-4.5039
X4.315Y-3.5466
X4.3228Y-4.5276
X4.3228Y-4.6693
X4.3228Y-5.1212
X4.3228Y-5.2835
X4.3307Y-2.8851
X4.3307Y-3.1929
X4.3307Y-5.5354
X4.3386Y-2.5229
X4.3465Y-4.2835
X4.3465Y-4.866
X4.3465Y-5.3261
X4.3513Y-4.6772
X4.3543Y-3.8976
X4.3583Y-3.0512
X4.3701Y-4.5591
X4.3701Y-5.1417
X4.3799Y-2.6083
X4.3858Y-2.5039
X4.3858Y-3.1024
X4.4094Y-2.7953
X4.4094Y-3.8976
X4.4108Y-4.5039
X4.4141Y-5.1022
X4.4173Y-5.5906
X4.4298Y-3.9213
X4.4299Y-2.8786
X4.4331Y-2.4803
X4.4409Y-5.5669
X4.4456Y-4.6772
X4.4488Y-4.2047
X4.4521Y-5.3261
X4.4567Y-2.8189
X4.4646Y-2.9213
X4.4646Y-4.4094
X4.4646Y-4.811
X4.4711Y-4.962
X4.4724Y-3.5466
X4.4724Y-3.6378
X4.4724Y-4.2835
X4.4724Y-5.5039
X4.4882Y-4.3465
X4.4914Y-3.874
X4.5118Y-2.5197
X4.5118Y-5.0315
X4.5118Y-5.378
X4.5243Y-4.3905
X4.5433Y-2.5433
X4.5433Y-4.4836
X4.5433Y-4.622
X4.5433Y-5.4724
X4.5591Y-4.1654
X4.5669Y-3.315
X4.5748Y-4.6772
X4.5748Y-5.3307
X4.5748Y-5.5669
X4.5827Y-3.252
X4.5984Y-4.5039
X4.5984Y-4.5591
X4.5984Y-5.1022
X4.5984Y-5.1417
X4.6142Y-5.378
X4.622Y-4.5276
X4.622Y-4.9135
X4.622Y-5.1181
X4.6299Y-2.5669
X4.6378Y-2.8189
X4.6378Y-4.3465
X4.6417Y-4.4875
X4.6457Y-5.0315
X4.6457Y-5.3307
X4.6535Y-4.5276
X4.6693Y-5.4724
X4.6732Y-5.0354
X4.6772Y-4.4456
X4.6772Y-4.5748
X4.7008Y-2.8189
X4.7008Y-4.252
X4.7008Y-4.748
X4.7008Y-4.8346
X4.7008Y-5.3071
X4.7244Y-4.2992
X4.7244Y-4.6772
X4.7244Y-4.9135
X4.7244Y-5.2835
X4.7323Y-3.252
X4.748Y-2.8661
X4.748Y-4.2835
X4.7559Y-2.5669
X4.7559Y-4.8583
X4.7795Y-2.8425
X4.7795Y-5.5354
X4.7835Y-5.0315
X4.7998Y-5.3543
X4.8031Y-2.8189
X4.8031Y-4.4646
X4.811Y-4.6772
X4.811Y-4.9856
X4.8268Y-2.8661
X4.8268Y-2.9134
X4.8268Y-3.252
X4.8346Y-4.7403
X4.8346Y-5.0046
X4.8346Y-5.0472
X4.8346Y-5.3071
X4.855Y-4.7795
X4.8583Y-4.9685
X4.8661Y-5.2835
X4.874Y-4.8346
X4.8819Y-4.9135
X4.8819Y-5.0709
X4.8819Y-5.1181
X4.8819Y-5.2047
X4.9009Y-5.0236
X4.9055Y-5.1417
X4.9764Y-4.7638
X4.9764Y-4.9685
X4.9764Y-5.0472
X4.9764Y-5.2047
X4.9843Y-4.685
X4.9843Y-4.9213
X5.0315Y-2.8898
X5.0315Y-3.1929
X5.0315Y-4.0
X5.126Y-2.8583
X5.126Y-3.3228
X5.189Y-5.6929
X5.1969Y-3.252
X5.2126Y-5.5859
X5.2172Y-3.3543
X5.2205Y-4.4567
X5.2205Y-5.3543
X5.2441Y-4.0472
X5.2441Y-5.5354
X5.2441Y-5.7165
X5.2598Y-2.6378
X5.2598Y-4.0945
X5.2615Y-3.811
X5.2677Y-5.3307
X5.2677Y-5.6929
X5.269Y-2.6693
X5.2756Y-4.1811
X5.2802Y-4.1417
X5.2835Y-3.7638
X5.2913Y-5.5669
X5.2992Y-3.5906
X5.3071Y-4.2913
X5.315Y-5.5039
X5.3228Y-3.6142
X5.3228Y-4.2362
X5.334Y-5.4724
X5.3465Y-4.5276
X5.3622Y-3.8346
X5.3622Y-4.189
X5.3858Y-3.5118
X5.3858Y-4.3307
X5.3858Y-4.5748
X5.3858Y-5.7165
X5.4094Y-3.7008
X5.4094Y-3.8425
X5.4123Y-4.0444
X5.4331Y-3.6772
X5.4331Y-3.7874
X5.4409Y-5.6339
X5.4488Y-3.9213
X5.4567Y-2.4803
X5.4567Y-3.5512
X5.4757Y-3.8976
X5.4803Y-3.1417
X5.4803Y-3.4882
X5.4803Y-4.0945
X5.4803Y-5.6142
X5.4961Y-3.5906
X5.4961Y-3.874
X5.5197Y-2.3465
X5.5197Y-4.7244
X5.5433Y-3.0945
X5.5433Y-4.7874
X5.5512Y-5.4094
X5.5623Y-4.6378
X5.5669Y-3.2756
X5.5669Y-4.5906
X5.5669Y-5.6693
X5.5827Y-4.685
X5.5827Y-5.4331
X5.5906Y-2.8898
X5.5906Y-3.1339
X5.5906Y-3.3937
X5.5906Y-4.4331
X5.622Y-2.4409
X5.622Y-3.5118
X5.622Y-4.3858
T2
X2.4567Y-2.3071
X2.4567Y-2.7795
X2.5091Y-4.887
X2.5118Y-4.315
X2.5591Y-2.6181
X2.5591Y-2.7795
X2.5591Y-4.7165
X2.5984Y-4.2047
X2.6811Y-3.4606
X2.6811Y-3.9488
X2.6811Y-4.0236
X2.6811Y-4.2047
X2.6831Y-3.0217
X2.7953Y-3.0217
X2.8583Y-5.685
X2.9764Y-4.7165
X2.9823Y-3.0217
X2.9843Y-3.4606
X2.9843Y-4.0276
X2.9843Y-4.2047
X2.9843Y-5.2441
X2.9921Y-2.6181
X2.9921Y-2.7795
X3.0866Y-4.2047
X3.0945Y-4.7165
X3.1339Y-4.8898
X3.1417Y-4.315
X3.2283Y-3.0217
X3.3465Y-4.7165
X3.3543Y-5.252
X3.4055Y-2.6083
X3.4094Y-2.7795
X3.4094Y-3.4094
X3.561Y-3.0217
X3.562Y-3.4045
X3.6535Y-3.0236
X3.6772Y-4.8898
X3.7323Y-4.2047
X3.7323Y-4.7165
X3.7874Y-4.315
X3.8583Y-2.6083
X3.8583Y-2.7795
X3.9449Y-4.7165
X3.9528Y-5.252
X4.063Y-4.8898
X4.0945Y-3.0236
X4.1102Y-4.2047
X4.1102Y-4.7165
X4.1732Y-4.315
X4.252Y-2.6083
X4.252Y-2.7795
X4.315Y-4.046
X4.315Y-4.2047
X4.3701Y-5.252
X4.378Y-4.7165
X4.4803Y-4.8898
X4.4882Y-3.0236
X4.5354Y-4.7165
X4.5433Y-4.2047
X4.5984Y-4.315
X4.6457Y-2.6083
X4.6457Y-2.7795
X4.7559Y-4.7165
X4.7559Y-5.252
X4.8819Y-3.0236
X4.9685Y-3.0315
X4.9685Y-3.4567
X4.9685Y-3.9488
X4.9685Y-4.2047
X5.0419Y-2.2467
X5.0551Y-5.252
X5.1575Y-2.2992
X5.1575Y-2.6063
X5.1575Y-3.0315
X5.1575Y-3.4606
X5.1575Y-3.9488
X5.1575Y-4.0276
X5.1575Y-4.2047
X5.1575Y-5.252
X5.1969Y-4.7165
X5.3425Y-5.8228
X5.7008Y-2.7795
X5.861Y-2.7795
T3
X2.0725Y-2.987
X2.0725Y-3.087
X2.0725Y-3.187
X2.0725Y-3.287
X2.0725Y-3.387
X2.0725Y-3.487
X2.0725Y-3.587
X2.0725Y-3.687
X2.0725Y-3.787
X2.0725Y-3.887
X2.0725Y-3.987
X2.0725Y-4.087
X2.0725Y-4.187
X2.0725Y-4.287
X2.0725Y-4.387
X2.0725Y-4.487
X2.0725Y-4.587
X2.0725Y-4.687
X2.0725Y-4.787
X2.0725Y-4.887
X2.1725Y-2.987
X2.1725Y-3.087
X2.1725Y-3.187
X2.1725Y-3.287
X2.1725Y-3.387
X2.1725Y-3.487
X2.1725Y-3.587
X2.1725Y-3.687
X2.1725Y-3.787
X2.1725Y-3.887
X2.1725Y-3.987
X2.1725Y-4.087
X2.1725Y-4.187
X2.1725Y-4.287
X2.1725Y-4.387
X2.1725Y-4.487
X2.1725Y-4.587
X2.1725Y-4.687
X2.1725Y-4.787
X2.1725Y-4.887
X2.987Y-2.3016
X2.987Y-2.4016
X2.987Y-5.7015
X2.987Y-5.8015
X3.087Y-2.3016
X3.087Y-2.4016
X3.087Y-5.7015
X3.087Y-5.8015
X3.187Y-2.3016
X3.187Y-2.4016
X3.187Y-5.7015
X3.187Y-5.8015
X3.287Y-2.3016
X3.287Y-2.4016
X3.287Y-5.7015
X3.287Y-5.8015
X3.387Y-2.3016
X3.387Y-2.4016
X3.387Y-5.7015
X3.387Y-5.8015
X3.487Y-2.3016
X3.487Y-2.4016
X3.487Y-5.7015
X3.487Y-5.8015
X3.587Y-2.3016
X3.587Y-2.4016
X3.587Y-5.7015
X3.587Y-5.8015
X3.687Y-2.3016
X3.687Y-2.4016
X3.687Y-5.7015
X3.687Y-5.8015
X3.787Y-2.3016
X3.787Y-2.4016
X3.787Y-5.7015
X3.787Y-5.8015
X3.887Y-2.3016
X3.887Y-2.4016
X3.887Y-5.7015
X3.887Y-5.8015
X3.987Y-2.3016
X3.987Y-2.4016
X3.987Y-5.7015
X3.987Y-5.8015
X4.087Y-2.3016
X4.087Y-2.4016
X4.087Y-5.7015
X4.087Y-5.8015
X4.187Y-2.3016
X4.187Y-2.4016
X4.187Y-5.7015
X4.187Y-5.8015
X4.287Y-2.3016
X4.287Y-2.4016
X4.287Y-5.7015
X4.287Y-5.8015
X4.387Y-2.3016
X4.387Y-2.4016
X4.387Y-5.7015
X4.387Y-5.8015
X4.487Y-2.3016
X4.487Y-2.4016
X4.487Y-5.7015
X4.487Y-5.8015
X4.587Y-2.3016
X4.587Y-2.4016
X4.587Y-5.7015
X4.587Y-5.8015
X4.687Y-2.3016
X4.687Y-2.4016
X4.687Y-5.7015
X4.687Y-5.8015
X4.787Y-2.3016
X4.787Y-2.4016
X4.787Y-5.7015
X4.787Y-5.8015
X4.887Y-2.3016
X4.887Y-2.4016
X4.887Y-5.7015
X4.887Y-5.8015
X5.7015Y-2.987
X5.7015Y-3.087
X5.7015Y-3.187
X5.7015Y-3.287
X5.7015Y-3.387
X5.7015Y-3.487
X5.7015Y-3.587
X5.7015Y-3.687
X5.7015Y-3.787
X5.7015Y-3.887
X5.7015Y-3.987
X5.7015Y-4.087
X5.7015Y-4.187
X5.7015Y-4.287
X5.7015Y-4.387
X5.7015Y-4.487
X5.7015Y-4.587
X5.7015Y-4.687
X5.7015Y-4.787
X5.7015Y-4.887
X5.8015Y-2.987
X5.8015Y-3.087
X5.8015Y-3.187
X5.8015Y-3.287
X5.8015Y-3.387
X5.8015Y-3.487
X5.8015Y-3.587
X5.8015Y-3.687
X5.8015Y-3.787
X5.8015Y-3.887
X5.8015Y-3.987
X5.8015Y-4.087
X5.8015Y-4.187
X5.8015Y-4.287
X5.8015Y-4.387
X5.8015Y-4.487
X5.8015Y-4.587
X5.8015Y-4.687
X5.8015Y-4.787
X5.8015Y-4.887
T0
M30
