%TF.GenerationSoftware,KiCad,Pcbnew,(5.1.10-1-10_14)*%
%TF.CreationDate,2021-12-06T08:26:31+01:00*%
%TF.ProjectId,stack,73746163-6b2e-46b6-9963-61645f706362,1*%
%TF.SameCoordinates,Original*%
%TF.FileFunction,Soldermask,Bot*%
%TF.FilePolarity,Negative*%
%FSLAX46Y46*%
G04 Gerber Fmt 4.6, Leading zero omitted, Abs format (unit mm)*
G04 Created by KiCad (PCBNEW (5.1.10-1-10_14)) date 2021-12-06 08:26:31*
%MOMM*%
%LPD*%
G01*
G04 APERTURE LIST*
%ADD10O,1.700000X1.700000*%
%ADD11R,1.700000X1.700000*%
%ADD12C,3.200000*%
G04 APERTURE END LIST*
D10*
%TO.C,J4*%
X147358000Y-124130000D03*
X144818000Y-124130000D03*
X147358000Y-121590000D03*
X144818000Y-121590000D03*
X147358000Y-119050000D03*
X144818000Y-119050000D03*
X147358000Y-116510000D03*
X144818000Y-116510000D03*
X147358000Y-113970000D03*
X144818000Y-113970000D03*
X147358000Y-111430000D03*
X144818000Y-111430000D03*
X147358000Y-108890000D03*
X144818000Y-108890000D03*
X147358000Y-106350000D03*
X144818000Y-106350000D03*
X147358000Y-103810000D03*
X144818000Y-103810000D03*
X147358000Y-101270000D03*
X144818000Y-101270000D03*
X147358000Y-98730000D03*
X144818000Y-98730000D03*
X147358000Y-96190000D03*
X144818000Y-96190000D03*
X147358000Y-93650000D03*
X144818000Y-93650000D03*
X147358000Y-91110000D03*
X144818000Y-91110000D03*
X147358000Y-88570000D03*
X144818000Y-88570000D03*
X147358000Y-86030000D03*
X144818000Y-86030000D03*
X147358000Y-83490000D03*
X144818000Y-83490000D03*
X147358000Y-80950000D03*
X144818000Y-80950000D03*
X147358000Y-78410000D03*
X144818000Y-78410000D03*
X147358000Y-75870000D03*
D11*
X144818000Y-75870000D03*
%TD*%
D10*
%TO.C,J3*%
X75870000Y-147358000D03*
X75870000Y-144818000D03*
X78410000Y-147358000D03*
X78410000Y-144818000D03*
X80950000Y-147358000D03*
X80950000Y-144818000D03*
X83490000Y-147358000D03*
X83490000Y-144818000D03*
X86030000Y-147358000D03*
X86030000Y-144818000D03*
X88570000Y-147358000D03*
X88570000Y-144818000D03*
X91110000Y-147358000D03*
X91110000Y-144818000D03*
X93650000Y-147358000D03*
X93650000Y-144818000D03*
X96190000Y-147358000D03*
X96190000Y-144818000D03*
X98730000Y-147358000D03*
X98730000Y-144818000D03*
X101270000Y-147358000D03*
X101270000Y-144818000D03*
X103810000Y-147358000D03*
X103810000Y-144818000D03*
X106350000Y-147358000D03*
X106350000Y-144818000D03*
X108890000Y-147358000D03*
X108890000Y-144818000D03*
X111430000Y-147358000D03*
X111430000Y-144818000D03*
X113970000Y-147358000D03*
X113970000Y-144818000D03*
X116510000Y-147358000D03*
X116510000Y-144818000D03*
X119050000Y-147358000D03*
X119050000Y-144818000D03*
X121590000Y-147358000D03*
X121590000Y-144818000D03*
X124130000Y-147358000D03*
D11*
X124130000Y-144818000D03*
%TD*%
D10*
%TO.C,J2*%
X75870000Y-58460000D03*
X75870000Y-61000000D03*
X78410000Y-58460000D03*
X78410000Y-61000000D03*
X80950000Y-58460000D03*
X80950000Y-61000000D03*
X83490000Y-58460000D03*
X83490000Y-61000000D03*
X86030000Y-58460000D03*
X86030000Y-61000000D03*
X88570000Y-58460000D03*
X88570000Y-61000000D03*
X91110000Y-58460000D03*
X91110000Y-61000000D03*
X93650000Y-58460000D03*
X93650000Y-61000000D03*
X96190000Y-58460000D03*
X96190000Y-61000000D03*
X98730000Y-58460000D03*
X98730000Y-61000000D03*
X101270000Y-58460000D03*
X101270000Y-61000000D03*
X103810000Y-58460000D03*
X103810000Y-61000000D03*
X106350000Y-58460000D03*
X106350000Y-61000000D03*
X108890000Y-58460000D03*
X108890000Y-61000000D03*
X111430000Y-58460000D03*
X111430000Y-61000000D03*
X113970000Y-58460000D03*
X113970000Y-61000000D03*
X116510000Y-58460000D03*
X116510000Y-61000000D03*
X119050000Y-58460000D03*
X119050000Y-61000000D03*
X121590000Y-58460000D03*
X121590000Y-61000000D03*
X124130000Y-58460000D03*
D11*
X124130000Y-61000000D03*
%TD*%
D10*
%TO.C,J1*%
X52642000Y-75870000D03*
X55182000Y-75870000D03*
X52642000Y-78410000D03*
X55182000Y-78410000D03*
X52642000Y-80950000D03*
X55182000Y-80950000D03*
X52642000Y-83490000D03*
X55182000Y-83490000D03*
X52642000Y-86030000D03*
X55182000Y-86030000D03*
X52642000Y-88570000D03*
X55182000Y-88570000D03*
X52642000Y-91110000D03*
X55182000Y-91110000D03*
X52642000Y-93650000D03*
X55182000Y-93650000D03*
X52642000Y-96190000D03*
X55182000Y-96190000D03*
X52642000Y-98730000D03*
X55182000Y-98730000D03*
X52642000Y-101270000D03*
X55182000Y-101270000D03*
X52642000Y-103810000D03*
X55182000Y-103810000D03*
X52642000Y-106350000D03*
X55182000Y-106350000D03*
X52642000Y-108890000D03*
X55182000Y-108890000D03*
X52642000Y-111430000D03*
X55182000Y-111430000D03*
X52642000Y-113970000D03*
X55182000Y-113970000D03*
X52642000Y-116510000D03*
X55182000Y-116510000D03*
X52642000Y-119050000D03*
X55182000Y-119050000D03*
X52642000Y-121590000D03*
X55182000Y-121590000D03*
X52642000Y-124130000D03*
D11*
X55182000Y-124130000D03*
%TD*%
D12*
%TO.C,H4*%
X55000000Y-145000000D03*
%TD*%
%TO.C,H3*%
X145000000Y-145000000D03*
%TD*%
%TO.C,H2*%
X145000000Y-55000000D03*
%TD*%
%TO.C,H1*%
X55000000Y-55000000D03*
%TD*%
M02*
