M48
; DRILL file {KiCad (5.1.6-0-10_14)} date Saturday, February 13, 2021 at 08:29:29 AM
; FORMAT={-:-/ absolute / inch / decimal}
; #@! TF.CreationDate,2021-02-13T08:29:29+01:00
; #@! TF.GenerationSoftware,Kicad,Pcbnew,(5.1.6-0-10_14)
; #@! TF.FileFunction,Plated,1,2,PTH
FMAT,2
INCH
T1C0.0118
T2C0.0157
T3C0.0394
T4C0.0433
T5C0.0906
%
G90
G05
T1
X4.0157Y-2.5827
X4.0157Y-2.689
X4.0157Y-2.9646
X4.0157Y-3.0157
X4.0157Y-3.0709
X4.1654Y-2.5315
X4.189Y-2.378
X4.189Y-3.0433
X4.1969Y-3.4213
X4.2047Y-4.1339
X4.2087Y-3.0945
X4.2087Y-4.3031
X4.2165Y-2.3472
X4.2283Y-4.7047
X4.2323Y-4.2795
X4.2402Y-2.3976
X4.2531Y-4.3583
X4.2559Y-3.1496
X4.2559Y-3.3465
X4.2559Y-3.9252
X4.2598Y-2.4173
X4.2598Y-2.685
X4.2598Y-2.7126
X4.274Y-4.3307
X4.2756Y-3.9016
X4.2874Y-5.4094
X4.2992Y-4.3819
X4.3031Y-5.622
X4.3047Y-3.9488
X4.315Y-3.3701
X4.315Y-3.4488
X4.3346Y-5.2992
X4.3346Y-5.4094
X4.3701Y-4.4803
X4.374Y-2.4382
X4.374Y-2.6614
X4.3898Y-2.8858
X4.3898Y-3.122
X4.3976Y-2.5787
X4.3976Y-2.7362
X4.4134Y-2.7598
X4.4213Y-3.9252
X4.4213Y-4.4055
X4.4409Y-2.5315
X4.4409Y-5.8071
X4.4417Y-3.5583
X4.4458Y-3.3667
X4.4488Y-5.3425
X4.4843Y-4.0512
X4.4843Y-4.7795
X4.5Y-3.4724
X4.5Y-3.7362
X4.5Y-5.7244
X4.5217Y-5.5413
X4.5236Y-5.4173
X4.5394Y-4.2382
X4.5394Y-5.1181
X4.5433Y-3.3937
X4.5433Y-3.5276
X4.5433Y-5.1929
X4.5602Y-4.7992
X4.563Y-3.5791
X4.563Y-4.1484
X4.5642Y-3.4449
X4.5669Y-5.4921
X4.5669Y-5.7008
X4.5677Y-5.3024
X4.5827Y-5.748
X4.5906Y-5.0906
X4.5984Y-4.7283
X4.6102Y-4.0
X4.6102Y-4.1181
X4.6114Y-5.7008
X4.6127Y-5.3761
X4.622Y-4.752
X4.622Y-5.1693
X4.6299Y-5.7756
X4.6299Y-5.8858
X4.6339Y-5.513
X4.6357Y-5.4449
X4.6821Y-2.9872
X4.6909Y-3.2047
X4.6909Y-3.3504
X4.752Y-2.0591
X4.7559Y-2.7953
X4.7717Y-3.4764
X4.7717Y-3.5583
X4.7717Y-4.4331
X4.7756Y-3.1339
X4.7756Y-4.3307
X4.7795Y-3.4252
X4.7795Y-3.7874
X4.7795Y-5.1417
X4.7795Y-5.6378
X4.7835Y-5.689
X4.7835Y-5.8622
X4.7874Y-2.4382
X4.7913Y-2.3228
X4.7953Y-4.6811
X4.8004Y-5.4921
X4.8031Y-5.2205
X4.811Y-4.3031
X4.815Y-4.0512
X4.8268Y-4.3543
X4.8425Y-3.2717
X4.8504Y-4.7795
X4.8543Y-4.5472
X4.878Y-3.9488
X4.878Y-4.0315
X4.8819Y-4.0039
X4.8819Y-4.1181
X4.9016Y-2.815
X4.9016Y-3.374
X4.9016Y-3.4409
X4.9291Y-2.7362
X4.9291Y-3.1142
X4.9567Y-5.2205
X4.9567Y-5.437
X4.9606Y-2.5827
X4.9606Y-2.6811
X4.9646Y-4.8031
X4.9646Y-5.0551
X4.9783Y-4.4449
X4.9803Y-4.3819
X4.9803Y-4.5236
X4.9803Y-4.4134
X4.9803Y-4.5787
X4.9846Y-4.7352
X4.9854Y-4.8278
X4.9854Y-5.0336
X4.9949Y-4.122
X5.0039Y-4.7047
X5.0118Y-5.1181
X5.0118Y-5.5157
X5.0157Y-4.0512
X5.0343Y-4.4395
X5.0354Y-4.8622
X5.0365Y-5.5366
X5.0366Y-4.7559
X5.0394Y-2.7559
X5.0433Y-3.0433
X5.0514Y-5.7203
X5.0669Y-3.9252
X5.0669Y-4.4606
X5.0669Y-5.2283
X5.0787Y-2.2205
X5.0827Y-2.4173
X5.0906Y-4.0315
X5.0906Y-4.1693
X5.0906Y-4.3346
X5.1024Y-2.1996
X5.1035Y-2.3958
X5.1142Y-5.8858
X5.1232Y-5.2795
X5.1244Y-2.2413
X5.1244Y-2.3745
X5.1339Y-3.9882
X5.1374Y-5.3583
X5.1417Y-3.6181
X5.1453Y-2.2622
X5.1453Y-2.3504
X5.1614Y-4.5827
X5.1732Y-3.3189
X5.1737Y-3.2406
X5.1811Y-2.4724
X5.1811Y-2.8898
X5.1811Y-3.0618
X5.1839Y-4.3886
X5.185Y-4.2402
X5.185Y-5.8268
X5.189Y-3.9673
X5.1929Y-3.7717
X5.1937Y-4.5236
X5.1937Y-4.6327
X5.2047Y-4.0106
X5.2047Y-4.7835
X5.205Y-5.6927
X5.2165Y-2.2913
X5.2461Y-4.6516
X5.2559Y-3.6878
X5.2874Y-2.5236
X5.2874Y-2.9882
X5.289Y-3.4488
X5.2953Y-5.8346
X5.2957Y-3.1496
X5.3098Y-2.5
X5.3098Y-2.9134
X5.3098Y-3.3976
X5.3098Y-3.4252
X5.3098Y-3.5157
X5.318Y-4.1291
X5.3228Y-3.7087
X5.3256Y-4.0591
X5.3307Y-5.4831
X5.3307Y-5.6882
X5.3346Y-5.4228
X5.3374Y-5.3543
X5.3425Y-2.4488
X5.3425Y-4.1417
X5.3465Y-3.9291
X5.3516Y-3.4488
X5.3543Y-2.5512
X5.3583Y-4.4331
X5.3583Y-5.3071
X5.3583Y-5.7717
X5.365Y-4.9134
X5.3701Y-2.9646
X5.3701Y-3.2795
X5.3701Y-3.3976
X5.3738Y-2.5707
X5.374Y-4.6339
X5.374Y-4.811
X5.3819Y-4.2087
X5.3819Y-4.3583
X5.3858Y-3.0618
X5.3858Y-3.185
X5.3858Y-4.8386
X5.3858Y-4.8858
X5.3858Y-5.7717
X5.3898Y-2.4449
X5.3898Y-2.5236
X5.3898Y-3.5866
X5.3937Y-3.3701
X5.3976Y-2.6535
X5.3976Y-4.4606
X5.4055Y-4.1644
X5.4063Y-4.0591
X5.4094Y-2.9409
X5.4173Y-4.8346
X5.4252Y-3.6457
X5.4252Y-3.9567
X5.4961Y-3.3425
X5.5197Y-5.2756
X5.5236Y-2.5748
X5.5433Y-2.0709
X5.5445Y-2.9685
X5.5449Y-3.0827
X5.5449Y-3.4724
X5.5657Y-3.5382
X5.5657Y-3.9803
X5.5657Y-4.5866
X5.5657Y-4.811
X5.5669Y-2.4724
X5.5709Y-5.252
X5.5709Y-5.4831
X5.5815Y-3.9567
X5.5866Y-4.8858
X5.5866Y-2.6772
X5.5906Y-2.5039
X5.6025Y-4.0576
X5.6091Y-4.6102
X5.6091Y-4.9134
X5.6102Y-2.5315
X5.6102Y-4.1614
X5.6232Y-3.3465
X5.626Y-2.8622
X5.6299Y-4.0709
X5.6299Y-4.1339
X5.6299Y-4.3858
X5.6327Y-4.0041
X5.6339Y-3.7835
X5.6378Y-2.4646
X5.6378Y-4.9409
X5.6468Y-4.6551
X5.6516Y-4.8622
X5.6534Y-4.6283
X5.6535Y-3.7441
X5.6535Y-3.8819
X5.6657Y-4.2047
X5.6693Y-2.4291
X5.6705Y-3.1496
X5.6732Y-5.4437
X5.6744Y-3.9094
X5.6799Y-4.4094
X5.6799Y-4.4843
X5.6799Y-4.6823
X5.6799Y-5.0772
X5.6878Y-3.0827
X5.6929Y-2.5591
X5.6929Y-2.6299
X5.6929Y-2.7283
X5.6929Y-3.4213
X5.6969Y-3.7835
X5.7087Y-2.7835
X5.7154Y-5.3425
X5.7154Y-5.4646
X5.7154Y-5.5157
X5.7154Y-5.7874
X5.7165Y-3.9961
X5.7193Y-3.7559
X5.7193Y-3.8346
X5.7362Y-5.0354
X5.7362Y-5.815
X5.7402Y-3.6413
X5.7402Y-3.7244
X5.7402Y-4.3583
X5.7402Y-4.6339
X5.7402Y-4.7677
X5.7705Y-4.5394
X5.7705Y-5.189
X5.7795Y-4.1024
X5.7795Y-4.185
X5.7874Y-3.9752
X5.7913Y-5.2402
X5.793Y-3.639
X5.7953Y-4.3504
X5.7953Y-5.2953
X5.8031Y-4.126
X5.8189Y-2.4803
X5.8189Y-2.6063
X5.8626Y-3.0315
X5.863Y-3.2147
X5.8835Y-3.0039
X5.8858Y-4.8701
X5.8861Y-3.1957
X5.8886Y-4.8188
X5.8898Y-4.9213
X5.8898Y-4.9724
X5.9043Y-2.9774
X5.9088Y-3.1788
X5.9094Y-4.8425
X5.9094Y-4.8937
X5.924Y-4.4959
X5.9252Y-2.9528
X5.9277Y-3.1587
X5.9291Y-4.4016
X5.9291Y-4.4528
X5.9331Y-4.252
X5.937Y-3.7244
X5.937Y-5.2165
X5.9409Y-4.8189
X5.9567Y-4.5472
X5.9567Y-5.5236
X5.9567Y-5.7362
X5.9606Y-3.8583
X5.9646Y-4.9449
X5.9685Y-4.126
X5.9724Y-3.4764
X5.9724Y-3.5854
X5.9724Y-4.3504
X5.9803Y-5.7087
X5.9843Y-5.5028
X5.9882Y-3.8346
X5.9882Y-3.9961
X5.9961Y-4.2008
X6.0012Y-4.5413
X6.0012Y-4.7913
X6.0012Y-4.8425
X6.0315Y-3.0787
X6.0524Y-3.1063
X6.0539Y-2.5394
X6.0539Y-2.6535
X6.0748Y-2.7795
X6.0748Y-3.1299
X6.0776Y-2.4213
X6.0827Y-3.5236
X6.0984Y-2.1772
X6.0984Y-2.7283
X6.1083Y-3.4016
X6.1181Y-4.5263
X6.1193Y-2.4567
X6.122Y-4.2992
X6.122Y-4.8937
X6.122Y-4.9449
X6.1248Y-2.6063
X6.126Y-3.4252
X6.1429Y-4.8701
X6.1429Y-4.9213
X6.1457Y-2.6772
X6.1457Y-3.4528
X6.1457Y-3.9094
X6.1457Y-4.252
X6.1457Y-4.5272
X6.1478Y-2.4831
X6.1496Y-3.811
X6.1575Y-2.2205
X6.1673Y-2.9567
X6.1772Y-2.2008
X6.185Y-5.0799
X6.1854Y-2.9803
X6.189Y-4.0146
X6.189Y-4.9752
X6.189Y-5.2835
X6.1969Y-3.2454
X6.1969Y-3.4724
X6.1996Y-3.011
X6.2126Y-4.063
X6.2126Y-4.9961
X6.2126Y-5.4173
X6.2176Y-2.2393
X6.2205Y-2.2667
X6.2323Y-3.7283
X6.2323Y-3.6535
X6.2402Y-3.0319
X6.2402Y-4.0354
X6.2441Y-2.1378
X6.248Y-5.6535
X6.2638Y-2.2677
X6.2677Y-2.3189
X6.2717Y-2.7992
X6.2807Y-4.1969
X6.2807Y-4.6496
X6.2807Y-5.3661
X6.2835Y-5.8386
X6.3031Y-5.811
X6.3059Y-5.4094
X6.3059Y-5.5461
X6.3071Y-4.7047
X6.311Y-3.1811
X6.315Y-3.8858
X6.3189Y-4.6417
X6.3189Y-5.0772
X6.3202Y-5.3656
X6.3268Y-5.7835
X6.3465Y-3.7598
X6.3465Y-4.4252
X6.3543Y-5.5028
X6.3583Y-2.874
X6.3622Y-2.1654
X6.3622Y-2.2165
X6.3622Y-2.6969
X6.3661Y-5.7244
X6.374Y-2.748
X6.378Y-2.8248
X6.378Y-4.3228
X6.378Y-4.9134
X6.378Y-5.5236
X6.3795Y-4.4016
X6.3831Y-2.2402
X6.3831Y-2.2953
X6.3858Y-5.6811
X6.3941Y-2.7756
X6.4004Y-4.2756
X6.4004Y-4.4528
X6.4016Y-5.0079
X6.4016Y-5.3071
X6.4083Y-2.7244
X6.4213Y-2.3465
X6.4213Y-4.2205
X6.4213Y-4.4988
X6.4394Y-2.8504
X6.4409Y-2.1654
X6.4606Y-2.2126
X6.4606Y-2.2677
X6.4803Y-2.7992
X6.4803Y-2.8976
X6.5114Y-4.3996
X6.5138Y-3.3563
X6.5157Y-3.8878
X6.5157Y-4.0354
X6.5157Y-4.8917
X6.5185Y-3.266
X6.5185Y-5.2126
X6.5248Y-5.1811
X6.5256Y-4.3504
X6.5266Y-3.3281
X6.5291Y-4.9173
X6.5334Y-3.107
X6.5343Y-4.8622
X6.5366Y-3.8386
X6.5366Y-4.0563
X6.5394Y-3.2323
X6.5398Y-4.3012
X6.5443Y-3.0817
X6.5457Y-5.1575
X6.5472Y-3.0528
X6.548Y-3.1377
X6.55Y-4.8858
X6.5575Y-3.7894
X6.5575Y-4.0772
X6.5575Y-4.7835
X6.5628Y-4.5098
X6.5744Y-5.2598
X6.5783Y-3.7303
X6.5783Y-4.098
X6.5783Y-4.252
X6.5783Y-4.7539
X6.5866Y-4.7892
X6.5866Y-5.5787
X6.5886Y-5.2323
X6.5886Y-5.5236
X6.5898Y-4.8386
X6.5898Y-4.5154
X6.5906Y-5.7756
X6.5984Y-5.6772
X6.5992Y-4.2756
X6.6024Y-5.7283
X6.6039Y-4.8139
X6.6063Y-4.3268
X6.613Y-2.7205
X6.6181Y-3.2087
X6.6181Y-3.2835
X6.6181Y-3.311
X6.6181Y-3.3858
X6.6181Y-4.7362
X6.6181Y-5.2087
X6.6181Y-5.5787
X6.6339Y-2.7441
X6.6339Y-2.7717
X6.6417Y-2.2913
X6.6417Y-2.3425
X6.6547Y-2.5354
X6.6547Y-2.6654
X6.6575Y-2.8228
X6.6772Y-2.8465
X6.6772Y-2.874
X6.6811Y-2.185
X6.6811Y-2.2402
X6.6969Y-4.4528
X6.6969Y-4.524
X6.7008Y-3.0236
X6.7036Y-2.4988
X6.7047Y-2.6417
X6.7182Y-2.9793
X6.7189Y-2.9504
X6.7246Y-3.0061
X6.7402Y-2.4252
X6.7402Y-2.6142
X6.748Y-4.378
X6.748Y-4.5118
X6.7591Y-4.7323
X6.7598Y-5.1811
X6.7598Y-5.6299
X6.7717Y-3.3583
X6.7732Y-3.7323
X6.7732Y-4.2441
X6.7778Y-5.3567
X6.7799Y-4.378
X6.7807Y-5.2874
X6.7835Y-5.1496
X6.7941Y-3.3346
X6.7941Y-3.7874
X6.7992Y-4.8898
X6.8008Y-4.3189
X6.8031Y-5.374
X6.8031Y-5.311
X6.805Y-5.1705
X6.815Y-3.2598
X6.815Y-3.8386
X6.8189Y-4.2874
X6.8189Y-4.8661
X6.8217Y-4.3504
X6.824Y-5.3386
X6.8263Y-5.1913
X6.8307Y-4.7874
X6.8425Y-3.8898
X6.8425Y-4.2323
X6.8425Y-4.4016
X6.8445Y-3.2323
X6.8445Y-4.7598
X6.8661Y-2.6929
X6.8976Y-4.5827
X6.8976Y-5.2874
X6.8976Y-5.4016
X6.9016Y-3.5472
X6.9016Y-3.5787
X6.9016Y-4.7441
X6.9025Y-2.5337
X6.9031Y-2.6654
X6.9055Y-2.3307
X6.9094Y-2.563
X6.9213Y-5.311
X6.9213Y-5.6535
X6.9224Y-4.685
X6.937Y-2.5906
X6.9606Y-3.7913
X6.968Y-2.5856
X6.9803Y-3.7362
X6.9843Y-3.3898
X6.9882Y-2.6181
X6.9961Y-3.3386
X7.1142Y-4.9961
X7.1417Y-5.4134
X7.1472Y-2.6945
X7.1551Y-5.1969
X7.1575Y-5.3858
X7.176Y-5.1705
X7.1881Y-5.3608
X7.1969Y-5.1417
X7.1969Y-5.3346
X7.2559Y-2.6378
X7.276Y-2.7874
X7.2835Y-4.6929
X7.2874Y-3.3307
X7.2969Y-2.7362
X7.3098Y-2.6378
X7.315Y-3.2913
X7.3177Y-2.689
X7.3307Y-2.5866
X7.3307Y-3.2283
X7.3386Y-2.5394
X7.3504Y-3.189
X7.3708Y-3.1393
X7.376Y-3.1063
T2
X4.0059Y-3.563
X4.0157Y-2.9134
X4.0157Y-3.2776
X4.0551Y-2.0177
X4.065Y-4.0453
X4.065Y-4.4587
X4.124Y-2.8346
X4.124Y-3.2185
X4.1314Y-3.5113
X4.2815Y-4.6457
X4.311Y-2.1555
X4.311Y-2.5
X4.311Y-2.8839
X4.3504Y-3.2874
X4.3701Y-4.1654
X4.3799Y-3.563
X4.3799Y-3.8681
X4.3895Y-5.4122
X4.3898Y-5.7776
X4.4409Y-2.9882
X4.4724Y-2.1575
X4.6555Y-2.7362
X4.6555Y-2.9134
X4.6555Y-3.0807
X4.6555Y-3.1496
X4.6654Y-3.8189
X4.6654Y-4.0846
X4.6654Y-4.2224
X4.6654Y-4.4882
X4.6654Y-4.5965
X4.6654Y-4.8622
X4.6654Y-5.0
X4.6654Y-5.2756
X4.6752Y-2.3031
X4.6811Y-2.0138
X4.685Y-2.1358
X4.7441Y-5.4921
X4.7441Y-5.8268
X4.8425Y-2.9429
X4.843Y-2.1101
X4.8917Y-5.0591
X4.8917Y-5.5807
X4.9016Y-3.0118
X4.9016Y-4.6457
X4.9114Y-4.2717
X4.9213Y-3.8681
X5.2165Y-2.0177
X5.2165Y-2.3425
X5.2264Y-2.6083
X5.2264Y-2.7559
X5.2264Y-3.0217
X5.2264Y-3.1201
X5.2264Y-3.5039
X5.2461Y-4.7047
X5.2461Y-4.9705
X5.2461Y-5.1378
X5.2461Y-5.4134
X5.2461Y-5.561
X5.2461Y-5.8268
X5.2559Y-3.6614
X5.2559Y-3.8484
X5.2559Y-4.124
X5.2559Y-4.252
X5.2559Y-4.5177
X5.4626Y-3.2874
X5.4823Y-2.1555
X5.4823Y-2.3917
X5.4823Y-2.8051
X5.4823Y-5.6102
X5.4921Y-5.1969
X5.502Y-4.7539
X5.5118Y-4.3012
X5.5217Y-3.7992
X5.5217Y-3.8976
X5.7579Y-2.0177
X5.7579Y-2.5886
X5.7579Y-3.1693
X5.8071Y-3.563
X5.8366Y-3.9665
X5.8366Y-4.5374
X5.8366Y-5.0295
X5.8366Y-5.4528
X5.8583Y-2.1181
X5.8583Y-2.4016
X5.9055Y-5.8661
X5.9843Y-2.1555
X5.9941Y-2.372
X5.9941Y-2.9232
X6.0138Y-5.1181
X6.0433Y-3.3169
X6.0472Y-2.0787
X6.0827Y-3.75
X6.0827Y-4.1634
X6.0827Y-4.7343
X6.0827Y-5.5906
X6.0843Y-2.1394
X6.1388Y-2.9006
X6.1417Y-3.2776
X6.3091Y-2.0177
X6.3091Y-2.4016
X6.3091Y-2.9331
X6.4075Y-5.6201
X6.4567Y-3.4449
X6.4567Y-3.6417
X6.4567Y-3.9469
X6.4567Y-4.124
X6.4567Y-4.4587
X6.4567Y-4.6752
X6.4567Y-4.9705
X6.4567Y-5.1181
X6.4567Y-5.3642
X6.4764Y-5.8661
X6.4862Y-2.0669
X6.4862Y-2.4705
X6.4862Y-2.5984
X6.6019Y-2.0202
X6.6043Y-2.5492
X6.6437Y-3.1102
X6.6437Y-3.6122
X6.6437Y-4.124
X6.6437Y-4.6358
X6.6437Y-5.0886
X6.6437Y-5.4528
X6.811Y-2.0177
X6.811Y-2.7461
X6.8593Y-5.4636
X6.8701Y-3.1102
X6.8701Y-3.6122
X6.8701Y-4.124
X6.8701Y-4.6358
X6.8701Y-5.0886
X6.8701Y-5.8661
X7.0177Y-2.185
X7.0472Y-5.0197
X7.0472Y-5.2244
X7.0965Y-2.5394
X7.1457Y-5.0886
X7.2539Y-2.8642
X7.2539Y-3.0807
X7.4016Y-2.0177
X7.4016Y-2.4508
X7.4016Y-2.9331
X7.4067Y-4.887
T3
X7.0472Y-2.987
X7.0472Y-3.087
X7.0472Y-3.187
X7.0472Y-3.287
X7.0472Y-3.387
X7.0472Y-3.487
X7.0472Y-3.587
X7.0472Y-3.687
X7.0472Y-3.787
X7.0472Y-3.887
X7.0472Y-3.987
X7.0472Y-4.087
X7.0472Y-4.187
X7.0472Y-4.287
X7.0472Y-4.387
X7.0472Y-4.487
X7.0472Y-4.587
X7.0472Y-4.687
X7.0472Y-4.787
X7.0472Y-4.887
X7.1472Y-2.987
X7.1472Y-3.087
X7.1472Y-3.187
X7.1472Y-3.287
X7.1472Y-3.387
X7.1472Y-3.487
X7.1472Y-3.587
X7.1472Y-3.687
X7.1472Y-3.787
X7.1472Y-3.887
X7.1472Y-3.987
X7.1472Y-4.087
X7.1472Y-4.187
X7.1472Y-4.287
X7.1472Y-4.387
X7.1472Y-4.487
X7.1472Y-4.587
X7.1472Y-4.687
X7.1472Y-4.787
X7.1472Y-4.887
T4
X4.2717Y-4.9055
X4.2717Y-4.9882
X4.2717Y-5.0906
X4.2717Y-5.1732
X4.3701Y-4.9055
X4.3701Y-5.1732
T5
X4.122Y-5.0394
X4.1535Y-4.7736
X4.1535Y-5.3051
T0
M30
