%TF.GenerationSoftware,KiCad,Pcbnew,(5.1.6-0-10_14)*%
%TF.CreationDate,2021-02-13T08:29:22+01:00*%
%TF.ProjectId,vario,76617269-6f2e-46b6-9963-61645f706362,1*%
%TF.SameCoordinates,Original*%
%TF.FileFunction,Legend,Top*%
%TF.FilePolarity,Positive*%
%FSLAX46Y46*%
G04 Gerber Fmt 4.6, Leading zero omitted, Abs format (unit mm)*
G04 Created by KiCad (PCBNEW (5.1.6-0-10_14)) date 2021-02-13 08:29:22*
%MOMM*%
%LPD*%
G01*
G04 APERTURE LIST*
%ADD10C,0.150000*%
%ADD11C,0.120000*%
G04 APERTURE END LIST*
D10*
X137976190Y-52904761D02*
X138119047Y-52952380D01*
X138357142Y-52952380D01*
X138452380Y-52904761D01*
X138500000Y-52857142D01*
X138547619Y-52761904D01*
X138547619Y-52666666D01*
X138500000Y-52571428D01*
X138452380Y-52523809D01*
X138357142Y-52476190D01*
X138166666Y-52428571D01*
X138071428Y-52380952D01*
X138023809Y-52333333D01*
X137976190Y-52238095D01*
X137976190Y-52142857D01*
X138023809Y-52047619D01*
X138071428Y-52000000D01*
X138166666Y-51952380D01*
X138404761Y-51952380D01*
X138547619Y-52000000D01*
X138976190Y-52952380D02*
X138976190Y-51952380D01*
X139357142Y-51952380D01*
X139452380Y-52000000D01*
X139500000Y-52047619D01*
X139547619Y-52142857D01*
X139547619Y-52285714D01*
X139500000Y-52380952D01*
X139452380Y-52428571D01*
X139357142Y-52476190D01*
X138976190Y-52476190D01*
X139976190Y-52952380D02*
X139976190Y-51952380D01*
X145119047Y-92952380D02*
X145119047Y-91952380D01*
X145500000Y-91952380D01*
X145595238Y-92000000D01*
X145642857Y-92047619D01*
X145690476Y-92142857D01*
X145690476Y-92285714D01*
X145642857Y-92380952D01*
X145595238Y-92428571D01*
X145500000Y-92476190D01*
X145119047Y-92476190D01*
X146071428Y-92904761D02*
X146214285Y-92952380D01*
X146452380Y-92952380D01*
X146547619Y-92904761D01*
X146595238Y-92857142D01*
X146642857Y-92761904D01*
X146642857Y-92666666D01*
X146595238Y-92571428D01*
X146547619Y-92523809D01*
X146452380Y-92476190D01*
X146261904Y-92428571D01*
X146166666Y-92380952D01*
X146119047Y-92333333D01*
X146071428Y-92238095D01*
X146071428Y-92142857D01*
X146119047Y-92047619D01*
X146166666Y-92000000D01*
X146261904Y-91952380D01*
X146500000Y-91952380D01*
X146642857Y-92000000D01*
X147785714Y-91904761D02*
X146928571Y-93190476D01*
X148071428Y-92047619D02*
X148119047Y-92000000D01*
X148214285Y-91952380D01*
X148452380Y-91952380D01*
X148547619Y-92000000D01*
X148595238Y-92047619D01*
X148642857Y-92142857D01*
X148642857Y-92238095D01*
X148595238Y-92380952D01*
X148023809Y-92952380D01*
X148642857Y-92952380D01*
X149690476Y-92285714D02*
X150071428Y-92285714D01*
X149833333Y-92952380D02*
X149833333Y-92095238D01*
X149880952Y-92000000D01*
X149976190Y-91952380D01*
X150071428Y-91952380D01*
X150833333Y-92285714D02*
X150833333Y-92952380D01*
X150404761Y-92285714D02*
X150404761Y-92809523D01*
X150452380Y-92904761D01*
X150547619Y-92952380D01*
X150690476Y-92952380D01*
X150785714Y-92904761D01*
X150833333Y-92857142D01*
X151452380Y-92952380D02*
X151357142Y-92904761D01*
X151309523Y-92809523D01*
X151309523Y-91952380D01*
X151976190Y-92952380D02*
X151880952Y-92904761D01*
X151833333Y-92809523D01*
X151833333Y-91952380D01*
X123547619Y-54857142D02*
X123500000Y-54904761D01*
X123357142Y-54952380D01*
X123261904Y-54952380D01*
X123119047Y-54904761D01*
X123023809Y-54809523D01*
X122976190Y-54714285D01*
X122928571Y-54523809D01*
X122928571Y-54380952D01*
X122976190Y-54190476D01*
X123023809Y-54095238D01*
X123119047Y-54000000D01*
X123261904Y-53952380D01*
X123357142Y-53952380D01*
X123500000Y-54000000D01*
X123547619Y-54047619D01*
X124404761Y-54952380D02*
X124404761Y-54428571D01*
X124357142Y-54333333D01*
X124261904Y-54285714D01*
X124071428Y-54285714D01*
X123976190Y-54333333D01*
X124404761Y-54904761D02*
X124309523Y-54952380D01*
X124071428Y-54952380D01*
X123976190Y-54904761D01*
X123928571Y-54809523D01*
X123928571Y-54714285D01*
X123976190Y-54619047D01*
X124071428Y-54571428D01*
X124309523Y-54571428D01*
X124404761Y-54523809D01*
X124880952Y-54952380D02*
X124880952Y-54285714D01*
X124880952Y-54476190D02*
X124928571Y-54380952D01*
X124976190Y-54333333D01*
X125071428Y-54285714D01*
X125166666Y-54285714D01*
X125928571Y-54952380D02*
X125928571Y-53952380D01*
X125928571Y-54904761D02*
X125833333Y-54952380D01*
X125642857Y-54952380D01*
X125547619Y-54904761D01*
X125500000Y-54857142D01*
X125452380Y-54761904D01*
X125452380Y-54476190D01*
X125500000Y-54380952D01*
X125547619Y-54333333D01*
X125642857Y-54285714D01*
X125833333Y-54285714D01*
X125928571Y-54333333D01*
X127166666Y-54285714D02*
X127166666Y-55285714D01*
X127166666Y-54333333D02*
X127261904Y-54285714D01*
X127452380Y-54285714D01*
X127547619Y-54333333D01*
X127595238Y-54380952D01*
X127642857Y-54476190D01*
X127642857Y-54761904D01*
X127595238Y-54857142D01*
X127547619Y-54904761D01*
X127452380Y-54952380D01*
X127261904Y-54952380D01*
X127166666Y-54904761D01*
X128214285Y-54952380D02*
X128119047Y-54904761D01*
X128071428Y-54857142D01*
X128023809Y-54761904D01*
X128023809Y-54476190D01*
X128071428Y-54380952D01*
X128119047Y-54333333D01*
X128214285Y-54285714D01*
X128357142Y-54285714D01*
X128452380Y-54333333D01*
X128500000Y-54380952D01*
X128547619Y-54476190D01*
X128547619Y-54761904D01*
X128500000Y-54857142D01*
X128452380Y-54904761D01*
X128357142Y-54952380D01*
X128214285Y-54952380D01*
X128880952Y-54285714D02*
X129071428Y-54952380D01*
X129261904Y-54476190D01*
X129452380Y-54952380D01*
X129642857Y-54285714D01*
X130404761Y-54904761D02*
X130309523Y-54952380D01*
X130119047Y-54952380D01*
X130023809Y-54904761D01*
X129976190Y-54809523D01*
X129976190Y-54428571D01*
X130023809Y-54333333D01*
X130119047Y-54285714D01*
X130309523Y-54285714D01*
X130404761Y-54333333D01*
X130452380Y-54428571D01*
X130452380Y-54523809D01*
X129976190Y-54619047D01*
X130880952Y-54952380D02*
X130880952Y-54285714D01*
X130880952Y-54476190D02*
X130928571Y-54380952D01*
X130976190Y-54333333D01*
X131071428Y-54285714D01*
X131166666Y-54285714D01*
X172166666Y-59166666D02*
X172642857Y-59166666D01*
X172071428Y-59452380D02*
X172404761Y-58452380D01*
X172738095Y-59452380D01*
X173500000Y-59404761D02*
X173404761Y-59452380D01*
X173214285Y-59452380D01*
X173119047Y-59404761D01*
X173071428Y-59357142D01*
X173023809Y-59261904D01*
X173023809Y-58976190D01*
X173071428Y-58880952D01*
X173119047Y-58833333D01*
X173214285Y-58785714D01*
X173404761Y-58785714D01*
X173500000Y-58833333D01*
X174357142Y-59404761D02*
X174261904Y-59452380D01*
X174071428Y-59452380D01*
X173976190Y-59404761D01*
X173928571Y-59357142D01*
X173880952Y-59261904D01*
X173880952Y-58976190D01*
X173928571Y-58880952D01*
X173976190Y-58833333D01*
X174071428Y-58785714D01*
X174261904Y-58785714D01*
X174357142Y-58833333D01*
X175166666Y-59404761D02*
X175071428Y-59452380D01*
X174880952Y-59452380D01*
X174785714Y-59404761D01*
X174738095Y-59309523D01*
X174738095Y-58928571D01*
X174785714Y-58833333D01*
X174880952Y-58785714D01*
X175071428Y-58785714D01*
X175166666Y-58833333D01*
X175214285Y-58928571D01*
X175214285Y-59023809D01*
X174738095Y-59119047D01*
X175595238Y-59404761D02*
X175690476Y-59452380D01*
X175880952Y-59452380D01*
X175976190Y-59404761D01*
X176023809Y-59309523D01*
X176023809Y-59261904D01*
X175976190Y-59166666D01*
X175880952Y-59119047D01*
X175738095Y-59119047D01*
X175642857Y-59071428D01*
X175595238Y-58976190D01*
X175595238Y-58928571D01*
X175642857Y-58833333D01*
X175738095Y-58785714D01*
X175880952Y-58785714D01*
X175976190Y-58833333D01*
X176404761Y-59404761D02*
X176500000Y-59452380D01*
X176690476Y-59452380D01*
X176785714Y-59404761D01*
X176833333Y-59309523D01*
X176833333Y-59261904D01*
X176785714Y-59166666D01*
X176690476Y-59119047D01*
X176547619Y-59119047D01*
X176452380Y-59071428D01*
X176404761Y-58976190D01*
X176404761Y-58928571D01*
X176452380Y-58833333D01*
X176547619Y-58785714D01*
X176690476Y-58785714D01*
X176785714Y-58833333D01*
D11*
%TO.C,U38*%
X108000000Y-83640000D02*
X105800000Y-83640000D01*
X108000000Y-83640000D02*
X110200000Y-83640000D01*
X108000000Y-88860000D02*
X105800000Y-88860000D01*
X108000000Y-88860000D02*
X111600000Y-88860000D01*
%TO.C,U37*%
X175750000Y-69485000D02*
X177950000Y-69485000D01*
X175750000Y-69485000D02*
X173550000Y-69485000D01*
X175750000Y-64015000D02*
X177950000Y-64015000D01*
X175750000Y-64015000D02*
X172150000Y-64015000D01*
%TO.C,U36*%
X119000000Y-58810000D02*
X120950000Y-58810000D01*
X119000000Y-58810000D02*
X117050000Y-58810000D01*
X119000000Y-53690000D02*
X120950000Y-53690000D01*
X119000000Y-53690000D02*
X115550000Y-53690000D01*
%TO.C,U35*%
X106500000Y-73615000D02*
X104300000Y-73615000D01*
X106500000Y-73615000D02*
X108700000Y-73615000D01*
X106500000Y-80385000D02*
X104300000Y-80385000D01*
X106500000Y-80385000D02*
X110100000Y-80385000D01*
%TO.C,U34*%
X106500000Y-63865000D02*
X104300000Y-63865000D01*
X106500000Y-63865000D02*
X108700000Y-63865000D01*
X106500000Y-70635000D02*
X104300000Y-70635000D01*
X106500000Y-70635000D02*
X110100000Y-70635000D01*
%TO.C,U33*%
X149000000Y-65610000D02*
X151200000Y-65610000D01*
X149000000Y-65610000D02*
X146800000Y-65610000D01*
X149000000Y-60390000D02*
X151200000Y-60390000D01*
X149000000Y-60390000D02*
X145400000Y-60390000D01*
%TO.C,U32*%
X135750000Y-66110000D02*
X137950000Y-66110000D01*
X135750000Y-66110000D02*
X133550000Y-66110000D01*
X135750000Y-60890000D02*
X137950000Y-60890000D01*
X135750000Y-60890000D02*
X132150000Y-60890000D01*
%TO.C,U31*%
X135500000Y-88860000D02*
X137700000Y-88860000D01*
X135500000Y-88860000D02*
X133300000Y-88860000D01*
X135500000Y-83640000D02*
X137700000Y-83640000D01*
X135500000Y-83640000D02*
X131900000Y-83640000D01*
%TO.C,U30*%
X136500000Y-126110000D02*
X138700000Y-126110000D01*
X136500000Y-126110000D02*
X134300000Y-126110000D01*
X136500000Y-120890000D02*
X138700000Y-120890000D01*
X136500000Y-120890000D02*
X132900000Y-120890000D01*
%TO.C,U29*%
X136750000Y-104360000D02*
X138950000Y-104360000D01*
X136750000Y-104360000D02*
X134550000Y-104360000D01*
X136750000Y-99140000D02*
X138950000Y-99140000D01*
X136750000Y-99140000D02*
X133150000Y-99140000D01*
%TO.C,U28*%
X107750000Y-103610000D02*
X109950000Y-103610000D01*
X107750000Y-103610000D02*
X105550000Y-103610000D01*
X107750000Y-98390000D02*
X109950000Y-98390000D01*
X107750000Y-98390000D02*
X104150000Y-98390000D01*
%TO.C,U27*%
X185250000Y-62565000D02*
X183300000Y-62565000D01*
X185250000Y-62565000D02*
X187200000Y-62565000D01*
X185250000Y-71435000D02*
X183300000Y-71435000D01*
X185250000Y-71435000D02*
X188700000Y-71435000D01*
%TO.C,U26*%
X121750000Y-123360000D02*
X123950000Y-123360000D01*
X121750000Y-123360000D02*
X119550000Y-123360000D01*
X121750000Y-118140000D02*
X123950000Y-118140000D01*
X121750000Y-118140000D02*
X118150000Y-118140000D01*
%TO.C,U25*%
X136750000Y-114610000D02*
X138950000Y-114610000D01*
X136750000Y-114610000D02*
X134550000Y-114610000D01*
X136750000Y-109390000D02*
X138950000Y-109390000D01*
X136750000Y-109390000D02*
X133150000Y-109390000D01*
%TO.C,U24*%
X122250000Y-113860000D02*
X124450000Y-113860000D01*
X122250000Y-113860000D02*
X120050000Y-113860000D01*
X122250000Y-108640000D02*
X124450000Y-108640000D01*
X122250000Y-108640000D02*
X118650000Y-108640000D01*
%TO.C,U23*%
X151500000Y-114935000D02*
X153450000Y-114935000D01*
X151500000Y-114935000D02*
X149550000Y-114935000D01*
X151500000Y-106065000D02*
X153450000Y-106065000D01*
X151500000Y-106065000D02*
X148050000Y-106065000D01*
%TO.C,U22*%
X167250000Y-99885000D02*
X169450000Y-99885000D01*
X167250000Y-99885000D02*
X165050000Y-99885000D01*
X167250000Y-93115000D02*
X169450000Y-93115000D01*
X167250000Y-93115000D02*
X163650000Y-93115000D01*
%TO.C,U21*%
X153000000Y-148735000D02*
X155200000Y-148735000D01*
X153000000Y-148735000D02*
X150800000Y-148735000D01*
X153000000Y-143265000D02*
X155200000Y-143265000D01*
X153000000Y-143265000D02*
X149400000Y-143265000D01*
%TO.C,U20*%
X167000000Y-135985000D02*
X169200000Y-135985000D01*
X167000000Y-135985000D02*
X164800000Y-135985000D01*
X167000000Y-130515000D02*
X169200000Y-130515000D01*
X167000000Y-130515000D02*
X163400000Y-130515000D01*
%TO.C,U19*%
X167000000Y-148685000D02*
X168950000Y-148685000D01*
X167000000Y-148685000D02*
X165050000Y-148685000D01*
X167000000Y-139815000D02*
X168950000Y-139815000D01*
X167000000Y-139815000D02*
X163550000Y-139815000D01*
%TO.C,U18*%
X167250000Y-125885000D02*
X169450000Y-125885000D01*
X167250000Y-125885000D02*
X165050000Y-125885000D01*
X167250000Y-119115000D02*
X169450000Y-119115000D01*
X167250000Y-119115000D02*
X163650000Y-119115000D01*
%TO.C,U17*%
X181000000Y-139235000D02*
X183200000Y-139235000D01*
X181000000Y-139235000D02*
X178800000Y-139235000D01*
X181000000Y-133765000D02*
X183200000Y-133765000D01*
X181000000Y-133765000D02*
X177400000Y-133765000D01*
%TO.C,U16*%
X122250000Y-103610000D02*
X124450000Y-103610000D01*
X122250000Y-103610000D02*
X120050000Y-103610000D01*
X122250000Y-98390000D02*
X124450000Y-98390000D01*
X122250000Y-98390000D02*
X118650000Y-98390000D01*
%TO.C,U15*%
X136250000Y-137360000D02*
X138450000Y-137360000D01*
X136250000Y-137360000D02*
X134050000Y-137360000D01*
X136250000Y-132140000D02*
X138450000Y-132140000D01*
X136250000Y-132140000D02*
X132650000Y-132140000D01*
%TO.C,U14*%
X121500000Y-133860000D02*
X123700000Y-133860000D01*
X121500000Y-133860000D02*
X119300000Y-133860000D01*
X121500000Y-128640000D02*
X123700000Y-128640000D01*
X121500000Y-128640000D02*
X117900000Y-128640000D01*
%TO.C,U13*%
X136250000Y-147860000D02*
X138450000Y-147860000D01*
X136250000Y-147860000D02*
X134050000Y-147860000D01*
X136250000Y-142640000D02*
X138450000Y-142640000D01*
X136250000Y-142640000D02*
X132650000Y-142640000D01*
%TO.C,U12*%
X151500000Y-100610000D02*
X153700000Y-100610000D01*
X151500000Y-100610000D02*
X149300000Y-100610000D01*
X151500000Y-95390000D02*
X153700000Y-95390000D01*
X151500000Y-95390000D02*
X147900000Y-95390000D01*
%TO.C,U11*%
X167250000Y-112885000D02*
X169450000Y-112885000D01*
X167250000Y-112885000D02*
X165050000Y-112885000D01*
X167250000Y-106115000D02*
X169450000Y-106115000D01*
X167250000Y-106115000D02*
X163650000Y-106115000D01*
%TO.C,U10*%
X107500000Y-113735000D02*
X109700000Y-113735000D01*
X107500000Y-113735000D02*
X105300000Y-113735000D01*
X107500000Y-108265000D02*
X109700000Y-108265000D01*
X107500000Y-108265000D02*
X103900000Y-108265000D01*
%TO.C,U9*%
X151250000Y-138135000D02*
X153450000Y-138135000D01*
X151250000Y-138135000D02*
X149050000Y-138135000D01*
X151250000Y-131365000D02*
X153450000Y-131365000D01*
X151250000Y-131365000D02*
X147650000Y-131365000D01*
%TO.C,U8*%
X151250000Y-127385000D02*
X153450000Y-127385000D01*
X151250000Y-127385000D02*
X149050000Y-127385000D01*
X151250000Y-120615000D02*
X153450000Y-120615000D01*
X151250000Y-120615000D02*
X147650000Y-120615000D01*
%TO.C,U7*%
X116000000Y-147360000D02*
X118200000Y-147360000D01*
X116000000Y-147360000D02*
X113800000Y-147360000D01*
X116000000Y-142140000D02*
X118200000Y-142140000D01*
X116000000Y-142140000D02*
X112400000Y-142140000D01*
%TO.C,U6*%
X163250000Y-74135000D02*
X165450000Y-74135000D01*
X163250000Y-74135000D02*
X161050000Y-74135000D01*
X163250000Y-67365000D02*
X165450000Y-67365000D01*
X163250000Y-67365000D02*
X159650000Y-67365000D01*
%TO.C,U5*%
X149000000Y-79985000D02*
X151200000Y-79985000D01*
X149000000Y-79985000D02*
X146800000Y-79985000D01*
X149000000Y-74515000D02*
X151200000Y-74515000D01*
X149000000Y-74515000D02*
X145400000Y-74515000D01*
%TO.C,U4*%
X163250000Y-60635000D02*
X165450000Y-60635000D01*
X163250000Y-60635000D02*
X161050000Y-60635000D01*
X163250000Y-53865000D02*
X165450000Y-53865000D01*
X163250000Y-53865000D02*
X159650000Y-53865000D01*
%TO.C,U3*%
X135750000Y-76610000D02*
X137950000Y-76610000D01*
X135750000Y-76610000D02*
X133550000Y-76610000D01*
X135750000Y-71390000D02*
X137950000Y-71390000D01*
X135750000Y-71390000D02*
X132150000Y-71390000D01*
%TO.C,U2*%
X150500000Y-89985000D02*
X152700000Y-89985000D01*
X150500000Y-89985000D02*
X148300000Y-89985000D01*
X150500000Y-84515000D02*
X152700000Y-84515000D01*
X150500000Y-84515000D02*
X146900000Y-84515000D01*
%TO.C,U1*%
X167250000Y-87135000D02*
X169450000Y-87135000D01*
X167250000Y-87135000D02*
X165050000Y-87135000D01*
X167250000Y-80365000D02*
X169450000Y-80365000D01*
X167250000Y-80365000D02*
X163650000Y-80365000D01*
%TO.C,R21*%
X178991422Y-56540000D02*
X179508578Y-56540000D01*
X178991422Y-57960000D02*
X179508578Y-57960000D01*
%TO.C,R20*%
X139241422Y-93290000D02*
X139758578Y-93290000D01*
X139241422Y-94710000D02*
X139758578Y-94710000D01*
%TO.C,R19*%
X146696078Y-53210000D02*
X146178922Y-53210000D01*
X146696078Y-51790000D02*
X146178922Y-51790000D01*
%TO.C,R18*%
X126040000Y-57508578D02*
X126040000Y-56991422D01*
X127460000Y-57508578D02*
X127460000Y-56991422D01*
%TO.C,R17*%
X120991422Y-87540000D02*
X121508578Y-87540000D01*
X120991422Y-88960000D02*
X121508578Y-88960000D01*
%TO.C,R16*%
X120741422Y-71290000D02*
X121258578Y-71290000D01*
X120741422Y-72710000D02*
X121258578Y-72710000D01*
%TO.C,R15*%
X116508578Y-68210000D02*
X115991422Y-68210000D01*
X116508578Y-66790000D02*
X115991422Y-66790000D01*
%TO.C,R14*%
X116508578Y-66210000D02*
X115991422Y-66210000D01*
X116508578Y-64790000D02*
X115991422Y-64790000D01*
%TO.C,R13*%
X120991422Y-64790000D02*
X121508578Y-64790000D01*
X120991422Y-66210000D02*
X121508578Y-66210000D01*
%TO.C,R12*%
X120991422Y-84540000D02*
X121508578Y-84540000D01*
X120991422Y-85960000D02*
X121508578Y-85960000D01*
%TO.C,R11*%
X120741422Y-80790000D02*
X121258578Y-80790000D01*
X120741422Y-82210000D02*
X121258578Y-82210000D01*
%TO.C,R10*%
X121258578Y-78960000D02*
X120741422Y-78960000D01*
X121258578Y-77540000D02*
X120741422Y-77540000D01*
%TO.C,R9*%
X113040000Y-83508578D02*
X113040000Y-82991422D01*
X114460000Y-83508578D02*
X114460000Y-82991422D01*
%TO.C,R8*%
X121258578Y-70210000D02*
X120741422Y-70210000D01*
X121258578Y-68790000D02*
X120741422Y-68790000D01*
%TO.C,R7*%
X124991422Y-77540000D02*
X125508578Y-77540000D01*
X124991422Y-78960000D02*
X125508578Y-78960000D01*
%TO.C,R6*%
X124991422Y-69290000D02*
X125508578Y-69290000D01*
X124991422Y-70710000D02*
X125508578Y-70710000D01*
%TO.C,R5*%
X128790000Y-83508578D02*
X128790000Y-82991422D01*
X130210000Y-83508578D02*
X130210000Y-82991422D01*
%TO.C,R4*%
X123290000Y-147258578D02*
X123290000Y-146741422D01*
X124710000Y-147258578D02*
X124710000Y-146741422D01*
%TO.C,R3*%
X114008578Y-149460000D02*
X113491422Y-149460000D01*
X114008578Y-148040000D02*
X113491422Y-148040000D01*
%TO.C,R2*%
X105540000Y-139008578D02*
X105540000Y-138491422D01*
X106960000Y-139008578D02*
X106960000Y-138491422D01*
%TO.C,R1*%
X115290000Y-137758578D02*
X115290000Y-137241422D01*
X116710000Y-137758578D02*
X116710000Y-137241422D01*
%TO.C,Q5*%
X110830000Y-136740000D02*
X109900000Y-136740000D01*
X107670000Y-136740000D02*
X108600000Y-136740000D01*
X107670000Y-136740000D02*
X107670000Y-138900000D01*
X110830000Y-136740000D02*
X110830000Y-138200000D01*
%TO.C,Q4*%
X114580000Y-136740000D02*
X113650000Y-136740000D01*
X111420000Y-136740000D02*
X112350000Y-136740000D01*
X111420000Y-136740000D02*
X111420000Y-138900000D01*
X114580000Y-136740000D02*
X114580000Y-138200000D01*
%TO.C,Q3*%
X130760000Y-118830000D02*
X130760000Y-117900000D01*
X130760000Y-115670000D02*
X130760000Y-116600000D01*
X130760000Y-115670000D02*
X128600000Y-115670000D01*
X130760000Y-118830000D02*
X129300000Y-118830000D01*
%TO.C,Q2*%
X131260000Y-93580000D02*
X131260000Y-92650000D01*
X131260000Y-90420000D02*
X131260000Y-91350000D01*
X131260000Y-90420000D02*
X129100000Y-90420000D01*
X131260000Y-93580000D02*
X129800000Y-93580000D01*
%TO.C,Q1*%
X115990000Y-80420000D02*
X115990000Y-81350000D01*
X115990000Y-83580000D02*
X115990000Y-82650000D01*
X115990000Y-83580000D02*
X118150000Y-83580000D01*
X115990000Y-80420000D02*
X117450000Y-80420000D01*
%TO.C,J3*%
X114000000Y-135000000D02*
X100000000Y-135000000D01*
X114000000Y-121000000D02*
X114000000Y-135000000D01*
X100000000Y-121000000D02*
X114000000Y-121000000D01*
X100000000Y-135000000D02*
X100000000Y-121000000D01*
%TO.C,D4*%
X180250000Y-58290000D02*
X177565000Y-58290000D01*
X177565000Y-58290000D02*
X177565000Y-60210000D01*
X177565000Y-60210000D02*
X180250000Y-60210000D01*
%TO.C,D3*%
X144250000Y-93040000D02*
X141565000Y-93040000D01*
X141565000Y-93040000D02*
X141565000Y-94960000D01*
X141565000Y-94960000D02*
X144250000Y-94960000D01*
%TO.C,D2*%
X141750000Y-53460000D02*
X144435000Y-53460000D01*
X144435000Y-53460000D02*
X144435000Y-51540000D01*
X144435000Y-51540000D02*
X141750000Y-51540000D01*
%TO.C,D1*%
X125460000Y-58250000D02*
X125460000Y-55565000D01*
X125460000Y-55565000D02*
X123540000Y-55565000D01*
X123540000Y-55565000D02*
X123540000Y-58250000D01*
%TO.C,C46*%
X110000000Y-54510000D02*
X114385000Y-54510000D01*
X114385000Y-54510000D02*
X114385000Y-51490000D01*
X114385000Y-51490000D02*
X110000000Y-51490000D01*
%TO.C,C45*%
X104258578Y-91210000D02*
X103741422Y-91210000D01*
X104258578Y-89790000D02*
X103741422Y-89790000D01*
%TO.C,C44*%
X178991422Y-62040000D02*
X179508578Y-62040000D01*
X178991422Y-63460000D02*
X179508578Y-63460000D01*
%TO.C,C43*%
X103008578Y-82460000D02*
X102491422Y-82460000D01*
X103008578Y-81040000D02*
X102491422Y-81040000D01*
%TO.C,C42*%
X103008578Y-72710000D02*
X102491422Y-72710000D01*
X103008578Y-71290000D02*
X102491422Y-71290000D01*
%TO.C,C41*%
X188250000Y-74990000D02*
X183865000Y-74990000D01*
X183865000Y-74990000D02*
X183865000Y-78010000D01*
X183865000Y-78010000D02*
X188250000Y-78010000D01*
%TO.C,C40*%
X114710000Y-56741422D02*
X114710000Y-57258578D01*
X113290000Y-56741422D02*
X113290000Y-57258578D01*
%TO.C,C39*%
X122491422Y-51540000D02*
X123008578Y-51540000D01*
X122491422Y-52960000D02*
X123008578Y-52960000D01*
%TO.C,C38*%
X121290000Y-75196078D02*
X121290000Y-74678922D01*
X122710000Y-75196078D02*
X122710000Y-74678922D01*
%TO.C,C37*%
X119290000Y-75196078D02*
X119290000Y-74678922D01*
X120710000Y-75196078D02*
X120710000Y-74678922D01*
%TO.C,C36*%
X152241422Y-58290000D02*
X152758578Y-58290000D01*
X152241422Y-59710000D02*
X152758578Y-59710000D01*
%TO.C,C35*%
X139508578Y-60210000D02*
X138991422Y-60210000D01*
X139508578Y-58790000D02*
X138991422Y-58790000D01*
%TO.C,C34*%
X139008578Y-82960000D02*
X138491422Y-82960000D01*
X139008578Y-81540000D02*
X138491422Y-81540000D01*
%TO.C,C33*%
X132040000Y-81508578D02*
X132040000Y-80991422D01*
X133460000Y-81508578D02*
X133460000Y-80991422D01*
%TO.C,C32*%
X166491422Y-65290000D02*
X167008578Y-65290000D01*
X166491422Y-66710000D02*
X167008578Y-66710000D01*
%TO.C,C31*%
X152241422Y-72540000D02*
X152758578Y-72540000D01*
X152241422Y-73960000D02*
X152758578Y-73960000D01*
%TO.C,C30*%
X166491422Y-51790000D02*
X167008578Y-51790000D01*
X166491422Y-53210000D02*
X167008578Y-53210000D01*
%TO.C,C29*%
X139508578Y-70710000D02*
X138991422Y-70710000D01*
X139508578Y-69290000D02*
X138991422Y-69290000D01*
%TO.C,C28*%
X153491422Y-82540000D02*
X154008578Y-82540000D01*
X153491422Y-83960000D02*
X154008578Y-83960000D01*
%TO.C,C27*%
X170491422Y-78290000D02*
X171008578Y-78290000D01*
X170491422Y-79710000D02*
X171008578Y-79710000D01*
%TO.C,C26*%
X170741422Y-91040000D02*
X171258578Y-91040000D01*
X170741422Y-92460000D02*
X171258578Y-92460000D01*
%TO.C,C25*%
X182008578Y-73460000D02*
X181491422Y-73460000D01*
X182008578Y-72040000D02*
X181491422Y-72040000D01*
%TO.C,C24*%
X156241422Y-141290000D02*
X156758578Y-141290000D01*
X156241422Y-142710000D02*
X156758578Y-142710000D01*
%TO.C,C23*%
X170741422Y-128540000D02*
X171258578Y-128540000D01*
X170741422Y-129960000D02*
X171258578Y-129960000D01*
%TO.C,C22*%
X125008578Y-107960000D02*
X124491422Y-107960000D01*
X125008578Y-106540000D02*
X124491422Y-106540000D01*
%TO.C,C21*%
X124508578Y-117460000D02*
X123991422Y-117460000D01*
X124508578Y-116040000D02*
X123991422Y-116040000D01*
%TO.C,C20*%
X170491422Y-137790000D02*
X171008578Y-137790000D01*
X170491422Y-139210000D02*
X171008578Y-139210000D01*
%TO.C,C19*%
X170741422Y-117040000D02*
X171258578Y-117040000D01*
X170741422Y-118460000D02*
X171258578Y-118460000D01*
%TO.C,C18*%
X139508578Y-120210000D02*
X138991422Y-120210000D01*
X139508578Y-118790000D02*
X138991422Y-118790000D01*
%TO.C,C17*%
X110991422Y-96290000D02*
X111508578Y-96290000D01*
X110991422Y-97710000D02*
X111508578Y-97710000D01*
%TO.C,C16*%
X119491422Y-140040000D02*
X120008578Y-140040000D01*
X119491422Y-141460000D02*
X120008578Y-141460000D01*
%TO.C,C15*%
X139758578Y-98460000D02*
X139241422Y-98460000D01*
X139758578Y-97040000D02*
X139241422Y-97040000D01*
%TO.C,C14*%
X154491422Y-104040000D02*
X155008578Y-104040000D01*
X154491422Y-105460000D02*
X155008578Y-105460000D01*
%TO.C,C13*%
X139758578Y-108710000D02*
X139241422Y-108710000D01*
X139758578Y-107290000D02*
X139241422Y-107290000D01*
%TO.C,C12*%
X170741422Y-104040000D02*
X171258578Y-104040000D01*
X170741422Y-105460000D02*
X171258578Y-105460000D01*
%TO.C,C11*%
X124258578Y-127710000D02*
X123741422Y-127710000D01*
X124258578Y-126290000D02*
X123741422Y-126290000D01*
%TO.C,C10*%
X139008578Y-141960000D02*
X138491422Y-141960000D01*
X139008578Y-140540000D02*
X138491422Y-140540000D01*
%TO.C,C9*%
X110741422Y-106290000D02*
X111258578Y-106290000D01*
X110741422Y-107710000D02*
X111258578Y-107710000D01*
%TO.C,C8*%
X139008578Y-131210000D02*
X138491422Y-131210000D01*
X139008578Y-129790000D02*
X138491422Y-129790000D01*
%TO.C,C7*%
X154491422Y-129290000D02*
X155008578Y-129290000D01*
X154491422Y-130710000D02*
X155008578Y-130710000D01*
%TO.C,C6*%
X125258578Y-97710000D02*
X124741422Y-97710000D01*
X125258578Y-96290000D02*
X124741422Y-96290000D01*
%TO.C,C5*%
X184491422Y-131790000D02*
X185008578Y-131790000D01*
X184491422Y-133210000D02*
X185008578Y-133210000D01*
%TO.C,C4*%
X154491422Y-118540000D02*
X155008578Y-118540000D01*
X154491422Y-119960000D02*
X155008578Y-119960000D01*
%TO.C,C3*%
X154491422Y-93290000D02*
X155008578Y-93290000D01*
X154491422Y-94710000D02*
X155008578Y-94710000D01*
%TO.C,C2*%
X122460000Y-146741422D02*
X122460000Y-147258578D01*
X121040000Y-146741422D02*
X121040000Y-147258578D01*
%TO.C,C1*%
X110710000Y-146241422D02*
X110710000Y-146758578D01*
X109290000Y-146241422D02*
X109290000Y-146758578D01*
%TO.C,U38*%
D10*
X106761904Y-89152380D02*
X106761904Y-89961904D01*
X106809523Y-90057142D01*
X106857142Y-90104761D01*
X106952380Y-90152380D01*
X107142857Y-90152380D01*
X107238095Y-90104761D01*
X107285714Y-90057142D01*
X107333333Y-89961904D01*
X107333333Y-89152380D01*
X107714285Y-89152380D02*
X108333333Y-89152380D01*
X108000000Y-89533333D01*
X108142857Y-89533333D01*
X108238095Y-89580952D01*
X108285714Y-89628571D01*
X108333333Y-89723809D01*
X108333333Y-89961904D01*
X108285714Y-90057142D01*
X108238095Y-90104761D01*
X108142857Y-90152380D01*
X107857142Y-90152380D01*
X107761904Y-90104761D01*
X107714285Y-90057142D01*
X108904761Y-89580952D02*
X108809523Y-89533333D01*
X108761904Y-89485714D01*
X108714285Y-89390476D01*
X108714285Y-89342857D01*
X108761904Y-89247619D01*
X108809523Y-89200000D01*
X108904761Y-89152380D01*
X109095238Y-89152380D01*
X109190476Y-89200000D01*
X109238095Y-89247619D01*
X109285714Y-89342857D01*
X109285714Y-89390476D01*
X109238095Y-89485714D01*
X109190476Y-89533333D01*
X109095238Y-89580952D01*
X108904761Y-89580952D01*
X108809523Y-89628571D01*
X108761904Y-89676190D01*
X108714285Y-89771428D01*
X108714285Y-89961904D01*
X108761904Y-90057142D01*
X108809523Y-90104761D01*
X108904761Y-90152380D01*
X109095238Y-90152380D01*
X109190476Y-90104761D01*
X109238095Y-90057142D01*
X109285714Y-89961904D01*
X109285714Y-89771428D01*
X109238095Y-89676190D01*
X109190476Y-89628571D01*
X109095238Y-89580952D01*
%TO.C,U37*%
X174511904Y-62752380D02*
X174511904Y-63561904D01*
X174559523Y-63657142D01*
X174607142Y-63704761D01*
X174702380Y-63752380D01*
X174892857Y-63752380D01*
X174988095Y-63704761D01*
X175035714Y-63657142D01*
X175083333Y-63561904D01*
X175083333Y-62752380D01*
X175464285Y-62752380D02*
X176083333Y-62752380D01*
X175750000Y-63133333D01*
X175892857Y-63133333D01*
X175988095Y-63180952D01*
X176035714Y-63228571D01*
X176083333Y-63323809D01*
X176083333Y-63561904D01*
X176035714Y-63657142D01*
X175988095Y-63704761D01*
X175892857Y-63752380D01*
X175607142Y-63752380D01*
X175511904Y-63704761D01*
X175464285Y-63657142D01*
X176416666Y-62752380D02*
X177083333Y-62752380D01*
X176654761Y-63752380D01*
%TO.C,U36*%
X117761904Y-52302380D02*
X117761904Y-53111904D01*
X117809523Y-53207142D01*
X117857142Y-53254761D01*
X117952380Y-53302380D01*
X118142857Y-53302380D01*
X118238095Y-53254761D01*
X118285714Y-53207142D01*
X118333333Y-53111904D01*
X118333333Y-52302380D01*
X118714285Y-52302380D02*
X119333333Y-52302380D01*
X119000000Y-52683333D01*
X119142857Y-52683333D01*
X119238095Y-52730952D01*
X119285714Y-52778571D01*
X119333333Y-52873809D01*
X119333333Y-53111904D01*
X119285714Y-53207142D01*
X119238095Y-53254761D01*
X119142857Y-53302380D01*
X118857142Y-53302380D01*
X118761904Y-53254761D01*
X118714285Y-53207142D01*
X120190476Y-52302380D02*
X120000000Y-52302380D01*
X119904761Y-52350000D01*
X119857142Y-52397619D01*
X119761904Y-52540476D01*
X119714285Y-52730952D01*
X119714285Y-53111904D01*
X119761904Y-53207142D01*
X119809523Y-53254761D01*
X119904761Y-53302380D01*
X120095238Y-53302380D01*
X120190476Y-53254761D01*
X120238095Y-53207142D01*
X120285714Y-53111904D01*
X120285714Y-52873809D01*
X120238095Y-52778571D01*
X120190476Y-52730952D01*
X120095238Y-52683333D01*
X119904761Y-52683333D01*
X119809523Y-52730952D01*
X119761904Y-52778571D01*
X119714285Y-52873809D01*
%TO.C,U35*%
X105261904Y-80652380D02*
X105261904Y-81461904D01*
X105309523Y-81557142D01*
X105357142Y-81604761D01*
X105452380Y-81652380D01*
X105642857Y-81652380D01*
X105738095Y-81604761D01*
X105785714Y-81557142D01*
X105833333Y-81461904D01*
X105833333Y-80652380D01*
X106214285Y-80652380D02*
X106833333Y-80652380D01*
X106500000Y-81033333D01*
X106642857Y-81033333D01*
X106738095Y-81080952D01*
X106785714Y-81128571D01*
X106833333Y-81223809D01*
X106833333Y-81461904D01*
X106785714Y-81557142D01*
X106738095Y-81604761D01*
X106642857Y-81652380D01*
X106357142Y-81652380D01*
X106261904Y-81604761D01*
X106214285Y-81557142D01*
X107738095Y-80652380D02*
X107261904Y-80652380D01*
X107214285Y-81128571D01*
X107261904Y-81080952D01*
X107357142Y-81033333D01*
X107595238Y-81033333D01*
X107690476Y-81080952D01*
X107738095Y-81128571D01*
X107785714Y-81223809D01*
X107785714Y-81461904D01*
X107738095Y-81557142D01*
X107690476Y-81604761D01*
X107595238Y-81652380D01*
X107357142Y-81652380D01*
X107261904Y-81604761D01*
X107214285Y-81557142D01*
%TO.C,U34*%
X105261904Y-70902380D02*
X105261904Y-71711904D01*
X105309523Y-71807142D01*
X105357142Y-71854761D01*
X105452380Y-71902380D01*
X105642857Y-71902380D01*
X105738095Y-71854761D01*
X105785714Y-71807142D01*
X105833333Y-71711904D01*
X105833333Y-70902380D01*
X106214285Y-70902380D02*
X106833333Y-70902380D01*
X106500000Y-71283333D01*
X106642857Y-71283333D01*
X106738095Y-71330952D01*
X106785714Y-71378571D01*
X106833333Y-71473809D01*
X106833333Y-71711904D01*
X106785714Y-71807142D01*
X106738095Y-71854761D01*
X106642857Y-71902380D01*
X106357142Y-71902380D01*
X106261904Y-71854761D01*
X106214285Y-71807142D01*
X107690476Y-71235714D02*
X107690476Y-71902380D01*
X107452380Y-70854761D02*
X107214285Y-71569047D01*
X107833333Y-71569047D01*
%TO.C,U33*%
X147761904Y-59002380D02*
X147761904Y-59811904D01*
X147809523Y-59907142D01*
X147857142Y-59954761D01*
X147952380Y-60002380D01*
X148142857Y-60002380D01*
X148238095Y-59954761D01*
X148285714Y-59907142D01*
X148333333Y-59811904D01*
X148333333Y-59002380D01*
X148714285Y-59002380D02*
X149333333Y-59002380D01*
X149000000Y-59383333D01*
X149142857Y-59383333D01*
X149238095Y-59430952D01*
X149285714Y-59478571D01*
X149333333Y-59573809D01*
X149333333Y-59811904D01*
X149285714Y-59907142D01*
X149238095Y-59954761D01*
X149142857Y-60002380D01*
X148857142Y-60002380D01*
X148761904Y-59954761D01*
X148714285Y-59907142D01*
X149666666Y-59002380D02*
X150285714Y-59002380D01*
X149952380Y-59383333D01*
X150095238Y-59383333D01*
X150190476Y-59430952D01*
X150238095Y-59478571D01*
X150285714Y-59573809D01*
X150285714Y-59811904D01*
X150238095Y-59907142D01*
X150190476Y-59954761D01*
X150095238Y-60002380D01*
X149809523Y-60002380D01*
X149714285Y-59954761D01*
X149666666Y-59907142D01*
%TO.C,U32*%
X134511904Y-59502380D02*
X134511904Y-60311904D01*
X134559523Y-60407142D01*
X134607142Y-60454761D01*
X134702380Y-60502380D01*
X134892857Y-60502380D01*
X134988095Y-60454761D01*
X135035714Y-60407142D01*
X135083333Y-60311904D01*
X135083333Y-59502380D01*
X135464285Y-59502380D02*
X136083333Y-59502380D01*
X135750000Y-59883333D01*
X135892857Y-59883333D01*
X135988095Y-59930952D01*
X136035714Y-59978571D01*
X136083333Y-60073809D01*
X136083333Y-60311904D01*
X136035714Y-60407142D01*
X135988095Y-60454761D01*
X135892857Y-60502380D01*
X135607142Y-60502380D01*
X135511904Y-60454761D01*
X135464285Y-60407142D01*
X136464285Y-59597619D02*
X136511904Y-59550000D01*
X136607142Y-59502380D01*
X136845238Y-59502380D01*
X136940476Y-59550000D01*
X136988095Y-59597619D01*
X137035714Y-59692857D01*
X137035714Y-59788095D01*
X136988095Y-59930952D01*
X136416666Y-60502380D01*
X137035714Y-60502380D01*
%TO.C,U31*%
X134261904Y-82252380D02*
X134261904Y-83061904D01*
X134309523Y-83157142D01*
X134357142Y-83204761D01*
X134452380Y-83252380D01*
X134642857Y-83252380D01*
X134738095Y-83204761D01*
X134785714Y-83157142D01*
X134833333Y-83061904D01*
X134833333Y-82252380D01*
X135214285Y-82252380D02*
X135833333Y-82252380D01*
X135500000Y-82633333D01*
X135642857Y-82633333D01*
X135738095Y-82680952D01*
X135785714Y-82728571D01*
X135833333Y-82823809D01*
X135833333Y-83061904D01*
X135785714Y-83157142D01*
X135738095Y-83204761D01*
X135642857Y-83252380D01*
X135357142Y-83252380D01*
X135261904Y-83204761D01*
X135214285Y-83157142D01*
X136785714Y-83252380D02*
X136214285Y-83252380D01*
X136500000Y-83252380D02*
X136500000Y-82252380D01*
X136404761Y-82395238D01*
X136309523Y-82490476D01*
X136214285Y-82538095D01*
%TO.C,U30*%
X134511904Y-119502380D02*
X134511904Y-120311904D01*
X134559523Y-120407142D01*
X134607142Y-120454761D01*
X134702380Y-120502380D01*
X134892857Y-120502380D01*
X134988095Y-120454761D01*
X135035714Y-120407142D01*
X135083333Y-120311904D01*
X135083333Y-119502380D01*
X135464285Y-119502380D02*
X136083333Y-119502380D01*
X135750000Y-119883333D01*
X135892857Y-119883333D01*
X135988095Y-119930952D01*
X136035714Y-119978571D01*
X136083333Y-120073809D01*
X136083333Y-120311904D01*
X136035714Y-120407142D01*
X135988095Y-120454761D01*
X135892857Y-120502380D01*
X135607142Y-120502380D01*
X135511904Y-120454761D01*
X135464285Y-120407142D01*
X136702380Y-119502380D02*
X136797619Y-119502380D01*
X136892857Y-119550000D01*
X136940476Y-119597619D01*
X136988095Y-119692857D01*
X137035714Y-119883333D01*
X137035714Y-120121428D01*
X136988095Y-120311904D01*
X136940476Y-120407142D01*
X136892857Y-120454761D01*
X136797619Y-120502380D01*
X136702380Y-120502380D01*
X136607142Y-120454761D01*
X136559523Y-120407142D01*
X136511904Y-120311904D01*
X136464285Y-120121428D01*
X136464285Y-119883333D01*
X136511904Y-119692857D01*
X136559523Y-119597619D01*
X136607142Y-119550000D01*
X136702380Y-119502380D01*
%TO.C,U29*%
X134761904Y-97702380D02*
X134761904Y-98511904D01*
X134809523Y-98607142D01*
X134857142Y-98654761D01*
X134952380Y-98702380D01*
X135142857Y-98702380D01*
X135238095Y-98654761D01*
X135285714Y-98607142D01*
X135333333Y-98511904D01*
X135333333Y-97702380D01*
X135761904Y-97797619D02*
X135809523Y-97750000D01*
X135904761Y-97702380D01*
X136142857Y-97702380D01*
X136238095Y-97750000D01*
X136285714Y-97797619D01*
X136333333Y-97892857D01*
X136333333Y-97988095D01*
X136285714Y-98130952D01*
X135714285Y-98702380D01*
X136333333Y-98702380D01*
X136809523Y-98702380D02*
X137000000Y-98702380D01*
X137095238Y-98654761D01*
X137142857Y-98607142D01*
X137238095Y-98464285D01*
X137285714Y-98273809D01*
X137285714Y-97892857D01*
X137238095Y-97797619D01*
X137190476Y-97750000D01*
X137095238Y-97702380D01*
X136904761Y-97702380D01*
X136809523Y-97750000D01*
X136761904Y-97797619D01*
X136714285Y-97892857D01*
X136714285Y-98130952D01*
X136761904Y-98226190D01*
X136809523Y-98273809D01*
X136904761Y-98321428D01*
X137095238Y-98321428D01*
X137190476Y-98273809D01*
X137238095Y-98226190D01*
X137285714Y-98130952D01*
%TO.C,U28*%
X106511904Y-97002380D02*
X106511904Y-97811904D01*
X106559523Y-97907142D01*
X106607142Y-97954761D01*
X106702380Y-98002380D01*
X106892857Y-98002380D01*
X106988095Y-97954761D01*
X107035714Y-97907142D01*
X107083333Y-97811904D01*
X107083333Y-97002380D01*
X107511904Y-97097619D02*
X107559523Y-97050000D01*
X107654761Y-97002380D01*
X107892857Y-97002380D01*
X107988095Y-97050000D01*
X108035714Y-97097619D01*
X108083333Y-97192857D01*
X108083333Y-97288095D01*
X108035714Y-97430952D01*
X107464285Y-98002380D01*
X108083333Y-98002380D01*
X108654761Y-97430952D02*
X108559523Y-97383333D01*
X108511904Y-97335714D01*
X108464285Y-97240476D01*
X108464285Y-97192857D01*
X108511904Y-97097619D01*
X108559523Y-97050000D01*
X108654761Y-97002380D01*
X108845238Y-97002380D01*
X108940476Y-97050000D01*
X108988095Y-97097619D01*
X109035714Y-97192857D01*
X109035714Y-97240476D01*
X108988095Y-97335714D01*
X108940476Y-97383333D01*
X108845238Y-97430952D01*
X108654761Y-97430952D01*
X108559523Y-97478571D01*
X108511904Y-97526190D01*
X108464285Y-97621428D01*
X108464285Y-97811904D01*
X108511904Y-97907142D01*
X108559523Y-97954761D01*
X108654761Y-98002380D01*
X108845238Y-98002380D01*
X108940476Y-97954761D01*
X108988095Y-97907142D01*
X109035714Y-97811904D01*
X109035714Y-97621428D01*
X108988095Y-97526190D01*
X108940476Y-97478571D01*
X108845238Y-97430952D01*
%TO.C,U27*%
X184011904Y-71732380D02*
X184011904Y-72541904D01*
X184059523Y-72637142D01*
X184107142Y-72684761D01*
X184202380Y-72732380D01*
X184392857Y-72732380D01*
X184488095Y-72684761D01*
X184535714Y-72637142D01*
X184583333Y-72541904D01*
X184583333Y-71732380D01*
X185011904Y-71827619D02*
X185059523Y-71780000D01*
X185154761Y-71732380D01*
X185392857Y-71732380D01*
X185488095Y-71780000D01*
X185535714Y-71827619D01*
X185583333Y-71922857D01*
X185583333Y-72018095D01*
X185535714Y-72160952D01*
X184964285Y-72732380D01*
X185583333Y-72732380D01*
X185916666Y-71732380D02*
X186583333Y-71732380D01*
X186154761Y-72732380D01*
%TO.C,U26*%
X119261904Y-116752380D02*
X119261904Y-117561904D01*
X119309523Y-117657142D01*
X119357142Y-117704761D01*
X119452380Y-117752380D01*
X119642857Y-117752380D01*
X119738095Y-117704761D01*
X119785714Y-117657142D01*
X119833333Y-117561904D01*
X119833333Y-116752380D01*
X120261904Y-116847619D02*
X120309523Y-116800000D01*
X120404761Y-116752380D01*
X120642857Y-116752380D01*
X120738095Y-116800000D01*
X120785714Y-116847619D01*
X120833333Y-116942857D01*
X120833333Y-117038095D01*
X120785714Y-117180952D01*
X120214285Y-117752380D01*
X120833333Y-117752380D01*
X121690476Y-116752380D02*
X121500000Y-116752380D01*
X121404761Y-116800000D01*
X121357142Y-116847619D01*
X121261904Y-116990476D01*
X121214285Y-117180952D01*
X121214285Y-117561904D01*
X121261904Y-117657142D01*
X121309523Y-117704761D01*
X121404761Y-117752380D01*
X121595238Y-117752380D01*
X121690476Y-117704761D01*
X121738095Y-117657142D01*
X121785714Y-117561904D01*
X121785714Y-117323809D01*
X121738095Y-117228571D01*
X121690476Y-117180952D01*
X121595238Y-117133333D01*
X121404761Y-117133333D01*
X121309523Y-117180952D01*
X121261904Y-117228571D01*
X121214285Y-117323809D01*
%TO.C,U25*%
X134011904Y-107952380D02*
X134011904Y-108761904D01*
X134059523Y-108857142D01*
X134107142Y-108904761D01*
X134202380Y-108952380D01*
X134392857Y-108952380D01*
X134488095Y-108904761D01*
X134535714Y-108857142D01*
X134583333Y-108761904D01*
X134583333Y-107952380D01*
X135011904Y-108047619D02*
X135059523Y-108000000D01*
X135154761Y-107952380D01*
X135392857Y-107952380D01*
X135488095Y-108000000D01*
X135535714Y-108047619D01*
X135583333Y-108142857D01*
X135583333Y-108238095D01*
X135535714Y-108380952D01*
X134964285Y-108952380D01*
X135583333Y-108952380D01*
X136488095Y-107952380D02*
X136011904Y-107952380D01*
X135964285Y-108428571D01*
X136011904Y-108380952D01*
X136107142Y-108333333D01*
X136345238Y-108333333D01*
X136440476Y-108380952D01*
X136488095Y-108428571D01*
X136535714Y-108523809D01*
X136535714Y-108761904D01*
X136488095Y-108857142D01*
X136440476Y-108904761D01*
X136345238Y-108952380D01*
X136107142Y-108952380D01*
X136011904Y-108904761D01*
X135964285Y-108857142D01*
%TO.C,U24*%
X120011904Y-107252380D02*
X120011904Y-108061904D01*
X120059523Y-108157142D01*
X120107142Y-108204761D01*
X120202380Y-108252380D01*
X120392857Y-108252380D01*
X120488095Y-108204761D01*
X120535714Y-108157142D01*
X120583333Y-108061904D01*
X120583333Y-107252380D01*
X121011904Y-107347619D02*
X121059523Y-107300000D01*
X121154761Y-107252380D01*
X121392857Y-107252380D01*
X121488095Y-107300000D01*
X121535714Y-107347619D01*
X121583333Y-107442857D01*
X121583333Y-107538095D01*
X121535714Y-107680952D01*
X120964285Y-108252380D01*
X121583333Y-108252380D01*
X122440476Y-107585714D02*
X122440476Y-108252380D01*
X122202380Y-107204761D02*
X121964285Y-107919047D01*
X122583333Y-107919047D01*
%TO.C,U23*%
X150261904Y-104672380D02*
X150261904Y-105481904D01*
X150309523Y-105577142D01*
X150357142Y-105624761D01*
X150452380Y-105672380D01*
X150642857Y-105672380D01*
X150738095Y-105624761D01*
X150785714Y-105577142D01*
X150833333Y-105481904D01*
X150833333Y-104672380D01*
X151261904Y-104767619D02*
X151309523Y-104720000D01*
X151404761Y-104672380D01*
X151642857Y-104672380D01*
X151738095Y-104720000D01*
X151785714Y-104767619D01*
X151833333Y-104862857D01*
X151833333Y-104958095D01*
X151785714Y-105100952D01*
X151214285Y-105672380D01*
X151833333Y-105672380D01*
X152166666Y-104672380D02*
X152785714Y-104672380D01*
X152452380Y-105053333D01*
X152595238Y-105053333D01*
X152690476Y-105100952D01*
X152738095Y-105148571D01*
X152785714Y-105243809D01*
X152785714Y-105481904D01*
X152738095Y-105577142D01*
X152690476Y-105624761D01*
X152595238Y-105672380D01*
X152309523Y-105672380D01*
X152214285Y-105624761D01*
X152166666Y-105577142D01*
%TO.C,U22*%
X164761904Y-91702380D02*
X164761904Y-92511904D01*
X164809523Y-92607142D01*
X164857142Y-92654761D01*
X164952380Y-92702380D01*
X165142857Y-92702380D01*
X165238095Y-92654761D01*
X165285714Y-92607142D01*
X165333333Y-92511904D01*
X165333333Y-91702380D01*
X165761904Y-91797619D02*
X165809523Y-91750000D01*
X165904761Y-91702380D01*
X166142857Y-91702380D01*
X166238095Y-91750000D01*
X166285714Y-91797619D01*
X166333333Y-91892857D01*
X166333333Y-91988095D01*
X166285714Y-92130952D01*
X165714285Y-92702380D01*
X166333333Y-92702380D01*
X166714285Y-91797619D02*
X166761904Y-91750000D01*
X166857142Y-91702380D01*
X167095238Y-91702380D01*
X167190476Y-91750000D01*
X167238095Y-91797619D01*
X167285714Y-91892857D01*
X167285714Y-91988095D01*
X167238095Y-92130952D01*
X166666666Y-92702380D01*
X167285714Y-92702380D01*
%TO.C,U21*%
X151761904Y-142002380D02*
X151761904Y-142811904D01*
X151809523Y-142907142D01*
X151857142Y-142954761D01*
X151952380Y-143002380D01*
X152142857Y-143002380D01*
X152238095Y-142954761D01*
X152285714Y-142907142D01*
X152333333Y-142811904D01*
X152333333Y-142002380D01*
X152761904Y-142097619D02*
X152809523Y-142050000D01*
X152904761Y-142002380D01*
X153142857Y-142002380D01*
X153238095Y-142050000D01*
X153285714Y-142097619D01*
X153333333Y-142192857D01*
X153333333Y-142288095D01*
X153285714Y-142430952D01*
X152714285Y-143002380D01*
X153333333Y-143002380D01*
X154285714Y-143002380D02*
X153714285Y-143002380D01*
X154000000Y-143002380D02*
X154000000Y-142002380D01*
X153904761Y-142145238D01*
X153809523Y-142240476D01*
X153714285Y-142288095D01*
%TO.C,U20*%
X165761904Y-129252380D02*
X165761904Y-130061904D01*
X165809523Y-130157142D01*
X165857142Y-130204761D01*
X165952380Y-130252380D01*
X166142857Y-130252380D01*
X166238095Y-130204761D01*
X166285714Y-130157142D01*
X166333333Y-130061904D01*
X166333333Y-129252380D01*
X166761904Y-129347619D02*
X166809523Y-129300000D01*
X166904761Y-129252380D01*
X167142857Y-129252380D01*
X167238095Y-129300000D01*
X167285714Y-129347619D01*
X167333333Y-129442857D01*
X167333333Y-129538095D01*
X167285714Y-129680952D01*
X166714285Y-130252380D01*
X167333333Y-130252380D01*
X167952380Y-129252380D02*
X168047619Y-129252380D01*
X168142857Y-129300000D01*
X168190476Y-129347619D01*
X168238095Y-129442857D01*
X168285714Y-129633333D01*
X168285714Y-129871428D01*
X168238095Y-130061904D01*
X168190476Y-130157142D01*
X168142857Y-130204761D01*
X168047619Y-130252380D01*
X167952380Y-130252380D01*
X167857142Y-130204761D01*
X167809523Y-130157142D01*
X167761904Y-130061904D01*
X167714285Y-129871428D01*
X167714285Y-129633333D01*
X167761904Y-129442857D01*
X167809523Y-129347619D01*
X167857142Y-129300000D01*
X167952380Y-129252380D01*
%TO.C,U19*%
X165761904Y-138422380D02*
X165761904Y-139231904D01*
X165809523Y-139327142D01*
X165857142Y-139374761D01*
X165952380Y-139422380D01*
X166142857Y-139422380D01*
X166238095Y-139374761D01*
X166285714Y-139327142D01*
X166333333Y-139231904D01*
X166333333Y-138422380D01*
X167333333Y-139422380D02*
X166761904Y-139422380D01*
X167047619Y-139422380D02*
X167047619Y-138422380D01*
X166952380Y-138565238D01*
X166857142Y-138660476D01*
X166761904Y-138708095D01*
X167809523Y-139422380D02*
X168000000Y-139422380D01*
X168095238Y-139374761D01*
X168142857Y-139327142D01*
X168238095Y-139184285D01*
X168285714Y-138993809D01*
X168285714Y-138612857D01*
X168238095Y-138517619D01*
X168190476Y-138470000D01*
X168095238Y-138422380D01*
X167904761Y-138422380D01*
X167809523Y-138470000D01*
X167761904Y-138517619D01*
X167714285Y-138612857D01*
X167714285Y-138850952D01*
X167761904Y-138946190D01*
X167809523Y-138993809D01*
X167904761Y-139041428D01*
X168095238Y-139041428D01*
X168190476Y-138993809D01*
X168238095Y-138946190D01*
X168285714Y-138850952D01*
%TO.C,U18*%
X166011904Y-117752380D02*
X166011904Y-118561904D01*
X166059523Y-118657142D01*
X166107142Y-118704761D01*
X166202380Y-118752380D01*
X166392857Y-118752380D01*
X166488095Y-118704761D01*
X166535714Y-118657142D01*
X166583333Y-118561904D01*
X166583333Y-117752380D01*
X167583333Y-118752380D02*
X167011904Y-118752380D01*
X167297619Y-118752380D02*
X167297619Y-117752380D01*
X167202380Y-117895238D01*
X167107142Y-117990476D01*
X167011904Y-118038095D01*
X168154761Y-118180952D02*
X168059523Y-118133333D01*
X168011904Y-118085714D01*
X167964285Y-117990476D01*
X167964285Y-117942857D01*
X168011904Y-117847619D01*
X168059523Y-117800000D01*
X168154761Y-117752380D01*
X168345238Y-117752380D01*
X168440476Y-117800000D01*
X168488095Y-117847619D01*
X168535714Y-117942857D01*
X168535714Y-117990476D01*
X168488095Y-118085714D01*
X168440476Y-118133333D01*
X168345238Y-118180952D01*
X168154761Y-118180952D01*
X168059523Y-118228571D01*
X168011904Y-118276190D01*
X167964285Y-118371428D01*
X167964285Y-118561904D01*
X168011904Y-118657142D01*
X168059523Y-118704761D01*
X168154761Y-118752380D01*
X168345238Y-118752380D01*
X168440476Y-118704761D01*
X168488095Y-118657142D01*
X168535714Y-118561904D01*
X168535714Y-118371428D01*
X168488095Y-118276190D01*
X168440476Y-118228571D01*
X168345238Y-118180952D01*
%TO.C,U17*%
X179761904Y-132502380D02*
X179761904Y-133311904D01*
X179809523Y-133407142D01*
X179857142Y-133454761D01*
X179952380Y-133502380D01*
X180142857Y-133502380D01*
X180238095Y-133454761D01*
X180285714Y-133407142D01*
X180333333Y-133311904D01*
X180333333Y-132502380D01*
X181333333Y-133502380D02*
X180761904Y-133502380D01*
X181047619Y-133502380D02*
X181047619Y-132502380D01*
X180952380Y-132645238D01*
X180857142Y-132740476D01*
X180761904Y-132788095D01*
X181666666Y-132502380D02*
X182333333Y-132502380D01*
X181904761Y-133502380D01*
%TO.C,U16*%
X120511904Y-96952380D02*
X120511904Y-97761904D01*
X120559523Y-97857142D01*
X120607142Y-97904761D01*
X120702380Y-97952380D01*
X120892857Y-97952380D01*
X120988095Y-97904761D01*
X121035714Y-97857142D01*
X121083333Y-97761904D01*
X121083333Y-96952380D01*
X122083333Y-97952380D02*
X121511904Y-97952380D01*
X121797619Y-97952380D02*
X121797619Y-96952380D01*
X121702380Y-97095238D01*
X121607142Y-97190476D01*
X121511904Y-97238095D01*
X122940476Y-96952380D02*
X122750000Y-96952380D01*
X122654761Y-97000000D01*
X122607142Y-97047619D01*
X122511904Y-97190476D01*
X122464285Y-97380952D01*
X122464285Y-97761904D01*
X122511904Y-97857142D01*
X122559523Y-97904761D01*
X122654761Y-97952380D01*
X122845238Y-97952380D01*
X122940476Y-97904761D01*
X122988095Y-97857142D01*
X123035714Y-97761904D01*
X123035714Y-97523809D01*
X122988095Y-97428571D01*
X122940476Y-97380952D01*
X122845238Y-97333333D01*
X122654761Y-97333333D01*
X122559523Y-97380952D01*
X122511904Y-97428571D01*
X122464285Y-97523809D01*
%TO.C,U15*%
X133261904Y-130452380D02*
X133261904Y-131261904D01*
X133309523Y-131357142D01*
X133357142Y-131404761D01*
X133452380Y-131452380D01*
X133642857Y-131452380D01*
X133738095Y-131404761D01*
X133785714Y-131357142D01*
X133833333Y-131261904D01*
X133833333Y-130452380D01*
X134833333Y-131452380D02*
X134261904Y-131452380D01*
X134547619Y-131452380D02*
X134547619Y-130452380D01*
X134452380Y-130595238D01*
X134357142Y-130690476D01*
X134261904Y-130738095D01*
X135738095Y-130452380D02*
X135261904Y-130452380D01*
X135214285Y-130928571D01*
X135261904Y-130880952D01*
X135357142Y-130833333D01*
X135595238Y-130833333D01*
X135690476Y-130880952D01*
X135738095Y-130928571D01*
X135785714Y-131023809D01*
X135785714Y-131261904D01*
X135738095Y-131357142D01*
X135690476Y-131404761D01*
X135595238Y-131452380D01*
X135357142Y-131452380D01*
X135261904Y-131404761D01*
X135214285Y-131357142D01*
%TO.C,U14*%
X119261904Y-126702380D02*
X119261904Y-127511904D01*
X119309523Y-127607142D01*
X119357142Y-127654761D01*
X119452380Y-127702380D01*
X119642857Y-127702380D01*
X119738095Y-127654761D01*
X119785714Y-127607142D01*
X119833333Y-127511904D01*
X119833333Y-126702380D01*
X120833333Y-127702380D02*
X120261904Y-127702380D01*
X120547619Y-127702380D02*
X120547619Y-126702380D01*
X120452380Y-126845238D01*
X120357142Y-126940476D01*
X120261904Y-126988095D01*
X121690476Y-127035714D02*
X121690476Y-127702380D01*
X121452380Y-126654761D02*
X121214285Y-127369047D01*
X121833333Y-127369047D01*
%TO.C,U13*%
X134011904Y-141202380D02*
X134011904Y-142011904D01*
X134059523Y-142107142D01*
X134107142Y-142154761D01*
X134202380Y-142202380D01*
X134392857Y-142202380D01*
X134488095Y-142154761D01*
X134535714Y-142107142D01*
X134583333Y-142011904D01*
X134583333Y-141202380D01*
X135583333Y-142202380D02*
X135011904Y-142202380D01*
X135297619Y-142202380D02*
X135297619Y-141202380D01*
X135202380Y-141345238D01*
X135107142Y-141440476D01*
X135011904Y-141488095D01*
X135916666Y-141202380D02*
X136535714Y-141202380D01*
X136202380Y-141583333D01*
X136345238Y-141583333D01*
X136440476Y-141630952D01*
X136488095Y-141678571D01*
X136535714Y-141773809D01*
X136535714Y-142011904D01*
X136488095Y-142107142D01*
X136440476Y-142154761D01*
X136345238Y-142202380D01*
X136059523Y-142202380D01*
X135964285Y-142154761D01*
X135916666Y-142107142D01*
%TO.C,U12*%
X150261904Y-94002380D02*
X150261904Y-94811904D01*
X150309523Y-94907142D01*
X150357142Y-94954761D01*
X150452380Y-95002380D01*
X150642857Y-95002380D01*
X150738095Y-94954761D01*
X150785714Y-94907142D01*
X150833333Y-94811904D01*
X150833333Y-94002380D01*
X151833333Y-95002380D02*
X151261904Y-95002380D01*
X151547619Y-95002380D02*
X151547619Y-94002380D01*
X151452380Y-94145238D01*
X151357142Y-94240476D01*
X151261904Y-94288095D01*
X152214285Y-94097619D02*
X152261904Y-94050000D01*
X152357142Y-94002380D01*
X152595238Y-94002380D01*
X152690476Y-94050000D01*
X152738095Y-94097619D01*
X152785714Y-94192857D01*
X152785714Y-94288095D01*
X152738095Y-94430952D01*
X152166666Y-95002380D01*
X152785714Y-95002380D01*
%TO.C,U11*%
X164511904Y-104452380D02*
X164511904Y-105261904D01*
X164559523Y-105357142D01*
X164607142Y-105404761D01*
X164702380Y-105452380D01*
X164892857Y-105452380D01*
X164988095Y-105404761D01*
X165035714Y-105357142D01*
X165083333Y-105261904D01*
X165083333Y-104452380D01*
X166083333Y-105452380D02*
X165511904Y-105452380D01*
X165797619Y-105452380D02*
X165797619Y-104452380D01*
X165702380Y-104595238D01*
X165607142Y-104690476D01*
X165511904Y-104738095D01*
X167035714Y-105452380D02*
X166464285Y-105452380D01*
X166750000Y-105452380D02*
X166750000Y-104452380D01*
X166654761Y-104595238D01*
X166559523Y-104690476D01*
X166464285Y-104738095D01*
%TO.C,U10*%
X106261904Y-107002380D02*
X106261904Y-107811904D01*
X106309523Y-107907142D01*
X106357142Y-107954761D01*
X106452380Y-108002380D01*
X106642857Y-108002380D01*
X106738095Y-107954761D01*
X106785714Y-107907142D01*
X106833333Y-107811904D01*
X106833333Y-107002380D01*
X107833333Y-108002380D02*
X107261904Y-108002380D01*
X107547619Y-108002380D02*
X107547619Y-107002380D01*
X107452380Y-107145238D01*
X107357142Y-107240476D01*
X107261904Y-107288095D01*
X108452380Y-107002380D02*
X108547619Y-107002380D01*
X108642857Y-107050000D01*
X108690476Y-107097619D01*
X108738095Y-107192857D01*
X108785714Y-107383333D01*
X108785714Y-107621428D01*
X108738095Y-107811904D01*
X108690476Y-107907142D01*
X108642857Y-107954761D01*
X108547619Y-108002380D01*
X108452380Y-108002380D01*
X108357142Y-107954761D01*
X108309523Y-107907142D01*
X108261904Y-107811904D01*
X108214285Y-107621428D01*
X108214285Y-107383333D01*
X108261904Y-107192857D01*
X108309523Y-107097619D01*
X108357142Y-107050000D01*
X108452380Y-107002380D01*
%TO.C,U9*%
X150488095Y-130002380D02*
X150488095Y-130811904D01*
X150535714Y-130907142D01*
X150583333Y-130954761D01*
X150678571Y-131002380D01*
X150869047Y-131002380D01*
X150964285Y-130954761D01*
X151011904Y-130907142D01*
X151059523Y-130811904D01*
X151059523Y-130002380D01*
X151583333Y-131002380D02*
X151773809Y-131002380D01*
X151869047Y-130954761D01*
X151916666Y-130907142D01*
X152011904Y-130764285D01*
X152059523Y-130573809D01*
X152059523Y-130192857D01*
X152011904Y-130097619D01*
X151964285Y-130050000D01*
X151869047Y-130002380D01*
X151678571Y-130002380D01*
X151583333Y-130050000D01*
X151535714Y-130097619D01*
X151488095Y-130192857D01*
X151488095Y-130430952D01*
X151535714Y-130526190D01*
X151583333Y-130573809D01*
X151678571Y-130621428D01*
X151869047Y-130621428D01*
X151964285Y-130573809D01*
X152011904Y-130526190D01*
X152059523Y-130430952D01*
%TO.C,U8*%
X150488095Y-119252380D02*
X150488095Y-120061904D01*
X150535714Y-120157142D01*
X150583333Y-120204761D01*
X150678571Y-120252380D01*
X150869047Y-120252380D01*
X150964285Y-120204761D01*
X151011904Y-120157142D01*
X151059523Y-120061904D01*
X151059523Y-119252380D01*
X151678571Y-119680952D02*
X151583333Y-119633333D01*
X151535714Y-119585714D01*
X151488095Y-119490476D01*
X151488095Y-119442857D01*
X151535714Y-119347619D01*
X151583333Y-119300000D01*
X151678571Y-119252380D01*
X151869047Y-119252380D01*
X151964285Y-119300000D01*
X152011904Y-119347619D01*
X152059523Y-119442857D01*
X152059523Y-119490476D01*
X152011904Y-119585714D01*
X151964285Y-119633333D01*
X151869047Y-119680952D01*
X151678571Y-119680952D01*
X151583333Y-119728571D01*
X151535714Y-119776190D01*
X151488095Y-119871428D01*
X151488095Y-120061904D01*
X151535714Y-120157142D01*
X151583333Y-120204761D01*
X151678571Y-120252380D01*
X151869047Y-120252380D01*
X151964285Y-120204761D01*
X152011904Y-120157142D01*
X152059523Y-120061904D01*
X152059523Y-119871428D01*
X152011904Y-119776190D01*
X151964285Y-119728571D01*
X151869047Y-119680952D01*
%TO.C,U7*%
X115238095Y-140752380D02*
X115238095Y-141561904D01*
X115285714Y-141657142D01*
X115333333Y-141704761D01*
X115428571Y-141752380D01*
X115619047Y-141752380D01*
X115714285Y-141704761D01*
X115761904Y-141657142D01*
X115809523Y-141561904D01*
X115809523Y-140752380D01*
X116190476Y-140752380D02*
X116857142Y-140752380D01*
X116428571Y-141752380D01*
%TO.C,U6*%
X162488095Y-66002380D02*
X162488095Y-66811904D01*
X162535714Y-66907142D01*
X162583333Y-66954761D01*
X162678571Y-67002380D01*
X162869047Y-67002380D01*
X162964285Y-66954761D01*
X163011904Y-66907142D01*
X163059523Y-66811904D01*
X163059523Y-66002380D01*
X163964285Y-66002380D02*
X163773809Y-66002380D01*
X163678571Y-66050000D01*
X163630952Y-66097619D01*
X163535714Y-66240476D01*
X163488095Y-66430952D01*
X163488095Y-66811904D01*
X163535714Y-66907142D01*
X163583333Y-66954761D01*
X163678571Y-67002380D01*
X163869047Y-67002380D01*
X163964285Y-66954761D01*
X164011904Y-66907142D01*
X164059523Y-66811904D01*
X164059523Y-66573809D01*
X164011904Y-66478571D01*
X163964285Y-66430952D01*
X163869047Y-66383333D01*
X163678571Y-66383333D01*
X163583333Y-66430952D01*
X163535714Y-66478571D01*
X163488095Y-66573809D01*
%TO.C,U5*%
X148238095Y-73252380D02*
X148238095Y-74061904D01*
X148285714Y-74157142D01*
X148333333Y-74204761D01*
X148428571Y-74252380D01*
X148619047Y-74252380D01*
X148714285Y-74204761D01*
X148761904Y-74157142D01*
X148809523Y-74061904D01*
X148809523Y-73252380D01*
X149761904Y-73252380D02*
X149285714Y-73252380D01*
X149238095Y-73728571D01*
X149285714Y-73680952D01*
X149380952Y-73633333D01*
X149619047Y-73633333D01*
X149714285Y-73680952D01*
X149761904Y-73728571D01*
X149809523Y-73823809D01*
X149809523Y-74061904D01*
X149761904Y-74157142D01*
X149714285Y-74204761D01*
X149619047Y-74252380D01*
X149380952Y-74252380D01*
X149285714Y-74204761D01*
X149238095Y-74157142D01*
%TO.C,U4*%
X162488095Y-52502380D02*
X162488095Y-53311904D01*
X162535714Y-53407142D01*
X162583333Y-53454761D01*
X162678571Y-53502380D01*
X162869047Y-53502380D01*
X162964285Y-53454761D01*
X163011904Y-53407142D01*
X163059523Y-53311904D01*
X163059523Y-52502380D01*
X163964285Y-52835714D02*
X163964285Y-53502380D01*
X163726190Y-52454761D02*
X163488095Y-53169047D01*
X164107142Y-53169047D01*
%TO.C,U3*%
X134988095Y-70002380D02*
X134988095Y-70811904D01*
X135035714Y-70907142D01*
X135083333Y-70954761D01*
X135178571Y-71002380D01*
X135369047Y-71002380D01*
X135464285Y-70954761D01*
X135511904Y-70907142D01*
X135559523Y-70811904D01*
X135559523Y-70002380D01*
X135940476Y-70002380D02*
X136559523Y-70002380D01*
X136226190Y-70383333D01*
X136369047Y-70383333D01*
X136464285Y-70430952D01*
X136511904Y-70478571D01*
X136559523Y-70573809D01*
X136559523Y-70811904D01*
X136511904Y-70907142D01*
X136464285Y-70954761D01*
X136369047Y-71002380D01*
X136083333Y-71002380D01*
X135988095Y-70954761D01*
X135940476Y-70907142D01*
%TO.C,U2*%
X149738095Y-83252380D02*
X149738095Y-84061904D01*
X149785714Y-84157142D01*
X149833333Y-84204761D01*
X149928571Y-84252380D01*
X150119047Y-84252380D01*
X150214285Y-84204761D01*
X150261904Y-84157142D01*
X150309523Y-84061904D01*
X150309523Y-83252380D01*
X150738095Y-83347619D02*
X150785714Y-83300000D01*
X150880952Y-83252380D01*
X151119047Y-83252380D01*
X151214285Y-83300000D01*
X151261904Y-83347619D01*
X151309523Y-83442857D01*
X151309523Y-83538095D01*
X151261904Y-83680952D01*
X150690476Y-84252380D01*
X151309523Y-84252380D01*
%TO.C,U1*%
X166488095Y-79002380D02*
X166488095Y-79811904D01*
X166535714Y-79907142D01*
X166583333Y-79954761D01*
X166678571Y-80002380D01*
X166869047Y-80002380D01*
X166964285Y-79954761D01*
X167011904Y-79907142D01*
X167059523Y-79811904D01*
X167059523Y-79002380D01*
X168059523Y-80002380D02*
X167488095Y-80002380D01*
X167773809Y-80002380D02*
X167773809Y-79002380D01*
X167678571Y-79145238D01*
X167583333Y-79240476D01*
X167488095Y-79288095D01*
%TO.C,R21*%
X178607142Y-56052380D02*
X178273809Y-55576190D01*
X178035714Y-56052380D02*
X178035714Y-55052380D01*
X178416666Y-55052380D01*
X178511904Y-55100000D01*
X178559523Y-55147619D01*
X178607142Y-55242857D01*
X178607142Y-55385714D01*
X178559523Y-55480952D01*
X178511904Y-55528571D01*
X178416666Y-55576190D01*
X178035714Y-55576190D01*
X178988095Y-55147619D02*
X179035714Y-55100000D01*
X179130952Y-55052380D01*
X179369047Y-55052380D01*
X179464285Y-55100000D01*
X179511904Y-55147619D01*
X179559523Y-55242857D01*
X179559523Y-55338095D01*
X179511904Y-55480952D01*
X178940476Y-56052380D01*
X179559523Y-56052380D01*
X180511904Y-56052380D02*
X179940476Y-56052380D01*
X180226190Y-56052380D02*
X180226190Y-55052380D01*
X180130952Y-55195238D01*
X180035714Y-55290476D01*
X179940476Y-55338095D01*
%TO.C,R20*%
X138857142Y-92802380D02*
X138523809Y-92326190D01*
X138285714Y-92802380D02*
X138285714Y-91802380D01*
X138666666Y-91802380D01*
X138761904Y-91850000D01*
X138809523Y-91897619D01*
X138857142Y-91992857D01*
X138857142Y-92135714D01*
X138809523Y-92230952D01*
X138761904Y-92278571D01*
X138666666Y-92326190D01*
X138285714Y-92326190D01*
X139238095Y-91897619D02*
X139285714Y-91850000D01*
X139380952Y-91802380D01*
X139619047Y-91802380D01*
X139714285Y-91850000D01*
X139761904Y-91897619D01*
X139809523Y-91992857D01*
X139809523Y-92088095D01*
X139761904Y-92230952D01*
X139190476Y-92802380D01*
X139809523Y-92802380D01*
X140428571Y-91802380D02*
X140523809Y-91802380D01*
X140619047Y-91850000D01*
X140666666Y-91897619D01*
X140714285Y-91992857D01*
X140761904Y-92183333D01*
X140761904Y-92421428D01*
X140714285Y-92611904D01*
X140666666Y-92707142D01*
X140619047Y-92754761D01*
X140523809Y-92802380D01*
X140428571Y-92802380D01*
X140333333Y-92754761D01*
X140285714Y-92707142D01*
X140238095Y-92611904D01*
X140190476Y-92421428D01*
X140190476Y-92183333D01*
X140238095Y-91992857D01*
X140285714Y-91897619D01*
X140333333Y-91850000D01*
X140428571Y-91802380D01*
%TO.C,R19*%
X145794642Y-54602380D02*
X145461309Y-54126190D01*
X145223214Y-54602380D02*
X145223214Y-53602380D01*
X145604166Y-53602380D01*
X145699404Y-53650000D01*
X145747023Y-53697619D01*
X145794642Y-53792857D01*
X145794642Y-53935714D01*
X145747023Y-54030952D01*
X145699404Y-54078571D01*
X145604166Y-54126190D01*
X145223214Y-54126190D01*
X146747023Y-54602380D02*
X146175595Y-54602380D01*
X146461309Y-54602380D02*
X146461309Y-53602380D01*
X146366071Y-53745238D01*
X146270833Y-53840476D01*
X146175595Y-53888095D01*
X147223214Y-54602380D02*
X147413690Y-54602380D01*
X147508928Y-54554761D01*
X147556547Y-54507142D01*
X147651785Y-54364285D01*
X147699404Y-54173809D01*
X147699404Y-53792857D01*
X147651785Y-53697619D01*
X147604166Y-53650000D01*
X147508928Y-53602380D01*
X147318452Y-53602380D01*
X147223214Y-53650000D01*
X147175595Y-53697619D01*
X147127976Y-53792857D01*
X147127976Y-54030952D01*
X147175595Y-54126190D01*
X147223214Y-54173809D01*
X147318452Y-54221428D01*
X147508928Y-54221428D01*
X147604166Y-54173809D01*
X147651785Y-54126190D01*
X147699404Y-54030952D01*
%TO.C,R18*%
X126357142Y-60202380D02*
X126023809Y-59726190D01*
X125785714Y-60202380D02*
X125785714Y-59202380D01*
X126166666Y-59202380D01*
X126261904Y-59250000D01*
X126309523Y-59297619D01*
X126357142Y-59392857D01*
X126357142Y-59535714D01*
X126309523Y-59630952D01*
X126261904Y-59678571D01*
X126166666Y-59726190D01*
X125785714Y-59726190D01*
X127309523Y-60202380D02*
X126738095Y-60202380D01*
X127023809Y-60202380D02*
X127023809Y-59202380D01*
X126928571Y-59345238D01*
X126833333Y-59440476D01*
X126738095Y-59488095D01*
X127880952Y-59630952D02*
X127785714Y-59583333D01*
X127738095Y-59535714D01*
X127690476Y-59440476D01*
X127690476Y-59392857D01*
X127738095Y-59297619D01*
X127785714Y-59250000D01*
X127880952Y-59202380D01*
X128071428Y-59202380D01*
X128166666Y-59250000D01*
X128214285Y-59297619D01*
X128261904Y-59392857D01*
X128261904Y-59440476D01*
X128214285Y-59535714D01*
X128166666Y-59583333D01*
X128071428Y-59630952D01*
X127880952Y-59630952D01*
X127785714Y-59678571D01*
X127738095Y-59726190D01*
X127690476Y-59821428D01*
X127690476Y-60011904D01*
X127738095Y-60107142D01*
X127785714Y-60154761D01*
X127880952Y-60202380D01*
X128071428Y-60202380D01*
X128166666Y-60154761D01*
X128214285Y-60107142D01*
X128261904Y-60011904D01*
X128261904Y-59821428D01*
X128214285Y-59726190D01*
X128166666Y-59678571D01*
X128071428Y-59630952D01*
%TO.C,R17*%
X117357142Y-89702380D02*
X117023809Y-89226190D01*
X116785714Y-89702380D02*
X116785714Y-88702380D01*
X117166666Y-88702380D01*
X117261904Y-88750000D01*
X117309523Y-88797619D01*
X117357142Y-88892857D01*
X117357142Y-89035714D01*
X117309523Y-89130952D01*
X117261904Y-89178571D01*
X117166666Y-89226190D01*
X116785714Y-89226190D01*
X118309523Y-89702380D02*
X117738095Y-89702380D01*
X118023809Y-89702380D02*
X118023809Y-88702380D01*
X117928571Y-88845238D01*
X117833333Y-88940476D01*
X117738095Y-88988095D01*
X118642857Y-88702380D02*
X119309523Y-88702380D01*
X118880952Y-89702380D01*
%TO.C,R16*%
X117107142Y-72452380D02*
X116773809Y-71976190D01*
X116535714Y-72452380D02*
X116535714Y-71452380D01*
X116916666Y-71452380D01*
X117011904Y-71500000D01*
X117059523Y-71547619D01*
X117107142Y-71642857D01*
X117107142Y-71785714D01*
X117059523Y-71880952D01*
X117011904Y-71928571D01*
X116916666Y-71976190D01*
X116535714Y-71976190D01*
X118059523Y-72452380D02*
X117488095Y-72452380D01*
X117773809Y-72452380D02*
X117773809Y-71452380D01*
X117678571Y-71595238D01*
X117583333Y-71690476D01*
X117488095Y-71738095D01*
X118916666Y-71452380D02*
X118726190Y-71452380D01*
X118630952Y-71500000D01*
X118583333Y-71547619D01*
X118488095Y-71690476D01*
X118440476Y-71880952D01*
X118440476Y-72261904D01*
X118488095Y-72357142D01*
X118535714Y-72404761D01*
X118630952Y-72452380D01*
X118821428Y-72452380D01*
X118916666Y-72404761D01*
X118964285Y-72357142D01*
X119011904Y-72261904D01*
X119011904Y-72023809D01*
X118964285Y-71928571D01*
X118916666Y-71880952D01*
X118821428Y-71833333D01*
X118630952Y-71833333D01*
X118535714Y-71880952D01*
X118488095Y-71928571D01*
X118440476Y-72023809D01*
%TO.C,R15*%
X112357142Y-67952380D02*
X112023809Y-67476190D01*
X111785714Y-67952380D02*
X111785714Y-66952380D01*
X112166666Y-66952380D01*
X112261904Y-67000000D01*
X112309523Y-67047619D01*
X112357142Y-67142857D01*
X112357142Y-67285714D01*
X112309523Y-67380952D01*
X112261904Y-67428571D01*
X112166666Y-67476190D01*
X111785714Y-67476190D01*
X113309523Y-67952380D02*
X112738095Y-67952380D01*
X113023809Y-67952380D02*
X113023809Y-66952380D01*
X112928571Y-67095238D01*
X112833333Y-67190476D01*
X112738095Y-67238095D01*
X114214285Y-66952380D02*
X113738095Y-66952380D01*
X113690476Y-67428571D01*
X113738095Y-67380952D01*
X113833333Y-67333333D01*
X114071428Y-67333333D01*
X114166666Y-67380952D01*
X114214285Y-67428571D01*
X114261904Y-67523809D01*
X114261904Y-67761904D01*
X114214285Y-67857142D01*
X114166666Y-67904761D01*
X114071428Y-67952380D01*
X113833333Y-67952380D01*
X113738095Y-67904761D01*
X113690476Y-67857142D01*
%TO.C,R14*%
X112107142Y-65952380D02*
X111773809Y-65476190D01*
X111535714Y-65952380D02*
X111535714Y-64952380D01*
X111916666Y-64952380D01*
X112011904Y-65000000D01*
X112059523Y-65047619D01*
X112107142Y-65142857D01*
X112107142Y-65285714D01*
X112059523Y-65380952D01*
X112011904Y-65428571D01*
X111916666Y-65476190D01*
X111535714Y-65476190D01*
X113059523Y-65952380D02*
X112488095Y-65952380D01*
X112773809Y-65952380D02*
X112773809Y-64952380D01*
X112678571Y-65095238D01*
X112583333Y-65190476D01*
X112488095Y-65238095D01*
X113916666Y-65285714D02*
X113916666Y-65952380D01*
X113678571Y-64904761D02*
X113440476Y-65619047D01*
X114059523Y-65619047D01*
%TO.C,R13*%
X120607142Y-64302380D02*
X120273809Y-63826190D01*
X120035714Y-64302380D02*
X120035714Y-63302380D01*
X120416666Y-63302380D01*
X120511904Y-63350000D01*
X120559523Y-63397619D01*
X120607142Y-63492857D01*
X120607142Y-63635714D01*
X120559523Y-63730952D01*
X120511904Y-63778571D01*
X120416666Y-63826190D01*
X120035714Y-63826190D01*
X121559523Y-64302380D02*
X120988095Y-64302380D01*
X121273809Y-64302380D02*
X121273809Y-63302380D01*
X121178571Y-63445238D01*
X121083333Y-63540476D01*
X120988095Y-63588095D01*
X121892857Y-63302380D02*
X122511904Y-63302380D01*
X122178571Y-63683333D01*
X122321428Y-63683333D01*
X122416666Y-63730952D01*
X122464285Y-63778571D01*
X122511904Y-63873809D01*
X122511904Y-64111904D01*
X122464285Y-64207142D01*
X122416666Y-64254761D01*
X122321428Y-64302380D01*
X122035714Y-64302380D01*
X121940476Y-64254761D01*
X121892857Y-64207142D01*
%TO.C,R12*%
X120607142Y-84052380D02*
X120273809Y-83576190D01*
X120035714Y-84052380D02*
X120035714Y-83052380D01*
X120416666Y-83052380D01*
X120511904Y-83100000D01*
X120559523Y-83147619D01*
X120607142Y-83242857D01*
X120607142Y-83385714D01*
X120559523Y-83480952D01*
X120511904Y-83528571D01*
X120416666Y-83576190D01*
X120035714Y-83576190D01*
X121559523Y-84052380D02*
X120988095Y-84052380D01*
X121273809Y-84052380D02*
X121273809Y-83052380D01*
X121178571Y-83195238D01*
X121083333Y-83290476D01*
X120988095Y-83338095D01*
X121940476Y-83147619D02*
X121988095Y-83100000D01*
X122083333Y-83052380D01*
X122321428Y-83052380D01*
X122416666Y-83100000D01*
X122464285Y-83147619D01*
X122511904Y-83242857D01*
X122511904Y-83338095D01*
X122464285Y-83480952D01*
X121892857Y-84052380D01*
X122511904Y-84052380D01*
%TO.C,R11*%
X123607142Y-81702380D02*
X123273809Y-81226190D01*
X123035714Y-81702380D02*
X123035714Y-80702380D01*
X123416666Y-80702380D01*
X123511904Y-80750000D01*
X123559523Y-80797619D01*
X123607142Y-80892857D01*
X123607142Y-81035714D01*
X123559523Y-81130952D01*
X123511904Y-81178571D01*
X123416666Y-81226190D01*
X123035714Y-81226190D01*
X124559523Y-81702380D02*
X123988095Y-81702380D01*
X124273809Y-81702380D02*
X124273809Y-80702380D01*
X124178571Y-80845238D01*
X124083333Y-80940476D01*
X123988095Y-80988095D01*
X125511904Y-81702380D02*
X124940476Y-81702380D01*
X125226190Y-81702380D02*
X125226190Y-80702380D01*
X125130952Y-80845238D01*
X125035714Y-80940476D01*
X124940476Y-80988095D01*
%TO.C,R10*%
X117107142Y-78702380D02*
X116773809Y-78226190D01*
X116535714Y-78702380D02*
X116535714Y-77702380D01*
X116916666Y-77702380D01*
X117011904Y-77750000D01*
X117059523Y-77797619D01*
X117107142Y-77892857D01*
X117107142Y-78035714D01*
X117059523Y-78130952D01*
X117011904Y-78178571D01*
X116916666Y-78226190D01*
X116535714Y-78226190D01*
X118059523Y-78702380D02*
X117488095Y-78702380D01*
X117773809Y-78702380D02*
X117773809Y-77702380D01*
X117678571Y-77845238D01*
X117583333Y-77940476D01*
X117488095Y-77988095D01*
X118678571Y-77702380D02*
X118773809Y-77702380D01*
X118869047Y-77750000D01*
X118916666Y-77797619D01*
X118964285Y-77892857D01*
X119011904Y-78083333D01*
X119011904Y-78321428D01*
X118964285Y-78511904D01*
X118916666Y-78607142D01*
X118869047Y-78654761D01*
X118773809Y-78702380D01*
X118678571Y-78702380D01*
X118583333Y-78654761D01*
X118535714Y-78607142D01*
X118488095Y-78511904D01*
X118440476Y-78321428D01*
X118440476Y-78083333D01*
X118488095Y-77892857D01*
X118535714Y-77797619D01*
X118583333Y-77750000D01*
X118678571Y-77702380D01*
%TO.C,R9*%
X112702380Y-82166666D02*
X112226190Y-82500000D01*
X112702380Y-82738095D02*
X111702380Y-82738095D01*
X111702380Y-82357142D01*
X111750000Y-82261904D01*
X111797619Y-82214285D01*
X111892857Y-82166666D01*
X112035714Y-82166666D01*
X112130952Y-82214285D01*
X112178571Y-82261904D01*
X112226190Y-82357142D01*
X112226190Y-82738095D01*
X112702380Y-81690476D02*
X112702380Y-81500000D01*
X112654761Y-81404761D01*
X112607142Y-81357142D01*
X112464285Y-81261904D01*
X112273809Y-81214285D01*
X111892857Y-81214285D01*
X111797619Y-81261904D01*
X111750000Y-81309523D01*
X111702380Y-81404761D01*
X111702380Y-81595238D01*
X111750000Y-81690476D01*
X111797619Y-81738095D01*
X111892857Y-81785714D01*
X112130952Y-81785714D01*
X112226190Y-81738095D01*
X112273809Y-81690476D01*
X112321428Y-81595238D01*
X112321428Y-81404761D01*
X112273809Y-81309523D01*
X112226190Y-81261904D01*
X112130952Y-81214285D01*
%TO.C,R8*%
X118083333Y-69952380D02*
X117750000Y-69476190D01*
X117511904Y-69952380D02*
X117511904Y-68952380D01*
X117892857Y-68952380D01*
X117988095Y-69000000D01*
X118035714Y-69047619D01*
X118083333Y-69142857D01*
X118083333Y-69285714D01*
X118035714Y-69380952D01*
X117988095Y-69428571D01*
X117892857Y-69476190D01*
X117511904Y-69476190D01*
X118654761Y-69380952D02*
X118559523Y-69333333D01*
X118511904Y-69285714D01*
X118464285Y-69190476D01*
X118464285Y-69142857D01*
X118511904Y-69047619D01*
X118559523Y-69000000D01*
X118654761Y-68952380D01*
X118845238Y-68952380D01*
X118940476Y-69000000D01*
X118988095Y-69047619D01*
X119035714Y-69142857D01*
X119035714Y-69190476D01*
X118988095Y-69285714D01*
X118940476Y-69333333D01*
X118845238Y-69380952D01*
X118654761Y-69380952D01*
X118559523Y-69428571D01*
X118511904Y-69476190D01*
X118464285Y-69571428D01*
X118464285Y-69761904D01*
X118511904Y-69857142D01*
X118559523Y-69904761D01*
X118654761Y-69952380D01*
X118845238Y-69952380D01*
X118940476Y-69904761D01*
X118988095Y-69857142D01*
X119035714Y-69761904D01*
X119035714Y-69571428D01*
X118988095Y-69476190D01*
X118940476Y-69428571D01*
X118845238Y-69380952D01*
%TO.C,R7*%
X125083333Y-77052380D02*
X124750000Y-76576190D01*
X124511904Y-77052380D02*
X124511904Y-76052380D01*
X124892857Y-76052380D01*
X124988095Y-76100000D01*
X125035714Y-76147619D01*
X125083333Y-76242857D01*
X125083333Y-76385714D01*
X125035714Y-76480952D01*
X124988095Y-76528571D01*
X124892857Y-76576190D01*
X124511904Y-76576190D01*
X125416666Y-76052380D02*
X126083333Y-76052380D01*
X125654761Y-77052380D01*
%TO.C,R6*%
X125083333Y-68802380D02*
X124750000Y-68326190D01*
X124511904Y-68802380D02*
X124511904Y-67802380D01*
X124892857Y-67802380D01*
X124988095Y-67850000D01*
X125035714Y-67897619D01*
X125083333Y-67992857D01*
X125083333Y-68135714D01*
X125035714Y-68230952D01*
X124988095Y-68278571D01*
X124892857Y-68326190D01*
X124511904Y-68326190D01*
X125940476Y-67802380D02*
X125750000Y-67802380D01*
X125654761Y-67850000D01*
X125607142Y-67897619D01*
X125511904Y-68040476D01*
X125464285Y-68230952D01*
X125464285Y-68611904D01*
X125511904Y-68707142D01*
X125559523Y-68754761D01*
X125654761Y-68802380D01*
X125845238Y-68802380D01*
X125940476Y-68754761D01*
X125988095Y-68707142D01*
X126035714Y-68611904D01*
X126035714Y-68373809D01*
X125988095Y-68278571D01*
X125940476Y-68230952D01*
X125845238Y-68183333D01*
X125654761Y-68183333D01*
X125559523Y-68230952D01*
X125511904Y-68278571D01*
X125464285Y-68373809D01*
%TO.C,R5*%
X128302380Y-83416666D02*
X127826190Y-83750000D01*
X128302380Y-83988095D02*
X127302380Y-83988095D01*
X127302380Y-83607142D01*
X127350000Y-83511904D01*
X127397619Y-83464285D01*
X127492857Y-83416666D01*
X127635714Y-83416666D01*
X127730952Y-83464285D01*
X127778571Y-83511904D01*
X127826190Y-83607142D01*
X127826190Y-83988095D01*
X127302380Y-82511904D02*
X127302380Y-82988095D01*
X127778571Y-83035714D01*
X127730952Y-82988095D01*
X127683333Y-82892857D01*
X127683333Y-82654761D01*
X127730952Y-82559523D01*
X127778571Y-82511904D01*
X127873809Y-82464285D01*
X128111904Y-82464285D01*
X128207142Y-82511904D01*
X128254761Y-82559523D01*
X128302380Y-82654761D01*
X128302380Y-82892857D01*
X128254761Y-82988095D01*
X128207142Y-83035714D01*
%TO.C,R4*%
X123833333Y-144952380D02*
X123500000Y-144476190D01*
X123261904Y-144952380D02*
X123261904Y-143952380D01*
X123642857Y-143952380D01*
X123738095Y-144000000D01*
X123785714Y-144047619D01*
X123833333Y-144142857D01*
X123833333Y-144285714D01*
X123785714Y-144380952D01*
X123738095Y-144428571D01*
X123642857Y-144476190D01*
X123261904Y-144476190D01*
X124690476Y-144285714D02*
X124690476Y-144952380D01*
X124452380Y-143904761D02*
X124214285Y-144619047D01*
X124833333Y-144619047D01*
%TO.C,R3*%
X116583333Y-149702380D02*
X116250000Y-149226190D01*
X116011904Y-149702380D02*
X116011904Y-148702380D01*
X116392857Y-148702380D01*
X116488095Y-148750000D01*
X116535714Y-148797619D01*
X116583333Y-148892857D01*
X116583333Y-149035714D01*
X116535714Y-149130952D01*
X116488095Y-149178571D01*
X116392857Y-149226190D01*
X116011904Y-149226190D01*
X116916666Y-148702380D02*
X117535714Y-148702380D01*
X117202380Y-149083333D01*
X117345238Y-149083333D01*
X117440476Y-149130952D01*
X117488095Y-149178571D01*
X117535714Y-149273809D01*
X117535714Y-149511904D01*
X117488095Y-149607142D01*
X117440476Y-149654761D01*
X117345238Y-149702380D01*
X117059523Y-149702380D01*
X116964285Y-149654761D01*
X116916666Y-149607142D01*
%TO.C,R2*%
X105052380Y-138916666D02*
X104576190Y-139250000D01*
X105052380Y-139488095D02*
X104052380Y-139488095D01*
X104052380Y-139107142D01*
X104100000Y-139011904D01*
X104147619Y-138964285D01*
X104242857Y-138916666D01*
X104385714Y-138916666D01*
X104480952Y-138964285D01*
X104528571Y-139011904D01*
X104576190Y-139107142D01*
X104576190Y-139488095D01*
X104147619Y-138535714D02*
X104100000Y-138488095D01*
X104052380Y-138392857D01*
X104052380Y-138154761D01*
X104100000Y-138059523D01*
X104147619Y-138011904D01*
X104242857Y-137964285D01*
X104338095Y-137964285D01*
X104480952Y-138011904D01*
X105052380Y-138583333D01*
X105052380Y-137964285D01*
%TO.C,R1*%
X115833333Y-140452380D02*
X115500000Y-139976190D01*
X115261904Y-140452380D02*
X115261904Y-139452380D01*
X115642857Y-139452380D01*
X115738095Y-139500000D01*
X115785714Y-139547619D01*
X115833333Y-139642857D01*
X115833333Y-139785714D01*
X115785714Y-139880952D01*
X115738095Y-139928571D01*
X115642857Y-139976190D01*
X115261904Y-139976190D01*
X116785714Y-140452380D02*
X116214285Y-140452380D01*
X116500000Y-140452380D02*
X116500000Y-139452380D01*
X116404761Y-139595238D01*
X116309523Y-139690476D01*
X116214285Y-139738095D01*
%TO.C,Q5*%
X109154761Y-140547619D02*
X109059523Y-140500000D01*
X108964285Y-140404761D01*
X108821428Y-140261904D01*
X108726190Y-140214285D01*
X108630952Y-140214285D01*
X108678571Y-140452380D02*
X108583333Y-140404761D01*
X108488095Y-140309523D01*
X108440476Y-140119047D01*
X108440476Y-139785714D01*
X108488095Y-139595238D01*
X108583333Y-139500000D01*
X108678571Y-139452380D01*
X108869047Y-139452380D01*
X108964285Y-139500000D01*
X109059523Y-139595238D01*
X109107142Y-139785714D01*
X109107142Y-140119047D01*
X109059523Y-140309523D01*
X108964285Y-140404761D01*
X108869047Y-140452380D01*
X108678571Y-140452380D01*
X110011904Y-139452380D02*
X109535714Y-139452380D01*
X109488095Y-139928571D01*
X109535714Y-139880952D01*
X109630952Y-139833333D01*
X109869047Y-139833333D01*
X109964285Y-139880952D01*
X110011904Y-139928571D01*
X110059523Y-140023809D01*
X110059523Y-140261904D01*
X110011904Y-140357142D01*
X109964285Y-140404761D01*
X109869047Y-140452380D01*
X109630952Y-140452380D01*
X109535714Y-140404761D01*
X109488095Y-140357142D01*
%TO.C,Q4*%
X112904761Y-140547619D02*
X112809523Y-140500000D01*
X112714285Y-140404761D01*
X112571428Y-140261904D01*
X112476190Y-140214285D01*
X112380952Y-140214285D01*
X112428571Y-140452380D02*
X112333333Y-140404761D01*
X112238095Y-140309523D01*
X112190476Y-140119047D01*
X112190476Y-139785714D01*
X112238095Y-139595238D01*
X112333333Y-139500000D01*
X112428571Y-139452380D01*
X112619047Y-139452380D01*
X112714285Y-139500000D01*
X112809523Y-139595238D01*
X112857142Y-139785714D01*
X112857142Y-140119047D01*
X112809523Y-140309523D01*
X112714285Y-140404761D01*
X112619047Y-140452380D01*
X112428571Y-140452380D01*
X113714285Y-139785714D02*
X113714285Y-140452380D01*
X113476190Y-139404761D02*
X113238095Y-140119047D01*
X113857142Y-140119047D01*
%TO.C,Q3*%
X129904761Y-115297619D02*
X129809523Y-115250000D01*
X129714285Y-115154761D01*
X129571428Y-115011904D01*
X129476190Y-114964285D01*
X129380952Y-114964285D01*
X129428571Y-115202380D02*
X129333333Y-115154761D01*
X129238095Y-115059523D01*
X129190476Y-114869047D01*
X129190476Y-114535714D01*
X129238095Y-114345238D01*
X129333333Y-114250000D01*
X129428571Y-114202380D01*
X129619047Y-114202380D01*
X129714285Y-114250000D01*
X129809523Y-114345238D01*
X129857142Y-114535714D01*
X129857142Y-114869047D01*
X129809523Y-115059523D01*
X129714285Y-115154761D01*
X129619047Y-115202380D01*
X129428571Y-115202380D01*
X130190476Y-114202380D02*
X130809523Y-114202380D01*
X130476190Y-114583333D01*
X130619047Y-114583333D01*
X130714285Y-114630952D01*
X130761904Y-114678571D01*
X130809523Y-114773809D01*
X130809523Y-115011904D01*
X130761904Y-115107142D01*
X130714285Y-115154761D01*
X130619047Y-115202380D01*
X130333333Y-115202380D01*
X130238095Y-115154761D01*
X130190476Y-115107142D01*
%TO.C,Q2*%
X130404761Y-90047619D02*
X130309523Y-90000000D01*
X130214285Y-89904761D01*
X130071428Y-89761904D01*
X129976190Y-89714285D01*
X129880952Y-89714285D01*
X129928571Y-89952380D02*
X129833333Y-89904761D01*
X129738095Y-89809523D01*
X129690476Y-89619047D01*
X129690476Y-89285714D01*
X129738095Y-89095238D01*
X129833333Y-89000000D01*
X129928571Y-88952380D01*
X130119047Y-88952380D01*
X130214285Y-89000000D01*
X130309523Y-89095238D01*
X130357142Y-89285714D01*
X130357142Y-89619047D01*
X130309523Y-89809523D01*
X130214285Y-89904761D01*
X130119047Y-89952380D01*
X129928571Y-89952380D01*
X130738095Y-89047619D02*
X130785714Y-89000000D01*
X130880952Y-88952380D01*
X131119047Y-88952380D01*
X131214285Y-89000000D01*
X131261904Y-89047619D01*
X131309523Y-89142857D01*
X131309523Y-89238095D01*
X131261904Y-89380952D01*
X130690476Y-89952380D01*
X131309523Y-89952380D01*
%TO.C,Q1*%
X116654761Y-85047619D02*
X116559523Y-85000000D01*
X116464285Y-84904761D01*
X116321428Y-84761904D01*
X116226190Y-84714285D01*
X116130952Y-84714285D01*
X116178571Y-84952380D02*
X116083333Y-84904761D01*
X115988095Y-84809523D01*
X115940476Y-84619047D01*
X115940476Y-84285714D01*
X115988095Y-84095238D01*
X116083333Y-84000000D01*
X116178571Y-83952380D01*
X116369047Y-83952380D01*
X116464285Y-84000000D01*
X116559523Y-84095238D01*
X116607142Y-84285714D01*
X116607142Y-84619047D01*
X116559523Y-84809523D01*
X116464285Y-84904761D01*
X116369047Y-84952380D01*
X116178571Y-84952380D01*
X117559523Y-84952380D02*
X116988095Y-84952380D01*
X117273809Y-84952380D02*
X117273809Y-83952380D01*
X117178571Y-84095238D01*
X117083333Y-84190476D01*
X116988095Y-84238095D01*
%TO.C,J3*%
X100952380Y-128433333D02*
X101666666Y-128433333D01*
X101809523Y-128480952D01*
X101904761Y-128576190D01*
X101952380Y-128719047D01*
X101952380Y-128814285D01*
X100952380Y-128052380D02*
X100952380Y-127433333D01*
X101333333Y-127766666D01*
X101333333Y-127623809D01*
X101380952Y-127528571D01*
X101428571Y-127480952D01*
X101523809Y-127433333D01*
X101761904Y-127433333D01*
X101857142Y-127480952D01*
X101904761Y-127528571D01*
X101952380Y-127623809D01*
X101952380Y-127909523D01*
X101904761Y-128004761D01*
X101857142Y-128052380D01*
%TO.C,D4*%
X181261904Y-59702380D02*
X181261904Y-58702380D01*
X181500000Y-58702380D01*
X181642857Y-58750000D01*
X181738095Y-58845238D01*
X181785714Y-58940476D01*
X181833333Y-59130952D01*
X181833333Y-59273809D01*
X181785714Y-59464285D01*
X181738095Y-59559523D01*
X181642857Y-59654761D01*
X181500000Y-59702380D01*
X181261904Y-59702380D01*
X182690476Y-59035714D02*
X182690476Y-59702380D01*
X182452380Y-58654761D02*
X182214285Y-59369047D01*
X182833333Y-59369047D01*
%TO.C,D3*%
X142511904Y-92802380D02*
X142511904Y-91802380D01*
X142750000Y-91802380D01*
X142892857Y-91850000D01*
X142988095Y-91945238D01*
X143035714Y-92040476D01*
X143083333Y-92230952D01*
X143083333Y-92373809D01*
X143035714Y-92564285D01*
X142988095Y-92659523D01*
X142892857Y-92754761D01*
X142750000Y-92802380D01*
X142511904Y-92802380D01*
X143416666Y-91802380D02*
X144035714Y-91802380D01*
X143702380Y-92183333D01*
X143845238Y-92183333D01*
X143940476Y-92230952D01*
X143988095Y-92278571D01*
X144035714Y-92373809D01*
X144035714Y-92611904D01*
X143988095Y-92707142D01*
X143940476Y-92754761D01*
X143845238Y-92802380D01*
X143559523Y-92802380D01*
X143464285Y-92754761D01*
X143416666Y-92707142D01*
%TO.C,D2*%
X142011904Y-54602380D02*
X142011904Y-53602380D01*
X142250000Y-53602380D01*
X142392857Y-53650000D01*
X142488095Y-53745238D01*
X142535714Y-53840476D01*
X142583333Y-54030952D01*
X142583333Y-54173809D01*
X142535714Y-54364285D01*
X142488095Y-54459523D01*
X142392857Y-54554761D01*
X142250000Y-54602380D01*
X142011904Y-54602380D01*
X142964285Y-53697619D02*
X143011904Y-53650000D01*
X143107142Y-53602380D01*
X143345238Y-53602380D01*
X143440476Y-53650000D01*
X143488095Y-53697619D01*
X143535714Y-53792857D01*
X143535714Y-53888095D01*
X143488095Y-54030952D01*
X142916666Y-54602380D01*
X143535714Y-54602380D01*
%TO.C,D1*%
X123761904Y-60202380D02*
X123761904Y-59202380D01*
X124000000Y-59202380D01*
X124142857Y-59250000D01*
X124238095Y-59345238D01*
X124285714Y-59440476D01*
X124333333Y-59630952D01*
X124333333Y-59773809D01*
X124285714Y-59964285D01*
X124238095Y-60059523D01*
X124142857Y-60154761D01*
X124000000Y-60202380D01*
X123761904Y-60202380D01*
X125285714Y-60202380D02*
X124714285Y-60202380D01*
X125000000Y-60202380D02*
X125000000Y-59202380D01*
X124904761Y-59345238D01*
X124809523Y-59440476D01*
X124714285Y-59488095D01*
%TO.C,C46*%
X110107142Y-55857142D02*
X110059523Y-55904761D01*
X109916666Y-55952380D01*
X109821428Y-55952380D01*
X109678571Y-55904761D01*
X109583333Y-55809523D01*
X109535714Y-55714285D01*
X109488095Y-55523809D01*
X109488095Y-55380952D01*
X109535714Y-55190476D01*
X109583333Y-55095238D01*
X109678571Y-55000000D01*
X109821428Y-54952380D01*
X109916666Y-54952380D01*
X110059523Y-55000000D01*
X110107142Y-55047619D01*
X110964285Y-55285714D02*
X110964285Y-55952380D01*
X110726190Y-54904761D02*
X110488095Y-55619047D01*
X111107142Y-55619047D01*
X111916666Y-54952380D02*
X111726190Y-54952380D01*
X111630952Y-55000000D01*
X111583333Y-55047619D01*
X111488095Y-55190476D01*
X111440476Y-55380952D01*
X111440476Y-55761904D01*
X111488095Y-55857142D01*
X111535714Y-55904761D01*
X111630952Y-55952380D01*
X111821428Y-55952380D01*
X111916666Y-55904761D01*
X111964285Y-55857142D01*
X112011904Y-55761904D01*
X112011904Y-55523809D01*
X111964285Y-55428571D01*
X111916666Y-55380952D01*
X111821428Y-55333333D01*
X111630952Y-55333333D01*
X111535714Y-55380952D01*
X111488095Y-55428571D01*
X111440476Y-55523809D01*
%TO.C,C45*%
X103357142Y-92507142D02*
X103309523Y-92554761D01*
X103166666Y-92602380D01*
X103071428Y-92602380D01*
X102928571Y-92554761D01*
X102833333Y-92459523D01*
X102785714Y-92364285D01*
X102738095Y-92173809D01*
X102738095Y-92030952D01*
X102785714Y-91840476D01*
X102833333Y-91745238D01*
X102928571Y-91650000D01*
X103071428Y-91602380D01*
X103166666Y-91602380D01*
X103309523Y-91650000D01*
X103357142Y-91697619D01*
X104214285Y-91935714D02*
X104214285Y-92602380D01*
X103976190Y-91554761D02*
X103738095Y-92269047D01*
X104357142Y-92269047D01*
X105214285Y-91602380D02*
X104738095Y-91602380D01*
X104690476Y-92078571D01*
X104738095Y-92030952D01*
X104833333Y-91983333D01*
X105071428Y-91983333D01*
X105166666Y-92030952D01*
X105214285Y-92078571D01*
X105261904Y-92173809D01*
X105261904Y-92411904D01*
X105214285Y-92507142D01*
X105166666Y-92554761D01*
X105071428Y-92602380D01*
X104833333Y-92602380D01*
X104738095Y-92554761D01*
X104690476Y-92507142D01*
%TO.C,C44*%
X178607142Y-61457142D02*
X178559523Y-61504761D01*
X178416666Y-61552380D01*
X178321428Y-61552380D01*
X178178571Y-61504761D01*
X178083333Y-61409523D01*
X178035714Y-61314285D01*
X177988095Y-61123809D01*
X177988095Y-60980952D01*
X178035714Y-60790476D01*
X178083333Y-60695238D01*
X178178571Y-60600000D01*
X178321428Y-60552380D01*
X178416666Y-60552380D01*
X178559523Y-60600000D01*
X178607142Y-60647619D01*
X179464285Y-60885714D02*
X179464285Y-61552380D01*
X179226190Y-60504761D02*
X178988095Y-61219047D01*
X179607142Y-61219047D01*
X180416666Y-60885714D02*
X180416666Y-61552380D01*
X180178571Y-60504761D02*
X179940476Y-61219047D01*
X180559523Y-61219047D01*
%TO.C,C43*%
X102107142Y-83757142D02*
X102059523Y-83804761D01*
X101916666Y-83852380D01*
X101821428Y-83852380D01*
X101678571Y-83804761D01*
X101583333Y-83709523D01*
X101535714Y-83614285D01*
X101488095Y-83423809D01*
X101488095Y-83280952D01*
X101535714Y-83090476D01*
X101583333Y-82995238D01*
X101678571Y-82900000D01*
X101821428Y-82852380D01*
X101916666Y-82852380D01*
X102059523Y-82900000D01*
X102107142Y-82947619D01*
X102964285Y-83185714D02*
X102964285Y-83852380D01*
X102726190Y-82804761D02*
X102488095Y-83519047D01*
X103107142Y-83519047D01*
X103392857Y-82852380D02*
X104011904Y-82852380D01*
X103678571Y-83233333D01*
X103821428Y-83233333D01*
X103916666Y-83280952D01*
X103964285Y-83328571D01*
X104011904Y-83423809D01*
X104011904Y-83661904D01*
X103964285Y-83757142D01*
X103916666Y-83804761D01*
X103821428Y-83852380D01*
X103535714Y-83852380D01*
X103440476Y-83804761D01*
X103392857Y-83757142D01*
%TO.C,C42*%
X105607142Y-73107142D02*
X105559523Y-73154761D01*
X105416666Y-73202380D01*
X105321428Y-73202380D01*
X105178571Y-73154761D01*
X105083333Y-73059523D01*
X105035714Y-72964285D01*
X104988095Y-72773809D01*
X104988095Y-72630952D01*
X105035714Y-72440476D01*
X105083333Y-72345238D01*
X105178571Y-72250000D01*
X105321428Y-72202380D01*
X105416666Y-72202380D01*
X105559523Y-72250000D01*
X105607142Y-72297619D01*
X106464285Y-72535714D02*
X106464285Y-73202380D01*
X106226190Y-72154761D02*
X105988095Y-72869047D01*
X106607142Y-72869047D01*
X106940476Y-72297619D02*
X106988095Y-72250000D01*
X107083333Y-72202380D01*
X107321428Y-72202380D01*
X107416666Y-72250000D01*
X107464285Y-72297619D01*
X107511904Y-72392857D01*
X107511904Y-72488095D01*
X107464285Y-72630952D01*
X106892857Y-73202380D01*
X107511904Y-73202380D01*
%TO.C,C41*%
X185857142Y-74507142D02*
X185809523Y-74554761D01*
X185666666Y-74602380D01*
X185571428Y-74602380D01*
X185428571Y-74554761D01*
X185333333Y-74459523D01*
X185285714Y-74364285D01*
X185238095Y-74173809D01*
X185238095Y-74030952D01*
X185285714Y-73840476D01*
X185333333Y-73745238D01*
X185428571Y-73650000D01*
X185571428Y-73602380D01*
X185666666Y-73602380D01*
X185809523Y-73650000D01*
X185857142Y-73697619D01*
X186714285Y-73935714D02*
X186714285Y-74602380D01*
X186476190Y-73554761D02*
X186238095Y-74269047D01*
X186857142Y-74269047D01*
X187761904Y-74602380D02*
X187190476Y-74602380D01*
X187476190Y-74602380D02*
X187476190Y-73602380D01*
X187380952Y-73745238D01*
X187285714Y-73840476D01*
X187190476Y-73888095D01*
%TO.C,C40*%
X113107142Y-59857142D02*
X113059523Y-59904761D01*
X112916666Y-59952380D01*
X112821428Y-59952380D01*
X112678571Y-59904761D01*
X112583333Y-59809523D01*
X112535714Y-59714285D01*
X112488095Y-59523809D01*
X112488095Y-59380952D01*
X112535714Y-59190476D01*
X112583333Y-59095238D01*
X112678571Y-59000000D01*
X112821428Y-58952380D01*
X112916666Y-58952380D01*
X113059523Y-59000000D01*
X113107142Y-59047619D01*
X113964285Y-59285714D02*
X113964285Y-59952380D01*
X113726190Y-58904761D02*
X113488095Y-59619047D01*
X114107142Y-59619047D01*
X114678571Y-58952380D02*
X114773809Y-58952380D01*
X114869047Y-59000000D01*
X114916666Y-59047619D01*
X114964285Y-59142857D01*
X115011904Y-59333333D01*
X115011904Y-59571428D01*
X114964285Y-59761904D01*
X114916666Y-59857142D01*
X114869047Y-59904761D01*
X114773809Y-59952380D01*
X114678571Y-59952380D01*
X114583333Y-59904761D01*
X114535714Y-59857142D01*
X114488095Y-59761904D01*
X114440476Y-59571428D01*
X114440476Y-59333333D01*
X114488095Y-59142857D01*
X114535714Y-59047619D01*
X114583333Y-59000000D01*
X114678571Y-58952380D01*
%TO.C,C39*%
X118857142Y-51607142D02*
X118809523Y-51654761D01*
X118666666Y-51702380D01*
X118571428Y-51702380D01*
X118428571Y-51654761D01*
X118333333Y-51559523D01*
X118285714Y-51464285D01*
X118238095Y-51273809D01*
X118238095Y-51130952D01*
X118285714Y-50940476D01*
X118333333Y-50845238D01*
X118428571Y-50750000D01*
X118571428Y-50702380D01*
X118666666Y-50702380D01*
X118809523Y-50750000D01*
X118857142Y-50797619D01*
X119190476Y-50702380D02*
X119809523Y-50702380D01*
X119476190Y-51083333D01*
X119619047Y-51083333D01*
X119714285Y-51130952D01*
X119761904Y-51178571D01*
X119809523Y-51273809D01*
X119809523Y-51511904D01*
X119761904Y-51607142D01*
X119714285Y-51654761D01*
X119619047Y-51702380D01*
X119333333Y-51702380D01*
X119238095Y-51654761D01*
X119190476Y-51607142D01*
X120285714Y-51702380D02*
X120476190Y-51702380D01*
X120571428Y-51654761D01*
X120619047Y-51607142D01*
X120714285Y-51464285D01*
X120761904Y-51273809D01*
X120761904Y-50892857D01*
X120714285Y-50797619D01*
X120666666Y-50750000D01*
X120571428Y-50702380D01*
X120380952Y-50702380D01*
X120285714Y-50750000D01*
X120238095Y-50797619D01*
X120190476Y-50892857D01*
X120190476Y-51130952D01*
X120238095Y-51226190D01*
X120285714Y-51273809D01*
X120380952Y-51321428D01*
X120571428Y-51321428D01*
X120666666Y-51273809D01*
X120714285Y-51226190D01*
X120761904Y-51130952D01*
%TO.C,C38*%
X124107142Y-75642857D02*
X124154761Y-75690476D01*
X124202380Y-75833333D01*
X124202380Y-75928571D01*
X124154761Y-76071428D01*
X124059523Y-76166666D01*
X123964285Y-76214285D01*
X123773809Y-76261904D01*
X123630952Y-76261904D01*
X123440476Y-76214285D01*
X123345238Y-76166666D01*
X123250000Y-76071428D01*
X123202380Y-75928571D01*
X123202380Y-75833333D01*
X123250000Y-75690476D01*
X123297619Y-75642857D01*
X123202380Y-75309523D02*
X123202380Y-74690476D01*
X123583333Y-75023809D01*
X123583333Y-74880952D01*
X123630952Y-74785714D01*
X123678571Y-74738095D01*
X123773809Y-74690476D01*
X124011904Y-74690476D01*
X124107142Y-74738095D01*
X124154761Y-74785714D01*
X124202380Y-74880952D01*
X124202380Y-75166666D01*
X124154761Y-75261904D01*
X124107142Y-75309523D01*
X123630952Y-74119047D02*
X123583333Y-74214285D01*
X123535714Y-74261904D01*
X123440476Y-74309523D01*
X123392857Y-74309523D01*
X123297619Y-74261904D01*
X123250000Y-74214285D01*
X123202380Y-74119047D01*
X123202380Y-73928571D01*
X123250000Y-73833333D01*
X123297619Y-73785714D01*
X123392857Y-73738095D01*
X123440476Y-73738095D01*
X123535714Y-73785714D01*
X123583333Y-73833333D01*
X123630952Y-73928571D01*
X123630952Y-74119047D01*
X123678571Y-74214285D01*
X123726190Y-74261904D01*
X123821428Y-74309523D01*
X124011904Y-74309523D01*
X124107142Y-74261904D01*
X124154761Y-74214285D01*
X124202380Y-74119047D01*
X124202380Y-73928571D01*
X124154761Y-73833333D01*
X124107142Y-73785714D01*
X124011904Y-73738095D01*
X123821428Y-73738095D01*
X123726190Y-73785714D01*
X123678571Y-73833333D01*
X123630952Y-73928571D01*
%TO.C,C37*%
X118607142Y-75642857D02*
X118654761Y-75690476D01*
X118702380Y-75833333D01*
X118702380Y-75928571D01*
X118654761Y-76071428D01*
X118559523Y-76166666D01*
X118464285Y-76214285D01*
X118273809Y-76261904D01*
X118130952Y-76261904D01*
X117940476Y-76214285D01*
X117845238Y-76166666D01*
X117750000Y-76071428D01*
X117702380Y-75928571D01*
X117702380Y-75833333D01*
X117750000Y-75690476D01*
X117797619Y-75642857D01*
X117702380Y-75309523D02*
X117702380Y-74690476D01*
X118083333Y-75023809D01*
X118083333Y-74880952D01*
X118130952Y-74785714D01*
X118178571Y-74738095D01*
X118273809Y-74690476D01*
X118511904Y-74690476D01*
X118607142Y-74738095D01*
X118654761Y-74785714D01*
X118702380Y-74880952D01*
X118702380Y-75166666D01*
X118654761Y-75261904D01*
X118607142Y-75309523D01*
X117702380Y-74357142D02*
X117702380Y-73690476D01*
X118702380Y-74119047D01*
%TO.C,C36*%
X151857142Y-57707142D02*
X151809523Y-57754761D01*
X151666666Y-57802380D01*
X151571428Y-57802380D01*
X151428571Y-57754761D01*
X151333333Y-57659523D01*
X151285714Y-57564285D01*
X151238095Y-57373809D01*
X151238095Y-57230952D01*
X151285714Y-57040476D01*
X151333333Y-56945238D01*
X151428571Y-56850000D01*
X151571428Y-56802380D01*
X151666666Y-56802380D01*
X151809523Y-56850000D01*
X151857142Y-56897619D01*
X152190476Y-56802380D02*
X152809523Y-56802380D01*
X152476190Y-57183333D01*
X152619047Y-57183333D01*
X152714285Y-57230952D01*
X152761904Y-57278571D01*
X152809523Y-57373809D01*
X152809523Y-57611904D01*
X152761904Y-57707142D01*
X152714285Y-57754761D01*
X152619047Y-57802380D01*
X152333333Y-57802380D01*
X152238095Y-57754761D01*
X152190476Y-57707142D01*
X153666666Y-56802380D02*
X153476190Y-56802380D01*
X153380952Y-56850000D01*
X153333333Y-56897619D01*
X153238095Y-57040476D01*
X153190476Y-57230952D01*
X153190476Y-57611904D01*
X153238095Y-57707142D01*
X153285714Y-57754761D01*
X153380952Y-57802380D01*
X153571428Y-57802380D01*
X153666666Y-57754761D01*
X153714285Y-57707142D01*
X153761904Y-57611904D01*
X153761904Y-57373809D01*
X153714285Y-57278571D01*
X153666666Y-57230952D01*
X153571428Y-57183333D01*
X153380952Y-57183333D01*
X153285714Y-57230952D01*
X153238095Y-57278571D01*
X153190476Y-57373809D01*
%TO.C,C35*%
X138607142Y-58107142D02*
X138559523Y-58154761D01*
X138416666Y-58202380D01*
X138321428Y-58202380D01*
X138178571Y-58154761D01*
X138083333Y-58059523D01*
X138035714Y-57964285D01*
X137988095Y-57773809D01*
X137988095Y-57630952D01*
X138035714Y-57440476D01*
X138083333Y-57345238D01*
X138178571Y-57250000D01*
X138321428Y-57202380D01*
X138416666Y-57202380D01*
X138559523Y-57250000D01*
X138607142Y-57297619D01*
X138940476Y-57202380D02*
X139559523Y-57202380D01*
X139226190Y-57583333D01*
X139369047Y-57583333D01*
X139464285Y-57630952D01*
X139511904Y-57678571D01*
X139559523Y-57773809D01*
X139559523Y-58011904D01*
X139511904Y-58107142D01*
X139464285Y-58154761D01*
X139369047Y-58202380D01*
X139083333Y-58202380D01*
X138988095Y-58154761D01*
X138940476Y-58107142D01*
X140464285Y-57202380D02*
X139988095Y-57202380D01*
X139940476Y-57678571D01*
X139988095Y-57630952D01*
X140083333Y-57583333D01*
X140321428Y-57583333D01*
X140416666Y-57630952D01*
X140464285Y-57678571D01*
X140511904Y-57773809D01*
X140511904Y-58011904D01*
X140464285Y-58107142D01*
X140416666Y-58154761D01*
X140321428Y-58202380D01*
X140083333Y-58202380D01*
X139988095Y-58154761D01*
X139940476Y-58107142D01*
%TO.C,C34*%
X138107142Y-80857142D02*
X138059523Y-80904761D01*
X137916666Y-80952380D01*
X137821428Y-80952380D01*
X137678571Y-80904761D01*
X137583333Y-80809523D01*
X137535714Y-80714285D01*
X137488095Y-80523809D01*
X137488095Y-80380952D01*
X137535714Y-80190476D01*
X137583333Y-80095238D01*
X137678571Y-80000000D01*
X137821428Y-79952380D01*
X137916666Y-79952380D01*
X138059523Y-80000000D01*
X138107142Y-80047619D01*
X138440476Y-79952380D02*
X139059523Y-79952380D01*
X138726190Y-80333333D01*
X138869047Y-80333333D01*
X138964285Y-80380952D01*
X139011904Y-80428571D01*
X139059523Y-80523809D01*
X139059523Y-80761904D01*
X139011904Y-80857142D01*
X138964285Y-80904761D01*
X138869047Y-80952380D01*
X138583333Y-80952380D01*
X138488095Y-80904761D01*
X138440476Y-80857142D01*
X139916666Y-80285714D02*
X139916666Y-80952380D01*
X139678571Y-79904761D02*
X139440476Y-80619047D01*
X140059523Y-80619047D01*
%TO.C,C33*%
X131457142Y-81892857D02*
X131504761Y-81940476D01*
X131552380Y-82083333D01*
X131552380Y-82178571D01*
X131504761Y-82321428D01*
X131409523Y-82416666D01*
X131314285Y-82464285D01*
X131123809Y-82511904D01*
X130980952Y-82511904D01*
X130790476Y-82464285D01*
X130695238Y-82416666D01*
X130600000Y-82321428D01*
X130552380Y-82178571D01*
X130552380Y-82083333D01*
X130600000Y-81940476D01*
X130647619Y-81892857D01*
X130552380Y-81559523D02*
X130552380Y-80940476D01*
X130933333Y-81273809D01*
X130933333Y-81130952D01*
X130980952Y-81035714D01*
X131028571Y-80988095D01*
X131123809Y-80940476D01*
X131361904Y-80940476D01*
X131457142Y-80988095D01*
X131504761Y-81035714D01*
X131552380Y-81130952D01*
X131552380Y-81416666D01*
X131504761Y-81511904D01*
X131457142Y-81559523D01*
X130552380Y-80607142D02*
X130552380Y-79988095D01*
X130933333Y-80321428D01*
X130933333Y-80178571D01*
X130980952Y-80083333D01*
X131028571Y-80035714D01*
X131123809Y-79988095D01*
X131361904Y-79988095D01*
X131457142Y-80035714D01*
X131504761Y-80083333D01*
X131552380Y-80178571D01*
X131552380Y-80464285D01*
X131504761Y-80559523D01*
X131457142Y-80607142D01*
%TO.C,C32*%
X166107142Y-64707142D02*
X166059523Y-64754761D01*
X165916666Y-64802380D01*
X165821428Y-64802380D01*
X165678571Y-64754761D01*
X165583333Y-64659523D01*
X165535714Y-64564285D01*
X165488095Y-64373809D01*
X165488095Y-64230952D01*
X165535714Y-64040476D01*
X165583333Y-63945238D01*
X165678571Y-63850000D01*
X165821428Y-63802380D01*
X165916666Y-63802380D01*
X166059523Y-63850000D01*
X166107142Y-63897619D01*
X166440476Y-63802380D02*
X167059523Y-63802380D01*
X166726190Y-64183333D01*
X166869047Y-64183333D01*
X166964285Y-64230952D01*
X167011904Y-64278571D01*
X167059523Y-64373809D01*
X167059523Y-64611904D01*
X167011904Y-64707142D01*
X166964285Y-64754761D01*
X166869047Y-64802380D01*
X166583333Y-64802380D01*
X166488095Y-64754761D01*
X166440476Y-64707142D01*
X167440476Y-63897619D02*
X167488095Y-63850000D01*
X167583333Y-63802380D01*
X167821428Y-63802380D01*
X167916666Y-63850000D01*
X167964285Y-63897619D01*
X168011904Y-63992857D01*
X168011904Y-64088095D01*
X167964285Y-64230952D01*
X167392857Y-64802380D01*
X168011904Y-64802380D01*
%TO.C,C31*%
X151857142Y-71957142D02*
X151809523Y-72004761D01*
X151666666Y-72052380D01*
X151571428Y-72052380D01*
X151428571Y-72004761D01*
X151333333Y-71909523D01*
X151285714Y-71814285D01*
X151238095Y-71623809D01*
X151238095Y-71480952D01*
X151285714Y-71290476D01*
X151333333Y-71195238D01*
X151428571Y-71100000D01*
X151571428Y-71052380D01*
X151666666Y-71052380D01*
X151809523Y-71100000D01*
X151857142Y-71147619D01*
X152190476Y-71052380D02*
X152809523Y-71052380D01*
X152476190Y-71433333D01*
X152619047Y-71433333D01*
X152714285Y-71480952D01*
X152761904Y-71528571D01*
X152809523Y-71623809D01*
X152809523Y-71861904D01*
X152761904Y-71957142D01*
X152714285Y-72004761D01*
X152619047Y-72052380D01*
X152333333Y-72052380D01*
X152238095Y-72004761D01*
X152190476Y-71957142D01*
X153761904Y-72052380D02*
X153190476Y-72052380D01*
X153476190Y-72052380D02*
X153476190Y-71052380D01*
X153380952Y-71195238D01*
X153285714Y-71290476D01*
X153190476Y-71338095D01*
%TO.C,C30*%
X166107142Y-51207142D02*
X166059523Y-51254761D01*
X165916666Y-51302380D01*
X165821428Y-51302380D01*
X165678571Y-51254761D01*
X165583333Y-51159523D01*
X165535714Y-51064285D01*
X165488095Y-50873809D01*
X165488095Y-50730952D01*
X165535714Y-50540476D01*
X165583333Y-50445238D01*
X165678571Y-50350000D01*
X165821428Y-50302380D01*
X165916666Y-50302380D01*
X166059523Y-50350000D01*
X166107142Y-50397619D01*
X166440476Y-50302380D02*
X167059523Y-50302380D01*
X166726190Y-50683333D01*
X166869047Y-50683333D01*
X166964285Y-50730952D01*
X167011904Y-50778571D01*
X167059523Y-50873809D01*
X167059523Y-51111904D01*
X167011904Y-51207142D01*
X166964285Y-51254761D01*
X166869047Y-51302380D01*
X166583333Y-51302380D01*
X166488095Y-51254761D01*
X166440476Y-51207142D01*
X167678571Y-50302380D02*
X167773809Y-50302380D01*
X167869047Y-50350000D01*
X167916666Y-50397619D01*
X167964285Y-50492857D01*
X168011904Y-50683333D01*
X168011904Y-50921428D01*
X167964285Y-51111904D01*
X167916666Y-51207142D01*
X167869047Y-51254761D01*
X167773809Y-51302380D01*
X167678571Y-51302380D01*
X167583333Y-51254761D01*
X167535714Y-51207142D01*
X167488095Y-51111904D01*
X167440476Y-50921428D01*
X167440476Y-50683333D01*
X167488095Y-50492857D01*
X167535714Y-50397619D01*
X167583333Y-50350000D01*
X167678571Y-50302380D01*
%TO.C,C29*%
X138607142Y-68607142D02*
X138559523Y-68654761D01*
X138416666Y-68702380D01*
X138321428Y-68702380D01*
X138178571Y-68654761D01*
X138083333Y-68559523D01*
X138035714Y-68464285D01*
X137988095Y-68273809D01*
X137988095Y-68130952D01*
X138035714Y-67940476D01*
X138083333Y-67845238D01*
X138178571Y-67750000D01*
X138321428Y-67702380D01*
X138416666Y-67702380D01*
X138559523Y-67750000D01*
X138607142Y-67797619D01*
X138988095Y-67797619D02*
X139035714Y-67750000D01*
X139130952Y-67702380D01*
X139369047Y-67702380D01*
X139464285Y-67750000D01*
X139511904Y-67797619D01*
X139559523Y-67892857D01*
X139559523Y-67988095D01*
X139511904Y-68130952D01*
X138940476Y-68702380D01*
X139559523Y-68702380D01*
X140035714Y-68702380D02*
X140226190Y-68702380D01*
X140321428Y-68654761D01*
X140369047Y-68607142D01*
X140464285Y-68464285D01*
X140511904Y-68273809D01*
X140511904Y-67892857D01*
X140464285Y-67797619D01*
X140416666Y-67750000D01*
X140321428Y-67702380D01*
X140130952Y-67702380D01*
X140035714Y-67750000D01*
X139988095Y-67797619D01*
X139940476Y-67892857D01*
X139940476Y-68130952D01*
X139988095Y-68226190D01*
X140035714Y-68273809D01*
X140130952Y-68321428D01*
X140321428Y-68321428D01*
X140416666Y-68273809D01*
X140464285Y-68226190D01*
X140511904Y-68130952D01*
%TO.C,C28*%
X153107142Y-81957142D02*
X153059523Y-82004761D01*
X152916666Y-82052380D01*
X152821428Y-82052380D01*
X152678571Y-82004761D01*
X152583333Y-81909523D01*
X152535714Y-81814285D01*
X152488095Y-81623809D01*
X152488095Y-81480952D01*
X152535714Y-81290476D01*
X152583333Y-81195238D01*
X152678571Y-81100000D01*
X152821428Y-81052380D01*
X152916666Y-81052380D01*
X153059523Y-81100000D01*
X153107142Y-81147619D01*
X153488095Y-81147619D02*
X153535714Y-81100000D01*
X153630952Y-81052380D01*
X153869047Y-81052380D01*
X153964285Y-81100000D01*
X154011904Y-81147619D01*
X154059523Y-81242857D01*
X154059523Y-81338095D01*
X154011904Y-81480952D01*
X153440476Y-82052380D01*
X154059523Y-82052380D01*
X154630952Y-81480952D02*
X154535714Y-81433333D01*
X154488095Y-81385714D01*
X154440476Y-81290476D01*
X154440476Y-81242857D01*
X154488095Y-81147619D01*
X154535714Y-81100000D01*
X154630952Y-81052380D01*
X154821428Y-81052380D01*
X154916666Y-81100000D01*
X154964285Y-81147619D01*
X155011904Y-81242857D01*
X155011904Y-81290476D01*
X154964285Y-81385714D01*
X154916666Y-81433333D01*
X154821428Y-81480952D01*
X154630952Y-81480952D01*
X154535714Y-81528571D01*
X154488095Y-81576190D01*
X154440476Y-81671428D01*
X154440476Y-81861904D01*
X154488095Y-81957142D01*
X154535714Y-82004761D01*
X154630952Y-82052380D01*
X154821428Y-82052380D01*
X154916666Y-82004761D01*
X154964285Y-81957142D01*
X155011904Y-81861904D01*
X155011904Y-81671428D01*
X154964285Y-81576190D01*
X154916666Y-81528571D01*
X154821428Y-81480952D01*
%TO.C,C27*%
X170107142Y-77707142D02*
X170059523Y-77754761D01*
X169916666Y-77802380D01*
X169821428Y-77802380D01*
X169678571Y-77754761D01*
X169583333Y-77659523D01*
X169535714Y-77564285D01*
X169488095Y-77373809D01*
X169488095Y-77230952D01*
X169535714Y-77040476D01*
X169583333Y-76945238D01*
X169678571Y-76850000D01*
X169821428Y-76802380D01*
X169916666Y-76802380D01*
X170059523Y-76850000D01*
X170107142Y-76897619D01*
X170488095Y-76897619D02*
X170535714Y-76850000D01*
X170630952Y-76802380D01*
X170869047Y-76802380D01*
X170964285Y-76850000D01*
X171011904Y-76897619D01*
X171059523Y-76992857D01*
X171059523Y-77088095D01*
X171011904Y-77230952D01*
X170440476Y-77802380D01*
X171059523Y-77802380D01*
X171392857Y-76802380D02*
X172059523Y-76802380D01*
X171630952Y-77802380D01*
%TO.C,C26*%
X170357142Y-90357142D02*
X170309523Y-90404761D01*
X170166666Y-90452380D01*
X170071428Y-90452380D01*
X169928571Y-90404761D01*
X169833333Y-90309523D01*
X169785714Y-90214285D01*
X169738095Y-90023809D01*
X169738095Y-89880952D01*
X169785714Y-89690476D01*
X169833333Y-89595238D01*
X169928571Y-89500000D01*
X170071428Y-89452380D01*
X170166666Y-89452380D01*
X170309523Y-89500000D01*
X170357142Y-89547619D01*
X170738095Y-89547619D02*
X170785714Y-89500000D01*
X170880952Y-89452380D01*
X171119047Y-89452380D01*
X171214285Y-89500000D01*
X171261904Y-89547619D01*
X171309523Y-89642857D01*
X171309523Y-89738095D01*
X171261904Y-89880952D01*
X170690476Y-90452380D01*
X171309523Y-90452380D01*
X172166666Y-89452380D02*
X171976190Y-89452380D01*
X171880952Y-89500000D01*
X171833333Y-89547619D01*
X171738095Y-89690476D01*
X171690476Y-89880952D01*
X171690476Y-90261904D01*
X171738095Y-90357142D01*
X171785714Y-90404761D01*
X171880952Y-90452380D01*
X172071428Y-90452380D01*
X172166666Y-90404761D01*
X172214285Y-90357142D01*
X172261904Y-90261904D01*
X172261904Y-90023809D01*
X172214285Y-89928571D01*
X172166666Y-89880952D01*
X172071428Y-89833333D01*
X171880952Y-89833333D01*
X171785714Y-89880952D01*
X171738095Y-89928571D01*
X171690476Y-90023809D01*
%TO.C,C25*%
X181107142Y-74757142D02*
X181059523Y-74804761D01*
X180916666Y-74852380D01*
X180821428Y-74852380D01*
X180678571Y-74804761D01*
X180583333Y-74709523D01*
X180535714Y-74614285D01*
X180488095Y-74423809D01*
X180488095Y-74280952D01*
X180535714Y-74090476D01*
X180583333Y-73995238D01*
X180678571Y-73900000D01*
X180821428Y-73852380D01*
X180916666Y-73852380D01*
X181059523Y-73900000D01*
X181107142Y-73947619D01*
X181488095Y-73947619D02*
X181535714Y-73900000D01*
X181630952Y-73852380D01*
X181869047Y-73852380D01*
X181964285Y-73900000D01*
X182011904Y-73947619D01*
X182059523Y-74042857D01*
X182059523Y-74138095D01*
X182011904Y-74280952D01*
X181440476Y-74852380D01*
X182059523Y-74852380D01*
X182964285Y-73852380D02*
X182488095Y-73852380D01*
X182440476Y-74328571D01*
X182488095Y-74280952D01*
X182583333Y-74233333D01*
X182821428Y-74233333D01*
X182916666Y-74280952D01*
X182964285Y-74328571D01*
X183011904Y-74423809D01*
X183011904Y-74661904D01*
X182964285Y-74757142D01*
X182916666Y-74804761D01*
X182821428Y-74852380D01*
X182583333Y-74852380D01*
X182488095Y-74804761D01*
X182440476Y-74757142D01*
%TO.C,C24*%
X155857142Y-140707142D02*
X155809523Y-140754761D01*
X155666666Y-140802380D01*
X155571428Y-140802380D01*
X155428571Y-140754761D01*
X155333333Y-140659523D01*
X155285714Y-140564285D01*
X155238095Y-140373809D01*
X155238095Y-140230952D01*
X155285714Y-140040476D01*
X155333333Y-139945238D01*
X155428571Y-139850000D01*
X155571428Y-139802380D01*
X155666666Y-139802380D01*
X155809523Y-139850000D01*
X155857142Y-139897619D01*
X156238095Y-139897619D02*
X156285714Y-139850000D01*
X156380952Y-139802380D01*
X156619047Y-139802380D01*
X156714285Y-139850000D01*
X156761904Y-139897619D01*
X156809523Y-139992857D01*
X156809523Y-140088095D01*
X156761904Y-140230952D01*
X156190476Y-140802380D01*
X156809523Y-140802380D01*
X157666666Y-140135714D02*
X157666666Y-140802380D01*
X157428571Y-139754761D02*
X157190476Y-140469047D01*
X157809523Y-140469047D01*
%TO.C,C23*%
X170357142Y-127957142D02*
X170309523Y-128004761D01*
X170166666Y-128052380D01*
X170071428Y-128052380D01*
X169928571Y-128004761D01*
X169833333Y-127909523D01*
X169785714Y-127814285D01*
X169738095Y-127623809D01*
X169738095Y-127480952D01*
X169785714Y-127290476D01*
X169833333Y-127195238D01*
X169928571Y-127100000D01*
X170071428Y-127052380D01*
X170166666Y-127052380D01*
X170309523Y-127100000D01*
X170357142Y-127147619D01*
X170738095Y-127147619D02*
X170785714Y-127100000D01*
X170880952Y-127052380D01*
X171119047Y-127052380D01*
X171214285Y-127100000D01*
X171261904Y-127147619D01*
X171309523Y-127242857D01*
X171309523Y-127338095D01*
X171261904Y-127480952D01*
X170690476Y-128052380D01*
X171309523Y-128052380D01*
X171642857Y-127052380D02*
X172261904Y-127052380D01*
X171928571Y-127433333D01*
X172071428Y-127433333D01*
X172166666Y-127480952D01*
X172214285Y-127528571D01*
X172261904Y-127623809D01*
X172261904Y-127861904D01*
X172214285Y-127957142D01*
X172166666Y-128004761D01*
X172071428Y-128052380D01*
X171785714Y-128052380D01*
X171690476Y-128004761D01*
X171642857Y-127957142D01*
%TO.C,C22*%
X124107142Y-105857142D02*
X124059523Y-105904761D01*
X123916666Y-105952380D01*
X123821428Y-105952380D01*
X123678571Y-105904761D01*
X123583333Y-105809523D01*
X123535714Y-105714285D01*
X123488095Y-105523809D01*
X123488095Y-105380952D01*
X123535714Y-105190476D01*
X123583333Y-105095238D01*
X123678571Y-105000000D01*
X123821428Y-104952380D01*
X123916666Y-104952380D01*
X124059523Y-105000000D01*
X124107142Y-105047619D01*
X124488095Y-105047619D02*
X124535714Y-105000000D01*
X124630952Y-104952380D01*
X124869047Y-104952380D01*
X124964285Y-105000000D01*
X125011904Y-105047619D01*
X125059523Y-105142857D01*
X125059523Y-105238095D01*
X125011904Y-105380952D01*
X124440476Y-105952380D01*
X125059523Y-105952380D01*
X125440476Y-105047619D02*
X125488095Y-105000000D01*
X125583333Y-104952380D01*
X125821428Y-104952380D01*
X125916666Y-105000000D01*
X125964285Y-105047619D01*
X126011904Y-105142857D01*
X126011904Y-105238095D01*
X125964285Y-105380952D01*
X125392857Y-105952380D01*
X126011904Y-105952380D01*
%TO.C,C21*%
X123607142Y-115357142D02*
X123559523Y-115404761D01*
X123416666Y-115452380D01*
X123321428Y-115452380D01*
X123178571Y-115404761D01*
X123083333Y-115309523D01*
X123035714Y-115214285D01*
X122988095Y-115023809D01*
X122988095Y-114880952D01*
X123035714Y-114690476D01*
X123083333Y-114595238D01*
X123178571Y-114500000D01*
X123321428Y-114452380D01*
X123416666Y-114452380D01*
X123559523Y-114500000D01*
X123607142Y-114547619D01*
X123988095Y-114547619D02*
X124035714Y-114500000D01*
X124130952Y-114452380D01*
X124369047Y-114452380D01*
X124464285Y-114500000D01*
X124511904Y-114547619D01*
X124559523Y-114642857D01*
X124559523Y-114738095D01*
X124511904Y-114880952D01*
X123940476Y-115452380D01*
X124559523Y-115452380D01*
X125511904Y-115452380D02*
X124940476Y-115452380D01*
X125226190Y-115452380D02*
X125226190Y-114452380D01*
X125130952Y-114595238D01*
X125035714Y-114690476D01*
X124940476Y-114738095D01*
%TO.C,C20*%
X170107142Y-137207142D02*
X170059523Y-137254761D01*
X169916666Y-137302380D01*
X169821428Y-137302380D01*
X169678571Y-137254761D01*
X169583333Y-137159523D01*
X169535714Y-137064285D01*
X169488095Y-136873809D01*
X169488095Y-136730952D01*
X169535714Y-136540476D01*
X169583333Y-136445238D01*
X169678571Y-136350000D01*
X169821428Y-136302380D01*
X169916666Y-136302380D01*
X170059523Y-136350000D01*
X170107142Y-136397619D01*
X170488095Y-136397619D02*
X170535714Y-136350000D01*
X170630952Y-136302380D01*
X170869047Y-136302380D01*
X170964285Y-136350000D01*
X171011904Y-136397619D01*
X171059523Y-136492857D01*
X171059523Y-136588095D01*
X171011904Y-136730952D01*
X170440476Y-137302380D01*
X171059523Y-137302380D01*
X171678571Y-136302380D02*
X171773809Y-136302380D01*
X171869047Y-136350000D01*
X171916666Y-136397619D01*
X171964285Y-136492857D01*
X172011904Y-136683333D01*
X172011904Y-136921428D01*
X171964285Y-137111904D01*
X171916666Y-137207142D01*
X171869047Y-137254761D01*
X171773809Y-137302380D01*
X171678571Y-137302380D01*
X171583333Y-137254761D01*
X171535714Y-137207142D01*
X171488095Y-137111904D01*
X171440476Y-136921428D01*
X171440476Y-136683333D01*
X171488095Y-136492857D01*
X171535714Y-136397619D01*
X171583333Y-136350000D01*
X171678571Y-136302380D01*
%TO.C,C19*%
X170357142Y-116457142D02*
X170309523Y-116504761D01*
X170166666Y-116552380D01*
X170071428Y-116552380D01*
X169928571Y-116504761D01*
X169833333Y-116409523D01*
X169785714Y-116314285D01*
X169738095Y-116123809D01*
X169738095Y-115980952D01*
X169785714Y-115790476D01*
X169833333Y-115695238D01*
X169928571Y-115600000D01*
X170071428Y-115552380D01*
X170166666Y-115552380D01*
X170309523Y-115600000D01*
X170357142Y-115647619D01*
X171309523Y-116552380D02*
X170738095Y-116552380D01*
X171023809Y-116552380D02*
X171023809Y-115552380D01*
X170928571Y-115695238D01*
X170833333Y-115790476D01*
X170738095Y-115838095D01*
X171785714Y-116552380D02*
X171976190Y-116552380D01*
X172071428Y-116504761D01*
X172119047Y-116457142D01*
X172214285Y-116314285D01*
X172261904Y-116123809D01*
X172261904Y-115742857D01*
X172214285Y-115647619D01*
X172166666Y-115600000D01*
X172071428Y-115552380D01*
X171880952Y-115552380D01*
X171785714Y-115600000D01*
X171738095Y-115647619D01*
X171690476Y-115742857D01*
X171690476Y-115980952D01*
X171738095Y-116076190D01*
X171785714Y-116123809D01*
X171880952Y-116171428D01*
X172071428Y-116171428D01*
X172166666Y-116123809D01*
X172214285Y-116076190D01*
X172261904Y-115980952D01*
%TO.C,C18*%
X138607142Y-118107142D02*
X138559523Y-118154761D01*
X138416666Y-118202380D01*
X138321428Y-118202380D01*
X138178571Y-118154761D01*
X138083333Y-118059523D01*
X138035714Y-117964285D01*
X137988095Y-117773809D01*
X137988095Y-117630952D01*
X138035714Y-117440476D01*
X138083333Y-117345238D01*
X138178571Y-117250000D01*
X138321428Y-117202380D01*
X138416666Y-117202380D01*
X138559523Y-117250000D01*
X138607142Y-117297619D01*
X139559523Y-118202380D02*
X138988095Y-118202380D01*
X139273809Y-118202380D02*
X139273809Y-117202380D01*
X139178571Y-117345238D01*
X139083333Y-117440476D01*
X138988095Y-117488095D01*
X140130952Y-117630952D02*
X140035714Y-117583333D01*
X139988095Y-117535714D01*
X139940476Y-117440476D01*
X139940476Y-117392857D01*
X139988095Y-117297619D01*
X140035714Y-117250000D01*
X140130952Y-117202380D01*
X140321428Y-117202380D01*
X140416666Y-117250000D01*
X140464285Y-117297619D01*
X140511904Y-117392857D01*
X140511904Y-117440476D01*
X140464285Y-117535714D01*
X140416666Y-117583333D01*
X140321428Y-117630952D01*
X140130952Y-117630952D01*
X140035714Y-117678571D01*
X139988095Y-117726190D01*
X139940476Y-117821428D01*
X139940476Y-118011904D01*
X139988095Y-118107142D01*
X140035714Y-118154761D01*
X140130952Y-118202380D01*
X140321428Y-118202380D01*
X140416666Y-118154761D01*
X140464285Y-118107142D01*
X140511904Y-118011904D01*
X140511904Y-117821428D01*
X140464285Y-117726190D01*
X140416666Y-117678571D01*
X140321428Y-117630952D01*
%TO.C,C17*%
X110607142Y-95707142D02*
X110559523Y-95754761D01*
X110416666Y-95802380D01*
X110321428Y-95802380D01*
X110178571Y-95754761D01*
X110083333Y-95659523D01*
X110035714Y-95564285D01*
X109988095Y-95373809D01*
X109988095Y-95230952D01*
X110035714Y-95040476D01*
X110083333Y-94945238D01*
X110178571Y-94850000D01*
X110321428Y-94802380D01*
X110416666Y-94802380D01*
X110559523Y-94850000D01*
X110607142Y-94897619D01*
X111559523Y-95802380D02*
X110988095Y-95802380D01*
X111273809Y-95802380D02*
X111273809Y-94802380D01*
X111178571Y-94945238D01*
X111083333Y-95040476D01*
X110988095Y-95088095D01*
X111892857Y-94802380D02*
X112559523Y-94802380D01*
X112130952Y-95802380D01*
%TO.C,C16*%
X119107142Y-139457142D02*
X119059523Y-139504761D01*
X118916666Y-139552380D01*
X118821428Y-139552380D01*
X118678571Y-139504761D01*
X118583333Y-139409523D01*
X118535714Y-139314285D01*
X118488095Y-139123809D01*
X118488095Y-138980952D01*
X118535714Y-138790476D01*
X118583333Y-138695238D01*
X118678571Y-138600000D01*
X118821428Y-138552380D01*
X118916666Y-138552380D01*
X119059523Y-138600000D01*
X119107142Y-138647619D01*
X120059523Y-139552380D02*
X119488095Y-139552380D01*
X119773809Y-139552380D02*
X119773809Y-138552380D01*
X119678571Y-138695238D01*
X119583333Y-138790476D01*
X119488095Y-138838095D01*
X120916666Y-138552380D02*
X120726190Y-138552380D01*
X120630952Y-138600000D01*
X120583333Y-138647619D01*
X120488095Y-138790476D01*
X120440476Y-138980952D01*
X120440476Y-139361904D01*
X120488095Y-139457142D01*
X120535714Y-139504761D01*
X120630952Y-139552380D01*
X120821428Y-139552380D01*
X120916666Y-139504761D01*
X120964285Y-139457142D01*
X121011904Y-139361904D01*
X121011904Y-139123809D01*
X120964285Y-139028571D01*
X120916666Y-138980952D01*
X120821428Y-138933333D01*
X120630952Y-138933333D01*
X120535714Y-138980952D01*
X120488095Y-139028571D01*
X120440476Y-139123809D01*
%TO.C,C15*%
X138857142Y-96357142D02*
X138809523Y-96404761D01*
X138666666Y-96452380D01*
X138571428Y-96452380D01*
X138428571Y-96404761D01*
X138333333Y-96309523D01*
X138285714Y-96214285D01*
X138238095Y-96023809D01*
X138238095Y-95880952D01*
X138285714Y-95690476D01*
X138333333Y-95595238D01*
X138428571Y-95500000D01*
X138571428Y-95452380D01*
X138666666Y-95452380D01*
X138809523Y-95500000D01*
X138857142Y-95547619D01*
X139809523Y-96452380D02*
X139238095Y-96452380D01*
X139523809Y-96452380D02*
X139523809Y-95452380D01*
X139428571Y-95595238D01*
X139333333Y-95690476D01*
X139238095Y-95738095D01*
X140714285Y-95452380D02*
X140238095Y-95452380D01*
X140190476Y-95928571D01*
X140238095Y-95880952D01*
X140333333Y-95833333D01*
X140571428Y-95833333D01*
X140666666Y-95880952D01*
X140714285Y-95928571D01*
X140761904Y-96023809D01*
X140761904Y-96261904D01*
X140714285Y-96357142D01*
X140666666Y-96404761D01*
X140571428Y-96452380D01*
X140333333Y-96452380D01*
X140238095Y-96404761D01*
X140190476Y-96357142D01*
%TO.C,C14*%
X154107142Y-103457142D02*
X154059523Y-103504761D01*
X153916666Y-103552380D01*
X153821428Y-103552380D01*
X153678571Y-103504761D01*
X153583333Y-103409523D01*
X153535714Y-103314285D01*
X153488095Y-103123809D01*
X153488095Y-102980952D01*
X153535714Y-102790476D01*
X153583333Y-102695238D01*
X153678571Y-102600000D01*
X153821428Y-102552380D01*
X153916666Y-102552380D01*
X154059523Y-102600000D01*
X154107142Y-102647619D01*
X155059523Y-103552380D02*
X154488095Y-103552380D01*
X154773809Y-103552380D02*
X154773809Y-102552380D01*
X154678571Y-102695238D01*
X154583333Y-102790476D01*
X154488095Y-102838095D01*
X155916666Y-102885714D02*
X155916666Y-103552380D01*
X155678571Y-102504761D02*
X155440476Y-103219047D01*
X156059523Y-103219047D01*
%TO.C,C13*%
X138857142Y-106607142D02*
X138809523Y-106654761D01*
X138666666Y-106702380D01*
X138571428Y-106702380D01*
X138428571Y-106654761D01*
X138333333Y-106559523D01*
X138285714Y-106464285D01*
X138238095Y-106273809D01*
X138238095Y-106130952D01*
X138285714Y-105940476D01*
X138333333Y-105845238D01*
X138428571Y-105750000D01*
X138571428Y-105702380D01*
X138666666Y-105702380D01*
X138809523Y-105750000D01*
X138857142Y-105797619D01*
X139809523Y-106702380D02*
X139238095Y-106702380D01*
X139523809Y-106702380D02*
X139523809Y-105702380D01*
X139428571Y-105845238D01*
X139333333Y-105940476D01*
X139238095Y-105988095D01*
X140142857Y-105702380D02*
X140761904Y-105702380D01*
X140428571Y-106083333D01*
X140571428Y-106083333D01*
X140666666Y-106130952D01*
X140714285Y-106178571D01*
X140761904Y-106273809D01*
X140761904Y-106511904D01*
X140714285Y-106607142D01*
X140666666Y-106654761D01*
X140571428Y-106702380D01*
X140285714Y-106702380D01*
X140190476Y-106654761D01*
X140142857Y-106607142D01*
%TO.C,C12*%
X170107142Y-103357142D02*
X170059523Y-103404761D01*
X169916666Y-103452380D01*
X169821428Y-103452380D01*
X169678571Y-103404761D01*
X169583333Y-103309523D01*
X169535714Y-103214285D01*
X169488095Y-103023809D01*
X169488095Y-102880952D01*
X169535714Y-102690476D01*
X169583333Y-102595238D01*
X169678571Y-102500000D01*
X169821428Y-102452380D01*
X169916666Y-102452380D01*
X170059523Y-102500000D01*
X170107142Y-102547619D01*
X171059523Y-103452380D02*
X170488095Y-103452380D01*
X170773809Y-103452380D02*
X170773809Y-102452380D01*
X170678571Y-102595238D01*
X170583333Y-102690476D01*
X170488095Y-102738095D01*
X171440476Y-102547619D02*
X171488095Y-102500000D01*
X171583333Y-102452380D01*
X171821428Y-102452380D01*
X171916666Y-102500000D01*
X171964285Y-102547619D01*
X172011904Y-102642857D01*
X172011904Y-102738095D01*
X171964285Y-102880952D01*
X171392857Y-103452380D01*
X172011904Y-103452380D01*
%TO.C,C11*%
X123107142Y-125607142D02*
X123059523Y-125654761D01*
X122916666Y-125702380D01*
X122821428Y-125702380D01*
X122678571Y-125654761D01*
X122583333Y-125559523D01*
X122535714Y-125464285D01*
X122488095Y-125273809D01*
X122488095Y-125130952D01*
X122535714Y-124940476D01*
X122583333Y-124845238D01*
X122678571Y-124750000D01*
X122821428Y-124702380D01*
X122916666Y-124702380D01*
X123059523Y-124750000D01*
X123107142Y-124797619D01*
X124059523Y-125702380D02*
X123488095Y-125702380D01*
X123773809Y-125702380D02*
X123773809Y-124702380D01*
X123678571Y-124845238D01*
X123583333Y-124940476D01*
X123488095Y-124988095D01*
X125011904Y-125702380D02*
X124440476Y-125702380D01*
X124726190Y-125702380D02*
X124726190Y-124702380D01*
X124630952Y-124845238D01*
X124535714Y-124940476D01*
X124440476Y-124988095D01*
%TO.C,C10*%
X138107142Y-139857142D02*
X138059523Y-139904761D01*
X137916666Y-139952380D01*
X137821428Y-139952380D01*
X137678571Y-139904761D01*
X137583333Y-139809523D01*
X137535714Y-139714285D01*
X137488095Y-139523809D01*
X137488095Y-139380952D01*
X137535714Y-139190476D01*
X137583333Y-139095238D01*
X137678571Y-139000000D01*
X137821428Y-138952380D01*
X137916666Y-138952380D01*
X138059523Y-139000000D01*
X138107142Y-139047619D01*
X139059523Y-139952380D02*
X138488095Y-139952380D01*
X138773809Y-139952380D02*
X138773809Y-138952380D01*
X138678571Y-139095238D01*
X138583333Y-139190476D01*
X138488095Y-139238095D01*
X139678571Y-138952380D02*
X139773809Y-138952380D01*
X139869047Y-139000000D01*
X139916666Y-139047619D01*
X139964285Y-139142857D01*
X140011904Y-139333333D01*
X140011904Y-139571428D01*
X139964285Y-139761904D01*
X139916666Y-139857142D01*
X139869047Y-139904761D01*
X139773809Y-139952380D01*
X139678571Y-139952380D01*
X139583333Y-139904761D01*
X139535714Y-139857142D01*
X139488095Y-139761904D01*
X139440476Y-139571428D01*
X139440476Y-139333333D01*
X139488095Y-139142857D01*
X139535714Y-139047619D01*
X139583333Y-139000000D01*
X139678571Y-138952380D01*
%TO.C,C9*%
X110833333Y-105707142D02*
X110785714Y-105754761D01*
X110642857Y-105802380D01*
X110547619Y-105802380D01*
X110404761Y-105754761D01*
X110309523Y-105659523D01*
X110261904Y-105564285D01*
X110214285Y-105373809D01*
X110214285Y-105230952D01*
X110261904Y-105040476D01*
X110309523Y-104945238D01*
X110404761Y-104850000D01*
X110547619Y-104802380D01*
X110642857Y-104802380D01*
X110785714Y-104850000D01*
X110833333Y-104897619D01*
X111309523Y-105802380D02*
X111500000Y-105802380D01*
X111595238Y-105754761D01*
X111642857Y-105707142D01*
X111738095Y-105564285D01*
X111785714Y-105373809D01*
X111785714Y-104992857D01*
X111738095Y-104897619D01*
X111690476Y-104850000D01*
X111595238Y-104802380D01*
X111404761Y-104802380D01*
X111309523Y-104850000D01*
X111261904Y-104897619D01*
X111214285Y-104992857D01*
X111214285Y-105230952D01*
X111261904Y-105326190D01*
X111309523Y-105373809D01*
X111404761Y-105421428D01*
X111595238Y-105421428D01*
X111690476Y-105373809D01*
X111738095Y-105326190D01*
X111785714Y-105230952D01*
%TO.C,C8*%
X138583333Y-129107142D02*
X138535714Y-129154761D01*
X138392857Y-129202380D01*
X138297619Y-129202380D01*
X138154761Y-129154761D01*
X138059523Y-129059523D01*
X138011904Y-128964285D01*
X137964285Y-128773809D01*
X137964285Y-128630952D01*
X138011904Y-128440476D01*
X138059523Y-128345238D01*
X138154761Y-128250000D01*
X138297619Y-128202380D01*
X138392857Y-128202380D01*
X138535714Y-128250000D01*
X138583333Y-128297619D01*
X139154761Y-128630952D02*
X139059523Y-128583333D01*
X139011904Y-128535714D01*
X138964285Y-128440476D01*
X138964285Y-128392857D01*
X139011904Y-128297619D01*
X139059523Y-128250000D01*
X139154761Y-128202380D01*
X139345238Y-128202380D01*
X139440476Y-128250000D01*
X139488095Y-128297619D01*
X139535714Y-128392857D01*
X139535714Y-128440476D01*
X139488095Y-128535714D01*
X139440476Y-128583333D01*
X139345238Y-128630952D01*
X139154761Y-128630952D01*
X139059523Y-128678571D01*
X139011904Y-128726190D01*
X138964285Y-128821428D01*
X138964285Y-129011904D01*
X139011904Y-129107142D01*
X139059523Y-129154761D01*
X139154761Y-129202380D01*
X139345238Y-129202380D01*
X139440476Y-129154761D01*
X139488095Y-129107142D01*
X139535714Y-129011904D01*
X139535714Y-128821428D01*
X139488095Y-128726190D01*
X139440476Y-128678571D01*
X139345238Y-128630952D01*
%TO.C,C7*%
X154583333Y-128707142D02*
X154535714Y-128754761D01*
X154392857Y-128802380D01*
X154297619Y-128802380D01*
X154154761Y-128754761D01*
X154059523Y-128659523D01*
X154011904Y-128564285D01*
X153964285Y-128373809D01*
X153964285Y-128230952D01*
X154011904Y-128040476D01*
X154059523Y-127945238D01*
X154154761Y-127850000D01*
X154297619Y-127802380D01*
X154392857Y-127802380D01*
X154535714Y-127850000D01*
X154583333Y-127897619D01*
X154916666Y-127802380D02*
X155583333Y-127802380D01*
X155154761Y-128802380D01*
%TO.C,C6*%
X124833333Y-95607142D02*
X124785714Y-95654761D01*
X124642857Y-95702380D01*
X124547619Y-95702380D01*
X124404761Y-95654761D01*
X124309523Y-95559523D01*
X124261904Y-95464285D01*
X124214285Y-95273809D01*
X124214285Y-95130952D01*
X124261904Y-94940476D01*
X124309523Y-94845238D01*
X124404761Y-94750000D01*
X124547619Y-94702380D01*
X124642857Y-94702380D01*
X124785714Y-94750000D01*
X124833333Y-94797619D01*
X125690476Y-94702380D02*
X125500000Y-94702380D01*
X125404761Y-94750000D01*
X125357142Y-94797619D01*
X125261904Y-94940476D01*
X125214285Y-95130952D01*
X125214285Y-95511904D01*
X125261904Y-95607142D01*
X125309523Y-95654761D01*
X125404761Y-95702380D01*
X125595238Y-95702380D01*
X125690476Y-95654761D01*
X125738095Y-95607142D01*
X125785714Y-95511904D01*
X125785714Y-95273809D01*
X125738095Y-95178571D01*
X125690476Y-95130952D01*
X125595238Y-95083333D01*
X125404761Y-95083333D01*
X125309523Y-95130952D01*
X125261904Y-95178571D01*
X125214285Y-95273809D01*
%TO.C,C5*%
X184583333Y-131207142D02*
X184535714Y-131254761D01*
X184392857Y-131302380D01*
X184297619Y-131302380D01*
X184154761Y-131254761D01*
X184059523Y-131159523D01*
X184011904Y-131064285D01*
X183964285Y-130873809D01*
X183964285Y-130730952D01*
X184011904Y-130540476D01*
X184059523Y-130445238D01*
X184154761Y-130350000D01*
X184297619Y-130302380D01*
X184392857Y-130302380D01*
X184535714Y-130350000D01*
X184583333Y-130397619D01*
X185488095Y-130302380D02*
X185011904Y-130302380D01*
X184964285Y-130778571D01*
X185011904Y-130730952D01*
X185107142Y-130683333D01*
X185345238Y-130683333D01*
X185440476Y-130730952D01*
X185488095Y-130778571D01*
X185535714Y-130873809D01*
X185535714Y-131111904D01*
X185488095Y-131207142D01*
X185440476Y-131254761D01*
X185345238Y-131302380D01*
X185107142Y-131302380D01*
X185011904Y-131254761D01*
X184964285Y-131207142D01*
%TO.C,C4*%
X154583333Y-117957142D02*
X154535714Y-118004761D01*
X154392857Y-118052380D01*
X154297619Y-118052380D01*
X154154761Y-118004761D01*
X154059523Y-117909523D01*
X154011904Y-117814285D01*
X153964285Y-117623809D01*
X153964285Y-117480952D01*
X154011904Y-117290476D01*
X154059523Y-117195238D01*
X154154761Y-117100000D01*
X154297619Y-117052380D01*
X154392857Y-117052380D01*
X154535714Y-117100000D01*
X154583333Y-117147619D01*
X155440476Y-117385714D02*
X155440476Y-118052380D01*
X155202380Y-117004761D02*
X154964285Y-117719047D01*
X155583333Y-117719047D01*
%TO.C,C3*%
X154583333Y-92707142D02*
X154535714Y-92754761D01*
X154392857Y-92802380D01*
X154297619Y-92802380D01*
X154154761Y-92754761D01*
X154059523Y-92659523D01*
X154011904Y-92564285D01*
X153964285Y-92373809D01*
X153964285Y-92230952D01*
X154011904Y-92040476D01*
X154059523Y-91945238D01*
X154154761Y-91850000D01*
X154297619Y-91802380D01*
X154392857Y-91802380D01*
X154535714Y-91850000D01*
X154583333Y-91897619D01*
X154916666Y-91802380D02*
X155535714Y-91802380D01*
X155202380Y-92183333D01*
X155345238Y-92183333D01*
X155440476Y-92230952D01*
X155488095Y-92278571D01*
X155535714Y-92373809D01*
X155535714Y-92611904D01*
X155488095Y-92707142D01*
X155440476Y-92754761D01*
X155345238Y-92802380D01*
X155059523Y-92802380D01*
X154964285Y-92754761D01*
X154916666Y-92707142D01*
%TO.C,C2*%
X121583333Y-144857142D02*
X121535714Y-144904761D01*
X121392857Y-144952380D01*
X121297619Y-144952380D01*
X121154761Y-144904761D01*
X121059523Y-144809523D01*
X121011904Y-144714285D01*
X120964285Y-144523809D01*
X120964285Y-144380952D01*
X121011904Y-144190476D01*
X121059523Y-144095238D01*
X121154761Y-144000000D01*
X121297619Y-143952380D01*
X121392857Y-143952380D01*
X121535714Y-144000000D01*
X121583333Y-144047619D01*
X121964285Y-144047619D02*
X122011904Y-144000000D01*
X122107142Y-143952380D01*
X122345238Y-143952380D01*
X122440476Y-144000000D01*
X122488095Y-144047619D01*
X122535714Y-144142857D01*
X122535714Y-144238095D01*
X122488095Y-144380952D01*
X121916666Y-144952380D01*
X122535714Y-144952380D01*
%TO.C,C1*%
X109833333Y-149357142D02*
X109785714Y-149404761D01*
X109642857Y-149452380D01*
X109547619Y-149452380D01*
X109404761Y-149404761D01*
X109309523Y-149309523D01*
X109261904Y-149214285D01*
X109214285Y-149023809D01*
X109214285Y-148880952D01*
X109261904Y-148690476D01*
X109309523Y-148595238D01*
X109404761Y-148500000D01*
X109547619Y-148452380D01*
X109642857Y-148452380D01*
X109785714Y-148500000D01*
X109833333Y-148547619D01*
X110785714Y-149452380D02*
X110214285Y-149452380D01*
X110500000Y-149452380D02*
X110500000Y-148452380D01*
X110404761Y-148595238D01*
X110309523Y-148690476D01*
X110214285Y-148738095D01*
%TD*%
M02*
