G04 #@! TF.GenerationSoftware,KiCad,Pcbnew,(5.1.5-0-10_14)*
G04 #@! TF.CreationDate,2020-11-15T08:55:02+01:00*
G04 #@! TF.ProjectId,alu,616c752e-6b69-4636-9164-5f7063625858,2*
G04 #@! TF.SameCoordinates,Original*
G04 #@! TF.FileFunction,Legend,Top*
G04 #@! TF.FilePolarity,Positive*
%FSLAX46Y46*%
G04 Gerber Fmt 4.6, Leading zero omitted, Abs format (unit mm)*
G04 Created by KiCad (PCBNEW (5.1.5-0-10_14)) date 2020-11-15 08:55:02*
%MOMM*%
%LPD*%
G04 APERTURE LIST*
%ADD10C,0.120000*%
%ADD11C,0.225000*%
%ADD12C,0.150000*%
G04 APERTURE END LIST*
D10*
X177500000Y-113500000D02*
X177500000Y-126500000D01*
X196000000Y-113500000D02*
X177500000Y-113500000D01*
X196000000Y-127000000D02*
X196000000Y-113500000D01*
X184000000Y-102500000D02*
X184000000Y-103000000D01*
X176000000Y-111000000D02*
X184000000Y-103000000D01*
X184000000Y-62500000D02*
X184000000Y-102500000D01*
X184000000Y-62500000D02*
X182000000Y-62500000D01*
D11*
X178678571Y-128178571D02*
X178678571Y-126678571D01*
X179392857Y-128178571D02*
X179392857Y-126678571D01*
X180250000Y-128178571D01*
X180250000Y-126678571D01*
X180964285Y-128178571D02*
X180964285Y-126678571D01*
X181535714Y-126678571D01*
X181678571Y-126750000D01*
X181750000Y-126821428D01*
X181821428Y-126964285D01*
X181821428Y-127178571D01*
X181750000Y-127321428D01*
X181678571Y-127392857D01*
X181535714Y-127464285D01*
X180964285Y-127464285D01*
X182464285Y-126678571D02*
X182464285Y-127892857D01*
X182535714Y-128035714D01*
X182607142Y-128107142D01*
X182750000Y-128178571D01*
X183035714Y-128178571D01*
X183178571Y-128107142D01*
X183250000Y-128035714D01*
X183321428Y-127892857D01*
X183321428Y-126678571D01*
X183821428Y-126678571D02*
X184678571Y-126678571D01*
X184250000Y-128178571D02*
X184250000Y-126678571D01*
X186321428Y-128178571D02*
X186321428Y-126678571D01*
X186821428Y-127750000D01*
X187321428Y-126678571D01*
X187321428Y-128178571D01*
X188035714Y-126678571D02*
X188035714Y-127892857D01*
X188107142Y-128035714D01*
X188178571Y-128107142D01*
X188321428Y-128178571D01*
X188607142Y-128178571D01*
X188750000Y-128107142D01*
X188821428Y-128035714D01*
X188892857Y-127892857D01*
X188892857Y-126678571D01*
X189464285Y-126678571D02*
X190464285Y-128178571D01*
X190464285Y-126678571D02*
X189464285Y-128178571D01*
D10*
X174000000Y-141500000D02*
X174500000Y-141500000D01*
X174000000Y-130000000D02*
X174000000Y-141500000D01*
X177500000Y-126500000D02*
X174000000Y-130000000D01*
X193000000Y-130000000D02*
X196000000Y-127000000D01*
X193000000Y-141500000D02*
X193000000Y-130000000D01*
X174500000Y-141500000D02*
X193000000Y-141500000D01*
D12*
X180214285Y-89452380D02*
X180214285Y-88452380D01*
X180547619Y-89166666D01*
X180880952Y-88452380D01*
X180880952Y-89452380D01*
X181547619Y-88452380D02*
X181738095Y-88452380D01*
X181833333Y-88500000D01*
X181928571Y-88595238D01*
X181976190Y-88785714D01*
X181976190Y-89119047D01*
X181928571Y-89309523D01*
X181833333Y-89404761D01*
X181738095Y-89452380D01*
X181547619Y-89452380D01*
X181452380Y-89404761D01*
X181357142Y-89309523D01*
X181309523Y-89119047D01*
X181309523Y-88785714D01*
X181357142Y-88595238D01*
X181452380Y-88500000D01*
X181547619Y-88452380D01*
X182261904Y-88452380D02*
X182595238Y-89452380D01*
X182928571Y-88452380D01*
X180476190Y-87952380D02*
X180476190Y-86952380D01*
X180952380Y-87952380D02*
X180952380Y-86952380D01*
X181523809Y-87952380D01*
X181523809Y-86952380D01*
X182571428Y-87857142D02*
X182523809Y-87904761D01*
X182380952Y-87952380D01*
X182285714Y-87952380D01*
X182142857Y-87904761D01*
X182047619Y-87809523D01*
X182000000Y-87714285D01*
X181952380Y-87523809D01*
X181952380Y-87380952D01*
X182000000Y-87190476D01*
X182047619Y-87095238D01*
X182142857Y-87000000D01*
X182285714Y-86952380D01*
X182380952Y-86952380D01*
X182523809Y-87000000D01*
X182571428Y-87047619D01*
X180285714Y-86452380D02*
X180285714Y-85452380D01*
X180523809Y-85452380D01*
X180666666Y-85500000D01*
X180761904Y-85595238D01*
X180809523Y-85690476D01*
X180857142Y-85880952D01*
X180857142Y-86023809D01*
X180809523Y-86214285D01*
X180761904Y-86309523D01*
X180666666Y-86404761D01*
X180523809Y-86452380D01*
X180285714Y-86452380D01*
X181285714Y-85928571D02*
X181619047Y-85928571D01*
X181761904Y-86452380D02*
X181285714Y-86452380D01*
X181285714Y-85452380D01*
X181761904Y-85452380D01*
X182761904Y-86357142D02*
X182714285Y-86404761D01*
X182571428Y-86452380D01*
X182476190Y-86452380D01*
X182333333Y-86404761D01*
X182238095Y-86309523D01*
X182190476Y-86214285D01*
X182142857Y-86023809D01*
X182142857Y-85880952D01*
X182190476Y-85690476D01*
X182238095Y-85595238D01*
X182333333Y-85500000D01*
X182476190Y-85452380D01*
X182571428Y-85452380D01*
X182714285Y-85500000D01*
X182761904Y-85547619D01*
X180261904Y-84952380D02*
X180261904Y-83952380D01*
X180833333Y-84952380D01*
X180833333Y-83952380D01*
X181309523Y-84428571D02*
X181642857Y-84428571D01*
X181785714Y-84952380D02*
X181309523Y-84952380D01*
X181309523Y-83952380D01*
X181785714Y-83952380D01*
X182738095Y-84000000D02*
X182642857Y-83952380D01*
X182500000Y-83952380D01*
X182357142Y-84000000D01*
X182261904Y-84095238D01*
X182214285Y-84190476D01*
X182166666Y-84380952D01*
X182166666Y-84523809D01*
X182214285Y-84714285D01*
X182261904Y-84809523D01*
X182357142Y-84904761D01*
X182500000Y-84952380D01*
X182595238Y-84952380D01*
X182738095Y-84904761D01*
X182785714Y-84857142D01*
X182785714Y-84523809D01*
X182595238Y-84523809D01*
X180214285Y-83404761D02*
X180357142Y-83452380D01*
X180595238Y-83452380D01*
X180690476Y-83404761D01*
X180738095Y-83357142D01*
X180785714Y-83261904D01*
X180785714Y-83166666D01*
X180738095Y-83071428D01*
X180690476Y-83023809D01*
X180595238Y-82976190D01*
X180404761Y-82928571D01*
X180309523Y-82880952D01*
X180261904Y-82833333D01*
X180214285Y-82738095D01*
X180214285Y-82642857D01*
X180261904Y-82547619D01*
X180309523Y-82500000D01*
X180404761Y-82452380D01*
X180642857Y-82452380D01*
X180785714Y-82500000D01*
X181547619Y-82928571D02*
X181690476Y-82976190D01*
X181738095Y-83023809D01*
X181785714Y-83119047D01*
X181785714Y-83261904D01*
X181738095Y-83357142D01*
X181690476Y-83404761D01*
X181595238Y-83452380D01*
X181214285Y-83452380D01*
X181214285Y-82452380D01*
X181547619Y-82452380D01*
X181642857Y-82500000D01*
X181690476Y-82547619D01*
X181738095Y-82642857D01*
X181738095Y-82738095D01*
X181690476Y-82833333D01*
X181642857Y-82880952D01*
X181547619Y-82928571D01*
X181214285Y-82928571D01*
X182547619Y-82928571D02*
X182690476Y-82976190D01*
X182738095Y-83023809D01*
X182785714Y-83119047D01*
X182785714Y-83261904D01*
X182738095Y-83357142D01*
X182690476Y-83404761D01*
X182595238Y-83452380D01*
X182214285Y-83452380D01*
X182214285Y-82452380D01*
X182547619Y-82452380D01*
X182642857Y-82500000D01*
X182690476Y-82547619D01*
X182738095Y-82642857D01*
X182738095Y-82738095D01*
X182690476Y-82833333D01*
X182642857Y-82880952D01*
X182547619Y-82928571D01*
X182214285Y-82928571D01*
X180190476Y-81904761D02*
X180333333Y-81952380D01*
X180571428Y-81952380D01*
X180666666Y-81904761D01*
X180714285Y-81857142D01*
X180761904Y-81761904D01*
X180761904Y-81666666D01*
X180714285Y-81571428D01*
X180666666Y-81523809D01*
X180571428Y-81476190D01*
X180380952Y-81428571D01*
X180285714Y-81380952D01*
X180238095Y-81333333D01*
X180190476Y-81238095D01*
X180190476Y-81142857D01*
X180238095Y-81047619D01*
X180285714Y-81000000D01*
X180380952Y-80952380D01*
X180619047Y-80952380D01*
X180761904Y-81000000D01*
X181190476Y-80952380D02*
X181190476Y-81761904D01*
X181238095Y-81857142D01*
X181285714Y-81904761D01*
X181380952Y-81952380D01*
X181571428Y-81952380D01*
X181666666Y-81904761D01*
X181714285Y-81857142D01*
X181761904Y-81761904D01*
X181761904Y-80952380D01*
X182571428Y-81428571D02*
X182714285Y-81476190D01*
X182761904Y-81523809D01*
X182809523Y-81619047D01*
X182809523Y-81761904D01*
X182761904Y-81857142D01*
X182714285Y-81904761D01*
X182619047Y-81952380D01*
X182238095Y-81952380D01*
X182238095Y-80952380D01*
X182571428Y-80952380D01*
X182666666Y-81000000D01*
X182714285Y-81047619D01*
X182761904Y-81142857D01*
X182761904Y-81238095D01*
X182714285Y-81333333D01*
X182666666Y-81380952D01*
X182571428Y-81428571D01*
X182238095Y-81428571D01*
X180261904Y-80166666D02*
X180738095Y-80166666D01*
X180166666Y-80452380D02*
X180500000Y-79452380D01*
X180833333Y-80452380D01*
X181166666Y-80452380D02*
X181166666Y-79452380D01*
X181404761Y-79452380D01*
X181547619Y-79500000D01*
X181642857Y-79595238D01*
X181690476Y-79690476D01*
X181738095Y-79880952D01*
X181738095Y-80023809D01*
X181690476Y-80214285D01*
X181642857Y-80309523D01*
X181547619Y-80404761D01*
X181404761Y-80452380D01*
X181166666Y-80452380D01*
X182738095Y-80357142D02*
X182690476Y-80404761D01*
X182547619Y-80452380D01*
X182452380Y-80452380D01*
X182309523Y-80404761D01*
X182214285Y-80309523D01*
X182166666Y-80214285D01*
X182119047Y-80023809D01*
X182119047Y-79880952D01*
X182166666Y-79690476D01*
X182214285Y-79595238D01*
X182309523Y-79500000D01*
X182452380Y-79452380D01*
X182547619Y-79452380D01*
X182690476Y-79500000D01*
X182738095Y-79547619D01*
X180261904Y-78666666D02*
X180738095Y-78666666D01*
X180166666Y-78952380D02*
X180500000Y-77952380D01*
X180833333Y-78952380D01*
X181166666Y-78952380D02*
X181166666Y-77952380D01*
X181404761Y-77952380D01*
X181547619Y-78000000D01*
X181642857Y-78095238D01*
X181690476Y-78190476D01*
X181738095Y-78380952D01*
X181738095Y-78523809D01*
X181690476Y-78714285D01*
X181642857Y-78809523D01*
X181547619Y-78904761D01*
X181404761Y-78952380D01*
X181166666Y-78952380D01*
X182166666Y-78952380D02*
X182166666Y-77952380D01*
X182404761Y-77952380D01*
X182547619Y-78000000D01*
X182642857Y-78095238D01*
X182690476Y-78190476D01*
X182738095Y-78380952D01*
X182738095Y-78523809D01*
X182690476Y-78714285D01*
X182642857Y-78809523D01*
X182547619Y-78904761D01*
X182404761Y-78952380D01*
X182166666Y-78952380D01*
D11*
X174214285Y-64250000D02*
X174928571Y-64250000D01*
X174071428Y-64678571D02*
X174571428Y-63178571D01*
X175071428Y-64678571D01*
X175571428Y-64678571D02*
X175571428Y-63178571D01*
X175928571Y-63178571D01*
X176142857Y-63250000D01*
X176285714Y-63392857D01*
X176357142Y-63535714D01*
X176428571Y-63821428D01*
X176428571Y-64035714D01*
X176357142Y-64321428D01*
X176285714Y-64464285D01*
X176142857Y-64607142D01*
X175928571Y-64678571D01*
X175571428Y-64678571D01*
X177071428Y-64678571D02*
X177071428Y-63178571D01*
X177428571Y-63178571D01*
X177642857Y-63250000D01*
X177785714Y-63392857D01*
X177857142Y-63535714D01*
X177928571Y-63821428D01*
X177928571Y-64035714D01*
X177857142Y-64321428D01*
X177785714Y-64464285D01*
X177642857Y-64607142D01*
X177428571Y-64678571D01*
X177071428Y-64678571D01*
X178571428Y-63892857D02*
X179071428Y-63892857D01*
X179285714Y-64678571D02*
X178571428Y-64678571D01*
X178571428Y-63178571D01*
X179285714Y-63178571D01*
X180785714Y-64678571D02*
X180285714Y-63964285D01*
X179928571Y-64678571D02*
X179928571Y-63178571D01*
X180500000Y-63178571D01*
X180642857Y-63250000D01*
X180714285Y-63321428D01*
X180785714Y-63464285D01*
X180785714Y-63678571D01*
X180714285Y-63821428D01*
X180642857Y-63892857D01*
X180500000Y-63964285D01*
X179928571Y-63964285D01*
X165464285Y-63178571D02*
X166464285Y-64678571D01*
X166464285Y-63178571D02*
X165464285Y-64678571D01*
X167321428Y-63178571D02*
X167607142Y-63178571D01*
X167750000Y-63250000D01*
X167892857Y-63392857D01*
X167964285Y-63678571D01*
X167964285Y-64178571D01*
X167892857Y-64464285D01*
X167750000Y-64607142D01*
X167607142Y-64678571D01*
X167321428Y-64678571D01*
X167178571Y-64607142D01*
X167035714Y-64464285D01*
X166964285Y-64178571D01*
X166964285Y-63678571D01*
X167035714Y-63392857D01*
X167178571Y-63250000D01*
X167321428Y-63178571D01*
X169464285Y-64678571D02*
X168964285Y-63964285D01*
X168607142Y-64678571D02*
X168607142Y-63178571D01*
X169178571Y-63178571D01*
X169321428Y-63250000D01*
X169392857Y-63321428D01*
X169464285Y-63464285D01*
X169464285Y-63678571D01*
X169392857Y-63821428D01*
X169321428Y-63892857D01*
X169178571Y-63964285D01*
X168607142Y-63964285D01*
X155214285Y-64678571D02*
X155214285Y-63178571D01*
X156071428Y-64678571D01*
X156071428Y-63178571D01*
X157071428Y-63178571D02*
X157357142Y-63178571D01*
X157500000Y-63250000D01*
X157642857Y-63392857D01*
X157714285Y-63678571D01*
X157714285Y-64178571D01*
X157642857Y-64464285D01*
X157500000Y-64607142D01*
X157357142Y-64678571D01*
X157071428Y-64678571D01*
X156928571Y-64607142D01*
X156785714Y-64464285D01*
X156714285Y-64178571D01*
X156714285Y-63678571D01*
X156785714Y-63392857D01*
X156928571Y-63250000D01*
X157071428Y-63178571D01*
X158142857Y-63178571D02*
X159000000Y-63178571D01*
X158571428Y-64678571D02*
X158571428Y-63178571D01*
X145214285Y-63892857D02*
X145714285Y-63892857D01*
X145928571Y-64678571D02*
X145214285Y-64678571D01*
X145214285Y-63178571D01*
X145928571Y-63178571D01*
X146428571Y-63178571D02*
X147428571Y-64678571D01*
X147428571Y-63178571D02*
X146428571Y-64678571D01*
X148000000Y-64678571D02*
X148000000Y-63178571D01*
X148571428Y-63178571D01*
X148714285Y-63250000D01*
X148785714Y-63321428D01*
X148857142Y-63464285D01*
X148857142Y-63678571D01*
X148785714Y-63821428D01*
X148714285Y-63892857D01*
X148571428Y-63964285D01*
X148000000Y-63964285D01*
X136107142Y-63178571D02*
X136392857Y-63178571D01*
X136535714Y-63250000D01*
X136678571Y-63392857D01*
X136750000Y-63678571D01*
X136750000Y-64178571D01*
X136678571Y-64464285D01*
X136535714Y-64607142D01*
X136392857Y-64678571D01*
X136107142Y-64678571D01*
X135964285Y-64607142D01*
X135821428Y-64464285D01*
X135750000Y-64178571D01*
X135750000Y-63678571D01*
X135821428Y-63392857D01*
X135964285Y-63250000D01*
X136107142Y-63178571D01*
X138250000Y-64678571D02*
X137750000Y-63964285D01*
X137392857Y-64678571D02*
X137392857Y-63178571D01*
X137964285Y-63178571D01*
X138107142Y-63250000D01*
X138178571Y-63321428D01*
X138250000Y-63464285D01*
X138250000Y-63678571D01*
X138178571Y-63821428D01*
X138107142Y-63892857D01*
X137964285Y-63964285D01*
X137392857Y-63964285D01*
X124678571Y-64607142D02*
X124892857Y-64678571D01*
X125250000Y-64678571D01*
X125392857Y-64607142D01*
X125464285Y-64535714D01*
X125535714Y-64392857D01*
X125535714Y-64250000D01*
X125464285Y-64107142D01*
X125392857Y-64035714D01*
X125250000Y-63964285D01*
X124964285Y-63892857D01*
X124821428Y-63821428D01*
X124750000Y-63750000D01*
X124678571Y-63607142D01*
X124678571Y-63464285D01*
X124750000Y-63321428D01*
X124821428Y-63250000D01*
X124964285Y-63178571D01*
X125321428Y-63178571D01*
X125535714Y-63250000D01*
X126178571Y-64678571D02*
X126178571Y-63178571D01*
X126178571Y-63892857D02*
X127035714Y-63892857D01*
X127035714Y-64678571D02*
X127035714Y-63178571D01*
X128464285Y-64678571D02*
X127750000Y-64678571D01*
X127750000Y-63178571D01*
X114535714Y-64607142D02*
X114750000Y-64678571D01*
X115107142Y-64678571D01*
X115250000Y-64607142D01*
X115321428Y-64535714D01*
X115392857Y-64392857D01*
X115392857Y-64250000D01*
X115321428Y-64107142D01*
X115250000Y-64035714D01*
X115107142Y-63964285D01*
X114821428Y-63892857D01*
X114678571Y-63821428D01*
X114607142Y-63750000D01*
X114535714Y-63607142D01*
X114535714Y-63464285D01*
X114607142Y-63321428D01*
X114678571Y-63250000D01*
X114821428Y-63178571D01*
X115178571Y-63178571D01*
X115392857Y-63250000D01*
X116035714Y-64678571D02*
X116035714Y-63178571D01*
X116035714Y-63892857D02*
X116892857Y-63892857D01*
X116892857Y-64678571D02*
X116892857Y-63178571D01*
X118464285Y-64678571D02*
X117964285Y-63964285D01*
X117607142Y-64678571D02*
X117607142Y-63178571D01*
X118178571Y-63178571D01*
X118321428Y-63250000D01*
X118392857Y-63321428D01*
X118464285Y-63464285D01*
X118464285Y-63678571D01*
X118392857Y-63821428D01*
X118321428Y-63892857D01*
X118178571Y-63964285D01*
X117607142Y-63964285D01*
X121107142Y-93750000D02*
X121821428Y-93750000D01*
X120964285Y-94178571D02*
X121464285Y-92678571D01*
X121964285Y-94178571D01*
X122464285Y-94178571D02*
X122464285Y-92678571D01*
X123321428Y-94178571D01*
X123321428Y-92678571D01*
X124035714Y-94178571D02*
X124035714Y-92678571D01*
X124392857Y-92678571D01*
X124607142Y-92750000D01*
X124750000Y-92892857D01*
X124821428Y-93035714D01*
X124892857Y-93321428D01*
X124892857Y-93535714D01*
X124821428Y-93821428D01*
X124750000Y-93964285D01*
X124607142Y-94107142D01*
X124392857Y-94178571D01*
X124035714Y-94178571D01*
D10*
X127000000Y-78000000D02*
X127000000Y-79500000D01*
X131000000Y-78000000D02*
X127000000Y-78000000D01*
X132500000Y-76000000D02*
X131000000Y-78000000D01*
X112000000Y-77500000D02*
X121000000Y-77500000D01*
X112000000Y-62500000D02*
X112000000Y-77500000D01*
X121000000Y-62500000D02*
X112000000Y-62500000D01*
X121000000Y-77500000D02*
X121000000Y-62500000D01*
X122000000Y-77500000D02*
X131000000Y-77500000D01*
X122000000Y-62500000D02*
X122000000Y-77500000D01*
X131000000Y-62500000D02*
X122000000Y-62500000D01*
X131000000Y-77500000D02*
X131000000Y-62500000D01*
X149000000Y-130500000D02*
X140000000Y-130500000D01*
X149000000Y-128000000D02*
X149000000Y-130500000D01*
X153000000Y-124000000D02*
X149000000Y-128000000D01*
X176000000Y-124000000D02*
X153000000Y-124000000D01*
X176000000Y-111000000D02*
X176000000Y-124000000D01*
X162500000Y-62500000D02*
X182000000Y-62500000D01*
X162500000Y-78000000D02*
X162500000Y-62500000D01*
X142500000Y-78000000D02*
X162500000Y-78000000D01*
X140000000Y-79500000D02*
X142500000Y-78000000D01*
X140000000Y-130500000D02*
X140000000Y-79500000D01*
X161500000Y-77500000D02*
X152500000Y-77500000D01*
X161500000Y-62500000D02*
X161500000Y-77500000D01*
X152500000Y-62500000D02*
X161500000Y-62500000D01*
X152500000Y-77500000D02*
X152500000Y-62500000D01*
X142000000Y-64500000D02*
X142000000Y-62500000D01*
X151500000Y-64500000D02*
X151500000Y-62500000D01*
X132500000Y-62500000D02*
X132500000Y-64500000D01*
X141500000Y-64500000D02*
X141500000Y-62500000D01*
X142000000Y-64500000D02*
X142000000Y-77500000D01*
X151500000Y-62500000D02*
X142000000Y-62500000D01*
X151500000Y-77500000D02*
X151500000Y-64500000D01*
X142000000Y-77500000D02*
X151500000Y-77500000D01*
X127000000Y-79500000D02*
X127000000Y-94500000D01*
X132500000Y-64500000D02*
X132500000Y-76000000D01*
X141500000Y-62500000D02*
X132500000Y-62500000D01*
X141500000Y-77000000D02*
X141500000Y-64500000D01*
X136500000Y-80500000D02*
X141500000Y-77000000D01*
X136500000Y-94500000D02*
X136500000Y-80500000D01*
X127000000Y-94500000D02*
X136500000Y-94500000D01*
X112000000Y-109000000D02*
X112000000Y-79000000D01*
X125500000Y-109000000D02*
X112000000Y-109000000D01*
X125500000Y-84000000D02*
X125500000Y-109000000D01*
X120500000Y-79000000D02*
X125500000Y-84000000D01*
X112000000Y-79000000D02*
X120500000Y-79000000D01*
X116310000Y-136635000D02*
X116310000Y-132250000D01*
X113290000Y-136635000D02*
X116310000Y-136635000D01*
X113290000Y-132250000D02*
X113290000Y-136635000D01*
X114941422Y-76910000D02*
X115458578Y-76910000D01*
X114941422Y-75490000D02*
X115458578Y-75490000D01*
X125141422Y-76910000D02*
X125658578Y-76910000D01*
X125141422Y-75490000D02*
X125658578Y-75490000D01*
X145541422Y-76910000D02*
X146058578Y-76910000D01*
X145541422Y-75490000D02*
X146058578Y-75490000D01*
X165741422Y-76910000D02*
X166258578Y-76910000D01*
X165741422Y-75490000D02*
X166258578Y-75490000D01*
X175741422Y-76910000D02*
X176258578Y-76910000D01*
X175741422Y-75490000D02*
X176258578Y-75490000D01*
X135141422Y-76910000D02*
X135658578Y-76910000D01*
X135141422Y-75490000D02*
X135658578Y-75490000D01*
X123910000Y-90658578D02*
X123910000Y-90141422D01*
X122490000Y-90658578D02*
X122490000Y-90141422D01*
X117115000Y-77160000D02*
X119800000Y-77160000D01*
X117115000Y-75240000D02*
X117115000Y-77160000D01*
X119800000Y-75240000D02*
X117115000Y-75240000D01*
X127315000Y-77160000D02*
X130000000Y-77160000D01*
X127315000Y-75240000D02*
X127315000Y-77160000D01*
X130000000Y-75240000D02*
X127315000Y-75240000D01*
X147715000Y-77160000D02*
X150400000Y-77160000D01*
X147715000Y-75240000D02*
X147715000Y-77160000D01*
X150400000Y-75240000D02*
X147715000Y-75240000D01*
X167915000Y-77160000D02*
X170600000Y-77160000D01*
X167915000Y-75240000D02*
X167915000Y-77160000D01*
X170600000Y-75240000D02*
X167915000Y-75240000D01*
X177977500Y-77160000D02*
X180662500Y-77160000D01*
X177977500Y-75240000D02*
X177977500Y-77160000D01*
X180662500Y-75240000D02*
X177977500Y-75240000D01*
X137377500Y-77160000D02*
X140062500Y-77160000D01*
X137377500Y-75240000D02*
X137377500Y-77160000D01*
X140062500Y-75240000D02*
X137377500Y-75240000D01*
X124160000Y-88422500D02*
X124160000Y-85737500D01*
X122240000Y-88422500D02*
X124160000Y-88422500D01*
X122240000Y-85737500D02*
X122240000Y-88422500D01*
D12*
X129275000Y-88700000D02*
X127925000Y-88700000D01*
X129275000Y-93825000D02*
X133925000Y-93825000D01*
X129275000Y-88575000D02*
X133925000Y-88575000D01*
X129275000Y-93825000D02*
X129275000Y-93600000D01*
X133925000Y-93825000D02*
X133925000Y-93600000D01*
X133925000Y-88575000D02*
X133925000Y-88800000D01*
X129275000Y-88575000D02*
X129275000Y-88700000D01*
X120225000Y-73630000D02*
X114250000Y-73630000D01*
X118700000Y-66730000D02*
X114250000Y-66730000D01*
D10*
X155541422Y-76910000D02*
X156058578Y-76910000D01*
X155541422Y-75490000D02*
X156058578Y-75490000D01*
X157715000Y-77160000D02*
X160400000Y-77160000D01*
X157715000Y-75240000D02*
X157715000Y-77160000D01*
X160400000Y-75240000D02*
X157715000Y-75240000D01*
X176341422Y-92110000D02*
X176858578Y-92110000D01*
X176341422Y-90690000D02*
X176858578Y-90690000D01*
X177141422Y-79090000D02*
X177658578Y-79090000D01*
X177141422Y-80510000D02*
X177658578Y-80510000D01*
X176541422Y-102290000D02*
X177058578Y-102290000D01*
X176541422Y-103710000D02*
X177058578Y-103710000D01*
D12*
X114075000Y-101775000D02*
X114075000Y-101900000D01*
X118725000Y-101775000D02*
X118725000Y-102000000D01*
X118725000Y-107025000D02*
X118725000Y-106800000D01*
X114075000Y-107025000D02*
X114075000Y-106800000D01*
X114075000Y-101775000D02*
X118725000Y-101775000D01*
X114075000Y-107025000D02*
X118725000Y-107025000D01*
X114075000Y-101900000D02*
X112725000Y-101900000D01*
D10*
X172690000Y-143141422D02*
X172690000Y-143658578D01*
X174110000Y-143141422D02*
X174110000Y-143658578D01*
X122941422Y-102510000D02*
X123458578Y-102510000D01*
X122941422Y-101090000D02*
X123458578Y-101090000D01*
X125110000Y-79541422D02*
X125110000Y-80058578D01*
X123690000Y-79541422D02*
X123690000Y-80058578D01*
X183941422Y-51490000D02*
X184458578Y-51490000D01*
X183941422Y-52910000D02*
X184458578Y-52910000D01*
X144541422Y-60290000D02*
X145058578Y-60290000D01*
X144541422Y-61710000D02*
X145058578Y-61710000D01*
X148258578Y-147910000D02*
X147741422Y-147910000D01*
X148258578Y-146490000D02*
X147741422Y-146490000D01*
X137658578Y-113090000D02*
X137141422Y-113090000D01*
X137658578Y-114510000D02*
X137141422Y-114510000D01*
D12*
X114075000Y-92375000D02*
X114075000Y-92500000D01*
X118725000Y-92375000D02*
X118725000Y-92600000D01*
X118725000Y-97625000D02*
X118725000Y-97400000D01*
X114075000Y-97625000D02*
X114075000Y-97400000D01*
X114075000Y-92375000D02*
X118725000Y-92375000D01*
X114075000Y-97625000D02*
X118725000Y-97625000D01*
X114075000Y-92500000D02*
X112725000Y-92500000D01*
X120150000Y-88250000D02*
X114175000Y-88250000D01*
X118625000Y-81350000D02*
X114175000Y-81350000D01*
D10*
X191400000Y-115740000D02*
X189450000Y-115740000D01*
X191400000Y-115740000D02*
X193350000Y-115740000D01*
X191400000Y-125860000D02*
X189450000Y-125860000D01*
X191400000Y-125860000D02*
X194850000Y-125860000D01*
X188400000Y-140660000D02*
X191850000Y-140660000D01*
X188400000Y-140660000D02*
X186450000Y-140660000D01*
X188400000Y-130540000D02*
X190350000Y-130540000D01*
X188400000Y-130540000D02*
X186450000Y-130540000D01*
X182000000Y-125860000D02*
X183950000Y-125860000D01*
X182000000Y-125860000D02*
X180050000Y-125860000D01*
X182000000Y-115740000D02*
X183950000Y-115740000D01*
X182000000Y-115740000D02*
X178550000Y-115740000D01*
X179000000Y-130540000D02*
X175550000Y-130540000D01*
X179000000Y-130540000D02*
X180950000Y-130540000D01*
X179000000Y-140660000D02*
X177050000Y-140660000D01*
X179000000Y-140660000D02*
X180950000Y-140660000D01*
D12*
X129275000Y-79775000D02*
X129275000Y-79900000D01*
X133925000Y-79775000D02*
X133925000Y-80000000D01*
X133925000Y-85025000D02*
X133925000Y-84800000D01*
X129275000Y-85025000D02*
X129275000Y-84800000D01*
X129275000Y-79775000D02*
X133925000Y-79775000D01*
X129275000Y-85025000D02*
X133925000Y-85025000D01*
X129275000Y-79900000D02*
X127925000Y-79900000D01*
X139020000Y-66730000D02*
X134570000Y-66730000D01*
X140545000Y-73630000D02*
X134570000Y-73630000D01*
X122575000Y-52775000D02*
X122575000Y-52900000D01*
X127225000Y-52775000D02*
X127225000Y-53000000D01*
X127225000Y-58025000D02*
X127225000Y-57800000D01*
X122575000Y-58025000D02*
X122575000Y-57800000D01*
X122575000Y-52775000D02*
X127225000Y-52775000D01*
X122575000Y-58025000D02*
X127225000Y-58025000D01*
X122575000Y-52900000D02*
X121225000Y-52900000D01*
X147000000Y-52675000D02*
X142600000Y-52675000D01*
X148575000Y-58200000D02*
X142600000Y-58200000D01*
X164875000Y-52575000D02*
X164875000Y-52700000D01*
X169525000Y-52575000D02*
X169525000Y-52800000D01*
X169525000Y-57825000D02*
X169525000Y-57600000D01*
X164875000Y-57825000D02*
X164875000Y-57600000D01*
X164875000Y-52575000D02*
X169525000Y-52575000D01*
X164875000Y-57825000D02*
X169525000Y-57825000D01*
X164875000Y-52700000D02*
X163525000Y-52700000D01*
X175075000Y-52575000D02*
X175075000Y-52700000D01*
X179725000Y-52575000D02*
X179725000Y-52800000D01*
X179725000Y-57825000D02*
X179725000Y-57600000D01*
X175075000Y-57825000D02*
X175075000Y-57600000D01*
X175075000Y-52575000D02*
X179725000Y-52575000D01*
X175075000Y-57825000D02*
X179725000Y-57825000D01*
X175075000Y-52700000D02*
X173725000Y-52700000D01*
X144475000Y-139500000D02*
X143125000Y-139500000D01*
X144475000Y-144625000D02*
X149125000Y-144625000D01*
X144475000Y-139375000D02*
X149125000Y-139375000D01*
X144475000Y-144625000D02*
X144475000Y-144400000D01*
X149125000Y-144625000D02*
X149125000Y-144400000D01*
X149125000Y-139375000D02*
X149125000Y-139600000D01*
X144475000Y-139375000D02*
X144475000Y-139500000D01*
X179660000Y-66730000D02*
X175210000Y-66730000D01*
X181185000Y-73630000D02*
X175210000Y-73630000D01*
X171025000Y-73630000D02*
X165050000Y-73630000D01*
X169500000Y-66730000D02*
X165050000Y-66730000D01*
X128860000Y-66730000D02*
X124410000Y-66730000D01*
X130385000Y-73630000D02*
X124410000Y-73630000D01*
X150750000Y-73650000D02*
X144775000Y-73650000D01*
X149225000Y-66750000D02*
X144775000Y-66750000D01*
X159340000Y-66730000D02*
X154890000Y-66730000D01*
X160865000Y-73630000D02*
X154890000Y-73630000D01*
D10*
X158000000Y-123235000D02*
X159950000Y-123235000D01*
X158000000Y-123235000D02*
X156050000Y-123235000D01*
X158000000Y-114365000D02*
X159950000Y-114365000D01*
X158000000Y-114365000D02*
X154550000Y-114365000D01*
X158000000Y-102898332D02*
X154550000Y-102898332D01*
X158000000Y-102898332D02*
X159950000Y-102898332D01*
X158000000Y-111768332D02*
X156050000Y-111768332D01*
X158000000Y-111768332D02*
X159950000Y-111768332D01*
X158000000Y-100301666D02*
X159950000Y-100301666D01*
X158000000Y-100301666D02*
X156050000Y-100301666D01*
X158000000Y-91431666D02*
X159950000Y-91431666D01*
X158000000Y-91431666D02*
X154550000Y-91431666D01*
X158000000Y-79965000D02*
X154550000Y-79965000D01*
X158000000Y-79965000D02*
X159950000Y-79965000D01*
X158000000Y-88835000D02*
X156050000Y-88835000D01*
X158000000Y-88835000D02*
X159950000Y-88835000D01*
X170400000Y-123235000D02*
X172350000Y-123235000D01*
X170400000Y-123235000D02*
X168450000Y-123235000D01*
X170400000Y-114365000D02*
X172350000Y-114365000D01*
X170400000Y-114365000D02*
X166950000Y-114365000D01*
X170400000Y-102898332D02*
X166950000Y-102898332D01*
X170400000Y-102898332D02*
X172350000Y-102898332D01*
X170400000Y-111768332D02*
X168450000Y-111768332D01*
X170400000Y-111768332D02*
X172350000Y-111768332D01*
X170400000Y-91431666D02*
X166950000Y-91431666D01*
X170400000Y-91431666D02*
X172350000Y-91431666D01*
X170400000Y-100301666D02*
X168450000Y-100301666D01*
X170400000Y-100301666D02*
X172350000Y-100301666D01*
X170400000Y-88835000D02*
X172350000Y-88835000D01*
X170400000Y-88835000D02*
X168450000Y-88835000D01*
X170400000Y-79965000D02*
X172350000Y-79965000D01*
X170400000Y-79965000D02*
X166950000Y-79965000D01*
D12*
X141875000Y-115471000D02*
X141875000Y-115596000D01*
X146525000Y-115471000D02*
X146525000Y-115696000D01*
X146525000Y-120721000D02*
X146525000Y-120496000D01*
X141875000Y-120721000D02*
X141875000Y-120496000D01*
X141875000Y-115471000D02*
X146525000Y-115471000D01*
X141875000Y-120721000D02*
X146525000Y-120721000D01*
X141875000Y-115596000D02*
X140525000Y-115596000D01*
X142275000Y-79855000D02*
X142275000Y-79980000D01*
X146925000Y-79855000D02*
X146925000Y-80080000D01*
X146925000Y-85105000D02*
X146925000Y-84880000D01*
X142275000Y-85105000D02*
X142275000Y-84880000D01*
X142275000Y-79855000D02*
X146925000Y-79855000D01*
X142275000Y-85105000D02*
X146925000Y-85105000D01*
X142275000Y-79980000D02*
X140925000Y-79980000D01*
X141875000Y-124500000D02*
X140525000Y-124500000D01*
X141875000Y-129625000D02*
X146525000Y-129625000D01*
X141875000Y-124375000D02*
X146525000Y-124375000D01*
X141875000Y-129625000D02*
X141875000Y-129400000D01*
X146525000Y-129625000D02*
X146525000Y-129400000D01*
X146525000Y-124375000D02*
X146525000Y-124600000D01*
X141875000Y-124375000D02*
X141875000Y-124500000D01*
X142275000Y-88884000D02*
X140925000Y-88884000D01*
X142275000Y-94009000D02*
X146925000Y-94009000D01*
X142275000Y-88759000D02*
X146925000Y-88759000D01*
X142275000Y-94009000D02*
X142275000Y-93784000D01*
X146925000Y-94009000D02*
X146925000Y-93784000D01*
X146925000Y-88759000D02*
X146925000Y-88984000D01*
X142275000Y-88759000D02*
X142275000Y-88884000D01*
X142275000Y-106692000D02*
X140925000Y-106692000D01*
X142275000Y-111817000D02*
X146925000Y-111817000D01*
X142275000Y-106567000D02*
X146925000Y-106567000D01*
X142275000Y-111817000D02*
X142275000Y-111592000D01*
X146925000Y-111817000D02*
X146925000Y-111592000D01*
X146925000Y-106567000D02*
X146925000Y-106792000D01*
X142275000Y-106567000D02*
X142275000Y-106692000D01*
X142275000Y-97788000D02*
X140925000Y-97788000D01*
X142275000Y-102913000D02*
X146925000Y-102913000D01*
X142275000Y-97663000D02*
X146925000Y-97663000D01*
X142275000Y-102913000D02*
X142275000Y-102688000D01*
X146925000Y-102913000D02*
X146925000Y-102688000D01*
X146925000Y-97663000D02*
X146925000Y-97888000D01*
X142275000Y-97663000D02*
X142275000Y-97788000D01*
D10*
X162000000Y-147435000D02*
X163950000Y-147435000D01*
X162000000Y-147435000D02*
X160050000Y-147435000D01*
X162000000Y-138565000D02*
X163950000Y-138565000D01*
X162000000Y-138565000D02*
X158550000Y-138565000D01*
D12*
X155275000Y-52700000D02*
X153925000Y-52700000D01*
X155275000Y-57825000D02*
X159925000Y-57825000D01*
X155275000Y-52575000D02*
X159925000Y-52575000D01*
X155275000Y-57825000D02*
X155275000Y-57600000D01*
X159925000Y-57825000D02*
X159925000Y-57600000D01*
X159925000Y-52575000D02*
X159925000Y-52800000D01*
X155275000Y-52575000D02*
X155275000Y-52700000D01*
X132275000Y-52775000D02*
X132275000Y-52900000D01*
X136925000Y-52775000D02*
X136925000Y-53000000D01*
X136925000Y-58025000D02*
X136925000Y-57800000D01*
X132275000Y-58025000D02*
X132275000Y-57800000D01*
X132275000Y-52775000D02*
X136925000Y-52775000D01*
X132275000Y-58025000D02*
X136925000Y-58025000D01*
X132275000Y-52900000D02*
X130925000Y-52900000D01*
X112807142Y-134166666D02*
X112854761Y-134214285D01*
X112902380Y-134357142D01*
X112902380Y-134452380D01*
X112854761Y-134595238D01*
X112759523Y-134690476D01*
X112664285Y-134738095D01*
X112473809Y-134785714D01*
X112330952Y-134785714D01*
X112140476Y-134738095D01*
X112045238Y-134690476D01*
X111950000Y-134595238D01*
X111902380Y-134452380D01*
X111902380Y-134357142D01*
X111950000Y-134214285D01*
X111997619Y-134166666D01*
X111902380Y-133833333D02*
X111902380Y-133214285D01*
X112283333Y-133547619D01*
X112283333Y-133404761D01*
X112330952Y-133309523D01*
X112378571Y-133261904D01*
X112473809Y-133214285D01*
X112711904Y-133214285D01*
X112807142Y-133261904D01*
X112854761Y-133309523D01*
X112902380Y-133404761D01*
X112902380Y-133690476D01*
X112854761Y-133785714D01*
X112807142Y-133833333D01*
X115033333Y-75002380D02*
X114700000Y-74526190D01*
X114461904Y-75002380D02*
X114461904Y-74002380D01*
X114842857Y-74002380D01*
X114938095Y-74050000D01*
X114985714Y-74097619D01*
X115033333Y-74192857D01*
X115033333Y-74335714D01*
X114985714Y-74430952D01*
X114938095Y-74478571D01*
X114842857Y-74526190D01*
X114461904Y-74526190D01*
X115366666Y-74002380D02*
X116033333Y-74002380D01*
X115604761Y-75002380D01*
X125233333Y-75002380D02*
X124900000Y-74526190D01*
X124661904Y-75002380D02*
X124661904Y-74002380D01*
X125042857Y-74002380D01*
X125138095Y-74050000D01*
X125185714Y-74097619D01*
X125233333Y-74192857D01*
X125233333Y-74335714D01*
X125185714Y-74430952D01*
X125138095Y-74478571D01*
X125042857Y-74526190D01*
X124661904Y-74526190D01*
X126090476Y-74002380D02*
X125900000Y-74002380D01*
X125804761Y-74050000D01*
X125757142Y-74097619D01*
X125661904Y-74240476D01*
X125614285Y-74430952D01*
X125614285Y-74811904D01*
X125661904Y-74907142D01*
X125709523Y-74954761D01*
X125804761Y-75002380D01*
X125995238Y-75002380D01*
X126090476Y-74954761D01*
X126138095Y-74907142D01*
X126185714Y-74811904D01*
X126185714Y-74573809D01*
X126138095Y-74478571D01*
X126090476Y-74430952D01*
X125995238Y-74383333D01*
X125804761Y-74383333D01*
X125709523Y-74430952D01*
X125661904Y-74478571D01*
X125614285Y-74573809D01*
X145633333Y-75002380D02*
X145300000Y-74526190D01*
X145061904Y-75002380D02*
X145061904Y-74002380D01*
X145442857Y-74002380D01*
X145538095Y-74050000D01*
X145585714Y-74097619D01*
X145633333Y-74192857D01*
X145633333Y-74335714D01*
X145585714Y-74430952D01*
X145538095Y-74478571D01*
X145442857Y-74526190D01*
X145061904Y-74526190D01*
X146538095Y-74002380D02*
X146061904Y-74002380D01*
X146014285Y-74478571D01*
X146061904Y-74430952D01*
X146157142Y-74383333D01*
X146395238Y-74383333D01*
X146490476Y-74430952D01*
X146538095Y-74478571D01*
X146585714Y-74573809D01*
X146585714Y-74811904D01*
X146538095Y-74907142D01*
X146490476Y-74954761D01*
X146395238Y-75002380D01*
X146157142Y-75002380D01*
X146061904Y-74954761D01*
X146014285Y-74907142D01*
X165833333Y-75002380D02*
X165500000Y-74526190D01*
X165261904Y-75002380D02*
X165261904Y-74002380D01*
X165642857Y-74002380D01*
X165738095Y-74050000D01*
X165785714Y-74097619D01*
X165833333Y-74192857D01*
X165833333Y-74335714D01*
X165785714Y-74430952D01*
X165738095Y-74478571D01*
X165642857Y-74526190D01*
X165261904Y-74526190D01*
X166690476Y-74335714D02*
X166690476Y-75002380D01*
X166452380Y-73954761D02*
X166214285Y-74669047D01*
X166833333Y-74669047D01*
X175833333Y-75002380D02*
X175500000Y-74526190D01*
X175261904Y-75002380D02*
X175261904Y-74002380D01*
X175642857Y-74002380D01*
X175738095Y-74050000D01*
X175785714Y-74097619D01*
X175833333Y-74192857D01*
X175833333Y-74335714D01*
X175785714Y-74430952D01*
X175738095Y-74478571D01*
X175642857Y-74526190D01*
X175261904Y-74526190D01*
X176166666Y-74002380D02*
X176785714Y-74002380D01*
X176452380Y-74383333D01*
X176595238Y-74383333D01*
X176690476Y-74430952D01*
X176738095Y-74478571D01*
X176785714Y-74573809D01*
X176785714Y-74811904D01*
X176738095Y-74907142D01*
X176690476Y-74954761D01*
X176595238Y-75002380D01*
X176309523Y-75002380D01*
X176214285Y-74954761D01*
X176166666Y-74907142D01*
X135233333Y-75002380D02*
X134900000Y-74526190D01*
X134661904Y-75002380D02*
X134661904Y-74002380D01*
X135042857Y-74002380D01*
X135138095Y-74050000D01*
X135185714Y-74097619D01*
X135233333Y-74192857D01*
X135233333Y-74335714D01*
X135185714Y-74430952D01*
X135138095Y-74478571D01*
X135042857Y-74526190D01*
X134661904Y-74526190D01*
X135614285Y-74097619D02*
X135661904Y-74050000D01*
X135757142Y-74002380D01*
X135995238Y-74002380D01*
X136090476Y-74050000D01*
X136138095Y-74097619D01*
X136185714Y-74192857D01*
X136185714Y-74288095D01*
X136138095Y-74430952D01*
X135566666Y-75002380D01*
X136185714Y-75002380D01*
X121952380Y-90566666D02*
X121476190Y-90900000D01*
X121952380Y-91138095D02*
X120952380Y-91138095D01*
X120952380Y-90757142D01*
X121000000Y-90661904D01*
X121047619Y-90614285D01*
X121142857Y-90566666D01*
X121285714Y-90566666D01*
X121380952Y-90614285D01*
X121428571Y-90661904D01*
X121476190Y-90757142D01*
X121476190Y-91138095D01*
X121952380Y-89614285D02*
X121952380Y-90185714D01*
X121952380Y-89900000D02*
X120952380Y-89900000D01*
X121095238Y-89995238D01*
X121190476Y-90090476D01*
X121238095Y-90185714D01*
X118061904Y-75002380D02*
X118061904Y-74002380D01*
X118300000Y-74002380D01*
X118442857Y-74050000D01*
X118538095Y-74145238D01*
X118585714Y-74240476D01*
X118633333Y-74430952D01*
X118633333Y-74573809D01*
X118585714Y-74764285D01*
X118538095Y-74859523D01*
X118442857Y-74954761D01*
X118300000Y-75002380D01*
X118061904Y-75002380D01*
X118966666Y-74002380D02*
X119633333Y-74002380D01*
X119204761Y-75002380D01*
X128261904Y-75002380D02*
X128261904Y-74002380D01*
X128500000Y-74002380D01*
X128642857Y-74050000D01*
X128738095Y-74145238D01*
X128785714Y-74240476D01*
X128833333Y-74430952D01*
X128833333Y-74573809D01*
X128785714Y-74764285D01*
X128738095Y-74859523D01*
X128642857Y-74954761D01*
X128500000Y-75002380D01*
X128261904Y-75002380D01*
X129690476Y-74002380D02*
X129500000Y-74002380D01*
X129404761Y-74050000D01*
X129357142Y-74097619D01*
X129261904Y-74240476D01*
X129214285Y-74430952D01*
X129214285Y-74811904D01*
X129261904Y-74907142D01*
X129309523Y-74954761D01*
X129404761Y-75002380D01*
X129595238Y-75002380D01*
X129690476Y-74954761D01*
X129738095Y-74907142D01*
X129785714Y-74811904D01*
X129785714Y-74573809D01*
X129738095Y-74478571D01*
X129690476Y-74430952D01*
X129595238Y-74383333D01*
X129404761Y-74383333D01*
X129309523Y-74430952D01*
X129261904Y-74478571D01*
X129214285Y-74573809D01*
X148661904Y-75002380D02*
X148661904Y-74002380D01*
X148900000Y-74002380D01*
X149042857Y-74050000D01*
X149138095Y-74145238D01*
X149185714Y-74240476D01*
X149233333Y-74430952D01*
X149233333Y-74573809D01*
X149185714Y-74764285D01*
X149138095Y-74859523D01*
X149042857Y-74954761D01*
X148900000Y-75002380D01*
X148661904Y-75002380D01*
X150138095Y-74002380D02*
X149661904Y-74002380D01*
X149614285Y-74478571D01*
X149661904Y-74430952D01*
X149757142Y-74383333D01*
X149995238Y-74383333D01*
X150090476Y-74430952D01*
X150138095Y-74478571D01*
X150185714Y-74573809D01*
X150185714Y-74811904D01*
X150138095Y-74907142D01*
X150090476Y-74954761D01*
X149995238Y-75002380D01*
X149757142Y-75002380D01*
X149661904Y-74954761D01*
X149614285Y-74907142D01*
X168861904Y-75002380D02*
X168861904Y-74002380D01*
X169100000Y-74002380D01*
X169242857Y-74050000D01*
X169338095Y-74145238D01*
X169385714Y-74240476D01*
X169433333Y-74430952D01*
X169433333Y-74573809D01*
X169385714Y-74764285D01*
X169338095Y-74859523D01*
X169242857Y-74954761D01*
X169100000Y-75002380D01*
X168861904Y-75002380D01*
X170290476Y-74335714D02*
X170290476Y-75002380D01*
X170052380Y-73954761D02*
X169814285Y-74669047D01*
X170433333Y-74669047D01*
X178924404Y-75002380D02*
X178924404Y-74002380D01*
X179162500Y-74002380D01*
X179305357Y-74050000D01*
X179400595Y-74145238D01*
X179448214Y-74240476D01*
X179495833Y-74430952D01*
X179495833Y-74573809D01*
X179448214Y-74764285D01*
X179400595Y-74859523D01*
X179305357Y-74954761D01*
X179162500Y-75002380D01*
X178924404Y-75002380D01*
X179829166Y-74002380D02*
X180448214Y-74002380D01*
X180114880Y-74383333D01*
X180257738Y-74383333D01*
X180352976Y-74430952D01*
X180400595Y-74478571D01*
X180448214Y-74573809D01*
X180448214Y-74811904D01*
X180400595Y-74907142D01*
X180352976Y-74954761D01*
X180257738Y-75002380D01*
X179972023Y-75002380D01*
X179876785Y-74954761D01*
X179829166Y-74907142D01*
X138324404Y-75002380D02*
X138324404Y-74002380D01*
X138562500Y-74002380D01*
X138705357Y-74050000D01*
X138800595Y-74145238D01*
X138848214Y-74240476D01*
X138895833Y-74430952D01*
X138895833Y-74573809D01*
X138848214Y-74764285D01*
X138800595Y-74859523D01*
X138705357Y-74954761D01*
X138562500Y-75002380D01*
X138324404Y-75002380D01*
X139276785Y-74097619D02*
X139324404Y-74050000D01*
X139419642Y-74002380D01*
X139657738Y-74002380D01*
X139752976Y-74050000D01*
X139800595Y-74097619D01*
X139848214Y-74192857D01*
X139848214Y-74288095D01*
X139800595Y-74430952D01*
X139229166Y-75002380D01*
X139848214Y-75002380D01*
X121952380Y-87475595D02*
X120952380Y-87475595D01*
X120952380Y-87237500D01*
X121000000Y-87094642D01*
X121095238Y-86999404D01*
X121190476Y-86951785D01*
X121380952Y-86904166D01*
X121523809Y-86904166D01*
X121714285Y-86951785D01*
X121809523Y-86999404D01*
X121904761Y-87094642D01*
X121952380Y-87237500D01*
X121952380Y-87475595D01*
X121952380Y-85951785D02*
X121952380Y-86523214D01*
X121952380Y-86237500D02*
X120952380Y-86237500D01*
X121095238Y-86332738D01*
X121190476Y-86427976D01*
X121238095Y-86523214D01*
X130838095Y-87102380D02*
X130838095Y-87911904D01*
X130885714Y-88007142D01*
X130933333Y-88054761D01*
X131028571Y-88102380D01*
X131219047Y-88102380D01*
X131314285Y-88054761D01*
X131361904Y-88007142D01*
X131409523Y-87911904D01*
X131409523Y-87102380D01*
X131933333Y-88102380D02*
X132123809Y-88102380D01*
X132219047Y-88054761D01*
X132266666Y-88007142D01*
X132361904Y-87864285D01*
X132409523Y-87673809D01*
X132409523Y-87292857D01*
X132361904Y-87197619D01*
X132314285Y-87150000D01*
X132219047Y-87102380D01*
X132028571Y-87102380D01*
X131933333Y-87150000D01*
X131885714Y-87197619D01*
X131838095Y-87292857D01*
X131838095Y-87530952D01*
X131885714Y-87626190D01*
X131933333Y-87673809D01*
X132028571Y-87721428D01*
X132219047Y-87721428D01*
X132314285Y-87673809D01*
X132361904Y-87626190D01*
X132409523Y-87530952D01*
X115236904Y-65052380D02*
X115236904Y-65861904D01*
X115284523Y-65957142D01*
X115332142Y-66004761D01*
X115427380Y-66052380D01*
X115617857Y-66052380D01*
X115713095Y-66004761D01*
X115760714Y-65957142D01*
X115808333Y-65861904D01*
X115808333Y-65052380D01*
X116808333Y-66052380D02*
X116236904Y-66052380D01*
X116522619Y-66052380D02*
X116522619Y-65052380D01*
X116427380Y-65195238D01*
X116332142Y-65290476D01*
X116236904Y-65338095D01*
X117284523Y-66052380D02*
X117475000Y-66052380D01*
X117570238Y-66004761D01*
X117617857Y-65957142D01*
X117713095Y-65814285D01*
X117760714Y-65623809D01*
X117760714Y-65242857D01*
X117713095Y-65147619D01*
X117665476Y-65100000D01*
X117570238Y-65052380D01*
X117379761Y-65052380D01*
X117284523Y-65100000D01*
X117236904Y-65147619D01*
X117189285Y-65242857D01*
X117189285Y-65480952D01*
X117236904Y-65576190D01*
X117284523Y-65623809D01*
X117379761Y-65671428D01*
X117570238Y-65671428D01*
X117665476Y-65623809D01*
X117713095Y-65576190D01*
X117760714Y-65480952D01*
X155633333Y-75002380D02*
X155300000Y-74526190D01*
X155061904Y-75002380D02*
X155061904Y-74002380D01*
X155442857Y-74002380D01*
X155538095Y-74050000D01*
X155585714Y-74097619D01*
X155633333Y-74192857D01*
X155633333Y-74335714D01*
X155585714Y-74430952D01*
X155538095Y-74478571D01*
X155442857Y-74526190D01*
X155061904Y-74526190D01*
X156204761Y-74430952D02*
X156109523Y-74383333D01*
X156061904Y-74335714D01*
X156014285Y-74240476D01*
X156014285Y-74192857D01*
X156061904Y-74097619D01*
X156109523Y-74050000D01*
X156204761Y-74002380D01*
X156395238Y-74002380D01*
X156490476Y-74050000D01*
X156538095Y-74097619D01*
X156585714Y-74192857D01*
X156585714Y-74240476D01*
X156538095Y-74335714D01*
X156490476Y-74383333D01*
X156395238Y-74430952D01*
X156204761Y-74430952D01*
X156109523Y-74478571D01*
X156061904Y-74526190D01*
X156014285Y-74621428D01*
X156014285Y-74811904D01*
X156061904Y-74907142D01*
X156109523Y-74954761D01*
X156204761Y-75002380D01*
X156395238Y-75002380D01*
X156490476Y-74954761D01*
X156538095Y-74907142D01*
X156585714Y-74811904D01*
X156585714Y-74621428D01*
X156538095Y-74526190D01*
X156490476Y-74478571D01*
X156395238Y-74430952D01*
X158661904Y-75002380D02*
X158661904Y-74002380D01*
X158900000Y-74002380D01*
X159042857Y-74050000D01*
X159138095Y-74145238D01*
X159185714Y-74240476D01*
X159233333Y-74430952D01*
X159233333Y-74573809D01*
X159185714Y-74764285D01*
X159138095Y-74859523D01*
X159042857Y-74954761D01*
X158900000Y-75002380D01*
X158661904Y-75002380D01*
X159804761Y-74430952D02*
X159709523Y-74383333D01*
X159661904Y-74335714D01*
X159614285Y-74240476D01*
X159614285Y-74192857D01*
X159661904Y-74097619D01*
X159709523Y-74050000D01*
X159804761Y-74002380D01*
X159995238Y-74002380D01*
X160090476Y-74050000D01*
X160138095Y-74097619D01*
X160185714Y-74192857D01*
X160185714Y-74240476D01*
X160138095Y-74335714D01*
X160090476Y-74383333D01*
X159995238Y-74430952D01*
X159804761Y-74430952D01*
X159709523Y-74478571D01*
X159661904Y-74526190D01*
X159614285Y-74621428D01*
X159614285Y-74811904D01*
X159661904Y-74907142D01*
X159709523Y-74954761D01*
X159804761Y-75002380D01*
X159995238Y-75002380D01*
X160090476Y-74954761D01*
X160138095Y-74907142D01*
X160185714Y-74811904D01*
X160185714Y-74621428D01*
X160138095Y-74526190D01*
X160090476Y-74478571D01*
X159995238Y-74430952D01*
X176433333Y-90107142D02*
X176385714Y-90154761D01*
X176242857Y-90202380D01*
X176147619Y-90202380D01*
X176004761Y-90154761D01*
X175909523Y-90059523D01*
X175861904Y-89964285D01*
X175814285Y-89773809D01*
X175814285Y-89630952D01*
X175861904Y-89440476D01*
X175909523Y-89345238D01*
X176004761Y-89250000D01*
X176147619Y-89202380D01*
X176242857Y-89202380D01*
X176385714Y-89250000D01*
X176433333Y-89297619D01*
X177385714Y-90202380D02*
X176814285Y-90202380D01*
X177100000Y-90202380D02*
X177100000Y-89202380D01*
X177004761Y-89345238D01*
X176909523Y-89440476D01*
X176814285Y-89488095D01*
X177233333Y-78507142D02*
X177185714Y-78554761D01*
X177042857Y-78602380D01*
X176947619Y-78602380D01*
X176804761Y-78554761D01*
X176709523Y-78459523D01*
X176661904Y-78364285D01*
X176614285Y-78173809D01*
X176614285Y-78030952D01*
X176661904Y-77840476D01*
X176709523Y-77745238D01*
X176804761Y-77650000D01*
X176947619Y-77602380D01*
X177042857Y-77602380D01*
X177185714Y-77650000D01*
X177233333Y-77697619D01*
X177614285Y-77697619D02*
X177661904Y-77650000D01*
X177757142Y-77602380D01*
X177995238Y-77602380D01*
X178090476Y-77650000D01*
X178138095Y-77697619D01*
X178185714Y-77792857D01*
X178185714Y-77888095D01*
X178138095Y-78030952D01*
X177566666Y-78602380D01*
X178185714Y-78602380D01*
X176633333Y-101707142D02*
X176585714Y-101754761D01*
X176442857Y-101802380D01*
X176347619Y-101802380D01*
X176204761Y-101754761D01*
X176109523Y-101659523D01*
X176061904Y-101564285D01*
X176014285Y-101373809D01*
X176014285Y-101230952D01*
X176061904Y-101040476D01*
X176109523Y-100945238D01*
X176204761Y-100850000D01*
X176347619Y-100802380D01*
X176442857Y-100802380D01*
X176585714Y-100850000D01*
X176633333Y-100897619D01*
X177490476Y-101135714D02*
X177490476Y-101802380D01*
X177252380Y-100754761D02*
X177014285Y-101469047D01*
X177633333Y-101469047D01*
X115638095Y-100302380D02*
X115638095Y-101111904D01*
X115685714Y-101207142D01*
X115733333Y-101254761D01*
X115828571Y-101302380D01*
X116019047Y-101302380D01*
X116114285Y-101254761D01*
X116161904Y-101207142D01*
X116209523Y-101111904D01*
X116209523Y-100302380D01*
X116638095Y-100397619D02*
X116685714Y-100350000D01*
X116780952Y-100302380D01*
X117019047Y-100302380D01*
X117114285Y-100350000D01*
X117161904Y-100397619D01*
X117209523Y-100492857D01*
X117209523Y-100588095D01*
X117161904Y-100730952D01*
X116590476Y-101302380D01*
X117209523Y-101302380D01*
X175407142Y-143566666D02*
X175454761Y-143614285D01*
X175502380Y-143757142D01*
X175502380Y-143852380D01*
X175454761Y-143995238D01*
X175359523Y-144090476D01*
X175264285Y-144138095D01*
X175073809Y-144185714D01*
X174930952Y-144185714D01*
X174740476Y-144138095D01*
X174645238Y-144090476D01*
X174550000Y-143995238D01*
X174502380Y-143852380D01*
X174502380Y-143757142D01*
X174550000Y-143614285D01*
X174597619Y-143566666D01*
X174502380Y-142661904D02*
X174502380Y-143138095D01*
X174978571Y-143185714D01*
X174930952Y-143138095D01*
X174883333Y-143042857D01*
X174883333Y-142804761D01*
X174930952Y-142709523D01*
X174978571Y-142661904D01*
X175073809Y-142614285D01*
X175311904Y-142614285D01*
X175407142Y-142661904D01*
X175454761Y-142709523D01*
X175502380Y-142804761D01*
X175502380Y-143042857D01*
X175454761Y-143138095D01*
X175407142Y-143185714D01*
X123033333Y-100507142D02*
X122985714Y-100554761D01*
X122842857Y-100602380D01*
X122747619Y-100602380D01*
X122604761Y-100554761D01*
X122509523Y-100459523D01*
X122461904Y-100364285D01*
X122414285Y-100173809D01*
X122414285Y-100030952D01*
X122461904Y-99840476D01*
X122509523Y-99745238D01*
X122604761Y-99650000D01*
X122747619Y-99602380D01*
X122842857Y-99602380D01*
X122985714Y-99650000D01*
X123033333Y-99697619D01*
X123890476Y-99602380D02*
X123700000Y-99602380D01*
X123604761Y-99650000D01*
X123557142Y-99697619D01*
X123461904Y-99840476D01*
X123414285Y-100030952D01*
X123414285Y-100411904D01*
X123461904Y-100507142D01*
X123509523Y-100554761D01*
X123604761Y-100602380D01*
X123795238Y-100602380D01*
X123890476Y-100554761D01*
X123938095Y-100507142D01*
X123985714Y-100411904D01*
X123985714Y-100173809D01*
X123938095Y-100078571D01*
X123890476Y-100030952D01*
X123795238Y-99983333D01*
X123604761Y-99983333D01*
X123509523Y-100030952D01*
X123461904Y-100078571D01*
X123414285Y-100173809D01*
X126407142Y-79966666D02*
X126454761Y-80014285D01*
X126502380Y-80157142D01*
X126502380Y-80252380D01*
X126454761Y-80395238D01*
X126359523Y-80490476D01*
X126264285Y-80538095D01*
X126073809Y-80585714D01*
X125930952Y-80585714D01*
X125740476Y-80538095D01*
X125645238Y-80490476D01*
X125550000Y-80395238D01*
X125502380Y-80252380D01*
X125502380Y-80157142D01*
X125550000Y-80014285D01*
X125597619Y-79966666D01*
X125502380Y-79633333D02*
X125502380Y-78966666D01*
X126502380Y-79395238D01*
X184033333Y-54357142D02*
X183985714Y-54404761D01*
X183842857Y-54452380D01*
X183747619Y-54452380D01*
X183604761Y-54404761D01*
X183509523Y-54309523D01*
X183461904Y-54214285D01*
X183414285Y-54023809D01*
X183414285Y-53880952D01*
X183461904Y-53690476D01*
X183509523Y-53595238D01*
X183604761Y-53500000D01*
X183747619Y-53452380D01*
X183842857Y-53452380D01*
X183985714Y-53500000D01*
X184033333Y-53547619D01*
X184604761Y-53880952D02*
X184509523Y-53833333D01*
X184461904Y-53785714D01*
X184414285Y-53690476D01*
X184414285Y-53642857D01*
X184461904Y-53547619D01*
X184509523Y-53500000D01*
X184604761Y-53452380D01*
X184795238Y-53452380D01*
X184890476Y-53500000D01*
X184938095Y-53547619D01*
X184985714Y-53642857D01*
X184985714Y-53690476D01*
X184938095Y-53785714D01*
X184890476Y-53833333D01*
X184795238Y-53880952D01*
X184604761Y-53880952D01*
X184509523Y-53928571D01*
X184461904Y-53976190D01*
X184414285Y-54071428D01*
X184414285Y-54261904D01*
X184461904Y-54357142D01*
X184509523Y-54404761D01*
X184604761Y-54452380D01*
X184795238Y-54452380D01*
X184890476Y-54404761D01*
X184938095Y-54357142D01*
X184985714Y-54261904D01*
X184985714Y-54071428D01*
X184938095Y-53976190D01*
X184890476Y-53928571D01*
X184795238Y-53880952D01*
X144633333Y-59707142D02*
X144585714Y-59754761D01*
X144442857Y-59802380D01*
X144347619Y-59802380D01*
X144204761Y-59754761D01*
X144109523Y-59659523D01*
X144061904Y-59564285D01*
X144014285Y-59373809D01*
X144014285Y-59230952D01*
X144061904Y-59040476D01*
X144109523Y-58945238D01*
X144204761Y-58850000D01*
X144347619Y-58802380D01*
X144442857Y-58802380D01*
X144585714Y-58850000D01*
X144633333Y-58897619D01*
X145109523Y-59802380D02*
X145300000Y-59802380D01*
X145395238Y-59754761D01*
X145442857Y-59707142D01*
X145538095Y-59564285D01*
X145585714Y-59373809D01*
X145585714Y-58992857D01*
X145538095Y-58897619D01*
X145490476Y-58850000D01*
X145395238Y-58802380D01*
X145204761Y-58802380D01*
X145109523Y-58850000D01*
X145061904Y-58897619D01*
X145014285Y-58992857D01*
X145014285Y-59230952D01*
X145061904Y-59326190D01*
X145109523Y-59373809D01*
X145204761Y-59421428D01*
X145395238Y-59421428D01*
X145490476Y-59373809D01*
X145538095Y-59326190D01*
X145585714Y-59230952D01*
X147357142Y-149207142D02*
X147309523Y-149254761D01*
X147166666Y-149302380D01*
X147071428Y-149302380D01*
X146928571Y-149254761D01*
X146833333Y-149159523D01*
X146785714Y-149064285D01*
X146738095Y-148873809D01*
X146738095Y-148730952D01*
X146785714Y-148540476D01*
X146833333Y-148445238D01*
X146928571Y-148350000D01*
X147071428Y-148302380D01*
X147166666Y-148302380D01*
X147309523Y-148350000D01*
X147357142Y-148397619D01*
X148309523Y-149302380D02*
X147738095Y-149302380D01*
X148023809Y-149302380D02*
X148023809Y-148302380D01*
X147928571Y-148445238D01*
X147833333Y-148540476D01*
X147738095Y-148588095D01*
X148928571Y-148302380D02*
X149023809Y-148302380D01*
X149119047Y-148350000D01*
X149166666Y-148397619D01*
X149214285Y-148492857D01*
X149261904Y-148683333D01*
X149261904Y-148921428D01*
X149214285Y-149111904D01*
X149166666Y-149207142D01*
X149119047Y-149254761D01*
X149023809Y-149302380D01*
X148928571Y-149302380D01*
X148833333Y-149254761D01*
X148785714Y-149207142D01*
X148738095Y-149111904D01*
X148690476Y-148921428D01*
X148690476Y-148683333D01*
X148738095Y-148492857D01*
X148785714Y-148397619D01*
X148833333Y-148350000D01*
X148928571Y-148302380D01*
X136757142Y-115807142D02*
X136709523Y-115854761D01*
X136566666Y-115902380D01*
X136471428Y-115902380D01*
X136328571Y-115854761D01*
X136233333Y-115759523D01*
X136185714Y-115664285D01*
X136138095Y-115473809D01*
X136138095Y-115330952D01*
X136185714Y-115140476D01*
X136233333Y-115045238D01*
X136328571Y-114950000D01*
X136471428Y-114902380D01*
X136566666Y-114902380D01*
X136709523Y-114950000D01*
X136757142Y-114997619D01*
X137709523Y-115902380D02*
X137138095Y-115902380D01*
X137423809Y-115902380D02*
X137423809Y-114902380D01*
X137328571Y-115045238D01*
X137233333Y-115140476D01*
X137138095Y-115188095D01*
X138661904Y-115902380D02*
X138090476Y-115902380D01*
X138376190Y-115902380D02*
X138376190Y-114902380D01*
X138280952Y-115045238D01*
X138185714Y-115140476D01*
X138090476Y-115188095D01*
X115638095Y-90902380D02*
X115638095Y-91711904D01*
X115685714Y-91807142D01*
X115733333Y-91854761D01*
X115828571Y-91902380D01*
X116019047Y-91902380D01*
X116114285Y-91854761D01*
X116161904Y-91807142D01*
X116209523Y-91711904D01*
X116209523Y-90902380D01*
X117209523Y-91902380D02*
X116638095Y-91902380D01*
X116923809Y-91902380D02*
X116923809Y-90902380D01*
X116828571Y-91045238D01*
X116733333Y-91140476D01*
X116638095Y-91188095D01*
X115638095Y-79852380D02*
X115638095Y-80661904D01*
X115685714Y-80757142D01*
X115733333Y-80804761D01*
X115828571Y-80852380D01*
X116019047Y-80852380D01*
X116114285Y-80804761D01*
X116161904Y-80757142D01*
X116209523Y-80661904D01*
X116209523Y-79852380D01*
X116590476Y-79852380D02*
X117209523Y-79852380D01*
X116876190Y-80233333D01*
X117019047Y-80233333D01*
X117114285Y-80280952D01*
X117161904Y-80328571D01*
X117209523Y-80423809D01*
X117209523Y-80661904D01*
X117161904Y-80757142D01*
X117114285Y-80804761D01*
X117019047Y-80852380D01*
X116733333Y-80852380D01*
X116638095Y-80804761D01*
X116590476Y-80757142D01*
X190638095Y-114452380D02*
X190638095Y-115261904D01*
X190685714Y-115357142D01*
X190733333Y-115404761D01*
X190828571Y-115452380D01*
X191019047Y-115452380D01*
X191114285Y-115404761D01*
X191161904Y-115357142D01*
X191209523Y-115261904D01*
X191209523Y-114452380D01*
X192114285Y-114785714D02*
X192114285Y-115452380D01*
X191876190Y-114404761D02*
X191638095Y-115119047D01*
X192257142Y-115119047D01*
X187638095Y-129052380D02*
X187638095Y-129861904D01*
X187685714Y-129957142D01*
X187733333Y-130004761D01*
X187828571Y-130052380D01*
X188019047Y-130052380D01*
X188114285Y-130004761D01*
X188161904Y-129957142D01*
X188209523Y-129861904D01*
X188209523Y-129052380D01*
X189161904Y-129052380D02*
X188685714Y-129052380D01*
X188638095Y-129528571D01*
X188685714Y-129480952D01*
X188780952Y-129433333D01*
X189019047Y-129433333D01*
X189114285Y-129480952D01*
X189161904Y-129528571D01*
X189209523Y-129623809D01*
X189209523Y-129861904D01*
X189161904Y-129957142D01*
X189114285Y-130004761D01*
X189019047Y-130052380D01*
X188780952Y-130052380D01*
X188685714Y-130004761D01*
X188638095Y-129957142D01*
X181238095Y-114352380D02*
X181238095Y-115161904D01*
X181285714Y-115257142D01*
X181333333Y-115304761D01*
X181428571Y-115352380D01*
X181619047Y-115352380D01*
X181714285Y-115304761D01*
X181761904Y-115257142D01*
X181809523Y-115161904D01*
X181809523Y-114352380D01*
X182714285Y-114352380D02*
X182523809Y-114352380D01*
X182428571Y-114400000D01*
X182380952Y-114447619D01*
X182285714Y-114590476D01*
X182238095Y-114780952D01*
X182238095Y-115161904D01*
X182285714Y-115257142D01*
X182333333Y-115304761D01*
X182428571Y-115352380D01*
X182619047Y-115352380D01*
X182714285Y-115304761D01*
X182761904Y-115257142D01*
X182809523Y-115161904D01*
X182809523Y-114923809D01*
X182761904Y-114828571D01*
X182714285Y-114780952D01*
X182619047Y-114733333D01*
X182428571Y-114733333D01*
X182333333Y-114780952D01*
X182285714Y-114828571D01*
X182238095Y-114923809D01*
X178238095Y-129152380D02*
X178238095Y-129961904D01*
X178285714Y-130057142D01*
X178333333Y-130104761D01*
X178428571Y-130152380D01*
X178619047Y-130152380D01*
X178714285Y-130104761D01*
X178761904Y-130057142D01*
X178809523Y-129961904D01*
X178809523Y-129152380D01*
X179190476Y-129152380D02*
X179857142Y-129152380D01*
X179428571Y-130152380D01*
X130838095Y-78302380D02*
X130838095Y-79111904D01*
X130885714Y-79207142D01*
X130933333Y-79254761D01*
X131028571Y-79302380D01*
X131219047Y-79302380D01*
X131314285Y-79254761D01*
X131361904Y-79207142D01*
X131409523Y-79111904D01*
X131409523Y-78302380D01*
X132028571Y-78730952D02*
X131933333Y-78683333D01*
X131885714Y-78635714D01*
X131838095Y-78540476D01*
X131838095Y-78492857D01*
X131885714Y-78397619D01*
X131933333Y-78350000D01*
X132028571Y-78302380D01*
X132219047Y-78302380D01*
X132314285Y-78350000D01*
X132361904Y-78397619D01*
X132409523Y-78492857D01*
X132409523Y-78540476D01*
X132361904Y-78635714D01*
X132314285Y-78683333D01*
X132219047Y-78730952D01*
X132028571Y-78730952D01*
X131933333Y-78778571D01*
X131885714Y-78826190D01*
X131838095Y-78921428D01*
X131838095Y-79111904D01*
X131885714Y-79207142D01*
X131933333Y-79254761D01*
X132028571Y-79302380D01*
X132219047Y-79302380D01*
X132314285Y-79254761D01*
X132361904Y-79207142D01*
X132409523Y-79111904D01*
X132409523Y-78921428D01*
X132361904Y-78826190D01*
X132314285Y-78778571D01*
X132219047Y-78730952D01*
X135556904Y-65252380D02*
X135556904Y-66061904D01*
X135604523Y-66157142D01*
X135652142Y-66204761D01*
X135747380Y-66252380D01*
X135937857Y-66252380D01*
X136033095Y-66204761D01*
X136080714Y-66157142D01*
X136128333Y-66061904D01*
X136128333Y-65252380D01*
X137128333Y-66252380D02*
X136556904Y-66252380D01*
X136842619Y-66252380D02*
X136842619Y-65252380D01*
X136747380Y-65395238D01*
X136652142Y-65490476D01*
X136556904Y-65538095D01*
X137747380Y-65252380D02*
X137842619Y-65252380D01*
X137937857Y-65300000D01*
X137985476Y-65347619D01*
X138033095Y-65442857D01*
X138080714Y-65633333D01*
X138080714Y-65871428D01*
X138033095Y-66061904D01*
X137985476Y-66157142D01*
X137937857Y-66204761D01*
X137842619Y-66252380D01*
X137747380Y-66252380D01*
X137652142Y-66204761D01*
X137604523Y-66157142D01*
X137556904Y-66061904D01*
X137509285Y-65871428D01*
X137509285Y-65633333D01*
X137556904Y-65442857D01*
X137604523Y-65347619D01*
X137652142Y-65300000D01*
X137747380Y-65252380D01*
X123661904Y-51302380D02*
X123661904Y-52111904D01*
X123709523Y-52207142D01*
X123757142Y-52254761D01*
X123852380Y-52302380D01*
X124042857Y-52302380D01*
X124138095Y-52254761D01*
X124185714Y-52207142D01*
X124233333Y-52111904D01*
X124233333Y-51302380D01*
X125233333Y-52302380D02*
X124661904Y-52302380D01*
X124947619Y-52302380D02*
X124947619Y-51302380D01*
X124852380Y-51445238D01*
X124757142Y-51540476D01*
X124661904Y-51588095D01*
X126185714Y-52302380D02*
X125614285Y-52302380D01*
X125900000Y-52302380D02*
X125900000Y-51302380D01*
X125804761Y-51445238D01*
X125709523Y-51540476D01*
X125614285Y-51588095D01*
X143561904Y-51252380D02*
X143561904Y-52061904D01*
X143609523Y-52157142D01*
X143657142Y-52204761D01*
X143752380Y-52252380D01*
X143942857Y-52252380D01*
X144038095Y-52204761D01*
X144085714Y-52157142D01*
X144133333Y-52061904D01*
X144133333Y-51252380D01*
X145133333Y-52252380D02*
X144561904Y-52252380D01*
X144847619Y-52252380D02*
X144847619Y-51252380D01*
X144752380Y-51395238D01*
X144657142Y-51490476D01*
X144561904Y-51538095D01*
X145514285Y-51347619D02*
X145561904Y-51300000D01*
X145657142Y-51252380D01*
X145895238Y-51252380D01*
X145990476Y-51300000D01*
X146038095Y-51347619D01*
X146085714Y-51442857D01*
X146085714Y-51538095D01*
X146038095Y-51680952D01*
X145466666Y-52252380D01*
X146085714Y-52252380D01*
X165961904Y-51102380D02*
X165961904Y-51911904D01*
X166009523Y-52007142D01*
X166057142Y-52054761D01*
X166152380Y-52102380D01*
X166342857Y-52102380D01*
X166438095Y-52054761D01*
X166485714Y-52007142D01*
X166533333Y-51911904D01*
X166533333Y-51102380D01*
X167533333Y-52102380D02*
X166961904Y-52102380D01*
X167247619Y-52102380D02*
X167247619Y-51102380D01*
X167152380Y-51245238D01*
X167057142Y-51340476D01*
X166961904Y-51388095D01*
X167866666Y-51102380D02*
X168485714Y-51102380D01*
X168152380Y-51483333D01*
X168295238Y-51483333D01*
X168390476Y-51530952D01*
X168438095Y-51578571D01*
X168485714Y-51673809D01*
X168485714Y-51911904D01*
X168438095Y-52007142D01*
X168390476Y-52054761D01*
X168295238Y-52102380D01*
X168009523Y-52102380D01*
X167914285Y-52054761D01*
X167866666Y-52007142D01*
X176161904Y-51102380D02*
X176161904Y-51911904D01*
X176209523Y-52007142D01*
X176257142Y-52054761D01*
X176352380Y-52102380D01*
X176542857Y-52102380D01*
X176638095Y-52054761D01*
X176685714Y-52007142D01*
X176733333Y-51911904D01*
X176733333Y-51102380D01*
X177733333Y-52102380D02*
X177161904Y-52102380D01*
X177447619Y-52102380D02*
X177447619Y-51102380D01*
X177352380Y-51245238D01*
X177257142Y-51340476D01*
X177161904Y-51388095D01*
X178590476Y-51435714D02*
X178590476Y-52102380D01*
X178352380Y-51054761D02*
X178114285Y-51769047D01*
X178733333Y-51769047D01*
X145561904Y-137902380D02*
X145561904Y-138711904D01*
X145609523Y-138807142D01*
X145657142Y-138854761D01*
X145752380Y-138902380D01*
X145942857Y-138902380D01*
X146038095Y-138854761D01*
X146085714Y-138807142D01*
X146133333Y-138711904D01*
X146133333Y-137902380D01*
X147133333Y-138902380D02*
X146561904Y-138902380D01*
X146847619Y-138902380D02*
X146847619Y-137902380D01*
X146752380Y-138045238D01*
X146657142Y-138140476D01*
X146561904Y-138188095D01*
X148038095Y-137902380D02*
X147561904Y-137902380D01*
X147514285Y-138378571D01*
X147561904Y-138330952D01*
X147657142Y-138283333D01*
X147895238Y-138283333D01*
X147990476Y-138330952D01*
X148038095Y-138378571D01*
X148085714Y-138473809D01*
X148085714Y-138711904D01*
X148038095Y-138807142D01*
X147990476Y-138854761D01*
X147895238Y-138902380D01*
X147657142Y-138902380D01*
X147561904Y-138854761D01*
X147514285Y-138807142D01*
X176161904Y-65252380D02*
X176161904Y-66061904D01*
X176209523Y-66157142D01*
X176257142Y-66204761D01*
X176352380Y-66252380D01*
X176542857Y-66252380D01*
X176638095Y-66204761D01*
X176685714Y-66157142D01*
X176733333Y-66061904D01*
X176733333Y-65252380D01*
X177733333Y-66252380D02*
X177161904Y-66252380D01*
X177447619Y-66252380D02*
X177447619Y-65252380D01*
X177352380Y-65395238D01*
X177257142Y-65490476D01*
X177161904Y-65538095D01*
X178590476Y-65252380D02*
X178400000Y-65252380D01*
X178304761Y-65300000D01*
X178257142Y-65347619D01*
X178161904Y-65490476D01*
X178114285Y-65680952D01*
X178114285Y-66061904D01*
X178161904Y-66157142D01*
X178209523Y-66204761D01*
X178304761Y-66252380D01*
X178495238Y-66252380D01*
X178590476Y-66204761D01*
X178638095Y-66157142D01*
X178685714Y-66061904D01*
X178685714Y-65823809D01*
X178638095Y-65728571D01*
X178590476Y-65680952D01*
X178495238Y-65633333D01*
X178304761Y-65633333D01*
X178209523Y-65680952D01*
X178161904Y-65728571D01*
X178114285Y-65823809D01*
X166036904Y-65252380D02*
X166036904Y-66061904D01*
X166084523Y-66157142D01*
X166132142Y-66204761D01*
X166227380Y-66252380D01*
X166417857Y-66252380D01*
X166513095Y-66204761D01*
X166560714Y-66157142D01*
X166608333Y-66061904D01*
X166608333Y-65252380D01*
X167608333Y-66252380D02*
X167036904Y-66252380D01*
X167322619Y-66252380D02*
X167322619Y-65252380D01*
X167227380Y-65395238D01*
X167132142Y-65490476D01*
X167036904Y-65538095D01*
X167941666Y-65252380D02*
X168608333Y-65252380D01*
X168179761Y-66252380D01*
X125396904Y-65252380D02*
X125396904Y-66061904D01*
X125444523Y-66157142D01*
X125492142Y-66204761D01*
X125587380Y-66252380D01*
X125777857Y-66252380D01*
X125873095Y-66204761D01*
X125920714Y-66157142D01*
X125968333Y-66061904D01*
X125968333Y-65252380D01*
X126968333Y-66252380D02*
X126396904Y-66252380D01*
X126682619Y-66252380D02*
X126682619Y-65252380D01*
X126587380Y-65395238D01*
X126492142Y-65490476D01*
X126396904Y-65538095D01*
X127539761Y-65680952D02*
X127444523Y-65633333D01*
X127396904Y-65585714D01*
X127349285Y-65490476D01*
X127349285Y-65442857D01*
X127396904Y-65347619D01*
X127444523Y-65300000D01*
X127539761Y-65252380D01*
X127730238Y-65252380D01*
X127825476Y-65300000D01*
X127873095Y-65347619D01*
X127920714Y-65442857D01*
X127920714Y-65490476D01*
X127873095Y-65585714D01*
X127825476Y-65633333D01*
X127730238Y-65680952D01*
X127539761Y-65680952D01*
X127444523Y-65728571D01*
X127396904Y-65776190D01*
X127349285Y-65871428D01*
X127349285Y-66061904D01*
X127396904Y-66157142D01*
X127444523Y-66204761D01*
X127539761Y-66252380D01*
X127730238Y-66252380D01*
X127825476Y-66204761D01*
X127873095Y-66157142D01*
X127920714Y-66061904D01*
X127920714Y-65871428D01*
X127873095Y-65776190D01*
X127825476Y-65728571D01*
X127730238Y-65680952D01*
X145761904Y-65252380D02*
X145761904Y-66061904D01*
X145809523Y-66157142D01*
X145857142Y-66204761D01*
X145952380Y-66252380D01*
X146142857Y-66252380D01*
X146238095Y-66204761D01*
X146285714Y-66157142D01*
X146333333Y-66061904D01*
X146333333Y-65252380D01*
X146761904Y-65347619D02*
X146809523Y-65300000D01*
X146904761Y-65252380D01*
X147142857Y-65252380D01*
X147238095Y-65300000D01*
X147285714Y-65347619D01*
X147333333Y-65442857D01*
X147333333Y-65538095D01*
X147285714Y-65680952D01*
X146714285Y-66252380D01*
X147333333Y-66252380D01*
X147952380Y-65252380D02*
X148047619Y-65252380D01*
X148142857Y-65300000D01*
X148190476Y-65347619D01*
X148238095Y-65442857D01*
X148285714Y-65633333D01*
X148285714Y-65871428D01*
X148238095Y-66061904D01*
X148190476Y-66157142D01*
X148142857Y-66204761D01*
X148047619Y-66252380D01*
X147952380Y-66252380D01*
X147857142Y-66204761D01*
X147809523Y-66157142D01*
X147761904Y-66061904D01*
X147714285Y-65871428D01*
X147714285Y-65633333D01*
X147761904Y-65442857D01*
X147809523Y-65347619D01*
X147857142Y-65300000D01*
X147952380Y-65252380D01*
X155876904Y-65252380D02*
X155876904Y-66061904D01*
X155924523Y-66157142D01*
X155972142Y-66204761D01*
X156067380Y-66252380D01*
X156257857Y-66252380D01*
X156353095Y-66204761D01*
X156400714Y-66157142D01*
X156448333Y-66061904D01*
X156448333Y-65252380D01*
X156876904Y-65347619D02*
X156924523Y-65300000D01*
X157019761Y-65252380D01*
X157257857Y-65252380D01*
X157353095Y-65300000D01*
X157400714Y-65347619D01*
X157448333Y-65442857D01*
X157448333Y-65538095D01*
X157400714Y-65680952D01*
X156829285Y-66252380D01*
X157448333Y-66252380D01*
X158400714Y-66252380D02*
X157829285Y-66252380D01*
X158115000Y-66252380D02*
X158115000Y-65252380D01*
X158019761Y-65395238D01*
X157924523Y-65490476D01*
X157829285Y-65538095D01*
X156761904Y-112972380D02*
X156761904Y-113781904D01*
X156809523Y-113877142D01*
X156857142Y-113924761D01*
X156952380Y-113972380D01*
X157142857Y-113972380D01*
X157238095Y-113924761D01*
X157285714Y-113877142D01*
X157333333Y-113781904D01*
X157333333Y-112972380D01*
X157761904Y-113067619D02*
X157809523Y-113020000D01*
X157904761Y-112972380D01*
X158142857Y-112972380D01*
X158238095Y-113020000D01*
X158285714Y-113067619D01*
X158333333Y-113162857D01*
X158333333Y-113258095D01*
X158285714Y-113400952D01*
X157714285Y-113972380D01*
X158333333Y-113972380D01*
X158714285Y-113067619D02*
X158761904Y-113020000D01*
X158857142Y-112972380D01*
X159095238Y-112972380D01*
X159190476Y-113020000D01*
X159238095Y-113067619D01*
X159285714Y-113162857D01*
X159285714Y-113258095D01*
X159238095Y-113400952D01*
X158666666Y-113972380D01*
X159285714Y-113972380D01*
X156761904Y-101505712D02*
X156761904Y-102315236D01*
X156809523Y-102410474D01*
X156857142Y-102458093D01*
X156952380Y-102505712D01*
X157142857Y-102505712D01*
X157238095Y-102458093D01*
X157285714Y-102410474D01*
X157333333Y-102315236D01*
X157333333Y-101505712D01*
X157761904Y-101600951D02*
X157809523Y-101553332D01*
X157904761Y-101505712D01*
X158142857Y-101505712D01*
X158238095Y-101553332D01*
X158285714Y-101600951D01*
X158333333Y-101696189D01*
X158333333Y-101791427D01*
X158285714Y-101934284D01*
X157714285Y-102505712D01*
X158333333Y-102505712D01*
X158666666Y-101505712D02*
X159285714Y-101505712D01*
X158952380Y-101886665D01*
X159095238Y-101886665D01*
X159190476Y-101934284D01*
X159238095Y-101981903D01*
X159285714Y-102077141D01*
X159285714Y-102315236D01*
X159238095Y-102410474D01*
X159190476Y-102458093D01*
X159095238Y-102505712D01*
X158809523Y-102505712D01*
X158714285Y-102458093D01*
X158666666Y-102410474D01*
X156761904Y-90039046D02*
X156761904Y-90848570D01*
X156809523Y-90943808D01*
X156857142Y-90991427D01*
X156952380Y-91039046D01*
X157142857Y-91039046D01*
X157238095Y-90991427D01*
X157285714Y-90943808D01*
X157333333Y-90848570D01*
X157333333Y-90039046D01*
X157761904Y-90134285D02*
X157809523Y-90086666D01*
X157904761Y-90039046D01*
X158142857Y-90039046D01*
X158238095Y-90086666D01*
X158285714Y-90134285D01*
X158333333Y-90229523D01*
X158333333Y-90324761D01*
X158285714Y-90467618D01*
X157714285Y-91039046D01*
X158333333Y-91039046D01*
X159190476Y-90372380D02*
X159190476Y-91039046D01*
X158952380Y-89991427D02*
X158714285Y-90705713D01*
X159333333Y-90705713D01*
X156761904Y-78572380D02*
X156761904Y-79381904D01*
X156809523Y-79477142D01*
X156857142Y-79524761D01*
X156952380Y-79572380D01*
X157142857Y-79572380D01*
X157238095Y-79524761D01*
X157285714Y-79477142D01*
X157333333Y-79381904D01*
X157333333Y-78572380D01*
X157761904Y-78667619D02*
X157809523Y-78620000D01*
X157904761Y-78572380D01*
X158142857Y-78572380D01*
X158238095Y-78620000D01*
X158285714Y-78667619D01*
X158333333Y-78762857D01*
X158333333Y-78858095D01*
X158285714Y-79000952D01*
X157714285Y-79572380D01*
X158333333Y-79572380D01*
X159238095Y-78572380D02*
X158761904Y-78572380D01*
X158714285Y-79048571D01*
X158761904Y-79000952D01*
X158857142Y-78953333D01*
X159095238Y-78953333D01*
X159190476Y-79000952D01*
X159238095Y-79048571D01*
X159285714Y-79143809D01*
X159285714Y-79381904D01*
X159238095Y-79477142D01*
X159190476Y-79524761D01*
X159095238Y-79572380D01*
X158857142Y-79572380D01*
X158761904Y-79524761D01*
X158714285Y-79477142D01*
X169161904Y-112972380D02*
X169161904Y-113781904D01*
X169209523Y-113877142D01*
X169257142Y-113924761D01*
X169352380Y-113972380D01*
X169542857Y-113972380D01*
X169638095Y-113924761D01*
X169685714Y-113877142D01*
X169733333Y-113781904D01*
X169733333Y-112972380D01*
X170161904Y-113067619D02*
X170209523Y-113020000D01*
X170304761Y-112972380D01*
X170542857Y-112972380D01*
X170638095Y-113020000D01*
X170685714Y-113067619D01*
X170733333Y-113162857D01*
X170733333Y-113258095D01*
X170685714Y-113400952D01*
X170114285Y-113972380D01*
X170733333Y-113972380D01*
X171590476Y-112972380D02*
X171400000Y-112972380D01*
X171304761Y-113020000D01*
X171257142Y-113067619D01*
X171161904Y-113210476D01*
X171114285Y-113400952D01*
X171114285Y-113781904D01*
X171161904Y-113877142D01*
X171209523Y-113924761D01*
X171304761Y-113972380D01*
X171495238Y-113972380D01*
X171590476Y-113924761D01*
X171638095Y-113877142D01*
X171685714Y-113781904D01*
X171685714Y-113543809D01*
X171638095Y-113448571D01*
X171590476Y-113400952D01*
X171495238Y-113353333D01*
X171304761Y-113353333D01*
X171209523Y-113400952D01*
X171161904Y-113448571D01*
X171114285Y-113543809D01*
X169161904Y-101505712D02*
X169161904Y-102315236D01*
X169209523Y-102410474D01*
X169257142Y-102458093D01*
X169352380Y-102505712D01*
X169542857Y-102505712D01*
X169638095Y-102458093D01*
X169685714Y-102410474D01*
X169733333Y-102315236D01*
X169733333Y-101505712D01*
X170161904Y-101600951D02*
X170209523Y-101553332D01*
X170304761Y-101505712D01*
X170542857Y-101505712D01*
X170638095Y-101553332D01*
X170685714Y-101600951D01*
X170733333Y-101696189D01*
X170733333Y-101791427D01*
X170685714Y-101934284D01*
X170114285Y-102505712D01*
X170733333Y-102505712D01*
X171066666Y-101505712D02*
X171733333Y-101505712D01*
X171304761Y-102505712D01*
X169161904Y-90039046D02*
X169161904Y-90848570D01*
X169209523Y-90943808D01*
X169257142Y-90991427D01*
X169352380Y-91039046D01*
X169542857Y-91039046D01*
X169638095Y-90991427D01*
X169685714Y-90943808D01*
X169733333Y-90848570D01*
X169733333Y-90039046D01*
X170161904Y-90134285D02*
X170209523Y-90086666D01*
X170304761Y-90039046D01*
X170542857Y-90039046D01*
X170638095Y-90086666D01*
X170685714Y-90134285D01*
X170733333Y-90229523D01*
X170733333Y-90324761D01*
X170685714Y-90467618D01*
X170114285Y-91039046D01*
X170733333Y-91039046D01*
X171304761Y-90467618D02*
X171209523Y-90419999D01*
X171161904Y-90372380D01*
X171114285Y-90277142D01*
X171114285Y-90229523D01*
X171161904Y-90134285D01*
X171209523Y-90086666D01*
X171304761Y-90039046D01*
X171495238Y-90039046D01*
X171590476Y-90086666D01*
X171638095Y-90134285D01*
X171685714Y-90229523D01*
X171685714Y-90277142D01*
X171638095Y-90372380D01*
X171590476Y-90419999D01*
X171495238Y-90467618D01*
X171304761Y-90467618D01*
X171209523Y-90515237D01*
X171161904Y-90562856D01*
X171114285Y-90658094D01*
X171114285Y-90848570D01*
X171161904Y-90943808D01*
X171209523Y-90991427D01*
X171304761Y-91039046D01*
X171495238Y-91039046D01*
X171590476Y-90991427D01*
X171638095Y-90943808D01*
X171685714Y-90848570D01*
X171685714Y-90658094D01*
X171638095Y-90562856D01*
X171590476Y-90515237D01*
X171495238Y-90467618D01*
X169161904Y-78572380D02*
X169161904Y-79381904D01*
X169209523Y-79477142D01*
X169257142Y-79524761D01*
X169352380Y-79572380D01*
X169542857Y-79572380D01*
X169638095Y-79524761D01*
X169685714Y-79477142D01*
X169733333Y-79381904D01*
X169733333Y-78572380D01*
X170161904Y-78667619D02*
X170209523Y-78620000D01*
X170304761Y-78572380D01*
X170542857Y-78572380D01*
X170638095Y-78620000D01*
X170685714Y-78667619D01*
X170733333Y-78762857D01*
X170733333Y-78858095D01*
X170685714Y-79000952D01*
X170114285Y-79572380D01*
X170733333Y-79572380D01*
X171209523Y-79572380D02*
X171400000Y-79572380D01*
X171495238Y-79524761D01*
X171542857Y-79477142D01*
X171638095Y-79334285D01*
X171685714Y-79143809D01*
X171685714Y-78762857D01*
X171638095Y-78667619D01*
X171590476Y-78620000D01*
X171495238Y-78572380D01*
X171304761Y-78572380D01*
X171209523Y-78620000D01*
X171161904Y-78667619D01*
X171114285Y-78762857D01*
X171114285Y-79000952D01*
X171161904Y-79096190D01*
X171209523Y-79143809D01*
X171304761Y-79191428D01*
X171495238Y-79191428D01*
X171590476Y-79143809D01*
X171638095Y-79096190D01*
X171685714Y-79000952D01*
X142961904Y-113998380D02*
X142961904Y-114807904D01*
X143009523Y-114903142D01*
X143057142Y-114950761D01*
X143152380Y-114998380D01*
X143342857Y-114998380D01*
X143438095Y-114950761D01*
X143485714Y-114903142D01*
X143533333Y-114807904D01*
X143533333Y-113998380D01*
X143914285Y-113998380D02*
X144533333Y-113998380D01*
X144200000Y-114379333D01*
X144342857Y-114379333D01*
X144438095Y-114426952D01*
X144485714Y-114474571D01*
X144533333Y-114569809D01*
X144533333Y-114807904D01*
X144485714Y-114903142D01*
X144438095Y-114950761D01*
X144342857Y-114998380D01*
X144057142Y-114998380D01*
X143961904Y-114950761D01*
X143914285Y-114903142D01*
X145152380Y-113998380D02*
X145247619Y-113998380D01*
X145342857Y-114046000D01*
X145390476Y-114093619D01*
X145438095Y-114188857D01*
X145485714Y-114379333D01*
X145485714Y-114617428D01*
X145438095Y-114807904D01*
X145390476Y-114903142D01*
X145342857Y-114950761D01*
X145247619Y-114998380D01*
X145152380Y-114998380D01*
X145057142Y-114950761D01*
X145009523Y-114903142D01*
X144961904Y-114807904D01*
X144914285Y-114617428D01*
X144914285Y-114379333D01*
X144961904Y-114188857D01*
X145009523Y-114093619D01*
X145057142Y-114046000D01*
X145152380Y-113998380D01*
X143361904Y-78382380D02*
X143361904Y-79191904D01*
X143409523Y-79287142D01*
X143457142Y-79334761D01*
X143552380Y-79382380D01*
X143742857Y-79382380D01*
X143838095Y-79334761D01*
X143885714Y-79287142D01*
X143933333Y-79191904D01*
X143933333Y-78382380D01*
X144314285Y-78382380D02*
X144933333Y-78382380D01*
X144600000Y-78763333D01*
X144742857Y-78763333D01*
X144838095Y-78810952D01*
X144885714Y-78858571D01*
X144933333Y-78953809D01*
X144933333Y-79191904D01*
X144885714Y-79287142D01*
X144838095Y-79334761D01*
X144742857Y-79382380D01*
X144457142Y-79382380D01*
X144361904Y-79334761D01*
X144314285Y-79287142D01*
X145885714Y-79382380D02*
X145314285Y-79382380D01*
X145600000Y-79382380D02*
X145600000Y-78382380D01*
X145504761Y-78525238D01*
X145409523Y-78620476D01*
X145314285Y-78668095D01*
X142961904Y-122902380D02*
X142961904Y-123711904D01*
X143009523Y-123807142D01*
X143057142Y-123854761D01*
X143152380Y-123902380D01*
X143342857Y-123902380D01*
X143438095Y-123854761D01*
X143485714Y-123807142D01*
X143533333Y-123711904D01*
X143533333Y-122902380D01*
X143914285Y-122902380D02*
X144533333Y-122902380D01*
X144200000Y-123283333D01*
X144342857Y-123283333D01*
X144438095Y-123330952D01*
X144485714Y-123378571D01*
X144533333Y-123473809D01*
X144533333Y-123711904D01*
X144485714Y-123807142D01*
X144438095Y-123854761D01*
X144342857Y-123902380D01*
X144057142Y-123902380D01*
X143961904Y-123854761D01*
X143914285Y-123807142D01*
X144914285Y-122997619D02*
X144961904Y-122950000D01*
X145057142Y-122902380D01*
X145295238Y-122902380D01*
X145390476Y-122950000D01*
X145438095Y-122997619D01*
X145485714Y-123092857D01*
X145485714Y-123188095D01*
X145438095Y-123330952D01*
X144866666Y-123902380D01*
X145485714Y-123902380D01*
X143361904Y-87286380D02*
X143361904Y-88095904D01*
X143409523Y-88191142D01*
X143457142Y-88238761D01*
X143552380Y-88286380D01*
X143742857Y-88286380D01*
X143838095Y-88238761D01*
X143885714Y-88191142D01*
X143933333Y-88095904D01*
X143933333Y-87286380D01*
X144314285Y-87286380D02*
X144933333Y-87286380D01*
X144600000Y-87667333D01*
X144742857Y-87667333D01*
X144838095Y-87714952D01*
X144885714Y-87762571D01*
X144933333Y-87857809D01*
X144933333Y-88095904D01*
X144885714Y-88191142D01*
X144838095Y-88238761D01*
X144742857Y-88286380D01*
X144457142Y-88286380D01*
X144361904Y-88238761D01*
X144314285Y-88191142D01*
X145266666Y-87286380D02*
X145885714Y-87286380D01*
X145552380Y-87667333D01*
X145695238Y-87667333D01*
X145790476Y-87714952D01*
X145838095Y-87762571D01*
X145885714Y-87857809D01*
X145885714Y-88095904D01*
X145838095Y-88191142D01*
X145790476Y-88238761D01*
X145695238Y-88286380D01*
X145409523Y-88286380D01*
X145314285Y-88238761D01*
X145266666Y-88191142D01*
X143361904Y-105094380D02*
X143361904Y-105903904D01*
X143409523Y-105999142D01*
X143457142Y-106046761D01*
X143552380Y-106094380D01*
X143742857Y-106094380D01*
X143838095Y-106046761D01*
X143885714Y-105999142D01*
X143933333Y-105903904D01*
X143933333Y-105094380D01*
X144314285Y-105094380D02*
X144933333Y-105094380D01*
X144600000Y-105475333D01*
X144742857Y-105475333D01*
X144838095Y-105522952D01*
X144885714Y-105570571D01*
X144933333Y-105665809D01*
X144933333Y-105903904D01*
X144885714Y-105999142D01*
X144838095Y-106046761D01*
X144742857Y-106094380D01*
X144457142Y-106094380D01*
X144361904Y-106046761D01*
X144314285Y-105999142D01*
X145790476Y-105427714D02*
X145790476Y-106094380D01*
X145552380Y-105046761D02*
X145314285Y-105761047D01*
X145933333Y-105761047D01*
X143361904Y-96190380D02*
X143361904Y-96999904D01*
X143409523Y-97095142D01*
X143457142Y-97142761D01*
X143552380Y-97190380D01*
X143742857Y-97190380D01*
X143838095Y-97142761D01*
X143885714Y-97095142D01*
X143933333Y-96999904D01*
X143933333Y-96190380D01*
X144314285Y-96190380D02*
X144933333Y-96190380D01*
X144600000Y-96571333D01*
X144742857Y-96571333D01*
X144838095Y-96618952D01*
X144885714Y-96666571D01*
X144933333Y-96761809D01*
X144933333Y-96999904D01*
X144885714Y-97095142D01*
X144838095Y-97142761D01*
X144742857Y-97190380D01*
X144457142Y-97190380D01*
X144361904Y-97142761D01*
X144314285Y-97095142D01*
X145838095Y-96190380D02*
X145361904Y-96190380D01*
X145314285Y-96666571D01*
X145361904Y-96618952D01*
X145457142Y-96571333D01*
X145695238Y-96571333D01*
X145790476Y-96618952D01*
X145838095Y-96666571D01*
X145885714Y-96761809D01*
X145885714Y-96999904D01*
X145838095Y-97095142D01*
X145790476Y-97142761D01*
X145695238Y-97190380D01*
X145457142Y-97190380D01*
X145361904Y-97142761D01*
X145314285Y-97095142D01*
X160761904Y-137172380D02*
X160761904Y-137981904D01*
X160809523Y-138077142D01*
X160857142Y-138124761D01*
X160952380Y-138172380D01*
X161142857Y-138172380D01*
X161238095Y-138124761D01*
X161285714Y-138077142D01*
X161333333Y-137981904D01*
X161333333Y-137172380D01*
X161714285Y-137172380D02*
X162333333Y-137172380D01*
X162000000Y-137553333D01*
X162142857Y-137553333D01*
X162238095Y-137600952D01*
X162285714Y-137648571D01*
X162333333Y-137743809D01*
X162333333Y-137981904D01*
X162285714Y-138077142D01*
X162238095Y-138124761D01*
X162142857Y-138172380D01*
X161857142Y-138172380D01*
X161761904Y-138124761D01*
X161714285Y-138077142D01*
X163190476Y-137172380D02*
X163000000Y-137172380D01*
X162904761Y-137220000D01*
X162857142Y-137267619D01*
X162761904Y-137410476D01*
X162714285Y-137600952D01*
X162714285Y-137981904D01*
X162761904Y-138077142D01*
X162809523Y-138124761D01*
X162904761Y-138172380D01*
X163095238Y-138172380D01*
X163190476Y-138124761D01*
X163238095Y-138077142D01*
X163285714Y-137981904D01*
X163285714Y-137743809D01*
X163238095Y-137648571D01*
X163190476Y-137600952D01*
X163095238Y-137553333D01*
X162904761Y-137553333D01*
X162809523Y-137600952D01*
X162761904Y-137648571D01*
X162714285Y-137743809D01*
X156361904Y-51102380D02*
X156361904Y-51911904D01*
X156409523Y-52007142D01*
X156457142Y-52054761D01*
X156552380Y-52102380D01*
X156742857Y-52102380D01*
X156838095Y-52054761D01*
X156885714Y-52007142D01*
X156933333Y-51911904D01*
X156933333Y-51102380D01*
X157314285Y-51102380D02*
X157933333Y-51102380D01*
X157600000Y-51483333D01*
X157742857Y-51483333D01*
X157838095Y-51530952D01*
X157885714Y-51578571D01*
X157933333Y-51673809D01*
X157933333Y-51911904D01*
X157885714Y-52007142D01*
X157838095Y-52054761D01*
X157742857Y-52102380D01*
X157457142Y-52102380D01*
X157361904Y-52054761D01*
X157314285Y-52007142D01*
X158266666Y-51102380D02*
X158933333Y-51102380D01*
X158504761Y-52102380D01*
X133361904Y-51302380D02*
X133361904Y-52111904D01*
X133409523Y-52207142D01*
X133457142Y-52254761D01*
X133552380Y-52302380D01*
X133742857Y-52302380D01*
X133838095Y-52254761D01*
X133885714Y-52207142D01*
X133933333Y-52111904D01*
X133933333Y-51302380D01*
X134314285Y-51302380D02*
X134933333Y-51302380D01*
X134600000Y-51683333D01*
X134742857Y-51683333D01*
X134838095Y-51730952D01*
X134885714Y-51778571D01*
X134933333Y-51873809D01*
X134933333Y-52111904D01*
X134885714Y-52207142D01*
X134838095Y-52254761D01*
X134742857Y-52302380D01*
X134457142Y-52302380D01*
X134361904Y-52254761D01*
X134314285Y-52207142D01*
X135504761Y-51730952D02*
X135409523Y-51683333D01*
X135361904Y-51635714D01*
X135314285Y-51540476D01*
X135314285Y-51492857D01*
X135361904Y-51397619D01*
X135409523Y-51350000D01*
X135504761Y-51302380D01*
X135695238Y-51302380D01*
X135790476Y-51350000D01*
X135838095Y-51397619D01*
X135885714Y-51492857D01*
X135885714Y-51540476D01*
X135838095Y-51635714D01*
X135790476Y-51683333D01*
X135695238Y-51730952D01*
X135504761Y-51730952D01*
X135409523Y-51778571D01*
X135361904Y-51826190D01*
X135314285Y-51921428D01*
X135314285Y-52111904D01*
X135361904Y-52207142D01*
X135409523Y-52254761D01*
X135504761Y-52302380D01*
X135695238Y-52302380D01*
X135790476Y-52254761D01*
X135838095Y-52207142D01*
X135885714Y-52111904D01*
X135885714Y-51921428D01*
X135838095Y-51826190D01*
X135790476Y-51778571D01*
X135695238Y-51730952D01*
M02*
