G04 #@! TF.GenerationSoftware,KiCad,Pcbnew,(5.1.5-0-10_14)*
G04 #@! TF.CreationDate,2020-03-03T11:51:46+01:00*
G04 #@! TF.ProjectId,alu,616c752e-6b69-4636-9164-5f7063625858,rev?*
G04 #@! TF.SameCoordinates,Original*
G04 #@! TF.FileFunction,Copper,L2,Bot*
G04 #@! TF.FilePolarity,Positive*
%FSLAX46Y46*%
G04 Gerber Fmt 4.6, Leading zero omitted, Abs format (unit mm)*
G04 Created by KiCad (PCBNEW (5.1.5-0-10_14)) date 2020-03-03 11:51:46*
%MOMM*%
%LPD*%
G04 APERTURE LIST*
%ADD10R,1.700000X1.700000*%
%ADD11O,1.700000X1.700000*%
%ADD12C,0.800000*%
%ADD13C,0.400000*%
%ADD14C,0.200000*%
%ADD15C,0.254000*%
G04 APERTURE END LIST*
D10*
X188960000Y-110260000D03*
D11*
X191500000Y-110260000D03*
X188960000Y-107720000D03*
X191500000Y-107720000D03*
X188960000Y-105180000D03*
X191500000Y-105180000D03*
X188960000Y-102640000D03*
X191500000Y-102640000D03*
X188960000Y-100100000D03*
X191500000Y-100100000D03*
X188960000Y-97560000D03*
X191500000Y-97560000D03*
X188960000Y-95020000D03*
X191500000Y-95020000D03*
X188960000Y-92480000D03*
X191500000Y-92480000D03*
X188960000Y-89940000D03*
X191500000Y-89940000D03*
X188960000Y-87400000D03*
X191500000Y-87400000D03*
X188960000Y-84860000D03*
X191500000Y-84860000D03*
X188960000Y-82320000D03*
X191500000Y-82320000D03*
X188960000Y-79780000D03*
X191500000Y-79780000D03*
X188960000Y-77240000D03*
X191500000Y-77240000D03*
X188960000Y-74700000D03*
X191500000Y-74700000D03*
X188960000Y-72160000D03*
X191500000Y-72160000D03*
X188960000Y-69620000D03*
X191500000Y-69620000D03*
X188960000Y-67080000D03*
X191500000Y-67080000D03*
X188960000Y-64540000D03*
X191500000Y-64540000D03*
X188960000Y-62000000D03*
X191500000Y-62000000D03*
D12*
X146250000Y-113750000D03*
X134250000Y-114000000D03*
X168000000Y-122250000D03*
X170000000Y-122250000D03*
X172000000Y-122250000D03*
X174000000Y-122250000D03*
X176000000Y-122250000D03*
X178000000Y-122250000D03*
X180000000Y-122250000D03*
X182000000Y-122250000D03*
X151000000Y-122250000D03*
X153000000Y-122250000D03*
X155000000Y-122250000D03*
X157000000Y-122250000D03*
X160250000Y-115250000D03*
X194250000Y-122000000D03*
X131000000Y-78500000D03*
X153000000Y-68500000D03*
X151000000Y-51750000D03*
X153000000Y-51750000D03*
X155000000Y-51750000D03*
X157000000Y-51750000D03*
X168000000Y-51750000D03*
X170000000Y-51750000D03*
X172000000Y-51750000D03*
X174000000Y-51750000D03*
X176000000Y-51750000D03*
X178000000Y-51750000D03*
X180000000Y-51750000D03*
X182000000Y-51750000D03*
X182000000Y-60750000D03*
X180000000Y-60750000D03*
X178000000Y-60750000D03*
X176000000Y-60750000D03*
X174000000Y-60750000D03*
X172000000Y-60750000D03*
X170000000Y-60750000D03*
X168000000Y-60750000D03*
X131250000Y-93500000D03*
X126250000Y-93750000D03*
X152750000Y-93500000D03*
X148750000Y-93250000D03*
X132000000Y-108000000D03*
X137000000Y-82750000D03*
X187000000Y-83250000D03*
X153750000Y-112500000D03*
X137500000Y-112250000D03*
X168000000Y-112500000D03*
X129000000Y-82750000D03*
X151500000Y-82750000D03*
X182000000Y-107750000D03*
X182000000Y-77950010D03*
X119750000Y-77500000D03*
X174000000Y-106500000D03*
X173999994Y-77250000D03*
X143000000Y-77750000D03*
X179750000Y-105250000D03*
X120750000Y-75500000D03*
X180000000Y-76500000D03*
X172000000Y-104000000D03*
X172000000Y-75600021D03*
X144750000Y-74750000D03*
X122250000Y-73750000D03*
X178000000Y-74500000D03*
X178000000Y-102500000D03*
X170000000Y-101499996D03*
X170000000Y-72649979D03*
X145500004Y-72500006D03*
X176000000Y-100000000D03*
X176000000Y-71250000D03*
X124000000Y-71000000D03*
X168000000Y-98750000D03*
X168000000Y-70500000D03*
X146250000Y-70049990D03*
X183000000Y-97750000D03*
X160899979Y-97750000D03*
X121500000Y-98000000D03*
X180750000Y-96500000D03*
X161299990Y-96500000D03*
X122750000Y-98000000D03*
X179000000Y-95000000D03*
X162000000Y-95000000D03*
X125000002Y-94999998D03*
X177000000Y-94000000D03*
X162500000Y-94000000D03*
X128750000Y-94250000D03*
X175000000Y-92500000D03*
X163250000Y-92500000D03*
X141250000Y-91750000D03*
X173000000Y-91500000D03*
X163750000Y-91500000D03*
X146250000Y-91349988D03*
X163902866Y-90450010D03*
X171000000Y-90500000D03*
X147500002Y-90500000D03*
X169000000Y-88750000D03*
X165000000Y-88750000D03*
X153000000Y-113750000D03*
X169000000Y-113750000D03*
X151250000Y-88750000D03*
X181000000Y-87499992D03*
X116500000Y-87500000D03*
X179000000Y-86250000D03*
X117250000Y-86250000D03*
X177000000Y-84750000D03*
X118000000Y-84750000D03*
X175000000Y-83750000D03*
X118750000Y-84000000D03*
X173000000Y-82249998D03*
X139000000Y-82250000D03*
X171000000Y-81000000D03*
X140000000Y-81250000D03*
X169000000Y-79750000D03*
X140750000Y-80000000D03*
X166500000Y-78500000D03*
X141500000Y-79000000D03*
X154500000Y-63000000D03*
X157000000Y-63000000D03*
X133000000Y-76750000D03*
X155500000Y-77000000D03*
X134000000Y-75000000D03*
X158500000Y-76000004D03*
X153000000Y-64700000D03*
X157750000Y-64750000D03*
X136000000Y-74250000D03*
X134750000Y-92250000D03*
X136500000Y-92250000D03*
X161000000Y-74500000D03*
X156500000Y-64000000D03*
X151000000Y-64000000D03*
X135000000Y-72499996D03*
X159500000Y-73250000D03*
X135000000Y-104100000D03*
X147700000Y-104100000D03*
X148750004Y-71750000D03*
X126250000Y-72250000D03*
X183500000Y-71000000D03*
X183500000Y-89500000D03*
X134750000Y-91000000D03*
X157500000Y-89500000D03*
X125000000Y-70049990D03*
X147750000Y-69649979D03*
X158250000Y-110750000D03*
X185499998Y-110750000D03*
X185500000Y-67000000D03*
X139600000Y-110500000D03*
X155000000Y-111500000D03*
X184750000Y-111500000D03*
X184750000Y-65750000D03*
X140900000Y-111500000D03*
X150750000Y-102950000D03*
X158000000Y-103000000D03*
X184250000Y-63500000D03*
X183750000Y-103299990D03*
X138500000Y-101250000D03*
X144000000Y-101250000D03*
X131250000Y-88750000D03*
X138500000Y-88500000D03*
X130000000Y-99600000D03*
X142300000Y-99700001D03*
X148500000Y-102250000D03*
X131250000Y-102249996D03*
X145000000Y-101250000D03*
X153750000Y-101250000D03*
X135100000Y-105300000D03*
X147742525Y-105142525D03*
X159250000Y-102250000D03*
X149500000Y-102250000D03*
X153500000Y-92750000D03*
X159000000Y-92750000D03*
X134900000Y-106700000D03*
X150749999Y-106998751D03*
X158750000Y-104000000D03*
X154750000Y-104000000D03*
X158750000Y-106000000D03*
X153750000Y-106500000D03*
X132300000Y-106000000D03*
X150800000Y-106000000D03*
X153750000Y-105500000D03*
X167500000Y-106500000D03*
X153750000Y-104500000D03*
X167500000Y-105000000D03*
X141000000Y-100800000D03*
X152500000Y-100550000D03*
X134900000Y-107700003D03*
X138100000Y-107400000D03*
D13*
X137750000Y-112500000D02*
X137500000Y-112250000D01*
X153750000Y-112500000D02*
X137750000Y-112500000D01*
X153750000Y-112500000D02*
X168000000Y-112500000D01*
X188960000Y-111510000D02*
X188960000Y-110260000D01*
X187970000Y-112500000D02*
X188960000Y-111510000D01*
X168000000Y-112500000D02*
X187970000Y-112500000D01*
X137000000Y-82750000D02*
X129000000Y-82750000D01*
X151100001Y-83149999D02*
X151500000Y-82750000D01*
X187000000Y-83250000D02*
X186600001Y-82850001D01*
X137399999Y-83149999D02*
X151100001Y-83149999D01*
X137000000Y-82750000D02*
X137399999Y-83149999D01*
X186600001Y-82850001D02*
X174715997Y-82850001D01*
X174715997Y-82850001D02*
X174415999Y-83149999D01*
X174415999Y-83149999D02*
X151899999Y-83149999D01*
X151899999Y-83149999D02*
X151500000Y-82750000D01*
D14*
X188930000Y-107750000D02*
X188960000Y-107720000D01*
X182000000Y-107750000D02*
X188930000Y-107750000D01*
X159033094Y-78450010D02*
X142200010Y-78450010D01*
X159833037Y-77650067D02*
X159033094Y-78450010D01*
X182000000Y-77950010D02*
X171051185Y-77950010D01*
X170751242Y-77650067D02*
X159833037Y-77650067D01*
X120315685Y-77500000D02*
X119750000Y-77500000D01*
X141250000Y-77500000D02*
X120315685Y-77500000D01*
X142200010Y-78450010D02*
X141250000Y-77500000D01*
X171051185Y-77950010D02*
X170751242Y-77650067D01*
X191500000Y-107720000D02*
X190280000Y-106500000D01*
X190280000Y-106500000D02*
X174000000Y-106500000D01*
X143765686Y-77950001D02*
X143565685Y-77750000D01*
X159667348Y-77250056D02*
X158967403Y-77950001D01*
X173184253Y-77500056D02*
X171166931Y-77500056D01*
X158967403Y-77950001D02*
X143765686Y-77950001D01*
X170916931Y-77250056D02*
X159667348Y-77250056D01*
X173434309Y-77250000D02*
X173184253Y-77500056D01*
X173999994Y-77250000D02*
X173434309Y-77250000D01*
X171166931Y-77500056D02*
X170916931Y-77250056D01*
X143565685Y-77750000D02*
X143000000Y-77750000D01*
X188890000Y-105250000D02*
X188960000Y-105180000D01*
X179750000Y-105250000D02*
X188890000Y-105250000D01*
X179600013Y-76100013D02*
X180000000Y-76500000D01*
X157986004Y-76950002D02*
X158836002Y-76950002D01*
X173101712Y-76100013D02*
X179600013Y-76100013D01*
X120750000Y-75500000D02*
X121149999Y-75899999D01*
X171498309Y-76700034D02*
X172501691Y-76700034D01*
X171248309Y-76450034D02*
X171498309Y-76700034D01*
X172501691Y-76700034D02*
X173101712Y-76100013D01*
X158836002Y-76950002D02*
X159335970Y-76450034D01*
X157336001Y-76299999D02*
X157986004Y-76950002D01*
X155686001Y-75899999D02*
X156086001Y-76299999D01*
X159335970Y-76450034D02*
X171248309Y-76450034D01*
X121149999Y-75899999D02*
X155686001Y-75899999D01*
X156086001Y-76299999D02*
X157336001Y-76299999D01*
X172000000Y-75600021D02*
X171600001Y-75200022D01*
X171600001Y-75200022D02*
X156282618Y-75200022D01*
X156282618Y-75200022D02*
X155832596Y-74750000D01*
X145315685Y-74750000D02*
X144750000Y-74750000D01*
X155832596Y-74750000D02*
X145315685Y-74750000D01*
X191500000Y-105180000D02*
X190320000Y-104000000D01*
X190320000Y-104000000D02*
X172000000Y-104000000D01*
X155863983Y-73649987D02*
X156163998Y-73950002D01*
X144401703Y-73299999D02*
X144751691Y-73649987D01*
X159836001Y-73950001D02*
X160036002Y-73750000D01*
X177600001Y-74100001D02*
X178000000Y-74500000D01*
X156163998Y-73950002D02*
X159836001Y-73950001D01*
X122250000Y-73750000D02*
X122700001Y-73299999D01*
X144751691Y-73649987D02*
X155863983Y-73649987D01*
X177250000Y-73750000D02*
X177600001Y-74100001D01*
X122700001Y-73299999D02*
X144401703Y-73299999D01*
X160036002Y-73750000D02*
X177250000Y-73750000D01*
X187757919Y-102640000D02*
X187617919Y-102500000D01*
X187617919Y-102500000D02*
X178565685Y-102500000D01*
X178565685Y-102500000D02*
X178000000Y-102500000D01*
X188960000Y-102640000D02*
X187757919Y-102640000D01*
X170565685Y-101499996D02*
X170000000Y-101499996D01*
X188398002Y-101499996D02*
X170565685Y-101499996D01*
X190359996Y-101499996D02*
X189521998Y-101499996D01*
X189512001Y-101489999D02*
X188407999Y-101489999D01*
X188407999Y-101489999D02*
X188398002Y-101499996D01*
X189521998Y-101499996D02*
X189512001Y-101489999D01*
X191500000Y-102640000D02*
X190359996Y-101499996D01*
X170000000Y-72649979D02*
X169600001Y-72249980D01*
X149285998Y-72500006D02*
X146065689Y-72500006D01*
X146065689Y-72500006D02*
X145500004Y-72500006D01*
X149536024Y-72249980D02*
X149285998Y-72500006D01*
X169600001Y-72249980D02*
X149536024Y-72249980D01*
X188860000Y-100000000D02*
X188960000Y-100100000D01*
X176000000Y-100000000D02*
X188860000Y-100000000D01*
X149286004Y-71000000D02*
X148330864Y-71000000D01*
X149536004Y-71250000D02*
X149286004Y-71000000D01*
X148330864Y-71000000D02*
X124000000Y-71000000D01*
X176000000Y-71250000D02*
X149536004Y-71250000D01*
X190150000Y-98750000D02*
X168000000Y-98750000D01*
X191500000Y-100100000D02*
X190150000Y-98750000D01*
X147115684Y-70349989D02*
X146815685Y-70049990D01*
X167284304Y-70349989D02*
X147115684Y-70349989D01*
X167434315Y-70500000D02*
X167284304Y-70349989D01*
X168000000Y-70500000D02*
X167434315Y-70500000D01*
X146815685Y-70049990D02*
X146250000Y-70049990D01*
X188770000Y-97750000D02*
X188960000Y-97560000D01*
X183000000Y-97750000D02*
X188770000Y-97750000D01*
X183000000Y-97750000D02*
X160899979Y-97750000D01*
X122200002Y-98700002D02*
X121899999Y-98399999D01*
X123086002Y-98700002D02*
X122200002Y-98700002D01*
X121899999Y-98399999D02*
X121500000Y-98000000D01*
X124036004Y-97750000D02*
X123086002Y-98700002D01*
X160899979Y-97750000D02*
X124036004Y-97750000D01*
X190349999Y-96409999D02*
X180840001Y-96409999D01*
X180840001Y-96409999D02*
X180750000Y-96500000D01*
X191500000Y-97560000D02*
X190349999Y-96409999D01*
X180750000Y-96500000D02*
X161299990Y-96500000D01*
X161299990Y-96500000D02*
X124250000Y-96500000D01*
X123149999Y-97600001D02*
X122750000Y-98000000D01*
X124250000Y-96500000D02*
X123149999Y-97600001D01*
X188940000Y-95000000D02*
X188960000Y-95020000D01*
X179000000Y-95000000D02*
X188940000Y-95000000D01*
X179000000Y-95000000D02*
X162500000Y-95000000D01*
X162500000Y-95000000D02*
X162000000Y-95000000D01*
X125000004Y-95000000D02*
X125000002Y-94999998D01*
X162000000Y-95000000D02*
X125000004Y-95000000D01*
X177130001Y-93869999D02*
X177000000Y-94000000D01*
X190349999Y-93869999D02*
X177130001Y-93869999D01*
X191500000Y-95020000D02*
X190349999Y-93869999D01*
X177000000Y-94000000D02*
X162500000Y-94000000D01*
X129315685Y-94250000D02*
X128750000Y-94250000D01*
X161934315Y-94000000D02*
X161484313Y-94450002D01*
X162500000Y-94000000D02*
X161934315Y-94000000D01*
X129515687Y-94450002D02*
X129315685Y-94250000D01*
X161484313Y-94450002D02*
X129515687Y-94450002D01*
X188940000Y-92500000D02*
X188960000Y-92480000D01*
X175000000Y-92500000D02*
X188940000Y-92500000D01*
X175000000Y-92500000D02*
X163250000Y-92500000D01*
X141649999Y-92149999D02*
X141250000Y-91750000D01*
X141750000Y-92049998D02*
X141649999Y-92149999D01*
X163250000Y-92500000D02*
X162799998Y-92049998D01*
X162799998Y-92049998D02*
X141750000Y-92049998D01*
X173170001Y-91329999D02*
X173000000Y-91500000D01*
X190349999Y-91329999D02*
X173170001Y-91329999D01*
X191500000Y-92480000D02*
X190349999Y-91329999D01*
X173000000Y-91500000D02*
X163750000Y-91500000D01*
X163750000Y-91500000D02*
X146400012Y-91500000D01*
X146400012Y-91500000D02*
X146250000Y-91349988D01*
X163902866Y-90450010D02*
X170950010Y-90450010D01*
X170950010Y-90450010D02*
X171000000Y-90500000D01*
X188400000Y-90500000D02*
X171000000Y-90500000D01*
X188960000Y-89940000D02*
X188400000Y-90500000D01*
X163902866Y-90450010D02*
X147549992Y-90450010D01*
X147549992Y-90450010D02*
X147500002Y-90500000D01*
X190349999Y-88789999D02*
X169039999Y-88789999D01*
X169039999Y-88789999D02*
X169000000Y-88750000D01*
X191500000Y-89940000D02*
X190349999Y-88789999D01*
X169000000Y-88750000D02*
X165000000Y-88750000D01*
X153000000Y-113750000D02*
X169000000Y-113750000D01*
X164600001Y-88350001D02*
X151649999Y-88350001D01*
X165000000Y-88750000D02*
X164600001Y-88350001D01*
X151649999Y-88350001D02*
X151250000Y-88750000D01*
X181099992Y-87400000D02*
X181000000Y-87499992D01*
X188960000Y-87400000D02*
X181099992Y-87400000D01*
X181000000Y-87499992D02*
X116500008Y-87499992D01*
X116500008Y-87499992D02*
X116500000Y-87500000D01*
X190350000Y-86250000D02*
X179000000Y-86250000D01*
X191500000Y-87400000D02*
X190350000Y-86250000D01*
X179000000Y-86250000D02*
X117250000Y-86250000D01*
X188960000Y-84860000D02*
X177110000Y-84860000D01*
X177110000Y-84860000D02*
X177000000Y-84750000D01*
X177000000Y-84750000D02*
X118000000Y-84750000D01*
X175565685Y-83750000D02*
X175000000Y-83750000D01*
X175815685Y-84000000D02*
X175565685Y-83750000D01*
X188117998Y-84000000D02*
X175815685Y-84000000D01*
X189512001Y-83709999D02*
X188407999Y-83709999D01*
X188407999Y-83709999D02*
X188117998Y-84000000D01*
X189802002Y-84000000D02*
X189512001Y-83709999D01*
X190640000Y-84000000D02*
X189802002Y-84000000D01*
X191500000Y-84860000D02*
X190640000Y-84000000D01*
X118899999Y-84149999D02*
X118750000Y-84000000D01*
X174600001Y-84149999D02*
X118899999Y-84149999D01*
X175000000Y-83750000D02*
X174600001Y-84149999D01*
X188960000Y-82320000D02*
X173070002Y-82320000D01*
X173070002Y-82320000D02*
X173000000Y-82249998D01*
X172434315Y-82249998D02*
X172234315Y-82049998D01*
X139765687Y-82049998D02*
X139565685Y-82250000D01*
X139565685Y-82250000D02*
X139000000Y-82250000D01*
X172234315Y-82049998D02*
X139765687Y-82049998D01*
X173000000Y-82249998D02*
X172434315Y-82249998D01*
X191500000Y-82320000D02*
X190180000Y-81000000D01*
X190180000Y-81000000D02*
X171000000Y-81000000D01*
X140250000Y-81000000D02*
X140000000Y-81250000D01*
X142000000Y-81000000D02*
X140250000Y-81000000D01*
X171000000Y-81000000D02*
X142000000Y-81000000D01*
X169030000Y-79780000D02*
X169000000Y-79750000D01*
X188960000Y-79780000D02*
X169030000Y-79780000D01*
X140899999Y-80149999D02*
X140750000Y-80000000D01*
X168600001Y-80149999D02*
X140899999Y-80149999D01*
X169000000Y-79750000D02*
X168600001Y-80149999D01*
X166899999Y-78899999D02*
X166500000Y-78500000D01*
X191500000Y-79780000D02*
X190349999Y-78629999D01*
X190349999Y-78629999D02*
X182356015Y-78629999D01*
X182356015Y-78629999D02*
X182086015Y-78899999D01*
X182086015Y-78899999D02*
X166899999Y-78899999D01*
X166000000Y-79000000D02*
X141500000Y-79000000D01*
X166500000Y-78500000D02*
X166000000Y-79000000D01*
X154500000Y-63000000D02*
X157000000Y-63000000D01*
X133000000Y-76750000D02*
X155250000Y-76750000D01*
X159501659Y-76850045D02*
X158951705Y-77399999D01*
X178964022Y-76500024D02*
X173267401Y-76500024D01*
X179703998Y-77240000D02*
X178964022Y-76500024D01*
X188960000Y-77240000D02*
X179703998Y-77240000D01*
X171332620Y-77100045D02*
X171082620Y-76850045D01*
X173267401Y-76500024D02*
X172667380Y-77100045D01*
X172667380Y-77100045D02*
X171332620Y-77100045D01*
X158951705Y-77399999D02*
X155899999Y-77399999D01*
X155899999Y-77399999D02*
X155500000Y-77000000D01*
X171082620Y-76850045D02*
X159501659Y-76850045D01*
X155250000Y-76750000D02*
X155500000Y-77000000D01*
X172936023Y-75700002D02*
X172336002Y-76300023D01*
X171363979Y-76000004D02*
X159065685Y-76000004D01*
X172336002Y-76300023D02*
X171663998Y-76300023D01*
X190349999Y-76089999D02*
X188407999Y-76089999D01*
X188018002Y-75700002D02*
X172936023Y-75700002D01*
X171663998Y-76300023D02*
X171363979Y-76000004D01*
X191500000Y-77240000D02*
X190349999Y-76089999D01*
X188407999Y-76089999D02*
X188018002Y-75700002D01*
X159065685Y-76000004D02*
X158500000Y-76000004D01*
X156334303Y-75899988D02*
X157834299Y-75899988D01*
X155934291Y-75499976D02*
X156334303Y-75899988D01*
X134499976Y-75499976D02*
X155934291Y-75499976D01*
X134000000Y-75000000D02*
X134499976Y-75499976D01*
X157934315Y-76000004D02*
X158500000Y-76000004D01*
X157834299Y-75899988D02*
X157934315Y-76000004D01*
X157700000Y-64700000D02*
X157750000Y-64750000D01*
X153000000Y-64700000D02*
X157700000Y-64700000D01*
X134750000Y-92250000D02*
X136500000Y-92250000D01*
X176963998Y-74500000D02*
X161565685Y-74500000D01*
X187757919Y-74700000D02*
X187257918Y-75200001D01*
X177663999Y-75200001D02*
X176963998Y-74500000D01*
X187257918Y-75200001D02*
X177663999Y-75200001D01*
X188960000Y-74700000D02*
X187757919Y-74700000D01*
X161565685Y-74500000D02*
X161000000Y-74500000D01*
X160434315Y-74500000D02*
X161000000Y-74500000D01*
X155698294Y-74049998D02*
X156148296Y-74500000D01*
X136000000Y-74250000D02*
X136565685Y-74250000D01*
X136765687Y-74049998D02*
X155698294Y-74049998D01*
X156148296Y-74500000D02*
X160434315Y-74500000D01*
X136565685Y-74250000D02*
X136765687Y-74049998D01*
X156500000Y-64000000D02*
X151000000Y-64000000D01*
X144213986Y-72499996D02*
X144913998Y-73200008D01*
X160065685Y-73250000D02*
X159500000Y-73250000D01*
X158934315Y-73250000D02*
X159500000Y-73250000D01*
X190149989Y-73349989D02*
X160165674Y-73349989D01*
X144913998Y-73200008D02*
X158884323Y-73200008D01*
X135000000Y-72499996D02*
X144213986Y-72499996D01*
X158884323Y-73200008D02*
X158934315Y-73250000D01*
X191500000Y-74700000D02*
X190149989Y-73349989D01*
X160165674Y-73349989D02*
X160065685Y-73250000D01*
X135000000Y-104100000D02*
X147700000Y-104100000D01*
X170136025Y-71750000D02*
X149315689Y-71750000D01*
X149315689Y-71750000D02*
X148750004Y-71750000D01*
X170546025Y-72160000D02*
X170136025Y-71750000D01*
X188960000Y-72160000D02*
X170546025Y-72160000D01*
X126750000Y-71750000D02*
X126250000Y-72250000D01*
X148750004Y-71750000D02*
X126750000Y-71750000D01*
X190340000Y-71000000D02*
X183500000Y-71000000D01*
X191500000Y-72160000D02*
X190340000Y-71000000D01*
X136250000Y-89500000D02*
X157500000Y-89500000D01*
X134750000Y-91000000D02*
X136250000Y-89500000D01*
X183500000Y-89500000D02*
X157500000Y-89500000D01*
X125000000Y-70049990D02*
X125800010Y-69249980D01*
X125800010Y-69249980D02*
X147350001Y-69249980D01*
X188960000Y-69620000D02*
X147779979Y-69620000D01*
X147779979Y-69620000D02*
X147750000Y-69649979D01*
X147350001Y-69249980D02*
X147750000Y-69649979D01*
X158250000Y-110750000D02*
X185499998Y-110750000D01*
X185580000Y-67080000D02*
X185500000Y-67000000D01*
X188960000Y-67080000D02*
X185580000Y-67080000D01*
X158000000Y-110500000D02*
X158250000Y-110750000D01*
X139600000Y-110500000D02*
X158000000Y-110500000D01*
X155565685Y-111500000D02*
X184750000Y-111500000D01*
X155000000Y-111500000D02*
X155565685Y-111500000D01*
X191500000Y-67080000D02*
X190170000Y-65750000D01*
X190170000Y-65750000D02*
X184750000Y-65750000D01*
X140900000Y-111500000D02*
X155000000Y-111500000D01*
X157950000Y-102950000D02*
X158000000Y-103000000D01*
X150750000Y-102950000D02*
X157950000Y-102950000D01*
X184360001Y-63389999D02*
X184250000Y-63500000D01*
X190349999Y-63389999D02*
X184360001Y-63389999D01*
X191500000Y-64540000D02*
X190349999Y-63389999D01*
X183184315Y-103299990D02*
X183750000Y-103299990D01*
X177513990Y-103299990D02*
X183184315Y-103299990D01*
X177214000Y-103000000D02*
X177513990Y-103299990D01*
X158000000Y-103000000D02*
X177214000Y-103000000D01*
X138250000Y-88750000D02*
X138500000Y-88500000D01*
X131250000Y-88750000D02*
X138250000Y-88750000D01*
X138899999Y-101649999D02*
X143600001Y-101649999D01*
X138500000Y-101250000D02*
X138899999Y-101649999D01*
X143600001Y-101649999D02*
X144000000Y-101250000D01*
X142199999Y-99600000D02*
X142300000Y-99700001D01*
X130000000Y-99600000D02*
X142199999Y-99600000D01*
X148500000Y-102250000D02*
X131250004Y-102250000D01*
X131250004Y-102250000D02*
X131250000Y-102249996D01*
X145000000Y-101250000D02*
X153750000Y-101250000D01*
X147585050Y-105300000D02*
X147742525Y-105142525D01*
X135100000Y-105300000D02*
X147585050Y-105300000D01*
X159250000Y-102250000D02*
X149500000Y-102250000D01*
X153500000Y-92750000D02*
X159000000Y-92750000D01*
X150451248Y-106700000D02*
X150749999Y-106998751D01*
X134900000Y-106700000D02*
X150451248Y-106700000D01*
X154750000Y-104000000D02*
X158750000Y-104000000D01*
X158750000Y-106000000D02*
X158250000Y-106500000D01*
X158250000Y-106500000D02*
X153750000Y-106500000D01*
X132300000Y-106000000D02*
X150800000Y-106000000D01*
X154149999Y-105100001D02*
X166100001Y-105100001D01*
X153750000Y-105500000D02*
X154149999Y-105100001D01*
X166100001Y-105100001D02*
X167100001Y-106100001D01*
X167100001Y-106100001D02*
X167500000Y-106500000D01*
X166934315Y-105000000D02*
X167500000Y-105000000D01*
X153950001Y-104700001D02*
X166634316Y-104700001D01*
X166634316Y-104700001D02*
X166934315Y-105000000D01*
X153750000Y-104500000D02*
X153950001Y-104700001D01*
X152350001Y-100400001D02*
X152500000Y-100550000D01*
X141399999Y-100400001D02*
X152350001Y-100400001D01*
X141000000Y-100800000D02*
X141399999Y-100400001D01*
X137799997Y-107700003D02*
X138100000Y-107400000D01*
X134900000Y-107700003D02*
X137799997Y-107700003D01*
D15*
G36*
X199340001Y-149340000D02*
G01*
X110660000Y-149340000D01*
X110660000Y-144779872D01*
X112765000Y-144779872D01*
X112765000Y-145220128D01*
X112850890Y-145651925D01*
X113019369Y-146058669D01*
X113263962Y-146424729D01*
X113575271Y-146736038D01*
X113941331Y-146980631D01*
X114348075Y-147149110D01*
X114779872Y-147235000D01*
X115220128Y-147235000D01*
X115651925Y-147149110D01*
X116058669Y-146980631D01*
X116424729Y-146736038D01*
X116736038Y-146424729D01*
X116980631Y-146058669D01*
X117149110Y-145651925D01*
X117235000Y-145220128D01*
X117235000Y-144779872D01*
X192765000Y-144779872D01*
X192765000Y-145220128D01*
X192850890Y-145651925D01*
X193019369Y-146058669D01*
X193263962Y-146424729D01*
X193575271Y-146736038D01*
X193941331Y-146980631D01*
X194348075Y-147149110D01*
X194779872Y-147235000D01*
X195220128Y-147235000D01*
X195651925Y-147149110D01*
X196058669Y-146980631D01*
X196424729Y-146736038D01*
X196736038Y-146424729D01*
X196980631Y-146058669D01*
X197149110Y-145651925D01*
X197235000Y-145220128D01*
X197235000Y-144779872D01*
X197149110Y-144348075D01*
X196980631Y-143941331D01*
X196736038Y-143575271D01*
X196424729Y-143263962D01*
X196058669Y-143019369D01*
X195651925Y-142850890D01*
X195220128Y-142765000D01*
X194779872Y-142765000D01*
X194348075Y-142850890D01*
X193941331Y-143019369D01*
X193575271Y-143263962D01*
X193263962Y-143575271D01*
X193019369Y-143941331D01*
X192850890Y-144348075D01*
X192765000Y-144779872D01*
X117235000Y-144779872D01*
X117149110Y-144348075D01*
X116980631Y-143941331D01*
X116736038Y-143575271D01*
X116424729Y-143263962D01*
X116058669Y-143019369D01*
X115651925Y-142850890D01*
X115220128Y-142765000D01*
X114779872Y-142765000D01*
X114348075Y-142850890D01*
X113941331Y-143019369D01*
X113575271Y-143263962D01*
X113263962Y-143575271D01*
X113019369Y-143941331D01*
X112850890Y-144348075D01*
X112765000Y-144779872D01*
X110660000Y-144779872D01*
X110660000Y-87398061D01*
X115465000Y-87398061D01*
X115465000Y-87601939D01*
X115504774Y-87801898D01*
X115582795Y-87990256D01*
X115696063Y-88159774D01*
X115840226Y-88303937D01*
X116009744Y-88417205D01*
X116198102Y-88495226D01*
X116398061Y-88535000D01*
X116601939Y-88535000D01*
X116801898Y-88495226D01*
X116990256Y-88417205D01*
X117159774Y-88303937D01*
X117228719Y-88234992D01*
X130349334Y-88234992D01*
X130332795Y-88259744D01*
X130254774Y-88448102D01*
X130215000Y-88648061D01*
X130215000Y-88851939D01*
X130254774Y-89051898D01*
X130332795Y-89240256D01*
X130446063Y-89409774D01*
X130590226Y-89553937D01*
X130759744Y-89667205D01*
X130948102Y-89745226D01*
X131148061Y-89785000D01*
X131351939Y-89785000D01*
X131551898Y-89745226D01*
X131740256Y-89667205D01*
X131909774Y-89553937D01*
X131978711Y-89485000D01*
X135225553Y-89485000D01*
X134745554Y-89965000D01*
X134648061Y-89965000D01*
X134448102Y-90004774D01*
X134259744Y-90082795D01*
X134090226Y-90196063D01*
X133946063Y-90340226D01*
X133832795Y-90509744D01*
X133754774Y-90698102D01*
X133715000Y-90898061D01*
X133715000Y-91101939D01*
X133754774Y-91301898D01*
X133832795Y-91490256D01*
X133922828Y-91625000D01*
X133832795Y-91759744D01*
X133754774Y-91948102D01*
X133715000Y-92148061D01*
X133715000Y-92351939D01*
X133754774Y-92551898D01*
X133832795Y-92740256D01*
X133946063Y-92909774D01*
X134090226Y-93053937D01*
X134259744Y-93167205D01*
X134448102Y-93245226D01*
X134648061Y-93285000D01*
X134851939Y-93285000D01*
X135051898Y-93245226D01*
X135240256Y-93167205D01*
X135409774Y-93053937D01*
X135478711Y-92985000D01*
X135771289Y-92985000D01*
X135840226Y-93053937D01*
X136009744Y-93167205D01*
X136198102Y-93245226D01*
X136398061Y-93285000D01*
X136601939Y-93285000D01*
X136801898Y-93245226D01*
X136990256Y-93167205D01*
X137159774Y-93053937D01*
X137303937Y-92909774D01*
X137417205Y-92740256D01*
X137495226Y-92551898D01*
X137535000Y-92351939D01*
X137535000Y-92148061D01*
X137495226Y-91948102D01*
X137417205Y-91759744D01*
X137303937Y-91590226D01*
X137159774Y-91446063D01*
X136990256Y-91332795D01*
X136801898Y-91254774D01*
X136601939Y-91215000D01*
X136398061Y-91215000D01*
X136198102Y-91254774D01*
X136009744Y-91332795D01*
X135840226Y-91446063D01*
X135771289Y-91515000D01*
X135650672Y-91515000D01*
X135667205Y-91490256D01*
X135745226Y-91301898D01*
X135785000Y-91101939D01*
X135785000Y-91004446D01*
X136554447Y-90235000D01*
X146497437Y-90235000D01*
X146476594Y-90339783D01*
X146351939Y-90314988D01*
X146148061Y-90314988D01*
X145948102Y-90354762D01*
X145759744Y-90432783D01*
X145590226Y-90546051D01*
X145446063Y-90690214D01*
X145332795Y-90859732D01*
X145254774Y-91048090D01*
X145215000Y-91248049D01*
X145215000Y-91314998D01*
X142190092Y-91314998D01*
X142167205Y-91259744D01*
X142053937Y-91090226D01*
X141909774Y-90946063D01*
X141740256Y-90832795D01*
X141551898Y-90754774D01*
X141351939Y-90715000D01*
X141148061Y-90715000D01*
X140948102Y-90754774D01*
X140759744Y-90832795D01*
X140590226Y-90946063D01*
X140446063Y-91090226D01*
X140332795Y-91259744D01*
X140254774Y-91448102D01*
X140215000Y-91648061D01*
X140215000Y-91851939D01*
X140254774Y-92051898D01*
X140332795Y-92240256D01*
X140446063Y-92409774D01*
X140590226Y-92553937D01*
X140759744Y-92667205D01*
X140948102Y-92745226D01*
X141148061Y-92785000D01*
X141278809Y-92785000D01*
X141367365Y-92832335D01*
X141505913Y-92874364D01*
X141649998Y-92888555D01*
X141649999Y-92888555D01*
X141794084Y-92874364D01*
X141932632Y-92832335D01*
X142021193Y-92784998D01*
X152465000Y-92784998D01*
X152465000Y-92851939D01*
X152504774Y-93051898D01*
X152582795Y-93240256D01*
X152696063Y-93409774D01*
X152840226Y-93553937D01*
X153009744Y-93667205D01*
X153125135Y-93715002D01*
X129822375Y-93715002D01*
X129726005Y-93635913D01*
X129598318Y-93567663D01*
X129502224Y-93538513D01*
X129409774Y-93446063D01*
X129240256Y-93332795D01*
X129051898Y-93254774D01*
X128851939Y-93215000D01*
X128648061Y-93215000D01*
X128448102Y-93254774D01*
X128259744Y-93332795D01*
X128090226Y-93446063D01*
X127946063Y-93590226D01*
X127832795Y-93759744D01*
X127754774Y-93948102D01*
X127715000Y-94148061D01*
X127715000Y-94265000D01*
X125728715Y-94265000D01*
X125659776Y-94196061D01*
X125490258Y-94082793D01*
X125301900Y-94004772D01*
X125101941Y-93964998D01*
X124898063Y-93964998D01*
X124698104Y-94004772D01*
X124509746Y-94082793D01*
X124340228Y-94196061D01*
X124196065Y-94340224D01*
X124082797Y-94509742D01*
X124004776Y-94698100D01*
X123965002Y-94898059D01*
X123965002Y-95101937D01*
X124004776Y-95301896D01*
X124082797Y-95490254D01*
X124196065Y-95659772D01*
X124301293Y-95765000D01*
X124286094Y-95765000D01*
X124249999Y-95761445D01*
X124213904Y-95765000D01*
X124213895Y-95765000D01*
X124105915Y-95775635D01*
X123967367Y-95817663D01*
X123839680Y-95885913D01*
X123727762Y-95977762D01*
X123704746Y-96005807D01*
X122745554Y-96965000D01*
X122648061Y-96965000D01*
X122448102Y-97004774D01*
X122259744Y-97082795D01*
X122125000Y-97172828D01*
X121990256Y-97082795D01*
X121801898Y-97004774D01*
X121601939Y-96965000D01*
X121398061Y-96965000D01*
X121198102Y-97004774D01*
X121009744Y-97082795D01*
X120840226Y-97196063D01*
X120696063Y-97340226D01*
X120582795Y-97509744D01*
X120504774Y-97698102D01*
X120465000Y-97898061D01*
X120465000Y-98101939D01*
X120504774Y-98301898D01*
X120582795Y-98490256D01*
X120696063Y-98659774D01*
X120840226Y-98803937D01*
X121009744Y-98917205D01*
X121198102Y-98995226D01*
X121398061Y-99035000D01*
X121495554Y-99035000D01*
X121654743Y-99194189D01*
X121677764Y-99222240D01*
X121789682Y-99314089D01*
X121917369Y-99382339D01*
X122055917Y-99424367D01*
X122163897Y-99435002D01*
X122163906Y-99435002D01*
X122200001Y-99438557D01*
X122236096Y-99435002D01*
X123049897Y-99435002D01*
X123086002Y-99438558D01*
X123122107Y-99435002D01*
X123230087Y-99424367D01*
X123368635Y-99382339D01*
X123496322Y-99314089D01*
X123608240Y-99222240D01*
X123631260Y-99194190D01*
X124340451Y-98485000D01*
X160171268Y-98485000D01*
X160240205Y-98553937D01*
X160409723Y-98667205D01*
X160598081Y-98745226D01*
X160798040Y-98785000D01*
X161001918Y-98785000D01*
X161201877Y-98745226D01*
X161390235Y-98667205D01*
X161559753Y-98553937D01*
X161628690Y-98485000D01*
X166997435Y-98485000D01*
X166965000Y-98648061D01*
X166965000Y-98851939D01*
X167004774Y-99051898D01*
X167082795Y-99240256D01*
X167196063Y-99409774D01*
X167340226Y-99553937D01*
X167509744Y-99667205D01*
X167698102Y-99745226D01*
X167898061Y-99785000D01*
X168101939Y-99785000D01*
X168301898Y-99745226D01*
X168490256Y-99667205D01*
X168659774Y-99553937D01*
X168728711Y-99485000D01*
X175099328Y-99485000D01*
X175082795Y-99509744D01*
X175004774Y-99698102D01*
X174965000Y-99898061D01*
X174965000Y-100101939D01*
X175004774Y-100301898D01*
X175082795Y-100490256D01*
X175196063Y-100659774D01*
X175301285Y-100764996D01*
X170728711Y-100764996D01*
X170659774Y-100696059D01*
X170490256Y-100582791D01*
X170301898Y-100504770D01*
X170101939Y-100464996D01*
X169898061Y-100464996D01*
X169698102Y-100504770D01*
X169509744Y-100582791D01*
X169340226Y-100696059D01*
X169196063Y-100840222D01*
X169082795Y-101009740D01*
X169004774Y-101198098D01*
X168965000Y-101398057D01*
X168965000Y-101601935D01*
X169004774Y-101801894D01*
X169082795Y-101990252D01*
X169196063Y-102159770D01*
X169301293Y-102265000D01*
X160285000Y-102265000D01*
X160285000Y-102148061D01*
X160245226Y-101948102D01*
X160167205Y-101759744D01*
X160053937Y-101590226D01*
X159909774Y-101446063D01*
X159740256Y-101332795D01*
X159551898Y-101254774D01*
X159351939Y-101215000D01*
X159148061Y-101215000D01*
X158948102Y-101254774D01*
X158759744Y-101332795D01*
X158590226Y-101446063D01*
X158521289Y-101515000D01*
X154752565Y-101515000D01*
X154785000Y-101351939D01*
X154785000Y-101148061D01*
X154745226Y-100948102D01*
X154667205Y-100759744D01*
X154553937Y-100590226D01*
X154409774Y-100446063D01*
X154240256Y-100332795D01*
X154051898Y-100254774D01*
X153851939Y-100215000D01*
X153648061Y-100215000D01*
X153494192Y-100245606D01*
X153417205Y-100059744D01*
X153303937Y-99890226D01*
X153159774Y-99746063D01*
X152990256Y-99632795D01*
X152801898Y-99554774D01*
X152601939Y-99515000D01*
X152398061Y-99515000D01*
X152198102Y-99554774D01*
X152009744Y-99632795D01*
X151961544Y-99665001D01*
X143335000Y-99665001D01*
X143335000Y-99598062D01*
X143295226Y-99398103D01*
X143217205Y-99209745D01*
X143103937Y-99040227D01*
X142959774Y-98896064D01*
X142790256Y-98782796D01*
X142601898Y-98704775D01*
X142401939Y-98665001D01*
X142198061Y-98665001D01*
X141998102Y-98704775D01*
X141809744Y-98782796D01*
X141686717Y-98865000D01*
X130728711Y-98865000D01*
X130659774Y-98796063D01*
X130490256Y-98682795D01*
X130301898Y-98604774D01*
X130101939Y-98565000D01*
X129898061Y-98565000D01*
X129698102Y-98604774D01*
X129509744Y-98682795D01*
X129340226Y-98796063D01*
X129196063Y-98940226D01*
X129082795Y-99109744D01*
X129004774Y-99298102D01*
X128965000Y-99498061D01*
X128965000Y-99701939D01*
X129004774Y-99901898D01*
X129082795Y-100090256D01*
X129196063Y-100259774D01*
X129340226Y-100403937D01*
X129509744Y-100517205D01*
X129698102Y-100595226D01*
X129898061Y-100635000D01*
X130101939Y-100635000D01*
X130301898Y-100595226D01*
X130490256Y-100517205D01*
X130659774Y-100403937D01*
X130728711Y-100335000D01*
X138006444Y-100335000D01*
X137840226Y-100446063D01*
X137696063Y-100590226D01*
X137582795Y-100759744D01*
X137504774Y-100948102D01*
X137465000Y-101148061D01*
X137465000Y-101351939D01*
X137497435Y-101515000D01*
X131978715Y-101515000D01*
X131909774Y-101446059D01*
X131740256Y-101332791D01*
X131551898Y-101254770D01*
X131351939Y-101214996D01*
X131148061Y-101214996D01*
X130948102Y-101254770D01*
X130759744Y-101332791D01*
X130590226Y-101446059D01*
X130446063Y-101590222D01*
X130332795Y-101759740D01*
X130254774Y-101948098D01*
X130215000Y-102148057D01*
X130215000Y-102351935D01*
X130254774Y-102551894D01*
X130332795Y-102740252D01*
X130446063Y-102909770D01*
X130590226Y-103053933D01*
X130759744Y-103167201D01*
X130948102Y-103245222D01*
X131148061Y-103284996D01*
X131351939Y-103284996D01*
X131551898Y-103245222D01*
X131740256Y-103167201D01*
X131909774Y-103053933D01*
X131978707Y-102985000D01*
X147771289Y-102985000D01*
X147840226Y-103053937D01*
X147880030Y-103080533D01*
X147801939Y-103065000D01*
X147598061Y-103065000D01*
X147398102Y-103104774D01*
X147209744Y-103182795D01*
X147040226Y-103296063D01*
X146971289Y-103365000D01*
X135728711Y-103365000D01*
X135659774Y-103296063D01*
X135490256Y-103182795D01*
X135301898Y-103104774D01*
X135101939Y-103065000D01*
X134898061Y-103065000D01*
X134698102Y-103104774D01*
X134509744Y-103182795D01*
X134340226Y-103296063D01*
X134196063Y-103440226D01*
X134082795Y-103609744D01*
X134004774Y-103798102D01*
X133965000Y-103998061D01*
X133965000Y-104201939D01*
X134004774Y-104401898D01*
X134082795Y-104590256D01*
X134196063Y-104759774D01*
X134208125Y-104771836D01*
X134182795Y-104809744D01*
X134104774Y-104998102D01*
X134065000Y-105198061D01*
X134065000Y-105265000D01*
X133028711Y-105265000D01*
X132959774Y-105196063D01*
X132790256Y-105082795D01*
X132601898Y-105004774D01*
X132401939Y-104965000D01*
X132198061Y-104965000D01*
X131998102Y-105004774D01*
X131809744Y-105082795D01*
X131640226Y-105196063D01*
X131496063Y-105340226D01*
X131382795Y-105509744D01*
X131304774Y-105698102D01*
X131265000Y-105898061D01*
X131265000Y-106101939D01*
X131304774Y-106301898D01*
X131382795Y-106490256D01*
X131496063Y-106659774D01*
X131640226Y-106803937D01*
X131809744Y-106917205D01*
X131998102Y-106995226D01*
X132198061Y-107035000D01*
X132401939Y-107035000D01*
X132601898Y-106995226D01*
X132790256Y-106917205D01*
X132959774Y-106803937D01*
X133028711Y-106735000D01*
X133865000Y-106735000D01*
X133865000Y-106801939D01*
X133904774Y-107001898D01*
X133982795Y-107190256D01*
X133989307Y-107200002D01*
X133982795Y-107209747D01*
X133904774Y-107398105D01*
X133865000Y-107598064D01*
X133865000Y-107801942D01*
X133904774Y-108001901D01*
X133982795Y-108190259D01*
X134096063Y-108359777D01*
X134240226Y-108503940D01*
X134409744Y-108617208D01*
X134598102Y-108695229D01*
X134798061Y-108735003D01*
X135001939Y-108735003D01*
X135201898Y-108695229D01*
X135390256Y-108617208D01*
X135559774Y-108503940D01*
X135628711Y-108435003D01*
X137763892Y-108435003D01*
X137799997Y-108438559D01*
X137836102Y-108435003D01*
X137944082Y-108424368D01*
X137944291Y-108424305D01*
X137998061Y-108435000D01*
X138201939Y-108435000D01*
X138401898Y-108395226D01*
X138590256Y-108317205D01*
X138759774Y-108203937D01*
X138903937Y-108059774D01*
X139017205Y-107890256D01*
X139095226Y-107701898D01*
X139135000Y-107501939D01*
X139135000Y-107435000D01*
X149810423Y-107435000D01*
X149832794Y-107489007D01*
X149946062Y-107658525D01*
X150090225Y-107802688D01*
X150259743Y-107915956D01*
X150448101Y-107993977D01*
X150648060Y-108033751D01*
X150851938Y-108033751D01*
X151051897Y-107993977D01*
X151240255Y-107915956D01*
X151409773Y-107802688D01*
X151553936Y-107658525D01*
X151667204Y-107489007D01*
X151745225Y-107300649D01*
X151784999Y-107100690D01*
X151784999Y-106896812D01*
X151745225Y-106696853D01*
X151681675Y-106543431D01*
X151717205Y-106490256D01*
X151795226Y-106301898D01*
X151835000Y-106101939D01*
X151835000Y-105898061D01*
X151795226Y-105698102D01*
X151717205Y-105509744D01*
X151603937Y-105340226D01*
X151459774Y-105196063D01*
X151290256Y-105082795D01*
X151101898Y-105004774D01*
X150901939Y-104965000D01*
X150698061Y-104965000D01*
X150498102Y-105004774D01*
X150309744Y-105082795D01*
X150140226Y-105196063D01*
X150071289Y-105265000D01*
X148773440Y-105265000D01*
X148777525Y-105244464D01*
X148777525Y-105040586D01*
X148737751Y-104840627D01*
X148659730Y-104652269D01*
X148617622Y-104589250D01*
X148695226Y-104401898D01*
X148735000Y-104201939D01*
X148735000Y-103998061D01*
X148695226Y-103798102D01*
X148617205Y-103609744D01*
X148503937Y-103440226D01*
X148359774Y-103296063D01*
X148319970Y-103269467D01*
X148398061Y-103285000D01*
X148601939Y-103285000D01*
X148801898Y-103245226D01*
X148990256Y-103167205D01*
X149000000Y-103160694D01*
X149009744Y-103167205D01*
X149198102Y-103245226D01*
X149398061Y-103285000D01*
X149601939Y-103285000D01*
X149755808Y-103254394D01*
X149832795Y-103440256D01*
X149946063Y-103609774D01*
X150090226Y-103753937D01*
X150259744Y-103867205D01*
X150448102Y-103945226D01*
X150648061Y-103985000D01*
X150851939Y-103985000D01*
X151051898Y-103945226D01*
X151240256Y-103867205D01*
X151409774Y-103753937D01*
X151478711Y-103685000D01*
X153106783Y-103685000D01*
X153090226Y-103696063D01*
X152946063Y-103840226D01*
X152832795Y-104009744D01*
X152754774Y-104198102D01*
X152715000Y-104398061D01*
X152715000Y-104601939D01*
X152754774Y-104801898D01*
X152832795Y-104990256D01*
X152839306Y-105000000D01*
X152832795Y-105009744D01*
X152754774Y-105198102D01*
X152715000Y-105398061D01*
X152715000Y-105601939D01*
X152754774Y-105801898D01*
X152832795Y-105990256D01*
X152839306Y-106000000D01*
X152832795Y-106009744D01*
X152754774Y-106198102D01*
X152715000Y-106398061D01*
X152715000Y-106601939D01*
X152754774Y-106801898D01*
X152832795Y-106990256D01*
X152946063Y-107159774D01*
X153090226Y-107303937D01*
X153259744Y-107417205D01*
X153448102Y-107495226D01*
X153648061Y-107535000D01*
X153851939Y-107535000D01*
X154051898Y-107495226D01*
X154240256Y-107417205D01*
X154409774Y-107303937D01*
X154478711Y-107235000D01*
X158213895Y-107235000D01*
X158250000Y-107238556D01*
X158286105Y-107235000D01*
X158394085Y-107224365D01*
X158532633Y-107182337D01*
X158660320Y-107114087D01*
X158756688Y-107035000D01*
X158851939Y-107035000D01*
X159051898Y-106995226D01*
X159240256Y-106917205D01*
X159409774Y-106803937D01*
X159553937Y-106659774D01*
X159667205Y-106490256D01*
X159745226Y-106301898D01*
X159785000Y-106101939D01*
X159785000Y-105898061D01*
X159772457Y-105835001D01*
X165795555Y-105835001D01*
X166465000Y-106504447D01*
X166465000Y-106601939D01*
X166504774Y-106801898D01*
X166582795Y-106990256D01*
X166696063Y-107159774D01*
X166840226Y-107303937D01*
X167009744Y-107417205D01*
X167198102Y-107495226D01*
X167398061Y-107535000D01*
X167601939Y-107535000D01*
X167801898Y-107495226D01*
X167990256Y-107417205D01*
X168159774Y-107303937D01*
X168303937Y-107159774D01*
X168417205Y-106990256D01*
X168495226Y-106801898D01*
X168535000Y-106601939D01*
X168535000Y-106398061D01*
X168495226Y-106198102D01*
X168417205Y-106009744D01*
X168303937Y-105840226D01*
X168213711Y-105750000D01*
X168303937Y-105659774D01*
X168417205Y-105490256D01*
X168495226Y-105301898D01*
X168535000Y-105101939D01*
X168535000Y-104898061D01*
X168495226Y-104698102D01*
X168417205Y-104509744D01*
X168303937Y-104340226D01*
X168159774Y-104196063D01*
X167990256Y-104082795D01*
X167801898Y-104004774D01*
X167601939Y-103965000D01*
X167398061Y-103965000D01*
X167198102Y-104004774D01*
X167026114Y-104076014D01*
X166916949Y-104017664D01*
X166778401Y-103975636D01*
X166670421Y-103965001D01*
X166634316Y-103961445D01*
X166598211Y-103965001D01*
X159785000Y-103965001D01*
X159785000Y-103898061D01*
X159752565Y-103735000D01*
X170997435Y-103735000D01*
X170965000Y-103898061D01*
X170965000Y-104101939D01*
X171004774Y-104301898D01*
X171082795Y-104490256D01*
X171196063Y-104659774D01*
X171340226Y-104803937D01*
X171509744Y-104917205D01*
X171698102Y-104995226D01*
X171898061Y-105035000D01*
X172101939Y-105035000D01*
X172301898Y-104995226D01*
X172490256Y-104917205D01*
X172659774Y-104803937D01*
X172728711Y-104735000D01*
X178849328Y-104735000D01*
X178832795Y-104759744D01*
X178754774Y-104948102D01*
X178715000Y-105148061D01*
X178715000Y-105351939D01*
X178754774Y-105551898D01*
X178832795Y-105740256D01*
X178849328Y-105765000D01*
X174728711Y-105765000D01*
X174659774Y-105696063D01*
X174490256Y-105582795D01*
X174301898Y-105504774D01*
X174101939Y-105465000D01*
X173898061Y-105465000D01*
X173698102Y-105504774D01*
X173509744Y-105582795D01*
X173340226Y-105696063D01*
X173196063Y-105840226D01*
X173082795Y-106009744D01*
X173004774Y-106198102D01*
X172965000Y-106398061D01*
X172965000Y-106601939D01*
X173004774Y-106801898D01*
X173082795Y-106990256D01*
X173196063Y-107159774D01*
X173340226Y-107303937D01*
X173509744Y-107417205D01*
X173698102Y-107495226D01*
X173898061Y-107535000D01*
X174101939Y-107535000D01*
X174301898Y-107495226D01*
X174490256Y-107417205D01*
X174659774Y-107303937D01*
X174728711Y-107235000D01*
X181099328Y-107235000D01*
X181082795Y-107259744D01*
X181004774Y-107448102D01*
X180965000Y-107648061D01*
X180965000Y-107851939D01*
X181004774Y-108051898D01*
X181082795Y-108240256D01*
X181196063Y-108409774D01*
X181340226Y-108553937D01*
X181509744Y-108667205D01*
X181698102Y-108745226D01*
X181898061Y-108785000D01*
X182101939Y-108785000D01*
X182301898Y-108745226D01*
X182490256Y-108667205D01*
X182659774Y-108553937D01*
X182728711Y-108485000D01*
X187685162Y-108485000D01*
X187806525Y-108666632D01*
X187938380Y-108798487D01*
X187865820Y-108820498D01*
X187755506Y-108879463D01*
X187658815Y-108958815D01*
X187579463Y-109055506D01*
X187520498Y-109165820D01*
X187484188Y-109285518D01*
X187471928Y-109410000D01*
X187471928Y-111110000D01*
X187484188Y-111234482D01*
X187520498Y-111354180D01*
X187579463Y-111464494D01*
X187658815Y-111561185D01*
X187696786Y-111592347D01*
X187624133Y-111665000D01*
X185993554Y-111665000D01*
X186159772Y-111553937D01*
X186303935Y-111409774D01*
X186417203Y-111240256D01*
X186495224Y-111051898D01*
X186534998Y-110851939D01*
X186534998Y-110648061D01*
X186495224Y-110448102D01*
X186417203Y-110259744D01*
X186303935Y-110090226D01*
X186159772Y-109946063D01*
X185990254Y-109832795D01*
X185801896Y-109754774D01*
X185601937Y-109715000D01*
X185398059Y-109715000D01*
X185198100Y-109754774D01*
X185009742Y-109832795D01*
X184840224Y-109946063D01*
X184771287Y-110015000D01*
X158978711Y-110015000D01*
X158909774Y-109946063D01*
X158740256Y-109832795D01*
X158551898Y-109754774D01*
X158351939Y-109715000D01*
X158148061Y-109715000D01*
X157948102Y-109754774D01*
X157923414Y-109765000D01*
X140328711Y-109765000D01*
X140259774Y-109696063D01*
X140090256Y-109582795D01*
X139901898Y-109504774D01*
X139701939Y-109465000D01*
X139498061Y-109465000D01*
X139298102Y-109504774D01*
X139109744Y-109582795D01*
X138940226Y-109696063D01*
X138796063Y-109840226D01*
X138682795Y-110009744D01*
X138604774Y-110198102D01*
X138565000Y-110398061D01*
X138565000Y-110601939D01*
X138604774Y-110801898D01*
X138682795Y-110990256D01*
X138796063Y-111159774D01*
X138940226Y-111303937D01*
X139109744Y-111417205D01*
X139298102Y-111495226D01*
X139498061Y-111535000D01*
X139701939Y-111535000D01*
X139865000Y-111502565D01*
X139865000Y-111601939D01*
X139877544Y-111665000D01*
X138353899Y-111665000D01*
X138303937Y-111590226D01*
X138159774Y-111446063D01*
X137990256Y-111332795D01*
X137801898Y-111254774D01*
X137601939Y-111215000D01*
X137398061Y-111215000D01*
X137198102Y-111254774D01*
X137009744Y-111332795D01*
X136840226Y-111446063D01*
X136696063Y-111590226D01*
X136582795Y-111759744D01*
X136504774Y-111948102D01*
X136465000Y-112148061D01*
X136465000Y-112351939D01*
X136504774Y-112551898D01*
X136582795Y-112740256D01*
X136696063Y-112909774D01*
X136840226Y-113053937D01*
X137009744Y-113167205D01*
X137198102Y-113245226D01*
X137398061Y-113285000D01*
X137461312Y-113285000D01*
X137586311Y-113322918D01*
X137708981Y-113335000D01*
X137708991Y-113335000D01*
X137749999Y-113339039D01*
X137791007Y-113335000D01*
X152051623Y-113335000D01*
X152004774Y-113448102D01*
X151965000Y-113648061D01*
X151965000Y-113851939D01*
X152004774Y-114051898D01*
X152082795Y-114240256D01*
X152196063Y-114409774D01*
X152340226Y-114553937D01*
X152509744Y-114667205D01*
X152698102Y-114745226D01*
X152898061Y-114785000D01*
X153101939Y-114785000D01*
X153301898Y-114745226D01*
X153490256Y-114667205D01*
X153659774Y-114553937D01*
X153728711Y-114485000D01*
X168271289Y-114485000D01*
X168340226Y-114553937D01*
X168509744Y-114667205D01*
X168698102Y-114745226D01*
X168898061Y-114785000D01*
X169101939Y-114785000D01*
X169301898Y-114745226D01*
X169490256Y-114667205D01*
X169659774Y-114553937D01*
X169803937Y-114409774D01*
X169917205Y-114240256D01*
X169995226Y-114051898D01*
X170035000Y-113851939D01*
X170035000Y-113648061D01*
X169995226Y-113448102D01*
X169948377Y-113335000D01*
X187928982Y-113335000D01*
X187970000Y-113339040D01*
X188011018Y-113335000D01*
X188011019Y-113335000D01*
X188133689Y-113322918D01*
X188291087Y-113275172D01*
X188436146Y-113197636D01*
X188563291Y-113093291D01*
X188589446Y-113061421D01*
X189521428Y-112129440D01*
X189553291Y-112103291D01*
X189657636Y-111976146D01*
X189735172Y-111831087D01*
X189760354Y-111748072D01*
X189810000Y-111748072D01*
X189934482Y-111735812D01*
X190054180Y-111699502D01*
X190164494Y-111640537D01*
X190261185Y-111561185D01*
X190340537Y-111464494D01*
X190399502Y-111354180D01*
X190422498Y-111278374D01*
X190618645Y-111455178D01*
X190868748Y-111604157D01*
X191143109Y-111701481D01*
X191373000Y-111580814D01*
X191373000Y-110387000D01*
X191627000Y-110387000D01*
X191627000Y-111580814D01*
X191856891Y-111701481D01*
X192131252Y-111604157D01*
X192381355Y-111455178D01*
X192597588Y-111260269D01*
X192771641Y-111026920D01*
X192896825Y-110764099D01*
X192941476Y-110616890D01*
X192820155Y-110387000D01*
X191627000Y-110387000D01*
X191373000Y-110387000D01*
X191353000Y-110387000D01*
X191353000Y-110133000D01*
X191373000Y-110133000D01*
X191373000Y-110113000D01*
X191627000Y-110113000D01*
X191627000Y-110133000D01*
X192820155Y-110133000D01*
X192941476Y-109903110D01*
X192896825Y-109755901D01*
X192771641Y-109493080D01*
X192597588Y-109259731D01*
X192381355Y-109064822D01*
X192264466Y-108995195D01*
X192446632Y-108873475D01*
X192653475Y-108666632D01*
X192815990Y-108423411D01*
X192927932Y-108153158D01*
X192985000Y-107866260D01*
X192985000Y-107573740D01*
X192927932Y-107286842D01*
X192815990Y-107016589D01*
X192653475Y-106773368D01*
X192446632Y-106566525D01*
X192272240Y-106450000D01*
X192446632Y-106333475D01*
X192653475Y-106126632D01*
X192815990Y-105883411D01*
X192927932Y-105613158D01*
X192985000Y-105326260D01*
X192985000Y-105033740D01*
X192927932Y-104746842D01*
X192815990Y-104476589D01*
X192653475Y-104233368D01*
X192446632Y-104026525D01*
X192272240Y-103910000D01*
X192446632Y-103793475D01*
X192653475Y-103586632D01*
X192815990Y-103343411D01*
X192927932Y-103073158D01*
X192985000Y-102786260D01*
X192985000Y-102493740D01*
X192927932Y-102206842D01*
X192815990Y-101936589D01*
X192653475Y-101693368D01*
X192446632Y-101486525D01*
X192272240Y-101370000D01*
X192446632Y-101253475D01*
X192653475Y-101046632D01*
X192815990Y-100803411D01*
X192927932Y-100533158D01*
X192985000Y-100246260D01*
X192985000Y-99953740D01*
X192927932Y-99666842D01*
X192815990Y-99396589D01*
X192653475Y-99153368D01*
X192446632Y-98946525D01*
X192272240Y-98830000D01*
X192446632Y-98713475D01*
X192653475Y-98506632D01*
X192815990Y-98263411D01*
X192927932Y-97993158D01*
X192985000Y-97706260D01*
X192985000Y-97413740D01*
X192927932Y-97126842D01*
X192815990Y-96856589D01*
X192653475Y-96613368D01*
X192446632Y-96406525D01*
X192272240Y-96290000D01*
X192446632Y-96173475D01*
X192653475Y-95966632D01*
X192815990Y-95723411D01*
X192927932Y-95453158D01*
X192985000Y-95166260D01*
X192985000Y-94873740D01*
X192927932Y-94586842D01*
X192815990Y-94316589D01*
X192653475Y-94073368D01*
X192446632Y-93866525D01*
X192272240Y-93750000D01*
X192446632Y-93633475D01*
X192653475Y-93426632D01*
X192815990Y-93183411D01*
X192927932Y-92913158D01*
X192985000Y-92626260D01*
X192985000Y-92333740D01*
X192927932Y-92046842D01*
X192815990Y-91776589D01*
X192653475Y-91533368D01*
X192446632Y-91326525D01*
X192272240Y-91210000D01*
X192446632Y-91093475D01*
X192653475Y-90886632D01*
X192815990Y-90643411D01*
X192927932Y-90373158D01*
X192985000Y-90086260D01*
X192985000Y-89793740D01*
X192927932Y-89506842D01*
X192815990Y-89236589D01*
X192653475Y-88993368D01*
X192446632Y-88786525D01*
X192272240Y-88670000D01*
X192446632Y-88553475D01*
X192653475Y-88346632D01*
X192815990Y-88103411D01*
X192927932Y-87833158D01*
X192985000Y-87546260D01*
X192985000Y-87253740D01*
X192927932Y-86966842D01*
X192815990Y-86696589D01*
X192653475Y-86453368D01*
X192446632Y-86246525D01*
X192272240Y-86130000D01*
X192446632Y-86013475D01*
X192653475Y-85806632D01*
X192815990Y-85563411D01*
X192927932Y-85293158D01*
X192985000Y-85006260D01*
X192985000Y-84713740D01*
X192927932Y-84426842D01*
X192815990Y-84156589D01*
X192653475Y-83913368D01*
X192446632Y-83706525D01*
X192272240Y-83590000D01*
X192446632Y-83473475D01*
X192653475Y-83266632D01*
X192815990Y-83023411D01*
X192927932Y-82753158D01*
X192985000Y-82466260D01*
X192985000Y-82173740D01*
X192927932Y-81886842D01*
X192815990Y-81616589D01*
X192653475Y-81373368D01*
X192446632Y-81166525D01*
X192272240Y-81050000D01*
X192446632Y-80933475D01*
X192653475Y-80726632D01*
X192815990Y-80483411D01*
X192927932Y-80213158D01*
X192985000Y-79926260D01*
X192985000Y-79633740D01*
X192927932Y-79346842D01*
X192815990Y-79076589D01*
X192653475Y-78833368D01*
X192446632Y-78626525D01*
X192272240Y-78510000D01*
X192446632Y-78393475D01*
X192653475Y-78186632D01*
X192815990Y-77943411D01*
X192927932Y-77673158D01*
X192985000Y-77386260D01*
X192985000Y-77093740D01*
X192927932Y-76806842D01*
X192815990Y-76536589D01*
X192653475Y-76293368D01*
X192446632Y-76086525D01*
X192272240Y-75970000D01*
X192446632Y-75853475D01*
X192653475Y-75646632D01*
X192815990Y-75403411D01*
X192927932Y-75133158D01*
X192985000Y-74846260D01*
X192985000Y-74553740D01*
X192927932Y-74266842D01*
X192815990Y-73996589D01*
X192653475Y-73753368D01*
X192446632Y-73546525D01*
X192272240Y-73430000D01*
X192446632Y-73313475D01*
X192653475Y-73106632D01*
X192815990Y-72863411D01*
X192927932Y-72593158D01*
X192985000Y-72306260D01*
X192985000Y-72013740D01*
X192927932Y-71726842D01*
X192815990Y-71456589D01*
X192653475Y-71213368D01*
X192446632Y-71006525D01*
X192272240Y-70890000D01*
X192446632Y-70773475D01*
X192653475Y-70566632D01*
X192815990Y-70323411D01*
X192927932Y-70053158D01*
X192985000Y-69766260D01*
X192985000Y-69473740D01*
X192927932Y-69186842D01*
X192815990Y-68916589D01*
X192653475Y-68673368D01*
X192446632Y-68466525D01*
X192272240Y-68350000D01*
X192446632Y-68233475D01*
X192653475Y-68026632D01*
X192815990Y-67783411D01*
X192927932Y-67513158D01*
X192985000Y-67226260D01*
X192985000Y-66933740D01*
X192927932Y-66646842D01*
X192815990Y-66376589D01*
X192653475Y-66133368D01*
X192446632Y-65926525D01*
X192272240Y-65810000D01*
X192446632Y-65693475D01*
X192653475Y-65486632D01*
X192815990Y-65243411D01*
X192927932Y-64973158D01*
X192985000Y-64686260D01*
X192985000Y-64393740D01*
X192927932Y-64106842D01*
X192815990Y-63836589D01*
X192653475Y-63593368D01*
X192446632Y-63386525D01*
X192272240Y-63270000D01*
X192446632Y-63153475D01*
X192653475Y-62946632D01*
X192815990Y-62703411D01*
X192927932Y-62433158D01*
X192985000Y-62146260D01*
X192985000Y-61853740D01*
X192927932Y-61566842D01*
X192815990Y-61296589D01*
X192653475Y-61053368D01*
X192446632Y-60846525D01*
X192203411Y-60684010D01*
X191933158Y-60572068D01*
X191646260Y-60515000D01*
X191353740Y-60515000D01*
X191066842Y-60572068D01*
X190796589Y-60684010D01*
X190553368Y-60846525D01*
X190346525Y-61053368D01*
X190228900Y-61229406D01*
X190057588Y-60999731D01*
X189841355Y-60804822D01*
X189591252Y-60655843D01*
X189316891Y-60558519D01*
X189087000Y-60679186D01*
X189087000Y-61873000D01*
X189107000Y-61873000D01*
X189107000Y-62127000D01*
X189087000Y-62127000D01*
X189087000Y-62147000D01*
X188833000Y-62147000D01*
X188833000Y-62127000D01*
X187639845Y-62127000D01*
X187518524Y-62356890D01*
X187563175Y-62504099D01*
X187635050Y-62654999D01*
X184848317Y-62654999D01*
X184740256Y-62582795D01*
X184551898Y-62504774D01*
X184351939Y-62465000D01*
X184148061Y-62465000D01*
X183948102Y-62504774D01*
X183759744Y-62582795D01*
X183590226Y-62696063D01*
X183446063Y-62840226D01*
X183332795Y-63009744D01*
X183254774Y-63198102D01*
X183215000Y-63398061D01*
X183215000Y-63601939D01*
X183254774Y-63801898D01*
X183332795Y-63990256D01*
X183446063Y-64159774D01*
X183590226Y-64303937D01*
X183759744Y-64417205D01*
X183948102Y-64495226D01*
X184148061Y-64535000D01*
X184351939Y-64535000D01*
X184551898Y-64495226D01*
X184740256Y-64417205D01*
X184909774Y-64303937D01*
X185053937Y-64159774D01*
X185077173Y-64124999D01*
X187528456Y-64124999D01*
X187475000Y-64393740D01*
X187475000Y-64686260D01*
X187532068Y-64973158D01*
X187549399Y-65015000D01*
X185478711Y-65015000D01*
X185409774Y-64946063D01*
X185240256Y-64832795D01*
X185051898Y-64754774D01*
X184851939Y-64715000D01*
X184648061Y-64715000D01*
X184448102Y-64754774D01*
X184259744Y-64832795D01*
X184090226Y-64946063D01*
X183946063Y-65090226D01*
X183832795Y-65259744D01*
X183754774Y-65448102D01*
X183715000Y-65648061D01*
X183715000Y-65851939D01*
X183754774Y-66051898D01*
X183832795Y-66240256D01*
X183946063Y-66409774D01*
X184090226Y-66553937D01*
X184259744Y-66667205D01*
X184448102Y-66745226D01*
X184493600Y-66754276D01*
X184465000Y-66898061D01*
X184465000Y-67101939D01*
X184504774Y-67301898D01*
X184582795Y-67490256D01*
X184696063Y-67659774D01*
X184840226Y-67803937D01*
X185009744Y-67917205D01*
X185198102Y-67995226D01*
X185398061Y-68035000D01*
X185601939Y-68035000D01*
X185801898Y-67995226D01*
X185990256Y-67917205D01*
X186143217Y-67815000D01*
X187665117Y-67815000D01*
X187806525Y-68026632D01*
X188013368Y-68233475D01*
X188187760Y-68350000D01*
X188013368Y-68466525D01*
X187806525Y-68673368D01*
X187665117Y-68885000D01*
X148448732Y-68885000D01*
X148409774Y-68846042D01*
X148240256Y-68732774D01*
X148051898Y-68654753D01*
X147851939Y-68614979D01*
X147721194Y-68614979D01*
X147632634Y-68567643D01*
X147494086Y-68525615D01*
X147386106Y-68514980D01*
X147350001Y-68511424D01*
X147313896Y-68514980D01*
X125836115Y-68514980D01*
X125800010Y-68511424D01*
X125655924Y-68525615D01*
X125613896Y-68538364D01*
X125517377Y-68567643D01*
X125389690Y-68635893D01*
X125277772Y-68727742D01*
X125254756Y-68755787D01*
X124995553Y-69014990D01*
X124898061Y-69014990D01*
X124698102Y-69054764D01*
X124509744Y-69132785D01*
X124340226Y-69246053D01*
X124196063Y-69390216D01*
X124082795Y-69559734D01*
X124004774Y-69748092D01*
X123965000Y-69948051D01*
X123965000Y-69965000D01*
X123898061Y-69965000D01*
X123698102Y-70004774D01*
X123509744Y-70082795D01*
X123340226Y-70196063D01*
X123196063Y-70340226D01*
X123082795Y-70509744D01*
X123004774Y-70698102D01*
X122965000Y-70898061D01*
X122965000Y-71101939D01*
X123004774Y-71301898D01*
X123082795Y-71490256D01*
X123196063Y-71659774D01*
X123340226Y-71803937D01*
X123509744Y-71917205D01*
X123698102Y-71995226D01*
X123898061Y-72035000D01*
X124101939Y-72035000D01*
X124301898Y-71995226D01*
X124490256Y-71917205D01*
X124659774Y-71803937D01*
X124728711Y-71735000D01*
X125349328Y-71735000D01*
X125332795Y-71759744D01*
X125254774Y-71948102D01*
X125215000Y-72148061D01*
X125215000Y-72351939D01*
X125254774Y-72551898D01*
X125260201Y-72564999D01*
X122736106Y-72564999D01*
X122700001Y-72561443D01*
X122555916Y-72575634D01*
X122417367Y-72617662D01*
X122337562Y-72660319D01*
X122289681Y-72685912D01*
X122254237Y-72715000D01*
X122148061Y-72715000D01*
X121948102Y-72754774D01*
X121759744Y-72832795D01*
X121590226Y-72946063D01*
X121446063Y-73090226D01*
X121332795Y-73259744D01*
X121254774Y-73448102D01*
X121215000Y-73648061D01*
X121215000Y-73851939D01*
X121254774Y-74051898D01*
X121332795Y-74240256D01*
X121446063Y-74409774D01*
X121590226Y-74553937D01*
X121759744Y-74667205D01*
X121948102Y-74745226D01*
X122148061Y-74785000D01*
X122351939Y-74785000D01*
X122551898Y-74745226D01*
X122740256Y-74667205D01*
X122909774Y-74553937D01*
X123053937Y-74409774D01*
X123167205Y-74240256D01*
X123245226Y-74051898D01*
X123248587Y-74034999D01*
X133625133Y-74034999D01*
X133509744Y-74082795D01*
X133340226Y-74196063D01*
X133196063Y-74340226D01*
X133082795Y-74509744D01*
X133004774Y-74698102D01*
X132965000Y-74898061D01*
X132965000Y-75101939D01*
X132977543Y-75164999D01*
X121731514Y-75164999D01*
X121667205Y-75009744D01*
X121553937Y-74840226D01*
X121409774Y-74696063D01*
X121240256Y-74582795D01*
X121051898Y-74504774D01*
X120851939Y-74465000D01*
X120648061Y-74465000D01*
X120448102Y-74504774D01*
X120259744Y-74582795D01*
X120090226Y-74696063D01*
X119946063Y-74840226D01*
X119832795Y-75009744D01*
X119754774Y-75198102D01*
X119715000Y-75398061D01*
X119715000Y-75601939D01*
X119754774Y-75801898D01*
X119832795Y-75990256D01*
X119946063Y-76159774D01*
X120090226Y-76303937D01*
X120259744Y-76417205D01*
X120448102Y-76495226D01*
X120648061Y-76535000D01*
X120778806Y-76535000D01*
X120867366Y-76582336D01*
X120931989Y-76601939D01*
X121005913Y-76624364D01*
X121149998Y-76638555D01*
X121186103Y-76634999D01*
X131967598Y-76634999D01*
X131965000Y-76648061D01*
X131965000Y-76765000D01*
X120478711Y-76765000D01*
X120409774Y-76696063D01*
X120240256Y-76582795D01*
X120051898Y-76504774D01*
X119851939Y-76465000D01*
X119648061Y-76465000D01*
X119448102Y-76504774D01*
X119259744Y-76582795D01*
X119090226Y-76696063D01*
X118946063Y-76840226D01*
X118832795Y-77009744D01*
X118754774Y-77198102D01*
X118715000Y-77398061D01*
X118715000Y-77601939D01*
X118754774Y-77801898D01*
X118832795Y-77990256D01*
X118946063Y-78159774D01*
X119090226Y-78303937D01*
X119259744Y-78417205D01*
X119448102Y-78495226D01*
X119648061Y-78535000D01*
X119851939Y-78535000D01*
X120051898Y-78495226D01*
X120240256Y-78417205D01*
X120409774Y-78303937D01*
X120478711Y-78235000D01*
X140801289Y-78235000D01*
X140696063Y-78340226D01*
X140582795Y-78509744D01*
X140504774Y-78698102D01*
X140465000Y-78898061D01*
X140465000Y-79001413D01*
X140448102Y-79004774D01*
X140259744Y-79082795D01*
X140090226Y-79196063D01*
X139946063Y-79340226D01*
X139832795Y-79509744D01*
X139754774Y-79698102D01*
X139715000Y-79898061D01*
X139715000Y-80101939D01*
X139743600Y-80245724D01*
X139698102Y-80254774D01*
X139509744Y-80332795D01*
X139340226Y-80446063D01*
X139196063Y-80590226D01*
X139082795Y-80759744D01*
X139004774Y-80948102D01*
X138965000Y-81148061D01*
X138965000Y-81215000D01*
X138898061Y-81215000D01*
X138698102Y-81254774D01*
X138509744Y-81332795D01*
X138340226Y-81446063D01*
X138196063Y-81590226D01*
X138082795Y-81759744D01*
X138004774Y-81948102D01*
X137965000Y-82148061D01*
X137965000Y-82314999D01*
X137940093Y-82314999D01*
X137917205Y-82259744D01*
X137803937Y-82090226D01*
X137659774Y-81946063D01*
X137490256Y-81832795D01*
X137301898Y-81754774D01*
X137101939Y-81715000D01*
X136898061Y-81715000D01*
X136698102Y-81754774D01*
X136509744Y-81832795D01*
X136386715Y-81915000D01*
X129613285Y-81915000D01*
X129490256Y-81832795D01*
X129301898Y-81754774D01*
X129101939Y-81715000D01*
X128898061Y-81715000D01*
X128698102Y-81754774D01*
X128509744Y-81832795D01*
X128340226Y-81946063D01*
X128196063Y-82090226D01*
X128082795Y-82259744D01*
X128004774Y-82448102D01*
X127965000Y-82648061D01*
X127965000Y-82851939D01*
X128004774Y-83051898D01*
X128082795Y-83240256D01*
X128196063Y-83409774D01*
X128201288Y-83414999D01*
X119603899Y-83414999D01*
X119553937Y-83340226D01*
X119409774Y-83196063D01*
X119240256Y-83082795D01*
X119051898Y-83004774D01*
X118851939Y-82965000D01*
X118648061Y-82965000D01*
X118448102Y-83004774D01*
X118259744Y-83082795D01*
X118090226Y-83196063D01*
X117946063Y-83340226D01*
X117832795Y-83509744D01*
X117754774Y-83698102D01*
X117745372Y-83745372D01*
X117698102Y-83754774D01*
X117509744Y-83832795D01*
X117340226Y-83946063D01*
X117196063Y-84090226D01*
X117082795Y-84259744D01*
X117004774Y-84448102D01*
X116965000Y-84648061D01*
X116965000Y-84851939D01*
X117004774Y-85051898D01*
X117078098Y-85228916D01*
X116948102Y-85254774D01*
X116759744Y-85332795D01*
X116590226Y-85446063D01*
X116446063Y-85590226D01*
X116332795Y-85759744D01*
X116254774Y-85948102D01*
X116215000Y-86148061D01*
X116215000Y-86351939D01*
X116243600Y-86495724D01*
X116198102Y-86504774D01*
X116009744Y-86582795D01*
X115840226Y-86696063D01*
X115696063Y-86840226D01*
X115582795Y-87009744D01*
X115504774Y-87198102D01*
X115465000Y-87398061D01*
X110660000Y-87398061D01*
X110660000Y-63898061D01*
X149965000Y-63898061D01*
X149965000Y-64101939D01*
X150004774Y-64301898D01*
X150082795Y-64490256D01*
X150196063Y-64659774D01*
X150340226Y-64803937D01*
X150509744Y-64917205D01*
X150698102Y-64995226D01*
X150898061Y-65035000D01*
X151101939Y-65035000D01*
X151301898Y-64995226D01*
X151490256Y-64917205D01*
X151659774Y-64803937D01*
X151728711Y-64735000D01*
X151965000Y-64735000D01*
X151965000Y-64801939D01*
X152004774Y-65001898D01*
X152082795Y-65190256D01*
X152196063Y-65359774D01*
X152340226Y-65503937D01*
X152509744Y-65617205D01*
X152698102Y-65695226D01*
X152898061Y-65735000D01*
X153101939Y-65735000D01*
X153301898Y-65695226D01*
X153490256Y-65617205D01*
X153659774Y-65503937D01*
X153728711Y-65435000D01*
X156971289Y-65435000D01*
X157090226Y-65553937D01*
X157259744Y-65667205D01*
X157448102Y-65745226D01*
X157648061Y-65785000D01*
X157851939Y-65785000D01*
X158051898Y-65745226D01*
X158240256Y-65667205D01*
X158409774Y-65553937D01*
X158553937Y-65409774D01*
X158667205Y-65240256D01*
X158745226Y-65051898D01*
X158785000Y-64851939D01*
X158785000Y-64648061D01*
X158745226Y-64448102D01*
X158667205Y-64259744D01*
X158553937Y-64090226D01*
X158409774Y-63946063D01*
X158240256Y-63832795D01*
X158051898Y-63754774D01*
X157851939Y-63715000D01*
X157748711Y-63715000D01*
X157803937Y-63659774D01*
X157917205Y-63490256D01*
X157995226Y-63301898D01*
X158035000Y-63101939D01*
X158035000Y-62898061D01*
X157995226Y-62698102D01*
X157917205Y-62509744D01*
X157803937Y-62340226D01*
X157659774Y-62196063D01*
X157490256Y-62082795D01*
X157301898Y-62004774D01*
X157101939Y-61965000D01*
X156898061Y-61965000D01*
X156698102Y-62004774D01*
X156509744Y-62082795D01*
X156340226Y-62196063D01*
X156271289Y-62265000D01*
X155228711Y-62265000D01*
X155159774Y-62196063D01*
X154990256Y-62082795D01*
X154801898Y-62004774D01*
X154601939Y-61965000D01*
X154398061Y-61965000D01*
X154198102Y-62004774D01*
X154009744Y-62082795D01*
X153840226Y-62196063D01*
X153696063Y-62340226D01*
X153582795Y-62509744D01*
X153504774Y-62698102D01*
X153465000Y-62898061D01*
X153465000Y-63101939D01*
X153497435Y-63265000D01*
X151728711Y-63265000D01*
X151659774Y-63196063D01*
X151490256Y-63082795D01*
X151301898Y-63004774D01*
X151101939Y-62965000D01*
X150898061Y-62965000D01*
X150698102Y-63004774D01*
X150509744Y-63082795D01*
X150340226Y-63196063D01*
X150196063Y-63340226D01*
X150082795Y-63509744D01*
X150004774Y-63698102D01*
X149965000Y-63898061D01*
X110660000Y-63898061D01*
X110660000Y-61643110D01*
X187518524Y-61643110D01*
X187639845Y-61873000D01*
X188833000Y-61873000D01*
X188833000Y-60679186D01*
X188603109Y-60558519D01*
X188328748Y-60655843D01*
X188078645Y-60804822D01*
X187862412Y-60999731D01*
X187688359Y-61233080D01*
X187563175Y-61495901D01*
X187518524Y-61643110D01*
X110660000Y-61643110D01*
X110660000Y-54779872D01*
X112765000Y-54779872D01*
X112765000Y-55220128D01*
X112850890Y-55651925D01*
X113019369Y-56058669D01*
X113263962Y-56424729D01*
X113575271Y-56736038D01*
X113941331Y-56980631D01*
X114348075Y-57149110D01*
X114779872Y-57235000D01*
X115220128Y-57235000D01*
X115651925Y-57149110D01*
X116058669Y-56980631D01*
X116424729Y-56736038D01*
X116736038Y-56424729D01*
X116980631Y-56058669D01*
X117149110Y-55651925D01*
X117235000Y-55220128D01*
X117235000Y-54779872D01*
X192765000Y-54779872D01*
X192765000Y-55220128D01*
X192850890Y-55651925D01*
X193019369Y-56058669D01*
X193263962Y-56424729D01*
X193575271Y-56736038D01*
X193941331Y-56980631D01*
X194348075Y-57149110D01*
X194779872Y-57235000D01*
X195220128Y-57235000D01*
X195651925Y-57149110D01*
X196058669Y-56980631D01*
X196424729Y-56736038D01*
X196736038Y-56424729D01*
X196980631Y-56058669D01*
X197149110Y-55651925D01*
X197235000Y-55220128D01*
X197235000Y-54779872D01*
X197149110Y-54348075D01*
X196980631Y-53941331D01*
X196736038Y-53575271D01*
X196424729Y-53263962D01*
X196058669Y-53019369D01*
X195651925Y-52850890D01*
X195220128Y-52765000D01*
X194779872Y-52765000D01*
X194348075Y-52850890D01*
X193941331Y-53019369D01*
X193575271Y-53263962D01*
X193263962Y-53575271D01*
X193019369Y-53941331D01*
X192850890Y-54348075D01*
X192765000Y-54779872D01*
X117235000Y-54779872D01*
X117149110Y-54348075D01*
X116980631Y-53941331D01*
X116736038Y-53575271D01*
X116424729Y-53263962D01*
X116058669Y-53019369D01*
X115651925Y-52850890D01*
X115220128Y-52765000D01*
X114779872Y-52765000D01*
X114348075Y-52850890D01*
X113941331Y-53019369D01*
X113575271Y-53263962D01*
X113263962Y-53575271D01*
X113019369Y-53941331D01*
X112850890Y-54348075D01*
X112765000Y-54779872D01*
X110660000Y-54779872D01*
X110660000Y-50660000D01*
X199340000Y-50660000D01*
X199340001Y-149340000D01*
G37*
X199340001Y-149340000D02*
X110660000Y-149340000D01*
X110660000Y-144779872D01*
X112765000Y-144779872D01*
X112765000Y-145220128D01*
X112850890Y-145651925D01*
X113019369Y-146058669D01*
X113263962Y-146424729D01*
X113575271Y-146736038D01*
X113941331Y-146980631D01*
X114348075Y-147149110D01*
X114779872Y-147235000D01*
X115220128Y-147235000D01*
X115651925Y-147149110D01*
X116058669Y-146980631D01*
X116424729Y-146736038D01*
X116736038Y-146424729D01*
X116980631Y-146058669D01*
X117149110Y-145651925D01*
X117235000Y-145220128D01*
X117235000Y-144779872D01*
X192765000Y-144779872D01*
X192765000Y-145220128D01*
X192850890Y-145651925D01*
X193019369Y-146058669D01*
X193263962Y-146424729D01*
X193575271Y-146736038D01*
X193941331Y-146980631D01*
X194348075Y-147149110D01*
X194779872Y-147235000D01*
X195220128Y-147235000D01*
X195651925Y-147149110D01*
X196058669Y-146980631D01*
X196424729Y-146736038D01*
X196736038Y-146424729D01*
X196980631Y-146058669D01*
X197149110Y-145651925D01*
X197235000Y-145220128D01*
X197235000Y-144779872D01*
X197149110Y-144348075D01*
X196980631Y-143941331D01*
X196736038Y-143575271D01*
X196424729Y-143263962D01*
X196058669Y-143019369D01*
X195651925Y-142850890D01*
X195220128Y-142765000D01*
X194779872Y-142765000D01*
X194348075Y-142850890D01*
X193941331Y-143019369D01*
X193575271Y-143263962D01*
X193263962Y-143575271D01*
X193019369Y-143941331D01*
X192850890Y-144348075D01*
X192765000Y-144779872D01*
X117235000Y-144779872D01*
X117149110Y-144348075D01*
X116980631Y-143941331D01*
X116736038Y-143575271D01*
X116424729Y-143263962D01*
X116058669Y-143019369D01*
X115651925Y-142850890D01*
X115220128Y-142765000D01*
X114779872Y-142765000D01*
X114348075Y-142850890D01*
X113941331Y-143019369D01*
X113575271Y-143263962D01*
X113263962Y-143575271D01*
X113019369Y-143941331D01*
X112850890Y-144348075D01*
X112765000Y-144779872D01*
X110660000Y-144779872D01*
X110660000Y-87398061D01*
X115465000Y-87398061D01*
X115465000Y-87601939D01*
X115504774Y-87801898D01*
X115582795Y-87990256D01*
X115696063Y-88159774D01*
X115840226Y-88303937D01*
X116009744Y-88417205D01*
X116198102Y-88495226D01*
X116398061Y-88535000D01*
X116601939Y-88535000D01*
X116801898Y-88495226D01*
X116990256Y-88417205D01*
X117159774Y-88303937D01*
X117228719Y-88234992D01*
X130349334Y-88234992D01*
X130332795Y-88259744D01*
X130254774Y-88448102D01*
X130215000Y-88648061D01*
X130215000Y-88851939D01*
X130254774Y-89051898D01*
X130332795Y-89240256D01*
X130446063Y-89409774D01*
X130590226Y-89553937D01*
X130759744Y-89667205D01*
X130948102Y-89745226D01*
X131148061Y-89785000D01*
X131351939Y-89785000D01*
X131551898Y-89745226D01*
X131740256Y-89667205D01*
X131909774Y-89553937D01*
X131978711Y-89485000D01*
X135225553Y-89485000D01*
X134745554Y-89965000D01*
X134648061Y-89965000D01*
X134448102Y-90004774D01*
X134259744Y-90082795D01*
X134090226Y-90196063D01*
X133946063Y-90340226D01*
X133832795Y-90509744D01*
X133754774Y-90698102D01*
X133715000Y-90898061D01*
X133715000Y-91101939D01*
X133754774Y-91301898D01*
X133832795Y-91490256D01*
X133922828Y-91625000D01*
X133832795Y-91759744D01*
X133754774Y-91948102D01*
X133715000Y-92148061D01*
X133715000Y-92351939D01*
X133754774Y-92551898D01*
X133832795Y-92740256D01*
X133946063Y-92909774D01*
X134090226Y-93053937D01*
X134259744Y-93167205D01*
X134448102Y-93245226D01*
X134648061Y-93285000D01*
X134851939Y-93285000D01*
X135051898Y-93245226D01*
X135240256Y-93167205D01*
X135409774Y-93053937D01*
X135478711Y-92985000D01*
X135771289Y-92985000D01*
X135840226Y-93053937D01*
X136009744Y-93167205D01*
X136198102Y-93245226D01*
X136398061Y-93285000D01*
X136601939Y-93285000D01*
X136801898Y-93245226D01*
X136990256Y-93167205D01*
X137159774Y-93053937D01*
X137303937Y-92909774D01*
X137417205Y-92740256D01*
X137495226Y-92551898D01*
X137535000Y-92351939D01*
X137535000Y-92148061D01*
X137495226Y-91948102D01*
X137417205Y-91759744D01*
X137303937Y-91590226D01*
X137159774Y-91446063D01*
X136990256Y-91332795D01*
X136801898Y-91254774D01*
X136601939Y-91215000D01*
X136398061Y-91215000D01*
X136198102Y-91254774D01*
X136009744Y-91332795D01*
X135840226Y-91446063D01*
X135771289Y-91515000D01*
X135650672Y-91515000D01*
X135667205Y-91490256D01*
X135745226Y-91301898D01*
X135785000Y-91101939D01*
X135785000Y-91004446D01*
X136554447Y-90235000D01*
X146497437Y-90235000D01*
X146476594Y-90339783D01*
X146351939Y-90314988D01*
X146148061Y-90314988D01*
X145948102Y-90354762D01*
X145759744Y-90432783D01*
X145590226Y-90546051D01*
X145446063Y-90690214D01*
X145332795Y-90859732D01*
X145254774Y-91048090D01*
X145215000Y-91248049D01*
X145215000Y-91314998D01*
X142190092Y-91314998D01*
X142167205Y-91259744D01*
X142053937Y-91090226D01*
X141909774Y-90946063D01*
X141740256Y-90832795D01*
X141551898Y-90754774D01*
X141351939Y-90715000D01*
X141148061Y-90715000D01*
X140948102Y-90754774D01*
X140759744Y-90832795D01*
X140590226Y-90946063D01*
X140446063Y-91090226D01*
X140332795Y-91259744D01*
X140254774Y-91448102D01*
X140215000Y-91648061D01*
X140215000Y-91851939D01*
X140254774Y-92051898D01*
X140332795Y-92240256D01*
X140446063Y-92409774D01*
X140590226Y-92553937D01*
X140759744Y-92667205D01*
X140948102Y-92745226D01*
X141148061Y-92785000D01*
X141278809Y-92785000D01*
X141367365Y-92832335D01*
X141505913Y-92874364D01*
X141649998Y-92888555D01*
X141649999Y-92888555D01*
X141794084Y-92874364D01*
X141932632Y-92832335D01*
X142021193Y-92784998D01*
X152465000Y-92784998D01*
X152465000Y-92851939D01*
X152504774Y-93051898D01*
X152582795Y-93240256D01*
X152696063Y-93409774D01*
X152840226Y-93553937D01*
X153009744Y-93667205D01*
X153125135Y-93715002D01*
X129822375Y-93715002D01*
X129726005Y-93635913D01*
X129598318Y-93567663D01*
X129502224Y-93538513D01*
X129409774Y-93446063D01*
X129240256Y-93332795D01*
X129051898Y-93254774D01*
X128851939Y-93215000D01*
X128648061Y-93215000D01*
X128448102Y-93254774D01*
X128259744Y-93332795D01*
X128090226Y-93446063D01*
X127946063Y-93590226D01*
X127832795Y-93759744D01*
X127754774Y-93948102D01*
X127715000Y-94148061D01*
X127715000Y-94265000D01*
X125728715Y-94265000D01*
X125659776Y-94196061D01*
X125490258Y-94082793D01*
X125301900Y-94004772D01*
X125101941Y-93964998D01*
X124898063Y-93964998D01*
X124698104Y-94004772D01*
X124509746Y-94082793D01*
X124340228Y-94196061D01*
X124196065Y-94340224D01*
X124082797Y-94509742D01*
X124004776Y-94698100D01*
X123965002Y-94898059D01*
X123965002Y-95101937D01*
X124004776Y-95301896D01*
X124082797Y-95490254D01*
X124196065Y-95659772D01*
X124301293Y-95765000D01*
X124286094Y-95765000D01*
X124249999Y-95761445D01*
X124213904Y-95765000D01*
X124213895Y-95765000D01*
X124105915Y-95775635D01*
X123967367Y-95817663D01*
X123839680Y-95885913D01*
X123727762Y-95977762D01*
X123704746Y-96005807D01*
X122745554Y-96965000D01*
X122648061Y-96965000D01*
X122448102Y-97004774D01*
X122259744Y-97082795D01*
X122125000Y-97172828D01*
X121990256Y-97082795D01*
X121801898Y-97004774D01*
X121601939Y-96965000D01*
X121398061Y-96965000D01*
X121198102Y-97004774D01*
X121009744Y-97082795D01*
X120840226Y-97196063D01*
X120696063Y-97340226D01*
X120582795Y-97509744D01*
X120504774Y-97698102D01*
X120465000Y-97898061D01*
X120465000Y-98101939D01*
X120504774Y-98301898D01*
X120582795Y-98490256D01*
X120696063Y-98659774D01*
X120840226Y-98803937D01*
X121009744Y-98917205D01*
X121198102Y-98995226D01*
X121398061Y-99035000D01*
X121495554Y-99035000D01*
X121654743Y-99194189D01*
X121677764Y-99222240D01*
X121789682Y-99314089D01*
X121917369Y-99382339D01*
X122055917Y-99424367D01*
X122163897Y-99435002D01*
X122163906Y-99435002D01*
X122200001Y-99438557D01*
X122236096Y-99435002D01*
X123049897Y-99435002D01*
X123086002Y-99438558D01*
X123122107Y-99435002D01*
X123230087Y-99424367D01*
X123368635Y-99382339D01*
X123496322Y-99314089D01*
X123608240Y-99222240D01*
X123631260Y-99194190D01*
X124340451Y-98485000D01*
X160171268Y-98485000D01*
X160240205Y-98553937D01*
X160409723Y-98667205D01*
X160598081Y-98745226D01*
X160798040Y-98785000D01*
X161001918Y-98785000D01*
X161201877Y-98745226D01*
X161390235Y-98667205D01*
X161559753Y-98553937D01*
X161628690Y-98485000D01*
X166997435Y-98485000D01*
X166965000Y-98648061D01*
X166965000Y-98851939D01*
X167004774Y-99051898D01*
X167082795Y-99240256D01*
X167196063Y-99409774D01*
X167340226Y-99553937D01*
X167509744Y-99667205D01*
X167698102Y-99745226D01*
X167898061Y-99785000D01*
X168101939Y-99785000D01*
X168301898Y-99745226D01*
X168490256Y-99667205D01*
X168659774Y-99553937D01*
X168728711Y-99485000D01*
X175099328Y-99485000D01*
X175082795Y-99509744D01*
X175004774Y-99698102D01*
X174965000Y-99898061D01*
X174965000Y-100101939D01*
X175004774Y-100301898D01*
X175082795Y-100490256D01*
X175196063Y-100659774D01*
X175301285Y-100764996D01*
X170728711Y-100764996D01*
X170659774Y-100696059D01*
X170490256Y-100582791D01*
X170301898Y-100504770D01*
X170101939Y-100464996D01*
X169898061Y-100464996D01*
X169698102Y-100504770D01*
X169509744Y-100582791D01*
X169340226Y-100696059D01*
X169196063Y-100840222D01*
X169082795Y-101009740D01*
X169004774Y-101198098D01*
X168965000Y-101398057D01*
X168965000Y-101601935D01*
X169004774Y-101801894D01*
X169082795Y-101990252D01*
X169196063Y-102159770D01*
X169301293Y-102265000D01*
X160285000Y-102265000D01*
X160285000Y-102148061D01*
X160245226Y-101948102D01*
X160167205Y-101759744D01*
X160053937Y-101590226D01*
X159909774Y-101446063D01*
X159740256Y-101332795D01*
X159551898Y-101254774D01*
X159351939Y-101215000D01*
X159148061Y-101215000D01*
X158948102Y-101254774D01*
X158759744Y-101332795D01*
X158590226Y-101446063D01*
X158521289Y-101515000D01*
X154752565Y-101515000D01*
X154785000Y-101351939D01*
X154785000Y-101148061D01*
X154745226Y-100948102D01*
X154667205Y-100759744D01*
X154553937Y-100590226D01*
X154409774Y-100446063D01*
X154240256Y-100332795D01*
X154051898Y-100254774D01*
X153851939Y-100215000D01*
X153648061Y-100215000D01*
X153494192Y-100245606D01*
X153417205Y-100059744D01*
X153303937Y-99890226D01*
X153159774Y-99746063D01*
X152990256Y-99632795D01*
X152801898Y-99554774D01*
X152601939Y-99515000D01*
X152398061Y-99515000D01*
X152198102Y-99554774D01*
X152009744Y-99632795D01*
X151961544Y-99665001D01*
X143335000Y-99665001D01*
X143335000Y-99598062D01*
X143295226Y-99398103D01*
X143217205Y-99209745D01*
X143103937Y-99040227D01*
X142959774Y-98896064D01*
X142790256Y-98782796D01*
X142601898Y-98704775D01*
X142401939Y-98665001D01*
X142198061Y-98665001D01*
X141998102Y-98704775D01*
X141809744Y-98782796D01*
X141686717Y-98865000D01*
X130728711Y-98865000D01*
X130659774Y-98796063D01*
X130490256Y-98682795D01*
X130301898Y-98604774D01*
X130101939Y-98565000D01*
X129898061Y-98565000D01*
X129698102Y-98604774D01*
X129509744Y-98682795D01*
X129340226Y-98796063D01*
X129196063Y-98940226D01*
X129082795Y-99109744D01*
X129004774Y-99298102D01*
X128965000Y-99498061D01*
X128965000Y-99701939D01*
X129004774Y-99901898D01*
X129082795Y-100090256D01*
X129196063Y-100259774D01*
X129340226Y-100403937D01*
X129509744Y-100517205D01*
X129698102Y-100595226D01*
X129898061Y-100635000D01*
X130101939Y-100635000D01*
X130301898Y-100595226D01*
X130490256Y-100517205D01*
X130659774Y-100403937D01*
X130728711Y-100335000D01*
X138006444Y-100335000D01*
X137840226Y-100446063D01*
X137696063Y-100590226D01*
X137582795Y-100759744D01*
X137504774Y-100948102D01*
X137465000Y-101148061D01*
X137465000Y-101351939D01*
X137497435Y-101515000D01*
X131978715Y-101515000D01*
X131909774Y-101446059D01*
X131740256Y-101332791D01*
X131551898Y-101254770D01*
X131351939Y-101214996D01*
X131148061Y-101214996D01*
X130948102Y-101254770D01*
X130759744Y-101332791D01*
X130590226Y-101446059D01*
X130446063Y-101590222D01*
X130332795Y-101759740D01*
X130254774Y-101948098D01*
X130215000Y-102148057D01*
X130215000Y-102351935D01*
X130254774Y-102551894D01*
X130332795Y-102740252D01*
X130446063Y-102909770D01*
X130590226Y-103053933D01*
X130759744Y-103167201D01*
X130948102Y-103245222D01*
X131148061Y-103284996D01*
X131351939Y-103284996D01*
X131551898Y-103245222D01*
X131740256Y-103167201D01*
X131909774Y-103053933D01*
X131978707Y-102985000D01*
X147771289Y-102985000D01*
X147840226Y-103053937D01*
X147880030Y-103080533D01*
X147801939Y-103065000D01*
X147598061Y-103065000D01*
X147398102Y-103104774D01*
X147209744Y-103182795D01*
X147040226Y-103296063D01*
X146971289Y-103365000D01*
X135728711Y-103365000D01*
X135659774Y-103296063D01*
X135490256Y-103182795D01*
X135301898Y-103104774D01*
X135101939Y-103065000D01*
X134898061Y-103065000D01*
X134698102Y-103104774D01*
X134509744Y-103182795D01*
X134340226Y-103296063D01*
X134196063Y-103440226D01*
X134082795Y-103609744D01*
X134004774Y-103798102D01*
X133965000Y-103998061D01*
X133965000Y-104201939D01*
X134004774Y-104401898D01*
X134082795Y-104590256D01*
X134196063Y-104759774D01*
X134208125Y-104771836D01*
X134182795Y-104809744D01*
X134104774Y-104998102D01*
X134065000Y-105198061D01*
X134065000Y-105265000D01*
X133028711Y-105265000D01*
X132959774Y-105196063D01*
X132790256Y-105082795D01*
X132601898Y-105004774D01*
X132401939Y-104965000D01*
X132198061Y-104965000D01*
X131998102Y-105004774D01*
X131809744Y-105082795D01*
X131640226Y-105196063D01*
X131496063Y-105340226D01*
X131382795Y-105509744D01*
X131304774Y-105698102D01*
X131265000Y-105898061D01*
X131265000Y-106101939D01*
X131304774Y-106301898D01*
X131382795Y-106490256D01*
X131496063Y-106659774D01*
X131640226Y-106803937D01*
X131809744Y-106917205D01*
X131998102Y-106995226D01*
X132198061Y-107035000D01*
X132401939Y-107035000D01*
X132601898Y-106995226D01*
X132790256Y-106917205D01*
X132959774Y-106803937D01*
X133028711Y-106735000D01*
X133865000Y-106735000D01*
X133865000Y-106801939D01*
X133904774Y-107001898D01*
X133982795Y-107190256D01*
X133989307Y-107200002D01*
X133982795Y-107209747D01*
X133904774Y-107398105D01*
X133865000Y-107598064D01*
X133865000Y-107801942D01*
X133904774Y-108001901D01*
X133982795Y-108190259D01*
X134096063Y-108359777D01*
X134240226Y-108503940D01*
X134409744Y-108617208D01*
X134598102Y-108695229D01*
X134798061Y-108735003D01*
X135001939Y-108735003D01*
X135201898Y-108695229D01*
X135390256Y-108617208D01*
X135559774Y-108503940D01*
X135628711Y-108435003D01*
X137763892Y-108435003D01*
X137799997Y-108438559D01*
X137836102Y-108435003D01*
X137944082Y-108424368D01*
X137944291Y-108424305D01*
X137998061Y-108435000D01*
X138201939Y-108435000D01*
X138401898Y-108395226D01*
X138590256Y-108317205D01*
X138759774Y-108203937D01*
X138903937Y-108059774D01*
X139017205Y-107890256D01*
X139095226Y-107701898D01*
X139135000Y-107501939D01*
X139135000Y-107435000D01*
X149810423Y-107435000D01*
X149832794Y-107489007D01*
X149946062Y-107658525D01*
X150090225Y-107802688D01*
X150259743Y-107915956D01*
X150448101Y-107993977D01*
X150648060Y-108033751D01*
X150851938Y-108033751D01*
X151051897Y-107993977D01*
X151240255Y-107915956D01*
X151409773Y-107802688D01*
X151553936Y-107658525D01*
X151667204Y-107489007D01*
X151745225Y-107300649D01*
X151784999Y-107100690D01*
X151784999Y-106896812D01*
X151745225Y-106696853D01*
X151681675Y-106543431D01*
X151717205Y-106490256D01*
X151795226Y-106301898D01*
X151835000Y-106101939D01*
X151835000Y-105898061D01*
X151795226Y-105698102D01*
X151717205Y-105509744D01*
X151603937Y-105340226D01*
X151459774Y-105196063D01*
X151290256Y-105082795D01*
X151101898Y-105004774D01*
X150901939Y-104965000D01*
X150698061Y-104965000D01*
X150498102Y-105004774D01*
X150309744Y-105082795D01*
X150140226Y-105196063D01*
X150071289Y-105265000D01*
X148773440Y-105265000D01*
X148777525Y-105244464D01*
X148777525Y-105040586D01*
X148737751Y-104840627D01*
X148659730Y-104652269D01*
X148617622Y-104589250D01*
X148695226Y-104401898D01*
X148735000Y-104201939D01*
X148735000Y-103998061D01*
X148695226Y-103798102D01*
X148617205Y-103609744D01*
X148503937Y-103440226D01*
X148359774Y-103296063D01*
X148319970Y-103269467D01*
X148398061Y-103285000D01*
X148601939Y-103285000D01*
X148801898Y-103245226D01*
X148990256Y-103167205D01*
X149000000Y-103160694D01*
X149009744Y-103167205D01*
X149198102Y-103245226D01*
X149398061Y-103285000D01*
X149601939Y-103285000D01*
X149755808Y-103254394D01*
X149832795Y-103440256D01*
X149946063Y-103609774D01*
X150090226Y-103753937D01*
X150259744Y-103867205D01*
X150448102Y-103945226D01*
X150648061Y-103985000D01*
X150851939Y-103985000D01*
X151051898Y-103945226D01*
X151240256Y-103867205D01*
X151409774Y-103753937D01*
X151478711Y-103685000D01*
X153106783Y-103685000D01*
X153090226Y-103696063D01*
X152946063Y-103840226D01*
X152832795Y-104009744D01*
X152754774Y-104198102D01*
X152715000Y-104398061D01*
X152715000Y-104601939D01*
X152754774Y-104801898D01*
X152832795Y-104990256D01*
X152839306Y-105000000D01*
X152832795Y-105009744D01*
X152754774Y-105198102D01*
X152715000Y-105398061D01*
X152715000Y-105601939D01*
X152754774Y-105801898D01*
X152832795Y-105990256D01*
X152839306Y-106000000D01*
X152832795Y-106009744D01*
X152754774Y-106198102D01*
X152715000Y-106398061D01*
X152715000Y-106601939D01*
X152754774Y-106801898D01*
X152832795Y-106990256D01*
X152946063Y-107159774D01*
X153090226Y-107303937D01*
X153259744Y-107417205D01*
X153448102Y-107495226D01*
X153648061Y-107535000D01*
X153851939Y-107535000D01*
X154051898Y-107495226D01*
X154240256Y-107417205D01*
X154409774Y-107303937D01*
X154478711Y-107235000D01*
X158213895Y-107235000D01*
X158250000Y-107238556D01*
X158286105Y-107235000D01*
X158394085Y-107224365D01*
X158532633Y-107182337D01*
X158660320Y-107114087D01*
X158756688Y-107035000D01*
X158851939Y-107035000D01*
X159051898Y-106995226D01*
X159240256Y-106917205D01*
X159409774Y-106803937D01*
X159553937Y-106659774D01*
X159667205Y-106490256D01*
X159745226Y-106301898D01*
X159785000Y-106101939D01*
X159785000Y-105898061D01*
X159772457Y-105835001D01*
X165795555Y-105835001D01*
X166465000Y-106504447D01*
X166465000Y-106601939D01*
X166504774Y-106801898D01*
X166582795Y-106990256D01*
X166696063Y-107159774D01*
X166840226Y-107303937D01*
X167009744Y-107417205D01*
X167198102Y-107495226D01*
X167398061Y-107535000D01*
X167601939Y-107535000D01*
X167801898Y-107495226D01*
X167990256Y-107417205D01*
X168159774Y-107303937D01*
X168303937Y-107159774D01*
X168417205Y-106990256D01*
X168495226Y-106801898D01*
X168535000Y-106601939D01*
X168535000Y-106398061D01*
X168495226Y-106198102D01*
X168417205Y-106009744D01*
X168303937Y-105840226D01*
X168213711Y-105750000D01*
X168303937Y-105659774D01*
X168417205Y-105490256D01*
X168495226Y-105301898D01*
X168535000Y-105101939D01*
X168535000Y-104898061D01*
X168495226Y-104698102D01*
X168417205Y-104509744D01*
X168303937Y-104340226D01*
X168159774Y-104196063D01*
X167990256Y-104082795D01*
X167801898Y-104004774D01*
X167601939Y-103965000D01*
X167398061Y-103965000D01*
X167198102Y-104004774D01*
X167026114Y-104076014D01*
X166916949Y-104017664D01*
X166778401Y-103975636D01*
X166670421Y-103965001D01*
X166634316Y-103961445D01*
X166598211Y-103965001D01*
X159785000Y-103965001D01*
X159785000Y-103898061D01*
X159752565Y-103735000D01*
X170997435Y-103735000D01*
X170965000Y-103898061D01*
X170965000Y-104101939D01*
X171004774Y-104301898D01*
X171082795Y-104490256D01*
X171196063Y-104659774D01*
X171340226Y-104803937D01*
X171509744Y-104917205D01*
X171698102Y-104995226D01*
X171898061Y-105035000D01*
X172101939Y-105035000D01*
X172301898Y-104995226D01*
X172490256Y-104917205D01*
X172659774Y-104803937D01*
X172728711Y-104735000D01*
X178849328Y-104735000D01*
X178832795Y-104759744D01*
X178754774Y-104948102D01*
X178715000Y-105148061D01*
X178715000Y-105351939D01*
X178754774Y-105551898D01*
X178832795Y-105740256D01*
X178849328Y-105765000D01*
X174728711Y-105765000D01*
X174659774Y-105696063D01*
X174490256Y-105582795D01*
X174301898Y-105504774D01*
X174101939Y-105465000D01*
X173898061Y-105465000D01*
X173698102Y-105504774D01*
X173509744Y-105582795D01*
X173340226Y-105696063D01*
X173196063Y-105840226D01*
X173082795Y-106009744D01*
X173004774Y-106198102D01*
X172965000Y-106398061D01*
X172965000Y-106601939D01*
X173004774Y-106801898D01*
X173082795Y-106990256D01*
X173196063Y-107159774D01*
X173340226Y-107303937D01*
X173509744Y-107417205D01*
X173698102Y-107495226D01*
X173898061Y-107535000D01*
X174101939Y-107535000D01*
X174301898Y-107495226D01*
X174490256Y-107417205D01*
X174659774Y-107303937D01*
X174728711Y-107235000D01*
X181099328Y-107235000D01*
X181082795Y-107259744D01*
X181004774Y-107448102D01*
X180965000Y-107648061D01*
X180965000Y-107851939D01*
X181004774Y-108051898D01*
X181082795Y-108240256D01*
X181196063Y-108409774D01*
X181340226Y-108553937D01*
X181509744Y-108667205D01*
X181698102Y-108745226D01*
X181898061Y-108785000D01*
X182101939Y-108785000D01*
X182301898Y-108745226D01*
X182490256Y-108667205D01*
X182659774Y-108553937D01*
X182728711Y-108485000D01*
X187685162Y-108485000D01*
X187806525Y-108666632D01*
X187938380Y-108798487D01*
X187865820Y-108820498D01*
X187755506Y-108879463D01*
X187658815Y-108958815D01*
X187579463Y-109055506D01*
X187520498Y-109165820D01*
X187484188Y-109285518D01*
X187471928Y-109410000D01*
X187471928Y-111110000D01*
X187484188Y-111234482D01*
X187520498Y-111354180D01*
X187579463Y-111464494D01*
X187658815Y-111561185D01*
X187696786Y-111592347D01*
X187624133Y-111665000D01*
X185993554Y-111665000D01*
X186159772Y-111553937D01*
X186303935Y-111409774D01*
X186417203Y-111240256D01*
X186495224Y-111051898D01*
X186534998Y-110851939D01*
X186534998Y-110648061D01*
X186495224Y-110448102D01*
X186417203Y-110259744D01*
X186303935Y-110090226D01*
X186159772Y-109946063D01*
X185990254Y-109832795D01*
X185801896Y-109754774D01*
X185601937Y-109715000D01*
X185398059Y-109715000D01*
X185198100Y-109754774D01*
X185009742Y-109832795D01*
X184840224Y-109946063D01*
X184771287Y-110015000D01*
X158978711Y-110015000D01*
X158909774Y-109946063D01*
X158740256Y-109832795D01*
X158551898Y-109754774D01*
X158351939Y-109715000D01*
X158148061Y-109715000D01*
X157948102Y-109754774D01*
X157923414Y-109765000D01*
X140328711Y-109765000D01*
X140259774Y-109696063D01*
X140090256Y-109582795D01*
X139901898Y-109504774D01*
X139701939Y-109465000D01*
X139498061Y-109465000D01*
X139298102Y-109504774D01*
X139109744Y-109582795D01*
X138940226Y-109696063D01*
X138796063Y-109840226D01*
X138682795Y-110009744D01*
X138604774Y-110198102D01*
X138565000Y-110398061D01*
X138565000Y-110601939D01*
X138604774Y-110801898D01*
X138682795Y-110990256D01*
X138796063Y-111159774D01*
X138940226Y-111303937D01*
X139109744Y-111417205D01*
X139298102Y-111495226D01*
X139498061Y-111535000D01*
X139701939Y-111535000D01*
X139865000Y-111502565D01*
X139865000Y-111601939D01*
X139877544Y-111665000D01*
X138353899Y-111665000D01*
X138303937Y-111590226D01*
X138159774Y-111446063D01*
X137990256Y-111332795D01*
X137801898Y-111254774D01*
X137601939Y-111215000D01*
X137398061Y-111215000D01*
X137198102Y-111254774D01*
X137009744Y-111332795D01*
X136840226Y-111446063D01*
X136696063Y-111590226D01*
X136582795Y-111759744D01*
X136504774Y-111948102D01*
X136465000Y-112148061D01*
X136465000Y-112351939D01*
X136504774Y-112551898D01*
X136582795Y-112740256D01*
X136696063Y-112909774D01*
X136840226Y-113053937D01*
X137009744Y-113167205D01*
X137198102Y-113245226D01*
X137398061Y-113285000D01*
X137461312Y-113285000D01*
X137586311Y-113322918D01*
X137708981Y-113335000D01*
X137708991Y-113335000D01*
X137749999Y-113339039D01*
X137791007Y-113335000D01*
X152051623Y-113335000D01*
X152004774Y-113448102D01*
X151965000Y-113648061D01*
X151965000Y-113851939D01*
X152004774Y-114051898D01*
X152082795Y-114240256D01*
X152196063Y-114409774D01*
X152340226Y-114553937D01*
X152509744Y-114667205D01*
X152698102Y-114745226D01*
X152898061Y-114785000D01*
X153101939Y-114785000D01*
X153301898Y-114745226D01*
X153490256Y-114667205D01*
X153659774Y-114553937D01*
X153728711Y-114485000D01*
X168271289Y-114485000D01*
X168340226Y-114553937D01*
X168509744Y-114667205D01*
X168698102Y-114745226D01*
X168898061Y-114785000D01*
X169101939Y-114785000D01*
X169301898Y-114745226D01*
X169490256Y-114667205D01*
X169659774Y-114553937D01*
X169803937Y-114409774D01*
X169917205Y-114240256D01*
X169995226Y-114051898D01*
X170035000Y-113851939D01*
X170035000Y-113648061D01*
X169995226Y-113448102D01*
X169948377Y-113335000D01*
X187928982Y-113335000D01*
X187970000Y-113339040D01*
X188011018Y-113335000D01*
X188011019Y-113335000D01*
X188133689Y-113322918D01*
X188291087Y-113275172D01*
X188436146Y-113197636D01*
X188563291Y-113093291D01*
X188589446Y-113061421D01*
X189521428Y-112129440D01*
X189553291Y-112103291D01*
X189657636Y-111976146D01*
X189735172Y-111831087D01*
X189760354Y-111748072D01*
X189810000Y-111748072D01*
X189934482Y-111735812D01*
X190054180Y-111699502D01*
X190164494Y-111640537D01*
X190261185Y-111561185D01*
X190340537Y-111464494D01*
X190399502Y-111354180D01*
X190422498Y-111278374D01*
X190618645Y-111455178D01*
X190868748Y-111604157D01*
X191143109Y-111701481D01*
X191373000Y-111580814D01*
X191373000Y-110387000D01*
X191627000Y-110387000D01*
X191627000Y-111580814D01*
X191856891Y-111701481D01*
X192131252Y-111604157D01*
X192381355Y-111455178D01*
X192597588Y-111260269D01*
X192771641Y-111026920D01*
X192896825Y-110764099D01*
X192941476Y-110616890D01*
X192820155Y-110387000D01*
X191627000Y-110387000D01*
X191373000Y-110387000D01*
X191353000Y-110387000D01*
X191353000Y-110133000D01*
X191373000Y-110133000D01*
X191373000Y-110113000D01*
X191627000Y-110113000D01*
X191627000Y-110133000D01*
X192820155Y-110133000D01*
X192941476Y-109903110D01*
X192896825Y-109755901D01*
X192771641Y-109493080D01*
X192597588Y-109259731D01*
X192381355Y-109064822D01*
X192264466Y-108995195D01*
X192446632Y-108873475D01*
X192653475Y-108666632D01*
X192815990Y-108423411D01*
X192927932Y-108153158D01*
X192985000Y-107866260D01*
X192985000Y-107573740D01*
X192927932Y-107286842D01*
X192815990Y-107016589D01*
X192653475Y-106773368D01*
X192446632Y-106566525D01*
X192272240Y-106450000D01*
X192446632Y-106333475D01*
X192653475Y-106126632D01*
X192815990Y-105883411D01*
X192927932Y-105613158D01*
X192985000Y-105326260D01*
X192985000Y-105033740D01*
X192927932Y-104746842D01*
X192815990Y-104476589D01*
X192653475Y-104233368D01*
X192446632Y-104026525D01*
X192272240Y-103910000D01*
X192446632Y-103793475D01*
X192653475Y-103586632D01*
X192815990Y-103343411D01*
X192927932Y-103073158D01*
X192985000Y-102786260D01*
X192985000Y-102493740D01*
X192927932Y-102206842D01*
X192815990Y-101936589D01*
X192653475Y-101693368D01*
X192446632Y-101486525D01*
X192272240Y-101370000D01*
X192446632Y-101253475D01*
X192653475Y-101046632D01*
X192815990Y-100803411D01*
X192927932Y-100533158D01*
X192985000Y-100246260D01*
X192985000Y-99953740D01*
X192927932Y-99666842D01*
X192815990Y-99396589D01*
X192653475Y-99153368D01*
X192446632Y-98946525D01*
X192272240Y-98830000D01*
X192446632Y-98713475D01*
X192653475Y-98506632D01*
X192815990Y-98263411D01*
X192927932Y-97993158D01*
X192985000Y-97706260D01*
X192985000Y-97413740D01*
X192927932Y-97126842D01*
X192815990Y-96856589D01*
X192653475Y-96613368D01*
X192446632Y-96406525D01*
X192272240Y-96290000D01*
X192446632Y-96173475D01*
X192653475Y-95966632D01*
X192815990Y-95723411D01*
X192927932Y-95453158D01*
X192985000Y-95166260D01*
X192985000Y-94873740D01*
X192927932Y-94586842D01*
X192815990Y-94316589D01*
X192653475Y-94073368D01*
X192446632Y-93866525D01*
X192272240Y-93750000D01*
X192446632Y-93633475D01*
X192653475Y-93426632D01*
X192815990Y-93183411D01*
X192927932Y-92913158D01*
X192985000Y-92626260D01*
X192985000Y-92333740D01*
X192927932Y-92046842D01*
X192815990Y-91776589D01*
X192653475Y-91533368D01*
X192446632Y-91326525D01*
X192272240Y-91210000D01*
X192446632Y-91093475D01*
X192653475Y-90886632D01*
X192815990Y-90643411D01*
X192927932Y-90373158D01*
X192985000Y-90086260D01*
X192985000Y-89793740D01*
X192927932Y-89506842D01*
X192815990Y-89236589D01*
X192653475Y-88993368D01*
X192446632Y-88786525D01*
X192272240Y-88670000D01*
X192446632Y-88553475D01*
X192653475Y-88346632D01*
X192815990Y-88103411D01*
X192927932Y-87833158D01*
X192985000Y-87546260D01*
X192985000Y-87253740D01*
X192927932Y-86966842D01*
X192815990Y-86696589D01*
X192653475Y-86453368D01*
X192446632Y-86246525D01*
X192272240Y-86130000D01*
X192446632Y-86013475D01*
X192653475Y-85806632D01*
X192815990Y-85563411D01*
X192927932Y-85293158D01*
X192985000Y-85006260D01*
X192985000Y-84713740D01*
X192927932Y-84426842D01*
X192815990Y-84156589D01*
X192653475Y-83913368D01*
X192446632Y-83706525D01*
X192272240Y-83590000D01*
X192446632Y-83473475D01*
X192653475Y-83266632D01*
X192815990Y-83023411D01*
X192927932Y-82753158D01*
X192985000Y-82466260D01*
X192985000Y-82173740D01*
X192927932Y-81886842D01*
X192815990Y-81616589D01*
X192653475Y-81373368D01*
X192446632Y-81166525D01*
X192272240Y-81050000D01*
X192446632Y-80933475D01*
X192653475Y-80726632D01*
X192815990Y-80483411D01*
X192927932Y-80213158D01*
X192985000Y-79926260D01*
X192985000Y-79633740D01*
X192927932Y-79346842D01*
X192815990Y-79076589D01*
X192653475Y-78833368D01*
X192446632Y-78626525D01*
X192272240Y-78510000D01*
X192446632Y-78393475D01*
X192653475Y-78186632D01*
X192815990Y-77943411D01*
X192927932Y-77673158D01*
X192985000Y-77386260D01*
X192985000Y-77093740D01*
X192927932Y-76806842D01*
X192815990Y-76536589D01*
X192653475Y-76293368D01*
X192446632Y-76086525D01*
X192272240Y-75970000D01*
X192446632Y-75853475D01*
X192653475Y-75646632D01*
X192815990Y-75403411D01*
X192927932Y-75133158D01*
X192985000Y-74846260D01*
X192985000Y-74553740D01*
X192927932Y-74266842D01*
X192815990Y-73996589D01*
X192653475Y-73753368D01*
X192446632Y-73546525D01*
X192272240Y-73430000D01*
X192446632Y-73313475D01*
X192653475Y-73106632D01*
X192815990Y-72863411D01*
X192927932Y-72593158D01*
X192985000Y-72306260D01*
X192985000Y-72013740D01*
X192927932Y-71726842D01*
X192815990Y-71456589D01*
X192653475Y-71213368D01*
X192446632Y-71006525D01*
X192272240Y-70890000D01*
X192446632Y-70773475D01*
X192653475Y-70566632D01*
X192815990Y-70323411D01*
X192927932Y-70053158D01*
X192985000Y-69766260D01*
X192985000Y-69473740D01*
X192927932Y-69186842D01*
X192815990Y-68916589D01*
X192653475Y-68673368D01*
X192446632Y-68466525D01*
X192272240Y-68350000D01*
X192446632Y-68233475D01*
X192653475Y-68026632D01*
X192815990Y-67783411D01*
X192927932Y-67513158D01*
X192985000Y-67226260D01*
X192985000Y-66933740D01*
X192927932Y-66646842D01*
X192815990Y-66376589D01*
X192653475Y-66133368D01*
X192446632Y-65926525D01*
X192272240Y-65810000D01*
X192446632Y-65693475D01*
X192653475Y-65486632D01*
X192815990Y-65243411D01*
X192927932Y-64973158D01*
X192985000Y-64686260D01*
X192985000Y-64393740D01*
X192927932Y-64106842D01*
X192815990Y-63836589D01*
X192653475Y-63593368D01*
X192446632Y-63386525D01*
X192272240Y-63270000D01*
X192446632Y-63153475D01*
X192653475Y-62946632D01*
X192815990Y-62703411D01*
X192927932Y-62433158D01*
X192985000Y-62146260D01*
X192985000Y-61853740D01*
X192927932Y-61566842D01*
X192815990Y-61296589D01*
X192653475Y-61053368D01*
X192446632Y-60846525D01*
X192203411Y-60684010D01*
X191933158Y-60572068D01*
X191646260Y-60515000D01*
X191353740Y-60515000D01*
X191066842Y-60572068D01*
X190796589Y-60684010D01*
X190553368Y-60846525D01*
X190346525Y-61053368D01*
X190228900Y-61229406D01*
X190057588Y-60999731D01*
X189841355Y-60804822D01*
X189591252Y-60655843D01*
X189316891Y-60558519D01*
X189087000Y-60679186D01*
X189087000Y-61873000D01*
X189107000Y-61873000D01*
X189107000Y-62127000D01*
X189087000Y-62127000D01*
X189087000Y-62147000D01*
X188833000Y-62147000D01*
X188833000Y-62127000D01*
X187639845Y-62127000D01*
X187518524Y-62356890D01*
X187563175Y-62504099D01*
X187635050Y-62654999D01*
X184848317Y-62654999D01*
X184740256Y-62582795D01*
X184551898Y-62504774D01*
X184351939Y-62465000D01*
X184148061Y-62465000D01*
X183948102Y-62504774D01*
X183759744Y-62582795D01*
X183590226Y-62696063D01*
X183446063Y-62840226D01*
X183332795Y-63009744D01*
X183254774Y-63198102D01*
X183215000Y-63398061D01*
X183215000Y-63601939D01*
X183254774Y-63801898D01*
X183332795Y-63990256D01*
X183446063Y-64159774D01*
X183590226Y-64303937D01*
X183759744Y-64417205D01*
X183948102Y-64495226D01*
X184148061Y-64535000D01*
X184351939Y-64535000D01*
X184551898Y-64495226D01*
X184740256Y-64417205D01*
X184909774Y-64303937D01*
X185053937Y-64159774D01*
X185077173Y-64124999D01*
X187528456Y-64124999D01*
X187475000Y-64393740D01*
X187475000Y-64686260D01*
X187532068Y-64973158D01*
X187549399Y-65015000D01*
X185478711Y-65015000D01*
X185409774Y-64946063D01*
X185240256Y-64832795D01*
X185051898Y-64754774D01*
X184851939Y-64715000D01*
X184648061Y-64715000D01*
X184448102Y-64754774D01*
X184259744Y-64832795D01*
X184090226Y-64946063D01*
X183946063Y-65090226D01*
X183832795Y-65259744D01*
X183754774Y-65448102D01*
X183715000Y-65648061D01*
X183715000Y-65851939D01*
X183754774Y-66051898D01*
X183832795Y-66240256D01*
X183946063Y-66409774D01*
X184090226Y-66553937D01*
X184259744Y-66667205D01*
X184448102Y-66745226D01*
X184493600Y-66754276D01*
X184465000Y-66898061D01*
X184465000Y-67101939D01*
X184504774Y-67301898D01*
X184582795Y-67490256D01*
X184696063Y-67659774D01*
X184840226Y-67803937D01*
X185009744Y-67917205D01*
X185198102Y-67995226D01*
X185398061Y-68035000D01*
X185601939Y-68035000D01*
X185801898Y-67995226D01*
X185990256Y-67917205D01*
X186143217Y-67815000D01*
X187665117Y-67815000D01*
X187806525Y-68026632D01*
X188013368Y-68233475D01*
X188187760Y-68350000D01*
X188013368Y-68466525D01*
X187806525Y-68673368D01*
X187665117Y-68885000D01*
X148448732Y-68885000D01*
X148409774Y-68846042D01*
X148240256Y-68732774D01*
X148051898Y-68654753D01*
X147851939Y-68614979D01*
X147721194Y-68614979D01*
X147632634Y-68567643D01*
X147494086Y-68525615D01*
X147386106Y-68514980D01*
X147350001Y-68511424D01*
X147313896Y-68514980D01*
X125836115Y-68514980D01*
X125800010Y-68511424D01*
X125655924Y-68525615D01*
X125613896Y-68538364D01*
X125517377Y-68567643D01*
X125389690Y-68635893D01*
X125277772Y-68727742D01*
X125254756Y-68755787D01*
X124995553Y-69014990D01*
X124898061Y-69014990D01*
X124698102Y-69054764D01*
X124509744Y-69132785D01*
X124340226Y-69246053D01*
X124196063Y-69390216D01*
X124082795Y-69559734D01*
X124004774Y-69748092D01*
X123965000Y-69948051D01*
X123965000Y-69965000D01*
X123898061Y-69965000D01*
X123698102Y-70004774D01*
X123509744Y-70082795D01*
X123340226Y-70196063D01*
X123196063Y-70340226D01*
X123082795Y-70509744D01*
X123004774Y-70698102D01*
X122965000Y-70898061D01*
X122965000Y-71101939D01*
X123004774Y-71301898D01*
X123082795Y-71490256D01*
X123196063Y-71659774D01*
X123340226Y-71803937D01*
X123509744Y-71917205D01*
X123698102Y-71995226D01*
X123898061Y-72035000D01*
X124101939Y-72035000D01*
X124301898Y-71995226D01*
X124490256Y-71917205D01*
X124659774Y-71803937D01*
X124728711Y-71735000D01*
X125349328Y-71735000D01*
X125332795Y-71759744D01*
X125254774Y-71948102D01*
X125215000Y-72148061D01*
X125215000Y-72351939D01*
X125254774Y-72551898D01*
X125260201Y-72564999D01*
X122736106Y-72564999D01*
X122700001Y-72561443D01*
X122555916Y-72575634D01*
X122417367Y-72617662D01*
X122337562Y-72660319D01*
X122289681Y-72685912D01*
X122254237Y-72715000D01*
X122148061Y-72715000D01*
X121948102Y-72754774D01*
X121759744Y-72832795D01*
X121590226Y-72946063D01*
X121446063Y-73090226D01*
X121332795Y-73259744D01*
X121254774Y-73448102D01*
X121215000Y-73648061D01*
X121215000Y-73851939D01*
X121254774Y-74051898D01*
X121332795Y-74240256D01*
X121446063Y-74409774D01*
X121590226Y-74553937D01*
X121759744Y-74667205D01*
X121948102Y-74745226D01*
X122148061Y-74785000D01*
X122351939Y-74785000D01*
X122551898Y-74745226D01*
X122740256Y-74667205D01*
X122909774Y-74553937D01*
X123053937Y-74409774D01*
X123167205Y-74240256D01*
X123245226Y-74051898D01*
X123248587Y-74034999D01*
X133625133Y-74034999D01*
X133509744Y-74082795D01*
X133340226Y-74196063D01*
X133196063Y-74340226D01*
X133082795Y-74509744D01*
X133004774Y-74698102D01*
X132965000Y-74898061D01*
X132965000Y-75101939D01*
X132977543Y-75164999D01*
X121731514Y-75164999D01*
X121667205Y-75009744D01*
X121553937Y-74840226D01*
X121409774Y-74696063D01*
X121240256Y-74582795D01*
X121051898Y-74504774D01*
X120851939Y-74465000D01*
X120648061Y-74465000D01*
X120448102Y-74504774D01*
X120259744Y-74582795D01*
X120090226Y-74696063D01*
X119946063Y-74840226D01*
X119832795Y-75009744D01*
X119754774Y-75198102D01*
X119715000Y-75398061D01*
X119715000Y-75601939D01*
X119754774Y-75801898D01*
X119832795Y-75990256D01*
X119946063Y-76159774D01*
X120090226Y-76303937D01*
X120259744Y-76417205D01*
X120448102Y-76495226D01*
X120648061Y-76535000D01*
X120778806Y-76535000D01*
X120867366Y-76582336D01*
X120931989Y-76601939D01*
X121005913Y-76624364D01*
X121149998Y-76638555D01*
X121186103Y-76634999D01*
X131967598Y-76634999D01*
X131965000Y-76648061D01*
X131965000Y-76765000D01*
X120478711Y-76765000D01*
X120409774Y-76696063D01*
X120240256Y-76582795D01*
X120051898Y-76504774D01*
X119851939Y-76465000D01*
X119648061Y-76465000D01*
X119448102Y-76504774D01*
X119259744Y-76582795D01*
X119090226Y-76696063D01*
X118946063Y-76840226D01*
X118832795Y-77009744D01*
X118754774Y-77198102D01*
X118715000Y-77398061D01*
X118715000Y-77601939D01*
X118754774Y-77801898D01*
X118832795Y-77990256D01*
X118946063Y-78159774D01*
X119090226Y-78303937D01*
X119259744Y-78417205D01*
X119448102Y-78495226D01*
X119648061Y-78535000D01*
X119851939Y-78535000D01*
X120051898Y-78495226D01*
X120240256Y-78417205D01*
X120409774Y-78303937D01*
X120478711Y-78235000D01*
X140801289Y-78235000D01*
X140696063Y-78340226D01*
X140582795Y-78509744D01*
X140504774Y-78698102D01*
X140465000Y-78898061D01*
X140465000Y-79001413D01*
X140448102Y-79004774D01*
X140259744Y-79082795D01*
X140090226Y-79196063D01*
X139946063Y-79340226D01*
X139832795Y-79509744D01*
X139754774Y-79698102D01*
X139715000Y-79898061D01*
X139715000Y-80101939D01*
X139743600Y-80245724D01*
X139698102Y-80254774D01*
X139509744Y-80332795D01*
X139340226Y-80446063D01*
X139196063Y-80590226D01*
X139082795Y-80759744D01*
X139004774Y-80948102D01*
X138965000Y-81148061D01*
X138965000Y-81215000D01*
X138898061Y-81215000D01*
X138698102Y-81254774D01*
X138509744Y-81332795D01*
X138340226Y-81446063D01*
X138196063Y-81590226D01*
X138082795Y-81759744D01*
X138004774Y-81948102D01*
X137965000Y-82148061D01*
X137965000Y-82314999D01*
X137940093Y-82314999D01*
X137917205Y-82259744D01*
X137803937Y-82090226D01*
X137659774Y-81946063D01*
X137490256Y-81832795D01*
X137301898Y-81754774D01*
X137101939Y-81715000D01*
X136898061Y-81715000D01*
X136698102Y-81754774D01*
X136509744Y-81832795D01*
X136386715Y-81915000D01*
X129613285Y-81915000D01*
X129490256Y-81832795D01*
X129301898Y-81754774D01*
X129101939Y-81715000D01*
X128898061Y-81715000D01*
X128698102Y-81754774D01*
X128509744Y-81832795D01*
X128340226Y-81946063D01*
X128196063Y-82090226D01*
X128082795Y-82259744D01*
X128004774Y-82448102D01*
X127965000Y-82648061D01*
X127965000Y-82851939D01*
X128004774Y-83051898D01*
X128082795Y-83240256D01*
X128196063Y-83409774D01*
X128201288Y-83414999D01*
X119603899Y-83414999D01*
X119553937Y-83340226D01*
X119409774Y-83196063D01*
X119240256Y-83082795D01*
X119051898Y-83004774D01*
X118851939Y-82965000D01*
X118648061Y-82965000D01*
X118448102Y-83004774D01*
X118259744Y-83082795D01*
X118090226Y-83196063D01*
X117946063Y-83340226D01*
X117832795Y-83509744D01*
X117754774Y-83698102D01*
X117745372Y-83745372D01*
X117698102Y-83754774D01*
X117509744Y-83832795D01*
X117340226Y-83946063D01*
X117196063Y-84090226D01*
X117082795Y-84259744D01*
X117004774Y-84448102D01*
X116965000Y-84648061D01*
X116965000Y-84851939D01*
X117004774Y-85051898D01*
X117078098Y-85228916D01*
X116948102Y-85254774D01*
X116759744Y-85332795D01*
X116590226Y-85446063D01*
X116446063Y-85590226D01*
X116332795Y-85759744D01*
X116254774Y-85948102D01*
X116215000Y-86148061D01*
X116215000Y-86351939D01*
X116243600Y-86495724D01*
X116198102Y-86504774D01*
X116009744Y-86582795D01*
X115840226Y-86696063D01*
X115696063Y-86840226D01*
X115582795Y-87009744D01*
X115504774Y-87198102D01*
X115465000Y-87398061D01*
X110660000Y-87398061D01*
X110660000Y-63898061D01*
X149965000Y-63898061D01*
X149965000Y-64101939D01*
X150004774Y-64301898D01*
X150082795Y-64490256D01*
X150196063Y-64659774D01*
X150340226Y-64803937D01*
X150509744Y-64917205D01*
X150698102Y-64995226D01*
X150898061Y-65035000D01*
X151101939Y-65035000D01*
X151301898Y-64995226D01*
X151490256Y-64917205D01*
X151659774Y-64803937D01*
X151728711Y-64735000D01*
X151965000Y-64735000D01*
X151965000Y-64801939D01*
X152004774Y-65001898D01*
X152082795Y-65190256D01*
X152196063Y-65359774D01*
X152340226Y-65503937D01*
X152509744Y-65617205D01*
X152698102Y-65695226D01*
X152898061Y-65735000D01*
X153101939Y-65735000D01*
X153301898Y-65695226D01*
X153490256Y-65617205D01*
X153659774Y-65503937D01*
X153728711Y-65435000D01*
X156971289Y-65435000D01*
X157090226Y-65553937D01*
X157259744Y-65667205D01*
X157448102Y-65745226D01*
X157648061Y-65785000D01*
X157851939Y-65785000D01*
X158051898Y-65745226D01*
X158240256Y-65667205D01*
X158409774Y-65553937D01*
X158553937Y-65409774D01*
X158667205Y-65240256D01*
X158745226Y-65051898D01*
X158785000Y-64851939D01*
X158785000Y-64648061D01*
X158745226Y-64448102D01*
X158667205Y-64259744D01*
X158553937Y-64090226D01*
X158409774Y-63946063D01*
X158240256Y-63832795D01*
X158051898Y-63754774D01*
X157851939Y-63715000D01*
X157748711Y-63715000D01*
X157803937Y-63659774D01*
X157917205Y-63490256D01*
X157995226Y-63301898D01*
X158035000Y-63101939D01*
X158035000Y-62898061D01*
X157995226Y-62698102D01*
X157917205Y-62509744D01*
X157803937Y-62340226D01*
X157659774Y-62196063D01*
X157490256Y-62082795D01*
X157301898Y-62004774D01*
X157101939Y-61965000D01*
X156898061Y-61965000D01*
X156698102Y-62004774D01*
X156509744Y-62082795D01*
X156340226Y-62196063D01*
X156271289Y-62265000D01*
X155228711Y-62265000D01*
X155159774Y-62196063D01*
X154990256Y-62082795D01*
X154801898Y-62004774D01*
X154601939Y-61965000D01*
X154398061Y-61965000D01*
X154198102Y-62004774D01*
X154009744Y-62082795D01*
X153840226Y-62196063D01*
X153696063Y-62340226D01*
X153582795Y-62509744D01*
X153504774Y-62698102D01*
X153465000Y-62898061D01*
X153465000Y-63101939D01*
X153497435Y-63265000D01*
X151728711Y-63265000D01*
X151659774Y-63196063D01*
X151490256Y-63082795D01*
X151301898Y-63004774D01*
X151101939Y-62965000D01*
X150898061Y-62965000D01*
X150698102Y-63004774D01*
X150509744Y-63082795D01*
X150340226Y-63196063D01*
X150196063Y-63340226D01*
X150082795Y-63509744D01*
X150004774Y-63698102D01*
X149965000Y-63898061D01*
X110660000Y-63898061D01*
X110660000Y-61643110D01*
X187518524Y-61643110D01*
X187639845Y-61873000D01*
X188833000Y-61873000D01*
X188833000Y-60679186D01*
X188603109Y-60558519D01*
X188328748Y-60655843D01*
X188078645Y-60804822D01*
X187862412Y-60999731D01*
X187688359Y-61233080D01*
X187563175Y-61495901D01*
X187518524Y-61643110D01*
X110660000Y-61643110D01*
X110660000Y-54779872D01*
X112765000Y-54779872D01*
X112765000Y-55220128D01*
X112850890Y-55651925D01*
X113019369Y-56058669D01*
X113263962Y-56424729D01*
X113575271Y-56736038D01*
X113941331Y-56980631D01*
X114348075Y-57149110D01*
X114779872Y-57235000D01*
X115220128Y-57235000D01*
X115651925Y-57149110D01*
X116058669Y-56980631D01*
X116424729Y-56736038D01*
X116736038Y-56424729D01*
X116980631Y-56058669D01*
X117149110Y-55651925D01*
X117235000Y-55220128D01*
X117235000Y-54779872D01*
X192765000Y-54779872D01*
X192765000Y-55220128D01*
X192850890Y-55651925D01*
X193019369Y-56058669D01*
X193263962Y-56424729D01*
X193575271Y-56736038D01*
X193941331Y-56980631D01*
X194348075Y-57149110D01*
X194779872Y-57235000D01*
X195220128Y-57235000D01*
X195651925Y-57149110D01*
X196058669Y-56980631D01*
X196424729Y-56736038D01*
X196736038Y-56424729D01*
X196980631Y-56058669D01*
X197149110Y-55651925D01*
X197235000Y-55220128D01*
X197235000Y-54779872D01*
X197149110Y-54348075D01*
X196980631Y-53941331D01*
X196736038Y-53575271D01*
X196424729Y-53263962D01*
X196058669Y-53019369D01*
X195651925Y-52850890D01*
X195220128Y-52765000D01*
X194779872Y-52765000D01*
X194348075Y-52850890D01*
X193941331Y-53019369D01*
X193575271Y-53263962D01*
X193263962Y-53575271D01*
X193019369Y-53941331D01*
X192850890Y-54348075D01*
X192765000Y-54779872D01*
X117235000Y-54779872D01*
X117149110Y-54348075D01*
X116980631Y-53941331D01*
X116736038Y-53575271D01*
X116424729Y-53263962D01*
X116058669Y-53019369D01*
X115651925Y-52850890D01*
X115220128Y-52765000D01*
X114779872Y-52765000D01*
X114348075Y-52850890D01*
X113941331Y-53019369D01*
X113575271Y-53263962D01*
X113263962Y-53575271D01*
X113019369Y-53941331D01*
X112850890Y-54348075D01*
X112765000Y-54779872D01*
X110660000Y-54779872D01*
X110660000Y-50660000D01*
X199340000Y-50660000D01*
X199340001Y-149340000D01*
M02*
