M48
; DRILL file {KiCad (5.1.5-0-10_14)} date 2020 March 03, Tuesday 11:51:49
; FORMAT={-:-/ absolute / metric / decimal}
; #@! TF.CreationDate,2020-03-03T11:51:49+01:00
; #@! TF.GenerationSoftware,Kicad,Pcbnew,(5.1.5-0-10_14)
; #@! TF.FileFunction,Plated,1,2,PTH
FMAT,2
METRIC
T1C0.400
T2C1.000
%
G90
G05
T1
X116.5Y-87.5
X117.25Y-86.25
X118.0Y-84.75
X118.75Y-84.0
X119.75Y-77.5
X120.75Y-75.5
X121.5Y-98.0
X122.25Y-73.75
X122.75Y-98.0
X124.0Y-71.0
X125.0Y-70.05
X125.0Y-95.0
X126.25Y-72.25
X126.25Y-93.75
X128.75Y-94.25
X129.0Y-82.75
X130.0Y-99.6
X131.0Y-78.5
X131.25Y-88.75
X131.25Y-93.5
X131.25Y-102.25
X132.0Y-108.0
X132.3Y-106.0
X133.0Y-76.75
X134.0Y-75.0
X134.25Y-114.0
X134.75Y-91.0
X134.75Y-92.25
X134.9Y-106.7
X134.9Y-107.7
X135.0Y-72.5
X135.0Y-104.1
X135.1Y-105.3
X136.0Y-74.25
X136.5Y-92.25
X137.0Y-82.75
X137.5Y-112.25
X138.1Y-107.4
X138.5Y-88.5
X138.5Y-101.25
X139.0Y-82.25
X139.6Y-110.5
X140.0Y-81.25
X140.75Y-80.0
X140.9Y-111.5
X141.0Y-100.8
X141.25Y-91.75
X141.5Y-79.0
X142.3Y-99.7
X143.0Y-77.75
X144.0Y-101.25
X144.75Y-74.75
X145.0Y-101.25
X145.5Y-72.5
X146.25Y-70.05
X146.25Y-91.35
X146.25Y-113.75
X147.5Y-90.5
X147.7Y-104.1
X147.743Y-105.143
X147.75Y-69.65
X148.5Y-102.25
X148.75Y-93.25
X148.75Y-71.75
X149.5Y-102.25
X150.75Y-106.999
X150.75Y-102.95
X150.8Y-106.0
X151.0Y-51.75
X151.0Y-64.0
X151.0Y-122.25
X151.25Y-88.75
X151.5Y-82.75
X152.5Y-100.55
X152.75Y-93.5
X153.0Y-51.75
X153.0Y-64.7
X153.0Y-68.5
X153.0Y-113.75
X153.0Y-122.25
X153.5Y-92.75
X153.75Y-101.25
X153.75Y-104.5
X153.75Y-105.5
X153.75Y-106.5
X153.75Y-112.5
X154.5Y-63.0
X154.75Y-104.0
X155.0Y-51.75
X155.0Y-111.5
X155.0Y-122.25
X155.5Y-77.0
X156.5Y-64.0
X157.0Y-51.75
X157.0Y-63.0
X157.0Y-122.25
X157.5Y-89.5
X157.75Y-64.75
X158.0Y-103.0
X158.25Y-110.75
X158.5Y-76.0
X158.75Y-104.0
X158.75Y-106.0
X159.0Y-92.75
X159.25Y-102.25
X159.5Y-73.25
X160.25Y-115.25
X160.9Y-97.75
X161.0Y-74.5
X161.3Y-96.5
X162.0Y-95.0
X162.5Y-94.0
X163.25Y-92.5
X163.75Y-91.5
X163.903Y-90.45
X165.0Y-88.75
X166.5Y-78.5
X167.5Y-105.0
X167.5Y-106.5
X168.0Y-51.75
X168.0Y-60.75
X168.0Y-70.5
X168.0Y-98.75
X168.0Y-112.5
X168.0Y-122.25
X169.0Y-79.75
X169.0Y-88.75
X169.0Y-113.75
X170.0Y-51.75
X170.0Y-60.75
X170.0Y-72.65
X170.0Y-101.5
X170.0Y-122.25
X171.0Y-81.0
X171.0Y-90.5
X172.0Y-51.75
X172.0Y-60.75
X172.0Y-75.6
X172.0Y-104.0
X172.0Y-122.25
X173.0Y-82.25
X173.0Y-91.5
X174.0Y-77.25
X174.0Y-51.75
X174.0Y-60.75
X174.0Y-106.5
X174.0Y-122.25
X175.0Y-83.75
X175.0Y-92.5
X176.0Y-51.75
X176.0Y-60.75
X176.0Y-71.25
X176.0Y-100.0
X176.0Y-122.25
X177.0Y-84.75
X177.0Y-94.0
X178.0Y-51.75
X178.0Y-60.75
X178.0Y-74.5
X178.0Y-102.5
X178.0Y-122.25
X179.0Y-86.25
X179.0Y-95.0
X179.75Y-105.25
X180.0Y-51.75
X180.0Y-60.75
X180.0Y-76.5
X180.0Y-122.25
X180.75Y-96.5
X181.0Y-87.5
X182.0Y-51.75
X182.0Y-60.75
X182.0Y-77.95
X182.0Y-107.75
X182.0Y-122.25
X183.0Y-97.75
X183.5Y-71.0
X183.5Y-89.5
X183.75Y-103.3
X184.25Y-63.5
X184.75Y-65.75
X184.75Y-111.5
X185.5Y-110.75
X185.5Y-67.0
X187.0Y-83.25
X194.25Y-122.0
T2
X188.96Y-62.0
X188.96Y-64.54
X188.96Y-67.08
X188.96Y-69.62
X188.96Y-72.16
X188.96Y-74.7
X188.96Y-77.24
X188.96Y-79.78
X188.96Y-82.32
X188.96Y-84.86
X188.96Y-87.4
X188.96Y-89.94
X188.96Y-92.48
X188.96Y-95.02
X188.96Y-97.56
X188.96Y-100.1
X188.96Y-102.64
X188.96Y-105.18
X188.96Y-107.72
X188.96Y-110.26
X191.5Y-62.0
X191.5Y-64.54
X191.5Y-67.08
X191.5Y-69.62
X191.5Y-72.16
X191.5Y-74.7
X191.5Y-77.24
X191.5Y-79.78
X191.5Y-82.32
X191.5Y-84.86
X191.5Y-87.4
X191.5Y-89.94
X191.5Y-92.48
X191.5Y-95.02
X191.5Y-97.56
X191.5Y-100.1
X191.5Y-102.64
X191.5Y-105.18
X191.5Y-107.72
X191.5Y-110.26
T0
M30
