M48
; DRILL file {KiCad (5.1.5-0-10_14)} date 2020 November 15, Sunday 08:55:16
; FORMAT={-:-/ absolute / metric / decimal}
; #@! TF.CreationDate,2020-11-15T08:55:16+01:00
; #@! TF.GenerationSoftware,Kicad,Pcbnew,(5.1.5-0-10_14)
; #@! TF.FileFunction,Plated,1,2,PTH
FMAT,2
METRIC
T1C0.300
T2C0.400
T3C1.000
%
G90
G05
T1
X111.0Y-81.8
X111.2Y-109.6
X111.4Y-108.4
X111.4Y-83.266
X111.6Y-63.8
X111.6Y-68.0
X111.636Y-82.501
X111.8Y-84.4
X111.8Y-105.6
X112.0Y-125.0
X112.2Y-62.4
X112.2Y-70.6
X112.2Y-85.2
X112.2Y-86.0
X112.2Y-93.6
X113.6Y-66.4
X113.6Y-92.2
X114.438Y-86.425
X114.529Y-103.7
X114.6Y-71.8
X114.6Y-83.8
X114.788Y-105.086
X114.8Y-61.8
X114.8Y-90.2
X114.8Y-95.0
X115.0Y-99.8
X115.0Y-103.05
X115.174Y-86.74
X115.2Y-104.4
X115.312Y-69.022
X115.4Y-63.0
X115.4Y-95.6
X115.4Y-98.4
X115.4Y-108.0
X115.402Y-85.529
X115.47Y-108.797
X115.5Y-69.8
X115.6Y-94.4
X115.8Y-79.6
X115.8Y-102.4
X116.0Y-99.2
X116.0Y-107.4
X116.1Y-68.2
X116.2Y-96.2
X116.4Y-105.6
X116.6Y-83.8
X116.6Y-69.1
X116.796Y-70.99
X117.388Y-103.78
X117.4Y-72.1
X117.574Y-86.2
X117.7Y-74.5
X117.8Y-104.466
X117.8Y-103.0
X117.8Y-109.4
X118.0Y-68.5
X118.2Y-83.2
X118.6Y-59.6
X118.6Y-136.2
X119.4Y-143.3
X120.518Y-70.591
X120.541Y-85.2
X120.6Y-82.6
X120.6Y-95.0
X120.8Y-67.8
X120.8Y-83.4
X120.8Y-145.8
X121.0Y-84.4
X121.0Y-97.0
X121.434Y-69.771
X121.7Y-133.5
X121.9Y-90.0
X122.2Y-71.2
X122.204Y-60.4
X122.224Y-68.576
X122.4Y-67.2
X122.4Y-72.405
X122.6Y-82.314
X122.7Y-94.4
X122.8Y-130.8
X123.1Y-96.214
X123.2Y-54.7
X123.2Y-56.6
X123.2Y-83.6
X123.4Y-61.2
X123.8Y-116.2
X124.0Y-54.2
X124.2Y-86.6
X124.6Y-88.0
X125.299Y-69.217
X125.3Y-65.629
X125.5Y-89.8
X125.5Y-99.8
X125.776Y-70.824
X125.8Y-80.4
X125.9Y-83.0
X125.9Y-98.4
X125.9Y-56.0
X126.2Y-135.0
X126.3Y-53.5
X126.3Y-55.3
X126.4Y-79.0
X126.8Y-78.3
X126.8Y-148.0
X127.0Y-81.2
X127.0Y-125.0
X127.516Y-147.642
X127.6Y-62.4
X128.0Y-141.3
X128.1Y-67.8
X128.1Y-70.4
X128.2Y-63.8
X128.4Y-72.4
X129.3Y-50.6
X129.3Y-57.4
X129.5Y-59.0
X129.6Y-141.9
X129.9Y-56.7
X130.0Y-54.15
X130.0Y-55.7
X130.2Y-107.4
X130.2Y-132.2
X130.4Y-74.3
X130.4Y-89.4
X130.5Y-80.0
X130.5Y-84.1
X130.8Y-108.0
X130.8Y-91.145
X130.8Y-103.769
X131.0Y-71.2
X131.2Y-81.8
X131.2Y-90.377
X131.2Y-91.928
X131.3Y-60.6
X131.3Y-87.525
X131.312Y-78.975
X131.4Y-104.5
X131.4Y-108.8
X131.5Y-69.4
X131.512Y-71.815
X131.564Y-63.215
X132.0Y-95.4
X132.0Y-99.4
X132.161Y-62.1
X132.268Y-68.332
X132.395Y-70.242
X132.5Y-51.9
X132.8Y-137.8
X133.0Y-54.0
X133.1Y-92.4
X133.3Y-90.591
X133.315Y-91.391
X133.712Y-79.325
X133.8Y-53.525
X134.3Y-55.4
X134.3Y-64.7
X134.6Y-94.0
X134.92Y-56.196
X135.0Y-69.8
X135.11Y-67.89
X135.381Y-87.517
X135.8Y-55.4
X135.9Y-83.608
X135.904Y-60.894
X135.924Y-68.784
X136.0Y-71.104
X136.0Y-81.78
X136.0Y-52.1
X136.0Y-54.6
X136.0Y-92.45
X136.0Y-95.4
X136.2Y-86.6
X136.3Y-103.0
X136.4Y-56.7
X136.4Y-145.8
X136.7Y-105.0
X137.0Y-80.9
X137.139Y-86.707
X137.2Y-89.8
X137.228Y-81.822
X137.3Y-60.2
X137.5Y-58.1
X137.5Y-83.3
X137.7Y-96.6
X137.7Y-98.4
X137.7Y-128.3
X137.8Y-71.4
X137.8Y-91.8
X137.925Y-68.505
X138.224Y-69.8
X138.3Y-79.3
X138.4Y-94.6
X138.6Y-60.2
X138.7Y-82.4
X138.8Y-99.17
X138.8Y-134.4
X138.9Y-126.4
X139.0Y-53.9
X139.1Y-61.2
X139.266Y-55.35
X139.4Y-100.324
X139.4Y-101.124
X139.4Y-56.4
X139.4Y-89.509
X139.4Y-97.2
X139.5Y-84.4
X139.6Y-113.3
X139.6Y-125.0
X139.6Y-136.3
X139.8Y-107.9
X139.8Y-118.8
X139.8Y-122.0
X139.9Y-117.5
X140.0Y-51.2
X140.0Y-57.1
X140.4Y-123.0
X140.5Y-74.6
X140.527Y-135.4
X140.6Y-55.8
X140.8Y-105.1
X141.0Y-72.405
X141.2Y-79.4
X142.3Y-115.6
X142.6Y-51.5
X142.6Y-122.6
X142.8Y-97.238
X142.8Y-127.6
X142.8Y-132.8
X142.831Y-93.795
X142.875Y-102.117
X142.9Y-79.4
X142.997Y-89.986
X143.0Y-81.2
X143.1Y-119.996
X143.1Y-101.023
X143.1Y-95.5
X143.2Y-109.892
X143.249Y-108.531
X143.3Y-106.9
X143.4Y-125.8
X143.4Y-131.3
X143.415Y-91.171
X143.5Y-117.3
X143.6Y-83.2
X143.6Y-85.8
X143.6Y-121.0
X143.8Y-91.873
X143.8Y-57.0
X143.9Y-119.3
X143.9Y-137.2
X143.9Y-139.4
X144.01Y-92.673
X144.1Y-90.7
X144.382Y-118.354
X144.385Y-82.635
X144.4Y-54.4
X144.4Y-58.6
X144.4Y-105.001
X144.4Y-97.426
X144.603Y-101.807
X144.7Y-81.9
X144.8Y-121.1
X144.856Y-102.629
X144.994Y-107.987
X145.0Y-112.6
X145.1Y-119.377
X145.2Y-53.8
X145.2Y-59.4
X145.276Y-69.876
X145.376Y-68.576
X145.376Y-71.176
X145.4Y-67.2
X145.4Y-72.6
X145.4Y-142.6
X145.4Y-145.8
X145.4Y-110.4
X145.6Y-127.0
X145.6Y-131.7
X145.6Y-116.808
X145.6Y-99.09
X145.8Y-55.2
X145.8Y-58.2
X145.8Y-109.648
X145.825Y-53.3
X145.9Y-149.3
X145.9Y-100.1
X146.0Y-140.7
X146.2Y-91.339
X146.2Y-72.425
X146.26Y-83.002
X146.349Y-82.207
X146.4Y-56.4
X146.4Y-83.8
X146.4Y-109.048
X146.425Y-54.7
X146.5Y-51.1
X146.5Y-111.2
X146.9Y-94.1
X146.943Y-60.257
X146.96Y-62.1
X147.0Y-85.4
X147.1Y-113.2
X147.1Y-129.8
X147.6Y-71.8
X147.8Y-58.8
X147.9Y-68.0
X147.924Y-63.439
X148.3Y-52.3
X148.3Y-140.7
X148.3Y-145.0
X148.4Y-68.8
X148.4Y-69.8
X148.4Y-72.425
X148.424Y-70.976
X148.5Y-123.0
X148.5Y-127.0
X148.7Y-108.0
X148.7Y-110.5
X148.8Y-108.9
X149.1Y-54.5
X149.1Y-55.7
X149.9Y-83.2
X149.927Y-91.057
X150.0Y-95.3
X150.0Y-88.704
X150.2Y-78.5
X150.3Y-100.3
X150.3Y-105.7
X150.4Y-92.2
X150.4Y-99.0
X150.6Y-87.4
X150.696Y-95.695
X150.8Y-81.2
X150.8Y-85.0
X150.874Y-63.0
X150.9Y-128.4
X151.0Y-90.2
X151.0Y-102.1
X151.0Y-104.9
X151.053Y-92.959
X151.2Y-69.7
X151.2Y-107.6
X151.3Y-144.1
X151.4Y-68.6
X151.4Y-83.8
X151.7Y-51.1
X151.8Y-70.4
X152.0Y-71.2
X152.0Y-86.2
X152.0Y-102.1
X152.0Y-108.812
X152.0Y-112.6
X152.0Y-117.4
X152.018Y-143.082
X152.2Y-92.0
X152.2Y-113.4
X152.2Y-104.8
X152.4Y-122.6
X152.6Y-116.2
X152.7Y-69.882
X152.8Y-67.2
X152.8Y-68.505
X152.9Y-62.5
X153.0Y-118.6
X153.0Y-137.2
X153.0Y-141.1
X153.0Y-87.8
X153.2Y-112.573
X153.6Y-93.376
X153.6Y-96.2
X154.0Y-110.6
X154.0Y-81.8
X154.0Y-101.531
X154.057Y-86.554
X154.2Y-128.8
X154.2Y-141.8
X154.2Y-142.6
X154.2Y-148.3
X154.7Y-77.8
X154.8Y-50.6
X155.6Y-59.5
X155.6Y-72.4
X156.0Y-50.7
X156.0Y-53.85
X156.0Y-56.4
X156.0Y-57.6
X156.4Y-90.8
X156.6Y-53.2
X156.8Y-140.5
X156.8Y-144.7
X157.0Y-127.4
X157.091Y-128.6
X157.2Y-94.599
X157.2Y-95.937
X157.2Y-98.4
X157.2Y-121.4
X157.388Y-117.012
X157.4Y-106.0
X157.4Y-55.2
X157.4Y-58.4
X157.4Y-83.2
X157.4Y-84.4
X157.4Y-86.8
X157.4Y-107.3
X157.4Y-109.9
X157.6Y-135.8
X157.8Y-64.0
X157.8Y-118.8
X157.9Y-139.19
X157.996Y-121.32
X158.0Y-54.6
X158.0Y-56.6
X158.0Y-79.9
X158.0Y-86.0
X158.2Y-99.8
X158.4Y-107.3
X158.4Y-117.6
X158.4Y-128.2
X158.4Y-132.2
X158.6Y-97.8
X158.676Y-94.276
X158.776Y-60.224
X158.8Y-54.0
X158.8Y-92.0
X158.809Y-81.591
X159.0Y-95.937
X159.0Y-106.0
X159.204Y-89.796
X159.4Y-55.2
X159.4Y-57.8
X159.4Y-128.6
X160.2Y-126.1
X160.4Y-79.39
X161.3Y-145.6
X161.3Y-148.6
X161.4Y-85.637
X161.4Y-68.6
X161.4Y-143.6
X161.6Y-104.8
X161.6Y-71.2
X161.8Y-108.691
X161.8Y-93.468
X162.0Y-97.2
X162.0Y-56.6
X162.0Y-59.0
X162.0Y-81.8
X162.0Y-116.2
X162.0Y-120.0
X162.0Y-129.3
X162.2Y-69.805
X162.5Y-83.224
X162.57Y-135.4
X162.573Y-92.297
X162.6Y-85.6
X162.6Y-141.6
X162.667Y-94.633
X162.725Y-58.6
X162.8Y-113.59
X162.8Y-51.4
X162.8Y-53.4
X162.8Y-54.2
X162.8Y-72.6
X162.8Y-82.0
X163.0Y-67.2
X163.0Y-68.505
X163.0Y-69.805
X163.6Y-104.8
X163.79Y-134.313
X163.8Y-93.373
X164.328Y-134.905
X164.4Y-127.7
X164.875Y-135.489
X165.0Y-106.2
X165.0Y-107.2
X165.4Y-51.8
X165.4Y-54.6
X165.6Y-71.2
X165.6Y-95.8
X165.6Y-116.2
X165.647Y-94.4
X165.8Y-56.45
X166.0Y-58.9
X166.0Y-136.2
X166.1Y-137.7
X166.2Y-110.0
X166.2Y-143.0
X166.247Y-83.2
X166.247Y-84.4
X166.247Y-87.0
X166.5Y-117.6
X166.5Y-118.8
X166.5Y-120.0
X166.6Y-62.2
X166.6Y-131.6
X166.8Y-72.8
X167.4Y-69.2
X168.002Y-59.456
X168.078Y-63.017
X168.2Y-55.8
X168.2Y-71.2
X168.4Y-70.4
X168.6Y-140.753
X168.6Y-144.2
X168.8Y-56.4
X168.8Y-59.7
X168.8Y-68.0
X168.937Y-63.894
X169.2Y-135.6
X169.2Y-147.0
X169.4Y-121.4
X169.4Y-124.0
X169.8Y-92.057
X169.8Y-94.6
X169.8Y-129.7
X169.8Y-134.365
X169.881Y-146.214
X170.3Y-147.4
X170.9Y-80.6
X171.0Y-83.2
X171.0Y-115.0
X171.0Y-117.6
X171.0Y-118.8
X171.0Y-131.2
X171.15Y-97.998
X171.2Y-103.523
X171.2Y-107.4
X171.2Y-109.873
X171.317Y-63.454
X171.4Y-106.0
X171.5Y-147.5
X171.6Y-69.2
X172.0Y-69.893
X172.2Y-62.6
X172.2Y-71.8
X172.2Y-72.6
X172.2Y-133.4
X172.4Y-147.8
X172.8Y-79.5
X172.8Y-123.4
X172.8Y-132.6
X173.2Y-67.2
X174.24Y-116.15
X174.4Y-81.8
X174.4Y-85.6
X174.4Y-93.4
X174.4Y-97.2
X174.4Y-104.8
X174.4Y-108.6
X174.4Y-120.2
X174.4Y-122.0
X175.0Y-116.4
X175.0Y-131.1
X175.0Y-139.4
X175.0Y-143.4
X175.1Y-127.4
X175.4Y-111.2
X175.8Y-56.6
X175.8Y-63.9
X175.8Y-68.4
X175.8Y-90.0
X175.8Y-109.2
X175.9Y-124.0
X176.2Y-55.8
X176.4Y-69.8
X176.4Y-107.2
X176.542Y-127.2
X176.8Y-54.6
X176.8Y-64.0
X177.0Y-71.2
X177.0Y-109.6
X177.2Y-111.9
X177.3Y-126.1
X177.334Y-63.044
X177.4Y-54.0
X177.8Y-59.7
X177.8Y-113.8
X177.8Y-120.2
X178.0Y-55.8
X178.0Y-62.6
X178.4Y-53.8
X178.6Y-59.3
X179.0Y-137.0
X179.6Y-146.2
X179.8Y-136.2
X179.8Y-140.045
X180.0Y-99.0
X180.187Y-110.464
X180.8Y-146.6
X180.9Y-101.4
X181.2Y-124.0
X181.3Y-100.4
X181.4Y-87.4
X181.6Y-69.805
X181.6Y-71.2
X181.6Y-73.0
X181.7Y-109.7
X181.8Y-125.2
X181.9Y-112.8
X182.0Y-62.4
X182.2Y-122.335
X182.2Y-73.552
X182.8Y-82.0
X182.8Y-117.6
X182.8Y-128.8
X182.8Y-132.4
X182.8Y-68.6
X182.9Y-111.8
X183.0Y-138.6
X183.4Y-81.0
X183.773Y-79.944
X183.8Y-72.8
X184.0Y-68.0
X184.2Y-74.9
X184.2Y-54.6
X184.2Y-136.2
X184.25Y-134.064
X184.5Y-96.2
X184.5Y-104.2
X184.5Y-132.4
X184.6Y-97.6
X184.8Y-101.4
X184.8Y-57.0
X184.824Y-71.576
X185.3Y-70.5
X185.3Y-86.2
X185.4Y-56.4
X185.8Y-84.8
X186.0Y-66.0
X186.0Y-98.8
X186.0Y-100.2
X186.0Y-124.0
X186.0Y-77.825
X186.3Y-148.5
X186.4Y-78.6
X186.4Y-121.6
X186.4Y-141.4
X186.4Y-55.2
X186.4Y-69.2
X186.541Y-73.417
X186.8Y-129.0
X187.0Y-119.4
X187.0Y-93.6
X187.024Y-120.224
X187.2Y-117.6
X187.21Y-62.152
X187.4Y-95.0
X187.4Y-124.0
X187.4Y-138.8
X187.43Y-61.383
X187.6Y-148.1
X187.6Y-92.4
X187.99Y-146.5
X188.0Y-135.0
X189.79Y-147.616
X189.8Y-51.2
X190.3Y-147.0
X190.4Y-50.6
X190.9Y-148.9
X191.0Y-59.0
X191.3Y-141.4
X192.4Y-117.0
X192.4Y-121.2
X192.4Y-126.6
X192.4Y-136.2
X192.7Y-141.0
X193.2Y-127.2
X193.2Y-132.2
X193.8Y-63.4
X193.868Y-60.132
X194.176Y-64.624
X194.7Y-65.8
X194.8Y-89.8
X194.9Y-91.3
X195.293Y-60.707
X195.6Y-140.0
X195.8Y-70.77
X195.8Y-78.6
X196.2Y-68.2
X196.4Y-77.2
X196.675Y-119.433
X196.675Y-107.873
X196.7Y-106.2
X196.804Y-137.571
X197.0Y-74.8
X197.0Y-120.3
X197.475Y-109.9
X197.475Y-121.213
X197.6Y-138.8
X197.601Y-104.799
X197.7Y-140.6
X197.8Y-87.3
X197.8Y-123.88
X197.8Y-125.072
X198.0Y-88.6
X198.1Y-82.4
X198.275Y-133.8
X198.5Y-135.0
X198.5Y-83.6
T2
X113.4Y-98.0
X113.4Y-100.6
X113.4Y-107.6
X114.8Y-130.2
X119.4Y-66.2
X119.4Y-81.0
X119.4Y-88.6
X119.4Y-92.2
X119.4Y-101.6
X122.0Y-58.2
X128.8Y-85.2
X128.8Y-94.2
X128.8Y-101.8
X129.0Y-66.4
X131.6Y-58.2
X136.2Y-80.4
X136.4Y-77.6
X139.8Y-59.4
X139.8Y-66.2
X141.6Y-85.4
X141.6Y-94.4
X141.6Y-103.2
X141.6Y-112.0
X141.6Y-121.0
X141.6Y-123.8
X141.6Y-130.0
X141.8Y-52.2
X141.8Y-58.6
X141.8Y-61.0
X141.8Y-77.6
X143.8Y-144.8
X143.8Y-147.6
X149.0Y-89.4
X149.2Y-53.0
X149.2Y-80.4
X149.2Y-98.4
X149.2Y-102.8
X149.4Y-77.2
X149.4Y-107.2
X149.4Y-114.2
X149.4Y-125.0
X149.4Y-130.4
X149.4Y-139.0
X149.8Y-57.2
X149.8Y-61.0
X149.8Y-66.4
X150.0Y-147.2
X155.6Y-100.6
X155.6Y-112.2
X155.6Y-123.8
X155.8Y-146.8
X157.0Y-88.2
X160.0Y-66.4
X161.5Y-60.9
X161.9Y-77.3
X162.0Y-80.6
X164.2Y-58.2
X168.0Y-89.2
X168.0Y-100.8
X168.0Y-112.2
X168.0Y-123.6
X170.2Y-66.4
X174.4Y-58.2
X174.8Y-80.6
X175.0Y-77.4
X177.8Y-90.0
X177.8Y-101.6
X178.0Y-125.2
X178.199Y-139.978
X178.2Y-128.0
X178.2Y-144.2
X179.6Y-79.8
X180.6Y-58.2
X180.6Y-66.4
X189.0Y-52.2
X189.0Y-58.2
X189.0Y-115.4
X189.0Y-126.2
X189.0Y-140.2
X194.0Y-115.4
X194.0Y-128.0
X194.0Y-131.2
T3
X188.96Y-62.0
X188.96Y-64.54
X188.96Y-67.08
X188.96Y-69.62
X188.96Y-72.16
X188.96Y-74.7
X188.96Y-77.24
X188.96Y-79.78
X188.96Y-82.32
X188.96Y-84.86
X188.96Y-87.4
X188.96Y-89.94
X188.96Y-92.48
X188.96Y-95.02
X188.96Y-97.56
X188.96Y-100.1
X188.96Y-102.64
X188.96Y-105.18
X188.96Y-107.72
X188.96Y-110.26
X191.5Y-62.0
X191.5Y-64.54
X191.5Y-67.08
X191.5Y-69.62
X191.5Y-72.16
X191.5Y-74.7
X191.5Y-77.24
X191.5Y-79.78
X191.5Y-82.32
X191.5Y-84.86
X191.5Y-87.4
X191.5Y-89.94
X191.5Y-92.48
X191.5Y-95.02
X191.5Y-97.56
X191.5Y-100.1
X191.5Y-102.64
X191.5Y-105.18
X191.5Y-107.72
X191.5Y-110.26
T0
M30
