G04 #@! TF.GenerationSoftware,KiCad,Pcbnew,(5.1.6-0-10_14)*
G04 #@! TF.CreationDate,2021-01-21T22:19:54+01:00*
G04 #@! TF.ProjectId,registers,72656769-7374-4657-9273-2e6b69636164,2*
G04 #@! TF.SameCoordinates,Original*
G04 #@! TF.FileFunction,Legend,Bot*
G04 #@! TF.FilePolarity,Positive*
%FSLAX46Y46*%
G04 Gerber Fmt 4.6, Leading zero omitted, Abs format (unit mm)*
G04 Created by KiCad (PCBNEW (5.1.6-0-10_14)) date 2021-01-21 22:19:54*
%MOMM*%
%LPD*%
G01*
G04 APERTURE LIST*
%ADD10C,0.150000*%
%ADD11C,0.120000*%
G04 APERTURE END LIST*
D10*
X160271428Y-140827380D02*
X160747619Y-140827380D01*
X160747619Y-139827380D01*
X159938095Y-140827380D02*
X159938095Y-140160714D01*
X159938095Y-139827380D02*
X159985714Y-139875000D01*
X159938095Y-139922619D01*
X159890476Y-139875000D01*
X159938095Y-139827380D01*
X159938095Y-139922619D01*
X159033333Y-140779761D02*
X159128571Y-140827380D01*
X159319047Y-140827380D01*
X159414285Y-140779761D01*
X159461904Y-140732142D01*
X159509523Y-140636904D01*
X159509523Y-140351190D01*
X159461904Y-140255952D01*
X159414285Y-140208333D01*
X159319047Y-140160714D01*
X159128571Y-140160714D01*
X159033333Y-140208333D01*
X158223809Y-140779761D02*
X158319047Y-140827380D01*
X158509523Y-140827380D01*
X158604761Y-140779761D01*
X158652380Y-140684523D01*
X158652380Y-140303571D01*
X158604761Y-140208333D01*
X158509523Y-140160714D01*
X158319047Y-140160714D01*
X158223809Y-140208333D01*
X158176190Y-140303571D01*
X158176190Y-140398809D01*
X158652380Y-140494047D01*
X157747619Y-140160714D02*
X157747619Y-140827380D01*
X157747619Y-140255952D02*
X157700000Y-140208333D01*
X157604761Y-140160714D01*
X157461904Y-140160714D01*
X157366666Y-140208333D01*
X157319047Y-140303571D01*
X157319047Y-140827380D01*
X156890476Y-140779761D02*
X156795238Y-140827380D01*
X156604761Y-140827380D01*
X156509523Y-140779761D01*
X156461904Y-140684523D01*
X156461904Y-140636904D01*
X156509523Y-140541666D01*
X156604761Y-140494047D01*
X156747619Y-140494047D01*
X156842857Y-140446428D01*
X156890476Y-140351190D01*
X156890476Y-140303571D01*
X156842857Y-140208333D01*
X156747619Y-140160714D01*
X156604761Y-140160714D01*
X156509523Y-140208333D01*
X155652380Y-140779761D02*
X155747619Y-140827380D01*
X155938095Y-140827380D01*
X156033333Y-140779761D01*
X156080952Y-140684523D01*
X156080952Y-140303571D01*
X156033333Y-140208333D01*
X155938095Y-140160714D01*
X155747619Y-140160714D01*
X155652380Y-140208333D01*
X155604761Y-140303571D01*
X155604761Y-140398809D01*
X156080952Y-140494047D01*
X154747619Y-140827380D02*
X154747619Y-139827380D01*
X154747619Y-140779761D02*
X154842857Y-140827380D01*
X155033333Y-140827380D01*
X155128571Y-140779761D01*
X155176190Y-140732142D01*
X155223809Y-140636904D01*
X155223809Y-140351190D01*
X155176190Y-140255952D01*
X155128571Y-140208333D01*
X155033333Y-140160714D01*
X154842857Y-140160714D01*
X154747619Y-140208333D01*
X153080952Y-140160714D02*
X153080952Y-140827380D01*
X153509523Y-140160714D02*
X153509523Y-140684523D01*
X153461904Y-140779761D01*
X153366666Y-140827380D01*
X153223809Y-140827380D01*
X153128571Y-140779761D01*
X153080952Y-140732142D01*
X152604761Y-140160714D02*
X152604761Y-140827380D01*
X152604761Y-140255952D02*
X152557142Y-140208333D01*
X152461904Y-140160714D01*
X152319047Y-140160714D01*
X152223809Y-140208333D01*
X152176190Y-140303571D01*
X152176190Y-140827380D01*
X151271428Y-140827380D02*
X151271428Y-139827380D01*
X151271428Y-140779761D02*
X151366666Y-140827380D01*
X151557142Y-140827380D01*
X151652380Y-140779761D01*
X151700000Y-140732142D01*
X151747619Y-140636904D01*
X151747619Y-140351190D01*
X151700000Y-140255952D01*
X151652380Y-140208333D01*
X151557142Y-140160714D01*
X151366666Y-140160714D01*
X151271428Y-140208333D01*
X150414285Y-140779761D02*
X150509523Y-140827380D01*
X150700000Y-140827380D01*
X150795238Y-140779761D01*
X150842857Y-140684523D01*
X150842857Y-140303571D01*
X150795238Y-140208333D01*
X150700000Y-140160714D01*
X150509523Y-140160714D01*
X150414285Y-140208333D01*
X150366666Y-140303571D01*
X150366666Y-140398809D01*
X150842857Y-140494047D01*
X149938095Y-140827380D02*
X149938095Y-140160714D01*
X149938095Y-140351190D02*
X149890476Y-140255952D01*
X149842857Y-140208333D01*
X149747619Y-140160714D01*
X149652380Y-140160714D01*
X148700000Y-140160714D02*
X148319047Y-140160714D01*
X148557142Y-139827380D02*
X148557142Y-140684523D01*
X148509523Y-140779761D01*
X148414285Y-140827380D01*
X148319047Y-140827380D01*
X147985714Y-140827380D02*
X147985714Y-139827380D01*
X147557142Y-140827380D02*
X147557142Y-140303571D01*
X147604761Y-140208333D01*
X147700000Y-140160714D01*
X147842857Y-140160714D01*
X147938095Y-140208333D01*
X147985714Y-140255952D01*
X146700000Y-140779761D02*
X146795238Y-140827380D01*
X146985714Y-140827380D01*
X147080952Y-140779761D01*
X147128571Y-140684523D01*
X147128571Y-140303571D01*
X147080952Y-140208333D01*
X146985714Y-140160714D01*
X146795238Y-140160714D01*
X146700000Y-140208333D01*
X146652380Y-140303571D01*
X146652380Y-140398809D01*
X147128571Y-140494047D01*
X145604761Y-139827380D02*
X145033333Y-139827380D01*
X145319047Y-140827380D02*
X145319047Y-139827380D01*
X144747619Y-140541666D02*
X144271428Y-140541666D01*
X144842857Y-140827380D02*
X144509523Y-139827380D01*
X144176190Y-140827380D01*
X143842857Y-140827380D02*
X143842857Y-139827380D01*
X143461904Y-139827380D01*
X143366666Y-139875000D01*
X143319047Y-139922619D01*
X143271428Y-140017857D01*
X143271428Y-140160714D01*
X143319047Y-140255952D01*
X143366666Y-140303571D01*
X143461904Y-140351190D01*
X143842857Y-140351190D01*
X142271428Y-140827380D02*
X142604761Y-140351190D01*
X142842857Y-140827380D02*
X142842857Y-139827380D01*
X142461904Y-139827380D01*
X142366666Y-139875000D01*
X142319047Y-139922619D01*
X142271428Y-140017857D01*
X142271428Y-140160714D01*
X142319047Y-140255952D01*
X142366666Y-140303571D01*
X142461904Y-140351190D01*
X142842857Y-140351190D01*
X140890476Y-139827380D02*
X140700000Y-139827380D01*
X140604761Y-139875000D01*
X140509523Y-139970238D01*
X140461904Y-140160714D01*
X140461904Y-140494047D01*
X140509523Y-140684523D01*
X140604761Y-140779761D01*
X140700000Y-140827380D01*
X140890476Y-140827380D01*
X140985714Y-140779761D01*
X141080952Y-140684523D01*
X141128571Y-140494047D01*
X141128571Y-140160714D01*
X141080952Y-139970238D01*
X140985714Y-139875000D01*
X140890476Y-139827380D01*
X140033333Y-140827380D02*
X140033333Y-139827380D01*
X140033333Y-140303571D02*
X139461904Y-140303571D01*
X139461904Y-140827380D02*
X139461904Y-139827380D01*
X138509523Y-140827380D02*
X138985714Y-140827380D01*
X138985714Y-139827380D01*
X156580952Y-142858333D02*
X156628571Y-142810714D01*
X156723809Y-142667857D01*
X156771428Y-142572619D01*
X156819047Y-142429761D01*
X156866666Y-142191666D01*
X156866666Y-142001190D01*
X156819047Y-141763095D01*
X156771428Y-141620238D01*
X156723809Y-141525000D01*
X156628571Y-141382142D01*
X156580952Y-141334523D01*
X156295238Y-141810714D02*
X156104761Y-142477380D01*
X155914285Y-142001190D01*
X155723809Y-142477380D01*
X155533333Y-141810714D01*
X155247619Y-141810714D02*
X155057142Y-142477380D01*
X154866666Y-142001190D01*
X154676190Y-142477380D01*
X154485714Y-141810714D01*
X154200000Y-141810714D02*
X154009523Y-142477380D01*
X153819047Y-142001190D01*
X153628571Y-142477380D01*
X153438095Y-141810714D01*
X153057142Y-142382142D02*
X153009523Y-142429761D01*
X153057142Y-142477380D01*
X153104761Y-142429761D01*
X153057142Y-142382142D01*
X153057142Y-142477380D01*
X152723809Y-141810714D02*
X152342857Y-141810714D01*
X152580952Y-141477380D02*
X152580952Y-142334523D01*
X152533333Y-142429761D01*
X152438095Y-142477380D01*
X152342857Y-142477380D01*
X151580952Y-142477380D02*
X151580952Y-141953571D01*
X151628571Y-141858333D01*
X151723809Y-141810714D01*
X151914285Y-141810714D01*
X152009523Y-141858333D01*
X151580952Y-142429761D02*
X151676190Y-142477380D01*
X151914285Y-142477380D01*
X152009523Y-142429761D01*
X152057142Y-142334523D01*
X152057142Y-142239285D01*
X152009523Y-142144047D01*
X151914285Y-142096428D01*
X151676190Y-142096428D01*
X151580952Y-142048809D01*
X151104761Y-141810714D02*
X151104761Y-142810714D01*
X151104761Y-141858333D02*
X151009523Y-141810714D01*
X150819047Y-141810714D01*
X150723809Y-141858333D01*
X150676190Y-141905952D01*
X150628571Y-142001190D01*
X150628571Y-142286904D01*
X150676190Y-142382142D01*
X150723809Y-142429761D01*
X150819047Y-142477380D01*
X151009523Y-142477380D01*
X151104761Y-142429761D01*
X150200000Y-142477380D02*
X150200000Y-141810714D01*
X150200000Y-142001190D02*
X150152380Y-141905952D01*
X150104761Y-141858333D01*
X150009523Y-141810714D01*
X149914285Y-141810714D01*
X149580952Y-142382142D02*
X149533333Y-142429761D01*
X149580952Y-142477380D01*
X149628571Y-142429761D01*
X149580952Y-142382142D01*
X149580952Y-142477380D01*
X148961904Y-142477380D02*
X149057142Y-142429761D01*
X149104761Y-142382142D01*
X149152380Y-142286904D01*
X149152380Y-142001190D01*
X149104761Y-141905952D01*
X149057142Y-141858333D01*
X148961904Y-141810714D01*
X148819047Y-141810714D01*
X148723809Y-141858333D01*
X148676190Y-141905952D01*
X148628571Y-142001190D01*
X148628571Y-142286904D01*
X148676190Y-142382142D01*
X148723809Y-142429761D01*
X148819047Y-142477380D01*
X148961904Y-142477380D01*
X148200000Y-142477380D02*
X148200000Y-141810714D01*
X148200000Y-142001190D02*
X148152380Y-141905952D01*
X148104761Y-141858333D01*
X148009523Y-141810714D01*
X147914285Y-141810714D01*
X147152380Y-141810714D02*
X147152380Y-142620238D01*
X147200000Y-142715476D01*
X147247619Y-142763095D01*
X147342857Y-142810714D01*
X147485714Y-142810714D01*
X147580952Y-142763095D01*
X147152380Y-142429761D02*
X147247619Y-142477380D01*
X147438095Y-142477380D01*
X147533333Y-142429761D01*
X147580952Y-142382142D01*
X147628571Y-142286904D01*
X147628571Y-142001190D01*
X147580952Y-141905952D01*
X147533333Y-141858333D01*
X147438095Y-141810714D01*
X147247619Y-141810714D01*
X147152380Y-141858333D01*
X145961904Y-141429761D02*
X146819047Y-142715476D01*
X145438095Y-141477380D02*
X145247619Y-141477380D01*
X145152380Y-141525000D01*
X145057142Y-141620238D01*
X145009523Y-141810714D01*
X145009523Y-142144047D01*
X145057142Y-142334523D01*
X145152380Y-142429761D01*
X145247619Y-142477380D01*
X145438095Y-142477380D01*
X145533333Y-142429761D01*
X145628571Y-142334523D01*
X145676190Y-142144047D01*
X145676190Y-141810714D01*
X145628571Y-141620238D01*
X145533333Y-141525000D01*
X145438095Y-141477380D01*
X144580952Y-142477380D02*
X144580952Y-141477380D01*
X144580952Y-141953571D02*
X144009523Y-141953571D01*
X144009523Y-142477380D02*
X144009523Y-141477380D01*
X143057142Y-142477380D02*
X143533333Y-142477380D01*
X143533333Y-141477380D01*
X142819047Y-142858333D02*
X142771428Y-142810714D01*
X142676190Y-142667857D01*
X142628571Y-142572619D01*
X142580952Y-142429761D01*
X142533333Y-142191666D01*
X142533333Y-142001190D01*
X142580952Y-141763095D01*
X142628571Y-141620238D01*
X142676190Y-141525000D01*
X142771428Y-141382142D01*
X142819047Y-141334523D01*
D11*
X207448000Y-60790000D02*
X198818000Y-60790000D01*
X207448000Y-60908095D02*
X198818000Y-60908095D01*
X207448000Y-61026190D02*
X198818000Y-61026190D01*
X207448000Y-61144285D02*
X198818000Y-61144285D01*
X207448000Y-61262380D02*
X198818000Y-61262380D01*
X207448000Y-61380475D02*
X198818000Y-61380475D01*
X207448000Y-61498570D02*
X198818000Y-61498570D01*
X207448000Y-61616665D02*
X198818000Y-61616665D01*
X207448000Y-61734760D02*
X198818000Y-61734760D01*
X207448000Y-61852855D02*
X198818000Y-61852855D01*
X207448000Y-61970950D02*
X198818000Y-61970950D01*
X207448000Y-62089045D02*
X198818000Y-62089045D01*
X207448000Y-62207140D02*
X198818000Y-62207140D01*
X207448000Y-62325235D02*
X198818000Y-62325235D01*
X207448000Y-62443330D02*
X198818000Y-62443330D01*
X207448000Y-62561425D02*
X198818000Y-62561425D01*
X207448000Y-62679520D02*
X198818000Y-62679520D01*
X207448000Y-62797615D02*
X198818000Y-62797615D01*
X207448000Y-62915710D02*
X198818000Y-62915710D01*
X207448000Y-63033805D02*
X198818000Y-63033805D01*
X207448000Y-63151900D02*
X198818000Y-63151900D01*
X198818000Y-61640000D02*
X198408000Y-61640000D01*
X196308000Y-61640000D02*
X195928000Y-61640000D01*
X198818000Y-62360000D02*
X198408000Y-62360000D01*
X196308000Y-62360000D02*
X195928000Y-62360000D01*
X198818000Y-64180000D02*
X198408000Y-64180000D01*
X196308000Y-64180000D02*
X195868000Y-64180000D01*
X198818000Y-64900000D02*
X198408000Y-64900000D01*
X196308000Y-64900000D02*
X195868000Y-64900000D01*
X198818000Y-66720000D02*
X198408000Y-66720000D01*
X196308000Y-66720000D02*
X195868000Y-66720000D01*
X198818000Y-67440000D02*
X198408000Y-67440000D01*
X196308000Y-67440000D02*
X195868000Y-67440000D01*
X198818000Y-69260000D02*
X198408000Y-69260000D01*
X196308000Y-69260000D02*
X195868000Y-69260000D01*
X198818000Y-69980000D02*
X198408000Y-69980000D01*
X196308000Y-69980000D02*
X195868000Y-69980000D01*
X198818000Y-71800000D02*
X198408000Y-71800000D01*
X196308000Y-71800000D02*
X195868000Y-71800000D01*
X198818000Y-72520000D02*
X198408000Y-72520000D01*
X196308000Y-72520000D02*
X195868000Y-72520000D01*
X198818000Y-74340000D02*
X198408000Y-74340000D01*
X196308000Y-74340000D02*
X195868000Y-74340000D01*
X198818000Y-75060000D02*
X198408000Y-75060000D01*
X196308000Y-75060000D02*
X195868000Y-75060000D01*
X198818000Y-76880000D02*
X198408000Y-76880000D01*
X196308000Y-76880000D02*
X195868000Y-76880000D01*
X198818000Y-77600000D02*
X198408000Y-77600000D01*
X196308000Y-77600000D02*
X195868000Y-77600000D01*
X198818000Y-79420000D02*
X198408000Y-79420000D01*
X196308000Y-79420000D02*
X195868000Y-79420000D01*
X198818000Y-80140000D02*
X198408000Y-80140000D01*
X196308000Y-80140000D02*
X195868000Y-80140000D01*
X198818000Y-81960000D02*
X198408000Y-81960000D01*
X196308000Y-81960000D02*
X195868000Y-81960000D01*
X198818000Y-82680000D02*
X198408000Y-82680000D01*
X196308000Y-82680000D02*
X195868000Y-82680000D01*
X198818000Y-84500000D02*
X198408000Y-84500000D01*
X196308000Y-84500000D02*
X195868000Y-84500000D01*
X198818000Y-85220000D02*
X198408000Y-85220000D01*
X196308000Y-85220000D02*
X195868000Y-85220000D01*
X198818000Y-87040000D02*
X198408000Y-87040000D01*
X196308000Y-87040000D02*
X195868000Y-87040000D01*
X198818000Y-87760000D02*
X198408000Y-87760000D01*
X196308000Y-87760000D02*
X195868000Y-87760000D01*
X198818000Y-89580000D02*
X198408000Y-89580000D01*
X196308000Y-89580000D02*
X195868000Y-89580000D01*
X198818000Y-90300000D02*
X198408000Y-90300000D01*
X196308000Y-90300000D02*
X195868000Y-90300000D01*
X198818000Y-92120000D02*
X198408000Y-92120000D01*
X196308000Y-92120000D02*
X195868000Y-92120000D01*
X198818000Y-92840000D02*
X198408000Y-92840000D01*
X196308000Y-92840000D02*
X195868000Y-92840000D01*
X198818000Y-94660000D02*
X198408000Y-94660000D01*
X196308000Y-94660000D02*
X195868000Y-94660000D01*
X198818000Y-95380000D02*
X198408000Y-95380000D01*
X196308000Y-95380000D02*
X195868000Y-95380000D01*
X198818000Y-97200000D02*
X198408000Y-97200000D01*
X196308000Y-97200000D02*
X195868000Y-97200000D01*
X198818000Y-97920000D02*
X198408000Y-97920000D01*
X196308000Y-97920000D02*
X195868000Y-97920000D01*
X198818000Y-99740000D02*
X198408000Y-99740000D01*
X196308000Y-99740000D02*
X195868000Y-99740000D01*
X198818000Y-100460000D02*
X198408000Y-100460000D01*
X196308000Y-100460000D02*
X195868000Y-100460000D01*
X198818000Y-102280000D02*
X198408000Y-102280000D01*
X196308000Y-102280000D02*
X195868000Y-102280000D01*
X198818000Y-103000000D02*
X198408000Y-103000000D01*
X196308000Y-103000000D02*
X195868000Y-103000000D01*
X198818000Y-104820000D02*
X198408000Y-104820000D01*
X196308000Y-104820000D02*
X195868000Y-104820000D01*
X198818000Y-105540000D02*
X198408000Y-105540000D01*
X196308000Y-105540000D02*
X195868000Y-105540000D01*
X198818000Y-107360000D02*
X198408000Y-107360000D01*
X196308000Y-107360000D02*
X195868000Y-107360000D01*
X198818000Y-108080000D02*
X198408000Y-108080000D01*
X196308000Y-108080000D02*
X195868000Y-108080000D01*
X198818000Y-109900000D02*
X198408000Y-109900000D01*
X196308000Y-109900000D02*
X195868000Y-109900000D01*
X198818000Y-110620000D02*
X198408000Y-110620000D01*
X196308000Y-110620000D02*
X195868000Y-110620000D01*
X207448000Y-63270000D02*
X198818000Y-63270000D01*
X207448000Y-65810000D02*
X198818000Y-65810000D01*
X207448000Y-68350000D02*
X198818000Y-68350000D01*
X207448000Y-70890000D02*
X198818000Y-70890000D01*
X207448000Y-73430000D02*
X198818000Y-73430000D01*
X207448000Y-75970000D02*
X198818000Y-75970000D01*
X207448000Y-78510000D02*
X198818000Y-78510000D01*
X207448000Y-81050000D02*
X198818000Y-81050000D01*
X207448000Y-83590000D02*
X198818000Y-83590000D01*
X207448000Y-86130000D02*
X198818000Y-86130000D01*
X207448000Y-88670000D02*
X198818000Y-88670000D01*
X207448000Y-91210000D02*
X198818000Y-91210000D01*
X207448000Y-93750000D02*
X198818000Y-93750000D01*
X207448000Y-96290000D02*
X198818000Y-96290000D01*
X207448000Y-98830000D02*
X198818000Y-98830000D01*
X207448000Y-101370000D02*
X198818000Y-101370000D01*
X207448000Y-103910000D02*
X198818000Y-103910000D01*
X207448000Y-106450000D02*
X198818000Y-106450000D01*
X207448000Y-108990000D02*
X198818000Y-108990000D01*
X207448000Y-60670000D02*
X198818000Y-60670000D01*
X198818000Y-60670000D02*
X198818000Y-111590000D01*
X207448000Y-111590000D02*
X198818000Y-111590000D01*
X207448000Y-60670000D02*
X207448000Y-111590000D01*
X193708000Y-60670000D02*
X193708000Y-62000000D01*
X194818000Y-60670000D02*
X193708000Y-60670000D01*
X180941422Y-147510000D02*
X181458578Y-147510000D01*
X180941422Y-146090000D02*
X181458578Y-146090000D01*
X105156000Y-111590000D02*
X106266000Y-111590000D01*
X106266000Y-111590000D02*
X106266000Y-110260000D01*
X92526000Y-111590000D02*
X92526000Y-60670000D01*
X92526000Y-60670000D02*
X101156000Y-60670000D01*
X101156000Y-111590000D02*
X101156000Y-60670000D01*
X92526000Y-111590000D02*
X101156000Y-111590000D01*
X92526000Y-63270000D02*
X101156000Y-63270000D01*
X92526000Y-65810000D02*
X101156000Y-65810000D01*
X92526000Y-68350000D02*
X101156000Y-68350000D01*
X92526000Y-70890000D02*
X101156000Y-70890000D01*
X92526000Y-73430000D02*
X101156000Y-73430000D01*
X92526000Y-75970000D02*
X101156000Y-75970000D01*
X92526000Y-78510000D02*
X101156000Y-78510000D01*
X92526000Y-81050000D02*
X101156000Y-81050000D01*
X92526000Y-83590000D02*
X101156000Y-83590000D01*
X92526000Y-86130000D02*
X101156000Y-86130000D01*
X92526000Y-88670000D02*
X101156000Y-88670000D01*
X92526000Y-91210000D02*
X101156000Y-91210000D01*
X92526000Y-93750000D02*
X101156000Y-93750000D01*
X92526000Y-96290000D02*
X101156000Y-96290000D01*
X92526000Y-98830000D02*
X101156000Y-98830000D01*
X92526000Y-101370000D02*
X101156000Y-101370000D01*
X92526000Y-103910000D02*
X101156000Y-103910000D01*
X92526000Y-106450000D02*
X101156000Y-106450000D01*
X92526000Y-108990000D02*
X101156000Y-108990000D01*
X103666000Y-61640000D02*
X104106000Y-61640000D01*
X101156000Y-61640000D02*
X101566000Y-61640000D01*
X103666000Y-62360000D02*
X104106000Y-62360000D01*
X101156000Y-62360000D02*
X101566000Y-62360000D01*
X103666000Y-64180000D02*
X104106000Y-64180000D01*
X101156000Y-64180000D02*
X101566000Y-64180000D01*
X103666000Y-64900000D02*
X104106000Y-64900000D01*
X101156000Y-64900000D02*
X101566000Y-64900000D01*
X103666000Y-66720000D02*
X104106000Y-66720000D01*
X101156000Y-66720000D02*
X101566000Y-66720000D01*
X103666000Y-67440000D02*
X104106000Y-67440000D01*
X101156000Y-67440000D02*
X101566000Y-67440000D01*
X103666000Y-69260000D02*
X104106000Y-69260000D01*
X101156000Y-69260000D02*
X101566000Y-69260000D01*
X103666000Y-69980000D02*
X104106000Y-69980000D01*
X101156000Y-69980000D02*
X101566000Y-69980000D01*
X103666000Y-71800000D02*
X104106000Y-71800000D01*
X101156000Y-71800000D02*
X101566000Y-71800000D01*
X103666000Y-72520000D02*
X104106000Y-72520000D01*
X101156000Y-72520000D02*
X101566000Y-72520000D01*
X103666000Y-74340000D02*
X104106000Y-74340000D01*
X101156000Y-74340000D02*
X101566000Y-74340000D01*
X103666000Y-75060000D02*
X104106000Y-75060000D01*
X101156000Y-75060000D02*
X101566000Y-75060000D01*
X103666000Y-76880000D02*
X104106000Y-76880000D01*
X101156000Y-76880000D02*
X101566000Y-76880000D01*
X103666000Y-77600000D02*
X104106000Y-77600000D01*
X101156000Y-77600000D02*
X101566000Y-77600000D01*
X103666000Y-79420000D02*
X104106000Y-79420000D01*
X101156000Y-79420000D02*
X101566000Y-79420000D01*
X103666000Y-80140000D02*
X104106000Y-80140000D01*
X101156000Y-80140000D02*
X101566000Y-80140000D01*
X103666000Y-81960000D02*
X104106000Y-81960000D01*
X101156000Y-81960000D02*
X101566000Y-81960000D01*
X103666000Y-82680000D02*
X104106000Y-82680000D01*
X101156000Y-82680000D02*
X101566000Y-82680000D01*
X103666000Y-84500000D02*
X104106000Y-84500000D01*
X101156000Y-84500000D02*
X101566000Y-84500000D01*
X103666000Y-85220000D02*
X104106000Y-85220000D01*
X101156000Y-85220000D02*
X101566000Y-85220000D01*
X103666000Y-87040000D02*
X104106000Y-87040000D01*
X101156000Y-87040000D02*
X101566000Y-87040000D01*
X103666000Y-87760000D02*
X104106000Y-87760000D01*
X101156000Y-87760000D02*
X101566000Y-87760000D01*
X103666000Y-89580000D02*
X104106000Y-89580000D01*
X101156000Y-89580000D02*
X101566000Y-89580000D01*
X103666000Y-90300000D02*
X104106000Y-90300000D01*
X101156000Y-90300000D02*
X101566000Y-90300000D01*
X103666000Y-92120000D02*
X104106000Y-92120000D01*
X101156000Y-92120000D02*
X101566000Y-92120000D01*
X103666000Y-92840000D02*
X104106000Y-92840000D01*
X101156000Y-92840000D02*
X101566000Y-92840000D01*
X103666000Y-94660000D02*
X104106000Y-94660000D01*
X101156000Y-94660000D02*
X101566000Y-94660000D01*
X103666000Y-95380000D02*
X104106000Y-95380000D01*
X101156000Y-95380000D02*
X101566000Y-95380000D01*
X103666000Y-97200000D02*
X104106000Y-97200000D01*
X101156000Y-97200000D02*
X101566000Y-97200000D01*
X103666000Y-97920000D02*
X104106000Y-97920000D01*
X101156000Y-97920000D02*
X101566000Y-97920000D01*
X103666000Y-99740000D02*
X104106000Y-99740000D01*
X101156000Y-99740000D02*
X101566000Y-99740000D01*
X103666000Y-100460000D02*
X104106000Y-100460000D01*
X101156000Y-100460000D02*
X101566000Y-100460000D01*
X103666000Y-102280000D02*
X104106000Y-102280000D01*
X101156000Y-102280000D02*
X101566000Y-102280000D01*
X103666000Y-103000000D02*
X104106000Y-103000000D01*
X101156000Y-103000000D02*
X101566000Y-103000000D01*
X103666000Y-104820000D02*
X104106000Y-104820000D01*
X101156000Y-104820000D02*
X101566000Y-104820000D01*
X103666000Y-105540000D02*
X104106000Y-105540000D01*
X101156000Y-105540000D02*
X101566000Y-105540000D01*
X103666000Y-107360000D02*
X104106000Y-107360000D01*
X101156000Y-107360000D02*
X101566000Y-107360000D01*
X103666000Y-108080000D02*
X104106000Y-108080000D01*
X101156000Y-108080000D02*
X101566000Y-108080000D01*
X103666000Y-109900000D02*
X104046000Y-109900000D01*
X101156000Y-109900000D02*
X101566000Y-109900000D01*
X103666000Y-110620000D02*
X104046000Y-110620000D01*
X101156000Y-110620000D02*
X101566000Y-110620000D01*
X92526000Y-109108100D02*
X101156000Y-109108100D01*
X92526000Y-109226195D02*
X101156000Y-109226195D01*
X92526000Y-109344290D02*
X101156000Y-109344290D01*
X92526000Y-109462385D02*
X101156000Y-109462385D01*
X92526000Y-109580480D02*
X101156000Y-109580480D01*
X92526000Y-109698575D02*
X101156000Y-109698575D01*
X92526000Y-109816670D02*
X101156000Y-109816670D01*
X92526000Y-109934765D02*
X101156000Y-109934765D01*
X92526000Y-110052860D02*
X101156000Y-110052860D01*
X92526000Y-110170955D02*
X101156000Y-110170955D01*
X92526000Y-110289050D02*
X101156000Y-110289050D01*
X92526000Y-110407145D02*
X101156000Y-110407145D01*
X92526000Y-110525240D02*
X101156000Y-110525240D01*
X92526000Y-110643335D02*
X101156000Y-110643335D01*
X92526000Y-110761430D02*
X101156000Y-110761430D01*
X92526000Y-110879525D02*
X101156000Y-110879525D01*
X92526000Y-110997620D02*
X101156000Y-110997620D01*
X92526000Y-111115715D02*
X101156000Y-111115715D01*
X92526000Y-111233810D02*
X101156000Y-111233810D01*
X92526000Y-111351905D02*
X101156000Y-111351905D01*
X92526000Y-111470000D02*
X101156000Y-111470000D01*
X177940000Y-134358578D02*
X177940000Y-133841422D01*
X179360000Y-134358578D02*
X179360000Y-133841422D01*
X175940000Y-134358578D02*
X175940000Y-133841422D01*
X177360000Y-134358578D02*
X177360000Y-133841422D01*
X173940000Y-134358578D02*
X173940000Y-133841422D01*
X175360000Y-134358578D02*
X175360000Y-133841422D01*
X171940000Y-134358578D02*
X171940000Y-133841422D01*
X173360000Y-134358578D02*
X173360000Y-133841422D01*
X169940000Y-134358578D02*
X169940000Y-133841422D01*
X171360000Y-134358578D02*
X171360000Y-133841422D01*
X167940000Y-134358578D02*
X167940000Y-133841422D01*
X169360000Y-134358578D02*
X169360000Y-133841422D01*
X165940000Y-134358578D02*
X165940000Y-133841422D01*
X167360000Y-134358578D02*
X167360000Y-133841422D01*
X163940000Y-134358578D02*
X163940000Y-133841422D01*
X165360000Y-134358578D02*
X165360000Y-133841422D01*
X158640000Y-55508578D02*
X158640000Y-54991422D01*
X160060000Y-55508578D02*
X160060000Y-54991422D01*
X160640000Y-55508578D02*
X160640000Y-54991422D01*
X162060000Y-55508578D02*
X162060000Y-54991422D01*
X162640000Y-55508578D02*
X162640000Y-54991422D01*
X164060000Y-55508578D02*
X164060000Y-54991422D01*
X164640000Y-55508578D02*
X164640000Y-54991422D01*
X166060000Y-55508578D02*
X166060000Y-54991422D01*
X184710000Y-95641422D02*
X184710000Y-96158578D01*
X183290000Y-95641422D02*
X183290000Y-96158578D01*
X137676578Y-61673000D02*
X137159422Y-61673000D01*
X137676578Y-60253000D02*
X137159422Y-60253000D01*
X137676578Y-63673000D02*
X137159422Y-63673000D01*
X137676578Y-62253000D02*
X137159422Y-62253000D01*
X137676578Y-65673000D02*
X137159422Y-65673000D01*
X137676578Y-64253000D02*
X137159422Y-64253000D01*
X137676578Y-67673000D02*
X137159422Y-67673000D01*
X137676578Y-66253000D02*
X137159422Y-66253000D01*
X137676578Y-69673000D02*
X137159422Y-69673000D01*
X137676578Y-68253000D02*
X137159422Y-68253000D01*
X137676578Y-71673000D02*
X137159422Y-71673000D01*
X137676578Y-70253000D02*
X137159422Y-70253000D01*
X137676578Y-73673000D02*
X137159422Y-73673000D01*
X137676578Y-72253000D02*
X137159422Y-72253000D01*
X137676578Y-75673000D02*
X137159422Y-75673000D01*
X137676578Y-74253000D02*
X137159422Y-74253000D01*
X137676578Y-77673000D02*
X137159422Y-77673000D01*
X137676578Y-76253000D02*
X137159422Y-76253000D01*
X137676578Y-79673000D02*
X137159422Y-79673000D01*
X137676578Y-78253000D02*
X137159422Y-78253000D01*
X137676578Y-81673000D02*
X137159422Y-81673000D01*
X137676578Y-80253000D02*
X137159422Y-80253000D01*
X137676578Y-83673000D02*
X137159422Y-83673000D01*
X137676578Y-82253000D02*
X137159422Y-82253000D01*
X137676578Y-85673000D02*
X137159422Y-85673000D01*
X137676578Y-84253000D02*
X137159422Y-84253000D01*
X137676578Y-87673000D02*
X137159422Y-87673000D01*
X137676578Y-86253000D02*
X137159422Y-86253000D01*
X137676578Y-89673000D02*
X137159422Y-89673000D01*
X137676578Y-88253000D02*
X137159422Y-88253000D01*
X137676578Y-91673000D02*
X137159422Y-91673000D01*
X137676578Y-90253000D02*
X137159422Y-90253000D01*
X137676578Y-101153000D02*
X137159422Y-101153000D01*
X137676578Y-102573000D02*
X137159422Y-102573000D01*
X137676578Y-103153000D02*
X137159422Y-103153000D01*
X137676578Y-104573000D02*
X137159422Y-104573000D01*
X137676578Y-105153000D02*
X137159422Y-105153000D01*
X137676578Y-106573000D02*
X137159422Y-106573000D01*
X137676578Y-107153000D02*
X137159422Y-107153000D01*
X137676578Y-108573000D02*
X137159422Y-108573000D01*
X137676578Y-109153000D02*
X137159422Y-109153000D01*
X137676578Y-110573000D02*
X137159422Y-110573000D01*
X137676578Y-111153000D02*
X137159422Y-111153000D01*
X137676578Y-112573000D02*
X137159422Y-112573000D01*
X137676578Y-114573000D02*
X137159422Y-114573000D01*
X137676578Y-113153000D02*
X137159422Y-113153000D01*
X137676578Y-115153000D02*
X137159422Y-115153000D01*
X137676578Y-116573000D02*
X137159422Y-116573000D01*
X137676578Y-117153000D02*
X137159422Y-117153000D01*
X137676578Y-118573000D02*
X137159422Y-118573000D01*
X137676578Y-119153000D02*
X137159422Y-119153000D01*
X137676578Y-120573000D02*
X137159422Y-120573000D01*
X137676578Y-122573000D02*
X137159422Y-122573000D01*
X137676578Y-121153000D02*
X137159422Y-121153000D01*
X137676578Y-123153000D02*
X137159422Y-123153000D01*
X137676578Y-124573000D02*
X137159422Y-124573000D01*
X137676578Y-126573000D02*
X137159422Y-126573000D01*
X137676578Y-125153000D02*
X137159422Y-125153000D01*
X137676578Y-127153000D02*
X137159422Y-127153000D01*
X137676578Y-128573000D02*
X137159422Y-128573000D01*
X137676578Y-129153000D02*
X137159422Y-129153000D01*
X137676578Y-130573000D02*
X137159422Y-130573000D01*
X137676578Y-131153000D02*
X137159422Y-131153000D01*
X137676578Y-132573000D02*
X137159422Y-132573000D01*
X122290000Y-138741422D02*
X122290000Y-139258578D01*
X123710000Y-138741422D02*
X123710000Y-139258578D01*
X120290000Y-138741422D02*
X120290000Y-139258578D01*
X121710000Y-138741422D02*
X121710000Y-139258578D01*
X118290000Y-138741422D02*
X118290000Y-139258578D01*
X119710000Y-138741422D02*
X119710000Y-139258578D01*
X116290000Y-138741422D02*
X116290000Y-139258578D01*
X117710000Y-138741422D02*
X117710000Y-139258578D01*
X114290000Y-138741422D02*
X114290000Y-139258578D01*
X115710000Y-138741422D02*
X115710000Y-139258578D01*
X112290000Y-138741422D02*
X112290000Y-139258578D01*
X113710000Y-138741422D02*
X113710000Y-139258578D01*
X110290000Y-138741422D02*
X110290000Y-139258578D01*
X111710000Y-138741422D02*
X111710000Y-139258578D01*
X108290000Y-138741422D02*
X108290000Y-139258578D01*
X109710000Y-138741422D02*
X109710000Y-139258578D01*
X168540000Y-69491422D02*
X168540000Y-70008578D01*
X169960000Y-69491422D02*
X169960000Y-70008578D01*
X166540000Y-69491422D02*
X166540000Y-70008578D01*
X167960000Y-69491422D02*
X167960000Y-70008578D01*
X165960000Y-69491422D02*
X165960000Y-70008578D01*
X164540000Y-69491422D02*
X164540000Y-70008578D01*
X162540000Y-69491422D02*
X162540000Y-70008578D01*
X163960000Y-69491422D02*
X163960000Y-70008578D01*
X161960000Y-69491422D02*
X161960000Y-70008578D01*
X160540000Y-69491422D02*
X160540000Y-70008578D01*
X159960000Y-69491422D02*
X159960000Y-70008578D01*
X158540000Y-69491422D02*
X158540000Y-70008578D01*
X156540000Y-69491422D02*
X156540000Y-70008578D01*
X157960000Y-69491422D02*
X157960000Y-70008578D01*
X155960000Y-69491422D02*
X155960000Y-70008578D01*
X154540000Y-69491422D02*
X154540000Y-70008578D01*
X181521078Y-144090000D02*
X181003922Y-144090000D01*
X181521078Y-145510000D02*
X181003922Y-145510000D01*
X175340000Y-157630000D02*
X175340000Y-149000000D01*
X175221905Y-157630000D02*
X175221905Y-149000000D01*
X175103810Y-157630000D02*
X175103810Y-149000000D01*
X174985715Y-157630000D02*
X174985715Y-149000000D01*
X174867620Y-157630000D02*
X174867620Y-149000000D01*
X174749525Y-157630000D02*
X174749525Y-149000000D01*
X174631430Y-157630000D02*
X174631430Y-149000000D01*
X174513335Y-157630000D02*
X174513335Y-149000000D01*
X174395240Y-157630000D02*
X174395240Y-149000000D01*
X174277145Y-157630000D02*
X174277145Y-149000000D01*
X174159050Y-157630000D02*
X174159050Y-149000000D01*
X174040955Y-157630000D02*
X174040955Y-149000000D01*
X173922860Y-157630000D02*
X173922860Y-149000000D01*
X173804765Y-157630000D02*
X173804765Y-149000000D01*
X173686670Y-157630000D02*
X173686670Y-149000000D01*
X173568575Y-157630000D02*
X173568575Y-149000000D01*
X173450480Y-157630000D02*
X173450480Y-149000000D01*
X173332385Y-157630000D02*
X173332385Y-149000000D01*
X173214290Y-157630000D02*
X173214290Y-149000000D01*
X173096195Y-157630000D02*
X173096195Y-149000000D01*
X172978100Y-157630000D02*
X172978100Y-149000000D01*
X174490000Y-149000000D02*
X174490000Y-148590000D01*
X174490000Y-146490000D02*
X174490000Y-146110000D01*
X173770000Y-149000000D02*
X173770000Y-148590000D01*
X173770000Y-146490000D02*
X173770000Y-146110000D01*
X171950000Y-149000000D02*
X171950000Y-148590000D01*
X171950000Y-146490000D02*
X171950000Y-146050000D01*
X171230000Y-149000000D02*
X171230000Y-148590000D01*
X171230000Y-146490000D02*
X171230000Y-146050000D01*
X169410000Y-149000000D02*
X169410000Y-148590000D01*
X169410000Y-146490000D02*
X169410000Y-146050000D01*
X168690000Y-149000000D02*
X168690000Y-148590000D01*
X168690000Y-146490000D02*
X168690000Y-146050000D01*
X166870000Y-149000000D02*
X166870000Y-148590000D01*
X166870000Y-146490000D02*
X166870000Y-146050000D01*
X166150000Y-149000000D02*
X166150000Y-148590000D01*
X166150000Y-146490000D02*
X166150000Y-146050000D01*
X164330000Y-149000000D02*
X164330000Y-148590000D01*
X164330000Y-146490000D02*
X164330000Y-146050000D01*
X163610000Y-149000000D02*
X163610000Y-148590000D01*
X163610000Y-146490000D02*
X163610000Y-146050000D01*
X161790000Y-149000000D02*
X161790000Y-148590000D01*
X161790000Y-146490000D02*
X161790000Y-146050000D01*
X161070000Y-149000000D02*
X161070000Y-148590000D01*
X161070000Y-146490000D02*
X161070000Y-146050000D01*
X159250000Y-149000000D02*
X159250000Y-148590000D01*
X159250000Y-146490000D02*
X159250000Y-146050000D01*
X158530000Y-149000000D02*
X158530000Y-148590000D01*
X158530000Y-146490000D02*
X158530000Y-146050000D01*
X156710000Y-149000000D02*
X156710000Y-148590000D01*
X156710000Y-146490000D02*
X156710000Y-146050000D01*
X155990000Y-149000000D02*
X155990000Y-148590000D01*
X155990000Y-146490000D02*
X155990000Y-146050000D01*
X154170000Y-149000000D02*
X154170000Y-148590000D01*
X154170000Y-146490000D02*
X154170000Y-146050000D01*
X153450000Y-149000000D02*
X153450000Y-148590000D01*
X153450000Y-146490000D02*
X153450000Y-146050000D01*
X151630000Y-149000000D02*
X151630000Y-148590000D01*
X151630000Y-146490000D02*
X151630000Y-146050000D01*
X150910000Y-149000000D02*
X150910000Y-148590000D01*
X150910000Y-146490000D02*
X150910000Y-146050000D01*
X149090000Y-149000000D02*
X149090000Y-148590000D01*
X149090000Y-146490000D02*
X149090000Y-146050000D01*
X148370000Y-149000000D02*
X148370000Y-148590000D01*
X148370000Y-146490000D02*
X148370000Y-146050000D01*
X146550000Y-149000000D02*
X146550000Y-148590000D01*
X146550000Y-146490000D02*
X146550000Y-146050000D01*
X145830000Y-149000000D02*
X145830000Y-148590000D01*
X145830000Y-146490000D02*
X145830000Y-146050000D01*
X144010000Y-149000000D02*
X144010000Y-148590000D01*
X144010000Y-146490000D02*
X144010000Y-146050000D01*
X143290000Y-149000000D02*
X143290000Y-148590000D01*
X143290000Y-146490000D02*
X143290000Y-146050000D01*
X141470000Y-149000000D02*
X141470000Y-148590000D01*
X141470000Y-146490000D02*
X141470000Y-146050000D01*
X140750000Y-149000000D02*
X140750000Y-148590000D01*
X140750000Y-146490000D02*
X140750000Y-146050000D01*
X138930000Y-149000000D02*
X138930000Y-148590000D01*
X138930000Y-146490000D02*
X138930000Y-146050000D01*
X138210000Y-149000000D02*
X138210000Y-148590000D01*
X138210000Y-146490000D02*
X138210000Y-146050000D01*
X136390000Y-149000000D02*
X136390000Y-148590000D01*
X136390000Y-146490000D02*
X136390000Y-146050000D01*
X135670000Y-149000000D02*
X135670000Y-148590000D01*
X135670000Y-146490000D02*
X135670000Y-146050000D01*
X133850000Y-149000000D02*
X133850000Y-148590000D01*
X133850000Y-146490000D02*
X133850000Y-146050000D01*
X133130000Y-149000000D02*
X133130000Y-148590000D01*
X133130000Y-146490000D02*
X133130000Y-146050000D01*
X131310000Y-149000000D02*
X131310000Y-148590000D01*
X131310000Y-146490000D02*
X131310000Y-146050000D01*
X130590000Y-149000000D02*
X130590000Y-148590000D01*
X130590000Y-146490000D02*
X130590000Y-146050000D01*
X128770000Y-149000000D02*
X128770000Y-148590000D01*
X128770000Y-146490000D02*
X128770000Y-146050000D01*
X128050000Y-149000000D02*
X128050000Y-148590000D01*
X128050000Y-146490000D02*
X128050000Y-146050000D01*
X126230000Y-149000000D02*
X126230000Y-148590000D01*
X126230000Y-146490000D02*
X126230000Y-146050000D01*
X125510000Y-149000000D02*
X125510000Y-148590000D01*
X125510000Y-146490000D02*
X125510000Y-146050000D01*
X172860000Y-157630000D02*
X172860000Y-149000000D01*
X170320000Y-157630000D02*
X170320000Y-149000000D01*
X167780000Y-157630000D02*
X167780000Y-149000000D01*
X165240000Y-157630000D02*
X165240000Y-149000000D01*
X162700000Y-157630000D02*
X162700000Y-149000000D01*
X160160000Y-157630000D02*
X160160000Y-149000000D01*
X157620000Y-157630000D02*
X157620000Y-149000000D01*
X155080000Y-157630000D02*
X155080000Y-149000000D01*
X152540000Y-157630000D02*
X152540000Y-149000000D01*
X150000000Y-157630000D02*
X150000000Y-149000000D01*
X147460000Y-157630000D02*
X147460000Y-149000000D01*
X144920000Y-157630000D02*
X144920000Y-149000000D01*
X142380000Y-157630000D02*
X142380000Y-149000000D01*
X139840000Y-157630000D02*
X139840000Y-149000000D01*
X137300000Y-157630000D02*
X137300000Y-149000000D01*
X134760000Y-157630000D02*
X134760000Y-149000000D01*
X132220000Y-157630000D02*
X132220000Y-149000000D01*
X129680000Y-157630000D02*
X129680000Y-149000000D01*
X127140000Y-157630000D02*
X127140000Y-149000000D01*
X175460000Y-157630000D02*
X175460000Y-149000000D01*
X175460000Y-149000000D02*
X124540000Y-149000000D01*
X124540000Y-157630000D02*
X124540000Y-149000000D01*
X175460000Y-157630000D02*
X124540000Y-157630000D01*
X175460000Y-143890000D02*
X174130000Y-143890000D01*
X175460000Y-145000000D02*
X175460000Y-143890000D01*
D10*
X197833333Y-112952380D02*
X197833333Y-113666666D01*
X197880952Y-113809523D01*
X197976190Y-113904761D01*
X198119047Y-113952380D01*
X198214285Y-113952380D01*
X197404761Y-113047619D02*
X197357142Y-113000000D01*
X197261904Y-112952380D01*
X197023809Y-112952380D01*
X196928571Y-113000000D01*
X196880952Y-113047619D01*
X196833333Y-113142857D01*
X196833333Y-113238095D01*
X196880952Y-113380952D01*
X197452380Y-113952380D01*
X196833333Y-113952380D01*
X187442857Y-147357142D02*
X187490476Y-147404761D01*
X187633333Y-147452380D01*
X187728571Y-147452380D01*
X187871428Y-147404761D01*
X187966666Y-147309523D01*
X188014285Y-147214285D01*
X188061904Y-147023809D01*
X188061904Y-146880952D01*
X188014285Y-146690476D01*
X187966666Y-146595238D01*
X187871428Y-146500000D01*
X187728571Y-146452380D01*
X187633333Y-146452380D01*
X187490476Y-146500000D01*
X187442857Y-146547619D01*
X187109523Y-146452380D02*
X186490476Y-146452380D01*
X186823809Y-146833333D01*
X186680952Y-146833333D01*
X186585714Y-146880952D01*
X186538095Y-146928571D01*
X186490476Y-147023809D01*
X186490476Y-147261904D01*
X186538095Y-147357142D01*
X186585714Y-147404761D01*
X186680952Y-147452380D01*
X186966666Y-147452380D01*
X187061904Y-147404761D01*
X187109523Y-147357142D01*
X185585714Y-146452380D02*
X186061904Y-146452380D01*
X186109523Y-146928571D01*
X186061904Y-146880952D01*
X185966666Y-146833333D01*
X185728571Y-146833333D01*
X185633333Y-146880952D01*
X185585714Y-146928571D01*
X185538095Y-147023809D01*
X185538095Y-147261904D01*
X185585714Y-147357142D01*
X185633333Y-147404761D01*
X185728571Y-147452380D01*
X185966666Y-147452380D01*
X186061904Y-147404761D01*
X186109523Y-147357142D01*
X102083333Y-113202380D02*
X102083333Y-113916666D01*
X102130952Y-114059523D01*
X102226190Y-114154761D01*
X102369047Y-114202380D01*
X102464285Y-114202380D01*
X101083333Y-114202380D02*
X101654761Y-114202380D01*
X101369047Y-114202380D02*
X101369047Y-113202380D01*
X101464285Y-113345238D01*
X101559523Y-113440476D01*
X101654761Y-113488095D01*
X179102380Y-131183333D02*
X178626190Y-130850000D01*
X179102380Y-130611904D02*
X178102380Y-130611904D01*
X178102380Y-130992857D01*
X178150000Y-131088095D01*
X178197619Y-131135714D01*
X178292857Y-131183333D01*
X178435714Y-131183333D01*
X178530952Y-131135714D01*
X178578571Y-131088095D01*
X178626190Y-130992857D01*
X178626190Y-130611904D01*
X179102380Y-131659523D02*
X179102380Y-131850000D01*
X179054761Y-131945238D01*
X179007142Y-131992857D01*
X178864285Y-132088095D01*
X178673809Y-132135714D01*
X178292857Y-132135714D01*
X178197619Y-132088095D01*
X178150000Y-132040476D01*
X178102380Y-131945238D01*
X178102380Y-131754761D01*
X178150000Y-131659523D01*
X178197619Y-131611904D01*
X178292857Y-131564285D01*
X178530952Y-131564285D01*
X178626190Y-131611904D01*
X178673809Y-131659523D01*
X178721428Y-131754761D01*
X178721428Y-131945238D01*
X178673809Y-132040476D01*
X178626190Y-132088095D01*
X178530952Y-132135714D01*
X177102380Y-130207142D02*
X176626190Y-129873809D01*
X177102380Y-129635714D02*
X176102380Y-129635714D01*
X176102380Y-130016666D01*
X176150000Y-130111904D01*
X176197619Y-130159523D01*
X176292857Y-130207142D01*
X176435714Y-130207142D01*
X176530952Y-130159523D01*
X176578571Y-130111904D01*
X176626190Y-130016666D01*
X176626190Y-129635714D01*
X177102380Y-131159523D02*
X177102380Y-130588095D01*
X177102380Y-130873809D02*
X176102380Y-130873809D01*
X176245238Y-130778571D01*
X176340476Y-130683333D01*
X176388095Y-130588095D01*
X176102380Y-131778571D02*
X176102380Y-131873809D01*
X176150000Y-131969047D01*
X176197619Y-132016666D01*
X176292857Y-132064285D01*
X176483333Y-132111904D01*
X176721428Y-132111904D01*
X176911904Y-132064285D01*
X177007142Y-132016666D01*
X177054761Y-131969047D01*
X177102380Y-131873809D01*
X177102380Y-131778571D01*
X177054761Y-131683333D01*
X177007142Y-131635714D01*
X176911904Y-131588095D01*
X176721428Y-131540476D01*
X176483333Y-131540476D01*
X176292857Y-131588095D01*
X176197619Y-131635714D01*
X176150000Y-131683333D01*
X176102380Y-131778571D01*
X175102380Y-130207142D02*
X174626190Y-129873809D01*
X175102380Y-129635714D02*
X174102380Y-129635714D01*
X174102380Y-130016666D01*
X174150000Y-130111904D01*
X174197619Y-130159523D01*
X174292857Y-130207142D01*
X174435714Y-130207142D01*
X174530952Y-130159523D01*
X174578571Y-130111904D01*
X174626190Y-130016666D01*
X174626190Y-129635714D01*
X175102380Y-131159523D02*
X175102380Y-130588095D01*
X175102380Y-130873809D02*
X174102380Y-130873809D01*
X174245238Y-130778571D01*
X174340476Y-130683333D01*
X174388095Y-130588095D01*
X175102380Y-132111904D02*
X175102380Y-131540476D01*
X175102380Y-131826190D02*
X174102380Y-131826190D01*
X174245238Y-131730952D01*
X174340476Y-131635714D01*
X174388095Y-131540476D01*
X173102380Y-130207142D02*
X172626190Y-129873809D01*
X173102380Y-129635714D02*
X172102380Y-129635714D01*
X172102380Y-130016666D01*
X172150000Y-130111904D01*
X172197619Y-130159523D01*
X172292857Y-130207142D01*
X172435714Y-130207142D01*
X172530952Y-130159523D01*
X172578571Y-130111904D01*
X172626190Y-130016666D01*
X172626190Y-129635714D01*
X173102380Y-131159523D02*
X173102380Y-130588095D01*
X173102380Y-130873809D02*
X172102380Y-130873809D01*
X172245238Y-130778571D01*
X172340476Y-130683333D01*
X172388095Y-130588095D01*
X172197619Y-131540476D02*
X172150000Y-131588095D01*
X172102380Y-131683333D01*
X172102380Y-131921428D01*
X172150000Y-132016666D01*
X172197619Y-132064285D01*
X172292857Y-132111904D01*
X172388095Y-132111904D01*
X172530952Y-132064285D01*
X173102380Y-131492857D01*
X173102380Y-132111904D01*
X171102380Y-130207142D02*
X170626190Y-129873809D01*
X171102380Y-129635714D02*
X170102380Y-129635714D01*
X170102380Y-130016666D01*
X170150000Y-130111904D01*
X170197619Y-130159523D01*
X170292857Y-130207142D01*
X170435714Y-130207142D01*
X170530952Y-130159523D01*
X170578571Y-130111904D01*
X170626190Y-130016666D01*
X170626190Y-129635714D01*
X171102380Y-131159523D02*
X171102380Y-130588095D01*
X171102380Y-130873809D02*
X170102380Y-130873809D01*
X170245238Y-130778571D01*
X170340476Y-130683333D01*
X170388095Y-130588095D01*
X170102380Y-131492857D02*
X170102380Y-132111904D01*
X170483333Y-131778571D01*
X170483333Y-131921428D01*
X170530952Y-132016666D01*
X170578571Y-132064285D01*
X170673809Y-132111904D01*
X170911904Y-132111904D01*
X171007142Y-132064285D01*
X171054761Y-132016666D01*
X171102380Y-131921428D01*
X171102380Y-131635714D01*
X171054761Y-131540476D01*
X171007142Y-131492857D01*
X169102380Y-130207142D02*
X168626190Y-129873809D01*
X169102380Y-129635714D02*
X168102380Y-129635714D01*
X168102380Y-130016666D01*
X168150000Y-130111904D01*
X168197619Y-130159523D01*
X168292857Y-130207142D01*
X168435714Y-130207142D01*
X168530952Y-130159523D01*
X168578571Y-130111904D01*
X168626190Y-130016666D01*
X168626190Y-129635714D01*
X169102380Y-131159523D02*
X169102380Y-130588095D01*
X169102380Y-130873809D02*
X168102380Y-130873809D01*
X168245238Y-130778571D01*
X168340476Y-130683333D01*
X168388095Y-130588095D01*
X168435714Y-132016666D02*
X169102380Y-132016666D01*
X168054761Y-131778571D02*
X168769047Y-131540476D01*
X168769047Y-132159523D01*
X167102380Y-130207142D02*
X166626190Y-129873809D01*
X167102380Y-129635714D02*
X166102380Y-129635714D01*
X166102380Y-130016666D01*
X166150000Y-130111904D01*
X166197619Y-130159523D01*
X166292857Y-130207142D01*
X166435714Y-130207142D01*
X166530952Y-130159523D01*
X166578571Y-130111904D01*
X166626190Y-130016666D01*
X166626190Y-129635714D01*
X167102380Y-131159523D02*
X167102380Y-130588095D01*
X167102380Y-130873809D02*
X166102380Y-130873809D01*
X166245238Y-130778571D01*
X166340476Y-130683333D01*
X166388095Y-130588095D01*
X166102380Y-132064285D02*
X166102380Y-131588095D01*
X166578571Y-131540476D01*
X166530952Y-131588095D01*
X166483333Y-131683333D01*
X166483333Y-131921428D01*
X166530952Y-132016666D01*
X166578571Y-132064285D01*
X166673809Y-132111904D01*
X166911904Y-132111904D01*
X167007142Y-132064285D01*
X167054761Y-132016666D01*
X167102380Y-131921428D01*
X167102380Y-131683333D01*
X167054761Y-131588095D01*
X167007142Y-131540476D01*
X165102380Y-130207142D02*
X164626190Y-129873809D01*
X165102380Y-129635714D02*
X164102380Y-129635714D01*
X164102380Y-130016666D01*
X164150000Y-130111904D01*
X164197619Y-130159523D01*
X164292857Y-130207142D01*
X164435714Y-130207142D01*
X164530952Y-130159523D01*
X164578571Y-130111904D01*
X164626190Y-130016666D01*
X164626190Y-129635714D01*
X165102380Y-131159523D02*
X165102380Y-130588095D01*
X165102380Y-130873809D02*
X164102380Y-130873809D01*
X164245238Y-130778571D01*
X164340476Y-130683333D01*
X164388095Y-130588095D01*
X164102380Y-132016666D02*
X164102380Y-131826190D01*
X164150000Y-131730952D01*
X164197619Y-131683333D01*
X164340476Y-131588095D01*
X164530952Y-131540476D01*
X164911904Y-131540476D01*
X165007142Y-131588095D01*
X165054761Y-131635714D01*
X165102380Y-131730952D01*
X165102380Y-131921428D01*
X165054761Y-132016666D01*
X165007142Y-132064285D01*
X164911904Y-132111904D01*
X164673809Y-132111904D01*
X164578571Y-132064285D01*
X164530952Y-132016666D01*
X164483333Y-131921428D01*
X164483333Y-131730952D01*
X164530952Y-131635714D01*
X164578571Y-131588095D01*
X164673809Y-131540476D01*
X161452380Y-54607142D02*
X160976190Y-54273809D01*
X161452380Y-54035714D02*
X160452380Y-54035714D01*
X160452380Y-54416666D01*
X160500000Y-54511904D01*
X160547619Y-54559523D01*
X160642857Y-54607142D01*
X160785714Y-54607142D01*
X160880952Y-54559523D01*
X160928571Y-54511904D01*
X160976190Y-54416666D01*
X160976190Y-54035714D01*
X161452380Y-55559523D02*
X161452380Y-54988095D01*
X161452380Y-55273809D02*
X160452380Y-55273809D01*
X160595238Y-55178571D01*
X160690476Y-55083333D01*
X160738095Y-54988095D01*
X160452380Y-55892857D02*
X160452380Y-56559523D01*
X161452380Y-56130952D01*
X163452380Y-54607142D02*
X162976190Y-54273809D01*
X163452380Y-54035714D02*
X162452380Y-54035714D01*
X162452380Y-54416666D01*
X162500000Y-54511904D01*
X162547619Y-54559523D01*
X162642857Y-54607142D01*
X162785714Y-54607142D01*
X162880952Y-54559523D01*
X162928571Y-54511904D01*
X162976190Y-54416666D01*
X162976190Y-54035714D01*
X163452380Y-55559523D02*
X163452380Y-54988095D01*
X163452380Y-55273809D02*
X162452380Y-55273809D01*
X162595238Y-55178571D01*
X162690476Y-55083333D01*
X162738095Y-54988095D01*
X162880952Y-56130952D02*
X162833333Y-56035714D01*
X162785714Y-55988095D01*
X162690476Y-55940476D01*
X162642857Y-55940476D01*
X162547619Y-55988095D01*
X162500000Y-56035714D01*
X162452380Y-56130952D01*
X162452380Y-56321428D01*
X162500000Y-56416666D01*
X162547619Y-56464285D01*
X162642857Y-56511904D01*
X162690476Y-56511904D01*
X162785714Y-56464285D01*
X162833333Y-56416666D01*
X162880952Y-56321428D01*
X162880952Y-56130952D01*
X162928571Y-56035714D01*
X162976190Y-55988095D01*
X163071428Y-55940476D01*
X163261904Y-55940476D01*
X163357142Y-55988095D01*
X163404761Y-56035714D01*
X163452380Y-56130952D01*
X163452380Y-56321428D01*
X163404761Y-56416666D01*
X163357142Y-56464285D01*
X163261904Y-56511904D01*
X163071428Y-56511904D01*
X162976190Y-56464285D01*
X162928571Y-56416666D01*
X162880952Y-56321428D01*
X165452380Y-54607142D02*
X164976190Y-54273809D01*
X165452380Y-54035714D02*
X164452380Y-54035714D01*
X164452380Y-54416666D01*
X164500000Y-54511904D01*
X164547619Y-54559523D01*
X164642857Y-54607142D01*
X164785714Y-54607142D01*
X164880952Y-54559523D01*
X164928571Y-54511904D01*
X164976190Y-54416666D01*
X164976190Y-54035714D01*
X165452380Y-55559523D02*
X165452380Y-54988095D01*
X165452380Y-55273809D02*
X164452380Y-55273809D01*
X164595238Y-55178571D01*
X164690476Y-55083333D01*
X164738095Y-54988095D01*
X165452380Y-56035714D02*
X165452380Y-56226190D01*
X165404761Y-56321428D01*
X165357142Y-56369047D01*
X165214285Y-56464285D01*
X165023809Y-56511904D01*
X164642857Y-56511904D01*
X164547619Y-56464285D01*
X164500000Y-56416666D01*
X164452380Y-56321428D01*
X164452380Y-56130952D01*
X164500000Y-56035714D01*
X164547619Y-55988095D01*
X164642857Y-55940476D01*
X164880952Y-55940476D01*
X164976190Y-55988095D01*
X165023809Y-56035714D01*
X165071428Y-56130952D01*
X165071428Y-56321428D01*
X165023809Y-56416666D01*
X164976190Y-56464285D01*
X164880952Y-56511904D01*
X167452380Y-54607142D02*
X166976190Y-54273809D01*
X167452380Y-54035714D02*
X166452380Y-54035714D01*
X166452380Y-54416666D01*
X166500000Y-54511904D01*
X166547619Y-54559523D01*
X166642857Y-54607142D01*
X166785714Y-54607142D01*
X166880952Y-54559523D01*
X166928571Y-54511904D01*
X166976190Y-54416666D01*
X166976190Y-54035714D01*
X166547619Y-54988095D02*
X166500000Y-55035714D01*
X166452380Y-55130952D01*
X166452380Y-55369047D01*
X166500000Y-55464285D01*
X166547619Y-55511904D01*
X166642857Y-55559523D01*
X166738095Y-55559523D01*
X166880952Y-55511904D01*
X167452380Y-54940476D01*
X167452380Y-55559523D01*
X166452380Y-56178571D02*
X166452380Y-56273809D01*
X166500000Y-56369047D01*
X166547619Y-56416666D01*
X166642857Y-56464285D01*
X166833333Y-56511904D01*
X167071428Y-56511904D01*
X167261904Y-56464285D01*
X167357142Y-56416666D01*
X167404761Y-56369047D01*
X167452380Y-56273809D01*
X167452380Y-56178571D01*
X167404761Y-56083333D01*
X167357142Y-56035714D01*
X167261904Y-55988095D01*
X167071428Y-55940476D01*
X166833333Y-55940476D01*
X166642857Y-55988095D01*
X166547619Y-56035714D01*
X166500000Y-56083333D01*
X166452380Y-56178571D01*
X182802380Y-95257142D02*
X182326190Y-94923809D01*
X182802380Y-94685714D02*
X181802380Y-94685714D01*
X181802380Y-95066666D01*
X181850000Y-95161904D01*
X181897619Y-95209523D01*
X181992857Y-95257142D01*
X182135714Y-95257142D01*
X182230952Y-95209523D01*
X182278571Y-95161904D01*
X182326190Y-95066666D01*
X182326190Y-94685714D01*
X181897619Y-95638095D02*
X181850000Y-95685714D01*
X181802380Y-95780952D01*
X181802380Y-96019047D01*
X181850000Y-96114285D01*
X181897619Y-96161904D01*
X181992857Y-96209523D01*
X182088095Y-96209523D01*
X182230952Y-96161904D01*
X182802380Y-95590476D01*
X182802380Y-96209523D01*
X182802380Y-96685714D02*
X182802380Y-96876190D01*
X182754761Y-96971428D01*
X182707142Y-97019047D01*
X182564285Y-97114285D01*
X182373809Y-97161904D01*
X181992857Y-97161904D01*
X181897619Y-97114285D01*
X181850000Y-97066666D01*
X181802380Y-96971428D01*
X181802380Y-96780952D01*
X181850000Y-96685714D01*
X181897619Y-96638095D01*
X181992857Y-96590476D01*
X182230952Y-96590476D01*
X182326190Y-96638095D01*
X182373809Y-96685714D01*
X182421428Y-96780952D01*
X182421428Y-96971428D01*
X182373809Y-97066666D01*
X182326190Y-97114285D01*
X182230952Y-97161904D01*
X134642857Y-61452380D02*
X134976190Y-60976190D01*
X135214285Y-61452380D02*
X135214285Y-60452380D01*
X134833333Y-60452380D01*
X134738095Y-60500000D01*
X134690476Y-60547619D01*
X134642857Y-60642857D01*
X134642857Y-60785714D01*
X134690476Y-60880952D01*
X134738095Y-60928571D01*
X134833333Y-60976190D01*
X135214285Y-60976190D01*
X134309523Y-60452380D02*
X133690476Y-60452380D01*
X134023809Y-60833333D01*
X133880952Y-60833333D01*
X133785714Y-60880952D01*
X133738095Y-60928571D01*
X133690476Y-61023809D01*
X133690476Y-61261904D01*
X133738095Y-61357142D01*
X133785714Y-61404761D01*
X133880952Y-61452380D01*
X134166666Y-61452380D01*
X134261904Y-61404761D01*
X134309523Y-61357142D01*
X133071428Y-60452380D02*
X132976190Y-60452380D01*
X132880952Y-60500000D01*
X132833333Y-60547619D01*
X132785714Y-60642857D01*
X132738095Y-60833333D01*
X132738095Y-61071428D01*
X132785714Y-61261904D01*
X132833333Y-61357142D01*
X132880952Y-61404761D01*
X132976190Y-61452380D01*
X133071428Y-61452380D01*
X133166666Y-61404761D01*
X133214285Y-61357142D01*
X133261904Y-61261904D01*
X133309523Y-61071428D01*
X133309523Y-60833333D01*
X133261904Y-60642857D01*
X133214285Y-60547619D01*
X133166666Y-60500000D01*
X133071428Y-60452380D01*
X134642857Y-63452380D02*
X134976190Y-62976190D01*
X135214285Y-63452380D02*
X135214285Y-62452380D01*
X134833333Y-62452380D01*
X134738095Y-62500000D01*
X134690476Y-62547619D01*
X134642857Y-62642857D01*
X134642857Y-62785714D01*
X134690476Y-62880952D01*
X134738095Y-62928571D01*
X134833333Y-62976190D01*
X135214285Y-62976190D01*
X134309523Y-62452380D02*
X133690476Y-62452380D01*
X134023809Y-62833333D01*
X133880952Y-62833333D01*
X133785714Y-62880952D01*
X133738095Y-62928571D01*
X133690476Y-63023809D01*
X133690476Y-63261904D01*
X133738095Y-63357142D01*
X133785714Y-63404761D01*
X133880952Y-63452380D01*
X134166666Y-63452380D01*
X134261904Y-63404761D01*
X134309523Y-63357142D01*
X132738095Y-63452380D02*
X133309523Y-63452380D01*
X133023809Y-63452380D02*
X133023809Y-62452380D01*
X133119047Y-62595238D01*
X133214285Y-62690476D01*
X133309523Y-62738095D01*
X134642857Y-65452380D02*
X134976190Y-64976190D01*
X135214285Y-65452380D02*
X135214285Y-64452380D01*
X134833333Y-64452380D01*
X134738095Y-64500000D01*
X134690476Y-64547619D01*
X134642857Y-64642857D01*
X134642857Y-64785714D01*
X134690476Y-64880952D01*
X134738095Y-64928571D01*
X134833333Y-64976190D01*
X135214285Y-64976190D01*
X134309523Y-64452380D02*
X133690476Y-64452380D01*
X134023809Y-64833333D01*
X133880952Y-64833333D01*
X133785714Y-64880952D01*
X133738095Y-64928571D01*
X133690476Y-65023809D01*
X133690476Y-65261904D01*
X133738095Y-65357142D01*
X133785714Y-65404761D01*
X133880952Y-65452380D01*
X134166666Y-65452380D01*
X134261904Y-65404761D01*
X134309523Y-65357142D01*
X133309523Y-64547619D02*
X133261904Y-64500000D01*
X133166666Y-64452380D01*
X132928571Y-64452380D01*
X132833333Y-64500000D01*
X132785714Y-64547619D01*
X132738095Y-64642857D01*
X132738095Y-64738095D01*
X132785714Y-64880952D01*
X133357142Y-65452380D01*
X132738095Y-65452380D01*
X134642857Y-67452380D02*
X134976190Y-66976190D01*
X135214285Y-67452380D02*
X135214285Y-66452380D01*
X134833333Y-66452380D01*
X134738095Y-66500000D01*
X134690476Y-66547619D01*
X134642857Y-66642857D01*
X134642857Y-66785714D01*
X134690476Y-66880952D01*
X134738095Y-66928571D01*
X134833333Y-66976190D01*
X135214285Y-66976190D01*
X134309523Y-66452380D02*
X133690476Y-66452380D01*
X134023809Y-66833333D01*
X133880952Y-66833333D01*
X133785714Y-66880952D01*
X133738095Y-66928571D01*
X133690476Y-67023809D01*
X133690476Y-67261904D01*
X133738095Y-67357142D01*
X133785714Y-67404761D01*
X133880952Y-67452380D01*
X134166666Y-67452380D01*
X134261904Y-67404761D01*
X134309523Y-67357142D01*
X133357142Y-66452380D02*
X132738095Y-66452380D01*
X133071428Y-66833333D01*
X132928571Y-66833333D01*
X132833333Y-66880952D01*
X132785714Y-66928571D01*
X132738095Y-67023809D01*
X132738095Y-67261904D01*
X132785714Y-67357142D01*
X132833333Y-67404761D01*
X132928571Y-67452380D01*
X133214285Y-67452380D01*
X133309523Y-67404761D01*
X133357142Y-67357142D01*
X134642857Y-69452380D02*
X134976190Y-68976190D01*
X135214285Y-69452380D02*
X135214285Y-68452380D01*
X134833333Y-68452380D01*
X134738095Y-68500000D01*
X134690476Y-68547619D01*
X134642857Y-68642857D01*
X134642857Y-68785714D01*
X134690476Y-68880952D01*
X134738095Y-68928571D01*
X134833333Y-68976190D01*
X135214285Y-68976190D01*
X134309523Y-68452380D02*
X133690476Y-68452380D01*
X134023809Y-68833333D01*
X133880952Y-68833333D01*
X133785714Y-68880952D01*
X133738095Y-68928571D01*
X133690476Y-69023809D01*
X133690476Y-69261904D01*
X133738095Y-69357142D01*
X133785714Y-69404761D01*
X133880952Y-69452380D01*
X134166666Y-69452380D01*
X134261904Y-69404761D01*
X134309523Y-69357142D01*
X132833333Y-68785714D02*
X132833333Y-69452380D01*
X133071428Y-68404761D02*
X133309523Y-69119047D01*
X132690476Y-69119047D01*
X134642857Y-71452380D02*
X134976190Y-70976190D01*
X135214285Y-71452380D02*
X135214285Y-70452380D01*
X134833333Y-70452380D01*
X134738095Y-70500000D01*
X134690476Y-70547619D01*
X134642857Y-70642857D01*
X134642857Y-70785714D01*
X134690476Y-70880952D01*
X134738095Y-70928571D01*
X134833333Y-70976190D01*
X135214285Y-70976190D01*
X134309523Y-70452380D02*
X133690476Y-70452380D01*
X134023809Y-70833333D01*
X133880952Y-70833333D01*
X133785714Y-70880952D01*
X133738095Y-70928571D01*
X133690476Y-71023809D01*
X133690476Y-71261904D01*
X133738095Y-71357142D01*
X133785714Y-71404761D01*
X133880952Y-71452380D01*
X134166666Y-71452380D01*
X134261904Y-71404761D01*
X134309523Y-71357142D01*
X132785714Y-70452380D02*
X133261904Y-70452380D01*
X133309523Y-70928571D01*
X133261904Y-70880952D01*
X133166666Y-70833333D01*
X132928571Y-70833333D01*
X132833333Y-70880952D01*
X132785714Y-70928571D01*
X132738095Y-71023809D01*
X132738095Y-71261904D01*
X132785714Y-71357142D01*
X132833333Y-71404761D01*
X132928571Y-71452380D01*
X133166666Y-71452380D01*
X133261904Y-71404761D01*
X133309523Y-71357142D01*
X134642857Y-73452380D02*
X134976190Y-72976190D01*
X135214285Y-73452380D02*
X135214285Y-72452380D01*
X134833333Y-72452380D01*
X134738095Y-72500000D01*
X134690476Y-72547619D01*
X134642857Y-72642857D01*
X134642857Y-72785714D01*
X134690476Y-72880952D01*
X134738095Y-72928571D01*
X134833333Y-72976190D01*
X135214285Y-72976190D01*
X134309523Y-72452380D02*
X133690476Y-72452380D01*
X134023809Y-72833333D01*
X133880952Y-72833333D01*
X133785714Y-72880952D01*
X133738095Y-72928571D01*
X133690476Y-73023809D01*
X133690476Y-73261904D01*
X133738095Y-73357142D01*
X133785714Y-73404761D01*
X133880952Y-73452380D01*
X134166666Y-73452380D01*
X134261904Y-73404761D01*
X134309523Y-73357142D01*
X132833333Y-72452380D02*
X133023809Y-72452380D01*
X133119047Y-72500000D01*
X133166666Y-72547619D01*
X133261904Y-72690476D01*
X133309523Y-72880952D01*
X133309523Y-73261904D01*
X133261904Y-73357142D01*
X133214285Y-73404761D01*
X133119047Y-73452380D01*
X132928571Y-73452380D01*
X132833333Y-73404761D01*
X132785714Y-73357142D01*
X132738095Y-73261904D01*
X132738095Y-73023809D01*
X132785714Y-72928571D01*
X132833333Y-72880952D01*
X132928571Y-72833333D01*
X133119047Y-72833333D01*
X133214285Y-72880952D01*
X133261904Y-72928571D01*
X133309523Y-73023809D01*
X134642857Y-75452380D02*
X134976190Y-74976190D01*
X135214285Y-75452380D02*
X135214285Y-74452380D01*
X134833333Y-74452380D01*
X134738095Y-74500000D01*
X134690476Y-74547619D01*
X134642857Y-74642857D01*
X134642857Y-74785714D01*
X134690476Y-74880952D01*
X134738095Y-74928571D01*
X134833333Y-74976190D01*
X135214285Y-74976190D01*
X134309523Y-74452380D02*
X133690476Y-74452380D01*
X134023809Y-74833333D01*
X133880952Y-74833333D01*
X133785714Y-74880952D01*
X133738095Y-74928571D01*
X133690476Y-75023809D01*
X133690476Y-75261904D01*
X133738095Y-75357142D01*
X133785714Y-75404761D01*
X133880952Y-75452380D01*
X134166666Y-75452380D01*
X134261904Y-75404761D01*
X134309523Y-75357142D01*
X133357142Y-74452380D02*
X132690476Y-74452380D01*
X133119047Y-75452380D01*
X134642857Y-77452380D02*
X134976190Y-76976190D01*
X135214285Y-77452380D02*
X135214285Y-76452380D01*
X134833333Y-76452380D01*
X134738095Y-76500000D01*
X134690476Y-76547619D01*
X134642857Y-76642857D01*
X134642857Y-76785714D01*
X134690476Y-76880952D01*
X134738095Y-76928571D01*
X134833333Y-76976190D01*
X135214285Y-76976190D01*
X134309523Y-76452380D02*
X133642857Y-76452380D01*
X134071428Y-77452380D01*
X133071428Y-76452380D02*
X132976190Y-76452380D01*
X132880952Y-76500000D01*
X132833333Y-76547619D01*
X132785714Y-76642857D01*
X132738095Y-76833333D01*
X132738095Y-77071428D01*
X132785714Y-77261904D01*
X132833333Y-77357142D01*
X132880952Y-77404761D01*
X132976190Y-77452380D01*
X133071428Y-77452380D01*
X133166666Y-77404761D01*
X133214285Y-77357142D01*
X133261904Y-77261904D01*
X133309523Y-77071428D01*
X133309523Y-76833333D01*
X133261904Y-76642857D01*
X133214285Y-76547619D01*
X133166666Y-76500000D01*
X133071428Y-76452380D01*
X134642857Y-79452380D02*
X134976190Y-78976190D01*
X135214285Y-79452380D02*
X135214285Y-78452380D01*
X134833333Y-78452380D01*
X134738095Y-78500000D01*
X134690476Y-78547619D01*
X134642857Y-78642857D01*
X134642857Y-78785714D01*
X134690476Y-78880952D01*
X134738095Y-78928571D01*
X134833333Y-78976190D01*
X135214285Y-78976190D01*
X134309523Y-78452380D02*
X133642857Y-78452380D01*
X134071428Y-79452380D01*
X132738095Y-79452380D02*
X133309523Y-79452380D01*
X133023809Y-79452380D02*
X133023809Y-78452380D01*
X133119047Y-78595238D01*
X133214285Y-78690476D01*
X133309523Y-78738095D01*
X134642857Y-81452380D02*
X134976190Y-80976190D01*
X135214285Y-81452380D02*
X135214285Y-80452380D01*
X134833333Y-80452380D01*
X134738095Y-80500000D01*
X134690476Y-80547619D01*
X134642857Y-80642857D01*
X134642857Y-80785714D01*
X134690476Y-80880952D01*
X134738095Y-80928571D01*
X134833333Y-80976190D01*
X135214285Y-80976190D01*
X134309523Y-80452380D02*
X133642857Y-80452380D01*
X134071428Y-81452380D01*
X133309523Y-80547619D02*
X133261904Y-80500000D01*
X133166666Y-80452380D01*
X132928571Y-80452380D01*
X132833333Y-80500000D01*
X132785714Y-80547619D01*
X132738095Y-80642857D01*
X132738095Y-80738095D01*
X132785714Y-80880952D01*
X133357142Y-81452380D01*
X132738095Y-81452380D01*
X134642857Y-83452380D02*
X134976190Y-82976190D01*
X135214285Y-83452380D02*
X135214285Y-82452380D01*
X134833333Y-82452380D01*
X134738095Y-82500000D01*
X134690476Y-82547619D01*
X134642857Y-82642857D01*
X134642857Y-82785714D01*
X134690476Y-82880952D01*
X134738095Y-82928571D01*
X134833333Y-82976190D01*
X135214285Y-82976190D01*
X134309523Y-82452380D02*
X133642857Y-82452380D01*
X134071428Y-83452380D01*
X133357142Y-82452380D02*
X132738095Y-82452380D01*
X133071428Y-82833333D01*
X132928571Y-82833333D01*
X132833333Y-82880952D01*
X132785714Y-82928571D01*
X132738095Y-83023809D01*
X132738095Y-83261904D01*
X132785714Y-83357142D01*
X132833333Y-83404761D01*
X132928571Y-83452380D01*
X133214285Y-83452380D01*
X133309523Y-83404761D01*
X133357142Y-83357142D01*
X134892857Y-85452380D02*
X135226190Y-84976190D01*
X135464285Y-85452380D02*
X135464285Y-84452380D01*
X135083333Y-84452380D01*
X134988095Y-84500000D01*
X134940476Y-84547619D01*
X134892857Y-84642857D01*
X134892857Y-84785714D01*
X134940476Y-84880952D01*
X134988095Y-84928571D01*
X135083333Y-84976190D01*
X135464285Y-84976190D01*
X134559523Y-84452380D02*
X133892857Y-84452380D01*
X134321428Y-85452380D01*
X133083333Y-84785714D02*
X133083333Y-85452380D01*
X133321428Y-84404761D02*
X133559523Y-85119047D01*
X132940476Y-85119047D01*
X134892857Y-87452380D02*
X135226190Y-86976190D01*
X135464285Y-87452380D02*
X135464285Y-86452380D01*
X135083333Y-86452380D01*
X134988095Y-86500000D01*
X134940476Y-86547619D01*
X134892857Y-86642857D01*
X134892857Y-86785714D01*
X134940476Y-86880952D01*
X134988095Y-86928571D01*
X135083333Y-86976190D01*
X135464285Y-86976190D01*
X134559523Y-86452380D02*
X133892857Y-86452380D01*
X134321428Y-87452380D01*
X133035714Y-86452380D02*
X133511904Y-86452380D01*
X133559523Y-86928571D01*
X133511904Y-86880952D01*
X133416666Y-86833333D01*
X133178571Y-86833333D01*
X133083333Y-86880952D01*
X133035714Y-86928571D01*
X132988095Y-87023809D01*
X132988095Y-87261904D01*
X133035714Y-87357142D01*
X133083333Y-87404761D01*
X133178571Y-87452380D01*
X133416666Y-87452380D01*
X133511904Y-87404761D01*
X133559523Y-87357142D01*
X134892857Y-89452380D02*
X135226190Y-88976190D01*
X135464285Y-89452380D02*
X135464285Y-88452380D01*
X135083333Y-88452380D01*
X134988095Y-88500000D01*
X134940476Y-88547619D01*
X134892857Y-88642857D01*
X134892857Y-88785714D01*
X134940476Y-88880952D01*
X134988095Y-88928571D01*
X135083333Y-88976190D01*
X135464285Y-88976190D01*
X134559523Y-88452380D02*
X133892857Y-88452380D01*
X134321428Y-89452380D01*
X133083333Y-88452380D02*
X133273809Y-88452380D01*
X133369047Y-88500000D01*
X133416666Y-88547619D01*
X133511904Y-88690476D01*
X133559523Y-88880952D01*
X133559523Y-89261904D01*
X133511904Y-89357142D01*
X133464285Y-89404761D01*
X133369047Y-89452380D01*
X133178571Y-89452380D01*
X133083333Y-89404761D01*
X133035714Y-89357142D01*
X132988095Y-89261904D01*
X132988095Y-89023809D01*
X133035714Y-88928571D01*
X133083333Y-88880952D01*
X133178571Y-88833333D01*
X133369047Y-88833333D01*
X133464285Y-88880952D01*
X133511904Y-88928571D01*
X133559523Y-89023809D01*
X134892857Y-91452380D02*
X135226190Y-90976190D01*
X135464285Y-91452380D02*
X135464285Y-90452380D01*
X135083333Y-90452380D01*
X134988095Y-90500000D01*
X134940476Y-90547619D01*
X134892857Y-90642857D01*
X134892857Y-90785714D01*
X134940476Y-90880952D01*
X134988095Y-90928571D01*
X135083333Y-90976190D01*
X135464285Y-90976190D01*
X134559523Y-90452380D02*
X133892857Y-90452380D01*
X134321428Y-91452380D01*
X133607142Y-90452380D02*
X132940476Y-90452380D01*
X133369047Y-91452380D01*
X134892857Y-102352380D02*
X135226190Y-101876190D01*
X135464285Y-102352380D02*
X135464285Y-101352380D01*
X135083333Y-101352380D01*
X134988095Y-101400000D01*
X134940476Y-101447619D01*
X134892857Y-101542857D01*
X134892857Y-101685714D01*
X134940476Y-101780952D01*
X134988095Y-101828571D01*
X135083333Y-101876190D01*
X135464285Y-101876190D01*
X134559523Y-101352380D02*
X133892857Y-101352380D01*
X134321428Y-102352380D01*
X133369047Y-101780952D02*
X133464285Y-101733333D01*
X133511904Y-101685714D01*
X133559523Y-101590476D01*
X133559523Y-101542857D01*
X133511904Y-101447619D01*
X133464285Y-101400000D01*
X133369047Y-101352380D01*
X133178571Y-101352380D01*
X133083333Y-101400000D01*
X133035714Y-101447619D01*
X132988095Y-101542857D01*
X132988095Y-101590476D01*
X133035714Y-101685714D01*
X133083333Y-101733333D01*
X133178571Y-101780952D01*
X133369047Y-101780952D01*
X133464285Y-101828571D01*
X133511904Y-101876190D01*
X133559523Y-101971428D01*
X133559523Y-102161904D01*
X133511904Y-102257142D01*
X133464285Y-102304761D01*
X133369047Y-102352380D01*
X133178571Y-102352380D01*
X133083333Y-102304761D01*
X133035714Y-102257142D01*
X132988095Y-102161904D01*
X132988095Y-101971428D01*
X133035714Y-101876190D01*
X133083333Y-101828571D01*
X133178571Y-101780952D01*
X134892857Y-104352380D02*
X135226190Y-103876190D01*
X135464285Y-104352380D02*
X135464285Y-103352380D01*
X135083333Y-103352380D01*
X134988095Y-103400000D01*
X134940476Y-103447619D01*
X134892857Y-103542857D01*
X134892857Y-103685714D01*
X134940476Y-103780952D01*
X134988095Y-103828571D01*
X135083333Y-103876190D01*
X135464285Y-103876190D01*
X134559523Y-103352380D02*
X133892857Y-103352380D01*
X134321428Y-104352380D01*
X133464285Y-104352380D02*
X133273809Y-104352380D01*
X133178571Y-104304761D01*
X133130952Y-104257142D01*
X133035714Y-104114285D01*
X132988095Y-103923809D01*
X132988095Y-103542857D01*
X133035714Y-103447619D01*
X133083333Y-103400000D01*
X133178571Y-103352380D01*
X133369047Y-103352380D01*
X133464285Y-103400000D01*
X133511904Y-103447619D01*
X133559523Y-103542857D01*
X133559523Y-103780952D01*
X133511904Y-103876190D01*
X133464285Y-103923809D01*
X133369047Y-103971428D01*
X133178571Y-103971428D01*
X133083333Y-103923809D01*
X133035714Y-103876190D01*
X132988095Y-103780952D01*
X134892857Y-106352380D02*
X135226190Y-105876190D01*
X135464285Y-106352380D02*
X135464285Y-105352380D01*
X135083333Y-105352380D01*
X134988095Y-105400000D01*
X134940476Y-105447619D01*
X134892857Y-105542857D01*
X134892857Y-105685714D01*
X134940476Y-105780952D01*
X134988095Y-105828571D01*
X135083333Y-105876190D01*
X135464285Y-105876190D01*
X134321428Y-105780952D02*
X134416666Y-105733333D01*
X134464285Y-105685714D01*
X134511904Y-105590476D01*
X134511904Y-105542857D01*
X134464285Y-105447619D01*
X134416666Y-105400000D01*
X134321428Y-105352380D01*
X134130952Y-105352380D01*
X134035714Y-105400000D01*
X133988095Y-105447619D01*
X133940476Y-105542857D01*
X133940476Y-105590476D01*
X133988095Y-105685714D01*
X134035714Y-105733333D01*
X134130952Y-105780952D01*
X134321428Y-105780952D01*
X134416666Y-105828571D01*
X134464285Y-105876190D01*
X134511904Y-105971428D01*
X134511904Y-106161904D01*
X134464285Y-106257142D01*
X134416666Y-106304761D01*
X134321428Y-106352380D01*
X134130952Y-106352380D01*
X134035714Y-106304761D01*
X133988095Y-106257142D01*
X133940476Y-106161904D01*
X133940476Y-105971428D01*
X133988095Y-105876190D01*
X134035714Y-105828571D01*
X134130952Y-105780952D01*
X133321428Y-105352380D02*
X133226190Y-105352380D01*
X133130952Y-105400000D01*
X133083333Y-105447619D01*
X133035714Y-105542857D01*
X132988095Y-105733333D01*
X132988095Y-105971428D01*
X133035714Y-106161904D01*
X133083333Y-106257142D01*
X133130952Y-106304761D01*
X133226190Y-106352380D01*
X133321428Y-106352380D01*
X133416666Y-106304761D01*
X133464285Y-106257142D01*
X133511904Y-106161904D01*
X133559523Y-105971428D01*
X133559523Y-105733333D01*
X133511904Y-105542857D01*
X133464285Y-105447619D01*
X133416666Y-105400000D01*
X133321428Y-105352380D01*
X134892857Y-108352380D02*
X135226190Y-107876190D01*
X135464285Y-108352380D02*
X135464285Y-107352380D01*
X135083333Y-107352380D01*
X134988095Y-107400000D01*
X134940476Y-107447619D01*
X134892857Y-107542857D01*
X134892857Y-107685714D01*
X134940476Y-107780952D01*
X134988095Y-107828571D01*
X135083333Y-107876190D01*
X135464285Y-107876190D01*
X134321428Y-107780952D02*
X134416666Y-107733333D01*
X134464285Y-107685714D01*
X134511904Y-107590476D01*
X134511904Y-107542857D01*
X134464285Y-107447619D01*
X134416666Y-107400000D01*
X134321428Y-107352380D01*
X134130952Y-107352380D01*
X134035714Y-107400000D01*
X133988095Y-107447619D01*
X133940476Y-107542857D01*
X133940476Y-107590476D01*
X133988095Y-107685714D01*
X134035714Y-107733333D01*
X134130952Y-107780952D01*
X134321428Y-107780952D01*
X134416666Y-107828571D01*
X134464285Y-107876190D01*
X134511904Y-107971428D01*
X134511904Y-108161904D01*
X134464285Y-108257142D01*
X134416666Y-108304761D01*
X134321428Y-108352380D01*
X134130952Y-108352380D01*
X134035714Y-108304761D01*
X133988095Y-108257142D01*
X133940476Y-108161904D01*
X133940476Y-107971428D01*
X133988095Y-107876190D01*
X134035714Y-107828571D01*
X134130952Y-107780952D01*
X132988095Y-108352380D02*
X133559523Y-108352380D01*
X133273809Y-108352380D02*
X133273809Y-107352380D01*
X133369047Y-107495238D01*
X133464285Y-107590476D01*
X133559523Y-107638095D01*
X134892857Y-110352380D02*
X135226190Y-109876190D01*
X135464285Y-110352380D02*
X135464285Y-109352380D01*
X135083333Y-109352380D01*
X134988095Y-109400000D01*
X134940476Y-109447619D01*
X134892857Y-109542857D01*
X134892857Y-109685714D01*
X134940476Y-109780952D01*
X134988095Y-109828571D01*
X135083333Y-109876190D01*
X135464285Y-109876190D01*
X134321428Y-109780952D02*
X134416666Y-109733333D01*
X134464285Y-109685714D01*
X134511904Y-109590476D01*
X134511904Y-109542857D01*
X134464285Y-109447619D01*
X134416666Y-109400000D01*
X134321428Y-109352380D01*
X134130952Y-109352380D01*
X134035714Y-109400000D01*
X133988095Y-109447619D01*
X133940476Y-109542857D01*
X133940476Y-109590476D01*
X133988095Y-109685714D01*
X134035714Y-109733333D01*
X134130952Y-109780952D01*
X134321428Y-109780952D01*
X134416666Y-109828571D01*
X134464285Y-109876190D01*
X134511904Y-109971428D01*
X134511904Y-110161904D01*
X134464285Y-110257142D01*
X134416666Y-110304761D01*
X134321428Y-110352380D01*
X134130952Y-110352380D01*
X134035714Y-110304761D01*
X133988095Y-110257142D01*
X133940476Y-110161904D01*
X133940476Y-109971428D01*
X133988095Y-109876190D01*
X134035714Y-109828571D01*
X134130952Y-109780952D01*
X133559523Y-109447619D02*
X133511904Y-109400000D01*
X133416666Y-109352380D01*
X133178571Y-109352380D01*
X133083333Y-109400000D01*
X133035714Y-109447619D01*
X132988095Y-109542857D01*
X132988095Y-109638095D01*
X133035714Y-109780952D01*
X133607142Y-110352380D01*
X132988095Y-110352380D01*
X134892857Y-112352380D02*
X135226190Y-111876190D01*
X135464285Y-112352380D02*
X135464285Y-111352380D01*
X135083333Y-111352380D01*
X134988095Y-111400000D01*
X134940476Y-111447619D01*
X134892857Y-111542857D01*
X134892857Y-111685714D01*
X134940476Y-111780952D01*
X134988095Y-111828571D01*
X135083333Y-111876190D01*
X135464285Y-111876190D01*
X134321428Y-111780952D02*
X134416666Y-111733333D01*
X134464285Y-111685714D01*
X134511904Y-111590476D01*
X134511904Y-111542857D01*
X134464285Y-111447619D01*
X134416666Y-111400000D01*
X134321428Y-111352380D01*
X134130952Y-111352380D01*
X134035714Y-111400000D01*
X133988095Y-111447619D01*
X133940476Y-111542857D01*
X133940476Y-111590476D01*
X133988095Y-111685714D01*
X134035714Y-111733333D01*
X134130952Y-111780952D01*
X134321428Y-111780952D01*
X134416666Y-111828571D01*
X134464285Y-111876190D01*
X134511904Y-111971428D01*
X134511904Y-112161904D01*
X134464285Y-112257142D01*
X134416666Y-112304761D01*
X134321428Y-112352380D01*
X134130952Y-112352380D01*
X134035714Y-112304761D01*
X133988095Y-112257142D01*
X133940476Y-112161904D01*
X133940476Y-111971428D01*
X133988095Y-111876190D01*
X134035714Y-111828571D01*
X134130952Y-111780952D01*
X133607142Y-111352380D02*
X132988095Y-111352380D01*
X133321428Y-111733333D01*
X133178571Y-111733333D01*
X133083333Y-111780952D01*
X133035714Y-111828571D01*
X132988095Y-111923809D01*
X132988095Y-112161904D01*
X133035714Y-112257142D01*
X133083333Y-112304761D01*
X133178571Y-112352380D01*
X133464285Y-112352380D01*
X133559523Y-112304761D01*
X133607142Y-112257142D01*
X134892857Y-114352380D02*
X135226190Y-113876190D01*
X135464285Y-114352380D02*
X135464285Y-113352380D01*
X135083333Y-113352380D01*
X134988095Y-113400000D01*
X134940476Y-113447619D01*
X134892857Y-113542857D01*
X134892857Y-113685714D01*
X134940476Y-113780952D01*
X134988095Y-113828571D01*
X135083333Y-113876190D01*
X135464285Y-113876190D01*
X134321428Y-113780952D02*
X134416666Y-113733333D01*
X134464285Y-113685714D01*
X134511904Y-113590476D01*
X134511904Y-113542857D01*
X134464285Y-113447619D01*
X134416666Y-113400000D01*
X134321428Y-113352380D01*
X134130952Y-113352380D01*
X134035714Y-113400000D01*
X133988095Y-113447619D01*
X133940476Y-113542857D01*
X133940476Y-113590476D01*
X133988095Y-113685714D01*
X134035714Y-113733333D01*
X134130952Y-113780952D01*
X134321428Y-113780952D01*
X134416666Y-113828571D01*
X134464285Y-113876190D01*
X134511904Y-113971428D01*
X134511904Y-114161904D01*
X134464285Y-114257142D01*
X134416666Y-114304761D01*
X134321428Y-114352380D01*
X134130952Y-114352380D01*
X134035714Y-114304761D01*
X133988095Y-114257142D01*
X133940476Y-114161904D01*
X133940476Y-113971428D01*
X133988095Y-113876190D01*
X134035714Y-113828571D01*
X134130952Y-113780952D01*
X133083333Y-113685714D02*
X133083333Y-114352380D01*
X133321428Y-113304761D02*
X133559523Y-114019047D01*
X132940476Y-114019047D01*
X134892857Y-116352380D02*
X135226190Y-115876190D01*
X135464285Y-116352380D02*
X135464285Y-115352380D01*
X135083333Y-115352380D01*
X134988095Y-115400000D01*
X134940476Y-115447619D01*
X134892857Y-115542857D01*
X134892857Y-115685714D01*
X134940476Y-115780952D01*
X134988095Y-115828571D01*
X135083333Y-115876190D01*
X135464285Y-115876190D01*
X134321428Y-115780952D02*
X134416666Y-115733333D01*
X134464285Y-115685714D01*
X134511904Y-115590476D01*
X134511904Y-115542857D01*
X134464285Y-115447619D01*
X134416666Y-115400000D01*
X134321428Y-115352380D01*
X134130952Y-115352380D01*
X134035714Y-115400000D01*
X133988095Y-115447619D01*
X133940476Y-115542857D01*
X133940476Y-115590476D01*
X133988095Y-115685714D01*
X134035714Y-115733333D01*
X134130952Y-115780952D01*
X134321428Y-115780952D01*
X134416666Y-115828571D01*
X134464285Y-115876190D01*
X134511904Y-115971428D01*
X134511904Y-116161904D01*
X134464285Y-116257142D01*
X134416666Y-116304761D01*
X134321428Y-116352380D01*
X134130952Y-116352380D01*
X134035714Y-116304761D01*
X133988095Y-116257142D01*
X133940476Y-116161904D01*
X133940476Y-115971428D01*
X133988095Y-115876190D01*
X134035714Y-115828571D01*
X134130952Y-115780952D01*
X133035714Y-115352380D02*
X133511904Y-115352380D01*
X133559523Y-115828571D01*
X133511904Y-115780952D01*
X133416666Y-115733333D01*
X133178571Y-115733333D01*
X133083333Y-115780952D01*
X133035714Y-115828571D01*
X132988095Y-115923809D01*
X132988095Y-116161904D01*
X133035714Y-116257142D01*
X133083333Y-116304761D01*
X133178571Y-116352380D01*
X133416666Y-116352380D01*
X133511904Y-116304761D01*
X133559523Y-116257142D01*
X134869047Y-118352380D02*
X135202380Y-117876190D01*
X135440476Y-118352380D02*
X135440476Y-117352380D01*
X135059523Y-117352380D01*
X134964285Y-117400000D01*
X134916666Y-117447619D01*
X134869047Y-117542857D01*
X134869047Y-117685714D01*
X134916666Y-117780952D01*
X134964285Y-117828571D01*
X135059523Y-117876190D01*
X135440476Y-117876190D01*
X133916666Y-118352380D02*
X134488095Y-118352380D01*
X134202380Y-118352380D02*
X134202380Y-117352380D01*
X134297619Y-117495238D01*
X134392857Y-117590476D01*
X134488095Y-117638095D01*
X132964285Y-118352380D02*
X133535714Y-118352380D01*
X133250000Y-118352380D02*
X133250000Y-117352380D01*
X133345238Y-117495238D01*
X133440476Y-117590476D01*
X133535714Y-117638095D01*
X132392857Y-117780952D02*
X132488095Y-117733333D01*
X132535714Y-117685714D01*
X132583333Y-117590476D01*
X132583333Y-117542857D01*
X132535714Y-117447619D01*
X132488095Y-117400000D01*
X132392857Y-117352380D01*
X132202380Y-117352380D01*
X132107142Y-117400000D01*
X132059523Y-117447619D01*
X132011904Y-117542857D01*
X132011904Y-117590476D01*
X132059523Y-117685714D01*
X132107142Y-117733333D01*
X132202380Y-117780952D01*
X132392857Y-117780952D01*
X132488095Y-117828571D01*
X132535714Y-117876190D01*
X132583333Y-117971428D01*
X132583333Y-118161904D01*
X132535714Y-118257142D01*
X132488095Y-118304761D01*
X132392857Y-118352380D01*
X132202380Y-118352380D01*
X132107142Y-118304761D01*
X132059523Y-118257142D01*
X132011904Y-118161904D01*
X132011904Y-117971428D01*
X132059523Y-117876190D01*
X132107142Y-117828571D01*
X132202380Y-117780952D01*
X134869047Y-120352380D02*
X135202380Y-119876190D01*
X135440476Y-120352380D02*
X135440476Y-119352380D01*
X135059523Y-119352380D01*
X134964285Y-119400000D01*
X134916666Y-119447619D01*
X134869047Y-119542857D01*
X134869047Y-119685714D01*
X134916666Y-119780952D01*
X134964285Y-119828571D01*
X135059523Y-119876190D01*
X135440476Y-119876190D01*
X133916666Y-120352380D02*
X134488095Y-120352380D01*
X134202380Y-120352380D02*
X134202380Y-119352380D01*
X134297619Y-119495238D01*
X134392857Y-119590476D01*
X134488095Y-119638095D01*
X132964285Y-120352380D02*
X133535714Y-120352380D01*
X133250000Y-120352380D02*
X133250000Y-119352380D01*
X133345238Y-119495238D01*
X133440476Y-119590476D01*
X133535714Y-119638095D01*
X132488095Y-120352380D02*
X132297619Y-120352380D01*
X132202380Y-120304761D01*
X132154761Y-120257142D01*
X132059523Y-120114285D01*
X132011904Y-119923809D01*
X132011904Y-119542857D01*
X132059523Y-119447619D01*
X132107142Y-119400000D01*
X132202380Y-119352380D01*
X132392857Y-119352380D01*
X132488095Y-119400000D01*
X132535714Y-119447619D01*
X132583333Y-119542857D01*
X132583333Y-119780952D01*
X132535714Y-119876190D01*
X132488095Y-119923809D01*
X132392857Y-119971428D01*
X132202380Y-119971428D01*
X132107142Y-119923809D01*
X132059523Y-119876190D01*
X132011904Y-119780952D01*
X134869047Y-122352380D02*
X135202380Y-121876190D01*
X135440476Y-122352380D02*
X135440476Y-121352380D01*
X135059523Y-121352380D01*
X134964285Y-121400000D01*
X134916666Y-121447619D01*
X134869047Y-121542857D01*
X134869047Y-121685714D01*
X134916666Y-121780952D01*
X134964285Y-121828571D01*
X135059523Y-121876190D01*
X135440476Y-121876190D01*
X133916666Y-122352380D02*
X134488095Y-122352380D01*
X134202380Y-122352380D02*
X134202380Y-121352380D01*
X134297619Y-121495238D01*
X134392857Y-121590476D01*
X134488095Y-121638095D01*
X133535714Y-121447619D02*
X133488095Y-121400000D01*
X133392857Y-121352380D01*
X133154761Y-121352380D01*
X133059523Y-121400000D01*
X133011904Y-121447619D01*
X132964285Y-121542857D01*
X132964285Y-121638095D01*
X133011904Y-121780952D01*
X133583333Y-122352380D01*
X132964285Y-122352380D01*
X132345238Y-121352380D02*
X132250000Y-121352380D01*
X132154761Y-121400000D01*
X132107142Y-121447619D01*
X132059523Y-121542857D01*
X132011904Y-121733333D01*
X132011904Y-121971428D01*
X132059523Y-122161904D01*
X132107142Y-122257142D01*
X132154761Y-122304761D01*
X132250000Y-122352380D01*
X132345238Y-122352380D01*
X132440476Y-122304761D01*
X132488095Y-122257142D01*
X132535714Y-122161904D01*
X132583333Y-121971428D01*
X132583333Y-121733333D01*
X132535714Y-121542857D01*
X132488095Y-121447619D01*
X132440476Y-121400000D01*
X132345238Y-121352380D01*
X134869047Y-124352380D02*
X135202380Y-123876190D01*
X135440476Y-124352380D02*
X135440476Y-123352380D01*
X135059523Y-123352380D01*
X134964285Y-123400000D01*
X134916666Y-123447619D01*
X134869047Y-123542857D01*
X134869047Y-123685714D01*
X134916666Y-123780952D01*
X134964285Y-123828571D01*
X135059523Y-123876190D01*
X135440476Y-123876190D01*
X133916666Y-124352380D02*
X134488095Y-124352380D01*
X134202380Y-124352380D02*
X134202380Y-123352380D01*
X134297619Y-123495238D01*
X134392857Y-123590476D01*
X134488095Y-123638095D01*
X133535714Y-123447619D02*
X133488095Y-123400000D01*
X133392857Y-123352380D01*
X133154761Y-123352380D01*
X133059523Y-123400000D01*
X133011904Y-123447619D01*
X132964285Y-123542857D01*
X132964285Y-123638095D01*
X133011904Y-123780952D01*
X133583333Y-124352380D01*
X132964285Y-124352380D01*
X132011904Y-124352380D02*
X132583333Y-124352380D01*
X132297619Y-124352380D02*
X132297619Y-123352380D01*
X132392857Y-123495238D01*
X132488095Y-123590476D01*
X132583333Y-123638095D01*
X134869047Y-126352380D02*
X135202380Y-125876190D01*
X135440476Y-126352380D02*
X135440476Y-125352380D01*
X135059523Y-125352380D01*
X134964285Y-125400000D01*
X134916666Y-125447619D01*
X134869047Y-125542857D01*
X134869047Y-125685714D01*
X134916666Y-125780952D01*
X134964285Y-125828571D01*
X135059523Y-125876190D01*
X135440476Y-125876190D01*
X133916666Y-126352380D02*
X134488095Y-126352380D01*
X134202380Y-126352380D02*
X134202380Y-125352380D01*
X134297619Y-125495238D01*
X134392857Y-125590476D01*
X134488095Y-125638095D01*
X133535714Y-125447619D02*
X133488095Y-125400000D01*
X133392857Y-125352380D01*
X133154761Y-125352380D01*
X133059523Y-125400000D01*
X133011904Y-125447619D01*
X132964285Y-125542857D01*
X132964285Y-125638095D01*
X133011904Y-125780952D01*
X133583333Y-126352380D01*
X132964285Y-126352380D01*
X132583333Y-125447619D02*
X132535714Y-125400000D01*
X132440476Y-125352380D01*
X132202380Y-125352380D01*
X132107142Y-125400000D01*
X132059523Y-125447619D01*
X132011904Y-125542857D01*
X132011904Y-125638095D01*
X132059523Y-125780952D01*
X132630952Y-126352380D01*
X132011904Y-126352380D01*
X134869047Y-128352380D02*
X135202380Y-127876190D01*
X135440476Y-128352380D02*
X135440476Y-127352380D01*
X135059523Y-127352380D01*
X134964285Y-127400000D01*
X134916666Y-127447619D01*
X134869047Y-127542857D01*
X134869047Y-127685714D01*
X134916666Y-127780952D01*
X134964285Y-127828571D01*
X135059523Y-127876190D01*
X135440476Y-127876190D01*
X133916666Y-128352380D02*
X134488095Y-128352380D01*
X134202380Y-128352380D02*
X134202380Y-127352380D01*
X134297619Y-127495238D01*
X134392857Y-127590476D01*
X134488095Y-127638095D01*
X133535714Y-127447619D02*
X133488095Y-127400000D01*
X133392857Y-127352380D01*
X133154761Y-127352380D01*
X133059523Y-127400000D01*
X133011904Y-127447619D01*
X132964285Y-127542857D01*
X132964285Y-127638095D01*
X133011904Y-127780952D01*
X133583333Y-128352380D01*
X132964285Y-128352380D01*
X132630952Y-127352380D02*
X132011904Y-127352380D01*
X132345238Y-127733333D01*
X132202380Y-127733333D01*
X132107142Y-127780952D01*
X132059523Y-127828571D01*
X132011904Y-127923809D01*
X132011904Y-128161904D01*
X132059523Y-128257142D01*
X132107142Y-128304761D01*
X132202380Y-128352380D01*
X132488095Y-128352380D01*
X132583333Y-128304761D01*
X132630952Y-128257142D01*
X134869047Y-130352380D02*
X135202380Y-129876190D01*
X135440476Y-130352380D02*
X135440476Y-129352380D01*
X135059523Y-129352380D01*
X134964285Y-129400000D01*
X134916666Y-129447619D01*
X134869047Y-129542857D01*
X134869047Y-129685714D01*
X134916666Y-129780952D01*
X134964285Y-129828571D01*
X135059523Y-129876190D01*
X135440476Y-129876190D01*
X133916666Y-130352380D02*
X134488095Y-130352380D01*
X134202380Y-130352380D02*
X134202380Y-129352380D01*
X134297619Y-129495238D01*
X134392857Y-129590476D01*
X134488095Y-129638095D01*
X133535714Y-129447619D02*
X133488095Y-129400000D01*
X133392857Y-129352380D01*
X133154761Y-129352380D01*
X133059523Y-129400000D01*
X133011904Y-129447619D01*
X132964285Y-129542857D01*
X132964285Y-129638095D01*
X133011904Y-129780952D01*
X133583333Y-130352380D01*
X132964285Y-130352380D01*
X132107142Y-129685714D02*
X132107142Y-130352380D01*
X132345238Y-129304761D02*
X132583333Y-130019047D01*
X131964285Y-130019047D01*
X134869047Y-132352380D02*
X135202380Y-131876190D01*
X135440476Y-132352380D02*
X135440476Y-131352380D01*
X135059523Y-131352380D01*
X134964285Y-131400000D01*
X134916666Y-131447619D01*
X134869047Y-131542857D01*
X134869047Y-131685714D01*
X134916666Y-131780952D01*
X134964285Y-131828571D01*
X135059523Y-131876190D01*
X135440476Y-131876190D01*
X133916666Y-132352380D02*
X134488095Y-132352380D01*
X134202380Y-132352380D02*
X134202380Y-131352380D01*
X134297619Y-131495238D01*
X134392857Y-131590476D01*
X134488095Y-131638095D01*
X133535714Y-131447619D02*
X133488095Y-131400000D01*
X133392857Y-131352380D01*
X133154761Y-131352380D01*
X133059523Y-131400000D01*
X133011904Y-131447619D01*
X132964285Y-131542857D01*
X132964285Y-131638095D01*
X133011904Y-131780952D01*
X133583333Y-132352380D01*
X132964285Y-132352380D01*
X132059523Y-131352380D02*
X132535714Y-131352380D01*
X132583333Y-131828571D01*
X132535714Y-131780952D01*
X132440476Y-131733333D01*
X132202380Y-131733333D01*
X132107142Y-131780952D01*
X132059523Y-131828571D01*
X132011904Y-131923809D01*
X132011904Y-132161904D01*
X132059523Y-132257142D01*
X132107142Y-132304761D01*
X132202380Y-132352380D01*
X132440476Y-132352380D01*
X132535714Y-132304761D01*
X132583333Y-132257142D01*
X123452380Y-134130952D02*
X122976190Y-133797619D01*
X123452380Y-133559523D02*
X122452380Y-133559523D01*
X122452380Y-133940476D01*
X122500000Y-134035714D01*
X122547619Y-134083333D01*
X122642857Y-134130952D01*
X122785714Y-134130952D01*
X122880952Y-134083333D01*
X122928571Y-134035714D01*
X122976190Y-133940476D01*
X122976190Y-133559523D01*
X123452380Y-135083333D02*
X123452380Y-134511904D01*
X123452380Y-134797619D02*
X122452380Y-134797619D01*
X122595238Y-134702380D01*
X122690476Y-134607142D01*
X122738095Y-134511904D01*
X122547619Y-135464285D02*
X122500000Y-135511904D01*
X122452380Y-135607142D01*
X122452380Y-135845238D01*
X122500000Y-135940476D01*
X122547619Y-135988095D01*
X122642857Y-136035714D01*
X122738095Y-136035714D01*
X122880952Y-135988095D01*
X123452380Y-135416666D01*
X123452380Y-136035714D01*
X122452380Y-136892857D02*
X122452380Y-136702380D01*
X122500000Y-136607142D01*
X122547619Y-136559523D01*
X122690476Y-136464285D01*
X122880952Y-136416666D01*
X123261904Y-136416666D01*
X123357142Y-136464285D01*
X123404761Y-136511904D01*
X123452380Y-136607142D01*
X123452380Y-136797619D01*
X123404761Y-136892857D01*
X123357142Y-136940476D01*
X123261904Y-136988095D01*
X123023809Y-136988095D01*
X122928571Y-136940476D01*
X122880952Y-136892857D01*
X122833333Y-136797619D01*
X122833333Y-136607142D01*
X122880952Y-136511904D01*
X122928571Y-136464285D01*
X123023809Y-136416666D01*
X121452380Y-134130952D02*
X120976190Y-133797619D01*
X121452380Y-133559523D02*
X120452380Y-133559523D01*
X120452380Y-133940476D01*
X120500000Y-134035714D01*
X120547619Y-134083333D01*
X120642857Y-134130952D01*
X120785714Y-134130952D01*
X120880952Y-134083333D01*
X120928571Y-134035714D01*
X120976190Y-133940476D01*
X120976190Y-133559523D01*
X121452380Y-135083333D02*
X121452380Y-134511904D01*
X121452380Y-134797619D02*
X120452380Y-134797619D01*
X120595238Y-134702380D01*
X120690476Y-134607142D01*
X120738095Y-134511904D01*
X120547619Y-135464285D02*
X120500000Y-135511904D01*
X120452380Y-135607142D01*
X120452380Y-135845238D01*
X120500000Y-135940476D01*
X120547619Y-135988095D01*
X120642857Y-136035714D01*
X120738095Y-136035714D01*
X120880952Y-135988095D01*
X121452380Y-135416666D01*
X121452380Y-136035714D01*
X120452380Y-136369047D02*
X120452380Y-137035714D01*
X121452380Y-136607142D01*
X119452380Y-134130952D02*
X118976190Y-133797619D01*
X119452380Y-133559523D02*
X118452380Y-133559523D01*
X118452380Y-133940476D01*
X118500000Y-134035714D01*
X118547619Y-134083333D01*
X118642857Y-134130952D01*
X118785714Y-134130952D01*
X118880952Y-134083333D01*
X118928571Y-134035714D01*
X118976190Y-133940476D01*
X118976190Y-133559523D01*
X119452380Y-135083333D02*
X119452380Y-134511904D01*
X119452380Y-134797619D02*
X118452380Y-134797619D01*
X118595238Y-134702380D01*
X118690476Y-134607142D01*
X118738095Y-134511904D01*
X118547619Y-135464285D02*
X118500000Y-135511904D01*
X118452380Y-135607142D01*
X118452380Y-135845238D01*
X118500000Y-135940476D01*
X118547619Y-135988095D01*
X118642857Y-136035714D01*
X118738095Y-136035714D01*
X118880952Y-135988095D01*
X119452380Y-135416666D01*
X119452380Y-136035714D01*
X118880952Y-136607142D02*
X118833333Y-136511904D01*
X118785714Y-136464285D01*
X118690476Y-136416666D01*
X118642857Y-136416666D01*
X118547619Y-136464285D01*
X118500000Y-136511904D01*
X118452380Y-136607142D01*
X118452380Y-136797619D01*
X118500000Y-136892857D01*
X118547619Y-136940476D01*
X118642857Y-136988095D01*
X118690476Y-136988095D01*
X118785714Y-136940476D01*
X118833333Y-136892857D01*
X118880952Y-136797619D01*
X118880952Y-136607142D01*
X118928571Y-136511904D01*
X118976190Y-136464285D01*
X119071428Y-136416666D01*
X119261904Y-136416666D01*
X119357142Y-136464285D01*
X119404761Y-136511904D01*
X119452380Y-136607142D01*
X119452380Y-136797619D01*
X119404761Y-136892857D01*
X119357142Y-136940476D01*
X119261904Y-136988095D01*
X119071428Y-136988095D01*
X118976190Y-136940476D01*
X118928571Y-136892857D01*
X118880952Y-136797619D01*
X117452380Y-134130952D02*
X116976190Y-133797619D01*
X117452380Y-133559523D02*
X116452380Y-133559523D01*
X116452380Y-133940476D01*
X116500000Y-134035714D01*
X116547619Y-134083333D01*
X116642857Y-134130952D01*
X116785714Y-134130952D01*
X116880952Y-134083333D01*
X116928571Y-134035714D01*
X116976190Y-133940476D01*
X116976190Y-133559523D01*
X117452380Y-135083333D02*
X117452380Y-134511904D01*
X117452380Y-134797619D02*
X116452380Y-134797619D01*
X116595238Y-134702380D01*
X116690476Y-134607142D01*
X116738095Y-134511904D01*
X116547619Y-135464285D02*
X116500000Y-135511904D01*
X116452380Y-135607142D01*
X116452380Y-135845238D01*
X116500000Y-135940476D01*
X116547619Y-135988095D01*
X116642857Y-136035714D01*
X116738095Y-136035714D01*
X116880952Y-135988095D01*
X117452380Y-135416666D01*
X117452380Y-136035714D01*
X117452380Y-136511904D02*
X117452380Y-136702380D01*
X117404761Y-136797619D01*
X117357142Y-136845238D01*
X117214285Y-136940476D01*
X117023809Y-136988095D01*
X116642857Y-136988095D01*
X116547619Y-136940476D01*
X116500000Y-136892857D01*
X116452380Y-136797619D01*
X116452380Y-136607142D01*
X116500000Y-136511904D01*
X116547619Y-136464285D01*
X116642857Y-136416666D01*
X116880952Y-136416666D01*
X116976190Y-136464285D01*
X117023809Y-136511904D01*
X117071428Y-136607142D01*
X117071428Y-136797619D01*
X117023809Y-136892857D01*
X116976190Y-136940476D01*
X116880952Y-136988095D01*
X115452380Y-134130952D02*
X114976190Y-133797619D01*
X115452380Y-133559523D02*
X114452380Y-133559523D01*
X114452380Y-133940476D01*
X114500000Y-134035714D01*
X114547619Y-134083333D01*
X114642857Y-134130952D01*
X114785714Y-134130952D01*
X114880952Y-134083333D01*
X114928571Y-134035714D01*
X114976190Y-133940476D01*
X114976190Y-133559523D01*
X115452380Y-135083333D02*
X115452380Y-134511904D01*
X115452380Y-134797619D02*
X114452380Y-134797619D01*
X114595238Y-134702380D01*
X114690476Y-134607142D01*
X114738095Y-134511904D01*
X114452380Y-135416666D02*
X114452380Y-136035714D01*
X114833333Y-135702380D01*
X114833333Y-135845238D01*
X114880952Y-135940476D01*
X114928571Y-135988095D01*
X115023809Y-136035714D01*
X115261904Y-136035714D01*
X115357142Y-135988095D01*
X115404761Y-135940476D01*
X115452380Y-135845238D01*
X115452380Y-135559523D01*
X115404761Y-135464285D01*
X115357142Y-135416666D01*
X114452380Y-136654761D02*
X114452380Y-136750000D01*
X114500000Y-136845238D01*
X114547619Y-136892857D01*
X114642857Y-136940476D01*
X114833333Y-136988095D01*
X115071428Y-136988095D01*
X115261904Y-136940476D01*
X115357142Y-136892857D01*
X115404761Y-136845238D01*
X115452380Y-136750000D01*
X115452380Y-136654761D01*
X115404761Y-136559523D01*
X115357142Y-136511904D01*
X115261904Y-136464285D01*
X115071428Y-136416666D01*
X114833333Y-136416666D01*
X114642857Y-136464285D01*
X114547619Y-136511904D01*
X114500000Y-136559523D01*
X114452380Y-136654761D01*
X113452380Y-134130952D02*
X112976190Y-133797619D01*
X113452380Y-133559523D02*
X112452380Y-133559523D01*
X112452380Y-133940476D01*
X112500000Y-134035714D01*
X112547619Y-134083333D01*
X112642857Y-134130952D01*
X112785714Y-134130952D01*
X112880952Y-134083333D01*
X112928571Y-134035714D01*
X112976190Y-133940476D01*
X112976190Y-133559523D01*
X113452380Y-135083333D02*
X113452380Y-134511904D01*
X113452380Y-134797619D02*
X112452380Y-134797619D01*
X112595238Y-134702380D01*
X112690476Y-134607142D01*
X112738095Y-134511904D01*
X112452380Y-135416666D02*
X112452380Y-136035714D01*
X112833333Y-135702380D01*
X112833333Y-135845238D01*
X112880952Y-135940476D01*
X112928571Y-135988095D01*
X113023809Y-136035714D01*
X113261904Y-136035714D01*
X113357142Y-135988095D01*
X113404761Y-135940476D01*
X113452380Y-135845238D01*
X113452380Y-135559523D01*
X113404761Y-135464285D01*
X113357142Y-135416666D01*
X113452380Y-136988095D02*
X113452380Y-136416666D01*
X113452380Y-136702380D02*
X112452380Y-136702380D01*
X112595238Y-136607142D01*
X112690476Y-136511904D01*
X112738095Y-136416666D01*
X111452380Y-134130952D02*
X110976190Y-133797619D01*
X111452380Y-133559523D02*
X110452380Y-133559523D01*
X110452380Y-133940476D01*
X110500000Y-134035714D01*
X110547619Y-134083333D01*
X110642857Y-134130952D01*
X110785714Y-134130952D01*
X110880952Y-134083333D01*
X110928571Y-134035714D01*
X110976190Y-133940476D01*
X110976190Y-133559523D01*
X111452380Y-135083333D02*
X111452380Y-134511904D01*
X111452380Y-134797619D02*
X110452380Y-134797619D01*
X110595238Y-134702380D01*
X110690476Y-134607142D01*
X110738095Y-134511904D01*
X110452380Y-135416666D02*
X110452380Y-136035714D01*
X110833333Y-135702380D01*
X110833333Y-135845238D01*
X110880952Y-135940476D01*
X110928571Y-135988095D01*
X111023809Y-136035714D01*
X111261904Y-136035714D01*
X111357142Y-135988095D01*
X111404761Y-135940476D01*
X111452380Y-135845238D01*
X111452380Y-135559523D01*
X111404761Y-135464285D01*
X111357142Y-135416666D01*
X110547619Y-136416666D02*
X110500000Y-136464285D01*
X110452380Y-136559523D01*
X110452380Y-136797619D01*
X110500000Y-136892857D01*
X110547619Y-136940476D01*
X110642857Y-136988095D01*
X110738095Y-136988095D01*
X110880952Y-136940476D01*
X111452380Y-136369047D01*
X111452380Y-136988095D01*
X109452380Y-134130952D02*
X108976190Y-133797619D01*
X109452380Y-133559523D02*
X108452380Y-133559523D01*
X108452380Y-133940476D01*
X108500000Y-134035714D01*
X108547619Y-134083333D01*
X108642857Y-134130952D01*
X108785714Y-134130952D01*
X108880952Y-134083333D01*
X108928571Y-134035714D01*
X108976190Y-133940476D01*
X108976190Y-133559523D01*
X109452380Y-135083333D02*
X109452380Y-134511904D01*
X109452380Y-134797619D02*
X108452380Y-134797619D01*
X108595238Y-134702380D01*
X108690476Y-134607142D01*
X108738095Y-134511904D01*
X108452380Y-135416666D02*
X108452380Y-136035714D01*
X108833333Y-135702380D01*
X108833333Y-135845238D01*
X108880952Y-135940476D01*
X108928571Y-135988095D01*
X109023809Y-136035714D01*
X109261904Y-136035714D01*
X109357142Y-135988095D01*
X109404761Y-135940476D01*
X109452380Y-135845238D01*
X109452380Y-135559523D01*
X109404761Y-135464285D01*
X109357142Y-135416666D01*
X108452380Y-136369047D02*
X108452380Y-136988095D01*
X108833333Y-136654761D01*
X108833333Y-136797619D01*
X108880952Y-136892857D01*
X108928571Y-136940476D01*
X109023809Y-136988095D01*
X109261904Y-136988095D01*
X109357142Y-136940476D01*
X109404761Y-136892857D01*
X109452380Y-136797619D01*
X109452380Y-136511904D01*
X109404761Y-136416666D01*
X109357142Y-136369047D01*
X169702380Y-64880952D02*
X169226190Y-64547619D01*
X169702380Y-64309523D02*
X168702380Y-64309523D01*
X168702380Y-64690476D01*
X168750000Y-64785714D01*
X168797619Y-64833333D01*
X168892857Y-64880952D01*
X169035714Y-64880952D01*
X169130952Y-64833333D01*
X169178571Y-64785714D01*
X169226190Y-64690476D01*
X169226190Y-64309523D01*
X169702380Y-65833333D02*
X169702380Y-65261904D01*
X169702380Y-65547619D02*
X168702380Y-65547619D01*
X168845238Y-65452380D01*
X168940476Y-65357142D01*
X168988095Y-65261904D01*
X168702380Y-66738095D02*
X168702380Y-66261904D01*
X169178571Y-66214285D01*
X169130952Y-66261904D01*
X169083333Y-66357142D01*
X169083333Y-66595238D01*
X169130952Y-66690476D01*
X169178571Y-66738095D01*
X169273809Y-66785714D01*
X169511904Y-66785714D01*
X169607142Y-66738095D01*
X169654761Y-66690476D01*
X169702380Y-66595238D01*
X169702380Y-66357142D01*
X169654761Y-66261904D01*
X169607142Y-66214285D01*
X168702380Y-67404761D02*
X168702380Y-67500000D01*
X168750000Y-67595238D01*
X168797619Y-67642857D01*
X168892857Y-67690476D01*
X169083333Y-67738095D01*
X169321428Y-67738095D01*
X169511904Y-67690476D01*
X169607142Y-67642857D01*
X169654761Y-67595238D01*
X169702380Y-67500000D01*
X169702380Y-67404761D01*
X169654761Y-67309523D01*
X169607142Y-67261904D01*
X169511904Y-67214285D01*
X169321428Y-67166666D01*
X169083333Y-67166666D01*
X168892857Y-67214285D01*
X168797619Y-67261904D01*
X168750000Y-67309523D01*
X168702380Y-67404761D01*
X167702380Y-64880952D02*
X167226190Y-64547619D01*
X167702380Y-64309523D02*
X166702380Y-64309523D01*
X166702380Y-64690476D01*
X166750000Y-64785714D01*
X166797619Y-64833333D01*
X166892857Y-64880952D01*
X167035714Y-64880952D01*
X167130952Y-64833333D01*
X167178571Y-64785714D01*
X167226190Y-64690476D01*
X167226190Y-64309523D01*
X167702380Y-65833333D02*
X167702380Y-65261904D01*
X167702380Y-65547619D02*
X166702380Y-65547619D01*
X166845238Y-65452380D01*
X166940476Y-65357142D01*
X166988095Y-65261904D01*
X166702380Y-66738095D02*
X166702380Y-66261904D01*
X167178571Y-66214285D01*
X167130952Y-66261904D01*
X167083333Y-66357142D01*
X167083333Y-66595238D01*
X167130952Y-66690476D01*
X167178571Y-66738095D01*
X167273809Y-66785714D01*
X167511904Y-66785714D01*
X167607142Y-66738095D01*
X167654761Y-66690476D01*
X167702380Y-66595238D01*
X167702380Y-66357142D01*
X167654761Y-66261904D01*
X167607142Y-66214285D01*
X167702380Y-67738095D02*
X167702380Y-67166666D01*
X167702380Y-67452380D02*
X166702380Y-67452380D01*
X166845238Y-67357142D01*
X166940476Y-67261904D01*
X166988095Y-67166666D01*
X165702380Y-64880952D02*
X165226190Y-64547619D01*
X165702380Y-64309523D02*
X164702380Y-64309523D01*
X164702380Y-64690476D01*
X164750000Y-64785714D01*
X164797619Y-64833333D01*
X164892857Y-64880952D01*
X165035714Y-64880952D01*
X165130952Y-64833333D01*
X165178571Y-64785714D01*
X165226190Y-64690476D01*
X165226190Y-64309523D01*
X165702380Y-65833333D02*
X165702380Y-65261904D01*
X165702380Y-65547619D02*
X164702380Y-65547619D01*
X164845238Y-65452380D01*
X164940476Y-65357142D01*
X164988095Y-65261904D01*
X164702380Y-66738095D02*
X164702380Y-66261904D01*
X165178571Y-66214285D01*
X165130952Y-66261904D01*
X165083333Y-66357142D01*
X165083333Y-66595238D01*
X165130952Y-66690476D01*
X165178571Y-66738095D01*
X165273809Y-66785714D01*
X165511904Y-66785714D01*
X165607142Y-66738095D01*
X165654761Y-66690476D01*
X165702380Y-66595238D01*
X165702380Y-66357142D01*
X165654761Y-66261904D01*
X165607142Y-66214285D01*
X164797619Y-67166666D02*
X164750000Y-67214285D01*
X164702380Y-67309523D01*
X164702380Y-67547619D01*
X164750000Y-67642857D01*
X164797619Y-67690476D01*
X164892857Y-67738095D01*
X164988095Y-67738095D01*
X165130952Y-67690476D01*
X165702380Y-67119047D01*
X165702380Y-67738095D01*
X163702380Y-64880952D02*
X163226190Y-64547619D01*
X163702380Y-64309523D02*
X162702380Y-64309523D01*
X162702380Y-64690476D01*
X162750000Y-64785714D01*
X162797619Y-64833333D01*
X162892857Y-64880952D01*
X163035714Y-64880952D01*
X163130952Y-64833333D01*
X163178571Y-64785714D01*
X163226190Y-64690476D01*
X163226190Y-64309523D01*
X163702380Y-65833333D02*
X163702380Y-65261904D01*
X163702380Y-65547619D02*
X162702380Y-65547619D01*
X162845238Y-65452380D01*
X162940476Y-65357142D01*
X162988095Y-65261904D01*
X162702380Y-66738095D02*
X162702380Y-66261904D01*
X163178571Y-66214285D01*
X163130952Y-66261904D01*
X163083333Y-66357142D01*
X163083333Y-66595238D01*
X163130952Y-66690476D01*
X163178571Y-66738095D01*
X163273809Y-66785714D01*
X163511904Y-66785714D01*
X163607142Y-66738095D01*
X163654761Y-66690476D01*
X163702380Y-66595238D01*
X163702380Y-66357142D01*
X163654761Y-66261904D01*
X163607142Y-66214285D01*
X162702380Y-67119047D02*
X162702380Y-67738095D01*
X163083333Y-67404761D01*
X163083333Y-67547619D01*
X163130952Y-67642857D01*
X163178571Y-67690476D01*
X163273809Y-67738095D01*
X163511904Y-67738095D01*
X163607142Y-67690476D01*
X163654761Y-67642857D01*
X163702380Y-67547619D01*
X163702380Y-67261904D01*
X163654761Y-67166666D01*
X163607142Y-67119047D01*
X161702380Y-64880952D02*
X161226190Y-64547619D01*
X161702380Y-64309523D02*
X160702380Y-64309523D01*
X160702380Y-64690476D01*
X160750000Y-64785714D01*
X160797619Y-64833333D01*
X160892857Y-64880952D01*
X161035714Y-64880952D01*
X161130952Y-64833333D01*
X161178571Y-64785714D01*
X161226190Y-64690476D01*
X161226190Y-64309523D01*
X161702380Y-65833333D02*
X161702380Y-65261904D01*
X161702380Y-65547619D02*
X160702380Y-65547619D01*
X160845238Y-65452380D01*
X160940476Y-65357142D01*
X160988095Y-65261904D01*
X160702380Y-66738095D02*
X160702380Y-66261904D01*
X161178571Y-66214285D01*
X161130952Y-66261904D01*
X161083333Y-66357142D01*
X161083333Y-66595238D01*
X161130952Y-66690476D01*
X161178571Y-66738095D01*
X161273809Y-66785714D01*
X161511904Y-66785714D01*
X161607142Y-66738095D01*
X161654761Y-66690476D01*
X161702380Y-66595238D01*
X161702380Y-66357142D01*
X161654761Y-66261904D01*
X161607142Y-66214285D01*
X161035714Y-67642857D02*
X161702380Y-67642857D01*
X160654761Y-67404761D02*
X161369047Y-67166666D01*
X161369047Y-67785714D01*
X159702380Y-64880952D02*
X159226190Y-64547619D01*
X159702380Y-64309523D02*
X158702380Y-64309523D01*
X158702380Y-64690476D01*
X158750000Y-64785714D01*
X158797619Y-64833333D01*
X158892857Y-64880952D01*
X159035714Y-64880952D01*
X159130952Y-64833333D01*
X159178571Y-64785714D01*
X159226190Y-64690476D01*
X159226190Y-64309523D01*
X159702380Y-65833333D02*
X159702380Y-65261904D01*
X159702380Y-65547619D02*
X158702380Y-65547619D01*
X158845238Y-65452380D01*
X158940476Y-65357142D01*
X158988095Y-65261904D01*
X158702380Y-66738095D02*
X158702380Y-66261904D01*
X159178571Y-66214285D01*
X159130952Y-66261904D01*
X159083333Y-66357142D01*
X159083333Y-66595238D01*
X159130952Y-66690476D01*
X159178571Y-66738095D01*
X159273809Y-66785714D01*
X159511904Y-66785714D01*
X159607142Y-66738095D01*
X159654761Y-66690476D01*
X159702380Y-66595238D01*
X159702380Y-66357142D01*
X159654761Y-66261904D01*
X159607142Y-66214285D01*
X158702380Y-67690476D02*
X158702380Y-67214285D01*
X159178571Y-67166666D01*
X159130952Y-67214285D01*
X159083333Y-67309523D01*
X159083333Y-67547619D01*
X159130952Y-67642857D01*
X159178571Y-67690476D01*
X159273809Y-67738095D01*
X159511904Y-67738095D01*
X159607142Y-67690476D01*
X159654761Y-67642857D01*
X159702380Y-67547619D01*
X159702380Y-67309523D01*
X159654761Y-67214285D01*
X159607142Y-67166666D01*
X157702380Y-64880952D02*
X157226190Y-64547619D01*
X157702380Y-64309523D02*
X156702380Y-64309523D01*
X156702380Y-64690476D01*
X156750000Y-64785714D01*
X156797619Y-64833333D01*
X156892857Y-64880952D01*
X157035714Y-64880952D01*
X157130952Y-64833333D01*
X157178571Y-64785714D01*
X157226190Y-64690476D01*
X157226190Y-64309523D01*
X157702380Y-65833333D02*
X157702380Y-65261904D01*
X157702380Y-65547619D02*
X156702380Y-65547619D01*
X156845238Y-65452380D01*
X156940476Y-65357142D01*
X156988095Y-65261904D01*
X156702380Y-66738095D02*
X156702380Y-66261904D01*
X157178571Y-66214285D01*
X157130952Y-66261904D01*
X157083333Y-66357142D01*
X157083333Y-66595238D01*
X157130952Y-66690476D01*
X157178571Y-66738095D01*
X157273809Y-66785714D01*
X157511904Y-66785714D01*
X157607142Y-66738095D01*
X157654761Y-66690476D01*
X157702380Y-66595238D01*
X157702380Y-66357142D01*
X157654761Y-66261904D01*
X157607142Y-66214285D01*
X156702380Y-67642857D02*
X156702380Y-67452380D01*
X156750000Y-67357142D01*
X156797619Y-67309523D01*
X156940476Y-67214285D01*
X157130952Y-67166666D01*
X157511904Y-67166666D01*
X157607142Y-67214285D01*
X157654761Y-67261904D01*
X157702380Y-67357142D01*
X157702380Y-67547619D01*
X157654761Y-67642857D01*
X157607142Y-67690476D01*
X157511904Y-67738095D01*
X157273809Y-67738095D01*
X157178571Y-67690476D01*
X157130952Y-67642857D01*
X157083333Y-67547619D01*
X157083333Y-67357142D01*
X157130952Y-67261904D01*
X157178571Y-67214285D01*
X157273809Y-67166666D01*
X155702380Y-64880952D02*
X155226190Y-64547619D01*
X155702380Y-64309523D02*
X154702380Y-64309523D01*
X154702380Y-64690476D01*
X154750000Y-64785714D01*
X154797619Y-64833333D01*
X154892857Y-64880952D01*
X155035714Y-64880952D01*
X155130952Y-64833333D01*
X155178571Y-64785714D01*
X155226190Y-64690476D01*
X155226190Y-64309523D01*
X155702380Y-65833333D02*
X155702380Y-65261904D01*
X155702380Y-65547619D02*
X154702380Y-65547619D01*
X154845238Y-65452380D01*
X154940476Y-65357142D01*
X154988095Y-65261904D01*
X154702380Y-66738095D02*
X154702380Y-66261904D01*
X155178571Y-66214285D01*
X155130952Y-66261904D01*
X155083333Y-66357142D01*
X155083333Y-66595238D01*
X155130952Y-66690476D01*
X155178571Y-66738095D01*
X155273809Y-66785714D01*
X155511904Y-66785714D01*
X155607142Y-66738095D01*
X155654761Y-66690476D01*
X155702380Y-66595238D01*
X155702380Y-66357142D01*
X155654761Y-66261904D01*
X155607142Y-66214285D01*
X154702380Y-67119047D02*
X154702380Y-67785714D01*
X155702380Y-67357142D01*
X187919047Y-145852380D02*
X188252380Y-145376190D01*
X188490476Y-145852380D02*
X188490476Y-144852380D01*
X188109523Y-144852380D01*
X188014285Y-144900000D01*
X187966666Y-144947619D01*
X187919047Y-145042857D01*
X187919047Y-145185714D01*
X187966666Y-145280952D01*
X188014285Y-145328571D01*
X188109523Y-145376190D01*
X188490476Y-145376190D01*
X186966666Y-145852380D02*
X187538095Y-145852380D01*
X187252380Y-145852380D02*
X187252380Y-144852380D01*
X187347619Y-144995238D01*
X187442857Y-145090476D01*
X187538095Y-145138095D01*
X186109523Y-144852380D02*
X186300000Y-144852380D01*
X186395238Y-144900000D01*
X186442857Y-144947619D01*
X186538095Y-145090476D01*
X186585714Y-145280952D01*
X186585714Y-145661904D01*
X186538095Y-145757142D01*
X186490476Y-145804761D01*
X186395238Y-145852380D01*
X186204761Y-145852380D01*
X186109523Y-145804761D01*
X186061904Y-145757142D01*
X186014285Y-145661904D01*
X186014285Y-145423809D01*
X186061904Y-145328571D01*
X186109523Y-145280952D01*
X186204761Y-145233333D01*
X186395238Y-145233333D01*
X186490476Y-145280952D01*
X186538095Y-145328571D01*
X186585714Y-145423809D01*
X185157142Y-144852380D02*
X185347619Y-144852380D01*
X185442857Y-144900000D01*
X185490476Y-144947619D01*
X185585714Y-145090476D01*
X185633333Y-145280952D01*
X185633333Y-145661904D01*
X185585714Y-145757142D01*
X185538095Y-145804761D01*
X185442857Y-145852380D01*
X185252380Y-145852380D01*
X185157142Y-145804761D01*
X185109523Y-145757142D01*
X185061904Y-145661904D01*
X185061904Y-145423809D01*
X185109523Y-145328571D01*
X185157142Y-145280952D01*
X185252380Y-145233333D01*
X185442857Y-145233333D01*
X185538095Y-145280952D01*
X185585714Y-145328571D01*
X185633333Y-145423809D01*
X176352380Y-150316666D02*
X177066666Y-150316666D01*
X177209523Y-150269047D01*
X177304761Y-150173809D01*
X177352380Y-150030952D01*
X177352380Y-149935714D01*
X176352380Y-151269047D02*
X176352380Y-150792857D01*
X176828571Y-150745238D01*
X176780952Y-150792857D01*
X176733333Y-150888095D01*
X176733333Y-151126190D01*
X176780952Y-151221428D01*
X176828571Y-151269047D01*
X176923809Y-151316666D01*
X177161904Y-151316666D01*
X177257142Y-151269047D01*
X177304761Y-151221428D01*
X177352380Y-151126190D01*
X177352380Y-150888095D01*
X177304761Y-150792857D01*
X177257142Y-150745238D01*
M02*
