M48
; DRILL file {KiCad (5.1.6-0-10_14)} date Friday, January 22, 2021 at 08:10:00 AM
; FORMAT={-:-/ absolute / inch / decimal}
; #@! TF.CreationDate,2021-01-22T08:10:00+01:00
; #@! TF.GenerationSoftware,Kicad,Pcbnew,(5.1.6-0-10_14)
; #@! TF.FileFunction,Plated,1,2,PTH
FMAT,2
INCH
T1C0.0118
T2C0.0157
T3C0.0315
T4C0.0394
T5C0.0433
T6C0.0591
%
G90
G05
T1
X4.1417Y-5.0394
X4.1457Y-4.5709
X4.1457Y-4.6575
X4.1457Y-4.8465
X4.1575Y-5.122
X4.1642Y-4.8075
X4.1763Y-5.2547
X4.1917Y-5.2756
X4.1952Y-3.6164
X4.1969Y-3.4961
X4.2087Y-3.5315
X4.2098Y-3.5949
X4.2148Y-3.006
X4.2165Y-5.2835
X4.2244Y-2.8031
X4.2283Y-3.5512
X4.2291Y-3.6409
X4.2341Y-3.0394
X4.2441Y-2.5787
X4.2441Y-5.2835
X4.2449Y-2.6409
X4.2502Y-5.4731
X4.252Y-2.8386
X4.2551Y-2.7409
X4.2558Y-4.0464
X4.2559Y-2.0709
X4.2559Y-3.8465
X4.2598Y-5.1417
X4.2636Y-4.1659
X4.2677Y-2.1299
X4.2756Y-3.9307
X4.2756Y-3.9567
X4.2774Y-2.1019
X4.2786Y-3.8906
X4.2799Y-3.0748
X4.2799Y-3.2165
X4.2835Y-4.8465
X4.2882Y-3.2677
X4.2913Y-4.5236
X4.2913Y-5.4724
X4.2917Y-4.1024
X4.2992Y-5.3701
X4.3031Y-2.0906
X4.3031Y-2.5394
X4.3031Y-2.9803
X4.3031Y-4.1417
X4.3031Y-4.7795
X4.3071Y-4.5787
X4.3075Y-3.3189
X4.3147Y-4.1145
X4.3154Y-5.0945
X4.3185Y-3.0079
X4.3189Y-4.0712
X4.3189Y-2.7795
X4.3189Y-4.3346
X4.3189Y-4.9882
X4.3189Y-5.0433
X4.3215Y-2.1455
X4.3228Y-2.4961
X4.3228Y-4.4764
X4.3228Y-4.6299
X4.3228Y-4.7559
X4.3268Y-3.3701
X4.3289Y-3.944
X4.3307Y-4.2244
X4.3307Y-5.4724
X4.3311Y-3.0394
X4.3326Y-3.9962
X4.3425Y-2.4409
X4.3447Y-2.1572
X4.346Y-4.2034
X4.3661Y-5.4724
X4.4051Y-4.2795
X4.4051Y-4.5039
X4.4051Y-4.7913
X4.4091Y-3.2441
X4.4091Y-3.874
X4.4092Y-5.4717
X4.4177Y-4.1846
X4.4177Y-4.55
X4.4177Y-4.7366
X4.4217Y-3.2953
X4.4217Y-3.9252
X4.4252Y-2.6496
X4.4291Y-2.437
X4.4331Y-2.622
X4.437Y-5.0079
X4.4409Y-3.3425
X4.4449Y-3.9724
X4.4449Y-5.0591
X4.4449Y-4.6063
X4.4488Y-2.7047
X4.4488Y-2.7559
X4.4528Y-2.374
X4.4531Y-2.6772
X4.4567Y-4.6575
X4.4567Y-5.1024
X4.4567Y-5.4724
X4.4602Y-2.8071
X4.4602Y-3.3898
X4.4606Y-4.0276
X4.4631Y-2.7307
X4.4646Y-5.1496
X4.4724Y-2.398
X4.4843Y-4.1417
X4.4882Y-2.8071
X4.4882Y-5.4724
X4.489Y-3.3976
X4.489Y-4.0276
X4.4961Y-5.1732
X4.4969Y-4.6575
X4.4969Y-4.8827
X4.5079Y-2.752
X4.5083Y-3.3465
X4.5083Y-3.9724
X4.5097Y-4.1724
X4.5157Y-5.1299
X4.5161Y-4.6024
X4.5161Y-4.9098
X4.5276Y-2.3307
X4.5276Y-2.6181
X4.5276Y-2.7047
X4.5276Y-3.2913
X4.5276Y-3.9252
X4.5276Y-4.1535
X4.5315Y-5.4724
X4.5354Y-4.5512
X4.5354Y-4.8268
X4.5354Y-5.0787
X4.5469Y-2.6535
X4.5508Y-3.2441
X4.5508Y-3.874
X4.5508Y-4.2441
X4.5512Y-4.8031
X4.5512Y-5.0394
X4.5512Y-5.1929
X4.5547Y-4.5039
X4.5551Y-5.1417
X4.5669Y-5.4724
X4.6102Y-5.4724
X4.6417Y-2.311
X4.6457Y-5.4685
X4.6492Y-3.2165
X4.6496Y-4.6811
X4.6496Y-4.7366
X4.6535Y-3.8465
X4.6535Y-3.9488
X4.6535Y-4.1299
X4.6535Y-4.4764
X4.6535Y-4.5787
X4.6535Y-5.0906
X4.6614Y-2.4646
X4.6614Y-2.7283
X4.6654Y-2.2913
X4.6654Y-3.0315
X4.6685Y-3.3228
X4.6693Y-5.0433
X4.6701Y-4.7559
X4.675Y-3.8802
X4.6811Y-5.4724
X4.6815Y-4.2232
X4.6815Y-4.2598
X4.7008Y-3.874
X4.7126Y-2.6535
X4.7205Y-3.9213
X4.7244Y-2.7047
X4.7244Y-5.4764
X4.7402Y-3.9764
X4.7435Y-5.2343
X4.748Y-2.752
X4.7563Y-5.0787
X4.7602Y-4.0276
X4.7638Y-5.4724
X4.765Y-5.2196
X4.7717Y-2.8031
X4.7717Y-3.0748
X4.7717Y-3.2087
X4.7756Y-3.2402
X4.7756Y-5.1063
X4.7795Y-4.5
X4.7835Y-3.2953
X4.7835Y-5.1969
X4.7874Y-4.5551
X4.7874Y-2.626
X4.7913Y-2.3547
X4.7913Y-2.437
X4.7913Y-3.3465
X4.7913Y-4.6063
X4.7917Y-3.3957
X4.7953Y-2.8307
X4.7953Y-2.8823
X4.7953Y-2.9654
X4.7953Y-3.2677
X4.7953Y-5.1299
X4.798Y-4.6575
X4.8031Y-5.4724
X4.8228Y-5.1496
X4.8425Y-5.4724
X4.8465Y-5.185
X4.874Y-4.1689
X4.874Y-4.9764
X4.8858Y-4.1177
X4.8858Y-4.6299
X4.8898Y-3.0512
X4.8898Y-3.3701
X4.8898Y-4.0
X4.8898Y-4.3346
X4.8937Y-2.4409
X4.8937Y-2.7283
X4.8937Y-2.7795
X4.8937Y-2.8898
X4.8937Y-3.8425
X4.8937Y-4.4764
X4.8937Y-4.7992
X4.8976Y-3.9488
X4.8976Y-4.5276
X4.9012Y-5.2343
X4.9012Y-5.3701
X4.9055Y-5.0197
X4.9079Y-4.2808
X4.913Y-2.6772
X4.9134Y-2.9807
X4.9134Y-3.3189
X4.9138Y-4.9173
X4.9157Y-5.4348
X4.9173Y-2.3976
X4.9213Y-4.5787
X4.9214Y-5.1991
X4.9272Y-3.874
X4.9331Y-2.6535
X4.937Y-5.0311
X4.9409Y-5.4409
X4.9445Y-3.9252
X4.9529Y-5.0773
X4.9569Y-5.0478
X4.9571Y-3.9764
X4.9646Y-2.7047
X4.9685Y-5.1142
X4.9696Y-5.4684
X4.9764Y-4.0236
X4.9803Y-5.4921
X4.9882Y-2.3685
X4.9882Y-2.752
X4.9882Y-5.1343
X4.9886Y-5.0748
X4.9921Y-2.6772
X4.9992Y-4.2039
X5.0Y-3.9488
X5.0039Y-4.5
X5.0075Y-2.8079
X5.0079Y-3.2441
X5.0079Y-5.1063
X5.0079Y-5.1811
X5.0118Y-2.4173
X5.0118Y-4.5551
X5.0122Y-2.7283
X5.0197Y-3.2953
X5.0236Y-5.4764
X5.0236Y-4.6063
X5.0276Y-3.3465
X5.0294Y-3.427
X5.0311Y-3.4768
X5.0315Y-2.4646
X5.0315Y-2.7835
X5.0315Y-2.8307
X5.0315Y-3.3976
X5.0341Y-4.6549
X5.0346Y-3.3718
X5.0353Y-2.9096
X5.0362Y-5.5197
X5.0394Y-2.9961
X5.0748Y-5.4628
X5.0752Y-5.1063
X5.0945Y-4.7323
X5.1063Y-5.1378
X5.1063Y-5.1693
X5.122Y-4.6339
X5.1256Y-4.7559
X5.126Y-2.626
X5.126Y-3.2165
X5.126Y-3.8189
X5.126Y-4.4764
X5.126Y-4.9571
X5.126Y-5.0748
X5.126Y-5.5214
X5.1295Y-3.8504
X5.1372Y-5.4064
X5.1453Y-4.7795
X5.1457Y-4.5787
X5.1457Y-5.0512
X5.1532Y-5.5088
X5.1603Y-5.3946
X5.1614Y-4.8781
X5.1646Y-4.6811
X5.1654Y-4.5315
X5.1732Y-5.2126
X5.1776Y-4.0547
X5.1776Y-4.1717
X5.1787Y-3.607
X5.1804Y-5.3781
X5.1811Y-3.9409
X5.185Y-2.4449
X5.185Y-2.6772
X5.1878Y-5.0312
X5.189Y-4.2559
X5.1929Y-3.0433
X5.1929Y-3.4567
X5.1929Y-4.3071
X5.1929Y-4.5906
X5.1947Y-3.762
X5.2008Y-3.9724
X5.2008Y-5.5067
X5.2045Y-3.6042
X5.2047Y-2.4134
X5.2067Y-3.8012
X5.2087Y-2.5984
X5.2122Y-4.5236
X5.2126Y-3.0039
X5.2126Y-3.2992
X5.2126Y-4.1102
X5.2156Y-5.3579
X5.2165Y-5.0276
X5.2225Y-3.8444
X5.231Y-2.9856
X5.2315Y-4.1286
X5.2315Y-4.4449
X5.2323Y-2.6969
X5.2353Y-3.2293
X5.2362Y-3.6181
X5.2402Y-2.3858
X5.248Y-4.0
X5.2508Y-4.1524
X5.2508Y-4.3661
X5.252Y-2.9646
X5.252Y-5.4941
X5.2545Y-4.997
X5.2546Y-3.1457
X5.2559Y-3.8894
X5.2598Y-3.6378
X5.2682Y-2.9443
X5.2717Y-3.9764
X5.2717Y-4.1903
X5.2725Y-3.0992
X5.2953Y-3.8972
X5.3031Y-5.4815
X5.3071Y-4.7598
X5.315Y-4.1299
X5.315Y-4.8588
X5.3175Y-4.2289
X5.3307Y-2.4764
X5.3307Y-2.5551
X5.3307Y-3.189
X5.3307Y-3.2677
X5.3307Y-3.4252
X5.3307Y-4.3268
X5.3307Y-4.4803
X5.3307Y-4.7953
X5.3346Y-2.4016
X5.3346Y-2.6339
X5.3346Y-2.7165
X5.3346Y-2.7953
X5.3346Y-2.874
X5.3346Y-2.9488
X5.3346Y-3.0276
X5.3346Y-3.3425
X5.3346Y-3.5039
X5.3346Y-3.5787
X5.3346Y-4.0118
X5.3346Y-4.0866
X5.3346Y-4.4055
X5.3346Y-4.563
X5.3346Y-4.7165
X5.3346Y-5.189
X5.3386Y-3.1102
X5.3386Y-4.1693
X5.3386Y-4.2441
X5.3386Y-4.6378
X5.3386Y-4.878
X5.3386Y-4.9567
X5.3386Y-5.1102
X5.3411Y-5.029
X5.3465Y-5.4689
X5.4094Y-5.4567
X5.4567Y-5.5197
X5.4831Y-3.0079
X5.4848Y-3.6645
X5.4957Y-2.9775
X5.5039Y-2.2583
X5.5055Y-3.7772
X5.5079Y-3.8189
X5.5083Y-2.9541
X5.5091Y-3.6551
X5.5157Y-5.4449
X5.5174Y-3.7541
X5.5197Y-3.9882
X5.5197Y-4.3386
X5.5236Y-2.6929
X5.5236Y-4.6063
X5.5236Y-5.0039
X5.5238Y-4.6695
X5.5354Y-3.6289
X5.5354Y-2.9409
X5.5367Y-3.8204
X5.5394Y-2.3071
X5.5472Y-3.7441
X5.5508Y-2.3315
X5.5512Y-5.4311
X5.5551Y-3.8018
X5.5591Y-3.6024
X5.5621Y-2.5978
X5.563Y-3.1106
X5.563Y-3.5315
X5.5669Y-2.2874
X5.5748Y-2.6378
X5.5787Y-4.0157
X5.5787Y-4.3543
X5.5787Y-4.6929
X5.5787Y-4.9331
X5.5787Y-5.0276
X5.5827Y-2.7126
X5.5868Y-2.606
X5.5872Y-2.3036
X5.5941Y-3.1378
X5.5941Y-3.5551
X5.6102Y-5.4224
X5.6575Y-5.4098
X5.6579Y-4.276
X5.6614Y-3.3661
X5.663Y-2.5614
X5.6736Y-4.4882
X5.6736Y-4.8189
X5.6772Y-2.8425
X5.6772Y-4.4567
X5.6811Y-5.1535
X5.6823Y-2.7913
X5.684Y-3.2678
X5.685Y-3.6811
X5.685Y-2.4213
X5.685Y-3.3429
X5.685Y-4.1417
X5.6949Y-2.7677
X5.6965Y-2.815
X5.7043Y-3.6575
X5.7043Y-3.6175
X5.7052Y-3.3811
X5.7075Y-2.7402
X5.7126Y-5.3972
X5.7127Y-5.1
X5.7169Y-3.5937
X5.7235Y-4.4375
X5.7244Y-5.1339
X5.725Y-3.4001
X5.7254Y-5.0773
X5.7283Y-2.7126
X5.733Y-3.5733
X5.7343Y-2.5591
X5.7362Y-4.4066
X5.7362Y-2.3189
X5.7382Y-3.1598
X5.7386Y-4.3773
X5.7421Y-3.4197
X5.7441Y-5.0512
X5.7514Y-2.3455
X5.752Y-5.378
X5.7553Y-2.3923
X5.7559Y-4.7126
X5.7564Y-3.1842
X5.7638Y-4.7441
X5.7638Y-4.8031
X5.7644Y-2.368
X5.7657Y-3.7633
X5.7657Y-3.9759
X5.7717Y-4.7756
X5.772Y-3.205
X5.7783Y-3.7869
X5.7876Y-3.9899
X5.791Y-3.8252
X5.7996Y-4.0164
X5.7996Y-3.2373
X5.811Y-2.2953
X5.8116Y-2.8706
X5.8122Y-4.0392
X5.8139Y-4.8238
X5.815Y-3.1024
X5.815Y-4.3583
X5.8189Y-3.6811
X5.8268Y-3.7992
X5.8311Y-5.3482
X5.8342Y-5.473
X5.8425Y-5.3116
X5.8465Y-5.2047
X5.8504Y-4.8701
X5.8504Y-5.4252
X5.8543Y-4.5354
X5.8583Y-2.8937
X5.8583Y-4.1969
X5.8622Y-2.4724
X5.8661Y-3.7323
X5.8858Y-4.2008
X5.8898Y-2.9016
X5.8976Y-5.6417
X5.9016Y-4.9291
X5.9016Y-5.1535
X5.9055Y-3.9528
X5.9094Y-2.7126
X5.9094Y-3.2598
X5.9094Y-3.2913
X5.9094Y-4.0132
X5.9094Y-4.6929
X5.91Y-3.6201
X5.9134Y-4.4882
X5.9213Y-5.622
X5.9248Y-3.5827
X5.9248Y-3.9098
X5.9409Y-5.1024
X5.9543Y-5.6117
X5.9655Y-5.087
X5.9689Y-4.4488
X5.9689Y-4.8307
X5.9751Y-5.5961
X5.9764Y-3.2756
X5.9843Y-3.9488
X5.9843Y-4.0709
X5.9872Y-5.0727
X5.9911Y-5.5756
X5.9961Y-4.5787
X6.0039Y-3.8543
X6.0039Y-4.7126
X6.005Y-5.5537
X6.0118Y-3.1969
X6.0146Y-3.8292
X6.0193Y-3.4303
X6.0232Y-4.7531
X6.0265Y-3.9096
X6.0276Y-4.0669
X6.0283Y-5.5421
X6.0287Y-3.7903
X6.0315Y-4.5551
X6.0364Y-3.8151
X6.0381Y-5.5181
X6.039Y-4.7768
X6.0394Y-4.4803
X6.0406Y-3.252
X6.0426Y-3.411
X6.0472Y-2.4291
X6.0472Y-2.5079
X6.0476Y-5.3189
X6.0476Y-5.3465
X6.0512Y-5.2126
X6.0512Y-5.2402
X6.0551Y-3.7608
X6.0555Y-3.9173
X6.0591Y-3.2283
X6.0665Y-4.7949
X6.0701Y-4.6299
X6.0708Y-3.8364
X6.0709Y-2.2087
X6.0709Y-2.4134
X6.0748Y-3.0748
X6.0791Y-3.1496
X6.0827Y-4.6535
X6.0827Y-4.7126
X6.0866Y-4.6063
X6.0901Y-3.8113
X6.0941Y-4.5276
X6.0975Y-2.5718
X6.0984Y-3.126
X6.1024Y-4.8346
X6.1024Y-5.1378
X6.1063Y-2.8228
X6.1063Y-2.9528
X6.1063Y-3.7638
X6.1067Y-4.5039
X6.1102Y-2.4094
X6.1142Y-2.7441
X6.1453Y-5.4888
X6.1496Y-5.4094
X6.1535Y-2.4449
X6.1575Y-5.5157
X6.1647Y-2.1531
X6.1657Y-3.6024
X6.1663Y-4.2178
X6.1676Y-5.2959
X6.1703Y-5.2667
X6.1772Y-2.4606
X6.1772Y-2.9528
X6.1772Y-5.5433
X6.185Y-2.1339
X6.1854Y-5.1731
X6.189Y-2.7441
X6.189Y-3.4169
X6.189Y-3.7126
X6.189Y-3.8898
X6.1894Y-4.5827
X6.1921Y-4.2211
X6.1929Y-3.0984
X6.1969Y-2.8228
X6.1969Y-2.9764
X6.1969Y-5.1102
X6.2016Y-4.5512
X6.2028Y-3.458
X6.2036Y-2.1137
X6.2087Y-3.1732
X6.2087Y-3.8386
X6.2122Y-5.0825
X6.2126Y-5.5724
X6.2126Y-4.2053
X6.2129Y-2.4728
X6.2177Y-4.4764
X6.2185Y-3.1027
X6.2205Y-3.5591
X6.2205Y-3.6299
X6.2244Y-2.098
X6.2244Y-2.9213
X6.228Y-3.2008
X6.2283Y-5.4685
X6.2314Y-5.3163
X6.2317Y-5.0653
X6.2323Y-3.7874
X6.2323Y-5.3504
X6.2325Y-2.4899
X6.2357Y-2.8902
X6.2384Y-4.2018
X6.2402Y-3.2795
X6.2428Y-5.2072
X6.2477Y-5.2741
X6.248Y-3.7362
X6.2515Y-5.2998
X6.2602Y-5.4406
X6.2623Y-4.1915
X6.2677Y-2.7441
X6.2677Y-3.2795
X6.2698Y-2.8776
X6.2709Y-3.0165
X6.2712Y-5.3529
X6.2756Y-2.1732
X6.2762Y-5.3801
X6.2776Y-3.9409
X6.279Y-4.1716
X6.2835Y-2.8228
X6.2839Y-2.9796
X6.2855Y-5.2382
X6.2866Y-3.1969
X6.2874Y-3.8937
X6.2874Y-5.3189
X6.302Y-3.175
X6.3031Y-3.8425
X6.3041Y-4.1651
X6.315Y-4.1378
X6.3185Y-3.7913
X6.3205Y-2.937
X6.3504Y-2.7441
X6.3504Y-2.8189
X6.3504Y-2.8776
X6.3543Y-2.1732
X6.3626Y-3.5437
X6.3701Y-3.3268
X6.3701Y-4.7087
X6.3796Y-5.3946
X6.3815Y-5.2913
X6.3819Y-5.2126
X6.3941Y-5.2677
X6.3941Y-5.4161
X6.3976Y-5.185
X6.4Y-3.685
X6.4055Y-5.4409
X6.4173Y-4.1378
X6.4213Y-3.252
X6.4213Y-3.4291
X6.4213Y-3.7638
X6.4252Y-2.7441
X6.4252Y-2.8902
X6.4291Y-2.1732
X6.4291Y-2.8189
X6.4327Y-4.5039
X6.4327Y-4.9685
X6.4331Y-4.6535
X6.4331Y-4.9252
X6.4332Y-4.5299
X6.437Y-3.2244
X6.4406Y-3.4094
X6.4406Y-3.815
X6.4453Y-4.6024
X6.4453Y-5.0551
X6.4531Y-3.3819
X6.4531Y-3.8661
X6.4567Y-4.6299
X6.4594Y-3.1496
X6.4685Y-3.9173
X6.472Y-3.126
X6.4799Y-3.3469
X6.4803Y-2.8902
X6.4803Y-5.2756
X6.4843Y-5.3583
X6.4843Y-5.4921
X6.4891Y-4.7949
X6.5039Y-2.7441
X6.5039Y-2.8189
X6.5039Y-2.9094
X6.5079Y-2.1732
X6.5197Y-3.2795
X6.5197Y-3.3307
X6.5197Y-4.7874
X6.5232Y-3.2283
X6.5236Y-5.2835
X6.5276Y-3.8543
X6.5389Y-4.7463
X6.5429Y-4.7205
X6.5433Y-3.811
X6.5457Y-3.9071
X6.5469Y-3.9606
X6.5469Y-2.8307
X6.563Y-5.2795
X6.563Y-5.3583
X6.563Y-5.5236
X6.5827Y-2.7441
X6.5866Y-2.252
X6.5909Y-4.7126
X6.5945Y-4.6496
X6.5945Y-4.8189
X6.5984Y-4.2402
X6.5984Y-5.2795
X6.6024Y-4.9961
X6.6085Y-3.1709
X6.6102Y-2.8346
X6.6102Y-3.4409
X6.6142Y-4.5787
X6.6187Y-4.2594
X6.622Y-3.2283
X6.6286Y-3.4593
X6.6335Y-4.5512
X6.6378Y-4.2795
X6.6378Y-5.2795
X6.6378Y-5.3543
X6.6378Y-5.5394
X6.6417Y-3.6732
X6.6427Y-3.2037
X6.6457Y-3.4843
X6.6496Y-4.6457
X6.6496Y-4.9252
X6.6535Y-4.4764
X6.6562Y-4.2988
X6.6585Y-3.3061
X6.6585Y-3.2549
X6.6617Y-4.1831
X6.665Y-3.8346
X6.6654Y-2.7441
X6.6697Y-3.0984
X6.6732Y-2.9394
X6.6732Y-4.3228
X6.6732Y-5.5315
X6.6776Y-3.8858
X6.6811Y-5.2795
X6.6877Y-4.1831
X6.6925Y-4.3451
X6.7043Y-3.937
X6.7047Y-3.3819
X6.7076Y-4.1998
X6.7083Y-2.9724
X6.7118Y-4.3661
X6.7165Y-3.3307
X6.7165Y-3.3583
X6.7165Y-3.9882
X6.7165Y-5.2795
X6.7205Y-5.3543
X6.7205Y-5.5748
X6.7235Y-4.2203
X6.7283Y-2.9094
X6.7362Y-3.2795
X6.7362Y-4.4331
X6.7384Y-2.6374
X6.7402Y-2.4685
X6.7406Y-4.9685
X6.7441Y-3.9882
X6.7445Y-3.3583
X6.745Y-3.22
X6.748Y-2.6772
X6.748Y-2.8543
X6.748Y-4.1969
X6.752Y-3.3071
X6.7555Y-3.2508
X6.7565Y-3.1967
X6.7598Y-5.2795
X6.7638Y-3.9331
X6.7638Y-4.3858
X6.7677Y-2.6378
X6.7677Y-2.7598
X6.7756Y-4.185
X6.7791Y-4.4094
X6.7835Y-3.8858
X6.7874Y-4.1575
X6.7913Y-5.2795
X6.8031Y-3.8346
X6.8031Y-4.2205
X6.8031Y-5.5669
X6.8071Y-5.0551
X6.8189Y-4.1614
X6.8346Y-5.2835
X6.8425Y-2.7953
X6.8425Y-4.4685
X6.878Y-5.2795
X6.8783Y-3.6102
X6.8819Y-4.5276
X6.8819Y-4.9331
X6.8858Y-4.0591
X6.8858Y-4.8189
X6.9016Y-2.5827
X6.9016Y-3.0358
X6.9016Y-3.1142
X6.9016Y-3.1772
X6.9094Y-4.0157
X6.9094Y-4.2398
X6.9134Y-5.2756
X6.9291Y-3.9606
X6.9295Y-4.2562
X6.9488Y-3.9094
X6.9488Y-4.2756
X6.9528Y-5.2795
X6.9567Y-3.8622
X6.9567Y-4.8898
X6.9602Y-4.7677
X6.9606Y-3.3071
X6.9606Y-3.437
X6.9646Y-2.874
X6.9646Y-4.2992
X6.9685Y-4.3898
X6.9685Y-4.5827
X6.9685Y-4.7402
X6.9764Y-3.4843
X6.9878Y-4.4094
X6.9882Y-5.2795
X6.9961Y-2.4409
X7.0Y-2.5512
X7.0Y-2.6299
X7.0039Y-3.063
X7.0039Y-3.5039
X7.0079Y-3.185
X7.0118Y-3.0945
X7.0157Y-2.5787
X7.0161Y-2.6535
X7.0315Y-2.8189
X7.0315Y-3.1417
X7.0315Y-5.2795
X7.035Y-3.2402
X7.035Y-3.2858
X7.0354Y-2.4094
X7.0354Y-2.7087
X7.0354Y-3.4646
X7.0358Y-3.8068
X7.0358Y-4.0787
X7.0433Y-4.4291
X7.0472Y-4.2913
X7.0512Y-2.0669
X7.0591Y-2.8465
X7.0591Y-4.2244
X7.072Y-5.2781
X7.0748Y-4.4252
X7.0801Y-2.2811
X7.0827Y-4.1417
X7.0988Y-2.6063
X7.1024Y-2.2677
X7.1063Y-4.8898
X7.1102Y-4.8071
X7.1142Y-5.5315
X7.122Y-3.9449
X7.122Y-4.9331
X7.122Y-5.3622
X7.126Y-2.2795
X7.126Y-2.6811
X7.1378Y-3.8819
X7.1417Y-2.6299
X7.1417Y-3.1378
X7.1453Y-2.4685
X7.1457Y-4.5161
X7.1457Y-4.6496
X7.1575Y-3.8425
X7.1732Y-5.6535
X7.1811Y-3.3425
X7.1878Y-3.4094
X7.1878Y-3.4882
X7.189Y-3.2244
X7.2126Y-3.248
X7.2283Y-5.4606
X7.2441Y-3.7756
X7.2476Y-4.9528
X7.2544Y-5.0418
X7.2717Y-2.6299
X7.2717Y-3.0669
X7.2756Y-2.878
X7.2756Y-5.5
X7.2795Y-3.4606
X7.2795Y-3.5394
X7.2913Y-4.7638
X7.2988Y-2.8346
X7.2988Y-3.5118
X7.311Y-3.7835
X7.3189Y-4.7362
X7.3189Y-4.8264
X7.3346Y-4.2004
X7.3425Y-4.9173
X7.3543Y-5.4488
X7.3622Y-4.1811
X7.3701Y-2.6772
X7.3701Y-4.5866
X7.3701Y-4.8264
X7.374Y-2.5984
X7.3854Y-2.8339
X7.3854Y-3.0394
X7.3854Y-3.1181
X7.3854Y-3.1732
X7.3858Y-4.1614
X7.3937Y-4.685
X7.3937Y-4.7638
X7.3976Y-2.5748
X7.3976Y-3.1457
X7.398Y-2.8756
X7.4091Y-2.6547
X7.4134Y-3.5669
X7.4173Y-4.1031
X7.4173Y-4.9724
X7.4173Y-3.0941
X7.4252Y-2.4409
X7.4252Y-2.5472
X7.4252Y-2.8819
X7.4252Y-4.685
X7.4291Y-3.3307
X7.437Y-4.5197
X7.4528Y-2.6299
X7.4528Y-2.748
X7.4563Y-3.7429
X7.4606Y-2.6024
X7.4606Y-4.9252
X7.4617Y-2.2602
X7.4685Y-3.311
X7.4724Y-4.4291
X7.4764Y-2.7087
X7.4839Y-2.2795
X7.4843Y-2.6772
X7.4878Y-3.2737
X7.4882Y-4.4016
X7.5339Y-4.3795
X7.5479Y-4.3576
X7.55Y-2.3661
X7.5669Y-3.252
X7.572Y-4.3674
X7.573Y-2.3407
X7.5748Y-3.2913
X7.5748Y-3.6024
X7.5823Y-3.3425
X7.5827Y-3.0118
X7.587Y-4.2954
X7.5945Y-3.5472
X7.5949Y-3.3937
X7.5973Y-4.3349
X7.5984Y-2.3228
X7.5984Y-2.748
X7.6063Y-2.9961
X7.6063Y-3.1378
X7.6063Y-4.3622
X7.6075Y-3.4409
X7.6142Y-2.7756
X7.6181Y-4.6299
X7.6268Y-3.4936
X7.6299Y-2.315
X7.6299Y-3.189
T2
X4.0Y-5.1654
X4.374Y-2.8583
X4.374Y-3.4528
X4.374Y-4.0827
X4.374Y-4.7126
X4.374Y-5.2244
X4.5669Y-2.0394
X4.5709Y-2.5197
X4.5709Y-3.122
X4.5748Y-3.748
X4.5748Y-4.3819
X4.5787Y-4.8937
X4.6535Y-5.8071
X4.8465Y-2.5197
X4.8465Y-2.8622
X4.8465Y-3.1181
X4.8465Y-3.4528
X4.8465Y-3.748
X4.8465Y-4.0866
X4.8465Y-4.378
X4.8465Y-4.7126
X4.8465Y-4.9016
X5.0059Y-5.8563
X5.0787Y-2.0394
X5.0787Y-2.4803
X5.0827Y-3.0709
X5.0827Y-4.3307
X5.0837Y-3.7982
X5.1535Y-2.4803
X5.1535Y-3.0709
X5.1535Y-3.4449
X5.1535Y-3.7992
X5.1575Y-4.3307
X5.6299Y-2.4803
X5.6299Y-2.8976
X5.6299Y-3.3189
X5.6299Y-3.7362
X5.6299Y-4.1929
X5.6299Y-4.5394
X5.6299Y-4.874
X5.6299Y-5.2126
X5.9449Y-2.2677
X5.9449Y-2.374
X5.9449Y-2.6929
X5.9449Y-3.1378
X5.9449Y-4.0512
X5.9449Y-4.3268
X5.9449Y-4.6811
X5.9449Y-5.0394
X5.9488Y-2.0394
X5.9488Y-3.5512
X6.0118Y-2.1969
X6.0118Y-2.3228
X6.0118Y-2.5945
X6.0118Y-3.0394
X6.0984Y-5.4213
X6.1417Y-3.0433
X6.1417Y-3.3386
X6.1417Y-3.5
X6.1417Y-3.9764
X6.1417Y-4.2795
X6.1417Y-4.7126
X6.1417Y-4.9921
X6.3386Y-3.0
X6.3386Y-3.6378
X6.3425Y-4.374
X6.3661Y-5.0433
X6.5669Y-4.3701
X6.5669Y-5.0866
X6.5709Y-4.0157
X6.5709Y-3.0
X6.5709Y-3.4173
X6.5709Y-3.6378
X6.5866Y-2.5315
X6.8386Y-4.9016
X6.8425Y-4.6142
X6.8543Y-3.0866
X6.8543Y-3.6657
X6.9331Y-2.7402
X6.9331Y-3.0
X6.9331Y-3.2283
X6.9331Y-3.563
X6.9331Y-3.6535
X7.0118Y-3.7835
X7.0118Y-4.4488
X7.0118Y-4.6181
X7.0118Y-4.7126
X7.0614Y-5.715
X7.1811Y-3.5669
X7.1811Y-4.6457
X7.1811Y-5.1575
X7.185Y-4.4921
X7.2441Y-2.0358
X7.2441Y-2.4803
X7.2441Y-3.0315
X7.2441Y-3.6969
X7.311Y-3.5669
X7.3228Y-2.4016
X7.3228Y-2.7402
X7.3228Y-2.9528
X7.3228Y-3.2283
X7.3228Y-3.3661
X7.5079Y-2.0394
X7.5079Y-2.4764
X7.5118Y-4.8622
X7.5157Y-2.9094
X7.5157Y-3.4409
T3
X7.7165Y-4.6614
X7.7165Y-4.7402
X7.7165Y-4.8189
T4
X7.67Y-2.4409
X7.67Y-2.5409
X7.67Y-2.6409
X7.67Y-2.7409
X7.67Y-2.8409
X7.67Y-2.9409
X7.67Y-3.0409
X7.67Y-3.1409
X7.67Y-3.2409
X7.67Y-3.3409
X7.67Y-3.4409
X7.67Y-3.5409
X7.67Y-3.6409
X7.67Y-3.7409
X7.67Y-3.8409
X7.67Y-3.9409
X7.67Y-4.0409
X7.67Y-4.1409
X7.67Y-4.2409
X7.67Y-4.3409
X7.77Y-2.4409
X7.77Y-2.5409
X7.77Y-2.6409
X7.77Y-2.7409
X7.77Y-2.8409
X7.77Y-2.9409
X7.77Y-3.0409
X7.77Y-3.1409
X7.77Y-3.2409
X7.77Y-3.3409
X7.77Y-3.4409
X7.77Y-3.5409
X7.77Y-3.6409
X7.77Y-3.7409
X7.77Y-3.8409
X7.77Y-3.9409
X7.77Y-4.0409
X7.77Y-4.1409
X7.77Y-4.2409
X7.77Y-4.3409
X4.04Y-2.4409
X4.04Y-2.5409
X4.04Y-2.6409
X4.04Y-2.7409
X4.04Y-2.8409
X4.04Y-2.9409
X4.04Y-3.0409
X4.04Y-3.1409
X4.04Y-3.2409
X4.04Y-3.3409
X4.04Y-3.4409
X4.04Y-3.5409
X4.04Y-3.6409
X4.04Y-3.7409
X4.04Y-3.8409
X4.04Y-3.9409
X4.04Y-4.0409
X4.04Y-4.1409
X4.04Y-4.2409
X4.04Y-4.3409
X4.14Y-2.4409
X4.14Y-2.5409
X4.14Y-2.6409
X4.14Y-2.7409
X4.14Y-2.8409
X4.14Y-2.9409
X4.14Y-3.0409
X4.14Y-3.1409
X4.14Y-3.2409
X4.14Y-3.3409
X4.14Y-3.4409
X4.14Y-3.5409
X4.14Y-3.6409
X4.14Y-3.7409
X4.14Y-3.8409
X4.14Y-3.9409
X4.14Y-4.0409
X4.14Y-4.1409
X4.14Y-4.2409
X4.14Y-4.3409
X4.9555Y-5.7087
X4.9555Y-5.8087
X5.0555Y-5.7087
X5.0555Y-5.8087
X5.1555Y-5.7087
X5.1555Y-5.8087
X5.2555Y-5.7087
X5.2555Y-5.8087
X5.3555Y-5.7087
X5.3555Y-5.8087
X5.4555Y-5.7087
X5.4555Y-5.8087
X5.5555Y-5.7087
X5.5555Y-5.8087
X5.6555Y-5.7087
X5.6555Y-5.8087
X5.7555Y-5.7087
X5.7555Y-5.8087
X5.8555Y-5.7087
X5.8555Y-5.8087
X5.9555Y-5.7087
X5.9555Y-5.8087
X6.0555Y-5.7087
X6.0555Y-5.8087
X6.1555Y-5.7087
X6.1555Y-5.8087
X6.2555Y-5.7087
X6.2555Y-5.8087
X6.3555Y-5.7087
X6.3555Y-5.8087
X6.4555Y-5.7087
X6.4555Y-5.8087
X6.5555Y-5.7087
X6.5555Y-5.8087
X6.6555Y-5.7087
X6.6555Y-5.8087
X6.7555Y-5.7087
X6.7555Y-5.8087
X6.8555Y-5.7087
X6.8555Y-5.8087
T5
X7.5118Y-5.0472
X7.5118Y-5.2244
X7.7677Y-5.0472
X7.7677Y-5.2244
X7.0079Y-5.6614
X7.0079Y-5.8386
X7.2638Y-5.6614
X7.2638Y-5.8386
T6
X7.7165Y-4.5787
X7.7165Y-4.9016
T0
M30
