G04 #@! TF.GenerationSoftware,KiCad,Pcbnew,(5.1.6-0-10_14)*
G04 #@! TF.CreationDate,2021-01-22T08:09:55+01:00*
G04 #@! TF.ProjectId,registers,72656769-7374-4657-9273-2e6b69636164,2*
G04 #@! TF.SameCoordinates,Original*
G04 #@! TF.FileFunction,Legend,Top*
G04 #@! TF.FilePolarity,Positive*
%FSLAX46Y46*%
G04 Gerber Fmt 4.6, Leading zero omitted, Abs format (unit mm)*
G04 Created by KiCad (PCBNEW (5.1.6-0-10_14)) date 2021-01-22 08:09:55*
%MOMM*%
%LPD*%
G01*
G04 APERTURE LIST*
%ADD10C,0.150000*%
%ADD11C,0.300000*%
%ADD12C,0.120000*%
G04 APERTURE END LIST*
D10*
X182361904Y-99052380D02*
X182361904Y-98052380D01*
X182742857Y-98052380D01*
X182838095Y-98100000D01*
X182885714Y-98147619D01*
X182933333Y-98242857D01*
X182933333Y-98385714D01*
X182885714Y-98480952D01*
X182838095Y-98528571D01*
X182742857Y-98576190D01*
X182361904Y-98576190D01*
X184076190Y-99004761D02*
X184171428Y-99052380D01*
X184361904Y-99052380D01*
X184457142Y-99004761D01*
X184504761Y-98909523D01*
X184504761Y-98861904D01*
X184457142Y-98766666D01*
X184361904Y-98719047D01*
X184219047Y-98719047D01*
X184123809Y-98671428D01*
X184076190Y-98576190D01*
X184076190Y-98528571D01*
X184123809Y-98433333D01*
X184219047Y-98385714D01*
X184361904Y-98385714D01*
X184457142Y-98433333D01*
X185314285Y-99004761D02*
X185219047Y-99052380D01*
X185028571Y-99052380D01*
X184933333Y-99004761D01*
X184885714Y-98909523D01*
X184885714Y-98528571D01*
X184933333Y-98433333D01*
X185028571Y-98385714D01*
X185219047Y-98385714D01*
X185314285Y-98433333D01*
X185361904Y-98528571D01*
X185361904Y-98623809D01*
X184885714Y-98719047D01*
X185933333Y-99052380D02*
X185838095Y-99004761D01*
X185790476Y-98909523D01*
X185790476Y-98052380D01*
D11*
X178495238Y-141304761D02*
X177828571Y-140352380D01*
X177352380Y-141304761D02*
X177352380Y-139304761D01*
X178114285Y-139304761D01*
X178304761Y-139400000D01*
X178400000Y-139495238D01*
X178495238Y-139685714D01*
X178495238Y-139971428D01*
X178400000Y-140161904D01*
X178304761Y-140257142D01*
X178114285Y-140352380D01*
X177352380Y-140352380D01*
X179352380Y-140257142D02*
X180019047Y-140257142D01*
X180304761Y-141304761D02*
X179352380Y-141304761D01*
X179352380Y-139304761D01*
X180304761Y-139304761D01*
X181066666Y-141209523D02*
X181352380Y-141304761D01*
X181828571Y-141304761D01*
X182019047Y-141209523D01*
X182114285Y-141114285D01*
X182209523Y-140923809D01*
X182209523Y-140733333D01*
X182114285Y-140542857D01*
X182019047Y-140447619D01*
X181828571Y-140352380D01*
X181447619Y-140257142D01*
X181257142Y-140161904D01*
X181161904Y-140066666D01*
X181066666Y-139876190D01*
X181066666Y-139685714D01*
X181161904Y-139495238D01*
X181257142Y-139400000D01*
X181447619Y-139304761D01*
X181923809Y-139304761D01*
X182209523Y-139400000D01*
X183066666Y-140257142D02*
X183733333Y-140257142D01*
X184019047Y-141304761D02*
X183066666Y-141304761D01*
X183066666Y-139304761D01*
X184019047Y-139304761D01*
X184590476Y-139304761D02*
X185733333Y-139304761D01*
X185161904Y-141304761D02*
X185161904Y-139304761D01*
X191961904Y-136809523D02*
X192247619Y-136904761D01*
X192723809Y-136904761D01*
X192914285Y-136809523D01*
X193009523Y-136714285D01*
X193104761Y-136523809D01*
X193104761Y-136333333D01*
X193009523Y-136142857D01*
X192914285Y-136047619D01*
X192723809Y-135952380D01*
X192342857Y-135857142D01*
X192152380Y-135761904D01*
X192057142Y-135666666D01*
X191961904Y-135476190D01*
X191961904Y-135285714D01*
X192057142Y-135095238D01*
X192152380Y-135000000D01*
X192342857Y-134904761D01*
X192819047Y-134904761D01*
X193104761Y-135000000D01*
X193676190Y-134904761D02*
X194819047Y-134904761D01*
X194247619Y-136904761D02*
X194247619Y-134904761D01*
X195485714Y-135857142D02*
X196152380Y-135857142D01*
X196438095Y-136904761D02*
X195485714Y-136904761D01*
X195485714Y-134904761D01*
X196438095Y-134904761D01*
X197295238Y-136904761D02*
X197295238Y-134904761D01*
X198057142Y-134904761D01*
X198247619Y-135000000D01*
X198342857Y-135095238D01*
X198438095Y-135285714D01*
X198438095Y-135571428D01*
X198342857Y-135761904D01*
X198247619Y-135857142D01*
X198057142Y-135952380D01*
X197295238Y-135952380D01*
X136123809Y-135704761D02*
X136123809Y-133704761D01*
X136885714Y-133704761D01*
X137076190Y-133800000D01*
X137171428Y-133895238D01*
X137266666Y-134085714D01*
X137266666Y-134371428D01*
X137171428Y-134561904D01*
X137076190Y-134657142D01*
X136885714Y-134752380D01*
X136123809Y-134752380D01*
X139171428Y-135704761D02*
X138028571Y-135704761D01*
X138600000Y-135704761D02*
X138600000Y-133704761D01*
X138409523Y-133990476D01*
X138219047Y-134180952D01*
X138028571Y-134276190D01*
X136023809Y-94604761D02*
X136023809Y-92604761D01*
X136785714Y-92604761D01*
X136976190Y-92700000D01*
X137071428Y-92795238D01*
X137166666Y-92985714D01*
X137166666Y-93271428D01*
X137071428Y-93461904D01*
X136976190Y-93557142D01*
X136785714Y-93652380D01*
X136023809Y-93652380D01*
X138404761Y-92604761D02*
X138595238Y-92604761D01*
X138785714Y-92700000D01*
X138880952Y-92795238D01*
X138976190Y-92985714D01*
X139071428Y-93366666D01*
X139071428Y-93842857D01*
X138976190Y-94223809D01*
X138880952Y-94414285D01*
X138785714Y-94509523D01*
X138595238Y-94604761D01*
X138404761Y-94604761D01*
X138214285Y-94509523D01*
X138119047Y-94414285D01*
X138023809Y-94223809D01*
X137928571Y-93842857D01*
X137928571Y-93366666D01*
X138023809Y-92985714D01*
X138119047Y-92795238D01*
X138214285Y-92700000D01*
X138404761Y-92604761D01*
X116042857Y-135357142D02*
X116328571Y-135452380D01*
X116423809Y-135547619D01*
X116519047Y-135738095D01*
X116519047Y-136023809D01*
X116423809Y-136214285D01*
X116328571Y-136309523D01*
X116138095Y-136404761D01*
X115376190Y-136404761D01*
X115376190Y-134404761D01*
X116042857Y-134404761D01*
X116233333Y-134500000D01*
X116328571Y-134595238D01*
X116423809Y-134785714D01*
X116423809Y-134976190D01*
X116328571Y-135166666D01*
X116233333Y-135261904D01*
X116042857Y-135357142D01*
X115376190Y-135357142D01*
X161823809Y-74233333D02*
X162776190Y-74233333D01*
X161633333Y-74804761D02*
X162300000Y-72804761D01*
X162966666Y-74804761D01*
X169300000Y-131404761D02*
X169300000Y-129404761D01*
X171395238Y-131404761D02*
X170728571Y-130452380D01*
X170252380Y-131404761D02*
X170252380Y-129404761D01*
X171014285Y-129404761D01*
X171204761Y-129500000D01*
X171300000Y-129595238D01*
X171395238Y-129785714D01*
X171395238Y-130071428D01*
X171300000Y-130261904D01*
X171204761Y-130357142D01*
X171014285Y-130452380D01*
X170252380Y-130452380D01*
D10*
X163816666Y-136052380D02*
X164483333Y-136052380D01*
X164054761Y-137052380D01*
X179102380Y-136052380D02*
X179197619Y-136052380D01*
X179292857Y-136100000D01*
X179340476Y-136147619D01*
X179388095Y-136242857D01*
X179435714Y-136433333D01*
X179435714Y-136671428D01*
X179388095Y-136861904D01*
X179340476Y-136957142D01*
X179292857Y-137004761D01*
X179197619Y-137052380D01*
X179102380Y-137052380D01*
X179007142Y-137004761D01*
X178959523Y-136957142D01*
X178911904Y-136861904D01*
X178864285Y-136671428D01*
X178864285Y-136433333D01*
X178911904Y-136242857D01*
X178959523Y-136147619D01*
X179007142Y-136100000D01*
X179102380Y-136052380D01*
X165304761Y-52152380D02*
X165495238Y-52152380D01*
X165590476Y-52200000D01*
X165685714Y-52295238D01*
X165733333Y-52485714D01*
X165733333Y-52819047D01*
X165685714Y-53009523D01*
X165590476Y-53104761D01*
X165495238Y-53152380D01*
X165304761Y-53152380D01*
X165209523Y-53104761D01*
X165114285Y-53009523D01*
X165066666Y-52819047D01*
X165066666Y-52485714D01*
X165114285Y-52295238D01*
X165209523Y-52200000D01*
X165304761Y-52152380D01*
X163114285Y-53154761D02*
X163257142Y-53202380D01*
X163495238Y-53202380D01*
X163590476Y-53154761D01*
X163638095Y-53107142D01*
X163685714Y-53011904D01*
X163685714Y-52916666D01*
X163638095Y-52821428D01*
X163590476Y-52773809D01*
X163495238Y-52726190D01*
X163304761Y-52678571D01*
X163209523Y-52630952D01*
X163161904Y-52583333D01*
X163114285Y-52488095D01*
X163114285Y-52392857D01*
X163161904Y-52297619D01*
X163209523Y-52250000D01*
X163304761Y-52202380D01*
X163542857Y-52202380D01*
X163685714Y-52250000D01*
X161709523Y-53107142D02*
X161661904Y-53154761D01*
X161519047Y-53202380D01*
X161423809Y-53202380D01*
X161280952Y-53154761D01*
X161185714Y-53059523D01*
X161138095Y-52964285D01*
X161090476Y-52773809D01*
X161090476Y-52630952D01*
X161138095Y-52440476D01*
X161185714Y-52345238D01*
X161280952Y-52250000D01*
X161423809Y-52202380D01*
X161519047Y-52202380D01*
X161661904Y-52250000D01*
X161709523Y-52297619D01*
X159066666Y-52152380D02*
X159733333Y-52152380D01*
X159066666Y-53152380D01*
X159733333Y-53152380D01*
X154916666Y-72202380D02*
X155583333Y-72202380D01*
X155154761Y-73202380D01*
X169202380Y-72202380D02*
X169297619Y-72202380D01*
X169392857Y-72250000D01*
X169440476Y-72297619D01*
X169488095Y-72392857D01*
X169535714Y-72583333D01*
X169535714Y-72821428D01*
X169488095Y-73011904D01*
X169440476Y-73107142D01*
X169392857Y-73154761D01*
X169297619Y-73202380D01*
X169202380Y-73202380D01*
X169107142Y-73154761D01*
X169059523Y-73107142D01*
X169011904Y-73011904D01*
X168964285Y-72821428D01*
X168964285Y-72583333D01*
X169011904Y-72392857D01*
X169059523Y-72297619D01*
X169107142Y-72250000D01*
X169202380Y-72202380D01*
X108666666Y-141452380D02*
X109333333Y-141452380D01*
X108904761Y-142452380D01*
X122952380Y-141202380D02*
X123047619Y-141202380D01*
X123142857Y-141250000D01*
X123190476Y-141297619D01*
X123238095Y-141392857D01*
X123285714Y-141583333D01*
X123285714Y-141821428D01*
X123238095Y-142011904D01*
X123190476Y-142107142D01*
X123142857Y-142154761D01*
X123047619Y-142202380D01*
X122952380Y-142202380D01*
X122857142Y-142154761D01*
X122809523Y-142107142D01*
X122761904Y-142011904D01*
X122714285Y-141821428D01*
X122714285Y-141583333D01*
X122761904Y-141392857D01*
X122809523Y-141297619D01*
X122857142Y-141250000D01*
X122952380Y-141202380D01*
X134309523Y-91452380D02*
X133738095Y-91452380D01*
X134023809Y-91452380D02*
X134023809Y-90452380D01*
X133928571Y-90595238D01*
X133833333Y-90690476D01*
X133738095Y-90738095D01*
X135214285Y-90452380D02*
X134738095Y-90452380D01*
X134690476Y-90928571D01*
X134738095Y-90880952D01*
X134833333Y-90833333D01*
X135071428Y-90833333D01*
X135166666Y-90880952D01*
X135214285Y-90928571D01*
X135261904Y-91023809D01*
X135261904Y-91261904D01*
X135214285Y-91357142D01*
X135166666Y-91404761D01*
X135071428Y-91452380D01*
X134833333Y-91452380D01*
X134738095Y-91404761D01*
X134690476Y-91357142D01*
X134452380Y-60452380D02*
X134547619Y-60452380D01*
X134642857Y-60500000D01*
X134690476Y-60547619D01*
X134738095Y-60642857D01*
X134785714Y-60833333D01*
X134785714Y-61071428D01*
X134738095Y-61261904D01*
X134690476Y-61357142D01*
X134642857Y-61404761D01*
X134547619Y-61452380D01*
X134452380Y-61452380D01*
X134357142Y-61404761D01*
X134309523Y-61357142D01*
X134261904Y-61261904D01*
X134214285Y-61071428D01*
X134214285Y-60833333D01*
X134261904Y-60642857D01*
X134309523Y-60547619D01*
X134357142Y-60500000D01*
X134452380Y-60452380D01*
X134559523Y-132352380D02*
X133988095Y-132352380D01*
X134273809Y-132352380D02*
X134273809Y-131352380D01*
X134178571Y-131495238D01*
X134083333Y-131590476D01*
X133988095Y-131638095D01*
X135464285Y-131352380D02*
X134988095Y-131352380D01*
X134940476Y-131828571D01*
X134988095Y-131780952D01*
X135083333Y-131733333D01*
X135321428Y-131733333D01*
X135416666Y-131780952D01*
X135464285Y-131828571D01*
X135511904Y-131923809D01*
X135511904Y-132161904D01*
X135464285Y-132257142D01*
X135416666Y-132304761D01*
X135321428Y-132352380D01*
X135083333Y-132352380D01*
X134988095Y-132304761D01*
X134940476Y-132257142D01*
X134452380Y-101352380D02*
X134547619Y-101352380D01*
X134642857Y-101400000D01*
X134690476Y-101447619D01*
X134738095Y-101542857D01*
X134785714Y-101733333D01*
X134785714Y-101971428D01*
X134738095Y-102161904D01*
X134690476Y-102257142D01*
X134642857Y-102304761D01*
X134547619Y-102352380D01*
X134452380Y-102352380D01*
X134357142Y-102304761D01*
X134309523Y-102257142D01*
X134261904Y-102161904D01*
X134214285Y-101971428D01*
X134214285Y-101733333D01*
X134261904Y-101542857D01*
X134309523Y-101447619D01*
X134357142Y-101400000D01*
X134452380Y-101352380D01*
D12*
X183541422Y-135490000D02*
X184058578Y-135490000D01*
X183541422Y-136910000D02*
X184058578Y-136910000D01*
D10*
X155250000Y-93750000D02*
X161225000Y-93750000D01*
X156775000Y-100650000D02*
X161225000Y-100650000D01*
D12*
X122435000Y-144290000D02*
X118050000Y-144290000D01*
X122435000Y-147310000D02*
X122435000Y-144290000D01*
X118050000Y-147310000D02*
X122435000Y-147310000D01*
X175800000Y-113690000D02*
X173350000Y-113690000D01*
X174000000Y-116910000D02*
X175800000Y-116910000D01*
X176500000Y-119090000D02*
X172900000Y-119090000D01*
X176500000Y-119090000D02*
X178700000Y-119090000D01*
X176500000Y-124310000D02*
X174300000Y-124310000D01*
X176500000Y-124310000D02*
X178700000Y-124310000D01*
X145900000Y-126565000D02*
X142300000Y-126565000D01*
X145900000Y-126565000D02*
X148100000Y-126565000D01*
X145900000Y-132035000D02*
X143700000Y-132035000D01*
X145900000Y-132035000D02*
X148100000Y-132035000D01*
X145900000Y-118065000D02*
X142300000Y-118065000D01*
X145900000Y-118065000D02*
X148100000Y-118065000D01*
X145900000Y-123535000D02*
X143700000Y-123535000D01*
X145900000Y-123535000D02*
X148100000Y-123535000D01*
X145900000Y-109565000D02*
X142300000Y-109565000D01*
X145900000Y-109565000D02*
X148100000Y-109565000D01*
X145900000Y-115035000D02*
X143700000Y-115035000D01*
X145900000Y-115035000D02*
X148100000Y-115035000D01*
X146000000Y-100865000D02*
X142400000Y-100865000D01*
X146000000Y-100865000D02*
X148200000Y-100865000D01*
X146000000Y-106335000D02*
X143800000Y-106335000D01*
X146000000Y-106335000D02*
X148200000Y-106335000D01*
X146100000Y-89165000D02*
X142500000Y-89165000D01*
X146100000Y-89165000D02*
X148300000Y-89165000D01*
X146100000Y-94635000D02*
X143900000Y-94635000D01*
X146100000Y-94635000D02*
X148300000Y-94635000D01*
X146000000Y-78498332D02*
X142400000Y-78498332D01*
X146000000Y-78498332D02*
X148200000Y-78498332D01*
X146000000Y-83968332D02*
X143800000Y-83968332D01*
X146000000Y-83968332D02*
X148200000Y-83968332D01*
X146000000Y-67831666D02*
X142400000Y-67831666D01*
X146000000Y-67831666D02*
X148200000Y-67831666D01*
X146000000Y-73301666D02*
X143800000Y-73301666D01*
X146000000Y-73301666D02*
X148200000Y-73301666D01*
X146000000Y-57165000D02*
X142400000Y-57165000D01*
X146000000Y-57165000D02*
X148200000Y-57165000D01*
X146000000Y-62635000D02*
X143800000Y-62635000D01*
X146000000Y-62635000D02*
X148200000Y-62635000D01*
X184100000Y-85990000D02*
X180500000Y-85990000D01*
X184100000Y-85990000D02*
X186300000Y-85990000D01*
X184100000Y-91210000D02*
X181900000Y-91210000D01*
X184100000Y-91210000D02*
X186300000Y-91210000D01*
X159365000Y-61500000D02*
X159365000Y-65100000D01*
X159365000Y-61500000D02*
X159365000Y-59300000D01*
X164835000Y-61500000D02*
X164835000Y-63700000D01*
X164835000Y-61500000D02*
X164835000Y-59300000D01*
X170458578Y-123290000D02*
X169941422Y-123290000D01*
X170458578Y-124710000D02*
X169941422Y-124710000D01*
X169941422Y-122610000D02*
X170458578Y-122610000D01*
X169941422Y-121190000D02*
X170458578Y-121190000D01*
X117803922Y-112010000D02*
X118321078Y-112010000D01*
X117803922Y-110590000D02*
X118321078Y-110590000D01*
X174803922Y-95010000D02*
X175321078Y-95010000D01*
X174803922Y-93590000D02*
X175321078Y-93590000D01*
X161503922Y-129910000D02*
X162021078Y-129910000D01*
X161503922Y-128490000D02*
X162021078Y-128490000D01*
X192610000Y-62221078D02*
X192610000Y-61703922D01*
X191190000Y-62221078D02*
X191190000Y-61703922D01*
X162841422Y-76910000D02*
X163358578Y-76910000D01*
X162841422Y-75490000D02*
X163358578Y-75490000D01*
X178741422Y-115110000D02*
X179258578Y-115110000D01*
X178741422Y-113690000D02*
X179258578Y-113690000D01*
X173510000Y-77696078D02*
X173510000Y-77178922D01*
X172090000Y-77696078D02*
X172090000Y-77178922D01*
X182610000Y-120558578D02*
X182610000Y-120041422D01*
X181190000Y-120558578D02*
X181190000Y-120041422D01*
X183103922Y-75810000D02*
X183621078Y-75810000D01*
X183103922Y-74390000D02*
X183621078Y-74390000D01*
X151503922Y-67910000D02*
X152021078Y-67910000D01*
X151503922Y-66490000D02*
X152021078Y-66490000D01*
X149603922Y-56510000D02*
X150121078Y-56510000D01*
X149603922Y-55090000D02*
X150121078Y-55090000D01*
X151603922Y-109310000D02*
X152121078Y-109310000D01*
X151603922Y-107890000D02*
X152121078Y-107890000D01*
X151503922Y-79110000D02*
X152021078Y-79110000D01*
X151503922Y-77690000D02*
X152021078Y-77690000D01*
X151703922Y-127510000D02*
X152221078Y-127510000D01*
X151703922Y-126090000D02*
X152221078Y-126090000D01*
X151578922Y-118410000D02*
X152096078Y-118410000D01*
X151578922Y-116990000D02*
X152096078Y-116990000D01*
X129803922Y-96010000D02*
X130321078Y-96010000D01*
X129803922Y-94590000D02*
X130321078Y-94590000D01*
X118103922Y-95910000D02*
X118621078Y-95910000D01*
X118103922Y-94490000D02*
X118621078Y-94490000D01*
X117803922Y-79910000D02*
X118321078Y-79910000D01*
X117803922Y-78490000D02*
X118321078Y-78490000D01*
X191058578Y-74490000D02*
X190541422Y-74490000D01*
X191058578Y-75910000D02*
X190541422Y-75910000D01*
X183310000Y-62296078D02*
X183310000Y-61778922D01*
X181890000Y-62296078D02*
X181890000Y-61778922D01*
X129703922Y-65010000D02*
X130221078Y-65010000D01*
X129703922Y-63590000D02*
X130221078Y-63590000D01*
X129803922Y-80010000D02*
X130321078Y-80010000D01*
X129803922Y-78590000D02*
X130321078Y-78590000D01*
D10*
X186675000Y-64250000D02*
X185325000Y-64250000D01*
X186675000Y-69375000D02*
X191325000Y-69375000D01*
X186675000Y-64125000D02*
X191325000Y-64125000D01*
X186675000Y-69375000D02*
X186675000Y-69150000D01*
X191325000Y-69375000D02*
X191325000Y-69150000D01*
X191325000Y-64125000D02*
X191325000Y-64350000D01*
X186675000Y-64125000D02*
X186675000Y-64250000D01*
X154150000Y-130650000D02*
X160125000Y-130650000D01*
X155675000Y-137550000D02*
X160125000Y-137550000D01*
D12*
X186110000Y-114858578D02*
X186110000Y-114341422D01*
X184690000Y-114858578D02*
X184690000Y-114341422D01*
X184750000Y-146800000D02*
X184750000Y-145300000D01*
X183500000Y-142800000D02*
X179000000Y-142800000D01*
X177750000Y-145300000D02*
X177750000Y-146800000D01*
X179000000Y-149300000D02*
X183500000Y-149300000D01*
X197550000Y-131200000D02*
X197550000Y-129700000D01*
X196300000Y-127200000D02*
X191800000Y-127200000D01*
X190550000Y-129700000D02*
X190550000Y-131200000D01*
X191800000Y-133700000D02*
X196300000Y-133700000D01*
D10*
X110250000Y-125550000D02*
X116225000Y-125550000D01*
X111775000Y-132450000D02*
X116225000Y-132450000D01*
X110250000Y-96550000D02*
X116225000Y-96550000D01*
X111775000Y-103450000D02*
X116225000Y-103450000D01*
X166000000Y-79550000D02*
X171975000Y-79550000D01*
X167525000Y-86450000D02*
X171975000Y-86450000D01*
X167350000Y-95550000D02*
X173325000Y-95550000D01*
X168875000Y-102450000D02*
X173325000Y-102450000D01*
X122250000Y-112550000D02*
X128225000Y-112550000D01*
X123775000Y-119450000D02*
X128225000Y-119450000D01*
X110250000Y-112550000D02*
X116225000Y-112550000D01*
X111775000Y-119450000D02*
X116225000Y-119450000D01*
X122250000Y-96550000D02*
X128225000Y-96550000D01*
X123775000Y-103450000D02*
X128225000Y-103450000D01*
X122250000Y-80550000D02*
X128225000Y-80550000D01*
X123775000Y-87450000D02*
X128225000Y-87450000D01*
X110250000Y-80550000D02*
X116225000Y-80550000D01*
X111775000Y-87450000D02*
X116225000Y-87450000D01*
X110250000Y-65550000D02*
X116225000Y-65550000D01*
X111775000Y-72450000D02*
X116225000Y-72450000D01*
X122250000Y-65550000D02*
X128225000Y-65550000D01*
X123775000Y-72450000D02*
X128225000Y-72450000D01*
X155250000Y-77550000D02*
X161225000Y-77550000D01*
X156775000Y-84450000D02*
X161225000Y-84450000D01*
X155250000Y-112550000D02*
X161225000Y-112550000D01*
X156775000Y-119450000D02*
X161225000Y-119450000D01*
X184700000Y-123025000D02*
X184700000Y-124375000D01*
X189825000Y-123025000D02*
X189825000Y-118375000D01*
X184575000Y-123025000D02*
X184575000Y-118375000D01*
X189825000Y-123025000D02*
X189600000Y-123025000D01*
X189825000Y-118375000D02*
X189600000Y-118375000D01*
X184575000Y-118375000D02*
X184800000Y-118375000D01*
X184575000Y-123025000D02*
X184700000Y-123025000D01*
X177275000Y-64300000D02*
X175925000Y-64300000D01*
X177275000Y-69425000D02*
X181925000Y-69425000D01*
X177275000Y-64175000D02*
X181925000Y-64175000D01*
X177275000Y-69425000D02*
X177275000Y-69200000D01*
X181925000Y-69425000D02*
X181925000Y-69200000D01*
X181925000Y-64175000D02*
X181925000Y-64400000D01*
X177275000Y-64175000D02*
X177275000Y-64300000D01*
X186675000Y-76700000D02*
X185325000Y-76700000D01*
X186675000Y-81825000D02*
X191325000Y-81825000D01*
X186675000Y-76575000D02*
X191325000Y-76575000D01*
X186675000Y-81825000D02*
X186675000Y-81600000D01*
X191325000Y-81825000D02*
X191325000Y-81600000D01*
X191325000Y-76575000D02*
X191325000Y-76800000D01*
X186675000Y-76575000D02*
X186675000Y-76700000D01*
X177375000Y-76600000D02*
X176025000Y-76600000D01*
X177375000Y-81725000D02*
X182025000Y-81725000D01*
X177375000Y-76475000D02*
X182025000Y-76475000D01*
X177375000Y-81725000D02*
X177375000Y-81500000D01*
X182025000Y-81725000D02*
X182025000Y-81500000D01*
X182025000Y-76475000D02*
X182025000Y-76700000D01*
X177375000Y-76475000D02*
X177375000Y-76600000D01*
D12*
X151941422Y-101090000D02*
X152458578Y-101090000D01*
X151941422Y-102510000D02*
X152458578Y-102510000D01*
X162778922Y-93110000D02*
X163296078Y-93110000D01*
X162778922Y-91690000D02*
X163296078Y-91690000D01*
X162778922Y-110390000D02*
X163296078Y-110390000D01*
X162778922Y-111810000D02*
X163296078Y-111810000D01*
X157658578Y-58290000D02*
X157141422Y-58290000D01*
X157658578Y-59710000D02*
X157141422Y-59710000D01*
X117903922Y-125010000D02*
X118421078Y-125010000D01*
X117903922Y-123590000D02*
X118421078Y-123590000D01*
X129778922Y-112010000D02*
X130296078Y-112010000D01*
X129778922Y-110590000D02*
X130296078Y-110590000D01*
X151678922Y-89710000D02*
X152196078Y-89710000D01*
X151678922Y-88290000D02*
X152196078Y-88290000D01*
X188790000Y-86758578D02*
X188790000Y-86241422D01*
X190210000Y-86758578D02*
X190210000Y-86241422D01*
X117903922Y-64710000D02*
X118421078Y-64710000D01*
X117903922Y-63290000D02*
X118421078Y-63290000D01*
X183110000Y-128741422D02*
X183110000Y-129258578D01*
X181690000Y-128741422D02*
X181690000Y-129258578D01*
X187003922Y-130290000D02*
X187521078Y-130290000D01*
X187003922Y-131710000D02*
X187521078Y-131710000D01*
X179610000Y-135100000D02*
X179610000Y-132415000D01*
X179610000Y-132415000D02*
X177690000Y-132415000D01*
X177690000Y-132415000D02*
X177690000Y-135100000D01*
X175690000Y-132415000D02*
X175690000Y-135100000D01*
X177610000Y-132415000D02*
X175690000Y-132415000D01*
X177610000Y-135100000D02*
X177610000Y-132415000D01*
X175610000Y-135100000D02*
X175610000Y-132415000D01*
X175610000Y-132415000D02*
X173690000Y-132415000D01*
X173690000Y-132415000D02*
X173690000Y-135100000D01*
X171690000Y-132415000D02*
X171690000Y-135100000D01*
X173610000Y-132415000D02*
X171690000Y-132415000D01*
X173610000Y-135100000D02*
X173610000Y-132415000D01*
X171610000Y-135100000D02*
X171610000Y-132415000D01*
X171610000Y-132415000D02*
X169690000Y-132415000D01*
X169690000Y-132415000D02*
X169690000Y-135100000D01*
X167690000Y-132415000D02*
X167690000Y-135100000D01*
X169610000Y-132415000D02*
X167690000Y-132415000D01*
X169610000Y-135100000D02*
X169610000Y-132415000D01*
X167610000Y-135100000D02*
X167610000Y-132415000D01*
X167610000Y-132415000D02*
X165690000Y-132415000D01*
X165690000Y-132415000D02*
X165690000Y-135100000D01*
X163690000Y-132415000D02*
X163690000Y-135100000D01*
X165610000Y-132415000D02*
X163690000Y-132415000D01*
X165610000Y-135100000D02*
X165610000Y-132415000D01*
X158390000Y-53565000D02*
X158390000Y-56250000D01*
X160310000Y-53565000D02*
X158390000Y-53565000D01*
X160310000Y-56250000D02*
X160310000Y-53565000D01*
X162310000Y-56250000D02*
X162310000Y-53565000D01*
X162310000Y-53565000D02*
X160390000Y-53565000D01*
X160390000Y-53565000D02*
X160390000Y-56250000D01*
X162390000Y-53565000D02*
X162390000Y-56250000D01*
X164310000Y-53565000D02*
X162390000Y-53565000D01*
X164310000Y-56250000D02*
X164310000Y-53565000D01*
X164390000Y-53565000D02*
X164390000Y-56250000D01*
X166310000Y-53565000D02*
X164390000Y-53565000D01*
X166310000Y-56250000D02*
X166310000Y-53565000D01*
X184960000Y-97585000D02*
X184960000Y-94900000D01*
X183040000Y-97585000D02*
X184960000Y-97585000D01*
X183040000Y-94900000D02*
X183040000Y-97585000D01*
X135733000Y-61923000D02*
X138418000Y-61923000D01*
X135733000Y-60003000D02*
X135733000Y-61923000D01*
X138418000Y-60003000D02*
X135733000Y-60003000D01*
X135733000Y-63923000D02*
X138418000Y-63923000D01*
X135733000Y-62003000D02*
X135733000Y-63923000D01*
X138418000Y-62003000D02*
X135733000Y-62003000D01*
X138418000Y-64003000D02*
X135733000Y-64003000D01*
X135733000Y-64003000D02*
X135733000Y-65923000D01*
X135733000Y-65923000D02*
X138418000Y-65923000D01*
X135733000Y-67923000D02*
X138418000Y-67923000D01*
X135733000Y-66003000D02*
X135733000Y-67923000D01*
X138418000Y-66003000D02*
X135733000Y-66003000D01*
X138418000Y-68003000D02*
X135733000Y-68003000D01*
X135733000Y-68003000D02*
X135733000Y-69923000D01*
X135733000Y-69923000D02*
X138418000Y-69923000D01*
X135733000Y-71923000D02*
X138418000Y-71923000D01*
X135733000Y-70003000D02*
X135733000Y-71923000D01*
X138418000Y-70003000D02*
X135733000Y-70003000D01*
X135733000Y-73923000D02*
X138418000Y-73923000D01*
X135733000Y-72003000D02*
X135733000Y-73923000D01*
X138418000Y-72003000D02*
X135733000Y-72003000D01*
X135733000Y-75923000D02*
X138418000Y-75923000D01*
X135733000Y-74003000D02*
X135733000Y-75923000D01*
X138418000Y-74003000D02*
X135733000Y-74003000D01*
X138418000Y-76003000D02*
X135733000Y-76003000D01*
X135733000Y-76003000D02*
X135733000Y-77923000D01*
X135733000Y-77923000D02*
X138418000Y-77923000D01*
X138418000Y-78003000D02*
X135733000Y-78003000D01*
X135733000Y-78003000D02*
X135733000Y-79923000D01*
X135733000Y-79923000D02*
X138418000Y-79923000D01*
X135733000Y-81923000D02*
X138418000Y-81923000D01*
X135733000Y-80003000D02*
X135733000Y-81923000D01*
X138418000Y-80003000D02*
X135733000Y-80003000D01*
X135733000Y-83923000D02*
X138418000Y-83923000D01*
X135733000Y-82003000D02*
X135733000Y-83923000D01*
X138418000Y-82003000D02*
X135733000Y-82003000D01*
X135733000Y-85923000D02*
X138418000Y-85923000D01*
X135733000Y-84003000D02*
X135733000Y-85923000D01*
X138418000Y-84003000D02*
X135733000Y-84003000D01*
X135733000Y-87923000D02*
X138418000Y-87923000D01*
X135733000Y-86003000D02*
X135733000Y-87923000D01*
X138418000Y-86003000D02*
X135733000Y-86003000D01*
X138418000Y-88003000D02*
X135733000Y-88003000D01*
X135733000Y-88003000D02*
X135733000Y-89923000D01*
X135733000Y-89923000D02*
X138418000Y-89923000D01*
X138418000Y-90003000D02*
X135733000Y-90003000D01*
X135733000Y-90003000D02*
X135733000Y-91923000D01*
X135733000Y-91923000D02*
X138418000Y-91923000D01*
X135733000Y-102823000D02*
X138418000Y-102823000D01*
X135733000Y-100903000D02*
X135733000Y-102823000D01*
X138418000Y-100903000D02*
X135733000Y-100903000D01*
X138418000Y-102903000D02*
X135733000Y-102903000D01*
X135733000Y-102903000D02*
X135733000Y-104823000D01*
X135733000Y-104823000D02*
X138418000Y-104823000D01*
X138418000Y-104903000D02*
X135733000Y-104903000D01*
X135733000Y-104903000D02*
X135733000Y-106823000D01*
X135733000Y-106823000D02*
X138418000Y-106823000D01*
X135733000Y-108823000D02*
X138418000Y-108823000D01*
X135733000Y-106903000D02*
X135733000Y-108823000D01*
X138418000Y-106903000D02*
X135733000Y-106903000D01*
X135733000Y-110823000D02*
X138418000Y-110823000D01*
X135733000Y-108903000D02*
X135733000Y-110823000D01*
X138418000Y-108903000D02*
X135733000Y-108903000D01*
X135733000Y-112823000D02*
X138418000Y-112823000D01*
X135733000Y-110903000D02*
X135733000Y-112823000D01*
X138418000Y-110903000D02*
X135733000Y-110903000D01*
X138418000Y-112903000D02*
X135733000Y-112903000D01*
X135733000Y-112903000D02*
X135733000Y-114823000D01*
X135733000Y-114823000D02*
X138418000Y-114823000D01*
X135733000Y-116823000D02*
X138418000Y-116823000D01*
X135733000Y-114903000D02*
X135733000Y-116823000D01*
X138418000Y-114903000D02*
X135733000Y-114903000D01*
X135733000Y-118823000D02*
X138418000Y-118823000D01*
X135733000Y-116903000D02*
X135733000Y-118823000D01*
X138418000Y-116903000D02*
X135733000Y-116903000D01*
X135733000Y-120823000D02*
X138418000Y-120823000D01*
X135733000Y-118903000D02*
X135733000Y-120823000D01*
X138418000Y-118903000D02*
X135733000Y-118903000D01*
X138418000Y-120903000D02*
X135733000Y-120903000D01*
X135733000Y-120903000D02*
X135733000Y-122823000D01*
X135733000Y-122823000D02*
X138418000Y-122823000D01*
X138418000Y-122903000D02*
X135733000Y-122903000D01*
X135733000Y-122903000D02*
X135733000Y-124823000D01*
X135733000Y-124823000D02*
X138418000Y-124823000D01*
X135733000Y-126823000D02*
X138418000Y-126823000D01*
X135733000Y-124903000D02*
X135733000Y-126823000D01*
X138418000Y-124903000D02*
X135733000Y-124903000D01*
X135733000Y-128823000D02*
X138418000Y-128823000D01*
X135733000Y-126903000D02*
X135733000Y-128823000D01*
X138418000Y-126903000D02*
X135733000Y-126903000D01*
X135733000Y-130823000D02*
X138418000Y-130823000D01*
X135733000Y-128903000D02*
X135733000Y-130823000D01*
X138418000Y-128903000D02*
X135733000Y-128903000D01*
X135733000Y-132823000D02*
X138418000Y-132823000D01*
X135733000Y-130903000D02*
X135733000Y-132823000D01*
X138418000Y-130903000D02*
X135733000Y-130903000D01*
X123960000Y-140000000D02*
X123960000Y-137315000D01*
X123960000Y-137315000D02*
X122040000Y-137315000D01*
X122040000Y-137315000D02*
X122040000Y-140000000D01*
X121960000Y-140000000D02*
X121960000Y-137315000D01*
X121960000Y-137315000D02*
X120040000Y-137315000D01*
X120040000Y-137315000D02*
X120040000Y-140000000D01*
X119960000Y-140000000D02*
X119960000Y-137315000D01*
X119960000Y-137315000D02*
X118040000Y-137315000D01*
X118040000Y-137315000D02*
X118040000Y-140000000D01*
X117960000Y-140000000D02*
X117960000Y-137315000D01*
X117960000Y-137315000D02*
X116040000Y-137315000D01*
X116040000Y-137315000D02*
X116040000Y-140000000D01*
X115960000Y-140000000D02*
X115960000Y-137315000D01*
X115960000Y-137315000D02*
X114040000Y-137315000D01*
X114040000Y-137315000D02*
X114040000Y-140000000D01*
X113960000Y-140000000D02*
X113960000Y-137315000D01*
X113960000Y-137315000D02*
X112040000Y-137315000D01*
X112040000Y-137315000D02*
X112040000Y-140000000D01*
X111960000Y-140000000D02*
X111960000Y-137315000D01*
X111960000Y-137315000D02*
X110040000Y-137315000D01*
X110040000Y-137315000D02*
X110040000Y-140000000D01*
X109960000Y-140000000D02*
X109960000Y-137315000D01*
X109960000Y-137315000D02*
X108040000Y-137315000D01*
X108040000Y-137315000D02*
X108040000Y-140000000D01*
X170210000Y-70750000D02*
X170210000Y-68065000D01*
X170210000Y-68065000D02*
X168290000Y-68065000D01*
X168290000Y-68065000D02*
X168290000Y-70750000D01*
X168210000Y-70750000D02*
X168210000Y-68065000D01*
X168210000Y-68065000D02*
X166290000Y-68065000D01*
X166290000Y-68065000D02*
X166290000Y-70750000D01*
X166210000Y-70750000D02*
X166210000Y-68065000D01*
X166210000Y-68065000D02*
X164290000Y-68065000D01*
X164290000Y-68065000D02*
X164290000Y-70750000D01*
X164210000Y-70750000D02*
X164210000Y-68065000D01*
X164210000Y-68065000D02*
X162290000Y-68065000D01*
X162290000Y-68065000D02*
X162290000Y-70750000D01*
X162210000Y-70750000D02*
X162210000Y-68065000D01*
X162210000Y-68065000D02*
X160290000Y-68065000D01*
X160290000Y-68065000D02*
X160290000Y-70750000D01*
X158290000Y-68065000D02*
X158290000Y-70750000D01*
X160210000Y-68065000D02*
X158290000Y-68065000D01*
X160210000Y-70750000D02*
X160210000Y-68065000D01*
X156290000Y-68065000D02*
X156290000Y-70750000D01*
X158210000Y-68065000D02*
X156290000Y-68065000D01*
X158210000Y-70750000D02*
X158210000Y-68065000D01*
X156210000Y-70750000D02*
X156210000Y-68065000D01*
X156210000Y-68065000D02*
X154290000Y-68065000D01*
X154290000Y-68065000D02*
X154290000Y-70750000D01*
X103321078Y-129290000D02*
X102803922Y-129290000D01*
X103321078Y-130710000D02*
X102803922Y-130710000D01*
X103321078Y-128710000D02*
X102803922Y-128710000D01*
X103321078Y-127290000D02*
X102803922Y-127290000D01*
X103321078Y-125290000D02*
X102803922Y-125290000D01*
X103321078Y-126710000D02*
X102803922Y-126710000D01*
X103258578Y-124710000D02*
X102741422Y-124710000D01*
X103258578Y-123290000D02*
X102741422Y-123290000D01*
X103258578Y-121290000D02*
X102741422Y-121290000D01*
X103258578Y-122710000D02*
X102741422Y-122710000D01*
X103258578Y-120710000D02*
X102741422Y-120710000D01*
X103258578Y-119290000D02*
X102741422Y-119290000D01*
X103258578Y-117290000D02*
X102741422Y-117290000D01*
X103258578Y-118710000D02*
X102741422Y-118710000D01*
X103258578Y-116710000D02*
X102741422Y-116710000D01*
X103258578Y-115290000D02*
X102741422Y-115290000D01*
X187521078Y-133710000D02*
X187003922Y-133710000D01*
X187521078Y-132290000D02*
X187003922Y-132290000D01*
X183110000Y-124741422D02*
X183110000Y-125258578D01*
X181690000Y-124741422D02*
X181690000Y-125258578D01*
X187510000Y-139941422D02*
X187510000Y-140458578D01*
X186090000Y-139941422D02*
X186090000Y-140458578D01*
X187490000Y-127841422D02*
X187490000Y-128358578D01*
X188910000Y-127841422D02*
X188910000Y-128358578D01*
X186310000Y-126741422D02*
X186310000Y-127258578D01*
X184890000Y-126741422D02*
X184890000Y-127258578D01*
X193740000Y-124810000D02*
X193740000Y-115990000D01*
X193740000Y-115990000D02*
X194050000Y-115990000D01*
X198260000Y-115990000D02*
X198260000Y-124810000D01*
X194050000Y-124810000D02*
X193740000Y-124810000D01*
X198260000Y-124810000D02*
X197950000Y-124810000D01*
X198260000Y-115990000D02*
X197950000Y-115990000D01*
X193040000Y-122900000D02*
X193540000Y-122400000D01*
X193540000Y-122400000D02*
X193040000Y-121900000D01*
X193040000Y-121900000D02*
X193040000Y-122900000D01*
D10*
X183633333Y-135002380D02*
X183300000Y-134526190D01*
X183061904Y-135002380D02*
X183061904Y-134002380D01*
X183442857Y-134002380D01*
X183538095Y-134050000D01*
X183585714Y-134097619D01*
X183633333Y-134192857D01*
X183633333Y-134335714D01*
X183585714Y-134430952D01*
X183538095Y-134478571D01*
X183442857Y-134526190D01*
X183061904Y-134526190D01*
X183966666Y-134002380D02*
X184585714Y-134002380D01*
X184252380Y-134383333D01*
X184395238Y-134383333D01*
X184490476Y-134430952D01*
X184538095Y-134478571D01*
X184585714Y-134573809D01*
X184585714Y-134811904D01*
X184538095Y-134907142D01*
X184490476Y-134954761D01*
X184395238Y-135002380D01*
X184109523Y-135002380D01*
X184014285Y-134954761D01*
X183966666Y-134907142D01*
X158238095Y-92352380D02*
X158238095Y-93161904D01*
X158285714Y-93257142D01*
X158333333Y-93304761D01*
X158428571Y-93352380D01*
X158619047Y-93352380D01*
X158714285Y-93304761D01*
X158761904Y-93257142D01*
X158809523Y-93161904D01*
X158809523Y-92352380D01*
X159238095Y-92447619D02*
X159285714Y-92400000D01*
X159380952Y-92352380D01*
X159619047Y-92352380D01*
X159714285Y-92400000D01*
X159761904Y-92447619D01*
X159809523Y-92542857D01*
X159809523Y-92638095D01*
X159761904Y-92780952D01*
X159190476Y-93352380D01*
X159809523Y-93352380D01*
X119157142Y-148507142D02*
X119109523Y-148554761D01*
X118966666Y-148602380D01*
X118871428Y-148602380D01*
X118728571Y-148554761D01*
X118633333Y-148459523D01*
X118585714Y-148364285D01*
X118538095Y-148173809D01*
X118538095Y-148030952D01*
X118585714Y-147840476D01*
X118633333Y-147745238D01*
X118728571Y-147650000D01*
X118871428Y-147602380D01*
X118966666Y-147602380D01*
X119109523Y-147650000D01*
X119157142Y-147697619D01*
X119490476Y-147602380D02*
X120109523Y-147602380D01*
X119776190Y-147983333D01*
X119919047Y-147983333D01*
X120014285Y-148030952D01*
X120061904Y-148078571D01*
X120109523Y-148173809D01*
X120109523Y-148411904D01*
X120061904Y-148507142D01*
X120014285Y-148554761D01*
X119919047Y-148602380D01*
X119633333Y-148602380D01*
X119538095Y-148554761D01*
X119490476Y-148507142D01*
X120680952Y-148030952D02*
X120585714Y-147983333D01*
X120538095Y-147935714D01*
X120490476Y-147840476D01*
X120490476Y-147792857D01*
X120538095Y-147697619D01*
X120585714Y-147650000D01*
X120680952Y-147602380D01*
X120871428Y-147602380D01*
X120966666Y-147650000D01*
X121014285Y-147697619D01*
X121061904Y-147792857D01*
X121061904Y-147840476D01*
X121014285Y-147935714D01*
X120966666Y-147983333D01*
X120871428Y-148030952D01*
X120680952Y-148030952D01*
X120585714Y-148078571D01*
X120538095Y-148126190D01*
X120490476Y-148221428D01*
X120490476Y-148411904D01*
X120538095Y-148507142D01*
X120585714Y-148554761D01*
X120680952Y-148602380D01*
X120871428Y-148602380D01*
X120966666Y-148554761D01*
X121014285Y-148507142D01*
X121061904Y-148411904D01*
X121061904Y-148221428D01*
X121014285Y-148126190D01*
X120966666Y-148078571D01*
X120871428Y-148030952D01*
X171961904Y-112052380D02*
X171961904Y-112861904D01*
X172009523Y-112957142D01*
X172057142Y-113004761D01*
X172152380Y-113052380D01*
X172342857Y-113052380D01*
X172438095Y-113004761D01*
X172485714Y-112957142D01*
X172533333Y-112861904D01*
X172533333Y-112052380D01*
X172914285Y-112052380D02*
X173533333Y-112052380D01*
X173200000Y-112433333D01*
X173342857Y-112433333D01*
X173438095Y-112480952D01*
X173485714Y-112528571D01*
X173533333Y-112623809D01*
X173533333Y-112861904D01*
X173485714Y-112957142D01*
X173438095Y-113004761D01*
X173342857Y-113052380D01*
X173057142Y-113052380D01*
X172961904Y-113004761D01*
X172914285Y-112957142D01*
X174485714Y-113052380D02*
X173914285Y-113052380D01*
X174200000Y-113052380D02*
X174200000Y-112052380D01*
X174104761Y-112195238D01*
X174009523Y-112290476D01*
X173914285Y-112338095D01*
X175261904Y-117702380D02*
X175261904Y-118511904D01*
X175309523Y-118607142D01*
X175357142Y-118654761D01*
X175452380Y-118702380D01*
X175642857Y-118702380D01*
X175738095Y-118654761D01*
X175785714Y-118607142D01*
X175833333Y-118511904D01*
X175833333Y-117702380D01*
X176214285Y-117702380D02*
X176833333Y-117702380D01*
X176500000Y-118083333D01*
X176642857Y-118083333D01*
X176738095Y-118130952D01*
X176785714Y-118178571D01*
X176833333Y-118273809D01*
X176833333Y-118511904D01*
X176785714Y-118607142D01*
X176738095Y-118654761D01*
X176642857Y-118702380D01*
X176357142Y-118702380D01*
X176261904Y-118654761D01*
X176214285Y-118607142D01*
X177452380Y-117702380D02*
X177547619Y-117702380D01*
X177642857Y-117750000D01*
X177690476Y-117797619D01*
X177738095Y-117892857D01*
X177785714Y-118083333D01*
X177785714Y-118321428D01*
X177738095Y-118511904D01*
X177690476Y-118607142D01*
X177642857Y-118654761D01*
X177547619Y-118702380D01*
X177452380Y-118702380D01*
X177357142Y-118654761D01*
X177309523Y-118607142D01*
X177261904Y-118511904D01*
X177214285Y-118321428D01*
X177214285Y-118083333D01*
X177261904Y-117892857D01*
X177309523Y-117797619D01*
X177357142Y-117750000D01*
X177452380Y-117702380D01*
X144661904Y-125302380D02*
X144661904Y-126111904D01*
X144709523Y-126207142D01*
X144757142Y-126254761D01*
X144852380Y-126302380D01*
X145042857Y-126302380D01*
X145138095Y-126254761D01*
X145185714Y-126207142D01*
X145233333Y-126111904D01*
X145233333Y-125302380D01*
X145661904Y-125397619D02*
X145709523Y-125350000D01*
X145804761Y-125302380D01*
X146042857Y-125302380D01*
X146138095Y-125350000D01*
X146185714Y-125397619D01*
X146233333Y-125492857D01*
X146233333Y-125588095D01*
X146185714Y-125730952D01*
X145614285Y-126302380D01*
X146233333Y-126302380D01*
X146614285Y-125397619D02*
X146661904Y-125350000D01*
X146757142Y-125302380D01*
X146995238Y-125302380D01*
X147090476Y-125350000D01*
X147138095Y-125397619D01*
X147185714Y-125492857D01*
X147185714Y-125588095D01*
X147138095Y-125730952D01*
X146566666Y-126302380D01*
X147185714Y-126302380D01*
X144661904Y-116802380D02*
X144661904Y-117611904D01*
X144709523Y-117707142D01*
X144757142Y-117754761D01*
X144852380Y-117802380D01*
X145042857Y-117802380D01*
X145138095Y-117754761D01*
X145185714Y-117707142D01*
X145233333Y-117611904D01*
X145233333Y-116802380D01*
X145661904Y-116897619D02*
X145709523Y-116850000D01*
X145804761Y-116802380D01*
X146042857Y-116802380D01*
X146138095Y-116850000D01*
X146185714Y-116897619D01*
X146233333Y-116992857D01*
X146233333Y-117088095D01*
X146185714Y-117230952D01*
X145614285Y-117802380D01*
X146233333Y-117802380D01*
X147185714Y-117802380D02*
X146614285Y-117802380D01*
X146900000Y-117802380D02*
X146900000Y-116802380D01*
X146804761Y-116945238D01*
X146709523Y-117040476D01*
X146614285Y-117088095D01*
X144661904Y-108302380D02*
X144661904Y-109111904D01*
X144709523Y-109207142D01*
X144757142Y-109254761D01*
X144852380Y-109302380D01*
X145042857Y-109302380D01*
X145138095Y-109254761D01*
X145185714Y-109207142D01*
X145233333Y-109111904D01*
X145233333Y-108302380D01*
X146233333Y-109302380D02*
X145661904Y-109302380D01*
X145947619Y-109302380D02*
X145947619Y-108302380D01*
X145852380Y-108445238D01*
X145757142Y-108540476D01*
X145661904Y-108588095D01*
X146804761Y-108730952D02*
X146709523Y-108683333D01*
X146661904Y-108635714D01*
X146614285Y-108540476D01*
X146614285Y-108492857D01*
X146661904Y-108397619D01*
X146709523Y-108350000D01*
X146804761Y-108302380D01*
X146995238Y-108302380D01*
X147090476Y-108350000D01*
X147138095Y-108397619D01*
X147185714Y-108492857D01*
X147185714Y-108540476D01*
X147138095Y-108635714D01*
X147090476Y-108683333D01*
X146995238Y-108730952D01*
X146804761Y-108730952D01*
X146709523Y-108778571D01*
X146661904Y-108826190D01*
X146614285Y-108921428D01*
X146614285Y-109111904D01*
X146661904Y-109207142D01*
X146709523Y-109254761D01*
X146804761Y-109302380D01*
X146995238Y-109302380D01*
X147090476Y-109254761D01*
X147138095Y-109207142D01*
X147185714Y-109111904D01*
X147185714Y-108921428D01*
X147138095Y-108826190D01*
X147090476Y-108778571D01*
X146995238Y-108730952D01*
X144761904Y-99602380D02*
X144761904Y-100411904D01*
X144809523Y-100507142D01*
X144857142Y-100554761D01*
X144952380Y-100602380D01*
X145142857Y-100602380D01*
X145238095Y-100554761D01*
X145285714Y-100507142D01*
X145333333Y-100411904D01*
X145333333Y-99602380D01*
X146333333Y-100602380D02*
X145761904Y-100602380D01*
X146047619Y-100602380D02*
X146047619Y-99602380D01*
X145952380Y-99745238D01*
X145857142Y-99840476D01*
X145761904Y-99888095D01*
X146666666Y-99602380D02*
X147333333Y-99602380D01*
X146904761Y-100602380D01*
X144861904Y-87902380D02*
X144861904Y-88711904D01*
X144909523Y-88807142D01*
X144957142Y-88854761D01*
X145052380Y-88902380D01*
X145242857Y-88902380D01*
X145338095Y-88854761D01*
X145385714Y-88807142D01*
X145433333Y-88711904D01*
X145433333Y-87902380D01*
X146433333Y-88902380D02*
X145861904Y-88902380D01*
X146147619Y-88902380D02*
X146147619Y-87902380D01*
X146052380Y-88045238D01*
X145957142Y-88140476D01*
X145861904Y-88188095D01*
X147290476Y-88235714D02*
X147290476Y-88902380D01*
X147052380Y-87854761D02*
X146814285Y-88569047D01*
X147433333Y-88569047D01*
X144761904Y-77235712D02*
X144761904Y-78045236D01*
X144809523Y-78140474D01*
X144857142Y-78188093D01*
X144952380Y-78235712D01*
X145142857Y-78235712D01*
X145238095Y-78188093D01*
X145285714Y-78140474D01*
X145333333Y-78045236D01*
X145333333Y-77235712D01*
X146333333Y-78235712D02*
X145761904Y-78235712D01*
X146047619Y-78235712D02*
X146047619Y-77235712D01*
X145952380Y-77378570D01*
X145857142Y-77473808D01*
X145761904Y-77521427D01*
X146666666Y-77235712D02*
X147285714Y-77235712D01*
X146952380Y-77616665D01*
X147095238Y-77616665D01*
X147190476Y-77664284D01*
X147238095Y-77711903D01*
X147285714Y-77807141D01*
X147285714Y-78045236D01*
X147238095Y-78140474D01*
X147190476Y-78188093D01*
X147095238Y-78235712D01*
X146809523Y-78235712D01*
X146714285Y-78188093D01*
X146666666Y-78140474D01*
X144761904Y-66569046D02*
X144761904Y-67378570D01*
X144809523Y-67473808D01*
X144857142Y-67521427D01*
X144952380Y-67569046D01*
X145142857Y-67569046D01*
X145238095Y-67521427D01*
X145285714Y-67473808D01*
X145333333Y-67378570D01*
X145333333Y-66569046D01*
X146333333Y-67569046D02*
X145761904Y-67569046D01*
X146047619Y-67569046D02*
X146047619Y-66569046D01*
X145952380Y-66711904D01*
X145857142Y-66807142D01*
X145761904Y-66854761D01*
X146952380Y-66569046D02*
X147047619Y-66569046D01*
X147142857Y-66616666D01*
X147190476Y-66664285D01*
X147238095Y-66759523D01*
X147285714Y-66949999D01*
X147285714Y-67188094D01*
X147238095Y-67378570D01*
X147190476Y-67473808D01*
X147142857Y-67521427D01*
X147047619Y-67569046D01*
X146952380Y-67569046D01*
X146857142Y-67521427D01*
X146809523Y-67473808D01*
X146761904Y-67378570D01*
X146714285Y-67188094D01*
X146714285Y-66949999D01*
X146761904Y-66759523D01*
X146809523Y-66664285D01*
X146857142Y-66616666D01*
X146952380Y-66569046D01*
X145238095Y-55902380D02*
X145238095Y-56711904D01*
X145285714Y-56807142D01*
X145333333Y-56854761D01*
X145428571Y-56902380D01*
X145619047Y-56902380D01*
X145714285Y-56854761D01*
X145761904Y-56807142D01*
X145809523Y-56711904D01*
X145809523Y-55902380D01*
X146333333Y-56902380D02*
X146523809Y-56902380D01*
X146619047Y-56854761D01*
X146666666Y-56807142D01*
X146761904Y-56664285D01*
X146809523Y-56473809D01*
X146809523Y-56092857D01*
X146761904Y-55997619D01*
X146714285Y-55950000D01*
X146619047Y-55902380D01*
X146428571Y-55902380D01*
X146333333Y-55950000D01*
X146285714Y-55997619D01*
X146238095Y-56092857D01*
X146238095Y-56330952D01*
X146285714Y-56426190D01*
X146333333Y-56473809D01*
X146428571Y-56521428D01*
X146619047Y-56521428D01*
X146714285Y-56473809D01*
X146761904Y-56426190D01*
X146809523Y-56330952D01*
X183338095Y-84602380D02*
X183338095Y-85411904D01*
X183385714Y-85507142D01*
X183433333Y-85554761D01*
X183528571Y-85602380D01*
X183719047Y-85602380D01*
X183814285Y-85554761D01*
X183861904Y-85507142D01*
X183909523Y-85411904D01*
X183909523Y-84602380D01*
X184861904Y-84602380D02*
X184385714Y-84602380D01*
X184338095Y-85078571D01*
X184385714Y-85030952D01*
X184480952Y-84983333D01*
X184719047Y-84983333D01*
X184814285Y-85030952D01*
X184861904Y-85078571D01*
X184909523Y-85173809D01*
X184909523Y-85411904D01*
X184861904Y-85507142D01*
X184814285Y-85554761D01*
X184719047Y-85602380D01*
X184480952Y-85602380D01*
X184385714Y-85554761D01*
X184338095Y-85507142D01*
X158102380Y-63361904D02*
X158911904Y-63361904D01*
X159007142Y-63314285D01*
X159054761Y-63266666D01*
X159102380Y-63171428D01*
X159102380Y-62980952D01*
X159054761Y-62885714D01*
X159007142Y-62838095D01*
X158911904Y-62790476D01*
X158102380Y-62790476D01*
X158435714Y-61885714D02*
X159102380Y-61885714D01*
X158054761Y-62123809D02*
X158769047Y-62361904D01*
X158769047Y-61742857D01*
X167433333Y-124352380D02*
X167100000Y-123876190D01*
X166861904Y-124352380D02*
X166861904Y-123352380D01*
X167242857Y-123352380D01*
X167338095Y-123400000D01*
X167385714Y-123447619D01*
X167433333Y-123542857D01*
X167433333Y-123685714D01*
X167385714Y-123780952D01*
X167338095Y-123828571D01*
X167242857Y-123876190D01*
X166861904Y-123876190D01*
X167814285Y-123447619D02*
X167861904Y-123400000D01*
X167957142Y-123352380D01*
X168195238Y-123352380D01*
X168290476Y-123400000D01*
X168338095Y-123447619D01*
X168385714Y-123542857D01*
X168385714Y-123638095D01*
X168338095Y-123780952D01*
X167766666Y-124352380D01*
X168385714Y-124352380D01*
X167433333Y-122352380D02*
X167100000Y-121876190D01*
X166861904Y-122352380D02*
X166861904Y-121352380D01*
X167242857Y-121352380D01*
X167338095Y-121400000D01*
X167385714Y-121447619D01*
X167433333Y-121542857D01*
X167433333Y-121685714D01*
X167385714Y-121780952D01*
X167338095Y-121828571D01*
X167242857Y-121876190D01*
X166861904Y-121876190D01*
X168385714Y-122352380D02*
X167814285Y-122352380D01*
X168100000Y-122352380D02*
X168100000Y-121352380D01*
X168004761Y-121495238D01*
X167909523Y-121590476D01*
X167814285Y-121638095D01*
X117419642Y-110007142D02*
X117372023Y-110054761D01*
X117229166Y-110102380D01*
X117133928Y-110102380D01*
X116991071Y-110054761D01*
X116895833Y-109959523D01*
X116848214Y-109864285D01*
X116800595Y-109673809D01*
X116800595Y-109530952D01*
X116848214Y-109340476D01*
X116895833Y-109245238D01*
X116991071Y-109150000D01*
X117133928Y-109102380D01*
X117229166Y-109102380D01*
X117372023Y-109150000D01*
X117419642Y-109197619D01*
X117752976Y-109102380D02*
X118372023Y-109102380D01*
X118038690Y-109483333D01*
X118181547Y-109483333D01*
X118276785Y-109530952D01*
X118324404Y-109578571D01*
X118372023Y-109673809D01*
X118372023Y-109911904D01*
X118324404Y-110007142D01*
X118276785Y-110054761D01*
X118181547Y-110102380D01*
X117895833Y-110102380D01*
X117800595Y-110054761D01*
X117752976Y-110007142D01*
X119324404Y-110102380D02*
X118752976Y-110102380D01*
X119038690Y-110102380D02*
X119038690Y-109102380D01*
X118943452Y-109245238D01*
X118848214Y-109340476D01*
X118752976Y-109388095D01*
X174419642Y-93007142D02*
X174372023Y-93054761D01*
X174229166Y-93102380D01*
X174133928Y-93102380D01*
X173991071Y-93054761D01*
X173895833Y-92959523D01*
X173848214Y-92864285D01*
X173800595Y-92673809D01*
X173800595Y-92530952D01*
X173848214Y-92340476D01*
X173895833Y-92245238D01*
X173991071Y-92150000D01*
X174133928Y-92102380D01*
X174229166Y-92102380D01*
X174372023Y-92150000D01*
X174419642Y-92197619D01*
X174752976Y-92102380D02*
X175372023Y-92102380D01*
X175038690Y-92483333D01*
X175181547Y-92483333D01*
X175276785Y-92530952D01*
X175324404Y-92578571D01*
X175372023Y-92673809D01*
X175372023Y-92911904D01*
X175324404Y-93007142D01*
X175276785Y-93054761D01*
X175181547Y-93102380D01*
X174895833Y-93102380D01*
X174800595Y-93054761D01*
X174752976Y-93007142D01*
X175991071Y-92102380D02*
X176086309Y-92102380D01*
X176181547Y-92150000D01*
X176229166Y-92197619D01*
X176276785Y-92292857D01*
X176324404Y-92483333D01*
X176324404Y-92721428D01*
X176276785Y-92911904D01*
X176229166Y-93007142D01*
X176181547Y-93054761D01*
X176086309Y-93102380D01*
X175991071Y-93102380D01*
X175895833Y-93054761D01*
X175848214Y-93007142D01*
X175800595Y-92911904D01*
X175752976Y-92721428D01*
X175752976Y-92483333D01*
X175800595Y-92292857D01*
X175848214Y-92197619D01*
X175895833Y-92150000D01*
X175991071Y-92102380D01*
X161119642Y-127907142D02*
X161072023Y-127954761D01*
X160929166Y-128002380D01*
X160833928Y-128002380D01*
X160691071Y-127954761D01*
X160595833Y-127859523D01*
X160548214Y-127764285D01*
X160500595Y-127573809D01*
X160500595Y-127430952D01*
X160548214Y-127240476D01*
X160595833Y-127145238D01*
X160691071Y-127050000D01*
X160833928Y-127002380D01*
X160929166Y-127002380D01*
X161072023Y-127050000D01*
X161119642Y-127097619D01*
X161500595Y-127097619D02*
X161548214Y-127050000D01*
X161643452Y-127002380D01*
X161881547Y-127002380D01*
X161976785Y-127050000D01*
X162024404Y-127097619D01*
X162072023Y-127192857D01*
X162072023Y-127288095D01*
X162024404Y-127430952D01*
X161452976Y-128002380D01*
X162072023Y-128002380D01*
X162548214Y-128002380D02*
X162738690Y-128002380D01*
X162833928Y-127954761D01*
X162881547Y-127907142D01*
X162976785Y-127764285D01*
X163024404Y-127573809D01*
X163024404Y-127192857D01*
X162976785Y-127097619D01*
X162929166Y-127050000D01*
X162833928Y-127002380D01*
X162643452Y-127002380D01*
X162548214Y-127050000D01*
X162500595Y-127097619D01*
X162452976Y-127192857D01*
X162452976Y-127430952D01*
X162500595Y-127526190D01*
X162548214Y-127573809D01*
X162643452Y-127621428D01*
X162833928Y-127621428D01*
X162929166Y-127573809D01*
X162976785Y-127526190D01*
X163024404Y-127430952D01*
X190607142Y-62605357D02*
X190654761Y-62652976D01*
X190702380Y-62795833D01*
X190702380Y-62891071D01*
X190654761Y-63033928D01*
X190559523Y-63129166D01*
X190464285Y-63176785D01*
X190273809Y-63224404D01*
X190130952Y-63224404D01*
X189940476Y-63176785D01*
X189845238Y-63129166D01*
X189750000Y-63033928D01*
X189702380Y-62891071D01*
X189702380Y-62795833D01*
X189750000Y-62652976D01*
X189797619Y-62605357D01*
X189797619Y-62224404D02*
X189750000Y-62176785D01*
X189702380Y-62081547D01*
X189702380Y-61843452D01*
X189750000Y-61748214D01*
X189797619Y-61700595D01*
X189892857Y-61652976D01*
X189988095Y-61652976D01*
X190130952Y-61700595D01*
X190702380Y-62272023D01*
X190702380Y-61652976D01*
X189702380Y-61319642D02*
X189702380Y-60652976D01*
X190702380Y-61081547D01*
X165657142Y-76657142D02*
X165609523Y-76704761D01*
X165466666Y-76752380D01*
X165371428Y-76752380D01*
X165228571Y-76704761D01*
X165133333Y-76609523D01*
X165085714Y-76514285D01*
X165038095Y-76323809D01*
X165038095Y-76180952D01*
X165085714Y-75990476D01*
X165133333Y-75895238D01*
X165228571Y-75800000D01*
X165371428Y-75752380D01*
X165466666Y-75752380D01*
X165609523Y-75800000D01*
X165657142Y-75847619D01*
X166038095Y-75847619D02*
X166085714Y-75800000D01*
X166180952Y-75752380D01*
X166419047Y-75752380D01*
X166514285Y-75800000D01*
X166561904Y-75847619D01*
X166609523Y-75942857D01*
X166609523Y-76038095D01*
X166561904Y-76180952D01*
X165990476Y-76752380D01*
X166609523Y-76752380D01*
X167514285Y-75752380D02*
X167038095Y-75752380D01*
X166990476Y-76228571D01*
X167038095Y-76180952D01*
X167133333Y-76133333D01*
X167371428Y-76133333D01*
X167466666Y-76180952D01*
X167514285Y-76228571D01*
X167561904Y-76323809D01*
X167561904Y-76561904D01*
X167514285Y-76657142D01*
X167466666Y-76704761D01*
X167371428Y-76752380D01*
X167133333Y-76752380D01*
X167038095Y-76704761D01*
X166990476Y-76657142D01*
X178357142Y-113107142D02*
X178309523Y-113154761D01*
X178166666Y-113202380D01*
X178071428Y-113202380D01*
X177928571Y-113154761D01*
X177833333Y-113059523D01*
X177785714Y-112964285D01*
X177738095Y-112773809D01*
X177738095Y-112630952D01*
X177785714Y-112440476D01*
X177833333Y-112345238D01*
X177928571Y-112250000D01*
X178071428Y-112202380D01*
X178166666Y-112202380D01*
X178309523Y-112250000D01*
X178357142Y-112297619D01*
X178738095Y-112297619D02*
X178785714Y-112250000D01*
X178880952Y-112202380D01*
X179119047Y-112202380D01*
X179214285Y-112250000D01*
X179261904Y-112297619D01*
X179309523Y-112392857D01*
X179309523Y-112488095D01*
X179261904Y-112630952D01*
X178690476Y-113202380D01*
X179309523Y-113202380D01*
X180166666Y-112535714D02*
X180166666Y-113202380D01*
X179928571Y-112154761D02*
X179690476Y-112869047D01*
X180309523Y-112869047D01*
X172157142Y-75057142D02*
X172109523Y-75104761D01*
X171966666Y-75152380D01*
X171871428Y-75152380D01*
X171728571Y-75104761D01*
X171633333Y-75009523D01*
X171585714Y-74914285D01*
X171538095Y-74723809D01*
X171538095Y-74580952D01*
X171585714Y-74390476D01*
X171633333Y-74295238D01*
X171728571Y-74200000D01*
X171871428Y-74152380D01*
X171966666Y-74152380D01*
X172109523Y-74200000D01*
X172157142Y-74247619D01*
X172538095Y-74247619D02*
X172585714Y-74200000D01*
X172680952Y-74152380D01*
X172919047Y-74152380D01*
X173014285Y-74200000D01*
X173061904Y-74247619D01*
X173109523Y-74342857D01*
X173109523Y-74438095D01*
X173061904Y-74580952D01*
X172490476Y-75152380D01*
X173109523Y-75152380D01*
X173442857Y-74152380D02*
X174061904Y-74152380D01*
X173728571Y-74533333D01*
X173871428Y-74533333D01*
X173966666Y-74580952D01*
X174014285Y-74628571D01*
X174061904Y-74723809D01*
X174061904Y-74961904D01*
X174014285Y-75057142D01*
X173966666Y-75104761D01*
X173871428Y-75152380D01*
X173585714Y-75152380D01*
X173490476Y-75104761D01*
X173442857Y-75057142D01*
X181057142Y-118157142D02*
X181009523Y-118204761D01*
X180866666Y-118252380D01*
X180771428Y-118252380D01*
X180628571Y-118204761D01*
X180533333Y-118109523D01*
X180485714Y-118014285D01*
X180438095Y-117823809D01*
X180438095Y-117680952D01*
X180485714Y-117490476D01*
X180533333Y-117395238D01*
X180628571Y-117300000D01*
X180771428Y-117252380D01*
X180866666Y-117252380D01*
X181009523Y-117300000D01*
X181057142Y-117347619D01*
X181438095Y-117347619D02*
X181485714Y-117300000D01*
X181580952Y-117252380D01*
X181819047Y-117252380D01*
X181914285Y-117300000D01*
X181961904Y-117347619D01*
X182009523Y-117442857D01*
X182009523Y-117538095D01*
X181961904Y-117680952D01*
X181390476Y-118252380D01*
X182009523Y-118252380D01*
X182390476Y-117347619D02*
X182438095Y-117300000D01*
X182533333Y-117252380D01*
X182771428Y-117252380D01*
X182866666Y-117300000D01*
X182914285Y-117347619D01*
X182961904Y-117442857D01*
X182961904Y-117538095D01*
X182914285Y-117680952D01*
X182342857Y-118252380D01*
X182961904Y-118252380D01*
X182719642Y-73807142D02*
X182672023Y-73854761D01*
X182529166Y-73902380D01*
X182433928Y-73902380D01*
X182291071Y-73854761D01*
X182195833Y-73759523D01*
X182148214Y-73664285D01*
X182100595Y-73473809D01*
X182100595Y-73330952D01*
X182148214Y-73140476D01*
X182195833Y-73045238D01*
X182291071Y-72950000D01*
X182433928Y-72902380D01*
X182529166Y-72902380D01*
X182672023Y-72950000D01*
X182719642Y-72997619D01*
X183100595Y-72997619D02*
X183148214Y-72950000D01*
X183243452Y-72902380D01*
X183481547Y-72902380D01*
X183576785Y-72950000D01*
X183624404Y-72997619D01*
X183672023Y-73092857D01*
X183672023Y-73188095D01*
X183624404Y-73330952D01*
X183052976Y-73902380D01*
X183672023Y-73902380D01*
X184624404Y-73902380D02*
X184052976Y-73902380D01*
X184338690Y-73902380D02*
X184338690Y-72902380D01*
X184243452Y-73045238D01*
X184148214Y-73140476D01*
X184052976Y-73188095D01*
X151119642Y-65907142D02*
X151072023Y-65954761D01*
X150929166Y-66002380D01*
X150833928Y-66002380D01*
X150691071Y-65954761D01*
X150595833Y-65859523D01*
X150548214Y-65764285D01*
X150500595Y-65573809D01*
X150500595Y-65430952D01*
X150548214Y-65240476D01*
X150595833Y-65145238D01*
X150691071Y-65050000D01*
X150833928Y-65002380D01*
X150929166Y-65002380D01*
X151072023Y-65050000D01*
X151119642Y-65097619D01*
X151500595Y-65097619D02*
X151548214Y-65050000D01*
X151643452Y-65002380D01*
X151881547Y-65002380D01*
X151976785Y-65050000D01*
X152024404Y-65097619D01*
X152072023Y-65192857D01*
X152072023Y-65288095D01*
X152024404Y-65430952D01*
X151452976Y-66002380D01*
X152072023Y-66002380D01*
X152691071Y-65002380D02*
X152786309Y-65002380D01*
X152881547Y-65050000D01*
X152929166Y-65097619D01*
X152976785Y-65192857D01*
X153024404Y-65383333D01*
X153024404Y-65621428D01*
X152976785Y-65811904D01*
X152929166Y-65907142D01*
X152881547Y-65954761D01*
X152786309Y-66002380D01*
X152691071Y-66002380D01*
X152595833Y-65954761D01*
X152548214Y-65907142D01*
X152500595Y-65811904D01*
X152452976Y-65621428D01*
X152452976Y-65383333D01*
X152500595Y-65192857D01*
X152548214Y-65097619D01*
X152595833Y-65050000D01*
X152691071Y-65002380D01*
X149219642Y-54507142D02*
X149172023Y-54554761D01*
X149029166Y-54602380D01*
X148933928Y-54602380D01*
X148791071Y-54554761D01*
X148695833Y-54459523D01*
X148648214Y-54364285D01*
X148600595Y-54173809D01*
X148600595Y-54030952D01*
X148648214Y-53840476D01*
X148695833Y-53745238D01*
X148791071Y-53650000D01*
X148933928Y-53602380D01*
X149029166Y-53602380D01*
X149172023Y-53650000D01*
X149219642Y-53697619D01*
X150172023Y-54602380D02*
X149600595Y-54602380D01*
X149886309Y-54602380D02*
X149886309Y-53602380D01*
X149791071Y-53745238D01*
X149695833Y-53840476D01*
X149600595Y-53888095D01*
X150505357Y-53602380D02*
X151172023Y-53602380D01*
X150743452Y-54602380D01*
X151219642Y-107307142D02*
X151172023Y-107354761D01*
X151029166Y-107402380D01*
X150933928Y-107402380D01*
X150791071Y-107354761D01*
X150695833Y-107259523D01*
X150648214Y-107164285D01*
X150600595Y-106973809D01*
X150600595Y-106830952D01*
X150648214Y-106640476D01*
X150695833Y-106545238D01*
X150791071Y-106450000D01*
X150933928Y-106402380D01*
X151029166Y-106402380D01*
X151172023Y-106450000D01*
X151219642Y-106497619D01*
X152172023Y-107402380D02*
X151600595Y-107402380D01*
X151886309Y-107402380D02*
X151886309Y-106402380D01*
X151791071Y-106545238D01*
X151695833Y-106640476D01*
X151600595Y-106688095D01*
X153029166Y-106402380D02*
X152838690Y-106402380D01*
X152743452Y-106450000D01*
X152695833Y-106497619D01*
X152600595Y-106640476D01*
X152552976Y-106830952D01*
X152552976Y-107211904D01*
X152600595Y-107307142D01*
X152648214Y-107354761D01*
X152743452Y-107402380D01*
X152933928Y-107402380D01*
X153029166Y-107354761D01*
X153076785Y-107307142D01*
X153124404Y-107211904D01*
X153124404Y-106973809D01*
X153076785Y-106878571D01*
X153029166Y-106830952D01*
X152933928Y-106783333D01*
X152743452Y-106783333D01*
X152648214Y-106830952D01*
X152600595Y-106878571D01*
X152552976Y-106973809D01*
X151119642Y-77107142D02*
X151072023Y-77154761D01*
X150929166Y-77202380D01*
X150833928Y-77202380D01*
X150691071Y-77154761D01*
X150595833Y-77059523D01*
X150548214Y-76964285D01*
X150500595Y-76773809D01*
X150500595Y-76630952D01*
X150548214Y-76440476D01*
X150595833Y-76345238D01*
X150691071Y-76250000D01*
X150833928Y-76202380D01*
X150929166Y-76202380D01*
X151072023Y-76250000D01*
X151119642Y-76297619D01*
X152072023Y-77202380D02*
X151500595Y-77202380D01*
X151786309Y-77202380D02*
X151786309Y-76202380D01*
X151691071Y-76345238D01*
X151595833Y-76440476D01*
X151500595Y-76488095D01*
X152976785Y-76202380D02*
X152500595Y-76202380D01*
X152452976Y-76678571D01*
X152500595Y-76630952D01*
X152595833Y-76583333D01*
X152833928Y-76583333D01*
X152929166Y-76630952D01*
X152976785Y-76678571D01*
X153024404Y-76773809D01*
X153024404Y-77011904D01*
X152976785Y-77107142D01*
X152929166Y-77154761D01*
X152833928Y-77202380D01*
X152595833Y-77202380D01*
X152500595Y-77154761D01*
X152452976Y-77107142D01*
X151319642Y-125507142D02*
X151272023Y-125554761D01*
X151129166Y-125602380D01*
X151033928Y-125602380D01*
X150891071Y-125554761D01*
X150795833Y-125459523D01*
X150748214Y-125364285D01*
X150700595Y-125173809D01*
X150700595Y-125030952D01*
X150748214Y-124840476D01*
X150795833Y-124745238D01*
X150891071Y-124650000D01*
X151033928Y-124602380D01*
X151129166Y-124602380D01*
X151272023Y-124650000D01*
X151319642Y-124697619D01*
X152272023Y-125602380D02*
X151700595Y-125602380D01*
X151986309Y-125602380D02*
X151986309Y-124602380D01*
X151891071Y-124745238D01*
X151795833Y-124840476D01*
X151700595Y-124888095D01*
X153129166Y-124935714D02*
X153129166Y-125602380D01*
X152891071Y-124554761D02*
X152652976Y-125269047D01*
X153272023Y-125269047D01*
X151194642Y-116407142D02*
X151147023Y-116454761D01*
X151004166Y-116502380D01*
X150908928Y-116502380D01*
X150766071Y-116454761D01*
X150670833Y-116359523D01*
X150623214Y-116264285D01*
X150575595Y-116073809D01*
X150575595Y-115930952D01*
X150623214Y-115740476D01*
X150670833Y-115645238D01*
X150766071Y-115550000D01*
X150908928Y-115502380D01*
X151004166Y-115502380D01*
X151147023Y-115550000D01*
X151194642Y-115597619D01*
X152147023Y-116502380D02*
X151575595Y-116502380D01*
X151861309Y-116502380D02*
X151861309Y-115502380D01*
X151766071Y-115645238D01*
X151670833Y-115740476D01*
X151575595Y-115788095D01*
X152480357Y-115502380D02*
X153099404Y-115502380D01*
X152766071Y-115883333D01*
X152908928Y-115883333D01*
X153004166Y-115930952D01*
X153051785Y-115978571D01*
X153099404Y-116073809D01*
X153099404Y-116311904D01*
X153051785Y-116407142D01*
X153004166Y-116454761D01*
X152908928Y-116502380D01*
X152623214Y-116502380D01*
X152527976Y-116454761D01*
X152480357Y-116407142D01*
X129419642Y-94007142D02*
X129372023Y-94054761D01*
X129229166Y-94102380D01*
X129133928Y-94102380D01*
X128991071Y-94054761D01*
X128895833Y-93959523D01*
X128848214Y-93864285D01*
X128800595Y-93673809D01*
X128800595Y-93530952D01*
X128848214Y-93340476D01*
X128895833Y-93245238D01*
X128991071Y-93150000D01*
X129133928Y-93102380D01*
X129229166Y-93102380D01*
X129372023Y-93150000D01*
X129419642Y-93197619D01*
X130372023Y-94102380D02*
X129800595Y-94102380D01*
X130086309Y-94102380D02*
X130086309Y-93102380D01*
X129991071Y-93245238D01*
X129895833Y-93340476D01*
X129800595Y-93388095D01*
X130752976Y-93197619D02*
X130800595Y-93150000D01*
X130895833Y-93102380D01*
X131133928Y-93102380D01*
X131229166Y-93150000D01*
X131276785Y-93197619D01*
X131324404Y-93292857D01*
X131324404Y-93388095D01*
X131276785Y-93530952D01*
X130705357Y-94102380D01*
X131324404Y-94102380D01*
X118195833Y-93907142D02*
X118148214Y-93954761D01*
X118005357Y-94002380D01*
X117910119Y-94002380D01*
X117767261Y-93954761D01*
X117672023Y-93859523D01*
X117624404Y-93764285D01*
X117576785Y-93573809D01*
X117576785Y-93430952D01*
X117624404Y-93240476D01*
X117672023Y-93145238D01*
X117767261Y-93050000D01*
X117910119Y-93002380D01*
X118005357Y-93002380D01*
X118148214Y-93050000D01*
X118195833Y-93097619D01*
X118672023Y-94002380D02*
X118862500Y-94002380D01*
X118957738Y-93954761D01*
X119005357Y-93907142D01*
X119100595Y-93764285D01*
X119148214Y-93573809D01*
X119148214Y-93192857D01*
X119100595Y-93097619D01*
X119052976Y-93050000D01*
X118957738Y-93002380D01*
X118767261Y-93002380D01*
X118672023Y-93050000D01*
X118624404Y-93097619D01*
X118576785Y-93192857D01*
X118576785Y-93430952D01*
X118624404Y-93526190D01*
X118672023Y-93573809D01*
X118767261Y-93621428D01*
X118957738Y-93621428D01*
X119052976Y-93573809D01*
X119100595Y-93526190D01*
X119148214Y-93430952D01*
X117895833Y-77907142D02*
X117848214Y-77954761D01*
X117705357Y-78002380D01*
X117610119Y-78002380D01*
X117467261Y-77954761D01*
X117372023Y-77859523D01*
X117324404Y-77764285D01*
X117276785Y-77573809D01*
X117276785Y-77430952D01*
X117324404Y-77240476D01*
X117372023Y-77145238D01*
X117467261Y-77050000D01*
X117610119Y-77002380D01*
X117705357Y-77002380D01*
X117848214Y-77050000D01*
X117895833Y-77097619D01*
X118467261Y-77430952D02*
X118372023Y-77383333D01*
X118324404Y-77335714D01*
X118276785Y-77240476D01*
X118276785Y-77192857D01*
X118324404Y-77097619D01*
X118372023Y-77050000D01*
X118467261Y-77002380D01*
X118657738Y-77002380D01*
X118752976Y-77050000D01*
X118800595Y-77097619D01*
X118848214Y-77192857D01*
X118848214Y-77240476D01*
X118800595Y-77335714D01*
X118752976Y-77383333D01*
X118657738Y-77430952D01*
X118467261Y-77430952D01*
X118372023Y-77478571D01*
X118324404Y-77526190D01*
X118276785Y-77621428D01*
X118276785Y-77811904D01*
X118324404Y-77907142D01*
X118372023Y-77954761D01*
X118467261Y-78002380D01*
X118657738Y-78002380D01*
X118752976Y-77954761D01*
X118800595Y-77907142D01*
X118848214Y-77811904D01*
X118848214Y-77621428D01*
X118800595Y-77526190D01*
X118752976Y-77478571D01*
X118657738Y-77430952D01*
X188133333Y-74257142D02*
X188085714Y-74304761D01*
X187942857Y-74352380D01*
X187847619Y-74352380D01*
X187704761Y-74304761D01*
X187609523Y-74209523D01*
X187561904Y-74114285D01*
X187514285Y-73923809D01*
X187514285Y-73780952D01*
X187561904Y-73590476D01*
X187609523Y-73495238D01*
X187704761Y-73400000D01*
X187847619Y-73352380D01*
X187942857Y-73352380D01*
X188085714Y-73400000D01*
X188133333Y-73447619D01*
X188466666Y-73352380D02*
X189133333Y-73352380D01*
X188704761Y-74352380D01*
X181307142Y-62204166D02*
X181354761Y-62251785D01*
X181402380Y-62394642D01*
X181402380Y-62489880D01*
X181354761Y-62632738D01*
X181259523Y-62727976D01*
X181164285Y-62775595D01*
X180973809Y-62823214D01*
X180830952Y-62823214D01*
X180640476Y-62775595D01*
X180545238Y-62727976D01*
X180450000Y-62632738D01*
X180402380Y-62489880D01*
X180402380Y-62394642D01*
X180450000Y-62251785D01*
X180497619Y-62204166D01*
X180402380Y-61299404D02*
X180402380Y-61775595D01*
X180878571Y-61823214D01*
X180830952Y-61775595D01*
X180783333Y-61680357D01*
X180783333Y-61442261D01*
X180830952Y-61347023D01*
X180878571Y-61299404D01*
X180973809Y-61251785D01*
X181211904Y-61251785D01*
X181307142Y-61299404D01*
X181354761Y-61347023D01*
X181402380Y-61442261D01*
X181402380Y-61680357D01*
X181354761Y-61775595D01*
X181307142Y-61823214D01*
X129795833Y-63007142D02*
X129748214Y-63054761D01*
X129605357Y-63102380D01*
X129510119Y-63102380D01*
X129367261Y-63054761D01*
X129272023Y-62959523D01*
X129224404Y-62864285D01*
X129176785Y-62673809D01*
X129176785Y-62530952D01*
X129224404Y-62340476D01*
X129272023Y-62245238D01*
X129367261Y-62150000D01*
X129510119Y-62102380D01*
X129605357Y-62102380D01*
X129748214Y-62150000D01*
X129795833Y-62197619D01*
X130176785Y-62197619D02*
X130224404Y-62150000D01*
X130319642Y-62102380D01*
X130557738Y-62102380D01*
X130652976Y-62150000D01*
X130700595Y-62197619D01*
X130748214Y-62292857D01*
X130748214Y-62388095D01*
X130700595Y-62530952D01*
X130129166Y-63102380D01*
X130748214Y-63102380D01*
X129895833Y-78007142D02*
X129848214Y-78054761D01*
X129705357Y-78102380D01*
X129610119Y-78102380D01*
X129467261Y-78054761D01*
X129372023Y-77959523D01*
X129324404Y-77864285D01*
X129276785Y-77673809D01*
X129276785Y-77530952D01*
X129324404Y-77340476D01*
X129372023Y-77245238D01*
X129467261Y-77150000D01*
X129610119Y-77102380D01*
X129705357Y-77102380D01*
X129848214Y-77150000D01*
X129895833Y-77197619D01*
X130848214Y-78102380D02*
X130276785Y-78102380D01*
X130562500Y-78102380D02*
X130562500Y-77102380D01*
X130467261Y-77245238D01*
X130372023Y-77340476D01*
X130276785Y-77388095D01*
X188238095Y-62652380D02*
X188238095Y-63461904D01*
X188285714Y-63557142D01*
X188333333Y-63604761D01*
X188428571Y-63652380D01*
X188619047Y-63652380D01*
X188714285Y-63604761D01*
X188761904Y-63557142D01*
X188809523Y-63461904D01*
X188809523Y-62652380D01*
X189190476Y-62652380D02*
X189857142Y-62652380D01*
X189428571Y-63652380D01*
X157138095Y-129252380D02*
X157138095Y-130061904D01*
X157185714Y-130157142D01*
X157233333Y-130204761D01*
X157328571Y-130252380D01*
X157519047Y-130252380D01*
X157614285Y-130204761D01*
X157661904Y-130157142D01*
X157709523Y-130061904D01*
X157709523Y-129252380D01*
X158090476Y-129252380D02*
X158709523Y-129252380D01*
X158376190Y-129633333D01*
X158519047Y-129633333D01*
X158614285Y-129680952D01*
X158661904Y-129728571D01*
X158709523Y-129823809D01*
X158709523Y-130061904D01*
X158661904Y-130157142D01*
X158614285Y-130204761D01*
X158519047Y-130252380D01*
X158233333Y-130252380D01*
X158138095Y-130204761D01*
X158090476Y-130157142D01*
X185757142Y-111930357D02*
X185804761Y-111977976D01*
X185852380Y-112120833D01*
X185852380Y-112216071D01*
X185804761Y-112358928D01*
X185709523Y-112454166D01*
X185614285Y-112501785D01*
X185423809Y-112549404D01*
X185280952Y-112549404D01*
X185090476Y-112501785D01*
X184995238Y-112454166D01*
X184900000Y-112358928D01*
X184852380Y-112216071D01*
X184852380Y-112120833D01*
X184900000Y-111977976D01*
X184947619Y-111930357D01*
X184852380Y-111597023D02*
X184852380Y-110977976D01*
X185233333Y-111311309D01*
X185233333Y-111168452D01*
X185280952Y-111073214D01*
X185328571Y-111025595D01*
X185423809Y-110977976D01*
X185661904Y-110977976D01*
X185757142Y-111025595D01*
X185804761Y-111073214D01*
X185852380Y-111168452D01*
X185852380Y-111454166D01*
X185804761Y-111549404D01*
X185757142Y-111597023D01*
X184852380Y-110644642D02*
X184852380Y-109977976D01*
X185852380Y-110406547D01*
X112761904Y-124152380D02*
X112761904Y-124961904D01*
X112809523Y-125057142D01*
X112857142Y-125104761D01*
X112952380Y-125152380D01*
X113142857Y-125152380D01*
X113238095Y-125104761D01*
X113285714Y-125057142D01*
X113333333Y-124961904D01*
X113333333Y-124152380D01*
X113761904Y-124247619D02*
X113809523Y-124200000D01*
X113904761Y-124152380D01*
X114142857Y-124152380D01*
X114238095Y-124200000D01*
X114285714Y-124247619D01*
X114333333Y-124342857D01*
X114333333Y-124438095D01*
X114285714Y-124580952D01*
X113714285Y-125152380D01*
X114333333Y-125152380D01*
X114666666Y-124152380D02*
X115333333Y-124152380D01*
X114904761Y-125152380D01*
X112761904Y-95152380D02*
X112761904Y-95961904D01*
X112809523Y-96057142D01*
X112857142Y-96104761D01*
X112952380Y-96152380D01*
X113142857Y-96152380D01*
X113238095Y-96104761D01*
X113285714Y-96057142D01*
X113333333Y-95961904D01*
X113333333Y-95152380D01*
X113761904Y-95247619D02*
X113809523Y-95200000D01*
X113904761Y-95152380D01*
X114142857Y-95152380D01*
X114238095Y-95200000D01*
X114285714Y-95247619D01*
X114333333Y-95342857D01*
X114333333Y-95438095D01*
X114285714Y-95580952D01*
X113714285Y-96152380D01*
X114333333Y-96152380D01*
X114952380Y-95152380D02*
X115047619Y-95152380D01*
X115142857Y-95200000D01*
X115190476Y-95247619D01*
X115238095Y-95342857D01*
X115285714Y-95533333D01*
X115285714Y-95771428D01*
X115238095Y-95961904D01*
X115190476Y-96057142D01*
X115142857Y-96104761D01*
X115047619Y-96152380D01*
X114952380Y-96152380D01*
X114857142Y-96104761D01*
X114809523Y-96057142D01*
X114761904Y-95961904D01*
X114714285Y-95771428D01*
X114714285Y-95533333D01*
X114761904Y-95342857D01*
X114809523Y-95247619D01*
X114857142Y-95200000D01*
X114952380Y-95152380D01*
X168511904Y-78152380D02*
X168511904Y-78961904D01*
X168559523Y-79057142D01*
X168607142Y-79104761D01*
X168702380Y-79152380D01*
X168892857Y-79152380D01*
X168988095Y-79104761D01*
X169035714Y-79057142D01*
X169083333Y-78961904D01*
X169083333Y-78152380D01*
X169511904Y-78247619D02*
X169559523Y-78200000D01*
X169654761Y-78152380D01*
X169892857Y-78152380D01*
X169988095Y-78200000D01*
X170035714Y-78247619D01*
X170083333Y-78342857D01*
X170083333Y-78438095D01*
X170035714Y-78580952D01*
X169464285Y-79152380D01*
X170083333Y-79152380D01*
X170559523Y-79152380D02*
X170750000Y-79152380D01*
X170845238Y-79104761D01*
X170892857Y-79057142D01*
X170988095Y-78914285D01*
X171035714Y-78723809D01*
X171035714Y-78342857D01*
X170988095Y-78247619D01*
X170940476Y-78200000D01*
X170845238Y-78152380D01*
X170654761Y-78152380D01*
X170559523Y-78200000D01*
X170511904Y-78247619D01*
X170464285Y-78342857D01*
X170464285Y-78580952D01*
X170511904Y-78676190D01*
X170559523Y-78723809D01*
X170654761Y-78771428D01*
X170845238Y-78771428D01*
X170940476Y-78723809D01*
X170988095Y-78676190D01*
X171035714Y-78580952D01*
X169861904Y-94152380D02*
X169861904Y-94961904D01*
X169909523Y-95057142D01*
X169957142Y-95104761D01*
X170052380Y-95152380D01*
X170242857Y-95152380D01*
X170338095Y-95104761D01*
X170385714Y-95057142D01*
X170433333Y-94961904D01*
X170433333Y-94152380D01*
X170861904Y-94247619D02*
X170909523Y-94200000D01*
X171004761Y-94152380D01*
X171242857Y-94152380D01*
X171338095Y-94200000D01*
X171385714Y-94247619D01*
X171433333Y-94342857D01*
X171433333Y-94438095D01*
X171385714Y-94580952D01*
X170814285Y-95152380D01*
X171433333Y-95152380D01*
X172290476Y-94152380D02*
X172100000Y-94152380D01*
X172004761Y-94200000D01*
X171957142Y-94247619D01*
X171861904Y-94390476D01*
X171814285Y-94580952D01*
X171814285Y-94961904D01*
X171861904Y-95057142D01*
X171909523Y-95104761D01*
X172004761Y-95152380D01*
X172195238Y-95152380D01*
X172290476Y-95104761D01*
X172338095Y-95057142D01*
X172385714Y-94961904D01*
X172385714Y-94723809D01*
X172338095Y-94628571D01*
X172290476Y-94580952D01*
X172195238Y-94533333D01*
X172004761Y-94533333D01*
X171909523Y-94580952D01*
X171861904Y-94628571D01*
X171814285Y-94723809D01*
X124761904Y-111152380D02*
X124761904Y-111961904D01*
X124809523Y-112057142D01*
X124857142Y-112104761D01*
X124952380Y-112152380D01*
X125142857Y-112152380D01*
X125238095Y-112104761D01*
X125285714Y-112057142D01*
X125333333Y-111961904D01*
X125333333Y-111152380D01*
X125761904Y-111247619D02*
X125809523Y-111200000D01*
X125904761Y-111152380D01*
X126142857Y-111152380D01*
X126238095Y-111200000D01*
X126285714Y-111247619D01*
X126333333Y-111342857D01*
X126333333Y-111438095D01*
X126285714Y-111580952D01*
X125714285Y-112152380D01*
X126333333Y-112152380D01*
X127190476Y-111485714D02*
X127190476Y-112152380D01*
X126952380Y-111104761D02*
X126714285Y-111819047D01*
X127333333Y-111819047D01*
X112761904Y-111152380D02*
X112761904Y-111961904D01*
X112809523Y-112057142D01*
X112857142Y-112104761D01*
X112952380Y-112152380D01*
X113142857Y-112152380D01*
X113238095Y-112104761D01*
X113285714Y-112057142D01*
X113333333Y-111961904D01*
X113333333Y-111152380D01*
X113761904Y-111247619D02*
X113809523Y-111200000D01*
X113904761Y-111152380D01*
X114142857Y-111152380D01*
X114238095Y-111200000D01*
X114285714Y-111247619D01*
X114333333Y-111342857D01*
X114333333Y-111438095D01*
X114285714Y-111580952D01*
X113714285Y-112152380D01*
X114333333Y-112152380D01*
X114666666Y-111152380D02*
X115285714Y-111152380D01*
X114952380Y-111533333D01*
X115095238Y-111533333D01*
X115190476Y-111580952D01*
X115238095Y-111628571D01*
X115285714Y-111723809D01*
X115285714Y-111961904D01*
X115238095Y-112057142D01*
X115190476Y-112104761D01*
X115095238Y-112152380D01*
X114809523Y-112152380D01*
X114714285Y-112104761D01*
X114666666Y-112057142D01*
X124761904Y-95152380D02*
X124761904Y-95961904D01*
X124809523Y-96057142D01*
X124857142Y-96104761D01*
X124952380Y-96152380D01*
X125142857Y-96152380D01*
X125238095Y-96104761D01*
X125285714Y-96057142D01*
X125333333Y-95961904D01*
X125333333Y-95152380D01*
X126333333Y-96152380D02*
X125761904Y-96152380D01*
X126047619Y-96152380D02*
X126047619Y-95152380D01*
X125952380Y-95295238D01*
X125857142Y-95390476D01*
X125761904Y-95438095D01*
X126809523Y-96152380D02*
X127000000Y-96152380D01*
X127095238Y-96104761D01*
X127142857Y-96057142D01*
X127238095Y-95914285D01*
X127285714Y-95723809D01*
X127285714Y-95342857D01*
X127238095Y-95247619D01*
X127190476Y-95200000D01*
X127095238Y-95152380D01*
X126904761Y-95152380D01*
X126809523Y-95200000D01*
X126761904Y-95247619D01*
X126714285Y-95342857D01*
X126714285Y-95580952D01*
X126761904Y-95676190D01*
X126809523Y-95723809D01*
X126904761Y-95771428D01*
X127095238Y-95771428D01*
X127190476Y-95723809D01*
X127238095Y-95676190D01*
X127285714Y-95580952D01*
X124761904Y-79152380D02*
X124761904Y-79961904D01*
X124809523Y-80057142D01*
X124857142Y-80104761D01*
X124952380Y-80152380D01*
X125142857Y-80152380D01*
X125238095Y-80104761D01*
X125285714Y-80057142D01*
X125333333Y-79961904D01*
X125333333Y-79152380D01*
X126333333Y-80152380D02*
X125761904Y-80152380D01*
X126047619Y-80152380D02*
X126047619Y-79152380D01*
X125952380Y-79295238D01*
X125857142Y-79390476D01*
X125761904Y-79438095D01*
X127190476Y-79152380D02*
X127000000Y-79152380D01*
X126904761Y-79200000D01*
X126857142Y-79247619D01*
X126761904Y-79390476D01*
X126714285Y-79580952D01*
X126714285Y-79961904D01*
X126761904Y-80057142D01*
X126809523Y-80104761D01*
X126904761Y-80152380D01*
X127095238Y-80152380D01*
X127190476Y-80104761D01*
X127238095Y-80057142D01*
X127285714Y-79961904D01*
X127285714Y-79723809D01*
X127238095Y-79628571D01*
X127190476Y-79580952D01*
X127095238Y-79533333D01*
X126904761Y-79533333D01*
X126809523Y-79580952D01*
X126761904Y-79628571D01*
X126714285Y-79723809D01*
X112761904Y-79152380D02*
X112761904Y-79961904D01*
X112809523Y-80057142D01*
X112857142Y-80104761D01*
X112952380Y-80152380D01*
X113142857Y-80152380D01*
X113238095Y-80104761D01*
X113285714Y-80057142D01*
X113333333Y-79961904D01*
X113333333Y-79152380D01*
X114333333Y-80152380D02*
X113761904Y-80152380D01*
X114047619Y-80152380D02*
X114047619Y-79152380D01*
X113952380Y-79295238D01*
X113857142Y-79390476D01*
X113761904Y-79438095D01*
X115238095Y-79152380D02*
X114761904Y-79152380D01*
X114714285Y-79628571D01*
X114761904Y-79580952D01*
X114857142Y-79533333D01*
X115095238Y-79533333D01*
X115190476Y-79580952D01*
X115238095Y-79628571D01*
X115285714Y-79723809D01*
X115285714Y-79961904D01*
X115238095Y-80057142D01*
X115190476Y-80104761D01*
X115095238Y-80152380D01*
X114857142Y-80152380D01*
X114761904Y-80104761D01*
X114714285Y-80057142D01*
X112761904Y-64152380D02*
X112761904Y-64961904D01*
X112809523Y-65057142D01*
X112857142Y-65104761D01*
X112952380Y-65152380D01*
X113142857Y-65152380D01*
X113238095Y-65104761D01*
X113285714Y-65057142D01*
X113333333Y-64961904D01*
X113333333Y-64152380D01*
X114333333Y-65152380D02*
X113761904Y-65152380D01*
X114047619Y-65152380D02*
X114047619Y-64152380D01*
X113952380Y-64295238D01*
X113857142Y-64390476D01*
X113761904Y-64438095D01*
X114714285Y-64247619D02*
X114761904Y-64200000D01*
X114857142Y-64152380D01*
X115095238Y-64152380D01*
X115190476Y-64200000D01*
X115238095Y-64247619D01*
X115285714Y-64342857D01*
X115285714Y-64438095D01*
X115238095Y-64580952D01*
X114666666Y-65152380D01*
X115285714Y-65152380D01*
X124761904Y-64152380D02*
X124761904Y-64961904D01*
X124809523Y-65057142D01*
X124857142Y-65104761D01*
X124952380Y-65152380D01*
X125142857Y-65152380D01*
X125238095Y-65104761D01*
X125285714Y-65057142D01*
X125333333Y-64961904D01*
X125333333Y-64152380D01*
X126333333Y-65152380D02*
X125761904Y-65152380D01*
X126047619Y-65152380D02*
X126047619Y-64152380D01*
X125952380Y-64295238D01*
X125857142Y-64390476D01*
X125761904Y-64438095D01*
X127285714Y-65152380D02*
X126714285Y-65152380D01*
X127000000Y-65152380D02*
X127000000Y-64152380D01*
X126904761Y-64295238D01*
X126809523Y-64390476D01*
X126714285Y-64438095D01*
X157761904Y-76152380D02*
X157761904Y-76961904D01*
X157809523Y-77057142D01*
X157857142Y-77104761D01*
X157952380Y-77152380D01*
X158142857Y-77152380D01*
X158238095Y-77104761D01*
X158285714Y-77057142D01*
X158333333Y-76961904D01*
X158333333Y-76152380D01*
X158761904Y-76247619D02*
X158809523Y-76200000D01*
X158904761Y-76152380D01*
X159142857Y-76152380D01*
X159238095Y-76200000D01*
X159285714Y-76247619D01*
X159333333Y-76342857D01*
X159333333Y-76438095D01*
X159285714Y-76580952D01*
X158714285Y-77152380D01*
X159333333Y-77152380D01*
X159904761Y-76580952D02*
X159809523Y-76533333D01*
X159761904Y-76485714D01*
X159714285Y-76390476D01*
X159714285Y-76342857D01*
X159761904Y-76247619D01*
X159809523Y-76200000D01*
X159904761Y-76152380D01*
X160095238Y-76152380D01*
X160190476Y-76200000D01*
X160238095Y-76247619D01*
X160285714Y-76342857D01*
X160285714Y-76390476D01*
X160238095Y-76485714D01*
X160190476Y-76533333D01*
X160095238Y-76580952D01*
X159904761Y-76580952D01*
X159809523Y-76628571D01*
X159761904Y-76676190D01*
X159714285Y-76771428D01*
X159714285Y-76961904D01*
X159761904Y-77057142D01*
X159809523Y-77104761D01*
X159904761Y-77152380D01*
X160095238Y-77152380D01*
X160190476Y-77104761D01*
X160238095Y-77057142D01*
X160285714Y-76961904D01*
X160285714Y-76771428D01*
X160238095Y-76676190D01*
X160190476Y-76628571D01*
X160095238Y-76580952D01*
X157761904Y-111152380D02*
X157761904Y-111961904D01*
X157809523Y-112057142D01*
X157857142Y-112104761D01*
X157952380Y-112152380D01*
X158142857Y-112152380D01*
X158238095Y-112104761D01*
X158285714Y-112057142D01*
X158333333Y-111961904D01*
X158333333Y-111152380D01*
X158761904Y-111247619D02*
X158809523Y-111200000D01*
X158904761Y-111152380D01*
X159142857Y-111152380D01*
X159238095Y-111200000D01*
X159285714Y-111247619D01*
X159333333Y-111342857D01*
X159333333Y-111438095D01*
X159285714Y-111580952D01*
X158714285Y-112152380D01*
X159333333Y-112152380D01*
X160238095Y-111152380D02*
X159761904Y-111152380D01*
X159714285Y-111628571D01*
X159761904Y-111580952D01*
X159857142Y-111533333D01*
X160095238Y-111533333D01*
X160190476Y-111580952D01*
X160238095Y-111628571D01*
X160285714Y-111723809D01*
X160285714Y-111961904D01*
X160238095Y-112057142D01*
X160190476Y-112104761D01*
X160095238Y-112152380D01*
X159857142Y-112152380D01*
X159761904Y-112104761D01*
X159714285Y-112057142D01*
X183102380Y-121938095D02*
X183911904Y-121938095D01*
X184007142Y-121890476D01*
X184054761Y-121842857D01*
X184102380Y-121747619D01*
X184102380Y-121557142D01*
X184054761Y-121461904D01*
X184007142Y-121414285D01*
X183911904Y-121366666D01*
X183102380Y-121366666D01*
X183102380Y-120985714D02*
X183102380Y-120366666D01*
X183483333Y-120700000D01*
X183483333Y-120557142D01*
X183530952Y-120461904D01*
X183578571Y-120414285D01*
X183673809Y-120366666D01*
X183911904Y-120366666D01*
X184007142Y-120414285D01*
X184054761Y-120461904D01*
X184102380Y-120557142D01*
X184102380Y-120842857D01*
X184054761Y-120938095D01*
X184007142Y-120985714D01*
X183435714Y-119509523D02*
X184102380Y-119509523D01*
X183054761Y-119747619D02*
X183769047Y-119985714D01*
X183769047Y-119366666D01*
X178838095Y-62702380D02*
X178838095Y-63511904D01*
X178885714Y-63607142D01*
X178933333Y-63654761D01*
X179028571Y-63702380D01*
X179219047Y-63702380D01*
X179314285Y-63654761D01*
X179361904Y-63607142D01*
X179409523Y-63511904D01*
X179409523Y-62702380D01*
X180028571Y-63130952D02*
X179933333Y-63083333D01*
X179885714Y-63035714D01*
X179838095Y-62940476D01*
X179838095Y-62892857D01*
X179885714Y-62797619D01*
X179933333Y-62750000D01*
X180028571Y-62702380D01*
X180219047Y-62702380D01*
X180314285Y-62750000D01*
X180361904Y-62797619D01*
X180409523Y-62892857D01*
X180409523Y-62940476D01*
X180361904Y-63035714D01*
X180314285Y-63083333D01*
X180219047Y-63130952D01*
X180028571Y-63130952D01*
X179933333Y-63178571D01*
X179885714Y-63226190D01*
X179838095Y-63321428D01*
X179838095Y-63511904D01*
X179885714Y-63607142D01*
X179933333Y-63654761D01*
X180028571Y-63702380D01*
X180219047Y-63702380D01*
X180314285Y-63654761D01*
X180361904Y-63607142D01*
X180409523Y-63511904D01*
X180409523Y-63321428D01*
X180361904Y-63226190D01*
X180314285Y-63178571D01*
X180219047Y-63130952D01*
X186938095Y-75152380D02*
X186938095Y-75961904D01*
X186985714Y-76057142D01*
X187033333Y-76104761D01*
X187128571Y-76152380D01*
X187319047Y-76152380D01*
X187414285Y-76104761D01*
X187461904Y-76057142D01*
X187509523Y-75961904D01*
X187509523Y-75152380D01*
X188414285Y-75152380D02*
X188223809Y-75152380D01*
X188128571Y-75200000D01*
X188080952Y-75247619D01*
X187985714Y-75390476D01*
X187938095Y-75580952D01*
X187938095Y-75961904D01*
X187985714Y-76057142D01*
X188033333Y-76104761D01*
X188128571Y-76152380D01*
X188319047Y-76152380D01*
X188414285Y-76104761D01*
X188461904Y-76057142D01*
X188509523Y-75961904D01*
X188509523Y-75723809D01*
X188461904Y-75628571D01*
X188414285Y-75580952D01*
X188319047Y-75533333D01*
X188128571Y-75533333D01*
X188033333Y-75580952D01*
X187985714Y-75628571D01*
X187938095Y-75723809D01*
X178938095Y-75002380D02*
X178938095Y-75811904D01*
X178985714Y-75907142D01*
X179033333Y-75954761D01*
X179128571Y-76002380D01*
X179319047Y-76002380D01*
X179414285Y-75954761D01*
X179461904Y-75907142D01*
X179509523Y-75811904D01*
X179509523Y-75002380D01*
X180509523Y-76002380D02*
X179938095Y-76002380D01*
X180223809Y-76002380D02*
X180223809Y-75002380D01*
X180128571Y-75145238D01*
X180033333Y-75240476D01*
X179938095Y-75288095D01*
X152033333Y-100507142D02*
X151985714Y-100554761D01*
X151842857Y-100602380D01*
X151747619Y-100602380D01*
X151604761Y-100554761D01*
X151509523Y-100459523D01*
X151461904Y-100364285D01*
X151414285Y-100173809D01*
X151414285Y-100030952D01*
X151461904Y-99840476D01*
X151509523Y-99745238D01*
X151604761Y-99650000D01*
X151747619Y-99602380D01*
X151842857Y-99602380D01*
X151985714Y-99650000D01*
X152033333Y-99697619D01*
X152366666Y-99602380D02*
X152985714Y-99602380D01*
X152652380Y-99983333D01*
X152795238Y-99983333D01*
X152890476Y-100030952D01*
X152938095Y-100078571D01*
X152985714Y-100173809D01*
X152985714Y-100411904D01*
X152938095Y-100507142D01*
X152890476Y-100554761D01*
X152795238Y-100602380D01*
X152509523Y-100602380D01*
X152414285Y-100554761D01*
X152366666Y-100507142D01*
X162870833Y-91107142D02*
X162823214Y-91154761D01*
X162680357Y-91202380D01*
X162585119Y-91202380D01*
X162442261Y-91154761D01*
X162347023Y-91059523D01*
X162299404Y-90964285D01*
X162251785Y-90773809D01*
X162251785Y-90630952D01*
X162299404Y-90440476D01*
X162347023Y-90345238D01*
X162442261Y-90250000D01*
X162585119Y-90202380D01*
X162680357Y-90202380D01*
X162823214Y-90250000D01*
X162870833Y-90297619D01*
X163727976Y-90535714D02*
X163727976Y-91202380D01*
X163489880Y-90154761D02*
X163251785Y-90869047D01*
X163870833Y-90869047D01*
X162870833Y-109807142D02*
X162823214Y-109854761D01*
X162680357Y-109902380D01*
X162585119Y-109902380D01*
X162442261Y-109854761D01*
X162347023Y-109759523D01*
X162299404Y-109664285D01*
X162251785Y-109473809D01*
X162251785Y-109330952D01*
X162299404Y-109140476D01*
X162347023Y-109045238D01*
X162442261Y-108950000D01*
X162585119Y-108902380D01*
X162680357Y-108902380D01*
X162823214Y-108950000D01*
X162870833Y-108997619D01*
X163727976Y-108902380D02*
X163537500Y-108902380D01*
X163442261Y-108950000D01*
X163394642Y-108997619D01*
X163299404Y-109140476D01*
X163251785Y-109330952D01*
X163251785Y-109711904D01*
X163299404Y-109807142D01*
X163347023Y-109854761D01*
X163442261Y-109902380D01*
X163632738Y-109902380D01*
X163727976Y-109854761D01*
X163775595Y-109807142D01*
X163823214Y-109711904D01*
X163823214Y-109473809D01*
X163775595Y-109378571D01*
X163727976Y-109330952D01*
X163632738Y-109283333D01*
X163442261Y-109283333D01*
X163347023Y-109330952D01*
X163299404Y-109378571D01*
X163251785Y-109473809D01*
X156757142Y-61007142D02*
X156709523Y-61054761D01*
X156566666Y-61102380D01*
X156471428Y-61102380D01*
X156328571Y-61054761D01*
X156233333Y-60959523D01*
X156185714Y-60864285D01*
X156138095Y-60673809D01*
X156138095Y-60530952D01*
X156185714Y-60340476D01*
X156233333Y-60245238D01*
X156328571Y-60150000D01*
X156471428Y-60102380D01*
X156566666Y-60102380D01*
X156709523Y-60150000D01*
X156757142Y-60197619D01*
X157709523Y-61102380D02*
X157138095Y-61102380D01*
X157423809Y-61102380D02*
X157423809Y-60102380D01*
X157328571Y-60245238D01*
X157233333Y-60340476D01*
X157138095Y-60388095D01*
X158328571Y-60102380D02*
X158423809Y-60102380D01*
X158519047Y-60150000D01*
X158566666Y-60197619D01*
X158614285Y-60292857D01*
X158661904Y-60483333D01*
X158661904Y-60721428D01*
X158614285Y-60911904D01*
X158566666Y-61007142D01*
X158519047Y-61054761D01*
X158423809Y-61102380D01*
X158328571Y-61102380D01*
X158233333Y-61054761D01*
X158185714Y-61007142D01*
X158138095Y-60911904D01*
X158090476Y-60721428D01*
X158090476Y-60483333D01*
X158138095Y-60292857D01*
X158185714Y-60197619D01*
X158233333Y-60150000D01*
X158328571Y-60102380D01*
X117519642Y-123007142D02*
X117472023Y-123054761D01*
X117329166Y-123102380D01*
X117233928Y-123102380D01*
X117091071Y-123054761D01*
X116995833Y-122959523D01*
X116948214Y-122864285D01*
X116900595Y-122673809D01*
X116900595Y-122530952D01*
X116948214Y-122340476D01*
X116995833Y-122245238D01*
X117091071Y-122150000D01*
X117233928Y-122102380D01*
X117329166Y-122102380D01*
X117472023Y-122150000D01*
X117519642Y-122197619D01*
X118472023Y-123102380D02*
X117900595Y-123102380D01*
X118186309Y-123102380D02*
X118186309Y-122102380D01*
X118091071Y-122245238D01*
X117995833Y-122340476D01*
X117900595Y-122388095D01*
X119424404Y-123102380D02*
X118852976Y-123102380D01*
X119138690Y-123102380D02*
X119138690Y-122102380D01*
X119043452Y-122245238D01*
X118948214Y-122340476D01*
X118852976Y-122388095D01*
X129394642Y-110007142D02*
X129347023Y-110054761D01*
X129204166Y-110102380D01*
X129108928Y-110102380D01*
X128966071Y-110054761D01*
X128870833Y-109959523D01*
X128823214Y-109864285D01*
X128775595Y-109673809D01*
X128775595Y-109530952D01*
X128823214Y-109340476D01*
X128870833Y-109245238D01*
X128966071Y-109150000D01*
X129108928Y-109102380D01*
X129204166Y-109102380D01*
X129347023Y-109150000D01*
X129394642Y-109197619D01*
X130347023Y-110102380D02*
X129775595Y-110102380D01*
X130061309Y-110102380D02*
X130061309Y-109102380D01*
X129966071Y-109245238D01*
X129870833Y-109340476D01*
X129775595Y-109388095D01*
X130918452Y-109530952D02*
X130823214Y-109483333D01*
X130775595Y-109435714D01*
X130727976Y-109340476D01*
X130727976Y-109292857D01*
X130775595Y-109197619D01*
X130823214Y-109150000D01*
X130918452Y-109102380D01*
X131108928Y-109102380D01*
X131204166Y-109150000D01*
X131251785Y-109197619D01*
X131299404Y-109292857D01*
X131299404Y-109340476D01*
X131251785Y-109435714D01*
X131204166Y-109483333D01*
X131108928Y-109530952D01*
X130918452Y-109530952D01*
X130823214Y-109578571D01*
X130775595Y-109626190D01*
X130727976Y-109721428D01*
X130727976Y-109911904D01*
X130775595Y-110007142D01*
X130823214Y-110054761D01*
X130918452Y-110102380D01*
X131108928Y-110102380D01*
X131204166Y-110054761D01*
X131251785Y-110007142D01*
X131299404Y-109911904D01*
X131299404Y-109721428D01*
X131251785Y-109626190D01*
X131204166Y-109578571D01*
X131108928Y-109530952D01*
X151294642Y-91057142D02*
X151247023Y-91104761D01*
X151104166Y-91152380D01*
X151008928Y-91152380D01*
X150866071Y-91104761D01*
X150770833Y-91009523D01*
X150723214Y-90914285D01*
X150675595Y-90723809D01*
X150675595Y-90580952D01*
X150723214Y-90390476D01*
X150770833Y-90295238D01*
X150866071Y-90200000D01*
X151008928Y-90152380D01*
X151104166Y-90152380D01*
X151247023Y-90200000D01*
X151294642Y-90247619D01*
X152247023Y-91152380D02*
X151675595Y-91152380D01*
X151961309Y-91152380D02*
X151961309Y-90152380D01*
X151866071Y-90295238D01*
X151770833Y-90390476D01*
X151675595Y-90438095D01*
X152723214Y-91152380D02*
X152913690Y-91152380D01*
X153008928Y-91104761D01*
X153056547Y-91057142D01*
X153151785Y-90914285D01*
X153199404Y-90723809D01*
X153199404Y-90342857D01*
X153151785Y-90247619D01*
X153104166Y-90200000D01*
X153008928Y-90152380D01*
X152818452Y-90152380D01*
X152723214Y-90200000D01*
X152675595Y-90247619D01*
X152627976Y-90342857D01*
X152627976Y-90580952D01*
X152675595Y-90676190D01*
X152723214Y-90723809D01*
X152818452Y-90771428D01*
X153008928Y-90771428D01*
X153104166Y-90723809D01*
X153151785Y-90676190D01*
X153199404Y-90580952D01*
X188207142Y-87142857D02*
X188254761Y-87190476D01*
X188302380Y-87333333D01*
X188302380Y-87428571D01*
X188254761Y-87571428D01*
X188159523Y-87666666D01*
X188064285Y-87714285D01*
X187873809Y-87761904D01*
X187730952Y-87761904D01*
X187540476Y-87714285D01*
X187445238Y-87666666D01*
X187350000Y-87571428D01*
X187302380Y-87428571D01*
X187302380Y-87333333D01*
X187350000Y-87190476D01*
X187397619Y-87142857D01*
X187397619Y-86761904D02*
X187350000Y-86714285D01*
X187302380Y-86619047D01*
X187302380Y-86380952D01*
X187350000Y-86285714D01*
X187397619Y-86238095D01*
X187492857Y-86190476D01*
X187588095Y-86190476D01*
X187730952Y-86238095D01*
X188302380Y-86809523D01*
X188302380Y-86190476D01*
X187302380Y-85333333D02*
X187302380Y-85523809D01*
X187350000Y-85619047D01*
X187397619Y-85666666D01*
X187540476Y-85761904D01*
X187730952Y-85809523D01*
X188111904Y-85809523D01*
X188207142Y-85761904D01*
X188254761Y-85714285D01*
X188302380Y-85619047D01*
X188302380Y-85428571D01*
X188254761Y-85333333D01*
X188207142Y-85285714D01*
X188111904Y-85238095D01*
X187873809Y-85238095D01*
X187778571Y-85285714D01*
X187730952Y-85333333D01*
X187683333Y-85428571D01*
X187683333Y-85619047D01*
X187730952Y-85714285D01*
X187778571Y-85761904D01*
X187873809Y-85809523D01*
X117519642Y-62707142D02*
X117472023Y-62754761D01*
X117329166Y-62802380D01*
X117233928Y-62802380D01*
X117091071Y-62754761D01*
X116995833Y-62659523D01*
X116948214Y-62564285D01*
X116900595Y-62373809D01*
X116900595Y-62230952D01*
X116948214Y-62040476D01*
X116995833Y-61945238D01*
X117091071Y-61850000D01*
X117233928Y-61802380D01*
X117329166Y-61802380D01*
X117472023Y-61850000D01*
X117519642Y-61897619D01*
X117900595Y-61897619D02*
X117948214Y-61850000D01*
X118043452Y-61802380D01*
X118281547Y-61802380D01*
X118376785Y-61850000D01*
X118424404Y-61897619D01*
X118472023Y-61992857D01*
X118472023Y-62088095D01*
X118424404Y-62230952D01*
X117852976Y-62802380D01*
X118472023Y-62802380D01*
X119043452Y-62230952D02*
X118948214Y-62183333D01*
X118900595Y-62135714D01*
X118852976Y-62040476D01*
X118852976Y-61992857D01*
X118900595Y-61897619D01*
X118948214Y-61850000D01*
X119043452Y-61802380D01*
X119233928Y-61802380D01*
X119329166Y-61850000D01*
X119376785Y-61897619D01*
X119424404Y-61992857D01*
X119424404Y-62040476D01*
X119376785Y-62135714D01*
X119329166Y-62183333D01*
X119233928Y-62230952D01*
X119043452Y-62230952D01*
X118948214Y-62278571D01*
X118900595Y-62326190D01*
X118852976Y-62421428D01*
X118852976Y-62611904D01*
X118900595Y-62707142D01*
X118948214Y-62754761D01*
X119043452Y-62802380D01*
X119233928Y-62802380D01*
X119329166Y-62754761D01*
X119376785Y-62707142D01*
X119424404Y-62611904D01*
X119424404Y-62421428D01*
X119376785Y-62326190D01*
X119329166Y-62278571D01*
X119233928Y-62230952D01*
X181057142Y-129642857D02*
X181104761Y-129690476D01*
X181152380Y-129833333D01*
X181152380Y-129928571D01*
X181104761Y-130071428D01*
X181009523Y-130166666D01*
X180914285Y-130214285D01*
X180723809Y-130261904D01*
X180580952Y-130261904D01*
X180390476Y-130214285D01*
X180295238Y-130166666D01*
X180200000Y-130071428D01*
X180152380Y-129928571D01*
X180152380Y-129833333D01*
X180200000Y-129690476D01*
X180247619Y-129642857D01*
X180152380Y-129309523D02*
X180152380Y-128690476D01*
X180533333Y-129023809D01*
X180533333Y-128880952D01*
X180580952Y-128785714D01*
X180628571Y-128738095D01*
X180723809Y-128690476D01*
X180961904Y-128690476D01*
X181057142Y-128738095D01*
X181104761Y-128785714D01*
X181152380Y-128880952D01*
X181152380Y-129166666D01*
X181104761Y-129261904D01*
X181057142Y-129309523D01*
X180485714Y-127833333D02*
X181152380Y-127833333D01*
X180104761Y-128071428D02*
X180819047Y-128309523D01*
X180819047Y-127690476D01*
X183157142Y-131957142D02*
X183109523Y-132004761D01*
X182966666Y-132052380D01*
X182871428Y-132052380D01*
X182728571Y-132004761D01*
X182633333Y-131909523D01*
X182585714Y-131814285D01*
X182538095Y-131623809D01*
X182538095Y-131480952D01*
X182585714Y-131290476D01*
X182633333Y-131195238D01*
X182728571Y-131100000D01*
X182871428Y-131052380D01*
X182966666Y-131052380D01*
X183109523Y-131100000D01*
X183157142Y-131147619D01*
X183490476Y-131052380D02*
X184109523Y-131052380D01*
X183776190Y-131433333D01*
X183919047Y-131433333D01*
X184014285Y-131480952D01*
X184061904Y-131528571D01*
X184109523Y-131623809D01*
X184109523Y-131861904D01*
X184061904Y-131957142D01*
X184014285Y-132004761D01*
X183919047Y-132052380D01*
X183633333Y-132052380D01*
X183538095Y-132004761D01*
X183490476Y-131957142D01*
X184966666Y-131052380D02*
X184776190Y-131052380D01*
X184680952Y-131100000D01*
X184633333Y-131147619D01*
X184538095Y-131290476D01*
X184490476Y-131480952D01*
X184490476Y-131861904D01*
X184538095Y-131957142D01*
X184585714Y-132004761D01*
X184680952Y-132052380D01*
X184871428Y-132052380D01*
X184966666Y-132004761D01*
X185014285Y-131957142D01*
X185061904Y-131861904D01*
X185061904Y-131623809D01*
X185014285Y-131528571D01*
X184966666Y-131480952D01*
X184871428Y-131433333D01*
X184680952Y-131433333D01*
X184585714Y-131480952D01*
X184538095Y-131528571D01*
X184490476Y-131623809D01*
X105857142Y-130452380D02*
X105523809Y-129976190D01*
X105285714Y-130452380D02*
X105285714Y-129452380D01*
X105666666Y-129452380D01*
X105761904Y-129500000D01*
X105809523Y-129547619D01*
X105857142Y-129642857D01*
X105857142Y-129785714D01*
X105809523Y-129880952D01*
X105761904Y-129928571D01*
X105666666Y-129976190D01*
X105285714Y-129976190D01*
X106238095Y-129547619D02*
X106285714Y-129500000D01*
X106380952Y-129452380D01*
X106619047Y-129452380D01*
X106714285Y-129500000D01*
X106761904Y-129547619D01*
X106809523Y-129642857D01*
X106809523Y-129738095D01*
X106761904Y-129880952D01*
X106190476Y-130452380D01*
X106809523Y-130452380D01*
X107761904Y-130452380D02*
X107190476Y-130452380D01*
X107476190Y-130452380D02*
X107476190Y-129452380D01*
X107380952Y-129595238D01*
X107285714Y-129690476D01*
X107190476Y-129738095D01*
X105857142Y-128452380D02*
X105523809Y-127976190D01*
X105285714Y-128452380D02*
X105285714Y-127452380D01*
X105666666Y-127452380D01*
X105761904Y-127500000D01*
X105809523Y-127547619D01*
X105857142Y-127642857D01*
X105857142Y-127785714D01*
X105809523Y-127880952D01*
X105761904Y-127928571D01*
X105666666Y-127976190D01*
X105285714Y-127976190D01*
X106238095Y-127547619D02*
X106285714Y-127500000D01*
X106380952Y-127452380D01*
X106619047Y-127452380D01*
X106714285Y-127500000D01*
X106761904Y-127547619D01*
X106809523Y-127642857D01*
X106809523Y-127738095D01*
X106761904Y-127880952D01*
X106190476Y-128452380D01*
X106809523Y-128452380D01*
X107190476Y-127547619D02*
X107238095Y-127500000D01*
X107333333Y-127452380D01*
X107571428Y-127452380D01*
X107666666Y-127500000D01*
X107714285Y-127547619D01*
X107761904Y-127642857D01*
X107761904Y-127738095D01*
X107714285Y-127880952D01*
X107142857Y-128452380D01*
X107761904Y-128452380D01*
X105857142Y-126452380D02*
X105523809Y-125976190D01*
X105285714Y-126452380D02*
X105285714Y-125452380D01*
X105666666Y-125452380D01*
X105761904Y-125500000D01*
X105809523Y-125547619D01*
X105857142Y-125642857D01*
X105857142Y-125785714D01*
X105809523Y-125880952D01*
X105761904Y-125928571D01*
X105666666Y-125976190D01*
X105285714Y-125976190D01*
X106238095Y-125547619D02*
X106285714Y-125500000D01*
X106380952Y-125452380D01*
X106619047Y-125452380D01*
X106714285Y-125500000D01*
X106761904Y-125547619D01*
X106809523Y-125642857D01*
X106809523Y-125738095D01*
X106761904Y-125880952D01*
X106190476Y-126452380D01*
X106809523Y-126452380D01*
X107142857Y-125452380D02*
X107761904Y-125452380D01*
X107428571Y-125833333D01*
X107571428Y-125833333D01*
X107666666Y-125880952D01*
X107714285Y-125928571D01*
X107761904Y-126023809D01*
X107761904Y-126261904D01*
X107714285Y-126357142D01*
X107666666Y-126404761D01*
X107571428Y-126452380D01*
X107285714Y-126452380D01*
X107190476Y-126404761D01*
X107142857Y-126357142D01*
X105857142Y-124452380D02*
X105523809Y-123976190D01*
X105285714Y-124452380D02*
X105285714Y-123452380D01*
X105666666Y-123452380D01*
X105761904Y-123500000D01*
X105809523Y-123547619D01*
X105857142Y-123642857D01*
X105857142Y-123785714D01*
X105809523Y-123880952D01*
X105761904Y-123928571D01*
X105666666Y-123976190D01*
X105285714Y-123976190D01*
X106238095Y-123547619D02*
X106285714Y-123500000D01*
X106380952Y-123452380D01*
X106619047Y-123452380D01*
X106714285Y-123500000D01*
X106761904Y-123547619D01*
X106809523Y-123642857D01*
X106809523Y-123738095D01*
X106761904Y-123880952D01*
X106190476Y-124452380D01*
X106809523Y-124452380D01*
X107666666Y-123785714D02*
X107666666Y-124452380D01*
X107428571Y-123404761D02*
X107190476Y-124119047D01*
X107809523Y-124119047D01*
X105857142Y-122452380D02*
X105523809Y-121976190D01*
X105285714Y-122452380D02*
X105285714Y-121452380D01*
X105666666Y-121452380D01*
X105761904Y-121500000D01*
X105809523Y-121547619D01*
X105857142Y-121642857D01*
X105857142Y-121785714D01*
X105809523Y-121880952D01*
X105761904Y-121928571D01*
X105666666Y-121976190D01*
X105285714Y-121976190D01*
X106238095Y-121547619D02*
X106285714Y-121500000D01*
X106380952Y-121452380D01*
X106619047Y-121452380D01*
X106714285Y-121500000D01*
X106761904Y-121547619D01*
X106809523Y-121642857D01*
X106809523Y-121738095D01*
X106761904Y-121880952D01*
X106190476Y-122452380D01*
X106809523Y-122452380D01*
X107714285Y-121452380D02*
X107238095Y-121452380D01*
X107190476Y-121928571D01*
X107238095Y-121880952D01*
X107333333Y-121833333D01*
X107571428Y-121833333D01*
X107666666Y-121880952D01*
X107714285Y-121928571D01*
X107761904Y-122023809D01*
X107761904Y-122261904D01*
X107714285Y-122357142D01*
X107666666Y-122404761D01*
X107571428Y-122452380D01*
X107333333Y-122452380D01*
X107238095Y-122404761D01*
X107190476Y-122357142D01*
X105857142Y-120452380D02*
X105523809Y-119976190D01*
X105285714Y-120452380D02*
X105285714Y-119452380D01*
X105666666Y-119452380D01*
X105761904Y-119500000D01*
X105809523Y-119547619D01*
X105857142Y-119642857D01*
X105857142Y-119785714D01*
X105809523Y-119880952D01*
X105761904Y-119928571D01*
X105666666Y-119976190D01*
X105285714Y-119976190D01*
X106238095Y-119547619D02*
X106285714Y-119500000D01*
X106380952Y-119452380D01*
X106619047Y-119452380D01*
X106714285Y-119500000D01*
X106761904Y-119547619D01*
X106809523Y-119642857D01*
X106809523Y-119738095D01*
X106761904Y-119880952D01*
X106190476Y-120452380D01*
X106809523Y-120452380D01*
X107666666Y-119452380D02*
X107476190Y-119452380D01*
X107380952Y-119500000D01*
X107333333Y-119547619D01*
X107238095Y-119690476D01*
X107190476Y-119880952D01*
X107190476Y-120261904D01*
X107238095Y-120357142D01*
X107285714Y-120404761D01*
X107380952Y-120452380D01*
X107571428Y-120452380D01*
X107666666Y-120404761D01*
X107714285Y-120357142D01*
X107761904Y-120261904D01*
X107761904Y-120023809D01*
X107714285Y-119928571D01*
X107666666Y-119880952D01*
X107571428Y-119833333D01*
X107380952Y-119833333D01*
X107285714Y-119880952D01*
X107238095Y-119928571D01*
X107190476Y-120023809D01*
X105857142Y-118452380D02*
X105523809Y-117976190D01*
X105285714Y-118452380D02*
X105285714Y-117452380D01*
X105666666Y-117452380D01*
X105761904Y-117500000D01*
X105809523Y-117547619D01*
X105857142Y-117642857D01*
X105857142Y-117785714D01*
X105809523Y-117880952D01*
X105761904Y-117928571D01*
X105666666Y-117976190D01*
X105285714Y-117976190D01*
X106238095Y-117547619D02*
X106285714Y-117500000D01*
X106380952Y-117452380D01*
X106619047Y-117452380D01*
X106714285Y-117500000D01*
X106761904Y-117547619D01*
X106809523Y-117642857D01*
X106809523Y-117738095D01*
X106761904Y-117880952D01*
X106190476Y-118452380D01*
X106809523Y-118452380D01*
X107142857Y-117452380D02*
X107809523Y-117452380D01*
X107380952Y-118452380D01*
X105857142Y-116452380D02*
X105523809Y-115976190D01*
X105285714Y-116452380D02*
X105285714Y-115452380D01*
X105666666Y-115452380D01*
X105761904Y-115500000D01*
X105809523Y-115547619D01*
X105857142Y-115642857D01*
X105857142Y-115785714D01*
X105809523Y-115880952D01*
X105761904Y-115928571D01*
X105666666Y-115976190D01*
X105285714Y-115976190D01*
X106238095Y-115547619D02*
X106285714Y-115500000D01*
X106380952Y-115452380D01*
X106619047Y-115452380D01*
X106714285Y-115500000D01*
X106761904Y-115547619D01*
X106809523Y-115642857D01*
X106809523Y-115738095D01*
X106761904Y-115880952D01*
X106190476Y-116452380D01*
X106809523Y-116452380D01*
X107380952Y-115880952D02*
X107285714Y-115833333D01*
X107238095Y-115785714D01*
X107190476Y-115690476D01*
X107190476Y-115642857D01*
X107238095Y-115547619D01*
X107285714Y-115500000D01*
X107380952Y-115452380D01*
X107571428Y-115452380D01*
X107666666Y-115500000D01*
X107714285Y-115547619D01*
X107761904Y-115642857D01*
X107761904Y-115690476D01*
X107714285Y-115785714D01*
X107666666Y-115833333D01*
X107571428Y-115880952D01*
X107380952Y-115880952D01*
X107285714Y-115928571D01*
X107238095Y-115976190D01*
X107190476Y-116071428D01*
X107190476Y-116261904D01*
X107238095Y-116357142D01*
X107285714Y-116404761D01*
X107380952Y-116452380D01*
X107571428Y-116452380D01*
X107666666Y-116404761D01*
X107714285Y-116357142D01*
X107761904Y-116261904D01*
X107761904Y-116071428D01*
X107714285Y-115976190D01*
X107666666Y-115928571D01*
X107571428Y-115880952D01*
X182280952Y-133652380D02*
X181947619Y-133176190D01*
X181709523Y-133652380D02*
X181709523Y-132652380D01*
X182090476Y-132652380D01*
X182185714Y-132700000D01*
X182233333Y-132747619D01*
X182280952Y-132842857D01*
X182280952Y-132985714D01*
X182233333Y-133080952D01*
X182185714Y-133128571D01*
X182090476Y-133176190D01*
X181709523Y-133176190D01*
X183233333Y-133652380D02*
X182661904Y-133652380D01*
X182947619Y-133652380D02*
X182947619Y-132652380D01*
X182852380Y-132795238D01*
X182757142Y-132890476D01*
X182661904Y-132938095D01*
X184090476Y-132652380D02*
X183900000Y-132652380D01*
X183804761Y-132700000D01*
X183757142Y-132747619D01*
X183661904Y-132890476D01*
X183614285Y-133080952D01*
X183614285Y-133461904D01*
X183661904Y-133557142D01*
X183709523Y-133604761D01*
X183804761Y-133652380D01*
X183995238Y-133652380D01*
X184090476Y-133604761D01*
X184138095Y-133557142D01*
X184185714Y-133461904D01*
X184185714Y-133223809D01*
X184138095Y-133128571D01*
X184090476Y-133080952D01*
X183995238Y-133033333D01*
X183804761Y-133033333D01*
X183709523Y-133080952D01*
X183661904Y-133128571D01*
X183614285Y-133223809D01*
X184519047Y-132652380D02*
X185185714Y-132652380D01*
X184757142Y-133652380D01*
X181252380Y-126219047D02*
X180776190Y-126552380D01*
X181252380Y-126790476D02*
X180252380Y-126790476D01*
X180252380Y-126409523D01*
X180300000Y-126314285D01*
X180347619Y-126266666D01*
X180442857Y-126219047D01*
X180585714Y-126219047D01*
X180680952Y-126266666D01*
X180728571Y-126314285D01*
X180776190Y-126409523D01*
X180776190Y-126790476D01*
X181252380Y-125266666D02*
X181252380Y-125838095D01*
X181252380Y-125552380D02*
X180252380Y-125552380D01*
X180395238Y-125647619D01*
X180490476Y-125742857D01*
X180538095Y-125838095D01*
X180252380Y-124409523D02*
X180252380Y-124600000D01*
X180300000Y-124695238D01*
X180347619Y-124742857D01*
X180490476Y-124838095D01*
X180680952Y-124885714D01*
X181061904Y-124885714D01*
X181157142Y-124838095D01*
X181204761Y-124790476D01*
X181252380Y-124695238D01*
X181252380Y-124504761D01*
X181204761Y-124409523D01*
X181157142Y-124361904D01*
X181061904Y-124314285D01*
X180823809Y-124314285D01*
X180728571Y-124361904D01*
X180680952Y-124409523D01*
X180633333Y-124504761D01*
X180633333Y-124695238D01*
X180680952Y-124790476D01*
X180728571Y-124838095D01*
X180823809Y-124885714D01*
X180680952Y-123742857D02*
X180633333Y-123838095D01*
X180585714Y-123885714D01*
X180490476Y-123933333D01*
X180442857Y-123933333D01*
X180347619Y-123885714D01*
X180300000Y-123838095D01*
X180252380Y-123742857D01*
X180252380Y-123552380D01*
X180300000Y-123457142D01*
X180347619Y-123409523D01*
X180442857Y-123361904D01*
X180490476Y-123361904D01*
X180585714Y-123409523D01*
X180633333Y-123457142D01*
X180680952Y-123552380D01*
X180680952Y-123742857D01*
X180728571Y-123838095D01*
X180776190Y-123885714D01*
X180871428Y-123933333D01*
X181061904Y-123933333D01*
X181157142Y-123885714D01*
X181204761Y-123838095D01*
X181252380Y-123742857D01*
X181252380Y-123552380D01*
X181204761Y-123457142D01*
X181157142Y-123409523D01*
X181061904Y-123361904D01*
X180871428Y-123361904D01*
X180776190Y-123409523D01*
X180728571Y-123457142D01*
X180680952Y-123552380D01*
X189052380Y-141319047D02*
X188576190Y-141652380D01*
X189052380Y-141890476D02*
X188052380Y-141890476D01*
X188052380Y-141509523D01*
X188100000Y-141414285D01*
X188147619Y-141366666D01*
X188242857Y-141319047D01*
X188385714Y-141319047D01*
X188480952Y-141366666D01*
X188528571Y-141414285D01*
X188576190Y-141509523D01*
X188576190Y-141890476D01*
X189052380Y-140366666D02*
X189052380Y-140938095D01*
X189052380Y-140652380D02*
X188052380Y-140652380D01*
X188195238Y-140747619D01*
X188290476Y-140842857D01*
X188338095Y-140938095D01*
X188052380Y-139509523D02*
X188052380Y-139700000D01*
X188100000Y-139795238D01*
X188147619Y-139842857D01*
X188290476Y-139938095D01*
X188480952Y-139985714D01*
X188861904Y-139985714D01*
X188957142Y-139938095D01*
X189004761Y-139890476D01*
X189052380Y-139795238D01*
X189052380Y-139604761D01*
X189004761Y-139509523D01*
X188957142Y-139461904D01*
X188861904Y-139414285D01*
X188623809Y-139414285D01*
X188528571Y-139461904D01*
X188480952Y-139509523D01*
X188433333Y-139604761D01*
X188433333Y-139795238D01*
X188480952Y-139890476D01*
X188528571Y-139938095D01*
X188623809Y-139985714D01*
X189052380Y-138938095D02*
X189052380Y-138747619D01*
X189004761Y-138652380D01*
X188957142Y-138604761D01*
X188814285Y-138509523D01*
X188623809Y-138461904D01*
X188242857Y-138461904D01*
X188147619Y-138509523D01*
X188100000Y-138557142D01*
X188052380Y-138652380D01*
X188052380Y-138842857D01*
X188100000Y-138938095D01*
X188147619Y-138985714D01*
X188242857Y-139033333D01*
X188480952Y-139033333D01*
X188576190Y-138985714D01*
X188623809Y-138938095D01*
X188671428Y-138842857D01*
X188671428Y-138652380D01*
X188623809Y-138557142D01*
X188576190Y-138509523D01*
X188480952Y-138461904D01*
X189280952Y-126152380D02*
X188947619Y-125676190D01*
X188709523Y-126152380D02*
X188709523Y-125152380D01*
X189090476Y-125152380D01*
X189185714Y-125200000D01*
X189233333Y-125247619D01*
X189280952Y-125342857D01*
X189280952Y-125485714D01*
X189233333Y-125580952D01*
X189185714Y-125628571D01*
X189090476Y-125676190D01*
X188709523Y-125676190D01*
X190233333Y-126152380D02*
X189661904Y-126152380D01*
X189947619Y-126152380D02*
X189947619Y-125152380D01*
X189852380Y-125295238D01*
X189757142Y-125390476D01*
X189661904Y-125438095D01*
X190566666Y-125152380D02*
X191233333Y-125152380D01*
X190804761Y-126152380D01*
X191804761Y-125152380D02*
X191900000Y-125152380D01*
X191995238Y-125200000D01*
X192042857Y-125247619D01*
X192090476Y-125342857D01*
X192138095Y-125533333D01*
X192138095Y-125771428D01*
X192090476Y-125961904D01*
X192042857Y-126057142D01*
X191995238Y-126104761D01*
X191900000Y-126152380D01*
X191804761Y-126152380D01*
X191709523Y-126104761D01*
X191661904Y-126057142D01*
X191614285Y-125961904D01*
X191566666Y-125771428D01*
X191566666Y-125533333D01*
X191614285Y-125342857D01*
X191661904Y-125247619D01*
X191709523Y-125200000D01*
X191804761Y-125152380D01*
X184652380Y-128219047D02*
X184176190Y-128552380D01*
X184652380Y-128790476D02*
X183652380Y-128790476D01*
X183652380Y-128409523D01*
X183700000Y-128314285D01*
X183747619Y-128266666D01*
X183842857Y-128219047D01*
X183985714Y-128219047D01*
X184080952Y-128266666D01*
X184128571Y-128314285D01*
X184176190Y-128409523D01*
X184176190Y-128790476D01*
X184652380Y-127266666D02*
X184652380Y-127838095D01*
X184652380Y-127552380D02*
X183652380Y-127552380D01*
X183795238Y-127647619D01*
X183890476Y-127742857D01*
X183938095Y-127838095D01*
X183652380Y-126933333D02*
X183652380Y-126266666D01*
X184652380Y-126695238D01*
X184652380Y-125361904D02*
X184652380Y-125933333D01*
X184652380Y-125647619D02*
X183652380Y-125647619D01*
X183795238Y-125742857D01*
X183890476Y-125838095D01*
X183938095Y-125933333D01*
X193414761Y-119743333D02*
X193462380Y-119600476D01*
X193462380Y-119362380D01*
X193414761Y-119267142D01*
X193367142Y-119219523D01*
X193271904Y-119171904D01*
X193176666Y-119171904D01*
X193081428Y-119219523D01*
X193033809Y-119267142D01*
X192986190Y-119362380D01*
X192938571Y-119552857D01*
X192890952Y-119648095D01*
X192843333Y-119695714D01*
X192748095Y-119743333D01*
X192652857Y-119743333D01*
X192557619Y-119695714D01*
X192510000Y-119648095D01*
X192462380Y-119552857D01*
X192462380Y-119314761D01*
X192510000Y-119171904D01*
X192462380Y-118838571D02*
X193462380Y-118600476D01*
X192748095Y-118410000D01*
X193462380Y-118219523D01*
X192462380Y-117981428D01*
X192462380Y-117695714D02*
X192462380Y-117076666D01*
X192843333Y-117410000D01*
X192843333Y-117267142D01*
X192890952Y-117171904D01*
X192938571Y-117124285D01*
X193033809Y-117076666D01*
X193271904Y-117076666D01*
X193367142Y-117124285D01*
X193414761Y-117171904D01*
X193462380Y-117267142D01*
X193462380Y-117552857D01*
X193414761Y-117648095D01*
X193367142Y-117695714D01*
M02*
