M48
; DRILL file {KiCad (5.1.5-0-10_14)} date 2020 March 03, Tuesday 11:25:32
; FORMAT={-:-/ absolute / metric / decimal}
; #@! TF.CreationDate,2020-03-03T11:25:32+01:00
; #@! TF.GenerationSoftware,Kicad,Pcbnew,(5.1.5-0-10_14)
; #@! TF.FileFunction,Plated,1,2,PTH
FMAT,2
METRIC
T1C0.300
T2C0.400
T3C0.800
T4C1.000
T5C1.100
T6C1.500
%
G90
G05
T1
X103.75Y-113.25
X106.75Y-56.5
X107.0Y-86.25
X107.25Y-57.0
X107.25Y-103.75
X107.25Y-109.5
X107.25Y-113.25
X107.25Y-129.25
X107.5Y-84.75
X107.644Y-139.704
X107.75Y-102.75
X107.75Y-110.0
X107.75Y-116.0
X107.75Y-121.25
X107.75Y-132.0
X107.75Y-135.25
X107.84Y-57.295
X108.0Y-83.75
X108.25Y-101.5
X108.25Y-108.5
X108.25Y-118.0
X108.25Y-123.5
X108.431Y-57.59
X108.5Y-82.25
X108.75Y-100.0
X108.75Y-104.68
X108.84Y-58.108
X109.0Y-81.0
X109.0Y-120.0
X109.0Y-123.0
X109.0Y-126.0
X109.0Y-130.25
X109.0Y-139.0
X109.457Y-58.343
X109.5Y-79.75
X109.813Y-58.898
X110.0Y-78.5
X110.0Y-133.25
X110.0Y-141.0
X110.009Y-59.529
X110.25Y-103.0
X110.25Y-107.0
X110.66Y-83.5
X110.66Y-88.25
X110.75Y-55.5
X110.75Y-64.0
X111.0Y-85.5
X111.0Y-70.5
X111.0Y-74.5
X111.0Y-139.0
X111.25Y-104.68
X111.25Y-55.0
X111.25Y-63.0
X111.469Y-79.224
X111.5Y-70.0
X111.75Y-54.5
X111.75Y-62.5
X111.75Y-64.5
X111.75Y-98.25
X111.75Y-101.0
X111.75Y-101.75
X111.75Y-108.5
X111.75Y-114.25
X111.75Y-116.75
X111.75Y-117.5
X111.75Y-124.0
X111.75Y-130.75
X111.873Y-79.792
X112.0Y-133.75
X112.0Y-141.0
X112.25Y-84.5
X112.25Y-54.0
X112.25Y-62.0
X112.25Y-95.5
X112.25Y-111.5
X112.25Y-121.25
X112.25Y-124.5
X112.41Y-73.25
X112.41Y-88.25
X112.5Y-74.25
X112.5Y-79.25
X112.5Y-104.25
X112.5Y-108.25
X112.5Y-127.25
X112.5Y-137.0
X112.75Y-85.5
X112.75Y-53.5
X112.75Y-61.5
X112.75Y-70.0
X113.0Y-101.75
X113.0Y-110.0
X113.0Y-117.5
X113.0Y-130.75
X113.0Y-139.0
X113.5Y-64.5
X113.5Y-95.5
X113.5Y-109.5
X113.5Y-111.5
X113.5Y-124.5
X113.5Y-136.5
X113.5Y-79.479
X113.75Y-88.25
X113.75Y-127.25
X113.75Y-70.5
X113.82Y-73.73
X113.889Y-78.836
X113.991Y-79.921
X114.0Y-84.0
X114.0Y-133.66
X114.0Y-141.0
X114.25Y-105.25
X114.25Y-85.5
X114.25Y-101.75
X114.25Y-117.59
X114.25Y-128.75
X114.25Y-130.75
X114.5Y-70.5
X114.75Y-78.25
X114.75Y-88.25
X115.0Y-64.5
X115.0Y-95.5
X115.0Y-106.25
X115.0Y-111.5
X115.0Y-123.0
X115.0Y-124.5
X115.0Y-127.25
X115.0Y-136.25
X115.0Y-139.0
X115.25Y-98.25
X115.25Y-101.5
X115.25Y-116.25
X115.25Y-120.25
X115.328Y-79.482
X115.5Y-105.75
X115.75Y-70.5
X115.75Y-85.5
X115.75Y-105.0
X115.75Y-107.5
X115.75Y-117.59
X115.75Y-130.75
X115.91Y-108.75
X116.0Y-141.0
X116.001Y-137.11
X116.153Y-111.6
X116.25Y-64.5
X116.25Y-95.5
X116.25Y-122.0
X116.25Y-124.5
X116.25Y-127.25
X116.25Y-135.77
X116.25Y-101.75
X116.328Y-79.643
X116.664Y-82.183
X116.75Y-85.75
X116.75Y-117.59
X116.95Y-111.658
X117.0Y-104.25
X117.0Y-110.75
X117.0Y-124.75
X117.0Y-130.75
X117.0Y-139.0
X117.05Y-78.918
X117.239Y-106.25
X117.239Y-107.75
X117.25Y-52.5
X117.44Y-82.115
X117.46Y-97.0
X117.62Y-82.75
X117.62Y-85.25
X117.75Y-66.0
X117.75Y-70.75
X117.941Y-53.5
X117.955Y-131.5
X118.0Y-136.5
X118.0Y-141.0
X118.5Y-132.25
X118.75Y-75.75
X119.0Y-132.75
X119.0Y-139.0
X119.25Y-76.25
X119.5Y-133.25
X119.545Y-76.84
X119.84Y-77.431
X120.0Y-136.25
X120.0Y-141.0
X120.09Y-133.795
X120.135Y-78.021
X120.36Y-103.0
X120.36Y-110.51
X120.36Y-111.25
X120.36Y-116.25
X120.36Y-120.25
X120.36Y-96.442
X120.41Y-107.0
X120.455Y-109.59
X120.5Y-52.25
X120.7Y-106.25
X120.75Y-109.0
X120.982Y-95.172
X121.0Y-51.75
X121.0Y-130.75
X121.0Y-139.0
X121.25Y-98.5
X121.5Y-67.5
X122.0Y-141.0
X122.0Y-130.25
X122.01Y-135.77
X122.23Y-114.4
X122.57Y-120.989
X122.57Y-123.5
X122.64Y-88.22
X122.75Y-72.91
X122.75Y-74.75
X123.0Y-139.0
X123.02Y-104.355
X123.14Y-86.0
X123.14Y-82.522
X123.14Y-83.423
X123.25Y-74.25
X123.25Y-129.75
X123.25Y-120.75
X123.5Y-131.25
X123.68Y-98.596
X123.75Y-72.91
X124.18Y-114.4
X124.209Y-130.41
X124.25Y-64.75
X124.32Y-88.26
X124.36Y-104.57
X124.48Y-85.75
X124.5Y-67.25
X124.5Y-84.0
X124.5Y-139.75
X124.52Y-110.5
X124.52Y-112.0
X124.52Y-106.75
X124.52Y-117.75
X124.75Y-70.75
X124.75Y-79.918
X124.84Y-122.75
X124.876Y-74.089
X124.905Y-78.0
X125.0Y-82.5
X125.0Y-139.25
X125.36Y-104.649
X125.376Y-73.655
X125.416Y-120.124
X125.5Y-140.25
X125.507Y-98.996
X125.59Y-105.75
X125.75Y-64.75
X125.824Y-73.17
X126.0Y-88.351
X126.0Y-67.25
X126.0Y-78.0
X126.0Y-79.927
X126.0Y-84.5
X126.0Y-85.75
X126.0Y-98.5
X126.0Y-140.75
X126.25Y-114.5
X126.5Y-141.25
X126.567Y-115.75
X126.75Y-117.75
X126.967Y-129.07
X127.0Y-68.5
X127.0Y-70.75
X127.0Y-73.25
X127.0Y-82.5
X127.153Y-130.07
X127.25Y-95.75
X127.255Y-120.128
X127.38Y-104.607
X127.5Y-67.25
X127.75Y-105.5
X127.75Y-141.75
X127.77Y-100.25
X127.985Y-128.974
X128.0Y-114.75
X128.11Y-98.677
X128.11Y-99.65
X128.25Y-78.75
X128.25Y-130.07
X128.34Y-82.463
X128.356Y-80.0
X128.5Y-88.75
X128.75Y-143.0
X129.0Y-120.25
X129.25Y-142.25
X129.4Y-117.75
X129.5Y-113.0
X129.75Y-139.75
X130.25Y-59.779
X130.25Y-66.0
X130.25Y-70.75
X130.25Y-73.25
X130.5Y-143.5
X130.75Y-88.5
X130.75Y-105.25
X130.75Y-81.0
X131.0Y-113.75
X131.0Y-130.07
X131.0Y-139.25
X131.09Y-80.0
X131.09Y-85.75
X131.25Y-104.25
X131.41Y-67.84
X131.5Y-61.75
X131.5Y-82.0
X131.5Y-97.0
X131.59Y-79.455
X131.75Y-77.5
X131.75Y-86.0
X132.0Y-64.0
X132.0Y-68.25
X132.25Y-110.5
X132.25Y-124.75
X132.25Y-141.25
X132.5Y-64.5
X132.5Y-66.0
X132.5Y-67.75
X132.5Y-70.25
X132.5Y-84.0
X132.5Y-88.0
X132.75Y-111.0
X132.75Y-120.5
X132.99Y-137.61
X133.0Y-74.0
X133.0Y-77.25
X133.0Y-90.0
X133.0Y-125.75
X133.09Y-69.955
X133.5Y-72.0
X133.5Y-74.5
X133.5Y-83.5
X133.5Y-91.87
X133.5Y-107.75
X133.5Y-111.5
X133.5Y-117.0
X133.5Y-119.0
X133.5Y-121.0
X133.5Y-129.5
X134.25Y-123.5
X134.25Y-127.0
X134.75Y-142.75
X136.0Y-142.75
X137.25Y-61.0
X137.25Y-63.0
X137.25Y-65.0
X137.25Y-67.0
X137.25Y-69.0
X137.25Y-71.0
X137.25Y-73.0
X137.25Y-75.0
X137.25Y-77.0
X137.25Y-79.0
X137.25Y-81.0
X137.25Y-83.0
X137.25Y-85.0
X137.25Y-87.0
X137.25Y-89.0
X137.25Y-91.0
X137.25Y-98.0
X137.25Y-100.0
X137.25Y-102.0
X137.25Y-104.0
X137.25Y-106.0
X137.25Y-108.0
X137.25Y-110.0
X137.25Y-112.0
X137.25Y-114.0
X137.25Y-116.0
X137.25Y-118.0
X137.25Y-120.0
X137.25Y-122.0
X137.25Y-124.0
X137.25Y-126.0
X137.25Y-128.0
X137.25Y-131.0
X138.5Y-131.0
X139.241Y-92.21
X139.25Y-116.75
X139.253Y-128.5
X139.469Y-121.296
X139.5Y-119.5
X139.662Y-105.08
X139.692Y-113.294
X139.697Y-93.623
X139.75Y-70.0
X139.75Y-52.5
X139.75Y-126.0
X139.75Y-130.59
X140.0Y-94.21
X140.0Y-102.75
X140.0Y-111.75
X140.0Y-120.75
X140.016Y-92.875
X140.154Y-104.641
X140.189Y-112.859
X140.25Y-59.779
X140.25Y-62.75
X140.25Y-83.75
X140.25Y-92.25
X140.25Y-118.0
X140.5Y-115.75
X140.5Y-120.25
X140.5Y-124.0
X140.5Y-110.0
X140.509Y-104.085
X140.75Y-66.5
X140.75Y-74.5
X140.75Y-82.25
X140.75Y-87.0
X140.772Y-112.425
X140.84Y-108.0
X140.951Y-137.056
X140.964Y-52.84
X141.0Y-126.75
X141.0Y-140.25
X141.381Y-136.555
X141.5Y-127.25
X141.645Y-103.484
X141.75Y-115.75
X141.75Y-124.0
X141.77Y-91.75
X141.981Y-136.28
X142.0Y-70.91
X142.0Y-76.0
X142.0Y-79.0
X142.0Y-81.02
X142.0Y-99.75
X142.09Y-127.75
X142.25Y-140.75
X142.25Y-108.0
X142.535Y-135.921
X142.654Y-128.25
X142.75Y-111.0
X142.75Y-119.0
X142.996Y-86.746
X143.0Y-52.0
X143.0Y-60.0
X143.0Y-68.0
X143.0Y-76.0
X143.0Y-92.0
X143.15Y-134.25
X143.25Y-100.25
X143.25Y-115.75
X143.25Y-126.25
X143.449Y-103.144
X143.75Y-60.25
X143.75Y-76.2
X143.75Y-87.59
X143.75Y-92.0
X143.75Y-108.25
X143.75Y-129.75
X144.25Y-134.5
X144.5Y-68.25
X144.5Y-84.25
X144.5Y-100.25
X144.5Y-116.25
X144.5Y-125.75
X145.0Y-125.25
X145.0Y-135.0
X145.0Y-141.75
X145.25Y-60.0
X145.25Y-76.25
X145.25Y-92.0
X145.25Y-108.25
X145.25Y-111.5
X145.5Y-124.75
X145.59Y-135.295
X145.75Y-68.25
X145.945Y-100.448
X146.0Y-71.41
X146.0Y-84.25
X146.0Y-116.25
X146.25Y-143.5
X146.75Y-60.0
X146.75Y-76.25
X146.75Y-92.0
X146.75Y-96.0
X146.75Y-108.25
X146.75Y-111.84
X147.0Y-68.25
X147.25Y-84.25
X147.25Y-116.25
X147.25Y-124.5
X147.25Y-137.5
X147.25Y-100.25
X147.75Y-131.75
X147.75Y-139.0
X148.0Y-60.0
X148.0Y-76.25
X148.0Y-92.0
X148.0Y-96.6
X148.0Y-108.25
X148.0Y-112.25
X148.16Y-133.75
X148.455Y-138.59
X148.5Y-68.25
X148.5Y-84.25
X148.5Y-87.25
X148.5Y-100.25
X148.5Y-104.5
X148.5Y-116.25
X148.5Y-132.25
X148.75Y-65.0
X148.75Y-138.0
X149.0Y-71.0
X149.0Y-73.0
X149.0Y-79.0
X149.0Y-103.25
X149.0Y-105.0
X149.0Y-113.0
X149.0Y-124.0
X149.0Y-132.75
X149.0Y-136.75
X149.5Y-60.0
X149.5Y-65.0
X149.5Y-68.25
X149.5Y-76.25
X149.5Y-84.25
X149.5Y-92.0
X149.5Y-100.25
X149.5Y-108.25
X149.5Y-116.25
X149.5Y-130.75
X149.5Y-133.75
X150.0Y-124.5
X150.0Y-130.0
X150.0Y-139.75
X150.25Y-60.0
X150.25Y-64.25
X150.25Y-68.25
X150.25Y-100.25
X150.436Y-137.41
X150.705Y-108.34
X150.75Y-76.25
X150.75Y-84.25
X150.75Y-92.0
X150.75Y-96.75
X150.75Y-113.0
X150.75Y-116.25
X150.75Y-130.0
X150.75Y-133.0
X151.0Y-107.75
X151.0Y-73.25
X151.25Y-139.0
X151.25Y-56.0
X151.25Y-135.25
X151.75Y-110.25
X151.75Y-119.0
X151.75Y-133.25
X151.997Y-56.499
X152.0Y-76.25
X152.0Y-80.0
X152.0Y-98.75
X152.217Y-119.467
X152.31Y-138.5
X152.5Y-82.0
X152.5Y-100.0
X152.5Y-109.75
X152.5Y-143.25
X152.5Y-75.75
X152.61Y-56.745
X152.8Y-119.776
X152.862Y-57.355
X153.0Y-82.5
X153.0Y-101.25
X153.0Y-109.25
X153.09Y-75.455
X153.321Y-57.83
X153.5Y-79.5
X153.5Y-97.5
X153.5Y-104.5
X153.5Y-108.25
X153.5Y-113.75
X153.5Y-121.25
X153.66Y-128.25
X153.75Y-75.0
X153.75Y-78.75
X153.75Y-142.75
X153.79Y-58.294
X154.0Y-115.75
X154.136Y-120.75
X154.25Y-59.382
X154.25Y-73.75
X154.25Y-80.75
X154.25Y-127.75
X154.25Y-128.75
X154.25Y-131.5
X154.25Y-140.25
X154.291Y-58.724
X154.5Y-54.13
X154.5Y-118.25
X154.5Y-120.0
X154.5Y-126.75
X154.75Y-66.5
X154.75Y-72.75
X154.75Y-81.5
X154.75Y-116.25
X154.75Y-128.25
X154.75Y-132.0
X154.75Y-140.75
X155.0Y-55.5
X155.0Y-83.25
X155.09Y-127.045
X155.12Y-120.398
X155.25Y-61.5
X155.25Y-63.0
X155.25Y-67.75
X155.25Y-69.75
X155.25Y-71.75
X155.25Y-127.686
X155.25Y-134.0
X155.25Y-141.25
X155.25Y-142.25
X155.5Y-55.0
X155.718Y-122.464
X155.75Y-124.5
X155.75Y-127.0
X155.75Y-62.5
X155.75Y-134.75
X155.75Y-141.75
X156.16Y-122.955
X156.25Y-54.5
X156.25Y-62.0
X156.5Y-134.75
X156.75Y-53.79
X156.75Y-67.25
X156.75Y-85.5
X156.75Y-87.0
X156.75Y-123.25
X156.75Y-134.0
X157.0Y-142.25
X157.24Y-112.259
X157.25Y-69.75
X157.25Y-71.75
X157.25Y-72.75
X157.25Y-97.5
X157.25Y-114.25
X157.25Y-132.0
X157.42Y-123.707
X157.5Y-83.25
X157.5Y-115.0
X157.5Y-140.25
X157.75Y-82.0
X157.75Y-98.75
X157.75Y-111.84
X157.75Y-117.0
X157.75Y-131.5
X157.795Y-124.25
X158.0Y-142.75
X158.25Y-80.0
X158.25Y-100.0
X158.25Y-117.5
X158.295Y-143.34
X158.338Y-111.462
X158.75Y-79.5
X158.75Y-101.25
X158.75Y-110.75
X158.82Y-140.77
X159.25Y-55.25
X159.25Y-69.75
X159.25Y-71.75
X159.25Y-73.75
X159.25Y-96.75
X159.25Y-107.25
X159.25Y-109.25
X159.5Y-117.75
X159.75Y-98.0
X159.75Y-107.75
X159.75Y-109.75
X160.0Y-116.75
X160.25Y-99.5
X160.25Y-110.25
X160.25Y-130.75
X160.25Y-134.0
X160.25Y-135.25
X160.25Y-141.25
X160.428Y-137.14
X160.5Y-108.75
X160.5Y-115.0
X160.75Y-100.75
X160.75Y-114.25
X160.75Y-133.25
X160.795Y-108.16
X160.844Y-136.627
X161.25Y-69.75
X161.25Y-71.75
X161.25Y-75.0
X161.25Y-109.75
X161.25Y-132.75
X161.5Y-55.25
X161.5Y-61.5
X161.5Y-141.75
X161.532Y-137.48
X161.75Y-57.5
X162.0Y-108.5
X162.0Y-119.66
X162.75Y-62.5
X162.75Y-66.5
X162.75Y-133.0
X163.25Y-55.25
X163.25Y-69.75
X163.25Y-71.75
X163.25Y-75.5
X163.25Y-78.75
X163.25Y-84.75
X163.5Y-99.25
X163.5Y-106.0
X163.5Y-113.75
X163.5Y-119.66
X163.5Y-126.25
X163.75Y-76.0
X163.75Y-80.5
X163.75Y-83.25
X164.0Y-62.5
X164.0Y-67.25
X164.0Y-71.75
X164.0Y-98.0
X164.0Y-106.75
X164.0Y-115.75
X164.0Y-125.75
X164.013Y-119.227
X164.25Y-74.25
X164.25Y-81.0
X164.25Y-84.0
X164.5Y-100.5
X164.5Y-105.5
X164.5Y-116.25
X164.5Y-118.775
X164.5Y-125.25
X164.75Y-71.75
X164.75Y-76.25
X164.75Y-82.0
X164.75Y-133.0
X164.75Y-135.0
X164.89Y-137.48
X165.0Y-102.0
X165.0Y-104.75
X165.0Y-118.25
X165.0Y-124.75
X165.25Y-55.25
X165.25Y-69.75
X165.25Y-77.75
X165.25Y-86.0
X165.5Y-121.25
X165.5Y-111.75
X165.75Y-77.25
X165.75Y-78.5
X166.0Y-113.0
X166.102Y-120.98
X166.5Y-140.5
X166.5Y-114.25
X166.748Y-120.845
X166.75Y-76.75
X166.75Y-88.0
X166.75Y-133.0
X166.75Y-135.0
X166.75Y-136.75
X167.0Y-115.75
X167.091Y-120.281
X167.25Y-69.75
X167.25Y-76.25
X167.25Y-88.75
X167.25Y-90.5
X167.25Y-96.75
X167.75Y-75.5
X167.75Y-141.34
X168.0Y-103.0
X168.25Y-81.25
X168.25Y-98.25
X168.66Y-99.25
X168.75Y-82.75
X168.75Y-133.0
X168.75Y-135.0
X168.776Y-137.14
X169.0Y-100.5
X169.0Y-141.84
X169.25Y-69.75
X169.25Y-71.75
X169.25Y-74.25
X169.25Y-84.0
X169.25Y-104.75
X169.25Y-116.25
X169.25Y-124.25
X169.5Y-85.25
X169.5Y-102.0
X169.75Y-105.5
X169.75Y-115.0
X169.75Y-123.75
X170.0Y-85.75
X170.0Y-104.41
X170.25Y-106.0
X170.25Y-113.75
X170.25Y-123.25
X170.5Y-84.0
X170.5Y-105.0
X170.75Y-106.75
X170.75Y-112.25
X170.75Y-122.783
X170.75Y-133.0
X170.75Y-135.0
X171.0Y-82.75
X171.0Y-105.75
X171.169Y-137.82
X171.25Y-127.061
X171.5Y-81.5
X171.5Y-107.25
X171.5Y-112.25
X171.75Y-127.5
X171.75Y-140.25
X172.0Y-105.75
X172.0Y-107.75
X172.0Y-113.75
X172.25Y-115.0
X172.25Y-128.25
X172.5Y-105.0
X172.5Y-109.0
X172.73Y-116.25
X172.75Y-128.75
X172.75Y-133.0
X172.75Y-135.085
X173.0Y-140.0
X173.0Y-67.0
X173.0Y-100.0
X173.0Y-104.5
X173.0Y-109.5
X173.22Y-138.16
X174.0Y-75.0
X174.0Y-82.0
X174.5Y-73.75
X174.5Y-83.25
X174.75Y-84.5
X174.75Y-133.0
X174.75Y-135.0
X175.0Y-72.75
X175.0Y-105.0
X175.25Y-115.75
X175.25Y-118.75
X175.389Y-138.5
X175.5Y-72.25
X175.5Y-86.0
X175.75Y-114.25
X175.75Y-119.25
X176.0Y-59.0
X176.0Y-83.0
X176.25Y-113.0
X176.25Y-119.75
X176.5Y-77.75
X176.5Y-96.25
X176.5Y-100.0
X176.75Y-133.0
X176.75Y-135.0
X176.75Y-139.25
X177.0Y-76.25
X177.0Y-93.75
X177.0Y-97.5
X177.0Y-101.25
X177.0Y-122.25
X177.5Y-61.5
X177.5Y-78.5
X177.5Y-81.5
X177.5Y-98.75
X177.5Y-107.0
X177.5Y-129.25
X178.0Y-60.0
X178.0Y-81.0
X178.0Y-91.25
X178.0Y-135.5
X178.5Y-60.5
X178.5Y-79.75
X178.5Y-88.75
X178.5Y-136.75
X179.0Y-61.0
X179.0Y-77.25
X179.0Y-87.5
X179.0Y-137.496
X179.497Y-137.993
X179.5Y-90.0
X179.947Y-138.476
X180.0Y-86.0
X180.25Y-71.0
X180.25Y-73.5
X180.55Y-138.744
X180.75Y-85.0
X180.954Y-139.266
X181.0Y-65.25
X181.0Y-68.5
X181.0Y-77.75
X181.25Y-83.75
X181.5Y-52.77
X181.5Y-71.0
X181.75Y-82.25
X181.8Y-139.2
X182.16Y-108.75
X182.25Y-53.5
X182.25Y-62.5
X182.25Y-71.0
X182.25Y-74.75
X182.25Y-136.0
X182.25Y-140.25
X182.5Y-109.5
X182.5Y-120.75
X182.5Y-95.0
X183.0Y-61.25
X183.0Y-62.5
X183.0Y-98.75
X183.0Y-140.75
X183.25Y-101.25
X183.25Y-121.75
X183.5Y-52.43
X183.5Y-71.0
X183.75Y-112.25
X184.0Y-141.25
X184.25Y-53.25
X184.25Y-62.5
X184.25Y-74.25
X184.25Y-110.75
X184.25Y-112.84
X184.59Y-141.545
X184.75Y-96.5
X184.75Y-113.404
X185.09Y-115.8
X185.09Y-139.8
X185.25Y-61.75
X185.25Y-100.0
X185.75Y-67.25
X185.75Y-90.5
X185.75Y-91.75
X186.0Y-102.25
X186.0Y-125.0
X186.25Y-97.5
X186.25Y-110.5
X186.5Y-65.75
X186.649Y-116.551
X186.75Y-102.25
X186.8Y-124.6
X186.8Y-127.0
X187.0Y-71.0
X187.0Y-73.5
X187.0Y-111.0
X187.0Y-120.0
X187.5Y-107.5
X187.562Y-102.286
X188.0Y-80.5
X188.0Y-141.0
X188.079Y-102.755
X188.2Y-116.4
X188.2Y-126.2
X188.25Y-52.25
X188.25Y-71.0
X188.25Y-108.25
X188.5Y-79.0
X188.75Y-111.5
X189.0Y-53.0
X189.0Y-62.5
X189.0Y-71.0
X189.0Y-74.75
X189.0Y-104.0
X189.25Y-112.25
X189.4Y-116.4
X189.4Y-139.2
X189.5Y-107.75
X189.75Y-65.25
X189.75Y-68.25
X189.75Y-72.25
X189.75Y-76.25
X189.75Y-112.75
X189.991Y-120.626
X190.0Y-109.0
X190.0Y-124.8
X190.2Y-116.4
X190.2Y-120.0
X190.25Y-71.0
X190.25Y-75.5
X190.25Y-113.25
X190.5Y-93.75
X191.0Y-52.75
X191.0Y-62.5
X192.25Y-69.5
X192.25Y-76.75
X192.4Y-118.6
X192.4Y-122.6
X192.75Y-71.0
X192.75Y-81.5
X192.75Y-83.0
X192.75Y-105.25
X193.25Y-68.5
X193.25Y-74.25
X193.25Y-76.0
X193.25Y-91.75
T2
X101.0Y-116.0
X101.0Y-118.0
X101.0Y-120.0
X101.0Y-122.0
X101.0Y-124.0
X101.0Y-126.0
X101.0Y-128.0
X101.0Y-130.0
X106.0Y-127.75
X106.25Y-141.0
X110.25Y-81.0
X110.25Y-97.75
X110.25Y-113.0
X110.25Y-126.25
X110.5Y-122.3
X110.75Y-67.5
X117.5Y-120.2
X117.5Y-127.5
X117.5Y-88.5
X117.5Y-133.25
X117.75Y-110.0
X117.8Y-103.0
X118.0Y-72.0
X118.3Y-63.45
X119.45Y-61.5
X121.5Y-122.5
X121.5Y-126.0
X121.75Y-113.0
X121.91Y-89.75
X122.088Y-97.014
X122.25Y-61.5
X122.25Y-65.25
X122.25Y-80.0
X129.5Y-63.5
X129.5Y-91.0
X129.7Y-87.25
X129.75Y-72.0
X129.75Y-119.0
X129.84Y-103.0
X139.182Y-118.865
X139.2Y-84.0
X139.7Y-61.5
X140.2Y-69.25
X140.5Y-77.5
X140.8Y-85.5
X140.8Y-101.5
X140.8Y-117.498
X141.0Y-110.75
X141.05Y-93.5
X149.55Y-135.75
X151.3Y-114.5
X151.3Y-122.0
X151.45Y-60.0
X151.45Y-66.5
X151.45Y-75.25
X151.45Y-82.75
X151.45Y-90.5
X151.45Y-98.0
X151.45Y-106.75
X154.75Y-102.0
X155.75Y-92.5
X156.0Y-105.0
X157.25Y-119.0
X159.75Y-86.75
X160.5Y-78.25
X161.25Y-130.0
X161.5Y-91.75
X163.5Y-91.75
X165.75Y-57.5
X165.75Y-87.25
X166.0Y-95.25
X167.5Y-63.75
X168.0Y-117.7
X169.5Y-62.5
X172.0Y-93.75
X172.4Y-63.8
X172.45Y-79.25
X173.25Y-101.25
X173.25Y-103.25
X173.25Y-120.75
X173.75Y-110.0
X173.75Y-125.5
X175.25Y-92.25
X175.75Y-109.75
X181.25Y-145.75
X183.55Y-111.0
X183.7Y-105.25
X186.25Y-129.75
X187.5Y-115.25
X188.0Y-72.25
X188.25Y-109.25
X189.25Y-101.8
X191.0Y-68.25
X191.0Y-123.75
X192.5Y-57.5
T3
X196.0Y-118.4
X196.0Y-120.4
X196.0Y-122.4
T4
X194.818Y-62.0
X194.818Y-64.54
X194.818Y-67.08
X194.818Y-69.62
X194.818Y-72.16
X194.818Y-74.7
X194.818Y-77.24
X194.818Y-79.78
X194.818Y-82.32
X194.818Y-84.86
X194.818Y-87.4
X194.818Y-89.94
X194.818Y-92.48
X194.818Y-95.02
X194.818Y-97.56
X194.818Y-100.1
X194.818Y-102.64
X194.818Y-105.18
X194.818Y-107.72
X194.818Y-110.26
X197.358Y-62.0
X197.358Y-64.54
X197.358Y-67.08
X197.358Y-69.62
X197.358Y-72.16
X197.358Y-74.7
X197.358Y-77.24
X197.358Y-79.78
X197.358Y-82.32
X197.358Y-84.86
X197.358Y-87.4
X197.358Y-89.94
X197.358Y-92.48
X197.358Y-95.02
X197.358Y-97.56
X197.358Y-100.1
X197.358Y-102.64
X197.358Y-105.18
X197.358Y-107.72
X197.358Y-110.26
X102.616Y-62.0
X102.616Y-64.54
X102.616Y-67.08
X102.616Y-69.62
X102.616Y-72.16
X102.616Y-74.7
X102.616Y-77.24
X102.616Y-79.78
X102.616Y-82.32
X102.616Y-84.86
X102.616Y-87.4
X102.616Y-89.94
X102.616Y-92.48
X102.616Y-95.02
X102.616Y-97.56
X102.616Y-100.1
X102.616Y-102.64
X102.616Y-105.18
X102.616Y-107.72
X102.616Y-110.26
X105.156Y-62.0
X105.156Y-64.54
X105.156Y-67.08
X105.156Y-69.62
X105.156Y-72.16
X105.156Y-74.7
X105.156Y-77.24
X105.156Y-79.78
X105.156Y-82.32
X105.156Y-84.86
X105.156Y-87.4
X105.156Y-89.94
X105.156Y-92.48
X105.156Y-95.02
X105.156Y-97.56
X105.156Y-100.1
X105.156Y-102.64
X105.156Y-105.18
X105.156Y-107.72
X105.156Y-110.26
X125.87Y-145.0
X125.87Y-147.54
X128.41Y-145.0
X128.41Y-147.54
X130.95Y-145.0
X130.95Y-147.54
X133.49Y-145.0
X133.49Y-147.54
X136.03Y-145.0
X136.03Y-147.54
X138.57Y-145.0
X138.57Y-147.54
X141.11Y-145.0
X141.11Y-147.54
X143.65Y-145.0
X143.65Y-147.54
X146.19Y-145.0
X146.19Y-147.54
X148.73Y-145.0
X148.73Y-147.54
X151.27Y-145.0
X151.27Y-147.54
X153.81Y-145.0
X153.81Y-147.54
X156.35Y-145.0
X156.35Y-147.54
X158.89Y-145.0
X158.89Y-147.54
X161.43Y-145.0
X161.43Y-147.54
X163.97Y-145.0
X163.97Y-147.54
X166.51Y-145.0
X166.51Y-147.54
X169.05Y-145.0
X169.05Y-147.54
X171.59Y-145.0
X171.59Y-147.54
X174.13Y-145.0
X174.13Y-147.54
T5
X192.0Y-128.2
X192.0Y-132.7
X198.5Y-128.2
X198.5Y-132.7
X178.0Y-143.8
X178.0Y-148.3
X184.5Y-143.8
X184.5Y-148.3
T6
X196.0Y-116.3
X196.0Y-124.5
T0
M30
