G04 #@! TF.GenerationSoftware,KiCad,Pcbnew,(5.1.6-0-10_14)*
G04 #@! TF.CreationDate,2020-12-19T15:44:30+01:00*
G04 #@! TF.ProjectId,control,636f6e74-726f-46c2-9e6b-696361645f70,2*
G04 #@! TF.SameCoordinates,Original*
G04 #@! TF.FileFunction,Copper,L2,Bot*
G04 #@! TF.FilePolarity,Positive*
%FSLAX46Y46*%
G04 Gerber Fmt 4.6, Leading zero omitted, Abs format (unit mm)*
G04 Created by KiCad (PCBNEW (5.1.6-0-10_14)) date 2020-12-19 15:44:30*
%MOMM*%
%LPD*%
G01*
G04 APERTURE LIST*
G04 #@! TA.AperFunction,ComponentPad*
%ADD10R,1.700000X1.700000*%
G04 #@! TD*
G04 #@! TA.AperFunction,ComponentPad*
%ADD11O,1.700000X1.700000*%
G04 #@! TD*
G04 #@! TA.AperFunction,ViaPad*
%ADD12C,0.800000*%
G04 #@! TD*
G04 #@! TA.AperFunction,ViaPad*
%ADD13C,0.500000*%
G04 #@! TD*
G04 #@! TA.AperFunction,Conductor*
%ADD14C,0.600000*%
G04 #@! TD*
G04 #@! TA.AperFunction,Conductor*
%ADD15C,0.400000*%
G04 #@! TD*
G04 #@! TA.AperFunction,Conductor*
%ADD16C,0.160000*%
G04 #@! TD*
G04 #@! TA.AperFunction,Conductor*
%ADD17C,0.254000*%
G04 #@! TD*
G04 APERTURE END LIST*
D10*
X111000000Y-62000000D03*
D11*
X108460000Y-62000000D03*
X111000000Y-64540000D03*
X108460000Y-64540000D03*
X111000000Y-67080000D03*
X108460000Y-67080000D03*
X111000000Y-69620000D03*
X108460000Y-69620000D03*
X111000000Y-72160000D03*
X108460000Y-72160000D03*
X111000000Y-74700000D03*
X108460000Y-74700000D03*
X111000000Y-77240000D03*
X108460000Y-77240000D03*
X111000000Y-79780000D03*
X108460000Y-79780000D03*
X111000000Y-82320000D03*
X108460000Y-82320000D03*
X111000000Y-84860000D03*
X108460000Y-84860000D03*
X111000000Y-87400000D03*
X108460000Y-87400000D03*
X111000000Y-89940000D03*
X108460000Y-89940000D03*
X111000000Y-92480000D03*
X108460000Y-92480000D03*
X111000000Y-95020000D03*
X108460000Y-95020000D03*
X111000000Y-97560000D03*
X108460000Y-97560000D03*
X111000000Y-100100000D03*
X108460000Y-100100000D03*
X111000000Y-102640000D03*
X108460000Y-102640000D03*
X111000000Y-105180000D03*
X108460000Y-105180000D03*
X111000000Y-107720000D03*
X108460000Y-107720000D03*
X111000000Y-110260000D03*
X108460000Y-110260000D03*
D12*
X111200000Y-119800000D03*
X128400000Y-62700000D03*
X142400000Y-62700000D03*
X180800000Y-62700000D03*
X126900000Y-80300000D03*
X142500000Y-80300000D03*
X158000000Y-80400000D03*
X173700000Y-80400000D03*
X189200000Y-80400000D03*
X126800000Y-98300000D03*
X142300000Y-98300000D03*
X157900000Y-98300000D03*
X173600000Y-98300000D03*
X189200000Y-98400000D03*
X127100000Y-116400000D03*
X142800000Y-116400000D03*
X158400000Y-116400000D03*
X173700000Y-116400000D03*
X189400000Y-116400000D03*
X120100000Y-116400000D03*
X135700000Y-116400000D03*
X151300000Y-116400000D03*
X166800000Y-116400000D03*
X182600000Y-116400000D03*
X182500000Y-98300000D03*
X166900000Y-98300000D03*
X151300000Y-98300000D03*
X135600000Y-98300000D03*
X120000000Y-98400000D03*
X120000000Y-80300000D03*
X135800000Y-80300000D03*
X151200000Y-80300000D03*
X166800000Y-80400000D03*
X182400000Y-80400000D03*
X121500000Y-62700000D03*
X135600000Y-62700000D03*
X174000000Y-62700000D03*
D13*
X104100000Y-93800000D03*
X109100000Y-138200000D03*
X124000000Y-138100000D03*
X126000000Y-138100000D03*
X142000000Y-138100000D03*
X144000000Y-138100000D03*
X148000000Y-138100000D03*
X159000000Y-138000000D03*
D12*
X118600000Y-74300000D03*
X134400000Y-74300000D03*
X149900000Y-74300000D03*
X165600000Y-74400000D03*
X181100000Y-74200000D03*
X198000000Y-74300000D03*
X120200000Y-56700000D03*
X134200000Y-56800000D03*
X172600000Y-56700000D03*
X118600000Y-92500000D03*
X134200000Y-92500000D03*
X149800000Y-92500000D03*
X165500000Y-92400000D03*
X181100000Y-92400000D03*
X198000000Y-92300000D03*
X118900000Y-110600000D03*
X134400000Y-110700000D03*
X150000000Y-110600000D03*
X165600000Y-110600000D03*
X181300000Y-110600000D03*
X198000000Y-110300000D03*
D13*
X139600000Y-64200000D03*
X145900000Y-64300000D03*
X145900000Y-56800000D03*
X124700000Y-91330000D03*
X125300000Y-94970000D03*
X130370000Y-94870000D03*
X185700000Y-77800000D03*
X171500000Y-106200000D03*
X177970000Y-106200000D03*
X177900000Y-96600000D03*
X185100000Y-96500000D03*
X157000000Y-126630000D03*
X177900000Y-126600000D03*
X153900000Y-78130010D03*
X139600000Y-78130010D03*
X130509928Y-78130010D03*
X177855323Y-78130010D03*
X140900000Y-109300000D03*
X115000000Y-109300000D03*
X157200000Y-67100000D03*
X162000000Y-67100000D03*
X162000000Y-87200000D03*
X170200000Y-87100000D03*
X161900000Y-124100000D03*
X122000000Y-124100000D03*
X146400000Y-68200000D03*
X146400000Y-82500000D03*
X153200000Y-82500000D03*
X185800000Y-102500000D03*
X146400000Y-102400000D03*
X162700000Y-70800000D03*
X162700000Y-101800000D03*
X170200000Y-101700000D03*
X162600000Y-124600000D03*
X144100000Y-124700000D03*
X138300000Y-81600000D03*
X140300000Y-72200000D03*
X132109979Y-81700000D03*
X132309979Y-71852968D03*
X146930000Y-73300000D03*
X146930000Y-105600000D03*
X156900000Y-105600000D03*
X146930000Y-120700000D03*
X128000000Y-120800000D03*
X158700000Y-75000000D03*
X129800000Y-126100000D03*
X158800000Y-126099998D03*
X147460000Y-75800000D03*
X147460000Y-101970000D03*
X154500000Y-101970000D03*
X147460000Y-120189959D03*
X124000000Y-120000000D03*
X131900000Y-97650000D03*
X132000000Y-55600000D03*
X126100000Y-55500000D03*
X132000000Y-121230000D03*
X126000000Y-121400000D03*
X148000000Y-99100000D03*
X148000000Y-121300000D03*
X156900000Y-121200000D03*
X140000000Y-121300000D03*
X156300000Y-121900000D03*
X138000000Y-121800000D03*
X132600000Y-122000000D03*
X132569990Y-100143559D03*
X133130000Y-102900000D03*
X133130000Y-118670000D03*
X139300000Y-118670000D03*
X133800000Y-104300000D03*
X134100000Y-118140000D03*
X140000000Y-118100000D03*
X118000000Y-125200000D03*
X172200000Y-125400000D03*
X118000000Y-105200000D03*
X155500000Y-123500000D03*
X136000000Y-123400000D03*
X130600000Y-123300000D03*
X130370000Y-101900000D03*
X138900000Y-106800000D03*
X113370001Y-106870001D03*
X178500000Y-119800000D03*
X185300000Y-119800000D03*
X178600000Y-77599994D03*
X179100246Y-119270000D03*
X187300000Y-119300000D03*
X178905582Y-78757536D03*
X117370000Y-79700000D03*
X117300000Y-85100000D03*
X179560000Y-85100000D03*
X179560000Y-108200000D03*
X187200000Y-108100000D03*
X179900000Y-81100000D03*
X180100000Y-108800000D03*
X185300000Y-108800000D03*
X116840000Y-82300000D03*
X116600000Y-113400000D03*
X122400000Y-113400000D03*
X138000000Y-113330010D03*
X154000000Y-113690021D03*
X116060001Y-83500000D03*
X116162712Y-113946610D03*
X122930000Y-113930000D03*
X154630885Y-113993336D03*
X115530001Y-84800000D03*
X115600000Y-76600000D03*
X122700000Y-76600000D03*
X115600000Y-58900000D03*
X126800000Y-58800000D03*
X140200000Y-76469990D03*
X115530001Y-86000000D03*
X115500000Y-114400000D03*
X121800000Y-114600000D03*
X169645879Y-114691377D03*
X115000001Y-87400000D03*
X115000000Y-107500000D03*
X138000000Y-107500000D03*
X114470000Y-88500000D03*
X114600000Y-108200000D03*
X123000000Y-108200000D03*
X138700000Y-108200000D03*
X113940000Y-90000000D03*
X114000000Y-108700000D03*
X123600000Y-108730000D03*
X139300000Y-108600000D03*
X130900000Y-91300000D03*
X130900000Y-66500000D03*
X123600000Y-66400000D03*
X130900000Y-119200000D03*
X171500000Y-119200000D03*
X117900000Y-95000000D03*
X117900000Y-78900000D03*
X122000000Y-78800000D03*
X117900000Y-58300000D03*
X124300000Y-58300000D03*
X123400000Y-95000000D03*
X122000000Y-96300000D03*
X156600000Y-96300000D03*
X136800000Y-63350000D03*
X131500000Y-63500000D03*
X122700000Y-82400000D03*
X124700000Y-82500000D03*
X131500000Y-96300000D03*
X174900000Y-63400000D03*
X131562423Y-82671559D03*
X177900000Y-64000000D03*
X192030000Y-64000000D03*
X192100000Y-114600000D03*
X185900000Y-114600000D03*
X178564080Y-64530000D03*
X192560000Y-64562691D03*
X192700000Y-115300000D03*
X188000000Y-115300000D03*
X179300000Y-59329996D03*
X190970000Y-59400246D03*
X190900000Y-109330000D03*
X188600000Y-109400000D03*
X178500000Y-58799996D03*
X191500000Y-58800000D03*
X191500000Y-108800000D03*
X186500000Y-108800000D03*
X143000000Y-101200000D03*
X187000000Y-101000000D03*
X123700000Y-115130000D03*
X184500000Y-115300000D03*
X124300000Y-117700000D03*
X186600000Y-117900000D03*
X124900000Y-112800000D03*
X188000000Y-112100000D03*
X125700000Y-112370000D03*
X186000000Y-112270000D03*
X124000000Y-95500000D03*
X125900000Y-102200000D03*
X138300000Y-95400000D03*
X155800000Y-95400000D03*
X168700000Y-95400000D03*
X171500000Y-95400000D03*
X187100000Y-95400000D03*
X128630010Y-102200000D03*
X128630010Y-95400000D03*
X126300000Y-53649999D03*
X129900000Y-53700000D03*
X129900000Y-59600000D03*
X139300000Y-59600000D03*
X129900000Y-87100000D03*
X155800000Y-87100000D03*
X124000000Y-78130010D03*
X129809915Y-78130010D03*
X172800000Y-84570000D03*
X137700000Y-84000000D03*
X117470000Y-106300000D03*
X117400000Y-126700000D03*
X120000000Y-126700000D03*
X123300000Y-72700000D03*
X124700000Y-72700000D03*
X139600000Y-90400000D03*
X134249999Y-106300000D03*
X152900000Y-117600000D03*
X145170000Y-117600000D03*
X145170000Y-106100000D03*
X132469990Y-90400000D03*
X132309979Y-72620602D03*
X123400000Y-94200000D03*
X125900000Y-94300000D03*
X170970000Y-94300000D03*
X184400000Y-94300000D03*
X139000000Y-69090000D03*
X161470000Y-68900000D03*
X144000000Y-68800000D03*
X125400000Y-61400000D03*
X176600000Y-61300000D03*
X176600000Y-89300000D03*
X122700000Y-89300000D03*
X141000000Y-66550000D03*
X164400000Y-66100000D03*
X164400000Y-59500000D03*
X177837305Y-59525504D03*
X125600000Y-105170000D03*
X129840000Y-105170000D03*
X129370000Y-70200000D03*
X124770000Y-70200000D03*
X185800000Y-87700000D03*
X129840000Y-87960000D03*
X140300000Y-89830000D03*
X160009999Y-89830000D03*
X160000000Y-75700000D03*
X154500000Y-75700000D03*
X172300000Y-105500000D03*
X160100000Y-105500000D03*
X124900000Y-104579999D03*
X124300000Y-103519999D03*
X135559998Y-104000000D03*
X134400000Y-96100000D03*
X140900000Y-96000000D03*
X170440000Y-96730000D03*
X187700000Y-97000000D03*
X122400000Y-105700000D03*
X135029998Y-105500000D03*
X133800000Y-94870000D03*
X138900000Y-94870000D03*
X124200246Y-65970000D03*
X132839989Y-65839989D03*
X139000000Y-82000000D03*
X134049999Y-82130000D03*
X138300000Y-64700000D03*
X133900000Y-64600000D03*
X125300000Y-79030000D03*
X133550000Y-55500000D03*
X138300000Y-55500000D03*
X133362640Y-79218012D03*
X140200000Y-58400000D03*
X144430000Y-58400000D03*
X123400000Y-83030000D03*
X144400000Y-83100000D03*
X140200000Y-99900000D03*
X145170000Y-99900000D03*
X145200000Y-54700000D03*
X140900000Y-54700000D03*
X125600000Y-59960000D03*
X149060000Y-60164080D03*
X149060000Y-106130000D03*
X156200000Y-106130000D03*
X125300000Y-69090000D03*
X129000000Y-69090000D03*
X126800000Y-67610000D03*
X177300000Y-67600000D03*
X177300000Y-101970000D03*
X186400000Y-102000000D03*
X124000000Y-71600000D03*
X148000000Y-71700000D03*
X148000000Y-97230010D03*
X153800000Y-97230010D03*
X127570000Y-86500000D03*
X169500000Y-86600000D03*
X141430000Y-94870000D03*
X169400000Y-94830000D03*
X185900000Y-82900000D03*
X155900000Y-82900000D03*
X188400000Y-81700000D03*
X155200000Y-81700000D03*
X172100000Y-94830000D03*
X188230000Y-94800000D03*
X154000000Y-84100000D03*
X160600000Y-84200000D03*
X160630000Y-96200000D03*
X172100000Y-96200000D03*
X156500000Y-76469990D03*
X154600000Y-76469990D03*
X157430000Y-106200000D03*
X160009999Y-106200000D03*
X170900000Y-113400000D03*
X160009999Y-113690021D03*
X141200000Y-113330010D03*
X169000000Y-113330010D03*
X125300000Y-88500000D03*
X159230000Y-88400000D03*
X157100000Y-90360000D03*
X189500000Y-90400000D03*
X138300000Y-104439999D03*
X172900000Y-104300000D03*
X145700000Y-69700000D03*
X145800000Y-122600000D03*
X142000000Y-122600000D03*
X184400000Y-83500000D03*
X145700000Y-83500000D03*
X155000000Y-129900000D03*
X148530000Y-129800000D03*
X148700000Y-59500000D03*
X124800000Y-59430000D03*
X168900000Y-82300000D03*
X186470000Y-82300000D03*
X163230000Y-123000000D03*
X163230000Y-82400000D03*
X109800000Y-122600000D03*
X117120001Y-93700000D03*
X117120001Y-85800000D03*
X187000000Y-85800000D03*
X138400000Y-77000000D03*
X172100000Y-77070000D03*
X185200000Y-76700000D03*
X163700000Y-77000000D03*
X139000003Y-55500000D03*
X143900000Y-55500000D03*
X139600000Y-71300000D03*
X144130010Y-71147022D03*
X122600000Y-100630000D03*
X144130000Y-101500000D03*
X144200000Y-84500000D03*
X140900000Y-84500000D03*
X152695000Y-103100000D03*
X164830000Y-103030000D03*
X164830000Y-91000000D03*
X170800000Y-91000000D03*
X137300000Y-115130000D03*
X164300000Y-115130000D03*
X164400000Y-72300000D03*
X155200000Y-72400000D03*
X155200000Y-103600000D03*
X160630000Y-103500000D03*
X160600000Y-114070000D03*
X170200000Y-114100000D03*
X187100000Y-76200000D03*
X170800000Y-76469990D03*
D14*
X108460000Y-62000000D02*
X101100000Y-69360000D01*
X109649999Y-111610001D02*
X111000000Y-110260000D01*
X107811999Y-111610001D02*
X109649999Y-111610001D01*
X101100000Y-104898002D02*
X107811999Y-111610001D01*
X111000000Y-119600000D02*
X111200000Y-119800000D01*
X111000000Y-110260000D02*
X111000000Y-119600000D01*
X111200000Y-119800000D02*
X101200000Y-129800000D01*
X101200000Y-129800000D02*
X101200000Y-146100000D01*
X101200000Y-146100000D02*
X103800000Y-148700000D01*
X194408002Y-148700000D02*
X198900001Y-144208001D01*
X103800000Y-148700000D02*
X194408002Y-148700000D01*
X195999999Y-52899999D02*
X109600001Y-52899999D01*
X198900001Y-55800001D02*
X195999999Y-52899999D01*
X108460000Y-54040000D02*
X108460000Y-62000000D01*
X109600001Y-52899999D02*
X108460000Y-54040000D01*
D15*
X157900000Y-80300000D02*
X158000000Y-80400000D01*
X189100000Y-98300000D02*
X189200000Y-98400000D01*
X189200000Y-98400000D02*
X198800000Y-98400000D01*
X198800000Y-98400000D02*
X198900001Y-98299999D01*
X189765686Y-80400001D02*
X198900001Y-80400001D01*
X189200000Y-80400000D02*
X189765686Y-80400001D01*
D14*
X198900001Y-98299999D02*
X198900001Y-80400001D01*
D15*
X198800000Y-116400000D02*
X198900001Y-116500001D01*
X189400000Y-116400000D02*
X198800000Y-116400000D01*
D14*
X198900001Y-116500001D02*
X198900001Y-98299999D01*
X198900001Y-144208001D02*
X198900001Y-116500001D01*
D15*
X120100000Y-116400000D02*
X127100000Y-116400000D01*
X135700000Y-116400000D02*
X142800000Y-116400000D01*
X127100000Y-116400000D02*
X135700000Y-116400000D01*
X151300000Y-116400000D02*
X158400000Y-116400000D01*
X142800000Y-116400000D02*
X151300000Y-116400000D01*
X166800000Y-116400000D02*
X173700000Y-116400000D01*
X158400000Y-116400000D02*
X166800000Y-116400000D01*
X182600000Y-116400000D02*
X189400000Y-116400000D01*
X173700000Y-116400000D02*
X182600000Y-116400000D01*
X182500000Y-98300000D02*
X189100000Y-98300000D01*
X173600000Y-98300000D02*
X182500000Y-98300000D01*
X166900000Y-98300000D02*
X173600000Y-98300000D01*
X157900000Y-98300000D02*
X166900000Y-98300000D01*
X151300000Y-98300000D02*
X157900000Y-98300000D01*
X142300000Y-98300000D02*
X151300000Y-98300000D01*
X135600000Y-98300000D02*
X142300000Y-98300000D01*
X126800000Y-98300000D02*
X135600000Y-98300000D01*
X126700000Y-98400000D02*
X126800000Y-98300000D01*
X120000000Y-98400000D02*
X126700000Y-98400000D01*
X120000000Y-80300000D02*
X126900000Y-80300000D01*
X135800000Y-80300000D02*
X142500000Y-80300000D01*
X126900000Y-80300000D02*
X135800000Y-80300000D01*
X151200000Y-80300000D02*
X157900000Y-80300000D01*
X142500000Y-80300000D02*
X151200000Y-80300000D01*
X166800000Y-80400000D02*
X173700000Y-80400000D01*
X158000000Y-80400000D02*
X166800000Y-80400000D01*
X182400000Y-80400000D02*
X189200000Y-80400000D01*
X173700000Y-80400000D02*
X182400000Y-80400000D01*
X121500000Y-62700000D02*
X128400000Y-62700000D01*
X135600000Y-62700000D02*
X142400000Y-62700000D01*
X128400000Y-62700000D02*
X135600000Y-62700000D01*
X174000000Y-62700000D02*
X180800000Y-62700000D01*
X142400000Y-62700000D02*
X174000000Y-62700000D01*
X181365686Y-62699999D02*
X198900001Y-62699999D01*
X180800000Y-62700000D02*
X181365686Y-62699999D01*
D14*
X198900001Y-62699999D02*
X198900001Y-55800001D01*
X198900001Y-80400001D02*
X198900001Y-62699999D01*
D16*
X101300000Y-93800000D02*
X101100000Y-94000000D01*
X104100000Y-93800000D02*
X101300000Y-93800000D01*
D14*
X101100000Y-94000000D02*
X101100000Y-104898002D01*
X101100000Y-69360000D02*
X101100000Y-94000000D01*
D15*
X118600000Y-74300000D02*
X134400000Y-74300000D01*
X134400000Y-74300000D02*
X149900000Y-74300000D01*
X165500000Y-74300000D02*
X165600000Y-74400000D01*
X149900000Y-74300000D02*
X165500000Y-74300000D01*
X180900000Y-74400000D02*
X181100000Y-74200000D01*
X165600000Y-74400000D02*
X180900000Y-74400000D01*
X197900000Y-74200000D02*
X198000000Y-74300000D01*
X181100000Y-74200000D02*
X197900000Y-74200000D01*
X134100000Y-56700000D02*
X134200000Y-56800000D01*
X120200000Y-56700000D02*
X134100000Y-56700000D01*
X172500000Y-56800000D02*
X172600000Y-56700000D01*
X134200000Y-92500000D02*
X149800000Y-92500000D01*
X165400000Y-92500000D02*
X165500000Y-92400000D01*
X149800000Y-92500000D02*
X165400000Y-92500000D01*
X165500000Y-92400000D02*
X181100000Y-92400000D01*
X181100000Y-92400000D02*
X197900000Y-92400000D01*
X197900000Y-92400000D02*
X198000000Y-92300000D01*
X134300000Y-110600000D02*
X134400000Y-110700000D01*
X118900000Y-110600000D02*
X134300000Y-110600000D01*
X149900000Y-110700000D02*
X150000000Y-110600000D01*
X134400000Y-110700000D02*
X149900000Y-110700000D01*
X150000000Y-110600000D02*
X165600000Y-110600000D01*
X165600000Y-110600000D02*
X181300000Y-110600000D01*
X197700000Y-110600000D02*
X198000000Y-110300000D01*
X181300000Y-110600000D02*
X197700000Y-110600000D01*
D16*
X145800000Y-64200000D02*
X145900000Y-64300000D01*
X139600000Y-64200000D02*
X145800000Y-64200000D01*
D15*
X145900000Y-56800000D02*
X172500000Y-56800000D01*
X134200000Y-56800000D02*
X145900000Y-56800000D01*
D16*
X124700000Y-92400000D02*
X124800000Y-92500000D01*
X124700000Y-91330000D02*
X124700000Y-92400000D01*
D15*
X124800000Y-92500000D02*
X134200000Y-92500000D01*
X118600000Y-92500000D02*
X124800000Y-92500000D01*
D16*
X125400000Y-94870000D02*
X130370000Y-94870000D01*
X125300000Y-94970000D02*
X125400000Y-94870000D01*
X171500000Y-106200000D02*
X177970000Y-106200000D01*
X185000000Y-96600000D02*
X185100000Y-96500000D01*
X177900000Y-96600000D02*
X185000000Y-96600000D01*
X177870000Y-126630000D02*
X177900000Y-126600000D01*
X157000000Y-126630000D02*
X177870000Y-126630000D01*
X139600000Y-78130010D02*
X139953553Y-78130010D01*
X130509928Y-78130010D02*
X130863481Y-78130010D01*
X139953553Y-78130010D02*
X153900000Y-78130010D01*
X130863481Y-78130010D02*
X139600000Y-78130010D01*
X153900000Y-78130010D02*
X177855323Y-78130010D01*
X185700000Y-77800000D02*
X179284404Y-77800000D01*
X179284404Y-77800000D02*
X178854402Y-78230002D01*
X178854402Y-78230002D02*
X177955315Y-78230002D01*
X177955315Y-78230002D02*
X177855323Y-78130010D01*
X109590001Y-108850001D02*
X111542401Y-108850001D01*
X111542401Y-108850001D02*
X111992400Y-109300000D01*
X108460000Y-107720000D02*
X109590001Y-108850001D01*
X111992400Y-109300000D02*
X115000000Y-109300000D01*
X115000000Y-109300000D02*
X140900000Y-109300000D01*
X157200000Y-67100000D02*
X162000000Y-67100000D01*
X170100000Y-87200000D02*
X170200000Y-87100000D01*
X162000000Y-87200000D02*
X170100000Y-87200000D01*
X161900000Y-124100000D02*
X122000000Y-124100000D01*
X156950001Y-66850001D02*
X157200000Y-67100000D01*
X156900842Y-66800842D02*
X156950001Y-66850001D01*
X143168197Y-67080000D02*
X143447355Y-66800842D01*
X143447355Y-66800842D02*
X156900842Y-66800842D01*
X111000000Y-67080000D02*
X143168197Y-67080000D01*
X146400000Y-82500000D02*
X153200000Y-82500000D01*
X146500000Y-102500000D02*
X146400000Y-102400000D01*
X185800000Y-102500000D02*
X146500000Y-102500000D01*
X108460000Y-67080000D02*
X109590001Y-68210001D01*
X144361769Y-67520863D02*
X145040906Y-68200000D01*
X143056460Y-68210001D02*
X143745598Y-67520863D01*
X145040906Y-68200000D02*
X146400000Y-68200000D01*
X109590001Y-68210001D02*
X143056460Y-68210001D01*
X143745598Y-67520863D02*
X144361769Y-67520863D01*
X170100000Y-101800000D02*
X170200000Y-101700000D01*
X162700000Y-101800000D02*
X170100000Y-101800000D01*
X162500000Y-124700000D02*
X144100000Y-124700000D01*
X162600000Y-124600000D02*
X162500000Y-124700000D01*
X143659593Y-70750001D02*
X143859593Y-70550001D01*
X108460000Y-69620000D02*
X109590001Y-70750001D01*
X109590001Y-70750001D02*
X143659593Y-70750001D01*
X162450001Y-70550001D02*
X162700000Y-70800000D01*
X143859593Y-70550001D02*
X162450001Y-70550001D01*
X132209979Y-81600000D02*
X132109979Y-81700000D01*
X138300000Y-81600000D02*
X132209979Y-81600000D01*
X132002947Y-72160000D02*
X132309979Y-71852968D01*
X140300000Y-72200000D02*
X132657011Y-72200000D01*
X132657011Y-72200000D02*
X132309979Y-71852968D01*
X111000000Y-72160000D02*
X132002947Y-72160000D01*
X109600000Y-73300000D02*
X146930000Y-73300000D01*
X108460000Y-72160000D02*
X109600000Y-73300000D01*
X146930000Y-105600000D02*
X156900000Y-105600000D01*
X128100000Y-120700000D02*
X128000000Y-120800000D01*
X146930000Y-120700000D02*
X128100000Y-120700000D01*
X111300000Y-75000000D02*
X158700000Y-75000000D01*
X111000000Y-74700000D02*
X111300000Y-75000000D01*
X158799998Y-126100000D02*
X158800000Y-126099998D01*
X129800000Y-126100000D02*
X158799998Y-126100000D01*
X109590001Y-75830001D02*
X147429999Y-75830001D01*
X147429999Y-75830001D02*
X147460000Y-75800000D01*
X108460000Y-74700000D02*
X109590001Y-75830001D01*
X147460000Y-101970000D02*
X154500000Y-101970000D01*
X147270041Y-120000000D02*
X124000000Y-120000000D01*
X147460000Y-120189959D02*
X147270041Y-120000000D01*
X131810000Y-97560000D02*
X131900000Y-97650000D01*
X111000000Y-97560000D02*
X131810000Y-97560000D01*
X126200000Y-55600000D02*
X126100000Y-55500000D01*
X132000000Y-55600000D02*
X126200000Y-55600000D01*
X126079999Y-121479999D02*
X126000000Y-121400000D01*
X131750001Y-121479999D02*
X126079999Y-121479999D01*
X132000000Y-121230000D02*
X131750001Y-121479999D01*
X111542401Y-98690001D02*
X111952400Y-99100000D01*
X109590001Y-98690001D02*
X111542401Y-98690001D01*
X111952400Y-99100000D02*
X148000000Y-99100000D01*
X108460000Y-97560000D02*
X109590001Y-98690001D01*
X156800000Y-121300000D02*
X156900000Y-121200000D01*
X148000000Y-121300000D02*
X156800000Y-121300000D01*
X148000000Y-121300000D02*
X140000000Y-121300000D01*
X138100000Y-121900000D02*
X138000000Y-121800000D01*
X156300000Y-121900000D02*
X138100000Y-121900000D01*
X132800000Y-121800000D02*
X132600000Y-122000000D01*
X138000000Y-121800000D02*
X132800000Y-121800000D01*
X111000000Y-100100000D02*
X132526431Y-100100000D01*
X132526431Y-100100000D02*
X132569990Y-100143559D01*
X111260000Y-102900000D02*
X133130000Y-102900000D01*
X111000000Y-102640000D02*
X111260000Y-102900000D01*
X133130000Y-118670000D02*
X139300000Y-118670000D01*
X133549999Y-104049999D02*
X109869999Y-104049999D01*
X109869999Y-104049999D02*
X108460000Y-102640000D01*
X133800000Y-104300000D02*
X133549999Y-104049999D01*
X139960000Y-118140000D02*
X140000000Y-118100000D01*
X134100000Y-118140000D02*
X139960000Y-118140000D01*
X172150001Y-125449999D02*
X172200000Y-125400000D01*
X118000000Y-125200000D02*
X118249999Y-125449999D01*
X118249999Y-125449999D02*
X172150001Y-125449999D01*
X111020000Y-105200000D02*
X111000000Y-105180000D01*
X118000000Y-105200000D02*
X111020000Y-105200000D01*
X136100000Y-123500000D02*
X136000000Y-123400000D01*
X155500000Y-123500000D02*
X136100000Y-123500000D01*
X130700000Y-123400000D02*
X130600000Y-123300000D01*
X136000000Y-123400000D02*
X130700000Y-123400000D01*
X109869999Y-101509999D02*
X108460000Y-100100000D01*
X129979999Y-101509999D02*
X109869999Y-101509999D01*
X130370000Y-101900000D02*
X129979999Y-101509999D01*
X138829999Y-106870001D02*
X138900000Y-106800000D01*
X111000000Y-107720000D02*
X111849999Y-106870001D01*
X113370001Y-106870001D02*
X138829999Y-106870001D01*
X111849999Y-106870001D02*
X113370001Y-106870001D01*
X178500000Y-119800000D02*
X185300000Y-119800000D01*
X112562085Y-77600004D02*
X178599990Y-77600004D01*
X111000000Y-77240000D02*
X112202081Y-77240000D01*
X178599990Y-77600004D02*
X178600000Y-77599994D01*
X112202081Y-77240000D02*
X112562085Y-77600004D01*
X187270000Y-119270000D02*
X187300000Y-119300000D01*
X179100246Y-119270000D02*
X187270000Y-119270000D01*
X124414414Y-78500000D02*
X129395501Y-78500000D01*
X124254402Y-78660012D02*
X124414414Y-78500000D01*
X178808058Y-78660012D02*
X178905582Y-78757536D01*
X129555513Y-78660012D02*
X178808058Y-78660012D01*
X111542401Y-78370001D02*
X111758001Y-78154401D01*
X123745598Y-78660012D02*
X124254402Y-78660012D01*
X109590001Y-78370001D02*
X111542401Y-78370001D01*
X108460000Y-77240000D02*
X109590001Y-78370001D01*
X129395501Y-78500000D02*
X129555513Y-78660012D01*
X111758001Y-78154401D02*
X123239987Y-78154401D01*
X123239987Y-78154401D02*
X123745598Y-78660012D01*
X117290000Y-79780000D02*
X117370000Y-79700000D01*
X111000000Y-79780000D02*
X117290000Y-79780000D01*
X117300000Y-85100000D02*
X179560000Y-85100000D01*
X187100000Y-108200000D02*
X187200000Y-108100000D01*
X179560000Y-108200000D02*
X187100000Y-108200000D01*
X151646400Y-81100000D02*
X179900000Y-81100000D01*
X109660001Y-80980001D02*
X151526401Y-80980001D01*
X151526401Y-80980001D02*
X151646400Y-81100000D01*
X108460000Y-79780000D02*
X109660001Y-80980001D01*
X180100000Y-108800000D02*
X185300000Y-108800000D01*
X116820000Y-82320000D02*
X116840000Y-82300000D01*
X111000000Y-82320000D02*
X116820000Y-82320000D01*
X116600000Y-113400000D02*
X122400000Y-113400000D01*
X138530002Y-113860012D02*
X153830009Y-113860012D01*
X122400000Y-113400000D02*
X137930010Y-113400000D01*
X137930010Y-113400000D02*
X138000000Y-113330010D01*
X138000000Y-113330010D02*
X138530002Y-113860012D01*
X153830009Y-113860012D02*
X154000000Y-113690021D01*
X109640000Y-83500000D02*
X116060001Y-83500000D01*
X108460000Y-82320000D02*
X109640000Y-83500000D01*
X122913390Y-113946610D02*
X122930000Y-113930000D01*
X116162712Y-113946610D02*
X122913390Y-113946610D01*
X122930000Y-113930000D02*
X123220023Y-114220023D01*
X123220023Y-114220023D02*
X154404198Y-114220023D01*
X154404198Y-114220023D02*
X154630885Y-113993336D01*
X115470001Y-84860000D02*
X115530001Y-84800000D01*
X111000000Y-84860000D02*
X115470001Y-84860000D01*
X115600000Y-76600000D02*
X122700000Y-76600000D01*
X126700000Y-58900000D02*
X126800000Y-58800000D01*
X115600000Y-58900000D02*
X126700000Y-58900000D01*
X139950001Y-76219991D02*
X140200000Y-76469990D01*
X122700000Y-76600000D02*
X123080009Y-76219991D01*
X123080009Y-76219991D02*
X139950001Y-76219991D01*
X115520002Y-85990001D02*
X115530001Y-86000000D01*
X109590001Y-85990001D02*
X115520002Y-85990001D01*
X108460000Y-84860000D02*
X109590001Y-85990001D01*
X115700000Y-114600000D02*
X121800000Y-114600000D01*
X115500000Y-114400000D02*
X115700000Y-114600000D01*
X121800000Y-114600000D02*
X169554502Y-114600000D01*
X169554502Y-114600000D02*
X169645879Y-114691377D01*
X111000000Y-87400000D02*
X115000001Y-87400000D01*
X115000000Y-107500000D02*
X138000000Y-107500000D01*
X114439999Y-88530001D02*
X114470000Y-88500000D01*
X109590001Y-88530001D02*
X114439999Y-88530001D01*
X108460000Y-87400000D02*
X109590001Y-88530001D01*
X114600000Y-108200000D02*
X123000000Y-108200000D01*
X123000000Y-108200000D02*
X138700000Y-108200000D01*
X113880000Y-89940000D02*
X113940000Y-90000000D01*
X111000000Y-89940000D02*
X113880000Y-89940000D01*
X114030000Y-108730000D02*
X123600000Y-108730000D01*
X114000000Y-108700000D02*
X114030000Y-108730000D01*
X139170000Y-108730000D02*
X139300000Y-108600000D01*
X123600000Y-108730000D02*
X139170000Y-108730000D01*
X123700000Y-66500000D02*
X123600000Y-66400000D01*
X130900000Y-66500000D02*
X123700000Y-66500000D01*
X130400000Y-90800000D02*
X130900000Y-91300000D01*
X111812402Y-90800000D02*
X130400000Y-90800000D01*
X110457599Y-91070001D02*
X111542401Y-91070001D01*
X111542401Y-91070001D02*
X111812402Y-90800000D01*
X110187598Y-90800000D02*
X110457599Y-91070001D01*
X109320000Y-90800000D02*
X110187598Y-90800000D01*
X108460000Y-89940000D02*
X109320000Y-90800000D01*
X130900000Y-119200000D02*
X171500000Y-119200000D01*
X117880000Y-95020000D02*
X117900000Y-95000000D01*
X111000000Y-95020000D02*
X117880000Y-95020000D01*
X121900000Y-78900000D02*
X122000000Y-78800000D01*
X117900000Y-78900000D02*
X121900000Y-78900000D01*
X117900000Y-58300000D02*
X124300000Y-58300000D01*
X123400000Y-95000000D02*
X117900000Y-95000000D01*
X109740000Y-96300000D02*
X122000000Y-96300000D01*
X108460000Y-95020000D02*
X109740000Y-96300000D01*
X136650000Y-63500000D02*
X131500000Y-63500000D01*
X136800000Y-63350000D02*
X136650000Y-63500000D01*
X122800000Y-82500000D02*
X122700000Y-82400000D01*
X124700000Y-82500000D02*
X122800000Y-82500000D01*
X122000000Y-96300000D02*
X131500000Y-96300000D01*
X136850000Y-63400000D02*
X174900000Y-63400000D01*
X136800000Y-63350000D02*
X136850000Y-63400000D01*
X131390864Y-82500000D02*
X131562423Y-82671559D01*
X124700000Y-82500000D02*
X131390864Y-82500000D01*
X156200000Y-96700000D02*
X156600000Y-96300000D01*
X131900000Y-96700000D02*
X156200000Y-96700000D01*
X131500000Y-96300000D02*
X131900000Y-96700000D01*
X177900000Y-64000000D02*
X192030000Y-64000000D01*
X192100000Y-114600000D02*
X185900000Y-114600000D01*
X192527309Y-64530000D02*
X192560000Y-64562691D01*
X178564080Y-64530000D02*
X192527309Y-64530000D01*
X192700000Y-115300000D02*
X188000000Y-115300000D01*
X190899750Y-59329996D02*
X190970000Y-59400246D01*
X179300000Y-59329996D02*
X190899750Y-59329996D01*
X188670000Y-109330000D02*
X188600000Y-109400000D01*
X190900000Y-109330000D02*
X188670000Y-109330000D01*
X191499996Y-58799996D02*
X191500000Y-58800000D01*
X178500000Y-58799996D02*
X191499996Y-58799996D01*
X191500000Y-108800000D02*
X186500000Y-108800000D01*
X186950001Y-100950001D02*
X187000000Y-101000000D01*
X143249999Y-100950001D02*
X186950001Y-100950001D01*
X143000000Y-101200000D02*
X143249999Y-100950001D01*
X124230001Y-115660001D02*
X184139999Y-115660001D01*
X184139999Y-115660001D02*
X184500000Y-115300000D01*
X123700000Y-115130000D02*
X124230001Y-115660001D01*
X145594392Y-117239990D02*
X152475608Y-117239990D01*
X145424401Y-117069999D02*
X145594392Y-117239990D01*
X144639999Y-117345599D02*
X144915599Y-117069999D01*
X124300000Y-117700000D02*
X124654401Y-117345599D01*
X152475608Y-117239990D02*
X152645599Y-117069999D01*
X153984402Y-117900000D02*
X186600000Y-117900000D01*
X153154401Y-117069999D02*
X153984402Y-117900000D01*
X124654401Y-117345599D02*
X144639999Y-117345599D01*
X144915599Y-117069999D02*
X145424401Y-117069999D01*
X152645599Y-117069999D02*
X153154401Y-117069999D01*
X187300000Y-112800000D02*
X188000000Y-112100000D01*
X130000000Y-112800000D02*
X187300000Y-112800000D01*
X129900000Y-112900000D02*
X130000000Y-112800000D01*
X125000000Y-112900000D02*
X129900000Y-112900000D01*
X124900000Y-112800000D02*
X125000000Y-112900000D01*
X185900000Y-112370000D02*
X186000000Y-112270000D01*
X125700000Y-112370000D02*
X185900000Y-112370000D01*
X138300000Y-95400000D02*
X155800000Y-95400000D01*
X155800000Y-95400000D02*
X168700000Y-95400000D01*
X168700000Y-95400000D02*
X171500000Y-95400000D01*
X171500000Y-95400000D02*
X187100000Y-95400000D01*
X124000000Y-95500000D02*
X128530010Y-95500000D01*
X138300000Y-95400000D02*
X128630010Y-95400000D01*
X125900000Y-102200000D02*
X128630010Y-102200000D01*
X128530010Y-95500000D02*
X128630010Y-95400000D01*
X129849999Y-53649999D02*
X129900000Y-53700000D01*
X126300000Y-53649999D02*
X129849999Y-53649999D01*
X129900000Y-59600000D02*
X139300000Y-59600000D01*
X129900000Y-87100000D02*
X155800000Y-87100000D01*
X124353553Y-78130010D02*
X129809915Y-78130010D01*
X124000000Y-78130010D02*
X124353553Y-78130010D01*
X172639999Y-84730001D02*
X145214403Y-84730001D01*
X137730001Y-83969999D02*
X137700000Y-84000000D01*
X144454401Y-83969999D02*
X137730001Y-83969999D01*
X145214403Y-84730001D02*
X144454401Y-83969999D01*
X172800000Y-84570000D02*
X172639999Y-84730001D01*
X117459999Y-106310001D02*
X117470000Y-106300000D01*
X109590001Y-106310001D02*
X117459999Y-106310001D01*
X108460000Y-105180000D02*
X109590001Y-106310001D01*
X117400000Y-126700000D02*
X120000000Y-126700000D01*
X123300000Y-72700000D02*
X124700000Y-72700000D01*
X117470000Y-106300000D02*
X134249999Y-106300000D01*
X152900000Y-117600000D02*
X145170000Y-117600000D01*
X134449999Y-106100000D02*
X134249999Y-106300000D01*
X145170000Y-106100000D02*
X134449999Y-106100000D01*
X139600000Y-90400000D02*
X132469990Y-90400000D01*
X124700000Y-72700000D02*
X132230581Y-72700000D01*
X132230581Y-72700000D02*
X132309979Y-72620602D01*
X125800000Y-94200000D02*
X125900000Y-94300000D01*
X123400000Y-94200000D02*
X125800000Y-94200000D01*
X125900000Y-94300000D02*
X170970000Y-94300000D01*
X170970000Y-94300000D02*
X184400000Y-94300000D01*
X143710000Y-69090000D02*
X144000000Y-68800000D01*
X161470000Y-68900000D02*
X144100000Y-68900000D01*
X144100000Y-68900000D02*
X144000000Y-68800000D01*
X139000000Y-69090000D02*
X143710000Y-69090000D01*
X176500000Y-61400000D02*
X176600000Y-61300000D01*
X125400000Y-61400000D02*
X176500000Y-61400000D01*
X176600000Y-89300000D02*
X122700000Y-89300000D01*
X141450000Y-66100000D02*
X164400000Y-66100000D01*
X141000000Y-66550000D02*
X141450000Y-66100000D01*
X177811801Y-59500000D02*
X177837305Y-59525504D01*
X164400000Y-59500000D02*
X177811801Y-59500000D01*
X125600000Y-105170000D02*
X129840000Y-105170000D01*
X129370000Y-70200000D02*
X124770000Y-70200000D01*
X185630001Y-87869999D02*
X129930001Y-87869999D01*
X185800000Y-87700000D02*
X185630001Y-87869999D01*
X129930001Y-87869999D02*
X129840000Y-87960000D01*
X140300000Y-89830000D02*
X160009999Y-89830000D01*
X160000000Y-75700000D02*
X154500000Y-75700000D01*
X172300000Y-105500000D02*
X160100000Y-105500000D01*
X159569999Y-104969999D02*
X160100000Y-105500000D01*
X130424401Y-104969999D02*
X159569999Y-104969999D01*
X130034401Y-104579999D02*
X130424401Y-104969999D01*
X124900000Y-104579999D02*
X130034401Y-104579999D01*
X135079997Y-103519999D02*
X135559998Y-104000000D01*
X124300000Y-103519999D02*
X135079997Y-103519999D01*
X140800000Y-96100000D02*
X140900000Y-96000000D01*
X134400000Y-96100000D02*
X140800000Y-96100000D01*
X156115598Y-96000000D02*
X156345599Y-95769999D01*
X157814402Y-96730000D02*
X170440000Y-96730000D01*
X156854401Y-95769999D02*
X157814402Y-96730000D01*
X156345599Y-95769999D02*
X156854401Y-95769999D01*
X140900000Y-96000000D02*
X156115598Y-96000000D01*
X187569999Y-97130001D02*
X187700000Y-97000000D01*
X170840001Y-97130001D02*
X187569999Y-97130001D01*
X170440000Y-96730000D02*
X170840001Y-97130001D01*
X134829998Y-105700000D02*
X135029998Y-105500000D01*
X122400000Y-105700000D02*
X134829998Y-105700000D01*
X133800000Y-94870000D02*
X138900000Y-94870000D01*
X124200246Y-65970000D02*
X132709978Y-65970000D01*
X132709978Y-65970000D02*
X132839989Y-65839989D01*
X138870000Y-82130000D02*
X134049999Y-82130000D01*
X139000000Y-82000000D02*
X138870000Y-82130000D01*
X134000000Y-64700000D02*
X133900000Y-64600000D01*
X138300000Y-64700000D02*
X134000000Y-64700000D01*
X133550000Y-55500000D02*
X138300000Y-55500000D01*
X125300000Y-79030000D02*
X133174628Y-79030000D01*
X133174628Y-79030000D02*
X133362640Y-79218012D01*
X140200000Y-58400000D02*
X144430000Y-58400000D01*
X144220001Y-83279999D02*
X144400000Y-83100000D01*
X123400000Y-83030000D02*
X123649999Y-83279999D01*
X123649999Y-83279999D02*
X144220001Y-83279999D01*
X140200000Y-99900000D02*
X145170000Y-99900000D01*
X145200000Y-54700000D02*
X140900000Y-54700000D01*
X125804080Y-60164080D02*
X149060000Y-60164080D01*
X125600000Y-59960000D02*
X125804080Y-60164080D01*
X149060000Y-106130000D02*
X156200000Y-106130000D01*
X125300000Y-69090000D02*
X129000000Y-69090000D01*
X186370000Y-101970000D02*
X186400000Y-102000000D01*
X177300000Y-101970000D02*
X186370000Y-101970000D01*
X143596477Y-67160852D02*
X144531252Y-67160853D01*
X145020398Y-67649999D02*
X177250001Y-67649999D01*
X177250001Y-67649999D02*
X177300000Y-67600000D01*
X144531252Y-67160853D02*
X145020398Y-67649999D01*
X126800000Y-67610000D02*
X143147329Y-67610000D01*
X143147329Y-67610000D02*
X143596477Y-67160852D01*
X143858596Y-71660010D02*
X143898586Y-71700000D01*
X140024392Y-71660010D02*
X143858596Y-71660010D01*
X143898586Y-71700000D02*
X148000000Y-71700000D01*
X124277033Y-71322967D02*
X138838565Y-71322967D01*
X139854401Y-71830001D02*
X140024392Y-71660010D01*
X139345599Y-71830001D02*
X139854401Y-71830001D01*
X138838565Y-71322967D02*
X139345599Y-71830001D01*
X124000000Y-71600000D02*
X124277033Y-71322967D01*
X148000000Y-97230010D02*
X148353553Y-97230010D01*
X148353553Y-97230010D02*
X153800000Y-97230010D01*
X169400000Y-86500000D02*
X169500000Y-86600000D01*
X127570000Y-86500000D02*
X169400000Y-86500000D01*
X169360000Y-94870000D02*
X169400000Y-94830000D01*
X141430000Y-94870000D02*
X169360000Y-94870000D01*
X155930001Y-82930001D02*
X155900000Y-82900000D01*
X185869999Y-82930001D02*
X155930001Y-82930001D01*
X185900000Y-82900000D02*
X185869999Y-82930001D01*
X188400000Y-81700000D02*
X155200000Y-81700000D01*
X188200000Y-94830000D02*
X188230000Y-94800000D01*
X172100000Y-94830000D02*
X188200000Y-94830000D01*
X160500000Y-84100000D02*
X160600000Y-84200000D01*
X154000000Y-84100000D02*
X160500000Y-84100000D01*
X160630000Y-96200000D02*
X172100000Y-96200000D01*
X154600000Y-76469990D02*
X156500000Y-76469990D01*
X157430000Y-106200000D02*
X160009999Y-106200000D01*
X169254402Y-113860012D02*
X168745598Y-113860012D01*
X170900000Y-113400000D02*
X169714414Y-113400000D01*
X169714414Y-113400000D02*
X169254402Y-113860012D01*
X168405608Y-113520022D02*
X160179998Y-113520022D01*
X160179998Y-113520022D02*
X160009999Y-113690021D01*
X168745598Y-113860012D02*
X168405608Y-113520022D01*
X168830001Y-113160011D02*
X169000000Y-113330010D01*
X141369999Y-113160011D02*
X168830001Y-113160011D01*
X141200000Y-113330010D02*
X141369999Y-113160011D01*
X159130000Y-88500000D02*
X159230000Y-88400000D01*
X125300000Y-88500000D02*
X159130000Y-88500000D01*
X189460000Y-90360000D02*
X189500000Y-90400000D01*
X157100000Y-90360000D02*
X189460000Y-90360000D01*
X172760001Y-104439999D02*
X172900000Y-104300000D01*
X138300000Y-104439999D02*
X172760001Y-104439999D01*
X145620000Y-69620000D02*
X145700000Y-69700000D01*
X111000000Y-69620000D02*
X145620000Y-69620000D01*
X145800000Y-122600000D02*
X142000000Y-122600000D01*
X184400000Y-83500000D02*
X145700000Y-83500000D01*
X148630000Y-129900000D02*
X148530000Y-129800000D01*
X155000000Y-129900000D02*
X148630000Y-129900000D01*
X129285598Y-59430000D02*
X124800000Y-59430000D01*
X129645599Y-59069999D02*
X129285598Y-59430000D01*
X148269999Y-59069999D02*
X129645599Y-59069999D01*
X148700000Y-59500000D02*
X148269999Y-59069999D01*
X168900000Y-82300000D02*
X186470000Y-82300000D01*
X168800000Y-82400000D02*
X168900000Y-82300000D01*
X163230000Y-82400000D02*
X168800000Y-82400000D01*
X141215598Y-122600000D02*
X109800000Y-122600000D01*
X146434401Y-122750001D02*
X146054401Y-123130001D01*
X141745599Y-123130001D02*
X141215598Y-122600000D01*
X163230000Y-123000000D02*
X162980001Y-122750001D01*
X162980001Y-122750001D02*
X146434401Y-122750001D01*
X146054401Y-123130001D02*
X141745599Y-123130001D01*
X109680000Y-93700000D02*
X117120001Y-93700000D01*
X108460000Y-92480000D02*
X109680000Y-93700000D01*
X117120001Y-85800000D02*
X187000000Y-85800000D01*
X185000000Y-76900000D02*
X185200000Y-76700000D01*
X172270000Y-76900000D02*
X185000000Y-76900000D01*
X172100000Y-77070000D02*
X172270000Y-76900000D01*
X172030000Y-77000000D02*
X172100000Y-77070000D01*
X163700000Y-77000000D02*
X172030000Y-77000000D01*
X138400000Y-77000000D02*
X163700000Y-77000000D01*
X139000003Y-55500000D02*
X143900000Y-55500000D01*
X139600000Y-71300000D02*
X143977032Y-71300000D01*
X143977032Y-71300000D02*
X144130010Y-71147022D01*
X143899999Y-101730001D02*
X144130000Y-101500000D01*
X133372030Y-101730001D02*
X143899999Y-101730001D01*
X132272029Y-100630000D02*
X133372030Y-101730001D01*
X122600000Y-100630000D02*
X132272029Y-100630000D01*
X144200000Y-84500000D02*
X140900000Y-84500000D01*
X164769999Y-102969999D02*
X164830000Y-103030000D01*
X152825001Y-102969999D02*
X164769999Y-102969999D01*
X152695000Y-103100000D02*
X152825001Y-102969999D01*
X164830000Y-91000000D02*
X170800000Y-91000000D01*
X137300000Y-115130000D02*
X164300000Y-115130000D01*
X155300000Y-72300000D02*
X155200000Y-72400000D01*
X164400000Y-72300000D02*
X155300000Y-72300000D01*
X160530000Y-103600000D02*
X160630000Y-103500000D01*
X155200000Y-103600000D02*
X160530000Y-103600000D01*
X160600000Y-114070000D02*
X160750023Y-114220023D01*
X169403523Y-114220023D02*
X169523546Y-114100000D01*
X169523546Y-114100000D02*
X170200000Y-114100000D01*
X160750023Y-114220023D02*
X169403523Y-114220023D01*
X187100000Y-76200000D02*
X186850001Y-75950001D01*
X171319989Y-75950001D02*
X170800000Y-76469990D01*
X186850001Y-75950001D02*
X171319989Y-75950001D01*
D17*
G36*
X199340001Y-149340000D02*
G01*
X100660000Y-149340000D01*
X100660000Y-144779872D01*
X102765000Y-144779872D01*
X102765000Y-145220128D01*
X102850890Y-145651925D01*
X103019369Y-146058669D01*
X103263962Y-146424729D01*
X103575271Y-146736038D01*
X103941331Y-146980631D01*
X104348075Y-147149110D01*
X104779872Y-147235000D01*
X105220128Y-147235000D01*
X105651925Y-147149110D01*
X106058669Y-146980631D01*
X106424729Y-146736038D01*
X106736038Y-146424729D01*
X106980631Y-146058669D01*
X107149110Y-145651925D01*
X107235000Y-145220128D01*
X107235000Y-144779872D01*
X192765000Y-144779872D01*
X192765000Y-145220128D01*
X192850890Y-145651925D01*
X193019369Y-146058669D01*
X193263962Y-146424729D01*
X193575271Y-146736038D01*
X193941331Y-146980631D01*
X194348075Y-147149110D01*
X194779872Y-147235000D01*
X195220128Y-147235000D01*
X195651925Y-147149110D01*
X196058669Y-146980631D01*
X196424729Y-146736038D01*
X196736038Y-146424729D01*
X196980631Y-146058669D01*
X197149110Y-145651925D01*
X197235000Y-145220128D01*
X197235000Y-144779872D01*
X197149110Y-144348075D01*
X196980631Y-143941331D01*
X196736038Y-143575271D01*
X196424729Y-143263962D01*
X196058669Y-143019369D01*
X195651925Y-142850890D01*
X195220128Y-142765000D01*
X194779872Y-142765000D01*
X194348075Y-142850890D01*
X193941331Y-143019369D01*
X193575271Y-143263962D01*
X193263962Y-143575271D01*
X193019369Y-143941331D01*
X192850890Y-144348075D01*
X192765000Y-144779872D01*
X107235000Y-144779872D01*
X107149110Y-144348075D01*
X106980631Y-143941331D01*
X106736038Y-143575271D01*
X106424729Y-143263962D01*
X106058669Y-143019369D01*
X105651925Y-142850890D01*
X105220128Y-142765000D01*
X104779872Y-142765000D01*
X104348075Y-142850890D01*
X103941331Y-143019369D01*
X103575271Y-143263962D01*
X103263962Y-143575271D01*
X103019369Y-143941331D01*
X102850890Y-144348075D01*
X102765000Y-144779872D01*
X100660000Y-144779872D01*
X100660000Y-129712835D01*
X147645000Y-129712835D01*
X147645000Y-129887165D01*
X147679010Y-130058145D01*
X147745723Y-130219205D01*
X147842576Y-130364155D01*
X147965845Y-130487424D01*
X148110795Y-130584277D01*
X148271855Y-130650990D01*
X148442835Y-130685000D01*
X148617165Y-130685000D01*
X148788145Y-130650990D01*
X148875033Y-130615000D01*
X154477115Y-130615000D01*
X154580795Y-130684277D01*
X154741855Y-130750990D01*
X154912835Y-130785000D01*
X155087165Y-130785000D01*
X155258145Y-130750990D01*
X155419205Y-130684277D01*
X155564155Y-130587424D01*
X155687424Y-130464155D01*
X155784277Y-130319205D01*
X155850990Y-130158145D01*
X155885000Y-129987165D01*
X155885000Y-129812835D01*
X155850990Y-129641855D01*
X155784277Y-129480795D01*
X155687424Y-129335845D01*
X155564155Y-129212576D01*
X155419205Y-129115723D01*
X155258145Y-129049010D01*
X155087165Y-129015000D01*
X154912835Y-129015000D01*
X154741855Y-129049010D01*
X154580795Y-129115723D01*
X154477115Y-129185000D01*
X149166579Y-129185000D01*
X149094155Y-129112576D01*
X148949205Y-129015723D01*
X148788145Y-128949010D01*
X148617165Y-128915000D01*
X148442835Y-128915000D01*
X148271855Y-128949010D01*
X148110795Y-129015723D01*
X147965845Y-129112576D01*
X147842576Y-129235845D01*
X147745723Y-129380795D01*
X147679010Y-129541855D01*
X147645000Y-129712835D01*
X100660000Y-129712835D01*
X100660000Y-64393740D01*
X106975000Y-64393740D01*
X106975000Y-64686260D01*
X107032068Y-64973158D01*
X107144010Y-65243411D01*
X107306525Y-65486632D01*
X107513368Y-65693475D01*
X107687760Y-65810000D01*
X107513368Y-65926525D01*
X107306525Y-66133368D01*
X107144010Y-66376589D01*
X107032068Y-66646842D01*
X106975000Y-66933740D01*
X106975000Y-67226260D01*
X107032068Y-67513158D01*
X107144010Y-67783411D01*
X107306525Y-68026632D01*
X107513368Y-68233475D01*
X107687760Y-68350000D01*
X107513368Y-68466525D01*
X107306525Y-68673368D01*
X107144010Y-68916589D01*
X107032068Y-69186842D01*
X106975000Y-69473740D01*
X106975000Y-69766260D01*
X107032068Y-70053158D01*
X107144010Y-70323411D01*
X107306525Y-70566632D01*
X107513368Y-70773475D01*
X107687760Y-70890000D01*
X107513368Y-71006525D01*
X107306525Y-71213368D01*
X107144010Y-71456589D01*
X107032068Y-71726842D01*
X106975000Y-72013740D01*
X106975000Y-72306260D01*
X107032068Y-72593158D01*
X107144010Y-72863411D01*
X107306525Y-73106632D01*
X107513368Y-73313475D01*
X107687760Y-73430000D01*
X107513368Y-73546525D01*
X107306525Y-73753368D01*
X107144010Y-73996589D01*
X107032068Y-74266842D01*
X106975000Y-74553740D01*
X106975000Y-74846260D01*
X107032068Y-75133158D01*
X107144010Y-75403411D01*
X107306525Y-75646632D01*
X107513368Y-75853475D01*
X107687760Y-75970000D01*
X107513368Y-76086525D01*
X107306525Y-76293368D01*
X107144010Y-76536589D01*
X107032068Y-76806842D01*
X106975000Y-77093740D01*
X106975000Y-77386260D01*
X107032068Y-77673158D01*
X107144010Y-77943411D01*
X107306525Y-78186632D01*
X107513368Y-78393475D01*
X107687760Y-78510000D01*
X107513368Y-78626525D01*
X107306525Y-78833368D01*
X107144010Y-79076589D01*
X107032068Y-79346842D01*
X106975000Y-79633740D01*
X106975000Y-79926260D01*
X107032068Y-80213158D01*
X107144010Y-80483411D01*
X107306525Y-80726632D01*
X107513368Y-80933475D01*
X107687760Y-81050000D01*
X107513368Y-81166525D01*
X107306525Y-81373368D01*
X107144010Y-81616589D01*
X107032068Y-81886842D01*
X106975000Y-82173740D01*
X106975000Y-82466260D01*
X107032068Y-82753158D01*
X107144010Y-83023411D01*
X107306525Y-83266632D01*
X107513368Y-83473475D01*
X107687760Y-83590000D01*
X107513368Y-83706525D01*
X107306525Y-83913368D01*
X107144010Y-84156589D01*
X107032068Y-84426842D01*
X106975000Y-84713740D01*
X106975000Y-85006260D01*
X107032068Y-85293158D01*
X107144010Y-85563411D01*
X107306525Y-85806632D01*
X107513368Y-86013475D01*
X107687760Y-86130000D01*
X107513368Y-86246525D01*
X107306525Y-86453368D01*
X107144010Y-86696589D01*
X107032068Y-86966842D01*
X106975000Y-87253740D01*
X106975000Y-87546260D01*
X107032068Y-87833158D01*
X107144010Y-88103411D01*
X107306525Y-88346632D01*
X107513368Y-88553475D01*
X107687760Y-88670000D01*
X107513368Y-88786525D01*
X107306525Y-88993368D01*
X107144010Y-89236589D01*
X107032068Y-89506842D01*
X106975000Y-89793740D01*
X106975000Y-90086260D01*
X107032068Y-90373158D01*
X107144010Y-90643411D01*
X107306525Y-90886632D01*
X107513368Y-91093475D01*
X107687760Y-91210000D01*
X107513368Y-91326525D01*
X107306525Y-91533368D01*
X107144010Y-91776589D01*
X107032068Y-92046842D01*
X106975000Y-92333740D01*
X106975000Y-92626260D01*
X107032068Y-92913158D01*
X107144010Y-93183411D01*
X107306525Y-93426632D01*
X107513368Y-93633475D01*
X107687760Y-93750000D01*
X107513368Y-93866525D01*
X107306525Y-94073368D01*
X107144010Y-94316589D01*
X107032068Y-94586842D01*
X106975000Y-94873740D01*
X106975000Y-95166260D01*
X107032068Y-95453158D01*
X107144010Y-95723411D01*
X107306525Y-95966632D01*
X107513368Y-96173475D01*
X107687760Y-96290000D01*
X107513368Y-96406525D01*
X107306525Y-96613368D01*
X107144010Y-96856589D01*
X107032068Y-97126842D01*
X106975000Y-97413740D01*
X106975000Y-97706260D01*
X107032068Y-97993158D01*
X107144010Y-98263411D01*
X107306525Y-98506632D01*
X107513368Y-98713475D01*
X107687760Y-98830000D01*
X107513368Y-98946525D01*
X107306525Y-99153368D01*
X107144010Y-99396589D01*
X107032068Y-99666842D01*
X106975000Y-99953740D01*
X106975000Y-100246260D01*
X107032068Y-100533158D01*
X107144010Y-100803411D01*
X107306525Y-101046632D01*
X107513368Y-101253475D01*
X107687760Y-101370000D01*
X107513368Y-101486525D01*
X107306525Y-101693368D01*
X107144010Y-101936589D01*
X107032068Y-102206842D01*
X106975000Y-102493740D01*
X106975000Y-102786260D01*
X107032068Y-103073158D01*
X107144010Y-103343411D01*
X107306525Y-103586632D01*
X107513368Y-103793475D01*
X107687760Y-103910000D01*
X107513368Y-104026525D01*
X107306525Y-104233368D01*
X107144010Y-104476589D01*
X107032068Y-104746842D01*
X106975000Y-105033740D01*
X106975000Y-105326260D01*
X107032068Y-105613158D01*
X107144010Y-105883411D01*
X107306525Y-106126632D01*
X107513368Y-106333475D01*
X107687760Y-106450000D01*
X107513368Y-106566525D01*
X107306525Y-106773368D01*
X107144010Y-107016589D01*
X107032068Y-107286842D01*
X106975000Y-107573740D01*
X106975000Y-107866260D01*
X107032068Y-108153158D01*
X107144010Y-108423411D01*
X107306525Y-108666632D01*
X107513368Y-108873475D01*
X107687760Y-108990000D01*
X107513368Y-109106525D01*
X107306525Y-109313368D01*
X107144010Y-109556589D01*
X107032068Y-109826842D01*
X106975000Y-110113740D01*
X106975000Y-110406260D01*
X107032068Y-110693158D01*
X107144010Y-110963411D01*
X107306525Y-111206632D01*
X107513368Y-111413475D01*
X107756589Y-111575990D01*
X108026842Y-111687932D01*
X108313740Y-111745000D01*
X108606260Y-111745000D01*
X108893158Y-111687932D01*
X109163411Y-111575990D01*
X109406632Y-111413475D01*
X109613475Y-111206632D01*
X109731100Y-111030594D01*
X109902412Y-111260269D01*
X110118645Y-111455178D01*
X110368748Y-111604157D01*
X110643109Y-111701481D01*
X110873000Y-111580814D01*
X110873000Y-110387000D01*
X111127000Y-110387000D01*
X111127000Y-111580814D01*
X111356891Y-111701481D01*
X111631252Y-111604157D01*
X111881355Y-111455178D01*
X112097588Y-111260269D01*
X112271641Y-111026920D01*
X112396825Y-110764099D01*
X112441476Y-110616890D01*
X112320155Y-110387000D01*
X111127000Y-110387000D01*
X110873000Y-110387000D01*
X110853000Y-110387000D01*
X110853000Y-110133000D01*
X110873000Y-110133000D01*
X110873000Y-110113000D01*
X111127000Y-110113000D01*
X111127000Y-110133000D01*
X112320155Y-110133000D01*
X112382428Y-110015000D01*
X114477115Y-110015000D01*
X114580795Y-110084277D01*
X114741855Y-110150990D01*
X114912835Y-110185000D01*
X115087165Y-110185000D01*
X115258145Y-110150990D01*
X115419205Y-110084277D01*
X115522885Y-110015000D01*
X118046101Y-110015000D01*
X117982795Y-110109744D01*
X117904774Y-110298102D01*
X117865000Y-110498061D01*
X117865000Y-110701939D01*
X117904774Y-110901898D01*
X117982795Y-111090256D01*
X118096063Y-111259774D01*
X118240226Y-111403937D01*
X118409744Y-111517205D01*
X118598102Y-111595226D01*
X118798061Y-111635000D01*
X119001939Y-111635000D01*
X119201898Y-111595226D01*
X119390256Y-111517205D01*
X119513285Y-111435000D01*
X133671289Y-111435000D01*
X133740226Y-111503937D01*
X133909744Y-111617205D01*
X134000989Y-111655000D01*
X126222885Y-111655000D01*
X126119205Y-111585723D01*
X125958145Y-111519010D01*
X125787165Y-111485000D01*
X125612835Y-111485000D01*
X125441855Y-111519010D01*
X125280795Y-111585723D01*
X125135845Y-111682576D01*
X125012576Y-111805845D01*
X124939641Y-111915000D01*
X124812835Y-111915000D01*
X124641855Y-111949010D01*
X124480795Y-112015723D01*
X124335845Y-112112576D01*
X124212576Y-112235845D01*
X124115723Y-112380795D01*
X124049010Y-112541855D01*
X124020537Y-112685000D01*
X122922885Y-112685000D01*
X122819205Y-112615723D01*
X122658145Y-112549010D01*
X122487165Y-112515000D01*
X122312835Y-112515000D01*
X122141855Y-112549010D01*
X121980795Y-112615723D01*
X121877115Y-112685000D01*
X117122885Y-112685000D01*
X117019205Y-112615723D01*
X116858145Y-112549010D01*
X116687165Y-112515000D01*
X116512835Y-112515000D01*
X116341855Y-112549010D01*
X116180795Y-112615723D01*
X116035845Y-112712576D01*
X115912576Y-112835845D01*
X115815723Y-112980795D01*
X115749010Y-113141855D01*
X115745065Y-113161688D01*
X115743507Y-113162333D01*
X115598557Y-113259186D01*
X115475288Y-113382455D01*
X115382721Y-113520990D01*
X115241855Y-113549010D01*
X115080795Y-113615723D01*
X114935845Y-113712576D01*
X114812576Y-113835845D01*
X114715723Y-113980795D01*
X114649010Y-114141855D01*
X114615000Y-114312835D01*
X114615000Y-114487165D01*
X114649010Y-114658145D01*
X114715723Y-114819205D01*
X114812576Y-114964155D01*
X114935845Y-115087424D01*
X115080795Y-115184277D01*
X115241855Y-115250990D01*
X115412835Y-115285000D01*
X115495045Y-115285000D01*
X115528467Y-115295138D01*
X115559835Y-115304654D01*
X115571948Y-115305847D01*
X115664880Y-115315000D01*
X115664888Y-115315000D01*
X115700000Y-115318458D01*
X115735112Y-115315000D01*
X121277115Y-115315000D01*
X121380795Y-115384277D01*
X121541855Y-115450990D01*
X121712835Y-115485000D01*
X121887165Y-115485000D01*
X122058145Y-115450990D01*
X122219205Y-115384277D01*
X122322885Y-115315000D01*
X122834461Y-115315000D01*
X122849010Y-115388145D01*
X122915723Y-115549205D01*
X123012576Y-115694155D01*
X123135845Y-115817424D01*
X123280795Y-115914277D01*
X123441855Y-115980990D01*
X123564154Y-116005317D01*
X123699589Y-116140752D01*
X123721974Y-116168028D01*
X123749249Y-116190412D01*
X123749253Y-116190416D01*
X123813067Y-116242786D01*
X123830847Y-116257378D01*
X123955059Y-116323771D01*
X124048952Y-116352253D01*
X124089836Y-116364655D01*
X124101949Y-116365848D01*
X124194881Y-116375001D01*
X124194889Y-116375001D01*
X124230001Y-116378459D01*
X124265113Y-116375001D01*
X144743603Y-116375001D01*
X144640657Y-116406229D01*
X144516445Y-116472622D01*
X144407572Y-116561972D01*
X144385178Y-116589259D01*
X144343838Y-116630599D01*
X124689513Y-116630599D01*
X124654401Y-116627141D01*
X124619289Y-116630599D01*
X124619281Y-116630599D01*
X124526349Y-116639752D01*
X124514236Y-116640945D01*
X124473352Y-116653347D01*
X124379459Y-116681829D01*
X124255247Y-116748222D01*
X124161415Y-116825228D01*
X124041855Y-116849010D01*
X123880795Y-116915723D01*
X123735845Y-117012576D01*
X123612576Y-117135845D01*
X123515723Y-117280795D01*
X123449010Y-117441855D01*
X123415000Y-117612835D01*
X123415000Y-117787165D01*
X123449010Y-117958145D01*
X123515723Y-118119205D01*
X123612576Y-118264155D01*
X123735845Y-118387424D01*
X123880795Y-118484277D01*
X124041855Y-118550990D01*
X124212835Y-118585000D01*
X124387165Y-118585000D01*
X124558145Y-118550990D01*
X124719205Y-118484277D01*
X124864155Y-118387424D01*
X124987424Y-118264155D01*
X125084277Y-118119205D01*
X125108552Y-118060599D01*
X132487822Y-118060599D01*
X132442576Y-118105845D01*
X132345723Y-118250795D01*
X132279010Y-118411855D01*
X132264461Y-118485000D01*
X131422885Y-118485000D01*
X131319205Y-118415723D01*
X131158145Y-118349010D01*
X130987165Y-118315000D01*
X130812835Y-118315000D01*
X130641855Y-118349010D01*
X130480795Y-118415723D01*
X130335845Y-118512576D01*
X130212576Y-118635845D01*
X130115723Y-118780795D01*
X130049010Y-118941855D01*
X130015000Y-119112835D01*
X130015000Y-119285000D01*
X124522885Y-119285000D01*
X124419205Y-119215723D01*
X124258145Y-119149010D01*
X124087165Y-119115000D01*
X123912835Y-119115000D01*
X123741855Y-119149010D01*
X123580795Y-119215723D01*
X123435845Y-119312576D01*
X123312576Y-119435845D01*
X123215723Y-119580795D01*
X123149010Y-119741855D01*
X123115000Y-119912835D01*
X123115000Y-120087165D01*
X123149010Y-120258145D01*
X123215723Y-120419205D01*
X123312576Y-120564155D01*
X123435845Y-120687424D01*
X123580795Y-120784277D01*
X123741855Y-120850990D01*
X123912835Y-120885000D01*
X124087165Y-120885000D01*
X124258145Y-120850990D01*
X124419205Y-120784277D01*
X124522885Y-120715000D01*
X125433421Y-120715000D01*
X125312576Y-120835845D01*
X125215723Y-120980795D01*
X125149010Y-121141855D01*
X125115000Y-121312835D01*
X125115000Y-121487165D01*
X125149010Y-121658145D01*
X125215723Y-121819205D01*
X125259686Y-121885000D01*
X110322885Y-121885000D01*
X110219205Y-121815723D01*
X110058145Y-121749010D01*
X109887165Y-121715000D01*
X109712835Y-121715000D01*
X109541855Y-121749010D01*
X109380795Y-121815723D01*
X109235845Y-121912576D01*
X109112576Y-122035845D01*
X109015723Y-122180795D01*
X108949010Y-122341855D01*
X108915000Y-122512835D01*
X108915000Y-122687165D01*
X108949010Y-122858145D01*
X109015723Y-123019205D01*
X109112576Y-123164155D01*
X109235845Y-123287424D01*
X109380795Y-123384277D01*
X109541855Y-123450990D01*
X109712835Y-123485000D01*
X109887165Y-123485000D01*
X110058145Y-123450990D01*
X110219205Y-123384277D01*
X110322885Y-123315000D01*
X121582540Y-123315000D01*
X121580795Y-123315723D01*
X121435845Y-123412576D01*
X121312576Y-123535845D01*
X121215723Y-123680795D01*
X121149010Y-123841855D01*
X121115000Y-124012835D01*
X121115000Y-124187165D01*
X121149010Y-124358145D01*
X121215723Y-124519205D01*
X121312576Y-124664155D01*
X121383420Y-124734999D01*
X118753677Y-124734999D01*
X118687424Y-124635845D01*
X118564155Y-124512576D01*
X118419205Y-124415723D01*
X118258145Y-124349010D01*
X118087165Y-124315000D01*
X117912835Y-124315000D01*
X117741855Y-124349010D01*
X117580795Y-124415723D01*
X117435845Y-124512576D01*
X117312576Y-124635845D01*
X117215723Y-124780795D01*
X117149010Y-124941855D01*
X117115000Y-125112835D01*
X117115000Y-125287165D01*
X117149010Y-125458145D01*
X117215723Y-125619205D01*
X117312576Y-125764155D01*
X117363421Y-125815000D01*
X117312835Y-125815000D01*
X117141855Y-125849010D01*
X116980795Y-125915723D01*
X116835845Y-126012576D01*
X116712576Y-126135845D01*
X116615723Y-126280795D01*
X116549010Y-126441855D01*
X116515000Y-126612835D01*
X116515000Y-126787165D01*
X116549010Y-126958145D01*
X116615723Y-127119205D01*
X116712576Y-127264155D01*
X116835845Y-127387424D01*
X116980795Y-127484277D01*
X117141855Y-127550990D01*
X117312835Y-127585000D01*
X117487165Y-127585000D01*
X117658145Y-127550990D01*
X117819205Y-127484277D01*
X117922885Y-127415000D01*
X119477115Y-127415000D01*
X119580795Y-127484277D01*
X119741855Y-127550990D01*
X119912835Y-127585000D01*
X120087165Y-127585000D01*
X120258145Y-127550990D01*
X120419205Y-127484277D01*
X120564155Y-127387424D01*
X120687424Y-127264155D01*
X120784277Y-127119205D01*
X120850990Y-126958145D01*
X120885000Y-126787165D01*
X120885000Y-126612835D01*
X120850990Y-126441855D01*
X120784277Y-126280795D01*
X120706904Y-126164999D01*
X128915000Y-126164999D01*
X128915000Y-126187165D01*
X128949010Y-126358145D01*
X129015723Y-126519205D01*
X129112576Y-126664155D01*
X129235845Y-126787424D01*
X129380795Y-126884277D01*
X129541855Y-126950990D01*
X129712835Y-126985000D01*
X129887165Y-126985000D01*
X130058145Y-126950990D01*
X130219205Y-126884277D01*
X130322885Y-126815000D01*
X156134461Y-126815000D01*
X156149010Y-126888145D01*
X156215723Y-127049205D01*
X156312576Y-127194155D01*
X156435845Y-127317424D01*
X156580795Y-127414277D01*
X156741855Y-127480990D01*
X156912835Y-127515000D01*
X157087165Y-127515000D01*
X157258145Y-127480990D01*
X157419205Y-127414277D01*
X157522885Y-127345000D01*
X177422013Y-127345000D01*
X177480795Y-127384277D01*
X177641855Y-127450990D01*
X177812835Y-127485000D01*
X177987165Y-127485000D01*
X178158145Y-127450990D01*
X178319205Y-127384277D01*
X178464155Y-127287424D01*
X178587424Y-127164155D01*
X178684277Y-127019205D01*
X178750990Y-126858145D01*
X178785000Y-126687165D01*
X178785000Y-126512835D01*
X178750990Y-126341855D01*
X178684277Y-126180795D01*
X178587424Y-126035845D01*
X178464155Y-125912576D01*
X178319205Y-125815723D01*
X178158145Y-125749010D01*
X177987165Y-125715000D01*
X177812835Y-125715000D01*
X177641855Y-125749010D01*
X177480795Y-125815723D01*
X177335845Y-125912576D01*
X177333421Y-125915000D01*
X172920268Y-125915000D01*
X172984277Y-125819205D01*
X173050990Y-125658145D01*
X173085000Y-125487165D01*
X173085000Y-125312835D01*
X173050990Y-125141855D01*
X172984277Y-124980795D01*
X172887424Y-124835845D01*
X172764155Y-124712576D01*
X172619205Y-124615723D01*
X172458145Y-124549010D01*
X172287165Y-124515000D01*
X172112835Y-124515000D01*
X171941855Y-124549010D01*
X171780795Y-124615723D01*
X171635845Y-124712576D01*
X171613422Y-124734999D01*
X163475485Y-124734999D01*
X163485000Y-124687165D01*
X163485000Y-124512835D01*
X163450990Y-124341855D01*
X163384277Y-124180795D01*
X163287424Y-124035845D01*
X163164155Y-123912576D01*
X163114428Y-123879350D01*
X163142835Y-123885000D01*
X163317165Y-123885000D01*
X163488145Y-123850990D01*
X163649205Y-123784277D01*
X163794155Y-123687424D01*
X163917424Y-123564155D01*
X164014277Y-123419205D01*
X164080990Y-123258145D01*
X164115000Y-123087165D01*
X164115000Y-122912835D01*
X164080990Y-122741855D01*
X164014277Y-122580795D01*
X163917424Y-122435845D01*
X163794155Y-122312576D01*
X163649205Y-122215723D01*
X163488145Y-122149010D01*
X163317165Y-122115000D01*
X163308766Y-122115000D01*
X163254943Y-122086231D01*
X163120165Y-122045347D01*
X163015121Y-122035001D01*
X163015111Y-122035001D01*
X162980001Y-122031543D01*
X162944891Y-122035001D01*
X157196746Y-122035001D01*
X157319205Y-121984277D01*
X157464155Y-121887424D01*
X157587424Y-121764155D01*
X157684277Y-121619205D01*
X157750990Y-121458145D01*
X157785000Y-121287165D01*
X157785000Y-121112835D01*
X157750990Y-120941855D01*
X157684277Y-120780795D01*
X157587424Y-120635845D01*
X157464155Y-120512576D01*
X157319205Y-120415723D01*
X157158145Y-120349010D01*
X156987165Y-120315000D01*
X156812835Y-120315000D01*
X156641855Y-120349010D01*
X156480795Y-120415723D01*
X156335845Y-120512576D01*
X156263421Y-120585000D01*
X148522885Y-120585000D01*
X148419205Y-120515723D01*
X148302931Y-120467561D01*
X148310990Y-120448104D01*
X148345000Y-120277124D01*
X148345000Y-120102794D01*
X148310990Y-119931814D01*
X148304025Y-119915000D01*
X170977115Y-119915000D01*
X171080795Y-119984277D01*
X171241855Y-120050990D01*
X171412835Y-120085000D01*
X171587165Y-120085000D01*
X171758145Y-120050990D01*
X171919205Y-119984277D01*
X172064155Y-119887424D01*
X172187424Y-119764155D01*
X172284277Y-119619205D01*
X172350990Y-119458145D01*
X172385000Y-119287165D01*
X172385000Y-119112835D01*
X172350990Y-118941855D01*
X172284277Y-118780795D01*
X172187424Y-118635845D01*
X172166579Y-118615000D01*
X178503667Y-118615000D01*
X178412822Y-118705845D01*
X178315969Y-118850795D01*
X178278289Y-118941763D01*
X178241855Y-118949010D01*
X178080795Y-119015723D01*
X177935845Y-119112576D01*
X177812576Y-119235845D01*
X177715723Y-119380795D01*
X177649010Y-119541855D01*
X177615000Y-119712835D01*
X177615000Y-119887165D01*
X177649010Y-120058145D01*
X177715723Y-120219205D01*
X177812576Y-120364155D01*
X177935845Y-120487424D01*
X178080795Y-120584277D01*
X178241855Y-120650990D01*
X178412835Y-120685000D01*
X178587165Y-120685000D01*
X178758145Y-120650990D01*
X178919205Y-120584277D01*
X179022885Y-120515000D01*
X184777115Y-120515000D01*
X184880795Y-120584277D01*
X185041855Y-120650990D01*
X185212835Y-120685000D01*
X185387165Y-120685000D01*
X185558145Y-120650990D01*
X185719205Y-120584277D01*
X185864155Y-120487424D01*
X185987424Y-120364155D01*
X186084277Y-120219205D01*
X186150990Y-120058145D01*
X186165539Y-119985000D01*
X186733421Y-119985000D01*
X186735845Y-119987424D01*
X186880795Y-120084277D01*
X187041855Y-120150990D01*
X187212835Y-120185000D01*
X187387165Y-120185000D01*
X187558145Y-120150990D01*
X187719205Y-120084277D01*
X187864155Y-119987424D01*
X187987424Y-119864155D01*
X188084277Y-119719205D01*
X188150990Y-119558145D01*
X188185000Y-119387165D01*
X188185000Y-119212835D01*
X188150990Y-119041855D01*
X188084277Y-118880795D01*
X187987424Y-118735845D01*
X187864155Y-118612576D01*
X187719205Y-118515723D01*
X187558145Y-118449010D01*
X187387165Y-118415000D01*
X187320268Y-118415000D01*
X187384277Y-118319205D01*
X187450990Y-118158145D01*
X187485000Y-117987165D01*
X187485000Y-117812835D01*
X187450990Y-117641855D01*
X187384277Y-117480795D01*
X187287424Y-117335845D01*
X187164155Y-117212576D01*
X187019205Y-117115723D01*
X186858145Y-117049010D01*
X186687165Y-117015000D01*
X186512835Y-117015000D01*
X186341855Y-117049010D01*
X186180795Y-117115723D01*
X186077115Y-117185000D01*
X154280564Y-117185000D01*
X153684821Y-116589258D01*
X153662428Y-116561972D01*
X153553555Y-116472622D01*
X153429343Y-116406229D01*
X153326397Y-116375001D01*
X184104889Y-116375001D01*
X184139999Y-116378459D01*
X184175109Y-116375001D01*
X184175119Y-116375001D01*
X184280163Y-116364655D01*
X184414941Y-116323771D01*
X184539153Y-116257378D01*
X184640200Y-116174451D01*
X184758145Y-116150990D01*
X184919205Y-116084277D01*
X185064155Y-115987424D01*
X185187424Y-115864155D01*
X185284277Y-115719205D01*
X185350990Y-115558145D01*
X185385000Y-115387165D01*
X185385000Y-115320268D01*
X185480795Y-115384277D01*
X185641855Y-115450990D01*
X185812835Y-115485000D01*
X185987165Y-115485000D01*
X186158145Y-115450990D01*
X186319205Y-115384277D01*
X186422885Y-115315000D01*
X187115000Y-115315000D01*
X187115000Y-115387165D01*
X187149010Y-115558145D01*
X187215723Y-115719205D01*
X187312576Y-115864155D01*
X187435845Y-115987424D01*
X187580795Y-116084277D01*
X187741855Y-116150990D01*
X187912835Y-116185000D01*
X188087165Y-116185000D01*
X188258145Y-116150990D01*
X188419205Y-116084277D01*
X188522885Y-116015000D01*
X192177115Y-116015000D01*
X192280795Y-116084277D01*
X192441855Y-116150990D01*
X192612835Y-116185000D01*
X192787165Y-116185000D01*
X192958145Y-116150990D01*
X193119205Y-116084277D01*
X193264155Y-115987424D01*
X193387424Y-115864155D01*
X193484277Y-115719205D01*
X193550990Y-115558145D01*
X193585000Y-115387165D01*
X193585000Y-115212835D01*
X193550990Y-115041855D01*
X193484277Y-114880795D01*
X193387424Y-114735845D01*
X193264155Y-114612576D01*
X193119205Y-114515723D01*
X192973576Y-114455402D01*
X192950990Y-114341855D01*
X192884277Y-114180795D01*
X192787424Y-114035845D01*
X192664155Y-113912576D01*
X192519205Y-113815723D01*
X192358145Y-113749010D01*
X192187165Y-113715000D01*
X192012835Y-113715000D01*
X191841855Y-113749010D01*
X191680795Y-113815723D01*
X191577115Y-113885000D01*
X186422885Y-113885000D01*
X186319205Y-113815723D01*
X186158145Y-113749010D01*
X185987165Y-113715000D01*
X185812835Y-113715000D01*
X185641855Y-113749010D01*
X185480795Y-113815723D01*
X185335845Y-113912576D01*
X185212576Y-114035845D01*
X185115723Y-114180795D01*
X185049010Y-114341855D01*
X185015000Y-114512835D01*
X185015000Y-114579732D01*
X184919205Y-114515723D01*
X184758145Y-114449010D01*
X184587165Y-114415000D01*
X184412835Y-114415000D01*
X184241855Y-114449010D01*
X184080795Y-114515723D01*
X183935845Y-114612576D01*
X183812576Y-114735845D01*
X183715723Y-114880795D01*
X183689128Y-114945001D01*
X170497768Y-114945001D01*
X170500028Y-114933642D01*
X170619205Y-114884277D01*
X170764155Y-114787424D01*
X170887424Y-114664155D01*
X170984277Y-114519205D01*
X171050990Y-114358145D01*
X171068768Y-114268768D01*
X171158145Y-114250990D01*
X171319205Y-114184277D01*
X171464155Y-114087424D01*
X171587424Y-113964155D01*
X171684277Y-113819205D01*
X171750990Y-113658145D01*
X171779463Y-113515000D01*
X187264890Y-113515000D01*
X187300000Y-113518458D01*
X187335110Y-113515000D01*
X187335120Y-113515000D01*
X187440164Y-113504654D01*
X187574942Y-113463770D01*
X187699154Y-113397377D01*
X187808027Y-113308027D01*
X187830420Y-113280741D01*
X188135845Y-112975317D01*
X188258145Y-112950990D01*
X188419205Y-112884277D01*
X188564155Y-112787424D01*
X188687424Y-112664155D01*
X188784277Y-112519205D01*
X188850990Y-112358145D01*
X188885000Y-112187165D01*
X188885000Y-112012835D01*
X188850990Y-111841855D01*
X188784277Y-111680795D01*
X188687424Y-111535845D01*
X188586579Y-111435000D01*
X197658982Y-111435000D01*
X197700000Y-111439040D01*
X197741018Y-111435000D01*
X197741019Y-111435000D01*
X197863689Y-111422918D01*
X198021087Y-111375172D01*
X198096243Y-111335000D01*
X198101939Y-111335000D01*
X198301898Y-111295226D01*
X198490256Y-111217205D01*
X198659774Y-111103937D01*
X198803937Y-110959774D01*
X198917205Y-110790256D01*
X198995226Y-110601898D01*
X199035000Y-110401939D01*
X199035000Y-110198061D01*
X198995226Y-109998102D01*
X198917205Y-109809744D01*
X198803937Y-109640226D01*
X198659774Y-109496063D01*
X198490256Y-109382795D01*
X198301898Y-109304774D01*
X198101939Y-109265000D01*
X197898061Y-109265000D01*
X197698102Y-109304774D01*
X197509744Y-109382795D01*
X197340226Y-109496063D01*
X197196063Y-109640226D01*
X197112692Y-109765000D01*
X191673723Y-109765000D01*
X191684277Y-109749205D01*
X191721979Y-109658184D01*
X191758145Y-109650990D01*
X191919205Y-109584277D01*
X192064155Y-109487424D01*
X192187424Y-109364155D01*
X192284277Y-109219205D01*
X192350990Y-109058145D01*
X192385000Y-108887165D01*
X192385000Y-108712835D01*
X192350990Y-108541855D01*
X192284277Y-108380795D01*
X192187424Y-108235845D01*
X192064155Y-108112576D01*
X191919205Y-108015723D01*
X191758145Y-107949010D01*
X191587165Y-107915000D01*
X191412835Y-107915000D01*
X191241855Y-107949010D01*
X191080795Y-108015723D01*
X190977115Y-108085000D01*
X188085000Y-108085000D01*
X188085000Y-108012835D01*
X188050990Y-107841855D01*
X187984277Y-107680795D01*
X187887424Y-107535845D01*
X187764155Y-107412576D01*
X187619205Y-107315723D01*
X187458145Y-107249010D01*
X187287165Y-107215000D01*
X187112835Y-107215000D01*
X186941855Y-107249010D01*
X186780795Y-107315723D01*
X186635845Y-107412576D01*
X186563421Y-107485000D01*
X180082885Y-107485000D01*
X179979205Y-107415723D01*
X179818145Y-107349010D01*
X179647165Y-107315000D01*
X179472835Y-107315000D01*
X179301855Y-107349010D01*
X179140795Y-107415723D01*
X178995845Y-107512576D01*
X178872576Y-107635845D01*
X178775723Y-107780795D01*
X178709010Y-107941855D01*
X178675000Y-108112835D01*
X178675000Y-108287165D01*
X178709010Y-108458145D01*
X178775723Y-108619205D01*
X178872576Y-108764155D01*
X178995845Y-108887424D01*
X179140795Y-108984277D01*
X179242714Y-109026493D01*
X179249010Y-109058145D01*
X179315723Y-109219205D01*
X179412576Y-109364155D01*
X179535845Y-109487424D01*
X179680795Y-109584277D01*
X179841855Y-109650990D01*
X180012835Y-109685000D01*
X180187165Y-109685000D01*
X180358145Y-109650990D01*
X180519205Y-109584277D01*
X180622885Y-109515000D01*
X184777115Y-109515000D01*
X184880795Y-109584277D01*
X185041855Y-109650990D01*
X185212835Y-109685000D01*
X185387165Y-109685000D01*
X185558145Y-109650990D01*
X185719205Y-109584277D01*
X185864155Y-109487424D01*
X185900000Y-109451579D01*
X185935845Y-109487424D01*
X186080795Y-109584277D01*
X186241855Y-109650990D01*
X186412835Y-109685000D01*
X186587165Y-109685000D01*
X186758145Y-109650990D01*
X186919205Y-109584277D01*
X187022885Y-109515000D01*
X187720537Y-109515000D01*
X187749010Y-109658145D01*
X187793271Y-109765000D01*
X181913285Y-109765000D01*
X181790256Y-109682795D01*
X181601898Y-109604774D01*
X181401939Y-109565000D01*
X181198061Y-109565000D01*
X180998102Y-109604774D01*
X180809744Y-109682795D01*
X180686715Y-109765000D01*
X166213285Y-109765000D01*
X166090256Y-109682795D01*
X165901898Y-109604774D01*
X165701939Y-109565000D01*
X165498061Y-109565000D01*
X165298102Y-109604774D01*
X165109744Y-109682795D01*
X164986715Y-109765000D01*
X150613285Y-109765000D01*
X150490256Y-109682795D01*
X150301898Y-109604774D01*
X150101939Y-109565000D01*
X149898061Y-109565000D01*
X149698102Y-109604774D01*
X149509744Y-109682795D01*
X149340226Y-109796063D01*
X149271289Y-109865000D01*
X141586579Y-109865000D01*
X141587424Y-109864155D01*
X141684277Y-109719205D01*
X141750990Y-109558145D01*
X141785000Y-109387165D01*
X141785000Y-109212835D01*
X141750990Y-109041855D01*
X141684277Y-108880795D01*
X141587424Y-108735845D01*
X141464155Y-108612576D01*
X141319205Y-108515723D01*
X141158145Y-108449010D01*
X140987165Y-108415000D01*
X140812835Y-108415000D01*
X140641855Y-108449010D01*
X140480795Y-108515723D01*
X140377115Y-108585000D01*
X140185000Y-108585000D01*
X140185000Y-108512835D01*
X140150990Y-108341855D01*
X140084277Y-108180795D01*
X139987424Y-108035845D01*
X139864155Y-107912576D01*
X139719205Y-107815723D01*
X139558145Y-107749010D01*
X139448461Y-107727192D01*
X139387424Y-107635845D01*
X139329187Y-107577608D01*
X139464155Y-107487424D01*
X139587424Y-107364155D01*
X139684277Y-107219205D01*
X139750990Y-107058145D01*
X139785000Y-106887165D01*
X139785000Y-106815000D01*
X144647115Y-106815000D01*
X144750795Y-106884277D01*
X144911855Y-106950990D01*
X145082835Y-106985000D01*
X145257165Y-106985000D01*
X145428145Y-106950990D01*
X145589205Y-106884277D01*
X145734155Y-106787424D01*
X145857424Y-106664155D01*
X145954277Y-106519205D01*
X146020990Y-106358145D01*
X146055000Y-106187165D01*
X146055000Y-106012835D01*
X146020990Y-105841855D01*
X145956018Y-105684999D01*
X146045000Y-105684999D01*
X146045000Y-105687165D01*
X146079010Y-105858145D01*
X146145723Y-106019205D01*
X146242576Y-106164155D01*
X146365845Y-106287424D01*
X146510795Y-106384277D01*
X146671855Y-106450990D01*
X146842835Y-106485000D01*
X147017165Y-106485000D01*
X147188145Y-106450990D01*
X147349205Y-106384277D01*
X147452885Y-106315000D01*
X148194461Y-106315000D01*
X148209010Y-106388145D01*
X148275723Y-106549205D01*
X148372576Y-106694155D01*
X148495845Y-106817424D01*
X148640795Y-106914277D01*
X148801855Y-106980990D01*
X148972835Y-107015000D01*
X149147165Y-107015000D01*
X149318145Y-106980990D01*
X149479205Y-106914277D01*
X149582885Y-106845000D01*
X155677115Y-106845000D01*
X155780795Y-106914277D01*
X155941855Y-106980990D01*
X156112835Y-107015000D01*
X156287165Y-107015000D01*
X156458145Y-106980990D01*
X156619205Y-106914277D01*
X156764155Y-106817424D01*
X156780000Y-106801579D01*
X156865845Y-106887424D01*
X157010795Y-106984277D01*
X157171855Y-107050990D01*
X157342835Y-107085000D01*
X157517165Y-107085000D01*
X157688145Y-107050990D01*
X157849205Y-106984277D01*
X157952885Y-106915000D01*
X159487114Y-106915000D01*
X159590794Y-106984277D01*
X159751854Y-107050990D01*
X159922834Y-107085000D01*
X160097164Y-107085000D01*
X160268144Y-107050990D01*
X160429204Y-106984277D01*
X160574154Y-106887424D01*
X160697423Y-106764155D01*
X160794276Y-106619205D01*
X160860989Y-106458145D01*
X160894999Y-106287165D01*
X160894999Y-106215000D01*
X170615000Y-106215000D01*
X170615000Y-106287165D01*
X170649010Y-106458145D01*
X170715723Y-106619205D01*
X170812576Y-106764155D01*
X170935845Y-106887424D01*
X171080795Y-106984277D01*
X171241855Y-107050990D01*
X171412835Y-107085000D01*
X171587165Y-107085000D01*
X171758145Y-107050990D01*
X171919205Y-106984277D01*
X172022885Y-106915000D01*
X177447115Y-106915000D01*
X177550795Y-106984277D01*
X177711855Y-107050990D01*
X177882835Y-107085000D01*
X178057165Y-107085000D01*
X178228145Y-107050990D01*
X178389205Y-106984277D01*
X178534155Y-106887424D01*
X178657424Y-106764155D01*
X178754277Y-106619205D01*
X178820990Y-106458145D01*
X178855000Y-106287165D01*
X178855000Y-106112835D01*
X178820990Y-105941855D01*
X178754277Y-105780795D01*
X178657424Y-105635845D01*
X178534155Y-105512576D01*
X178389205Y-105415723D01*
X178228145Y-105349010D01*
X178057165Y-105315000D01*
X177882835Y-105315000D01*
X177711855Y-105349010D01*
X177550795Y-105415723D01*
X177447115Y-105485000D01*
X173185000Y-105485000D01*
X173185000Y-105412835D01*
X173150990Y-105241855D01*
X173116762Y-105159222D01*
X173158145Y-105150990D01*
X173319205Y-105084277D01*
X173464155Y-104987424D01*
X173587424Y-104864155D01*
X173684277Y-104719205D01*
X173750990Y-104558145D01*
X173785000Y-104387165D01*
X173785000Y-104212835D01*
X173750990Y-104041855D01*
X173684277Y-103880795D01*
X173587424Y-103735845D01*
X173464155Y-103612576D01*
X173319205Y-103515723D01*
X173158145Y-103449010D01*
X172987165Y-103415000D01*
X172812835Y-103415000D01*
X172641855Y-103449010D01*
X172480795Y-103515723D01*
X172335845Y-103612576D01*
X172223422Y-103724999D01*
X165382818Y-103724999D01*
X165394155Y-103717424D01*
X165517424Y-103594155D01*
X165614277Y-103449205D01*
X165680990Y-103288145D01*
X165695539Y-103215000D01*
X185277115Y-103215000D01*
X185380795Y-103284277D01*
X185541855Y-103350990D01*
X185712835Y-103385000D01*
X185887165Y-103385000D01*
X186058145Y-103350990D01*
X186219205Y-103284277D01*
X186364155Y-103187424D01*
X186487424Y-103064155D01*
X186584277Y-102919205D01*
X186608437Y-102860878D01*
X186658145Y-102850990D01*
X186819205Y-102784277D01*
X186964155Y-102687424D01*
X187087424Y-102564155D01*
X187184277Y-102419205D01*
X187250990Y-102258145D01*
X187285000Y-102087165D01*
X187285000Y-101912835D01*
X187271590Y-101845421D01*
X187419205Y-101784277D01*
X187564155Y-101687424D01*
X187687424Y-101564155D01*
X187784277Y-101419205D01*
X187850990Y-101258145D01*
X187885000Y-101087165D01*
X187885000Y-100912835D01*
X187850990Y-100741855D01*
X187784277Y-100580795D01*
X187687424Y-100435845D01*
X187564155Y-100312576D01*
X187419205Y-100215723D01*
X187258145Y-100149010D01*
X187087165Y-100115000D01*
X186912835Y-100115000D01*
X186741855Y-100149010D01*
X186580795Y-100215723D01*
X186551944Y-100235001D01*
X145989155Y-100235001D01*
X146020990Y-100158145D01*
X146055000Y-99987165D01*
X146055000Y-99815000D01*
X147477115Y-99815000D01*
X147580795Y-99884277D01*
X147741855Y-99950990D01*
X147912835Y-99985000D01*
X148087165Y-99985000D01*
X148258145Y-99950990D01*
X148419205Y-99884277D01*
X148564155Y-99787424D01*
X148687424Y-99664155D01*
X148784277Y-99519205D01*
X148850990Y-99358145D01*
X148885000Y-99187165D01*
X148885000Y-99012835D01*
X148850990Y-98841855D01*
X148784277Y-98680795D01*
X148687424Y-98535845D01*
X148564155Y-98412576D01*
X148419205Y-98315723D01*
X148258145Y-98249010D01*
X148087165Y-98215000D01*
X147912835Y-98215000D01*
X147741855Y-98249010D01*
X147580795Y-98315723D01*
X147477115Y-98385000D01*
X132392953Y-98385000D01*
X132464155Y-98337424D01*
X132587424Y-98214155D01*
X132684277Y-98069205D01*
X132750990Y-97908145D01*
X132785000Y-97737165D01*
X132785000Y-97562835D01*
X132755594Y-97415000D01*
X147134459Y-97415000D01*
X147149010Y-97488155D01*
X147215723Y-97649215D01*
X147312576Y-97794165D01*
X147435845Y-97917434D01*
X147580795Y-98014287D01*
X147741855Y-98081000D01*
X147912835Y-98115010D01*
X148087165Y-98115010D01*
X148258145Y-98081000D01*
X148419205Y-98014287D01*
X148522885Y-97945010D01*
X153277115Y-97945010D01*
X153380795Y-98014287D01*
X153541855Y-98081000D01*
X153712835Y-98115010D01*
X153887165Y-98115010D01*
X154058145Y-98081000D01*
X154219205Y-98014287D01*
X154364155Y-97917434D01*
X154487424Y-97794165D01*
X154584277Y-97649215D01*
X154650990Y-97488155D01*
X154665541Y-97415000D01*
X156164890Y-97415000D01*
X156200000Y-97418458D01*
X156235110Y-97415000D01*
X156235120Y-97415000D01*
X156340164Y-97404654D01*
X156474942Y-97363770D01*
X156599154Y-97297377D01*
X156708027Y-97208027D01*
X156730420Y-97180741D01*
X156735844Y-97175317D01*
X156858145Y-97150990D01*
X157019205Y-97084277D01*
X157102116Y-97028877D01*
X157283990Y-97210751D01*
X157306375Y-97238027D01*
X157333650Y-97260411D01*
X157333653Y-97260414D01*
X157415246Y-97327376D01*
X157535877Y-97391855D01*
X157539460Y-97393770D01*
X157674238Y-97434654D01*
X157779282Y-97445000D01*
X157779291Y-97445000D01*
X157814401Y-97448458D01*
X157849511Y-97445000D01*
X169917115Y-97445000D01*
X170020795Y-97514277D01*
X170181855Y-97580990D01*
X170304155Y-97605317D01*
X170309585Y-97610746D01*
X170331974Y-97638028D01*
X170440847Y-97727378D01*
X170565059Y-97793771D01*
X170699837Y-97834655D01*
X170804881Y-97845001D01*
X170804891Y-97845001D01*
X170840001Y-97848459D01*
X170875111Y-97845001D01*
X187427396Y-97845001D01*
X187441855Y-97850990D01*
X187612835Y-97885000D01*
X187787165Y-97885000D01*
X187958145Y-97850990D01*
X188119205Y-97784277D01*
X188264155Y-97687424D01*
X188387424Y-97564155D01*
X188484277Y-97419205D01*
X188550990Y-97258145D01*
X188585000Y-97087165D01*
X188585000Y-96912835D01*
X188550990Y-96741855D01*
X188484277Y-96580795D01*
X188387424Y-96435845D01*
X188264155Y-96312576D01*
X188119205Y-96215723D01*
X187958145Y-96149010D01*
X187787165Y-96115000D01*
X187622885Y-96115000D01*
X187664155Y-96087424D01*
X187787424Y-95964155D01*
X187884277Y-95819205D01*
X187950990Y-95658145D01*
X187953893Y-95643550D01*
X187971855Y-95650990D01*
X188142835Y-95685000D01*
X188317165Y-95685000D01*
X188488145Y-95650990D01*
X188649205Y-95584277D01*
X188794155Y-95487424D01*
X188917424Y-95364155D01*
X189014277Y-95219205D01*
X189080990Y-95058145D01*
X189115000Y-94887165D01*
X189115000Y-94712835D01*
X189080990Y-94541855D01*
X189014277Y-94380795D01*
X188917424Y-94235845D01*
X188794155Y-94112576D01*
X188649205Y-94015723D01*
X188488145Y-93949010D01*
X188317165Y-93915000D01*
X188142835Y-93915000D01*
X187971855Y-93949010D01*
X187810795Y-94015723D01*
X187665845Y-94112576D01*
X187663421Y-94115000D01*
X185265539Y-94115000D01*
X185250990Y-94041855D01*
X185184277Y-93880795D01*
X185087424Y-93735845D01*
X184964155Y-93612576D01*
X184819205Y-93515723D01*
X184658145Y-93449010D01*
X184487165Y-93415000D01*
X184312835Y-93415000D01*
X184141855Y-93449010D01*
X183980795Y-93515723D01*
X183877115Y-93585000D01*
X171492885Y-93585000D01*
X171389205Y-93515723D01*
X171228145Y-93449010D01*
X171057165Y-93415000D01*
X170882835Y-93415000D01*
X170711855Y-93449010D01*
X170550795Y-93515723D01*
X170447115Y-93585000D01*
X126422885Y-93585000D01*
X126319205Y-93515723D01*
X126158145Y-93449010D01*
X125987165Y-93415000D01*
X125812835Y-93415000D01*
X125641855Y-93449010D01*
X125554967Y-93485000D01*
X123922885Y-93485000D01*
X123819205Y-93415723D01*
X123658145Y-93349010D01*
X123587712Y-93335000D01*
X133586715Y-93335000D01*
X133709744Y-93417205D01*
X133898102Y-93495226D01*
X134098061Y-93535000D01*
X134301939Y-93535000D01*
X134501898Y-93495226D01*
X134690256Y-93417205D01*
X134813285Y-93335000D01*
X149186715Y-93335000D01*
X149309744Y-93417205D01*
X149498102Y-93495226D01*
X149698061Y-93535000D01*
X149901939Y-93535000D01*
X150101898Y-93495226D01*
X150290256Y-93417205D01*
X150413285Y-93335000D01*
X165052705Y-93335000D01*
X165198102Y-93395226D01*
X165398061Y-93435000D01*
X165601939Y-93435000D01*
X165801898Y-93395226D01*
X165990256Y-93317205D01*
X166113285Y-93235000D01*
X180486715Y-93235000D01*
X180609744Y-93317205D01*
X180798102Y-93395226D01*
X180998061Y-93435000D01*
X181201939Y-93435000D01*
X181401898Y-93395226D01*
X181590256Y-93317205D01*
X181713285Y-93235000D01*
X197552705Y-93235000D01*
X197698102Y-93295226D01*
X197898061Y-93335000D01*
X198101939Y-93335000D01*
X198301898Y-93295226D01*
X198490256Y-93217205D01*
X198659774Y-93103937D01*
X198803937Y-92959774D01*
X198917205Y-92790256D01*
X198995226Y-92601898D01*
X199035000Y-92401939D01*
X199035000Y-92198061D01*
X198995226Y-91998102D01*
X198917205Y-91809744D01*
X198803937Y-91640226D01*
X198659774Y-91496063D01*
X198490256Y-91382795D01*
X198301898Y-91304774D01*
X198101939Y-91265000D01*
X197898061Y-91265000D01*
X197698102Y-91304774D01*
X197509744Y-91382795D01*
X197340226Y-91496063D01*
X197271289Y-91565000D01*
X181713285Y-91565000D01*
X181590256Y-91482795D01*
X181401898Y-91404774D01*
X181201939Y-91365000D01*
X180998061Y-91365000D01*
X180798102Y-91404774D01*
X180609744Y-91482795D01*
X180486715Y-91565000D01*
X171486579Y-91565000D01*
X171487424Y-91564155D01*
X171584277Y-91419205D01*
X171650990Y-91258145D01*
X171685000Y-91087165D01*
X171685000Y-91075000D01*
X188923421Y-91075000D01*
X188935845Y-91087424D01*
X189080795Y-91184277D01*
X189241855Y-91250990D01*
X189412835Y-91285000D01*
X189587165Y-91285000D01*
X189758145Y-91250990D01*
X189919205Y-91184277D01*
X190064155Y-91087424D01*
X190187424Y-90964155D01*
X190284277Y-90819205D01*
X190350990Y-90658145D01*
X190385000Y-90487165D01*
X190385000Y-90312835D01*
X190350990Y-90141855D01*
X190284277Y-89980795D01*
X190187424Y-89835845D01*
X190064155Y-89712576D01*
X189919205Y-89615723D01*
X189758145Y-89549010D01*
X189587165Y-89515000D01*
X189412835Y-89515000D01*
X189241855Y-89549010D01*
X189080795Y-89615723D01*
X189036979Y-89645000D01*
X177415014Y-89645000D01*
X177450990Y-89558145D01*
X177485000Y-89387165D01*
X177485000Y-89212835D01*
X177450990Y-89041855D01*
X177384277Y-88880795D01*
X177287424Y-88735845D01*
X177164155Y-88612576D01*
X177122883Y-88584999D01*
X185594891Y-88584999D01*
X185630001Y-88588457D01*
X185665111Y-88584999D01*
X185665121Y-88584999D01*
X185697030Y-88581856D01*
X185712835Y-88585000D01*
X185887165Y-88585000D01*
X186058145Y-88550990D01*
X186219205Y-88484277D01*
X186364155Y-88387424D01*
X186487424Y-88264155D01*
X186584277Y-88119205D01*
X186650990Y-87958145D01*
X186685000Y-87787165D01*
X186685000Y-87612835D01*
X186650990Y-87441855D01*
X186584277Y-87280795D01*
X186487424Y-87135845D01*
X186364155Y-87012576D01*
X186219205Y-86915723D01*
X186058145Y-86849010D01*
X185887165Y-86815000D01*
X185712835Y-86815000D01*
X185541855Y-86849010D01*
X185380795Y-86915723D01*
X185235845Y-87012576D01*
X185112576Y-87135845D01*
X185099778Y-87154999D01*
X171085000Y-87154999D01*
X171085000Y-87012835D01*
X171050990Y-86841855D01*
X170984277Y-86680795D01*
X170887424Y-86535845D01*
X170866579Y-86515000D01*
X186477115Y-86515000D01*
X186580795Y-86584277D01*
X186741855Y-86650990D01*
X186912835Y-86685000D01*
X187087165Y-86685000D01*
X187258145Y-86650990D01*
X187419205Y-86584277D01*
X187564155Y-86487424D01*
X187687424Y-86364155D01*
X187784277Y-86219205D01*
X187850990Y-86058145D01*
X187885000Y-85887165D01*
X187885000Y-85712835D01*
X187850990Y-85541855D01*
X187784277Y-85380795D01*
X187687424Y-85235845D01*
X187564155Y-85112576D01*
X187419205Y-85015723D01*
X187258145Y-84949010D01*
X187087165Y-84915000D01*
X186912835Y-84915000D01*
X186741855Y-84949010D01*
X186580795Y-85015723D01*
X186477115Y-85085000D01*
X180445000Y-85085000D01*
X180445000Y-85012835D01*
X180410990Y-84841855D01*
X180344277Y-84680795D01*
X180247424Y-84535845D01*
X180124155Y-84412576D01*
X179979205Y-84315723D01*
X179818145Y-84249010D01*
X179647165Y-84215000D01*
X183877115Y-84215000D01*
X183980795Y-84284277D01*
X184141855Y-84350990D01*
X184312835Y-84385000D01*
X184487165Y-84385000D01*
X184658145Y-84350990D01*
X184819205Y-84284277D01*
X184964155Y-84187424D01*
X185087424Y-84064155D01*
X185184277Y-83919205D01*
X185250990Y-83758145D01*
X185273496Y-83645001D01*
X185422015Y-83645001D01*
X185480795Y-83684277D01*
X185641855Y-83750990D01*
X185812835Y-83785000D01*
X185987165Y-83785000D01*
X186158145Y-83750990D01*
X186319205Y-83684277D01*
X186464155Y-83587424D01*
X186587424Y-83464155D01*
X186684277Y-83319205D01*
X186750990Y-83158145D01*
X186754592Y-83140035D01*
X186889205Y-83084277D01*
X187034155Y-82987424D01*
X187157424Y-82864155D01*
X187254277Y-82719205D01*
X187320990Y-82558145D01*
X187349463Y-82415000D01*
X187877115Y-82415000D01*
X187980795Y-82484277D01*
X188141855Y-82550990D01*
X188312835Y-82585000D01*
X188487165Y-82585000D01*
X188658145Y-82550990D01*
X188819205Y-82484277D01*
X188964155Y-82387424D01*
X189087424Y-82264155D01*
X189184277Y-82119205D01*
X189250990Y-81958145D01*
X189285000Y-81787165D01*
X189285000Y-81612835D01*
X189250990Y-81441855D01*
X189184277Y-81280795D01*
X189087424Y-81135845D01*
X188964155Y-81012576D01*
X188819205Y-80915723D01*
X188658145Y-80849010D01*
X188487165Y-80815000D01*
X188312835Y-80815000D01*
X188141855Y-80849010D01*
X187980795Y-80915723D01*
X187877115Y-80985000D01*
X180779463Y-80985000D01*
X180750990Y-80841855D01*
X180684277Y-80680795D01*
X180587424Y-80535845D01*
X180464155Y-80412576D01*
X180319205Y-80315723D01*
X180158145Y-80249010D01*
X179987165Y-80215000D01*
X179812835Y-80215000D01*
X179641855Y-80249010D01*
X179480795Y-80315723D01*
X179377115Y-80385000D01*
X151928450Y-80385000D01*
X151925555Y-80382624D01*
X151801343Y-80316231D01*
X151666565Y-80275347D01*
X151561521Y-80265001D01*
X151561511Y-80265001D01*
X151526401Y-80261543D01*
X151491291Y-80265001D01*
X118056578Y-80265001D01*
X118057424Y-80264155D01*
X118154277Y-80119205D01*
X118220990Y-79958145D01*
X118255000Y-79787165D01*
X118255000Y-79710871D01*
X118319205Y-79684277D01*
X118422885Y-79615000D01*
X121654967Y-79615000D01*
X121741855Y-79650990D01*
X121912835Y-79685000D01*
X122087165Y-79685000D01*
X122258145Y-79650990D01*
X122419205Y-79584277D01*
X122564155Y-79487424D01*
X122687424Y-79364155D01*
X122784277Y-79219205D01*
X122850990Y-79058145D01*
X122885000Y-78887165D01*
X122885000Y-78869401D01*
X122943826Y-78869401D01*
X123215182Y-79140758D01*
X123237571Y-79168039D01*
X123346444Y-79257389D01*
X123470656Y-79323782D01*
X123605434Y-79364666D01*
X123710478Y-79375012D01*
X123710488Y-79375012D01*
X123745598Y-79378470D01*
X123780708Y-79375012D01*
X124219292Y-79375012D01*
X124254402Y-79378470D01*
X124289512Y-79375012D01*
X124289522Y-79375012D01*
X124394566Y-79364666D01*
X124471091Y-79341453D01*
X124515723Y-79449205D01*
X124612576Y-79594155D01*
X124735845Y-79717424D01*
X124880795Y-79814277D01*
X125041855Y-79880990D01*
X125212835Y-79915000D01*
X125387165Y-79915000D01*
X125558145Y-79880990D01*
X125719205Y-79814277D01*
X125822885Y-79745000D01*
X132650382Y-79745000D01*
X132675216Y-79782167D01*
X132798485Y-79905436D01*
X132943435Y-80002289D01*
X133104495Y-80069002D01*
X133275475Y-80103012D01*
X133449805Y-80103012D01*
X133620785Y-80069002D01*
X133781845Y-80002289D01*
X133926795Y-79905436D01*
X134050064Y-79782167D01*
X134146917Y-79637217D01*
X134213630Y-79476157D01*
X134233749Y-79375012D01*
X178271479Y-79375012D01*
X178341427Y-79444960D01*
X178486377Y-79541813D01*
X178647437Y-79608526D01*
X178818417Y-79642536D01*
X178992747Y-79642536D01*
X179163727Y-79608526D01*
X179324787Y-79541813D01*
X179469737Y-79444960D01*
X179593006Y-79321691D01*
X179689859Y-79176741D01*
X179756572Y-79015681D01*
X179790582Y-78844701D01*
X179790582Y-78670371D01*
X179759677Y-78515000D01*
X185177115Y-78515000D01*
X185280795Y-78584277D01*
X185441855Y-78650990D01*
X185612835Y-78685000D01*
X185787165Y-78685000D01*
X185958145Y-78650990D01*
X186119205Y-78584277D01*
X186264155Y-78487424D01*
X186387424Y-78364155D01*
X186484277Y-78219205D01*
X186550990Y-78058145D01*
X186585000Y-77887165D01*
X186585000Y-77712835D01*
X186550990Y-77541855D01*
X186484277Y-77380795D01*
X186387424Y-77235845D01*
X186264155Y-77112576D01*
X186119205Y-77015723D01*
X186040623Y-76983173D01*
X186050990Y-76958145D01*
X186085000Y-76787165D01*
X186085000Y-76665001D01*
X186346323Y-76665001D01*
X186412576Y-76764155D01*
X186535845Y-76887424D01*
X186680795Y-76984277D01*
X186841855Y-77050990D01*
X187012835Y-77085000D01*
X187187165Y-77085000D01*
X187358145Y-77050990D01*
X187519205Y-76984277D01*
X187664155Y-76887424D01*
X187787424Y-76764155D01*
X187884277Y-76619205D01*
X187950990Y-76458145D01*
X187985000Y-76287165D01*
X187985000Y-76112835D01*
X187950990Y-75941855D01*
X187884277Y-75780795D01*
X187787424Y-75635845D01*
X187664155Y-75512576D01*
X187519205Y-75415723D01*
X187358145Y-75349010D01*
X187187165Y-75315000D01*
X187178766Y-75315000D01*
X187124943Y-75286231D01*
X186990165Y-75245347D01*
X186885121Y-75235001D01*
X186885111Y-75235001D01*
X186850001Y-75231543D01*
X186814891Y-75235001D01*
X180941008Y-75235001D01*
X180941018Y-75235000D01*
X180941019Y-75235000D01*
X180979170Y-75231242D01*
X180998061Y-75235000D01*
X181201939Y-75235000D01*
X181401898Y-75195226D01*
X181590256Y-75117205D01*
X181713285Y-75035000D01*
X197271289Y-75035000D01*
X197340226Y-75103937D01*
X197509744Y-75217205D01*
X197698102Y-75295226D01*
X197898061Y-75335000D01*
X198101939Y-75335000D01*
X198301898Y-75295226D01*
X198490256Y-75217205D01*
X198659774Y-75103937D01*
X198803937Y-74959774D01*
X198917205Y-74790256D01*
X198995226Y-74601898D01*
X199035000Y-74401939D01*
X199035000Y-74198061D01*
X198995226Y-73998102D01*
X198917205Y-73809744D01*
X198803937Y-73640226D01*
X198659774Y-73496063D01*
X198490256Y-73382795D01*
X198301898Y-73304774D01*
X198101939Y-73265000D01*
X197898061Y-73265000D01*
X197698102Y-73304774D01*
X197552705Y-73365000D01*
X181713285Y-73365000D01*
X181590256Y-73282795D01*
X181401898Y-73204774D01*
X181201939Y-73165000D01*
X180998061Y-73165000D01*
X180798102Y-73204774D01*
X180609744Y-73282795D01*
X180440226Y-73396063D01*
X180296063Y-73540226D01*
X180279510Y-73565000D01*
X166213285Y-73565000D01*
X166090256Y-73482795D01*
X165901898Y-73404774D01*
X165701939Y-73365000D01*
X165498061Y-73365000D01*
X165298102Y-73404774D01*
X165152705Y-73465000D01*
X150513285Y-73465000D01*
X150390256Y-73382795D01*
X150201898Y-73304774D01*
X150001939Y-73265000D01*
X149798061Y-73265000D01*
X149598102Y-73304774D01*
X149409744Y-73382795D01*
X149286715Y-73465000D01*
X147799518Y-73465000D01*
X147815000Y-73387165D01*
X147815000Y-73212835D01*
X147780990Y-73041855D01*
X147714277Y-72880795D01*
X147617424Y-72735845D01*
X147494155Y-72612576D01*
X147349205Y-72515723D01*
X147188145Y-72449010D01*
X147017165Y-72415000D01*
X147477115Y-72415000D01*
X147580795Y-72484277D01*
X147741855Y-72550990D01*
X147912835Y-72585000D01*
X148087165Y-72585000D01*
X148258145Y-72550990D01*
X148419205Y-72484277D01*
X148564155Y-72387424D01*
X148687424Y-72264155D01*
X148784277Y-72119205D01*
X148850990Y-71958145D01*
X148885000Y-71787165D01*
X148885000Y-71612835D01*
X148850990Y-71441855D01*
X148784277Y-71280795D01*
X148773724Y-71265001D01*
X161946323Y-71265001D01*
X162012576Y-71364155D01*
X162135845Y-71487424D01*
X162280795Y-71584277D01*
X162282540Y-71585000D01*
X155545033Y-71585000D01*
X155458145Y-71549010D01*
X155287165Y-71515000D01*
X155112835Y-71515000D01*
X154941855Y-71549010D01*
X154780795Y-71615723D01*
X154635845Y-71712576D01*
X154512576Y-71835845D01*
X154415723Y-71980795D01*
X154349010Y-72141855D01*
X154315000Y-72312835D01*
X154315000Y-72487165D01*
X154349010Y-72658145D01*
X154415723Y-72819205D01*
X154512576Y-72964155D01*
X154635845Y-73087424D01*
X154780795Y-73184277D01*
X154941855Y-73250990D01*
X155112835Y-73285000D01*
X155287165Y-73285000D01*
X155458145Y-73250990D01*
X155619205Y-73184277D01*
X155764155Y-73087424D01*
X155836579Y-73015000D01*
X163877115Y-73015000D01*
X163980795Y-73084277D01*
X164141855Y-73150990D01*
X164312835Y-73185000D01*
X164487165Y-73185000D01*
X164658145Y-73150990D01*
X164819205Y-73084277D01*
X164964155Y-72987424D01*
X165087424Y-72864155D01*
X165184277Y-72719205D01*
X165250990Y-72558145D01*
X165285000Y-72387165D01*
X165285000Y-72212835D01*
X165250990Y-72041855D01*
X165184277Y-71880795D01*
X165087424Y-71735845D01*
X164964155Y-71612576D01*
X164819205Y-71515723D01*
X164658145Y-71449010D01*
X164487165Y-71415000D01*
X164312835Y-71415000D01*
X164141855Y-71449010D01*
X163980795Y-71515723D01*
X163877115Y-71585000D01*
X163117460Y-71585000D01*
X163119205Y-71584277D01*
X163264155Y-71487424D01*
X163387424Y-71364155D01*
X163484277Y-71219205D01*
X163550990Y-71058145D01*
X163585000Y-70887165D01*
X163585000Y-70712835D01*
X163550990Y-70541855D01*
X163484277Y-70380795D01*
X163387424Y-70235845D01*
X163264155Y-70112576D01*
X163119205Y-70015723D01*
X162958145Y-69949010D01*
X162787165Y-69915000D01*
X162778766Y-69915000D01*
X162724943Y-69886231D01*
X162590165Y-69845347D01*
X162485121Y-69835001D01*
X162485111Y-69835001D01*
X162450001Y-69831543D01*
X162414891Y-69835001D01*
X146575485Y-69835001D01*
X146585000Y-69787165D01*
X146585000Y-69615000D01*
X160947115Y-69615000D01*
X161050795Y-69684277D01*
X161211855Y-69750990D01*
X161382835Y-69785000D01*
X161557165Y-69785000D01*
X161728145Y-69750990D01*
X161889205Y-69684277D01*
X162034155Y-69587424D01*
X162157424Y-69464155D01*
X162254277Y-69319205D01*
X162320990Y-69158145D01*
X162355000Y-68987165D01*
X162355000Y-68812835D01*
X162320990Y-68641855D01*
X162254277Y-68480795D01*
X162176904Y-68364999D01*
X176851944Y-68364999D01*
X176880795Y-68384277D01*
X177041855Y-68450990D01*
X177212835Y-68485000D01*
X177387165Y-68485000D01*
X177558145Y-68450990D01*
X177719205Y-68384277D01*
X177864155Y-68287424D01*
X177987424Y-68164155D01*
X178084277Y-68019205D01*
X178150990Y-67858145D01*
X178185000Y-67687165D01*
X178185000Y-67512835D01*
X178150990Y-67341855D01*
X178084277Y-67180795D01*
X177987424Y-67035845D01*
X177864155Y-66912576D01*
X177719205Y-66815723D01*
X177558145Y-66749010D01*
X177387165Y-66715000D01*
X177212835Y-66715000D01*
X177041855Y-66749010D01*
X176880795Y-66815723D01*
X176735845Y-66912576D01*
X176713422Y-66934999D01*
X164696751Y-66934999D01*
X164819205Y-66884277D01*
X164964155Y-66787424D01*
X165087424Y-66664155D01*
X165184277Y-66519205D01*
X165250990Y-66358145D01*
X165285000Y-66187165D01*
X165285000Y-66012835D01*
X165250990Y-65841855D01*
X165184277Y-65680795D01*
X165087424Y-65535845D01*
X164964155Y-65412576D01*
X164819205Y-65315723D01*
X164658145Y-65249010D01*
X164487165Y-65215000D01*
X164312835Y-65215000D01*
X164141855Y-65249010D01*
X163980795Y-65315723D01*
X163877115Y-65385000D01*
X141485109Y-65385000D01*
X141449999Y-65381542D01*
X141414889Y-65385000D01*
X141414880Y-65385000D01*
X141309836Y-65395346D01*
X141175058Y-65436230D01*
X141050846Y-65502623D01*
X140941973Y-65591973D01*
X140919579Y-65619260D01*
X140864156Y-65674683D01*
X140741855Y-65699010D01*
X140580795Y-65765723D01*
X140435845Y-65862576D01*
X140312576Y-65985845D01*
X140215723Y-66130795D01*
X140149010Y-66291855D01*
X140134461Y-66365000D01*
X133553568Y-66365000D01*
X133624266Y-66259194D01*
X133690979Y-66098134D01*
X133724989Y-65927154D01*
X133724989Y-65752824D01*
X133690979Y-65581844D01*
X133635726Y-65448451D01*
X133641855Y-65450990D01*
X133812835Y-65485000D01*
X133987165Y-65485000D01*
X134158145Y-65450990D01*
X134245033Y-65415000D01*
X137777115Y-65415000D01*
X137880795Y-65484277D01*
X138041855Y-65550990D01*
X138212835Y-65585000D01*
X138387165Y-65585000D01*
X138558145Y-65550990D01*
X138719205Y-65484277D01*
X138864155Y-65387424D01*
X138987424Y-65264155D01*
X139084277Y-65119205D01*
X139148973Y-64963014D01*
X139180795Y-64984277D01*
X139341855Y-65050990D01*
X139512835Y-65085000D01*
X139687165Y-65085000D01*
X139858145Y-65050990D01*
X140019205Y-64984277D01*
X140122885Y-64915000D01*
X145263421Y-64915000D01*
X145335845Y-64987424D01*
X145480795Y-65084277D01*
X145641855Y-65150990D01*
X145812835Y-65185000D01*
X145987165Y-65185000D01*
X146158145Y-65150990D01*
X146319205Y-65084277D01*
X146464155Y-64987424D01*
X146587424Y-64864155D01*
X146684277Y-64719205D01*
X146750990Y-64558145D01*
X146785000Y-64387165D01*
X146785000Y-64212835D01*
X146765539Y-64115000D01*
X174377115Y-64115000D01*
X174480795Y-64184277D01*
X174641855Y-64250990D01*
X174812835Y-64285000D01*
X174987165Y-64285000D01*
X175158145Y-64250990D01*
X175319205Y-64184277D01*
X175464155Y-64087424D01*
X175587424Y-63964155D01*
X175621715Y-63912835D01*
X177015000Y-63912835D01*
X177015000Y-64087165D01*
X177049010Y-64258145D01*
X177115723Y-64419205D01*
X177212576Y-64564155D01*
X177335845Y-64687424D01*
X177480795Y-64784277D01*
X177641855Y-64850990D01*
X177747855Y-64872075D01*
X177779803Y-64949205D01*
X177876656Y-65094155D01*
X177999925Y-65217424D01*
X178144875Y-65314277D01*
X178305935Y-65380990D01*
X178476915Y-65415000D01*
X178651245Y-65415000D01*
X178822225Y-65380990D01*
X178983285Y-65314277D01*
X179086965Y-65245000D01*
X191990730Y-65245000D01*
X191995845Y-65250115D01*
X192140795Y-65346968D01*
X192301855Y-65413681D01*
X192472835Y-65447691D01*
X192647165Y-65447691D01*
X192818145Y-65413681D01*
X192979205Y-65346968D01*
X193124155Y-65250115D01*
X193247424Y-65126846D01*
X193344277Y-64981896D01*
X193410990Y-64820836D01*
X193445000Y-64649856D01*
X193445000Y-64475526D01*
X193410990Y-64304546D01*
X193344277Y-64143486D01*
X193247424Y-63998536D01*
X193124155Y-63875267D01*
X192979205Y-63778414D01*
X192878929Y-63736878D01*
X192814277Y-63580795D01*
X192717424Y-63435845D01*
X192594155Y-63312576D01*
X192449205Y-63215723D01*
X192288145Y-63149010D01*
X192117165Y-63115000D01*
X191942835Y-63115000D01*
X191771855Y-63149010D01*
X191610795Y-63215723D01*
X191507115Y-63285000D01*
X178422885Y-63285000D01*
X178319205Y-63215723D01*
X178158145Y-63149010D01*
X177987165Y-63115000D01*
X177812835Y-63115000D01*
X177641855Y-63149010D01*
X177480795Y-63215723D01*
X177335845Y-63312576D01*
X177212576Y-63435845D01*
X177115723Y-63580795D01*
X177049010Y-63741855D01*
X177015000Y-63912835D01*
X175621715Y-63912835D01*
X175684277Y-63819205D01*
X175750990Y-63658145D01*
X175785000Y-63487165D01*
X175785000Y-63312835D01*
X175750990Y-63141855D01*
X175684277Y-62980795D01*
X175587424Y-62835845D01*
X175464155Y-62712576D01*
X175319205Y-62615723D01*
X175158145Y-62549010D01*
X174987165Y-62515000D01*
X174812835Y-62515000D01*
X174641855Y-62549010D01*
X174480795Y-62615723D01*
X174377115Y-62685000D01*
X137386579Y-62685000D01*
X137364155Y-62662576D01*
X137219205Y-62565723D01*
X137058145Y-62499010D01*
X136887165Y-62465000D01*
X136712835Y-62465000D01*
X136541855Y-62499010D01*
X136380795Y-62565723D01*
X136235845Y-62662576D01*
X136113421Y-62785000D01*
X132022885Y-62785000D01*
X131919205Y-62715723D01*
X131758145Y-62649010D01*
X131587165Y-62615000D01*
X131412835Y-62615000D01*
X131241855Y-62649010D01*
X131080795Y-62715723D01*
X130935845Y-62812576D01*
X130812576Y-62935845D01*
X130715723Y-63080795D01*
X130649010Y-63241855D01*
X130615000Y-63412835D01*
X130615000Y-63587165D01*
X130649010Y-63758145D01*
X130715723Y-63919205D01*
X130812576Y-64064155D01*
X130935845Y-64187424D01*
X131080795Y-64284277D01*
X131241855Y-64350990D01*
X131412835Y-64385000D01*
X131587165Y-64385000D01*
X131758145Y-64350990D01*
X131919205Y-64284277D01*
X132022885Y-64215000D01*
X133101555Y-64215000D01*
X133049010Y-64341855D01*
X133015000Y-64512835D01*
X133015000Y-64687165D01*
X133049010Y-64858145D01*
X133104263Y-64991538D01*
X133098134Y-64988999D01*
X132927154Y-64954989D01*
X132752824Y-64954989D01*
X132581844Y-64988999D01*
X132420784Y-65055712D01*
X132275834Y-65152565D01*
X132173399Y-65255000D01*
X124723131Y-65255000D01*
X124619451Y-65185723D01*
X124458391Y-65119010D01*
X124287411Y-65085000D01*
X124113081Y-65085000D01*
X123942101Y-65119010D01*
X123781041Y-65185723D01*
X123636091Y-65282576D01*
X123512822Y-65405845D01*
X123428705Y-65531735D01*
X123341855Y-65549010D01*
X123180795Y-65615723D01*
X123035845Y-65712576D01*
X122912576Y-65835845D01*
X122815723Y-65980795D01*
X122749010Y-66141855D01*
X122715000Y-66312835D01*
X122715000Y-66365000D01*
X112308246Y-66365000D01*
X112153475Y-66133368D01*
X111946632Y-65926525D01*
X111772240Y-65810000D01*
X111946632Y-65693475D01*
X112153475Y-65486632D01*
X112315990Y-65243411D01*
X112427932Y-64973158D01*
X112485000Y-64686260D01*
X112485000Y-64393740D01*
X112427932Y-64106842D01*
X112315990Y-63836589D01*
X112153475Y-63593368D01*
X112021620Y-63461513D01*
X112094180Y-63439502D01*
X112204494Y-63380537D01*
X112301185Y-63301185D01*
X112380537Y-63204494D01*
X112439502Y-63094180D01*
X112475812Y-62974482D01*
X112488072Y-62850000D01*
X112488072Y-61150000D01*
X112475812Y-61025518D01*
X112439502Y-60905820D01*
X112380537Y-60795506D01*
X112301185Y-60698815D01*
X112204494Y-60619463D01*
X112094180Y-60560498D01*
X111974482Y-60524188D01*
X111850000Y-60511928D01*
X110150000Y-60511928D01*
X110025518Y-60524188D01*
X109905820Y-60560498D01*
X109795506Y-60619463D01*
X109698815Y-60698815D01*
X109619463Y-60795506D01*
X109560498Y-60905820D01*
X109537502Y-60981626D01*
X109341355Y-60804822D01*
X109091252Y-60655843D01*
X108816891Y-60558519D01*
X108587000Y-60679186D01*
X108587000Y-61873000D01*
X108607000Y-61873000D01*
X108607000Y-62127000D01*
X108587000Y-62127000D01*
X108587000Y-62147000D01*
X108333000Y-62147000D01*
X108333000Y-62127000D01*
X107139845Y-62127000D01*
X107018524Y-62356890D01*
X107063175Y-62504099D01*
X107188359Y-62766920D01*
X107362412Y-63000269D01*
X107578645Y-63195178D01*
X107695534Y-63264805D01*
X107513368Y-63386525D01*
X107306525Y-63593368D01*
X107144010Y-63836589D01*
X107032068Y-64106842D01*
X106975000Y-64393740D01*
X100660000Y-64393740D01*
X100660000Y-61643110D01*
X107018524Y-61643110D01*
X107139845Y-61873000D01*
X108333000Y-61873000D01*
X108333000Y-60679186D01*
X108103109Y-60558519D01*
X107828748Y-60655843D01*
X107578645Y-60804822D01*
X107362412Y-60999731D01*
X107188359Y-61233080D01*
X107063175Y-61495901D01*
X107018524Y-61643110D01*
X100660000Y-61643110D01*
X100660000Y-58812835D01*
X114715000Y-58812835D01*
X114715000Y-58987165D01*
X114749010Y-59158145D01*
X114815723Y-59319205D01*
X114912576Y-59464155D01*
X115035845Y-59587424D01*
X115180795Y-59684277D01*
X115341855Y-59750990D01*
X115512835Y-59785000D01*
X115687165Y-59785000D01*
X115858145Y-59750990D01*
X116019205Y-59684277D01*
X116122885Y-59615000D01*
X123934461Y-59615000D01*
X123949010Y-59688145D01*
X124015723Y-59849205D01*
X124112576Y-59994155D01*
X124235845Y-60117424D01*
X124380795Y-60214277D01*
X124541855Y-60280990D01*
X124712835Y-60315000D01*
X124789129Y-60315000D01*
X124815723Y-60379205D01*
X124912576Y-60524155D01*
X124997305Y-60608884D01*
X124980795Y-60615723D01*
X124835845Y-60712576D01*
X124712576Y-60835845D01*
X124615723Y-60980795D01*
X124549010Y-61141855D01*
X124515000Y-61312835D01*
X124515000Y-61487165D01*
X124549010Y-61658145D01*
X124615723Y-61819205D01*
X124712576Y-61964155D01*
X124835845Y-62087424D01*
X124980795Y-62184277D01*
X125141855Y-62250990D01*
X125312835Y-62285000D01*
X125487165Y-62285000D01*
X125658145Y-62250990D01*
X125819205Y-62184277D01*
X125922885Y-62115000D01*
X176254967Y-62115000D01*
X176341855Y-62150990D01*
X176512835Y-62185000D01*
X176687165Y-62185000D01*
X176858145Y-62150990D01*
X177019205Y-62084277D01*
X177164155Y-61987424D01*
X177287424Y-61864155D01*
X177384277Y-61719205D01*
X177450990Y-61558145D01*
X177485000Y-61387165D01*
X177485000Y-61212835D01*
X177450990Y-61041855D01*
X177384277Y-60880795D01*
X177287424Y-60735845D01*
X177164155Y-60612576D01*
X177019205Y-60515723D01*
X176858145Y-60449010D01*
X176687165Y-60415000D01*
X176512835Y-60415000D01*
X176341855Y-60449010D01*
X176180795Y-60515723D01*
X176035845Y-60612576D01*
X175963421Y-60685000D01*
X149776313Y-60685000D01*
X149844277Y-60583285D01*
X149910990Y-60422225D01*
X149945000Y-60251245D01*
X149945000Y-60076915D01*
X149910990Y-59905935D01*
X149844277Y-59744875D01*
X149747424Y-59599925D01*
X149624155Y-59476656D01*
X149585000Y-59450493D01*
X149585000Y-59412835D01*
X163515000Y-59412835D01*
X163515000Y-59587165D01*
X163549010Y-59758145D01*
X163615723Y-59919205D01*
X163712576Y-60064155D01*
X163835845Y-60187424D01*
X163980795Y-60284277D01*
X164141855Y-60350990D01*
X164312835Y-60385000D01*
X164487165Y-60385000D01*
X164658145Y-60350990D01*
X164819205Y-60284277D01*
X164922885Y-60215000D01*
X177276251Y-60215000D01*
X177418100Y-60309781D01*
X177579160Y-60376494D01*
X177750140Y-60410504D01*
X177924470Y-60410504D01*
X178095450Y-60376494D01*
X178256510Y-60309781D01*
X178401460Y-60212928D01*
X178524729Y-60089659D01*
X178621582Y-59944709D01*
X178633752Y-59915327D01*
X178735845Y-60017420D01*
X178880795Y-60114273D01*
X179041855Y-60180986D01*
X179212835Y-60214996D01*
X179387165Y-60214996D01*
X179558145Y-60180986D01*
X179719205Y-60114273D01*
X179822885Y-60044996D01*
X190363171Y-60044996D01*
X190405845Y-60087670D01*
X190550795Y-60184523D01*
X190711855Y-60251236D01*
X190882835Y-60285246D01*
X191057165Y-60285246D01*
X191228145Y-60251236D01*
X191389205Y-60184523D01*
X191534155Y-60087670D01*
X191657424Y-59964401D01*
X191754277Y-59819451D01*
X191820990Y-59658391D01*
X191828237Y-59621957D01*
X191919205Y-59584277D01*
X192064155Y-59487424D01*
X192187424Y-59364155D01*
X192284277Y-59219205D01*
X192350990Y-59058145D01*
X192385000Y-58887165D01*
X192385000Y-58712835D01*
X192350990Y-58541855D01*
X192284277Y-58380795D01*
X192187424Y-58235845D01*
X192064155Y-58112576D01*
X191919205Y-58015723D01*
X191758145Y-57949010D01*
X191587165Y-57915000D01*
X191412835Y-57915000D01*
X191241855Y-57949010D01*
X191080795Y-58015723D01*
X190977121Y-58084996D01*
X179022885Y-58084996D01*
X178919205Y-58015719D01*
X178758145Y-57949006D01*
X178587165Y-57914996D01*
X178412835Y-57914996D01*
X178241855Y-57949006D01*
X178080795Y-58015719D01*
X177935845Y-58112572D01*
X177812576Y-58235841D01*
X177715723Y-58380791D01*
X177649010Y-58541851D01*
X177624412Y-58665513D01*
X177579160Y-58674514D01*
X177418100Y-58741227D01*
X177352589Y-58785000D01*
X164922885Y-58785000D01*
X164819205Y-58715723D01*
X164658145Y-58649010D01*
X164487165Y-58615000D01*
X164312835Y-58615000D01*
X164141855Y-58649010D01*
X163980795Y-58715723D01*
X163835845Y-58812576D01*
X163712576Y-58935845D01*
X163615723Y-59080795D01*
X163549010Y-59241855D01*
X163515000Y-59412835D01*
X149585000Y-59412835D01*
X149550990Y-59241855D01*
X149484277Y-59080795D01*
X149387424Y-58935845D01*
X149264155Y-58812576D01*
X149119205Y-58715723D01*
X148958145Y-58649010D01*
X148835844Y-58624683D01*
X148800420Y-58589259D01*
X148778026Y-58561972D01*
X148669153Y-58472622D01*
X148544941Y-58406229D01*
X148410163Y-58365345D01*
X148305119Y-58354999D01*
X148305109Y-58354999D01*
X148269999Y-58351541D01*
X148234889Y-58354999D01*
X145315000Y-58354999D01*
X145315000Y-58312835D01*
X145280990Y-58141855D01*
X145214277Y-57980795D01*
X145117424Y-57835845D01*
X144994155Y-57712576D01*
X144878055Y-57635000D01*
X145603252Y-57635000D01*
X145641855Y-57650990D01*
X145812835Y-57685000D01*
X145987165Y-57685000D01*
X146158145Y-57650990D01*
X146196748Y-57635000D01*
X172152705Y-57635000D01*
X172298102Y-57695226D01*
X172498061Y-57735000D01*
X172701939Y-57735000D01*
X172901898Y-57695226D01*
X173090256Y-57617205D01*
X173259774Y-57503937D01*
X173403937Y-57359774D01*
X173517205Y-57190256D01*
X173595226Y-57001898D01*
X173635000Y-56801939D01*
X173635000Y-56598061D01*
X173595226Y-56398102D01*
X173517205Y-56209744D01*
X173403937Y-56040226D01*
X173259774Y-55896063D01*
X173090256Y-55782795D01*
X172901898Y-55704774D01*
X172701939Y-55665000D01*
X172498061Y-55665000D01*
X172298102Y-55704774D01*
X172109744Y-55782795D01*
X171940226Y-55896063D01*
X171871289Y-55965000D01*
X146196748Y-55965000D01*
X146158145Y-55949010D01*
X145987165Y-55915000D01*
X145812835Y-55915000D01*
X145641855Y-55949010D01*
X145603252Y-55965000D01*
X144653678Y-55965000D01*
X144684277Y-55919205D01*
X144750990Y-55758145D01*
X144785000Y-55587165D01*
X144785000Y-55486019D01*
X144941855Y-55550990D01*
X145112835Y-55585000D01*
X145287165Y-55585000D01*
X145458145Y-55550990D01*
X145619205Y-55484277D01*
X145764155Y-55387424D01*
X145887424Y-55264155D01*
X145984277Y-55119205D01*
X146050990Y-54958145D01*
X146085000Y-54787165D01*
X146085000Y-54779872D01*
X192765000Y-54779872D01*
X192765000Y-55220128D01*
X192850890Y-55651925D01*
X193019369Y-56058669D01*
X193263962Y-56424729D01*
X193575271Y-56736038D01*
X193941331Y-56980631D01*
X194348075Y-57149110D01*
X194779872Y-57235000D01*
X195220128Y-57235000D01*
X195651925Y-57149110D01*
X196058669Y-56980631D01*
X196424729Y-56736038D01*
X196736038Y-56424729D01*
X196980631Y-56058669D01*
X197149110Y-55651925D01*
X197235000Y-55220128D01*
X197235000Y-54779872D01*
X197149110Y-54348075D01*
X196980631Y-53941331D01*
X196736038Y-53575271D01*
X196424729Y-53263962D01*
X196058669Y-53019369D01*
X195651925Y-52850890D01*
X195220128Y-52765000D01*
X194779872Y-52765000D01*
X194348075Y-52850890D01*
X193941331Y-53019369D01*
X193575271Y-53263962D01*
X193263962Y-53575271D01*
X193019369Y-53941331D01*
X192850890Y-54348075D01*
X192765000Y-54779872D01*
X146085000Y-54779872D01*
X146085000Y-54612835D01*
X146050990Y-54441855D01*
X145984277Y-54280795D01*
X145887424Y-54135845D01*
X145764155Y-54012576D01*
X145619205Y-53915723D01*
X145458145Y-53849010D01*
X145287165Y-53815000D01*
X145112835Y-53815000D01*
X144941855Y-53849010D01*
X144780795Y-53915723D01*
X144677115Y-53985000D01*
X141422885Y-53985000D01*
X141319205Y-53915723D01*
X141158145Y-53849010D01*
X140987165Y-53815000D01*
X140812835Y-53815000D01*
X140641855Y-53849010D01*
X140480795Y-53915723D01*
X140335845Y-54012576D01*
X140212576Y-54135845D01*
X140115723Y-54280795D01*
X140049010Y-54441855D01*
X140015000Y-54612835D01*
X140015000Y-54785000D01*
X139522888Y-54785000D01*
X139419208Y-54715723D01*
X139258148Y-54649010D01*
X139087168Y-54615000D01*
X138912838Y-54615000D01*
X138741858Y-54649010D01*
X138650002Y-54687058D01*
X138558145Y-54649010D01*
X138387165Y-54615000D01*
X138212835Y-54615000D01*
X138041855Y-54649010D01*
X137880795Y-54715723D01*
X137777115Y-54785000D01*
X134072885Y-54785000D01*
X133969205Y-54715723D01*
X133808145Y-54649010D01*
X133637165Y-54615000D01*
X133462835Y-54615000D01*
X133291855Y-54649010D01*
X133130795Y-54715723D01*
X132985845Y-54812576D01*
X132862576Y-54935845D01*
X132765723Y-55080795D01*
X132747253Y-55125385D01*
X132687424Y-55035845D01*
X132564155Y-54912576D01*
X132419205Y-54815723D01*
X132258145Y-54749010D01*
X132087165Y-54715000D01*
X131912835Y-54715000D01*
X131741855Y-54749010D01*
X131580795Y-54815723D01*
X131477115Y-54885000D01*
X126736579Y-54885000D01*
X126664155Y-54812576D01*
X126519205Y-54715723D01*
X126358145Y-54649010D01*
X126187165Y-54615000D01*
X126012835Y-54615000D01*
X125841855Y-54649010D01*
X125680795Y-54715723D01*
X125535845Y-54812576D01*
X125412576Y-54935845D01*
X125315723Y-55080795D01*
X125249010Y-55241855D01*
X125215000Y-55412835D01*
X125215000Y-55587165D01*
X125249010Y-55758145D01*
X125293271Y-55865000D01*
X120813285Y-55865000D01*
X120690256Y-55782795D01*
X120501898Y-55704774D01*
X120301939Y-55665000D01*
X120098061Y-55665000D01*
X119898102Y-55704774D01*
X119709744Y-55782795D01*
X119540226Y-55896063D01*
X119396063Y-56040226D01*
X119282795Y-56209744D01*
X119204774Y-56398102D01*
X119165000Y-56598061D01*
X119165000Y-56801939D01*
X119204774Y-57001898D01*
X119282795Y-57190256D01*
X119396063Y-57359774D01*
X119540226Y-57503937D01*
X119661546Y-57585000D01*
X118422885Y-57585000D01*
X118319205Y-57515723D01*
X118158145Y-57449010D01*
X117987165Y-57415000D01*
X117812835Y-57415000D01*
X117641855Y-57449010D01*
X117480795Y-57515723D01*
X117335845Y-57612576D01*
X117212576Y-57735845D01*
X117115723Y-57880795D01*
X117049010Y-58041855D01*
X117020537Y-58185000D01*
X116122885Y-58185000D01*
X116019205Y-58115723D01*
X115858145Y-58049010D01*
X115687165Y-58015000D01*
X115512835Y-58015000D01*
X115341855Y-58049010D01*
X115180795Y-58115723D01*
X115035845Y-58212576D01*
X114912576Y-58335845D01*
X114815723Y-58480795D01*
X114749010Y-58641855D01*
X114715000Y-58812835D01*
X100660000Y-58812835D01*
X100660000Y-54779872D01*
X102765000Y-54779872D01*
X102765000Y-55220128D01*
X102850890Y-55651925D01*
X103019369Y-56058669D01*
X103263962Y-56424729D01*
X103575271Y-56736038D01*
X103941331Y-56980631D01*
X104348075Y-57149110D01*
X104779872Y-57235000D01*
X105220128Y-57235000D01*
X105651925Y-57149110D01*
X106058669Y-56980631D01*
X106424729Y-56736038D01*
X106736038Y-56424729D01*
X106980631Y-56058669D01*
X107149110Y-55651925D01*
X107235000Y-55220128D01*
X107235000Y-54779872D01*
X107149110Y-54348075D01*
X106980631Y-53941331D01*
X106736038Y-53575271D01*
X106723601Y-53562834D01*
X125415000Y-53562834D01*
X125415000Y-53737164D01*
X125449010Y-53908144D01*
X125515723Y-54069204D01*
X125612576Y-54214154D01*
X125735845Y-54337423D01*
X125880795Y-54434276D01*
X126041855Y-54500989D01*
X126212835Y-54534999D01*
X126387165Y-54534999D01*
X126558145Y-54500989D01*
X126719205Y-54434276D01*
X126822885Y-54364999D01*
X129313420Y-54364999D01*
X129335845Y-54387424D01*
X129480795Y-54484277D01*
X129641855Y-54550990D01*
X129812835Y-54585000D01*
X129987165Y-54585000D01*
X130158145Y-54550990D01*
X130319205Y-54484277D01*
X130464155Y-54387424D01*
X130587424Y-54264155D01*
X130684277Y-54119205D01*
X130750990Y-53958145D01*
X130785000Y-53787165D01*
X130785000Y-53612835D01*
X130750990Y-53441855D01*
X130684277Y-53280795D01*
X130587424Y-53135845D01*
X130464155Y-53012576D01*
X130319205Y-52915723D01*
X130158145Y-52849010D01*
X129987165Y-52815000D01*
X129812835Y-52815000D01*
X129641855Y-52849010D01*
X129480795Y-52915723D01*
X129451947Y-52934999D01*
X126822885Y-52934999D01*
X126719205Y-52865722D01*
X126558145Y-52799009D01*
X126387165Y-52764999D01*
X126212835Y-52764999D01*
X126041855Y-52799009D01*
X125880795Y-52865722D01*
X125735845Y-52962575D01*
X125612576Y-53085844D01*
X125515723Y-53230794D01*
X125449010Y-53391854D01*
X125415000Y-53562834D01*
X106723601Y-53562834D01*
X106424729Y-53263962D01*
X106058669Y-53019369D01*
X105651925Y-52850890D01*
X105220128Y-52765000D01*
X104779872Y-52765000D01*
X104348075Y-52850890D01*
X103941331Y-53019369D01*
X103575271Y-53263962D01*
X103263962Y-53575271D01*
X103019369Y-53941331D01*
X102850890Y-54348075D01*
X102765000Y-54779872D01*
X100660000Y-54779872D01*
X100660000Y-50660000D01*
X199340000Y-50660000D01*
X199340001Y-149340000D01*
G37*
X199340001Y-149340000D02*
X100660000Y-149340000D01*
X100660000Y-144779872D01*
X102765000Y-144779872D01*
X102765000Y-145220128D01*
X102850890Y-145651925D01*
X103019369Y-146058669D01*
X103263962Y-146424729D01*
X103575271Y-146736038D01*
X103941331Y-146980631D01*
X104348075Y-147149110D01*
X104779872Y-147235000D01*
X105220128Y-147235000D01*
X105651925Y-147149110D01*
X106058669Y-146980631D01*
X106424729Y-146736038D01*
X106736038Y-146424729D01*
X106980631Y-146058669D01*
X107149110Y-145651925D01*
X107235000Y-145220128D01*
X107235000Y-144779872D01*
X192765000Y-144779872D01*
X192765000Y-145220128D01*
X192850890Y-145651925D01*
X193019369Y-146058669D01*
X193263962Y-146424729D01*
X193575271Y-146736038D01*
X193941331Y-146980631D01*
X194348075Y-147149110D01*
X194779872Y-147235000D01*
X195220128Y-147235000D01*
X195651925Y-147149110D01*
X196058669Y-146980631D01*
X196424729Y-146736038D01*
X196736038Y-146424729D01*
X196980631Y-146058669D01*
X197149110Y-145651925D01*
X197235000Y-145220128D01*
X197235000Y-144779872D01*
X197149110Y-144348075D01*
X196980631Y-143941331D01*
X196736038Y-143575271D01*
X196424729Y-143263962D01*
X196058669Y-143019369D01*
X195651925Y-142850890D01*
X195220128Y-142765000D01*
X194779872Y-142765000D01*
X194348075Y-142850890D01*
X193941331Y-143019369D01*
X193575271Y-143263962D01*
X193263962Y-143575271D01*
X193019369Y-143941331D01*
X192850890Y-144348075D01*
X192765000Y-144779872D01*
X107235000Y-144779872D01*
X107149110Y-144348075D01*
X106980631Y-143941331D01*
X106736038Y-143575271D01*
X106424729Y-143263962D01*
X106058669Y-143019369D01*
X105651925Y-142850890D01*
X105220128Y-142765000D01*
X104779872Y-142765000D01*
X104348075Y-142850890D01*
X103941331Y-143019369D01*
X103575271Y-143263962D01*
X103263962Y-143575271D01*
X103019369Y-143941331D01*
X102850890Y-144348075D01*
X102765000Y-144779872D01*
X100660000Y-144779872D01*
X100660000Y-129712835D01*
X147645000Y-129712835D01*
X147645000Y-129887165D01*
X147679010Y-130058145D01*
X147745723Y-130219205D01*
X147842576Y-130364155D01*
X147965845Y-130487424D01*
X148110795Y-130584277D01*
X148271855Y-130650990D01*
X148442835Y-130685000D01*
X148617165Y-130685000D01*
X148788145Y-130650990D01*
X148875033Y-130615000D01*
X154477115Y-130615000D01*
X154580795Y-130684277D01*
X154741855Y-130750990D01*
X154912835Y-130785000D01*
X155087165Y-130785000D01*
X155258145Y-130750990D01*
X155419205Y-130684277D01*
X155564155Y-130587424D01*
X155687424Y-130464155D01*
X155784277Y-130319205D01*
X155850990Y-130158145D01*
X155885000Y-129987165D01*
X155885000Y-129812835D01*
X155850990Y-129641855D01*
X155784277Y-129480795D01*
X155687424Y-129335845D01*
X155564155Y-129212576D01*
X155419205Y-129115723D01*
X155258145Y-129049010D01*
X155087165Y-129015000D01*
X154912835Y-129015000D01*
X154741855Y-129049010D01*
X154580795Y-129115723D01*
X154477115Y-129185000D01*
X149166579Y-129185000D01*
X149094155Y-129112576D01*
X148949205Y-129015723D01*
X148788145Y-128949010D01*
X148617165Y-128915000D01*
X148442835Y-128915000D01*
X148271855Y-128949010D01*
X148110795Y-129015723D01*
X147965845Y-129112576D01*
X147842576Y-129235845D01*
X147745723Y-129380795D01*
X147679010Y-129541855D01*
X147645000Y-129712835D01*
X100660000Y-129712835D01*
X100660000Y-64393740D01*
X106975000Y-64393740D01*
X106975000Y-64686260D01*
X107032068Y-64973158D01*
X107144010Y-65243411D01*
X107306525Y-65486632D01*
X107513368Y-65693475D01*
X107687760Y-65810000D01*
X107513368Y-65926525D01*
X107306525Y-66133368D01*
X107144010Y-66376589D01*
X107032068Y-66646842D01*
X106975000Y-66933740D01*
X106975000Y-67226260D01*
X107032068Y-67513158D01*
X107144010Y-67783411D01*
X107306525Y-68026632D01*
X107513368Y-68233475D01*
X107687760Y-68350000D01*
X107513368Y-68466525D01*
X107306525Y-68673368D01*
X107144010Y-68916589D01*
X107032068Y-69186842D01*
X106975000Y-69473740D01*
X106975000Y-69766260D01*
X107032068Y-70053158D01*
X107144010Y-70323411D01*
X107306525Y-70566632D01*
X107513368Y-70773475D01*
X107687760Y-70890000D01*
X107513368Y-71006525D01*
X107306525Y-71213368D01*
X107144010Y-71456589D01*
X107032068Y-71726842D01*
X106975000Y-72013740D01*
X106975000Y-72306260D01*
X107032068Y-72593158D01*
X107144010Y-72863411D01*
X107306525Y-73106632D01*
X107513368Y-73313475D01*
X107687760Y-73430000D01*
X107513368Y-73546525D01*
X107306525Y-73753368D01*
X107144010Y-73996589D01*
X107032068Y-74266842D01*
X106975000Y-74553740D01*
X106975000Y-74846260D01*
X107032068Y-75133158D01*
X107144010Y-75403411D01*
X107306525Y-75646632D01*
X107513368Y-75853475D01*
X107687760Y-75970000D01*
X107513368Y-76086525D01*
X107306525Y-76293368D01*
X107144010Y-76536589D01*
X107032068Y-76806842D01*
X106975000Y-77093740D01*
X106975000Y-77386260D01*
X107032068Y-77673158D01*
X107144010Y-77943411D01*
X107306525Y-78186632D01*
X107513368Y-78393475D01*
X107687760Y-78510000D01*
X107513368Y-78626525D01*
X107306525Y-78833368D01*
X107144010Y-79076589D01*
X107032068Y-79346842D01*
X106975000Y-79633740D01*
X106975000Y-79926260D01*
X107032068Y-80213158D01*
X107144010Y-80483411D01*
X107306525Y-80726632D01*
X107513368Y-80933475D01*
X107687760Y-81050000D01*
X107513368Y-81166525D01*
X107306525Y-81373368D01*
X107144010Y-81616589D01*
X107032068Y-81886842D01*
X106975000Y-82173740D01*
X106975000Y-82466260D01*
X107032068Y-82753158D01*
X107144010Y-83023411D01*
X107306525Y-83266632D01*
X107513368Y-83473475D01*
X107687760Y-83590000D01*
X107513368Y-83706525D01*
X107306525Y-83913368D01*
X107144010Y-84156589D01*
X107032068Y-84426842D01*
X106975000Y-84713740D01*
X106975000Y-85006260D01*
X107032068Y-85293158D01*
X107144010Y-85563411D01*
X107306525Y-85806632D01*
X107513368Y-86013475D01*
X107687760Y-86130000D01*
X107513368Y-86246525D01*
X107306525Y-86453368D01*
X107144010Y-86696589D01*
X107032068Y-86966842D01*
X106975000Y-87253740D01*
X106975000Y-87546260D01*
X107032068Y-87833158D01*
X107144010Y-88103411D01*
X107306525Y-88346632D01*
X107513368Y-88553475D01*
X107687760Y-88670000D01*
X107513368Y-88786525D01*
X107306525Y-88993368D01*
X107144010Y-89236589D01*
X107032068Y-89506842D01*
X106975000Y-89793740D01*
X106975000Y-90086260D01*
X107032068Y-90373158D01*
X107144010Y-90643411D01*
X107306525Y-90886632D01*
X107513368Y-91093475D01*
X107687760Y-91210000D01*
X107513368Y-91326525D01*
X107306525Y-91533368D01*
X107144010Y-91776589D01*
X107032068Y-92046842D01*
X106975000Y-92333740D01*
X106975000Y-92626260D01*
X107032068Y-92913158D01*
X107144010Y-93183411D01*
X107306525Y-93426632D01*
X107513368Y-93633475D01*
X107687760Y-93750000D01*
X107513368Y-93866525D01*
X107306525Y-94073368D01*
X107144010Y-94316589D01*
X107032068Y-94586842D01*
X106975000Y-94873740D01*
X106975000Y-95166260D01*
X107032068Y-95453158D01*
X107144010Y-95723411D01*
X107306525Y-95966632D01*
X107513368Y-96173475D01*
X107687760Y-96290000D01*
X107513368Y-96406525D01*
X107306525Y-96613368D01*
X107144010Y-96856589D01*
X107032068Y-97126842D01*
X106975000Y-97413740D01*
X106975000Y-97706260D01*
X107032068Y-97993158D01*
X107144010Y-98263411D01*
X107306525Y-98506632D01*
X107513368Y-98713475D01*
X107687760Y-98830000D01*
X107513368Y-98946525D01*
X107306525Y-99153368D01*
X107144010Y-99396589D01*
X107032068Y-99666842D01*
X106975000Y-99953740D01*
X106975000Y-100246260D01*
X107032068Y-100533158D01*
X107144010Y-100803411D01*
X107306525Y-101046632D01*
X107513368Y-101253475D01*
X107687760Y-101370000D01*
X107513368Y-101486525D01*
X107306525Y-101693368D01*
X107144010Y-101936589D01*
X107032068Y-102206842D01*
X106975000Y-102493740D01*
X106975000Y-102786260D01*
X107032068Y-103073158D01*
X107144010Y-103343411D01*
X107306525Y-103586632D01*
X107513368Y-103793475D01*
X107687760Y-103910000D01*
X107513368Y-104026525D01*
X107306525Y-104233368D01*
X107144010Y-104476589D01*
X107032068Y-104746842D01*
X106975000Y-105033740D01*
X106975000Y-105326260D01*
X107032068Y-105613158D01*
X107144010Y-105883411D01*
X107306525Y-106126632D01*
X107513368Y-106333475D01*
X107687760Y-106450000D01*
X107513368Y-106566525D01*
X107306525Y-106773368D01*
X107144010Y-107016589D01*
X107032068Y-107286842D01*
X106975000Y-107573740D01*
X106975000Y-107866260D01*
X107032068Y-108153158D01*
X107144010Y-108423411D01*
X107306525Y-108666632D01*
X107513368Y-108873475D01*
X107687760Y-108990000D01*
X107513368Y-109106525D01*
X107306525Y-109313368D01*
X107144010Y-109556589D01*
X107032068Y-109826842D01*
X106975000Y-110113740D01*
X106975000Y-110406260D01*
X107032068Y-110693158D01*
X107144010Y-110963411D01*
X107306525Y-111206632D01*
X107513368Y-111413475D01*
X107756589Y-111575990D01*
X108026842Y-111687932D01*
X108313740Y-111745000D01*
X108606260Y-111745000D01*
X108893158Y-111687932D01*
X109163411Y-111575990D01*
X109406632Y-111413475D01*
X109613475Y-111206632D01*
X109731100Y-111030594D01*
X109902412Y-111260269D01*
X110118645Y-111455178D01*
X110368748Y-111604157D01*
X110643109Y-111701481D01*
X110873000Y-111580814D01*
X110873000Y-110387000D01*
X111127000Y-110387000D01*
X111127000Y-111580814D01*
X111356891Y-111701481D01*
X111631252Y-111604157D01*
X111881355Y-111455178D01*
X112097588Y-111260269D01*
X112271641Y-111026920D01*
X112396825Y-110764099D01*
X112441476Y-110616890D01*
X112320155Y-110387000D01*
X111127000Y-110387000D01*
X110873000Y-110387000D01*
X110853000Y-110387000D01*
X110853000Y-110133000D01*
X110873000Y-110133000D01*
X110873000Y-110113000D01*
X111127000Y-110113000D01*
X111127000Y-110133000D01*
X112320155Y-110133000D01*
X112382428Y-110015000D01*
X114477115Y-110015000D01*
X114580795Y-110084277D01*
X114741855Y-110150990D01*
X114912835Y-110185000D01*
X115087165Y-110185000D01*
X115258145Y-110150990D01*
X115419205Y-110084277D01*
X115522885Y-110015000D01*
X118046101Y-110015000D01*
X117982795Y-110109744D01*
X117904774Y-110298102D01*
X117865000Y-110498061D01*
X117865000Y-110701939D01*
X117904774Y-110901898D01*
X117982795Y-111090256D01*
X118096063Y-111259774D01*
X118240226Y-111403937D01*
X118409744Y-111517205D01*
X118598102Y-111595226D01*
X118798061Y-111635000D01*
X119001939Y-111635000D01*
X119201898Y-111595226D01*
X119390256Y-111517205D01*
X119513285Y-111435000D01*
X133671289Y-111435000D01*
X133740226Y-111503937D01*
X133909744Y-111617205D01*
X134000989Y-111655000D01*
X126222885Y-111655000D01*
X126119205Y-111585723D01*
X125958145Y-111519010D01*
X125787165Y-111485000D01*
X125612835Y-111485000D01*
X125441855Y-111519010D01*
X125280795Y-111585723D01*
X125135845Y-111682576D01*
X125012576Y-111805845D01*
X124939641Y-111915000D01*
X124812835Y-111915000D01*
X124641855Y-111949010D01*
X124480795Y-112015723D01*
X124335845Y-112112576D01*
X124212576Y-112235845D01*
X124115723Y-112380795D01*
X124049010Y-112541855D01*
X124020537Y-112685000D01*
X122922885Y-112685000D01*
X122819205Y-112615723D01*
X122658145Y-112549010D01*
X122487165Y-112515000D01*
X122312835Y-112515000D01*
X122141855Y-112549010D01*
X121980795Y-112615723D01*
X121877115Y-112685000D01*
X117122885Y-112685000D01*
X117019205Y-112615723D01*
X116858145Y-112549010D01*
X116687165Y-112515000D01*
X116512835Y-112515000D01*
X116341855Y-112549010D01*
X116180795Y-112615723D01*
X116035845Y-112712576D01*
X115912576Y-112835845D01*
X115815723Y-112980795D01*
X115749010Y-113141855D01*
X115745065Y-113161688D01*
X115743507Y-113162333D01*
X115598557Y-113259186D01*
X115475288Y-113382455D01*
X115382721Y-113520990D01*
X115241855Y-113549010D01*
X115080795Y-113615723D01*
X114935845Y-113712576D01*
X114812576Y-113835845D01*
X114715723Y-113980795D01*
X114649010Y-114141855D01*
X114615000Y-114312835D01*
X114615000Y-114487165D01*
X114649010Y-114658145D01*
X114715723Y-114819205D01*
X114812576Y-114964155D01*
X114935845Y-115087424D01*
X115080795Y-115184277D01*
X115241855Y-115250990D01*
X115412835Y-115285000D01*
X115495045Y-115285000D01*
X115528467Y-115295138D01*
X115559835Y-115304654D01*
X115571948Y-115305847D01*
X115664880Y-115315000D01*
X115664888Y-115315000D01*
X115700000Y-115318458D01*
X115735112Y-115315000D01*
X121277115Y-115315000D01*
X121380795Y-115384277D01*
X121541855Y-115450990D01*
X121712835Y-115485000D01*
X121887165Y-115485000D01*
X122058145Y-115450990D01*
X122219205Y-115384277D01*
X122322885Y-115315000D01*
X122834461Y-115315000D01*
X122849010Y-115388145D01*
X122915723Y-115549205D01*
X123012576Y-115694155D01*
X123135845Y-115817424D01*
X123280795Y-115914277D01*
X123441855Y-115980990D01*
X123564154Y-116005317D01*
X123699589Y-116140752D01*
X123721974Y-116168028D01*
X123749249Y-116190412D01*
X123749253Y-116190416D01*
X123813067Y-116242786D01*
X123830847Y-116257378D01*
X123955059Y-116323771D01*
X124048952Y-116352253D01*
X124089836Y-116364655D01*
X124101949Y-116365848D01*
X124194881Y-116375001D01*
X124194889Y-116375001D01*
X124230001Y-116378459D01*
X124265113Y-116375001D01*
X144743603Y-116375001D01*
X144640657Y-116406229D01*
X144516445Y-116472622D01*
X144407572Y-116561972D01*
X144385178Y-116589259D01*
X144343838Y-116630599D01*
X124689513Y-116630599D01*
X124654401Y-116627141D01*
X124619289Y-116630599D01*
X124619281Y-116630599D01*
X124526349Y-116639752D01*
X124514236Y-116640945D01*
X124473352Y-116653347D01*
X124379459Y-116681829D01*
X124255247Y-116748222D01*
X124161415Y-116825228D01*
X124041855Y-116849010D01*
X123880795Y-116915723D01*
X123735845Y-117012576D01*
X123612576Y-117135845D01*
X123515723Y-117280795D01*
X123449010Y-117441855D01*
X123415000Y-117612835D01*
X123415000Y-117787165D01*
X123449010Y-117958145D01*
X123515723Y-118119205D01*
X123612576Y-118264155D01*
X123735845Y-118387424D01*
X123880795Y-118484277D01*
X124041855Y-118550990D01*
X124212835Y-118585000D01*
X124387165Y-118585000D01*
X124558145Y-118550990D01*
X124719205Y-118484277D01*
X124864155Y-118387424D01*
X124987424Y-118264155D01*
X125084277Y-118119205D01*
X125108552Y-118060599D01*
X132487822Y-118060599D01*
X132442576Y-118105845D01*
X132345723Y-118250795D01*
X132279010Y-118411855D01*
X132264461Y-118485000D01*
X131422885Y-118485000D01*
X131319205Y-118415723D01*
X131158145Y-118349010D01*
X130987165Y-118315000D01*
X130812835Y-118315000D01*
X130641855Y-118349010D01*
X130480795Y-118415723D01*
X130335845Y-118512576D01*
X130212576Y-118635845D01*
X130115723Y-118780795D01*
X130049010Y-118941855D01*
X130015000Y-119112835D01*
X130015000Y-119285000D01*
X124522885Y-119285000D01*
X124419205Y-119215723D01*
X124258145Y-119149010D01*
X124087165Y-119115000D01*
X123912835Y-119115000D01*
X123741855Y-119149010D01*
X123580795Y-119215723D01*
X123435845Y-119312576D01*
X123312576Y-119435845D01*
X123215723Y-119580795D01*
X123149010Y-119741855D01*
X123115000Y-119912835D01*
X123115000Y-120087165D01*
X123149010Y-120258145D01*
X123215723Y-120419205D01*
X123312576Y-120564155D01*
X123435845Y-120687424D01*
X123580795Y-120784277D01*
X123741855Y-120850990D01*
X123912835Y-120885000D01*
X124087165Y-120885000D01*
X124258145Y-120850990D01*
X124419205Y-120784277D01*
X124522885Y-120715000D01*
X125433421Y-120715000D01*
X125312576Y-120835845D01*
X125215723Y-120980795D01*
X125149010Y-121141855D01*
X125115000Y-121312835D01*
X125115000Y-121487165D01*
X125149010Y-121658145D01*
X125215723Y-121819205D01*
X125259686Y-121885000D01*
X110322885Y-121885000D01*
X110219205Y-121815723D01*
X110058145Y-121749010D01*
X109887165Y-121715000D01*
X109712835Y-121715000D01*
X109541855Y-121749010D01*
X109380795Y-121815723D01*
X109235845Y-121912576D01*
X109112576Y-122035845D01*
X109015723Y-122180795D01*
X108949010Y-122341855D01*
X108915000Y-122512835D01*
X108915000Y-122687165D01*
X108949010Y-122858145D01*
X109015723Y-123019205D01*
X109112576Y-123164155D01*
X109235845Y-123287424D01*
X109380795Y-123384277D01*
X109541855Y-123450990D01*
X109712835Y-123485000D01*
X109887165Y-123485000D01*
X110058145Y-123450990D01*
X110219205Y-123384277D01*
X110322885Y-123315000D01*
X121582540Y-123315000D01*
X121580795Y-123315723D01*
X121435845Y-123412576D01*
X121312576Y-123535845D01*
X121215723Y-123680795D01*
X121149010Y-123841855D01*
X121115000Y-124012835D01*
X121115000Y-124187165D01*
X121149010Y-124358145D01*
X121215723Y-124519205D01*
X121312576Y-124664155D01*
X121383420Y-124734999D01*
X118753677Y-124734999D01*
X118687424Y-124635845D01*
X118564155Y-124512576D01*
X118419205Y-124415723D01*
X118258145Y-124349010D01*
X118087165Y-124315000D01*
X117912835Y-124315000D01*
X117741855Y-124349010D01*
X117580795Y-124415723D01*
X117435845Y-124512576D01*
X117312576Y-124635845D01*
X117215723Y-124780795D01*
X117149010Y-124941855D01*
X117115000Y-125112835D01*
X117115000Y-125287165D01*
X117149010Y-125458145D01*
X117215723Y-125619205D01*
X117312576Y-125764155D01*
X117363421Y-125815000D01*
X117312835Y-125815000D01*
X117141855Y-125849010D01*
X116980795Y-125915723D01*
X116835845Y-126012576D01*
X116712576Y-126135845D01*
X116615723Y-126280795D01*
X116549010Y-126441855D01*
X116515000Y-126612835D01*
X116515000Y-126787165D01*
X116549010Y-126958145D01*
X116615723Y-127119205D01*
X116712576Y-127264155D01*
X116835845Y-127387424D01*
X116980795Y-127484277D01*
X117141855Y-127550990D01*
X117312835Y-127585000D01*
X117487165Y-127585000D01*
X117658145Y-127550990D01*
X117819205Y-127484277D01*
X117922885Y-127415000D01*
X119477115Y-127415000D01*
X119580795Y-127484277D01*
X119741855Y-127550990D01*
X119912835Y-127585000D01*
X120087165Y-127585000D01*
X120258145Y-127550990D01*
X120419205Y-127484277D01*
X120564155Y-127387424D01*
X120687424Y-127264155D01*
X120784277Y-127119205D01*
X120850990Y-126958145D01*
X120885000Y-126787165D01*
X120885000Y-126612835D01*
X120850990Y-126441855D01*
X120784277Y-126280795D01*
X120706904Y-126164999D01*
X128915000Y-126164999D01*
X128915000Y-126187165D01*
X128949010Y-126358145D01*
X129015723Y-126519205D01*
X129112576Y-126664155D01*
X129235845Y-126787424D01*
X129380795Y-126884277D01*
X129541855Y-126950990D01*
X129712835Y-126985000D01*
X129887165Y-126985000D01*
X130058145Y-126950990D01*
X130219205Y-126884277D01*
X130322885Y-126815000D01*
X156134461Y-126815000D01*
X156149010Y-126888145D01*
X156215723Y-127049205D01*
X156312576Y-127194155D01*
X156435845Y-127317424D01*
X156580795Y-127414277D01*
X156741855Y-127480990D01*
X156912835Y-127515000D01*
X157087165Y-127515000D01*
X157258145Y-127480990D01*
X157419205Y-127414277D01*
X157522885Y-127345000D01*
X177422013Y-127345000D01*
X177480795Y-127384277D01*
X177641855Y-127450990D01*
X177812835Y-127485000D01*
X177987165Y-127485000D01*
X178158145Y-127450990D01*
X178319205Y-127384277D01*
X178464155Y-127287424D01*
X178587424Y-127164155D01*
X178684277Y-127019205D01*
X178750990Y-126858145D01*
X178785000Y-126687165D01*
X178785000Y-126512835D01*
X178750990Y-126341855D01*
X178684277Y-126180795D01*
X178587424Y-126035845D01*
X178464155Y-125912576D01*
X178319205Y-125815723D01*
X178158145Y-125749010D01*
X177987165Y-125715000D01*
X177812835Y-125715000D01*
X177641855Y-125749010D01*
X177480795Y-125815723D01*
X177335845Y-125912576D01*
X177333421Y-125915000D01*
X172920268Y-125915000D01*
X172984277Y-125819205D01*
X173050990Y-125658145D01*
X173085000Y-125487165D01*
X173085000Y-125312835D01*
X173050990Y-125141855D01*
X172984277Y-124980795D01*
X172887424Y-124835845D01*
X172764155Y-124712576D01*
X172619205Y-124615723D01*
X172458145Y-124549010D01*
X172287165Y-124515000D01*
X172112835Y-124515000D01*
X171941855Y-124549010D01*
X171780795Y-124615723D01*
X171635845Y-124712576D01*
X171613422Y-124734999D01*
X163475485Y-124734999D01*
X163485000Y-124687165D01*
X163485000Y-124512835D01*
X163450990Y-124341855D01*
X163384277Y-124180795D01*
X163287424Y-124035845D01*
X163164155Y-123912576D01*
X163114428Y-123879350D01*
X163142835Y-123885000D01*
X163317165Y-123885000D01*
X163488145Y-123850990D01*
X163649205Y-123784277D01*
X163794155Y-123687424D01*
X163917424Y-123564155D01*
X164014277Y-123419205D01*
X164080990Y-123258145D01*
X164115000Y-123087165D01*
X164115000Y-122912835D01*
X164080990Y-122741855D01*
X164014277Y-122580795D01*
X163917424Y-122435845D01*
X163794155Y-122312576D01*
X163649205Y-122215723D01*
X163488145Y-122149010D01*
X163317165Y-122115000D01*
X163308766Y-122115000D01*
X163254943Y-122086231D01*
X163120165Y-122045347D01*
X163015121Y-122035001D01*
X163015111Y-122035001D01*
X162980001Y-122031543D01*
X162944891Y-122035001D01*
X157196746Y-122035001D01*
X157319205Y-121984277D01*
X157464155Y-121887424D01*
X157587424Y-121764155D01*
X157684277Y-121619205D01*
X157750990Y-121458145D01*
X157785000Y-121287165D01*
X157785000Y-121112835D01*
X157750990Y-120941855D01*
X157684277Y-120780795D01*
X157587424Y-120635845D01*
X157464155Y-120512576D01*
X157319205Y-120415723D01*
X157158145Y-120349010D01*
X156987165Y-120315000D01*
X156812835Y-120315000D01*
X156641855Y-120349010D01*
X156480795Y-120415723D01*
X156335845Y-120512576D01*
X156263421Y-120585000D01*
X148522885Y-120585000D01*
X148419205Y-120515723D01*
X148302931Y-120467561D01*
X148310990Y-120448104D01*
X148345000Y-120277124D01*
X148345000Y-120102794D01*
X148310990Y-119931814D01*
X148304025Y-119915000D01*
X170977115Y-119915000D01*
X171080795Y-119984277D01*
X171241855Y-120050990D01*
X171412835Y-120085000D01*
X171587165Y-120085000D01*
X171758145Y-120050990D01*
X171919205Y-119984277D01*
X172064155Y-119887424D01*
X172187424Y-119764155D01*
X172284277Y-119619205D01*
X172350990Y-119458145D01*
X172385000Y-119287165D01*
X172385000Y-119112835D01*
X172350990Y-118941855D01*
X172284277Y-118780795D01*
X172187424Y-118635845D01*
X172166579Y-118615000D01*
X178503667Y-118615000D01*
X178412822Y-118705845D01*
X178315969Y-118850795D01*
X178278289Y-118941763D01*
X178241855Y-118949010D01*
X178080795Y-119015723D01*
X177935845Y-119112576D01*
X177812576Y-119235845D01*
X177715723Y-119380795D01*
X177649010Y-119541855D01*
X177615000Y-119712835D01*
X177615000Y-119887165D01*
X177649010Y-120058145D01*
X177715723Y-120219205D01*
X177812576Y-120364155D01*
X177935845Y-120487424D01*
X178080795Y-120584277D01*
X178241855Y-120650990D01*
X178412835Y-120685000D01*
X178587165Y-120685000D01*
X178758145Y-120650990D01*
X178919205Y-120584277D01*
X179022885Y-120515000D01*
X184777115Y-120515000D01*
X184880795Y-120584277D01*
X185041855Y-120650990D01*
X185212835Y-120685000D01*
X185387165Y-120685000D01*
X185558145Y-120650990D01*
X185719205Y-120584277D01*
X185864155Y-120487424D01*
X185987424Y-120364155D01*
X186084277Y-120219205D01*
X186150990Y-120058145D01*
X186165539Y-119985000D01*
X186733421Y-119985000D01*
X186735845Y-119987424D01*
X186880795Y-120084277D01*
X187041855Y-120150990D01*
X187212835Y-120185000D01*
X187387165Y-120185000D01*
X187558145Y-120150990D01*
X187719205Y-120084277D01*
X187864155Y-119987424D01*
X187987424Y-119864155D01*
X188084277Y-119719205D01*
X188150990Y-119558145D01*
X188185000Y-119387165D01*
X188185000Y-119212835D01*
X188150990Y-119041855D01*
X188084277Y-118880795D01*
X187987424Y-118735845D01*
X187864155Y-118612576D01*
X187719205Y-118515723D01*
X187558145Y-118449010D01*
X187387165Y-118415000D01*
X187320268Y-118415000D01*
X187384277Y-118319205D01*
X187450990Y-118158145D01*
X187485000Y-117987165D01*
X187485000Y-117812835D01*
X187450990Y-117641855D01*
X187384277Y-117480795D01*
X187287424Y-117335845D01*
X187164155Y-117212576D01*
X187019205Y-117115723D01*
X186858145Y-117049010D01*
X186687165Y-117015000D01*
X186512835Y-117015000D01*
X186341855Y-117049010D01*
X186180795Y-117115723D01*
X186077115Y-117185000D01*
X154280564Y-117185000D01*
X153684821Y-116589258D01*
X153662428Y-116561972D01*
X153553555Y-116472622D01*
X153429343Y-116406229D01*
X153326397Y-116375001D01*
X184104889Y-116375001D01*
X184139999Y-116378459D01*
X184175109Y-116375001D01*
X184175119Y-116375001D01*
X184280163Y-116364655D01*
X184414941Y-116323771D01*
X184539153Y-116257378D01*
X184640200Y-116174451D01*
X184758145Y-116150990D01*
X184919205Y-116084277D01*
X185064155Y-115987424D01*
X185187424Y-115864155D01*
X185284277Y-115719205D01*
X185350990Y-115558145D01*
X185385000Y-115387165D01*
X185385000Y-115320268D01*
X185480795Y-115384277D01*
X185641855Y-115450990D01*
X185812835Y-115485000D01*
X185987165Y-115485000D01*
X186158145Y-115450990D01*
X186319205Y-115384277D01*
X186422885Y-115315000D01*
X187115000Y-115315000D01*
X187115000Y-115387165D01*
X187149010Y-115558145D01*
X187215723Y-115719205D01*
X187312576Y-115864155D01*
X187435845Y-115987424D01*
X187580795Y-116084277D01*
X187741855Y-116150990D01*
X187912835Y-116185000D01*
X188087165Y-116185000D01*
X188258145Y-116150990D01*
X188419205Y-116084277D01*
X188522885Y-116015000D01*
X192177115Y-116015000D01*
X192280795Y-116084277D01*
X192441855Y-116150990D01*
X192612835Y-116185000D01*
X192787165Y-116185000D01*
X192958145Y-116150990D01*
X193119205Y-116084277D01*
X193264155Y-115987424D01*
X193387424Y-115864155D01*
X193484277Y-115719205D01*
X193550990Y-115558145D01*
X193585000Y-115387165D01*
X193585000Y-115212835D01*
X193550990Y-115041855D01*
X193484277Y-114880795D01*
X193387424Y-114735845D01*
X193264155Y-114612576D01*
X193119205Y-114515723D01*
X192973576Y-114455402D01*
X192950990Y-114341855D01*
X192884277Y-114180795D01*
X192787424Y-114035845D01*
X192664155Y-113912576D01*
X192519205Y-113815723D01*
X192358145Y-113749010D01*
X192187165Y-113715000D01*
X192012835Y-113715000D01*
X191841855Y-113749010D01*
X191680795Y-113815723D01*
X191577115Y-113885000D01*
X186422885Y-113885000D01*
X186319205Y-113815723D01*
X186158145Y-113749010D01*
X185987165Y-113715000D01*
X185812835Y-113715000D01*
X185641855Y-113749010D01*
X185480795Y-113815723D01*
X185335845Y-113912576D01*
X185212576Y-114035845D01*
X185115723Y-114180795D01*
X185049010Y-114341855D01*
X185015000Y-114512835D01*
X185015000Y-114579732D01*
X184919205Y-114515723D01*
X184758145Y-114449010D01*
X184587165Y-114415000D01*
X184412835Y-114415000D01*
X184241855Y-114449010D01*
X184080795Y-114515723D01*
X183935845Y-114612576D01*
X183812576Y-114735845D01*
X183715723Y-114880795D01*
X183689128Y-114945001D01*
X170497768Y-114945001D01*
X170500028Y-114933642D01*
X170619205Y-114884277D01*
X170764155Y-114787424D01*
X170887424Y-114664155D01*
X170984277Y-114519205D01*
X171050990Y-114358145D01*
X171068768Y-114268768D01*
X171158145Y-114250990D01*
X171319205Y-114184277D01*
X171464155Y-114087424D01*
X171587424Y-113964155D01*
X171684277Y-113819205D01*
X171750990Y-113658145D01*
X171779463Y-113515000D01*
X187264890Y-113515000D01*
X187300000Y-113518458D01*
X187335110Y-113515000D01*
X187335120Y-113515000D01*
X187440164Y-113504654D01*
X187574942Y-113463770D01*
X187699154Y-113397377D01*
X187808027Y-113308027D01*
X187830420Y-113280741D01*
X188135845Y-112975317D01*
X188258145Y-112950990D01*
X188419205Y-112884277D01*
X188564155Y-112787424D01*
X188687424Y-112664155D01*
X188784277Y-112519205D01*
X188850990Y-112358145D01*
X188885000Y-112187165D01*
X188885000Y-112012835D01*
X188850990Y-111841855D01*
X188784277Y-111680795D01*
X188687424Y-111535845D01*
X188586579Y-111435000D01*
X197658982Y-111435000D01*
X197700000Y-111439040D01*
X197741018Y-111435000D01*
X197741019Y-111435000D01*
X197863689Y-111422918D01*
X198021087Y-111375172D01*
X198096243Y-111335000D01*
X198101939Y-111335000D01*
X198301898Y-111295226D01*
X198490256Y-111217205D01*
X198659774Y-111103937D01*
X198803937Y-110959774D01*
X198917205Y-110790256D01*
X198995226Y-110601898D01*
X199035000Y-110401939D01*
X199035000Y-110198061D01*
X198995226Y-109998102D01*
X198917205Y-109809744D01*
X198803937Y-109640226D01*
X198659774Y-109496063D01*
X198490256Y-109382795D01*
X198301898Y-109304774D01*
X198101939Y-109265000D01*
X197898061Y-109265000D01*
X197698102Y-109304774D01*
X197509744Y-109382795D01*
X197340226Y-109496063D01*
X197196063Y-109640226D01*
X197112692Y-109765000D01*
X191673723Y-109765000D01*
X191684277Y-109749205D01*
X191721979Y-109658184D01*
X191758145Y-109650990D01*
X191919205Y-109584277D01*
X192064155Y-109487424D01*
X192187424Y-109364155D01*
X192284277Y-109219205D01*
X192350990Y-109058145D01*
X192385000Y-108887165D01*
X192385000Y-108712835D01*
X192350990Y-108541855D01*
X192284277Y-108380795D01*
X192187424Y-108235845D01*
X192064155Y-108112576D01*
X191919205Y-108015723D01*
X191758145Y-107949010D01*
X191587165Y-107915000D01*
X191412835Y-107915000D01*
X191241855Y-107949010D01*
X191080795Y-108015723D01*
X190977115Y-108085000D01*
X188085000Y-108085000D01*
X188085000Y-108012835D01*
X188050990Y-107841855D01*
X187984277Y-107680795D01*
X187887424Y-107535845D01*
X187764155Y-107412576D01*
X187619205Y-107315723D01*
X187458145Y-107249010D01*
X187287165Y-107215000D01*
X187112835Y-107215000D01*
X186941855Y-107249010D01*
X186780795Y-107315723D01*
X186635845Y-107412576D01*
X186563421Y-107485000D01*
X180082885Y-107485000D01*
X179979205Y-107415723D01*
X179818145Y-107349010D01*
X179647165Y-107315000D01*
X179472835Y-107315000D01*
X179301855Y-107349010D01*
X179140795Y-107415723D01*
X178995845Y-107512576D01*
X178872576Y-107635845D01*
X178775723Y-107780795D01*
X178709010Y-107941855D01*
X178675000Y-108112835D01*
X178675000Y-108287165D01*
X178709010Y-108458145D01*
X178775723Y-108619205D01*
X178872576Y-108764155D01*
X178995845Y-108887424D01*
X179140795Y-108984277D01*
X179242714Y-109026493D01*
X179249010Y-109058145D01*
X179315723Y-109219205D01*
X179412576Y-109364155D01*
X179535845Y-109487424D01*
X179680795Y-109584277D01*
X179841855Y-109650990D01*
X180012835Y-109685000D01*
X180187165Y-109685000D01*
X180358145Y-109650990D01*
X180519205Y-109584277D01*
X180622885Y-109515000D01*
X184777115Y-109515000D01*
X184880795Y-109584277D01*
X185041855Y-109650990D01*
X185212835Y-109685000D01*
X185387165Y-109685000D01*
X185558145Y-109650990D01*
X185719205Y-109584277D01*
X185864155Y-109487424D01*
X185900000Y-109451579D01*
X185935845Y-109487424D01*
X186080795Y-109584277D01*
X186241855Y-109650990D01*
X186412835Y-109685000D01*
X186587165Y-109685000D01*
X186758145Y-109650990D01*
X186919205Y-109584277D01*
X187022885Y-109515000D01*
X187720537Y-109515000D01*
X187749010Y-109658145D01*
X187793271Y-109765000D01*
X181913285Y-109765000D01*
X181790256Y-109682795D01*
X181601898Y-109604774D01*
X181401939Y-109565000D01*
X181198061Y-109565000D01*
X180998102Y-109604774D01*
X180809744Y-109682795D01*
X180686715Y-109765000D01*
X166213285Y-109765000D01*
X166090256Y-109682795D01*
X165901898Y-109604774D01*
X165701939Y-109565000D01*
X165498061Y-109565000D01*
X165298102Y-109604774D01*
X165109744Y-109682795D01*
X164986715Y-109765000D01*
X150613285Y-109765000D01*
X150490256Y-109682795D01*
X150301898Y-109604774D01*
X150101939Y-109565000D01*
X149898061Y-109565000D01*
X149698102Y-109604774D01*
X149509744Y-109682795D01*
X149340226Y-109796063D01*
X149271289Y-109865000D01*
X141586579Y-109865000D01*
X141587424Y-109864155D01*
X141684277Y-109719205D01*
X141750990Y-109558145D01*
X141785000Y-109387165D01*
X141785000Y-109212835D01*
X141750990Y-109041855D01*
X141684277Y-108880795D01*
X141587424Y-108735845D01*
X141464155Y-108612576D01*
X141319205Y-108515723D01*
X141158145Y-108449010D01*
X140987165Y-108415000D01*
X140812835Y-108415000D01*
X140641855Y-108449010D01*
X140480795Y-108515723D01*
X140377115Y-108585000D01*
X140185000Y-108585000D01*
X140185000Y-108512835D01*
X140150990Y-108341855D01*
X140084277Y-108180795D01*
X139987424Y-108035845D01*
X139864155Y-107912576D01*
X139719205Y-107815723D01*
X139558145Y-107749010D01*
X139448461Y-107727192D01*
X139387424Y-107635845D01*
X139329187Y-107577608D01*
X139464155Y-107487424D01*
X139587424Y-107364155D01*
X139684277Y-107219205D01*
X139750990Y-107058145D01*
X139785000Y-106887165D01*
X139785000Y-106815000D01*
X144647115Y-106815000D01*
X144750795Y-106884277D01*
X144911855Y-106950990D01*
X145082835Y-106985000D01*
X145257165Y-106985000D01*
X145428145Y-106950990D01*
X145589205Y-106884277D01*
X145734155Y-106787424D01*
X145857424Y-106664155D01*
X145954277Y-106519205D01*
X146020990Y-106358145D01*
X146055000Y-106187165D01*
X146055000Y-106012835D01*
X146020990Y-105841855D01*
X145956018Y-105684999D01*
X146045000Y-105684999D01*
X146045000Y-105687165D01*
X146079010Y-105858145D01*
X146145723Y-106019205D01*
X146242576Y-106164155D01*
X146365845Y-106287424D01*
X146510795Y-106384277D01*
X146671855Y-106450990D01*
X146842835Y-106485000D01*
X147017165Y-106485000D01*
X147188145Y-106450990D01*
X147349205Y-106384277D01*
X147452885Y-106315000D01*
X148194461Y-106315000D01*
X148209010Y-106388145D01*
X148275723Y-106549205D01*
X148372576Y-106694155D01*
X148495845Y-106817424D01*
X148640795Y-106914277D01*
X148801855Y-106980990D01*
X148972835Y-107015000D01*
X149147165Y-107015000D01*
X149318145Y-106980990D01*
X149479205Y-106914277D01*
X149582885Y-106845000D01*
X155677115Y-106845000D01*
X155780795Y-106914277D01*
X155941855Y-106980990D01*
X156112835Y-107015000D01*
X156287165Y-107015000D01*
X156458145Y-106980990D01*
X156619205Y-106914277D01*
X156764155Y-106817424D01*
X156780000Y-106801579D01*
X156865845Y-106887424D01*
X157010795Y-106984277D01*
X157171855Y-107050990D01*
X157342835Y-107085000D01*
X157517165Y-107085000D01*
X157688145Y-107050990D01*
X157849205Y-106984277D01*
X157952885Y-106915000D01*
X159487114Y-106915000D01*
X159590794Y-106984277D01*
X159751854Y-107050990D01*
X159922834Y-107085000D01*
X160097164Y-107085000D01*
X160268144Y-107050990D01*
X160429204Y-106984277D01*
X160574154Y-106887424D01*
X160697423Y-106764155D01*
X160794276Y-106619205D01*
X160860989Y-106458145D01*
X160894999Y-106287165D01*
X160894999Y-106215000D01*
X170615000Y-106215000D01*
X170615000Y-106287165D01*
X170649010Y-106458145D01*
X170715723Y-106619205D01*
X170812576Y-106764155D01*
X170935845Y-106887424D01*
X171080795Y-106984277D01*
X171241855Y-107050990D01*
X171412835Y-107085000D01*
X171587165Y-107085000D01*
X171758145Y-107050990D01*
X171919205Y-106984277D01*
X172022885Y-106915000D01*
X177447115Y-106915000D01*
X177550795Y-106984277D01*
X177711855Y-107050990D01*
X177882835Y-107085000D01*
X178057165Y-107085000D01*
X178228145Y-107050990D01*
X178389205Y-106984277D01*
X178534155Y-106887424D01*
X178657424Y-106764155D01*
X178754277Y-106619205D01*
X178820990Y-106458145D01*
X178855000Y-106287165D01*
X178855000Y-106112835D01*
X178820990Y-105941855D01*
X178754277Y-105780795D01*
X178657424Y-105635845D01*
X178534155Y-105512576D01*
X178389205Y-105415723D01*
X178228145Y-105349010D01*
X178057165Y-105315000D01*
X177882835Y-105315000D01*
X177711855Y-105349010D01*
X177550795Y-105415723D01*
X177447115Y-105485000D01*
X173185000Y-105485000D01*
X173185000Y-105412835D01*
X173150990Y-105241855D01*
X173116762Y-105159222D01*
X173158145Y-105150990D01*
X173319205Y-105084277D01*
X173464155Y-104987424D01*
X173587424Y-104864155D01*
X173684277Y-104719205D01*
X173750990Y-104558145D01*
X173785000Y-104387165D01*
X173785000Y-104212835D01*
X173750990Y-104041855D01*
X173684277Y-103880795D01*
X173587424Y-103735845D01*
X173464155Y-103612576D01*
X173319205Y-103515723D01*
X173158145Y-103449010D01*
X172987165Y-103415000D01*
X172812835Y-103415000D01*
X172641855Y-103449010D01*
X172480795Y-103515723D01*
X172335845Y-103612576D01*
X172223422Y-103724999D01*
X165382818Y-103724999D01*
X165394155Y-103717424D01*
X165517424Y-103594155D01*
X165614277Y-103449205D01*
X165680990Y-103288145D01*
X165695539Y-103215000D01*
X185277115Y-103215000D01*
X185380795Y-103284277D01*
X185541855Y-103350990D01*
X185712835Y-103385000D01*
X185887165Y-103385000D01*
X186058145Y-103350990D01*
X186219205Y-103284277D01*
X186364155Y-103187424D01*
X186487424Y-103064155D01*
X186584277Y-102919205D01*
X186608437Y-102860878D01*
X186658145Y-102850990D01*
X186819205Y-102784277D01*
X186964155Y-102687424D01*
X187087424Y-102564155D01*
X187184277Y-102419205D01*
X187250990Y-102258145D01*
X187285000Y-102087165D01*
X187285000Y-101912835D01*
X187271590Y-101845421D01*
X187419205Y-101784277D01*
X187564155Y-101687424D01*
X187687424Y-101564155D01*
X187784277Y-101419205D01*
X187850990Y-101258145D01*
X187885000Y-101087165D01*
X187885000Y-100912835D01*
X187850990Y-100741855D01*
X187784277Y-100580795D01*
X187687424Y-100435845D01*
X187564155Y-100312576D01*
X187419205Y-100215723D01*
X187258145Y-100149010D01*
X187087165Y-100115000D01*
X186912835Y-100115000D01*
X186741855Y-100149010D01*
X186580795Y-100215723D01*
X186551944Y-100235001D01*
X145989155Y-100235001D01*
X146020990Y-100158145D01*
X146055000Y-99987165D01*
X146055000Y-99815000D01*
X147477115Y-99815000D01*
X147580795Y-99884277D01*
X147741855Y-99950990D01*
X147912835Y-99985000D01*
X148087165Y-99985000D01*
X148258145Y-99950990D01*
X148419205Y-99884277D01*
X148564155Y-99787424D01*
X148687424Y-99664155D01*
X148784277Y-99519205D01*
X148850990Y-99358145D01*
X148885000Y-99187165D01*
X148885000Y-99012835D01*
X148850990Y-98841855D01*
X148784277Y-98680795D01*
X148687424Y-98535845D01*
X148564155Y-98412576D01*
X148419205Y-98315723D01*
X148258145Y-98249010D01*
X148087165Y-98215000D01*
X147912835Y-98215000D01*
X147741855Y-98249010D01*
X147580795Y-98315723D01*
X147477115Y-98385000D01*
X132392953Y-98385000D01*
X132464155Y-98337424D01*
X132587424Y-98214155D01*
X132684277Y-98069205D01*
X132750990Y-97908145D01*
X132785000Y-97737165D01*
X132785000Y-97562835D01*
X132755594Y-97415000D01*
X147134459Y-97415000D01*
X147149010Y-97488155D01*
X147215723Y-97649215D01*
X147312576Y-97794165D01*
X147435845Y-97917434D01*
X147580795Y-98014287D01*
X147741855Y-98081000D01*
X147912835Y-98115010D01*
X148087165Y-98115010D01*
X148258145Y-98081000D01*
X148419205Y-98014287D01*
X148522885Y-97945010D01*
X153277115Y-97945010D01*
X153380795Y-98014287D01*
X153541855Y-98081000D01*
X153712835Y-98115010D01*
X153887165Y-98115010D01*
X154058145Y-98081000D01*
X154219205Y-98014287D01*
X154364155Y-97917434D01*
X154487424Y-97794165D01*
X154584277Y-97649215D01*
X154650990Y-97488155D01*
X154665541Y-97415000D01*
X156164890Y-97415000D01*
X156200000Y-97418458D01*
X156235110Y-97415000D01*
X156235120Y-97415000D01*
X156340164Y-97404654D01*
X156474942Y-97363770D01*
X156599154Y-97297377D01*
X156708027Y-97208027D01*
X156730420Y-97180741D01*
X156735844Y-97175317D01*
X156858145Y-97150990D01*
X157019205Y-97084277D01*
X157102116Y-97028877D01*
X157283990Y-97210751D01*
X157306375Y-97238027D01*
X157333650Y-97260411D01*
X157333653Y-97260414D01*
X157415246Y-97327376D01*
X157535877Y-97391855D01*
X157539460Y-97393770D01*
X157674238Y-97434654D01*
X157779282Y-97445000D01*
X157779291Y-97445000D01*
X157814401Y-97448458D01*
X157849511Y-97445000D01*
X169917115Y-97445000D01*
X170020795Y-97514277D01*
X170181855Y-97580990D01*
X170304155Y-97605317D01*
X170309585Y-97610746D01*
X170331974Y-97638028D01*
X170440847Y-97727378D01*
X170565059Y-97793771D01*
X170699837Y-97834655D01*
X170804881Y-97845001D01*
X170804891Y-97845001D01*
X170840001Y-97848459D01*
X170875111Y-97845001D01*
X187427396Y-97845001D01*
X187441855Y-97850990D01*
X187612835Y-97885000D01*
X187787165Y-97885000D01*
X187958145Y-97850990D01*
X188119205Y-97784277D01*
X188264155Y-97687424D01*
X188387424Y-97564155D01*
X188484277Y-97419205D01*
X188550990Y-97258145D01*
X188585000Y-97087165D01*
X188585000Y-96912835D01*
X188550990Y-96741855D01*
X188484277Y-96580795D01*
X188387424Y-96435845D01*
X188264155Y-96312576D01*
X188119205Y-96215723D01*
X187958145Y-96149010D01*
X187787165Y-96115000D01*
X187622885Y-96115000D01*
X187664155Y-96087424D01*
X187787424Y-95964155D01*
X187884277Y-95819205D01*
X187950990Y-95658145D01*
X187953893Y-95643550D01*
X187971855Y-95650990D01*
X188142835Y-95685000D01*
X188317165Y-95685000D01*
X188488145Y-95650990D01*
X188649205Y-95584277D01*
X188794155Y-95487424D01*
X188917424Y-95364155D01*
X189014277Y-95219205D01*
X189080990Y-95058145D01*
X189115000Y-94887165D01*
X189115000Y-94712835D01*
X189080990Y-94541855D01*
X189014277Y-94380795D01*
X188917424Y-94235845D01*
X188794155Y-94112576D01*
X188649205Y-94015723D01*
X188488145Y-93949010D01*
X188317165Y-93915000D01*
X188142835Y-93915000D01*
X187971855Y-93949010D01*
X187810795Y-94015723D01*
X187665845Y-94112576D01*
X187663421Y-94115000D01*
X185265539Y-94115000D01*
X185250990Y-94041855D01*
X185184277Y-93880795D01*
X185087424Y-93735845D01*
X184964155Y-93612576D01*
X184819205Y-93515723D01*
X184658145Y-93449010D01*
X184487165Y-93415000D01*
X184312835Y-93415000D01*
X184141855Y-93449010D01*
X183980795Y-93515723D01*
X183877115Y-93585000D01*
X171492885Y-93585000D01*
X171389205Y-93515723D01*
X171228145Y-93449010D01*
X171057165Y-93415000D01*
X170882835Y-93415000D01*
X170711855Y-93449010D01*
X170550795Y-93515723D01*
X170447115Y-93585000D01*
X126422885Y-93585000D01*
X126319205Y-93515723D01*
X126158145Y-93449010D01*
X125987165Y-93415000D01*
X125812835Y-93415000D01*
X125641855Y-93449010D01*
X125554967Y-93485000D01*
X123922885Y-93485000D01*
X123819205Y-93415723D01*
X123658145Y-93349010D01*
X123587712Y-93335000D01*
X133586715Y-93335000D01*
X133709744Y-93417205D01*
X133898102Y-93495226D01*
X134098061Y-93535000D01*
X134301939Y-93535000D01*
X134501898Y-93495226D01*
X134690256Y-93417205D01*
X134813285Y-93335000D01*
X149186715Y-93335000D01*
X149309744Y-93417205D01*
X149498102Y-93495226D01*
X149698061Y-93535000D01*
X149901939Y-93535000D01*
X150101898Y-93495226D01*
X150290256Y-93417205D01*
X150413285Y-93335000D01*
X165052705Y-93335000D01*
X165198102Y-93395226D01*
X165398061Y-93435000D01*
X165601939Y-93435000D01*
X165801898Y-93395226D01*
X165990256Y-93317205D01*
X166113285Y-93235000D01*
X180486715Y-93235000D01*
X180609744Y-93317205D01*
X180798102Y-93395226D01*
X180998061Y-93435000D01*
X181201939Y-93435000D01*
X181401898Y-93395226D01*
X181590256Y-93317205D01*
X181713285Y-93235000D01*
X197552705Y-93235000D01*
X197698102Y-93295226D01*
X197898061Y-93335000D01*
X198101939Y-93335000D01*
X198301898Y-93295226D01*
X198490256Y-93217205D01*
X198659774Y-93103937D01*
X198803937Y-92959774D01*
X198917205Y-92790256D01*
X198995226Y-92601898D01*
X199035000Y-92401939D01*
X199035000Y-92198061D01*
X198995226Y-91998102D01*
X198917205Y-91809744D01*
X198803937Y-91640226D01*
X198659774Y-91496063D01*
X198490256Y-91382795D01*
X198301898Y-91304774D01*
X198101939Y-91265000D01*
X197898061Y-91265000D01*
X197698102Y-91304774D01*
X197509744Y-91382795D01*
X197340226Y-91496063D01*
X197271289Y-91565000D01*
X181713285Y-91565000D01*
X181590256Y-91482795D01*
X181401898Y-91404774D01*
X181201939Y-91365000D01*
X180998061Y-91365000D01*
X180798102Y-91404774D01*
X180609744Y-91482795D01*
X180486715Y-91565000D01*
X171486579Y-91565000D01*
X171487424Y-91564155D01*
X171584277Y-91419205D01*
X171650990Y-91258145D01*
X171685000Y-91087165D01*
X171685000Y-91075000D01*
X188923421Y-91075000D01*
X188935845Y-91087424D01*
X189080795Y-91184277D01*
X189241855Y-91250990D01*
X189412835Y-91285000D01*
X189587165Y-91285000D01*
X189758145Y-91250990D01*
X189919205Y-91184277D01*
X190064155Y-91087424D01*
X190187424Y-90964155D01*
X190284277Y-90819205D01*
X190350990Y-90658145D01*
X190385000Y-90487165D01*
X190385000Y-90312835D01*
X190350990Y-90141855D01*
X190284277Y-89980795D01*
X190187424Y-89835845D01*
X190064155Y-89712576D01*
X189919205Y-89615723D01*
X189758145Y-89549010D01*
X189587165Y-89515000D01*
X189412835Y-89515000D01*
X189241855Y-89549010D01*
X189080795Y-89615723D01*
X189036979Y-89645000D01*
X177415014Y-89645000D01*
X177450990Y-89558145D01*
X177485000Y-89387165D01*
X177485000Y-89212835D01*
X177450990Y-89041855D01*
X177384277Y-88880795D01*
X177287424Y-88735845D01*
X177164155Y-88612576D01*
X177122883Y-88584999D01*
X185594891Y-88584999D01*
X185630001Y-88588457D01*
X185665111Y-88584999D01*
X185665121Y-88584999D01*
X185697030Y-88581856D01*
X185712835Y-88585000D01*
X185887165Y-88585000D01*
X186058145Y-88550990D01*
X186219205Y-88484277D01*
X186364155Y-88387424D01*
X186487424Y-88264155D01*
X186584277Y-88119205D01*
X186650990Y-87958145D01*
X186685000Y-87787165D01*
X186685000Y-87612835D01*
X186650990Y-87441855D01*
X186584277Y-87280795D01*
X186487424Y-87135845D01*
X186364155Y-87012576D01*
X186219205Y-86915723D01*
X186058145Y-86849010D01*
X185887165Y-86815000D01*
X185712835Y-86815000D01*
X185541855Y-86849010D01*
X185380795Y-86915723D01*
X185235845Y-87012576D01*
X185112576Y-87135845D01*
X185099778Y-87154999D01*
X171085000Y-87154999D01*
X171085000Y-87012835D01*
X171050990Y-86841855D01*
X170984277Y-86680795D01*
X170887424Y-86535845D01*
X170866579Y-86515000D01*
X186477115Y-86515000D01*
X186580795Y-86584277D01*
X186741855Y-86650990D01*
X186912835Y-86685000D01*
X187087165Y-86685000D01*
X187258145Y-86650990D01*
X187419205Y-86584277D01*
X187564155Y-86487424D01*
X187687424Y-86364155D01*
X187784277Y-86219205D01*
X187850990Y-86058145D01*
X187885000Y-85887165D01*
X187885000Y-85712835D01*
X187850990Y-85541855D01*
X187784277Y-85380795D01*
X187687424Y-85235845D01*
X187564155Y-85112576D01*
X187419205Y-85015723D01*
X187258145Y-84949010D01*
X187087165Y-84915000D01*
X186912835Y-84915000D01*
X186741855Y-84949010D01*
X186580795Y-85015723D01*
X186477115Y-85085000D01*
X180445000Y-85085000D01*
X180445000Y-85012835D01*
X180410990Y-84841855D01*
X180344277Y-84680795D01*
X180247424Y-84535845D01*
X180124155Y-84412576D01*
X179979205Y-84315723D01*
X179818145Y-84249010D01*
X179647165Y-84215000D01*
X183877115Y-84215000D01*
X183980795Y-84284277D01*
X184141855Y-84350990D01*
X184312835Y-84385000D01*
X184487165Y-84385000D01*
X184658145Y-84350990D01*
X184819205Y-84284277D01*
X184964155Y-84187424D01*
X185087424Y-84064155D01*
X185184277Y-83919205D01*
X185250990Y-83758145D01*
X185273496Y-83645001D01*
X185422015Y-83645001D01*
X185480795Y-83684277D01*
X185641855Y-83750990D01*
X185812835Y-83785000D01*
X185987165Y-83785000D01*
X186158145Y-83750990D01*
X186319205Y-83684277D01*
X186464155Y-83587424D01*
X186587424Y-83464155D01*
X186684277Y-83319205D01*
X186750990Y-83158145D01*
X186754592Y-83140035D01*
X186889205Y-83084277D01*
X187034155Y-82987424D01*
X187157424Y-82864155D01*
X187254277Y-82719205D01*
X187320990Y-82558145D01*
X187349463Y-82415000D01*
X187877115Y-82415000D01*
X187980795Y-82484277D01*
X188141855Y-82550990D01*
X188312835Y-82585000D01*
X188487165Y-82585000D01*
X188658145Y-82550990D01*
X188819205Y-82484277D01*
X188964155Y-82387424D01*
X189087424Y-82264155D01*
X189184277Y-82119205D01*
X189250990Y-81958145D01*
X189285000Y-81787165D01*
X189285000Y-81612835D01*
X189250990Y-81441855D01*
X189184277Y-81280795D01*
X189087424Y-81135845D01*
X188964155Y-81012576D01*
X188819205Y-80915723D01*
X188658145Y-80849010D01*
X188487165Y-80815000D01*
X188312835Y-80815000D01*
X188141855Y-80849010D01*
X187980795Y-80915723D01*
X187877115Y-80985000D01*
X180779463Y-80985000D01*
X180750990Y-80841855D01*
X180684277Y-80680795D01*
X180587424Y-80535845D01*
X180464155Y-80412576D01*
X180319205Y-80315723D01*
X180158145Y-80249010D01*
X179987165Y-80215000D01*
X179812835Y-80215000D01*
X179641855Y-80249010D01*
X179480795Y-80315723D01*
X179377115Y-80385000D01*
X151928450Y-80385000D01*
X151925555Y-80382624D01*
X151801343Y-80316231D01*
X151666565Y-80275347D01*
X151561521Y-80265001D01*
X151561511Y-80265001D01*
X151526401Y-80261543D01*
X151491291Y-80265001D01*
X118056578Y-80265001D01*
X118057424Y-80264155D01*
X118154277Y-80119205D01*
X118220990Y-79958145D01*
X118255000Y-79787165D01*
X118255000Y-79710871D01*
X118319205Y-79684277D01*
X118422885Y-79615000D01*
X121654967Y-79615000D01*
X121741855Y-79650990D01*
X121912835Y-79685000D01*
X122087165Y-79685000D01*
X122258145Y-79650990D01*
X122419205Y-79584277D01*
X122564155Y-79487424D01*
X122687424Y-79364155D01*
X122784277Y-79219205D01*
X122850990Y-79058145D01*
X122885000Y-78887165D01*
X122885000Y-78869401D01*
X122943826Y-78869401D01*
X123215182Y-79140758D01*
X123237571Y-79168039D01*
X123346444Y-79257389D01*
X123470656Y-79323782D01*
X123605434Y-79364666D01*
X123710478Y-79375012D01*
X123710488Y-79375012D01*
X123745598Y-79378470D01*
X123780708Y-79375012D01*
X124219292Y-79375012D01*
X124254402Y-79378470D01*
X124289512Y-79375012D01*
X124289522Y-79375012D01*
X124394566Y-79364666D01*
X124471091Y-79341453D01*
X124515723Y-79449205D01*
X124612576Y-79594155D01*
X124735845Y-79717424D01*
X124880795Y-79814277D01*
X125041855Y-79880990D01*
X125212835Y-79915000D01*
X125387165Y-79915000D01*
X125558145Y-79880990D01*
X125719205Y-79814277D01*
X125822885Y-79745000D01*
X132650382Y-79745000D01*
X132675216Y-79782167D01*
X132798485Y-79905436D01*
X132943435Y-80002289D01*
X133104495Y-80069002D01*
X133275475Y-80103012D01*
X133449805Y-80103012D01*
X133620785Y-80069002D01*
X133781845Y-80002289D01*
X133926795Y-79905436D01*
X134050064Y-79782167D01*
X134146917Y-79637217D01*
X134213630Y-79476157D01*
X134233749Y-79375012D01*
X178271479Y-79375012D01*
X178341427Y-79444960D01*
X178486377Y-79541813D01*
X178647437Y-79608526D01*
X178818417Y-79642536D01*
X178992747Y-79642536D01*
X179163727Y-79608526D01*
X179324787Y-79541813D01*
X179469737Y-79444960D01*
X179593006Y-79321691D01*
X179689859Y-79176741D01*
X179756572Y-79015681D01*
X179790582Y-78844701D01*
X179790582Y-78670371D01*
X179759677Y-78515000D01*
X185177115Y-78515000D01*
X185280795Y-78584277D01*
X185441855Y-78650990D01*
X185612835Y-78685000D01*
X185787165Y-78685000D01*
X185958145Y-78650990D01*
X186119205Y-78584277D01*
X186264155Y-78487424D01*
X186387424Y-78364155D01*
X186484277Y-78219205D01*
X186550990Y-78058145D01*
X186585000Y-77887165D01*
X186585000Y-77712835D01*
X186550990Y-77541855D01*
X186484277Y-77380795D01*
X186387424Y-77235845D01*
X186264155Y-77112576D01*
X186119205Y-77015723D01*
X186040623Y-76983173D01*
X186050990Y-76958145D01*
X186085000Y-76787165D01*
X186085000Y-76665001D01*
X186346323Y-76665001D01*
X186412576Y-76764155D01*
X186535845Y-76887424D01*
X186680795Y-76984277D01*
X186841855Y-77050990D01*
X187012835Y-77085000D01*
X187187165Y-77085000D01*
X187358145Y-77050990D01*
X187519205Y-76984277D01*
X187664155Y-76887424D01*
X187787424Y-76764155D01*
X187884277Y-76619205D01*
X187950990Y-76458145D01*
X187985000Y-76287165D01*
X187985000Y-76112835D01*
X187950990Y-75941855D01*
X187884277Y-75780795D01*
X187787424Y-75635845D01*
X187664155Y-75512576D01*
X187519205Y-75415723D01*
X187358145Y-75349010D01*
X187187165Y-75315000D01*
X187178766Y-75315000D01*
X187124943Y-75286231D01*
X186990165Y-75245347D01*
X186885121Y-75235001D01*
X186885111Y-75235001D01*
X186850001Y-75231543D01*
X186814891Y-75235001D01*
X180941008Y-75235001D01*
X180941018Y-75235000D01*
X180941019Y-75235000D01*
X180979170Y-75231242D01*
X180998061Y-75235000D01*
X181201939Y-75235000D01*
X181401898Y-75195226D01*
X181590256Y-75117205D01*
X181713285Y-75035000D01*
X197271289Y-75035000D01*
X197340226Y-75103937D01*
X197509744Y-75217205D01*
X197698102Y-75295226D01*
X197898061Y-75335000D01*
X198101939Y-75335000D01*
X198301898Y-75295226D01*
X198490256Y-75217205D01*
X198659774Y-75103937D01*
X198803937Y-74959774D01*
X198917205Y-74790256D01*
X198995226Y-74601898D01*
X199035000Y-74401939D01*
X199035000Y-74198061D01*
X198995226Y-73998102D01*
X198917205Y-73809744D01*
X198803937Y-73640226D01*
X198659774Y-73496063D01*
X198490256Y-73382795D01*
X198301898Y-73304774D01*
X198101939Y-73265000D01*
X197898061Y-73265000D01*
X197698102Y-73304774D01*
X197552705Y-73365000D01*
X181713285Y-73365000D01*
X181590256Y-73282795D01*
X181401898Y-73204774D01*
X181201939Y-73165000D01*
X180998061Y-73165000D01*
X180798102Y-73204774D01*
X180609744Y-73282795D01*
X180440226Y-73396063D01*
X180296063Y-73540226D01*
X180279510Y-73565000D01*
X166213285Y-73565000D01*
X166090256Y-73482795D01*
X165901898Y-73404774D01*
X165701939Y-73365000D01*
X165498061Y-73365000D01*
X165298102Y-73404774D01*
X165152705Y-73465000D01*
X150513285Y-73465000D01*
X150390256Y-73382795D01*
X150201898Y-73304774D01*
X150001939Y-73265000D01*
X149798061Y-73265000D01*
X149598102Y-73304774D01*
X149409744Y-73382795D01*
X149286715Y-73465000D01*
X147799518Y-73465000D01*
X147815000Y-73387165D01*
X147815000Y-73212835D01*
X147780990Y-73041855D01*
X147714277Y-72880795D01*
X147617424Y-72735845D01*
X147494155Y-72612576D01*
X147349205Y-72515723D01*
X147188145Y-72449010D01*
X147017165Y-72415000D01*
X147477115Y-72415000D01*
X147580795Y-72484277D01*
X147741855Y-72550990D01*
X147912835Y-72585000D01*
X148087165Y-72585000D01*
X148258145Y-72550990D01*
X148419205Y-72484277D01*
X148564155Y-72387424D01*
X148687424Y-72264155D01*
X148784277Y-72119205D01*
X148850990Y-71958145D01*
X148885000Y-71787165D01*
X148885000Y-71612835D01*
X148850990Y-71441855D01*
X148784277Y-71280795D01*
X148773724Y-71265001D01*
X161946323Y-71265001D01*
X162012576Y-71364155D01*
X162135845Y-71487424D01*
X162280795Y-71584277D01*
X162282540Y-71585000D01*
X155545033Y-71585000D01*
X155458145Y-71549010D01*
X155287165Y-71515000D01*
X155112835Y-71515000D01*
X154941855Y-71549010D01*
X154780795Y-71615723D01*
X154635845Y-71712576D01*
X154512576Y-71835845D01*
X154415723Y-71980795D01*
X154349010Y-72141855D01*
X154315000Y-72312835D01*
X154315000Y-72487165D01*
X154349010Y-72658145D01*
X154415723Y-72819205D01*
X154512576Y-72964155D01*
X154635845Y-73087424D01*
X154780795Y-73184277D01*
X154941855Y-73250990D01*
X155112835Y-73285000D01*
X155287165Y-73285000D01*
X155458145Y-73250990D01*
X155619205Y-73184277D01*
X155764155Y-73087424D01*
X155836579Y-73015000D01*
X163877115Y-73015000D01*
X163980795Y-73084277D01*
X164141855Y-73150990D01*
X164312835Y-73185000D01*
X164487165Y-73185000D01*
X164658145Y-73150990D01*
X164819205Y-73084277D01*
X164964155Y-72987424D01*
X165087424Y-72864155D01*
X165184277Y-72719205D01*
X165250990Y-72558145D01*
X165285000Y-72387165D01*
X165285000Y-72212835D01*
X165250990Y-72041855D01*
X165184277Y-71880795D01*
X165087424Y-71735845D01*
X164964155Y-71612576D01*
X164819205Y-71515723D01*
X164658145Y-71449010D01*
X164487165Y-71415000D01*
X164312835Y-71415000D01*
X164141855Y-71449010D01*
X163980795Y-71515723D01*
X163877115Y-71585000D01*
X163117460Y-71585000D01*
X163119205Y-71584277D01*
X163264155Y-71487424D01*
X163387424Y-71364155D01*
X163484277Y-71219205D01*
X163550990Y-71058145D01*
X163585000Y-70887165D01*
X163585000Y-70712835D01*
X163550990Y-70541855D01*
X163484277Y-70380795D01*
X163387424Y-70235845D01*
X163264155Y-70112576D01*
X163119205Y-70015723D01*
X162958145Y-69949010D01*
X162787165Y-69915000D01*
X162778766Y-69915000D01*
X162724943Y-69886231D01*
X162590165Y-69845347D01*
X162485121Y-69835001D01*
X162485111Y-69835001D01*
X162450001Y-69831543D01*
X162414891Y-69835001D01*
X146575485Y-69835001D01*
X146585000Y-69787165D01*
X146585000Y-69615000D01*
X160947115Y-69615000D01*
X161050795Y-69684277D01*
X161211855Y-69750990D01*
X161382835Y-69785000D01*
X161557165Y-69785000D01*
X161728145Y-69750990D01*
X161889205Y-69684277D01*
X162034155Y-69587424D01*
X162157424Y-69464155D01*
X162254277Y-69319205D01*
X162320990Y-69158145D01*
X162355000Y-68987165D01*
X162355000Y-68812835D01*
X162320990Y-68641855D01*
X162254277Y-68480795D01*
X162176904Y-68364999D01*
X176851944Y-68364999D01*
X176880795Y-68384277D01*
X177041855Y-68450990D01*
X177212835Y-68485000D01*
X177387165Y-68485000D01*
X177558145Y-68450990D01*
X177719205Y-68384277D01*
X177864155Y-68287424D01*
X177987424Y-68164155D01*
X178084277Y-68019205D01*
X178150990Y-67858145D01*
X178185000Y-67687165D01*
X178185000Y-67512835D01*
X178150990Y-67341855D01*
X178084277Y-67180795D01*
X177987424Y-67035845D01*
X177864155Y-66912576D01*
X177719205Y-66815723D01*
X177558145Y-66749010D01*
X177387165Y-66715000D01*
X177212835Y-66715000D01*
X177041855Y-66749010D01*
X176880795Y-66815723D01*
X176735845Y-66912576D01*
X176713422Y-66934999D01*
X164696751Y-66934999D01*
X164819205Y-66884277D01*
X164964155Y-66787424D01*
X165087424Y-66664155D01*
X165184277Y-66519205D01*
X165250990Y-66358145D01*
X165285000Y-66187165D01*
X165285000Y-66012835D01*
X165250990Y-65841855D01*
X165184277Y-65680795D01*
X165087424Y-65535845D01*
X164964155Y-65412576D01*
X164819205Y-65315723D01*
X164658145Y-65249010D01*
X164487165Y-65215000D01*
X164312835Y-65215000D01*
X164141855Y-65249010D01*
X163980795Y-65315723D01*
X163877115Y-65385000D01*
X141485109Y-65385000D01*
X141449999Y-65381542D01*
X141414889Y-65385000D01*
X141414880Y-65385000D01*
X141309836Y-65395346D01*
X141175058Y-65436230D01*
X141050846Y-65502623D01*
X140941973Y-65591973D01*
X140919579Y-65619260D01*
X140864156Y-65674683D01*
X140741855Y-65699010D01*
X140580795Y-65765723D01*
X140435845Y-65862576D01*
X140312576Y-65985845D01*
X140215723Y-66130795D01*
X140149010Y-66291855D01*
X140134461Y-66365000D01*
X133553568Y-66365000D01*
X133624266Y-66259194D01*
X133690979Y-66098134D01*
X133724989Y-65927154D01*
X133724989Y-65752824D01*
X133690979Y-65581844D01*
X133635726Y-65448451D01*
X133641855Y-65450990D01*
X133812835Y-65485000D01*
X133987165Y-65485000D01*
X134158145Y-65450990D01*
X134245033Y-65415000D01*
X137777115Y-65415000D01*
X137880795Y-65484277D01*
X138041855Y-65550990D01*
X138212835Y-65585000D01*
X138387165Y-65585000D01*
X138558145Y-65550990D01*
X138719205Y-65484277D01*
X138864155Y-65387424D01*
X138987424Y-65264155D01*
X139084277Y-65119205D01*
X139148973Y-64963014D01*
X139180795Y-64984277D01*
X139341855Y-65050990D01*
X139512835Y-65085000D01*
X139687165Y-65085000D01*
X139858145Y-65050990D01*
X140019205Y-64984277D01*
X140122885Y-64915000D01*
X145263421Y-64915000D01*
X145335845Y-64987424D01*
X145480795Y-65084277D01*
X145641855Y-65150990D01*
X145812835Y-65185000D01*
X145987165Y-65185000D01*
X146158145Y-65150990D01*
X146319205Y-65084277D01*
X146464155Y-64987424D01*
X146587424Y-64864155D01*
X146684277Y-64719205D01*
X146750990Y-64558145D01*
X146785000Y-64387165D01*
X146785000Y-64212835D01*
X146765539Y-64115000D01*
X174377115Y-64115000D01*
X174480795Y-64184277D01*
X174641855Y-64250990D01*
X174812835Y-64285000D01*
X174987165Y-64285000D01*
X175158145Y-64250990D01*
X175319205Y-64184277D01*
X175464155Y-64087424D01*
X175587424Y-63964155D01*
X175621715Y-63912835D01*
X177015000Y-63912835D01*
X177015000Y-64087165D01*
X177049010Y-64258145D01*
X177115723Y-64419205D01*
X177212576Y-64564155D01*
X177335845Y-64687424D01*
X177480795Y-64784277D01*
X177641855Y-64850990D01*
X177747855Y-64872075D01*
X177779803Y-64949205D01*
X177876656Y-65094155D01*
X177999925Y-65217424D01*
X178144875Y-65314277D01*
X178305935Y-65380990D01*
X178476915Y-65415000D01*
X178651245Y-65415000D01*
X178822225Y-65380990D01*
X178983285Y-65314277D01*
X179086965Y-65245000D01*
X191990730Y-65245000D01*
X191995845Y-65250115D01*
X192140795Y-65346968D01*
X192301855Y-65413681D01*
X192472835Y-65447691D01*
X192647165Y-65447691D01*
X192818145Y-65413681D01*
X192979205Y-65346968D01*
X193124155Y-65250115D01*
X193247424Y-65126846D01*
X193344277Y-64981896D01*
X193410990Y-64820836D01*
X193445000Y-64649856D01*
X193445000Y-64475526D01*
X193410990Y-64304546D01*
X193344277Y-64143486D01*
X193247424Y-63998536D01*
X193124155Y-63875267D01*
X192979205Y-63778414D01*
X192878929Y-63736878D01*
X192814277Y-63580795D01*
X192717424Y-63435845D01*
X192594155Y-63312576D01*
X192449205Y-63215723D01*
X192288145Y-63149010D01*
X192117165Y-63115000D01*
X191942835Y-63115000D01*
X191771855Y-63149010D01*
X191610795Y-63215723D01*
X191507115Y-63285000D01*
X178422885Y-63285000D01*
X178319205Y-63215723D01*
X178158145Y-63149010D01*
X177987165Y-63115000D01*
X177812835Y-63115000D01*
X177641855Y-63149010D01*
X177480795Y-63215723D01*
X177335845Y-63312576D01*
X177212576Y-63435845D01*
X177115723Y-63580795D01*
X177049010Y-63741855D01*
X177015000Y-63912835D01*
X175621715Y-63912835D01*
X175684277Y-63819205D01*
X175750990Y-63658145D01*
X175785000Y-63487165D01*
X175785000Y-63312835D01*
X175750990Y-63141855D01*
X175684277Y-62980795D01*
X175587424Y-62835845D01*
X175464155Y-62712576D01*
X175319205Y-62615723D01*
X175158145Y-62549010D01*
X174987165Y-62515000D01*
X174812835Y-62515000D01*
X174641855Y-62549010D01*
X174480795Y-62615723D01*
X174377115Y-62685000D01*
X137386579Y-62685000D01*
X137364155Y-62662576D01*
X137219205Y-62565723D01*
X137058145Y-62499010D01*
X136887165Y-62465000D01*
X136712835Y-62465000D01*
X136541855Y-62499010D01*
X136380795Y-62565723D01*
X136235845Y-62662576D01*
X136113421Y-62785000D01*
X132022885Y-62785000D01*
X131919205Y-62715723D01*
X131758145Y-62649010D01*
X131587165Y-62615000D01*
X131412835Y-62615000D01*
X131241855Y-62649010D01*
X131080795Y-62715723D01*
X130935845Y-62812576D01*
X130812576Y-62935845D01*
X130715723Y-63080795D01*
X130649010Y-63241855D01*
X130615000Y-63412835D01*
X130615000Y-63587165D01*
X130649010Y-63758145D01*
X130715723Y-63919205D01*
X130812576Y-64064155D01*
X130935845Y-64187424D01*
X131080795Y-64284277D01*
X131241855Y-64350990D01*
X131412835Y-64385000D01*
X131587165Y-64385000D01*
X131758145Y-64350990D01*
X131919205Y-64284277D01*
X132022885Y-64215000D01*
X133101555Y-64215000D01*
X133049010Y-64341855D01*
X133015000Y-64512835D01*
X133015000Y-64687165D01*
X133049010Y-64858145D01*
X133104263Y-64991538D01*
X133098134Y-64988999D01*
X132927154Y-64954989D01*
X132752824Y-64954989D01*
X132581844Y-64988999D01*
X132420784Y-65055712D01*
X132275834Y-65152565D01*
X132173399Y-65255000D01*
X124723131Y-65255000D01*
X124619451Y-65185723D01*
X124458391Y-65119010D01*
X124287411Y-65085000D01*
X124113081Y-65085000D01*
X123942101Y-65119010D01*
X123781041Y-65185723D01*
X123636091Y-65282576D01*
X123512822Y-65405845D01*
X123428705Y-65531735D01*
X123341855Y-65549010D01*
X123180795Y-65615723D01*
X123035845Y-65712576D01*
X122912576Y-65835845D01*
X122815723Y-65980795D01*
X122749010Y-66141855D01*
X122715000Y-66312835D01*
X122715000Y-66365000D01*
X112308246Y-66365000D01*
X112153475Y-66133368D01*
X111946632Y-65926525D01*
X111772240Y-65810000D01*
X111946632Y-65693475D01*
X112153475Y-65486632D01*
X112315990Y-65243411D01*
X112427932Y-64973158D01*
X112485000Y-64686260D01*
X112485000Y-64393740D01*
X112427932Y-64106842D01*
X112315990Y-63836589D01*
X112153475Y-63593368D01*
X112021620Y-63461513D01*
X112094180Y-63439502D01*
X112204494Y-63380537D01*
X112301185Y-63301185D01*
X112380537Y-63204494D01*
X112439502Y-63094180D01*
X112475812Y-62974482D01*
X112488072Y-62850000D01*
X112488072Y-61150000D01*
X112475812Y-61025518D01*
X112439502Y-60905820D01*
X112380537Y-60795506D01*
X112301185Y-60698815D01*
X112204494Y-60619463D01*
X112094180Y-60560498D01*
X111974482Y-60524188D01*
X111850000Y-60511928D01*
X110150000Y-60511928D01*
X110025518Y-60524188D01*
X109905820Y-60560498D01*
X109795506Y-60619463D01*
X109698815Y-60698815D01*
X109619463Y-60795506D01*
X109560498Y-60905820D01*
X109537502Y-60981626D01*
X109341355Y-60804822D01*
X109091252Y-60655843D01*
X108816891Y-60558519D01*
X108587000Y-60679186D01*
X108587000Y-61873000D01*
X108607000Y-61873000D01*
X108607000Y-62127000D01*
X108587000Y-62127000D01*
X108587000Y-62147000D01*
X108333000Y-62147000D01*
X108333000Y-62127000D01*
X107139845Y-62127000D01*
X107018524Y-62356890D01*
X107063175Y-62504099D01*
X107188359Y-62766920D01*
X107362412Y-63000269D01*
X107578645Y-63195178D01*
X107695534Y-63264805D01*
X107513368Y-63386525D01*
X107306525Y-63593368D01*
X107144010Y-63836589D01*
X107032068Y-64106842D01*
X106975000Y-64393740D01*
X100660000Y-64393740D01*
X100660000Y-61643110D01*
X107018524Y-61643110D01*
X107139845Y-61873000D01*
X108333000Y-61873000D01*
X108333000Y-60679186D01*
X108103109Y-60558519D01*
X107828748Y-60655843D01*
X107578645Y-60804822D01*
X107362412Y-60999731D01*
X107188359Y-61233080D01*
X107063175Y-61495901D01*
X107018524Y-61643110D01*
X100660000Y-61643110D01*
X100660000Y-58812835D01*
X114715000Y-58812835D01*
X114715000Y-58987165D01*
X114749010Y-59158145D01*
X114815723Y-59319205D01*
X114912576Y-59464155D01*
X115035845Y-59587424D01*
X115180795Y-59684277D01*
X115341855Y-59750990D01*
X115512835Y-59785000D01*
X115687165Y-59785000D01*
X115858145Y-59750990D01*
X116019205Y-59684277D01*
X116122885Y-59615000D01*
X123934461Y-59615000D01*
X123949010Y-59688145D01*
X124015723Y-59849205D01*
X124112576Y-59994155D01*
X124235845Y-60117424D01*
X124380795Y-60214277D01*
X124541855Y-60280990D01*
X124712835Y-60315000D01*
X124789129Y-60315000D01*
X124815723Y-60379205D01*
X124912576Y-60524155D01*
X124997305Y-60608884D01*
X124980795Y-60615723D01*
X124835845Y-60712576D01*
X124712576Y-60835845D01*
X124615723Y-60980795D01*
X124549010Y-61141855D01*
X124515000Y-61312835D01*
X124515000Y-61487165D01*
X124549010Y-61658145D01*
X124615723Y-61819205D01*
X124712576Y-61964155D01*
X124835845Y-62087424D01*
X124980795Y-62184277D01*
X125141855Y-62250990D01*
X125312835Y-62285000D01*
X125487165Y-62285000D01*
X125658145Y-62250990D01*
X125819205Y-62184277D01*
X125922885Y-62115000D01*
X176254967Y-62115000D01*
X176341855Y-62150990D01*
X176512835Y-62185000D01*
X176687165Y-62185000D01*
X176858145Y-62150990D01*
X177019205Y-62084277D01*
X177164155Y-61987424D01*
X177287424Y-61864155D01*
X177384277Y-61719205D01*
X177450990Y-61558145D01*
X177485000Y-61387165D01*
X177485000Y-61212835D01*
X177450990Y-61041855D01*
X177384277Y-60880795D01*
X177287424Y-60735845D01*
X177164155Y-60612576D01*
X177019205Y-60515723D01*
X176858145Y-60449010D01*
X176687165Y-60415000D01*
X176512835Y-60415000D01*
X176341855Y-60449010D01*
X176180795Y-60515723D01*
X176035845Y-60612576D01*
X175963421Y-60685000D01*
X149776313Y-60685000D01*
X149844277Y-60583285D01*
X149910990Y-60422225D01*
X149945000Y-60251245D01*
X149945000Y-60076915D01*
X149910990Y-59905935D01*
X149844277Y-59744875D01*
X149747424Y-59599925D01*
X149624155Y-59476656D01*
X149585000Y-59450493D01*
X149585000Y-59412835D01*
X163515000Y-59412835D01*
X163515000Y-59587165D01*
X163549010Y-59758145D01*
X163615723Y-59919205D01*
X163712576Y-60064155D01*
X163835845Y-60187424D01*
X163980795Y-60284277D01*
X164141855Y-60350990D01*
X164312835Y-60385000D01*
X164487165Y-60385000D01*
X164658145Y-60350990D01*
X164819205Y-60284277D01*
X164922885Y-60215000D01*
X177276251Y-60215000D01*
X177418100Y-60309781D01*
X177579160Y-60376494D01*
X177750140Y-60410504D01*
X177924470Y-60410504D01*
X178095450Y-60376494D01*
X178256510Y-60309781D01*
X178401460Y-60212928D01*
X178524729Y-60089659D01*
X178621582Y-59944709D01*
X178633752Y-59915327D01*
X178735845Y-60017420D01*
X178880795Y-60114273D01*
X179041855Y-60180986D01*
X179212835Y-60214996D01*
X179387165Y-60214996D01*
X179558145Y-60180986D01*
X179719205Y-60114273D01*
X179822885Y-60044996D01*
X190363171Y-60044996D01*
X190405845Y-60087670D01*
X190550795Y-60184523D01*
X190711855Y-60251236D01*
X190882835Y-60285246D01*
X191057165Y-60285246D01*
X191228145Y-60251236D01*
X191389205Y-60184523D01*
X191534155Y-60087670D01*
X191657424Y-59964401D01*
X191754277Y-59819451D01*
X191820990Y-59658391D01*
X191828237Y-59621957D01*
X191919205Y-59584277D01*
X192064155Y-59487424D01*
X192187424Y-59364155D01*
X192284277Y-59219205D01*
X192350990Y-59058145D01*
X192385000Y-58887165D01*
X192385000Y-58712835D01*
X192350990Y-58541855D01*
X192284277Y-58380795D01*
X192187424Y-58235845D01*
X192064155Y-58112576D01*
X191919205Y-58015723D01*
X191758145Y-57949010D01*
X191587165Y-57915000D01*
X191412835Y-57915000D01*
X191241855Y-57949010D01*
X191080795Y-58015723D01*
X190977121Y-58084996D01*
X179022885Y-58084996D01*
X178919205Y-58015719D01*
X178758145Y-57949006D01*
X178587165Y-57914996D01*
X178412835Y-57914996D01*
X178241855Y-57949006D01*
X178080795Y-58015719D01*
X177935845Y-58112572D01*
X177812576Y-58235841D01*
X177715723Y-58380791D01*
X177649010Y-58541851D01*
X177624412Y-58665513D01*
X177579160Y-58674514D01*
X177418100Y-58741227D01*
X177352589Y-58785000D01*
X164922885Y-58785000D01*
X164819205Y-58715723D01*
X164658145Y-58649010D01*
X164487165Y-58615000D01*
X164312835Y-58615000D01*
X164141855Y-58649010D01*
X163980795Y-58715723D01*
X163835845Y-58812576D01*
X163712576Y-58935845D01*
X163615723Y-59080795D01*
X163549010Y-59241855D01*
X163515000Y-59412835D01*
X149585000Y-59412835D01*
X149550990Y-59241855D01*
X149484277Y-59080795D01*
X149387424Y-58935845D01*
X149264155Y-58812576D01*
X149119205Y-58715723D01*
X148958145Y-58649010D01*
X148835844Y-58624683D01*
X148800420Y-58589259D01*
X148778026Y-58561972D01*
X148669153Y-58472622D01*
X148544941Y-58406229D01*
X148410163Y-58365345D01*
X148305119Y-58354999D01*
X148305109Y-58354999D01*
X148269999Y-58351541D01*
X148234889Y-58354999D01*
X145315000Y-58354999D01*
X145315000Y-58312835D01*
X145280990Y-58141855D01*
X145214277Y-57980795D01*
X145117424Y-57835845D01*
X144994155Y-57712576D01*
X144878055Y-57635000D01*
X145603252Y-57635000D01*
X145641855Y-57650990D01*
X145812835Y-57685000D01*
X145987165Y-57685000D01*
X146158145Y-57650990D01*
X146196748Y-57635000D01*
X172152705Y-57635000D01*
X172298102Y-57695226D01*
X172498061Y-57735000D01*
X172701939Y-57735000D01*
X172901898Y-57695226D01*
X173090256Y-57617205D01*
X173259774Y-57503937D01*
X173403937Y-57359774D01*
X173517205Y-57190256D01*
X173595226Y-57001898D01*
X173635000Y-56801939D01*
X173635000Y-56598061D01*
X173595226Y-56398102D01*
X173517205Y-56209744D01*
X173403937Y-56040226D01*
X173259774Y-55896063D01*
X173090256Y-55782795D01*
X172901898Y-55704774D01*
X172701939Y-55665000D01*
X172498061Y-55665000D01*
X172298102Y-55704774D01*
X172109744Y-55782795D01*
X171940226Y-55896063D01*
X171871289Y-55965000D01*
X146196748Y-55965000D01*
X146158145Y-55949010D01*
X145987165Y-55915000D01*
X145812835Y-55915000D01*
X145641855Y-55949010D01*
X145603252Y-55965000D01*
X144653678Y-55965000D01*
X144684277Y-55919205D01*
X144750990Y-55758145D01*
X144785000Y-55587165D01*
X144785000Y-55486019D01*
X144941855Y-55550990D01*
X145112835Y-55585000D01*
X145287165Y-55585000D01*
X145458145Y-55550990D01*
X145619205Y-55484277D01*
X145764155Y-55387424D01*
X145887424Y-55264155D01*
X145984277Y-55119205D01*
X146050990Y-54958145D01*
X146085000Y-54787165D01*
X146085000Y-54779872D01*
X192765000Y-54779872D01*
X192765000Y-55220128D01*
X192850890Y-55651925D01*
X193019369Y-56058669D01*
X193263962Y-56424729D01*
X193575271Y-56736038D01*
X193941331Y-56980631D01*
X194348075Y-57149110D01*
X194779872Y-57235000D01*
X195220128Y-57235000D01*
X195651925Y-57149110D01*
X196058669Y-56980631D01*
X196424729Y-56736038D01*
X196736038Y-56424729D01*
X196980631Y-56058669D01*
X197149110Y-55651925D01*
X197235000Y-55220128D01*
X197235000Y-54779872D01*
X197149110Y-54348075D01*
X196980631Y-53941331D01*
X196736038Y-53575271D01*
X196424729Y-53263962D01*
X196058669Y-53019369D01*
X195651925Y-52850890D01*
X195220128Y-52765000D01*
X194779872Y-52765000D01*
X194348075Y-52850890D01*
X193941331Y-53019369D01*
X193575271Y-53263962D01*
X193263962Y-53575271D01*
X193019369Y-53941331D01*
X192850890Y-54348075D01*
X192765000Y-54779872D01*
X146085000Y-54779872D01*
X146085000Y-54612835D01*
X146050990Y-54441855D01*
X145984277Y-54280795D01*
X145887424Y-54135845D01*
X145764155Y-54012576D01*
X145619205Y-53915723D01*
X145458145Y-53849010D01*
X145287165Y-53815000D01*
X145112835Y-53815000D01*
X144941855Y-53849010D01*
X144780795Y-53915723D01*
X144677115Y-53985000D01*
X141422885Y-53985000D01*
X141319205Y-53915723D01*
X141158145Y-53849010D01*
X140987165Y-53815000D01*
X140812835Y-53815000D01*
X140641855Y-53849010D01*
X140480795Y-53915723D01*
X140335845Y-54012576D01*
X140212576Y-54135845D01*
X140115723Y-54280795D01*
X140049010Y-54441855D01*
X140015000Y-54612835D01*
X140015000Y-54785000D01*
X139522888Y-54785000D01*
X139419208Y-54715723D01*
X139258148Y-54649010D01*
X139087168Y-54615000D01*
X138912838Y-54615000D01*
X138741858Y-54649010D01*
X138650002Y-54687058D01*
X138558145Y-54649010D01*
X138387165Y-54615000D01*
X138212835Y-54615000D01*
X138041855Y-54649010D01*
X137880795Y-54715723D01*
X137777115Y-54785000D01*
X134072885Y-54785000D01*
X133969205Y-54715723D01*
X133808145Y-54649010D01*
X133637165Y-54615000D01*
X133462835Y-54615000D01*
X133291855Y-54649010D01*
X133130795Y-54715723D01*
X132985845Y-54812576D01*
X132862576Y-54935845D01*
X132765723Y-55080795D01*
X132747253Y-55125385D01*
X132687424Y-55035845D01*
X132564155Y-54912576D01*
X132419205Y-54815723D01*
X132258145Y-54749010D01*
X132087165Y-54715000D01*
X131912835Y-54715000D01*
X131741855Y-54749010D01*
X131580795Y-54815723D01*
X131477115Y-54885000D01*
X126736579Y-54885000D01*
X126664155Y-54812576D01*
X126519205Y-54715723D01*
X126358145Y-54649010D01*
X126187165Y-54615000D01*
X126012835Y-54615000D01*
X125841855Y-54649010D01*
X125680795Y-54715723D01*
X125535845Y-54812576D01*
X125412576Y-54935845D01*
X125315723Y-55080795D01*
X125249010Y-55241855D01*
X125215000Y-55412835D01*
X125215000Y-55587165D01*
X125249010Y-55758145D01*
X125293271Y-55865000D01*
X120813285Y-55865000D01*
X120690256Y-55782795D01*
X120501898Y-55704774D01*
X120301939Y-55665000D01*
X120098061Y-55665000D01*
X119898102Y-55704774D01*
X119709744Y-55782795D01*
X119540226Y-55896063D01*
X119396063Y-56040226D01*
X119282795Y-56209744D01*
X119204774Y-56398102D01*
X119165000Y-56598061D01*
X119165000Y-56801939D01*
X119204774Y-57001898D01*
X119282795Y-57190256D01*
X119396063Y-57359774D01*
X119540226Y-57503937D01*
X119661546Y-57585000D01*
X118422885Y-57585000D01*
X118319205Y-57515723D01*
X118158145Y-57449010D01*
X117987165Y-57415000D01*
X117812835Y-57415000D01*
X117641855Y-57449010D01*
X117480795Y-57515723D01*
X117335845Y-57612576D01*
X117212576Y-57735845D01*
X117115723Y-57880795D01*
X117049010Y-58041855D01*
X117020537Y-58185000D01*
X116122885Y-58185000D01*
X116019205Y-58115723D01*
X115858145Y-58049010D01*
X115687165Y-58015000D01*
X115512835Y-58015000D01*
X115341855Y-58049010D01*
X115180795Y-58115723D01*
X115035845Y-58212576D01*
X114912576Y-58335845D01*
X114815723Y-58480795D01*
X114749010Y-58641855D01*
X114715000Y-58812835D01*
X100660000Y-58812835D01*
X100660000Y-54779872D01*
X102765000Y-54779872D01*
X102765000Y-55220128D01*
X102850890Y-55651925D01*
X103019369Y-56058669D01*
X103263962Y-56424729D01*
X103575271Y-56736038D01*
X103941331Y-56980631D01*
X104348075Y-57149110D01*
X104779872Y-57235000D01*
X105220128Y-57235000D01*
X105651925Y-57149110D01*
X106058669Y-56980631D01*
X106424729Y-56736038D01*
X106736038Y-56424729D01*
X106980631Y-56058669D01*
X107149110Y-55651925D01*
X107235000Y-55220128D01*
X107235000Y-54779872D01*
X107149110Y-54348075D01*
X106980631Y-53941331D01*
X106736038Y-53575271D01*
X106723601Y-53562834D01*
X125415000Y-53562834D01*
X125415000Y-53737164D01*
X125449010Y-53908144D01*
X125515723Y-54069204D01*
X125612576Y-54214154D01*
X125735845Y-54337423D01*
X125880795Y-54434276D01*
X126041855Y-54500989D01*
X126212835Y-54534999D01*
X126387165Y-54534999D01*
X126558145Y-54500989D01*
X126719205Y-54434276D01*
X126822885Y-54364999D01*
X129313420Y-54364999D01*
X129335845Y-54387424D01*
X129480795Y-54484277D01*
X129641855Y-54550990D01*
X129812835Y-54585000D01*
X129987165Y-54585000D01*
X130158145Y-54550990D01*
X130319205Y-54484277D01*
X130464155Y-54387424D01*
X130587424Y-54264155D01*
X130684277Y-54119205D01*
X130750990Y-53958145D01*
X130785000Y-53787165D01*
X130785000Y-53612835D01*
X130750990Y-53441855D01*
X130684277Y-53280795D01*
X130587424Y-53135845D01*
X130464155Y-53012576D01*
X130319205Y-52915723D01*
X130158145Y-52849010D01*
X129987165Y-52815000D01*
X129812835Y-52815000D01*
X129641855Y-52849010D01*
X129480795Y-52915723D01*
X129451947Y-52934999D01*
X126822885Y-52934999D01*
X126719205Y-52865722D01*
X126558145Y-52799009D01*
X126387165Y-52764999D01*
X126212835Y-52764999D01*
X126041855Y-52799009D01*
X125880795Y-52865722D01*
X125735845Y-52962575D01*
X125612576Y-53085844D01*
X125515723Y-53230794D01*
X125449010Y-53391854D01*
X125415000Y-53562834D01*
X106723601Y-53562834D01*
X106424729Y-53263962D01*
X106058669Y-53019369D01*
X105651925Y-52850890D01*
X105220128Y-52765000D01*
X104779872Y-52765000D01*
X104348075Y-52850890D01*
X103941331Y-53019369D01*
X103575271Y-53263962D01*
X103263962Y-53575271D01*
X103019369Y-53941331D01*
X102850890Y-54348075D01*
X102765000Y-54779872D01*
X100660000Y-54779872D01*
X100660000Y-50660000D01*
X199340000Y-50660000D01*
X199340001Y-149340000D01*
G36*
X152370657Y-116406229D02*
G01*
X152246445Y-116472622D01*
X152182635Y-116524990D01*
X145887365Y-116524990D01*
X145823555Y-116472622D01*
X145699343Y-116406229D01*
X145596397Y-116375001D01*
X152473603Y-116375001D01*
X152370657Y-116406229D01*
G37*
X152370657Y-116406229D02*
X152246445Y-116472622D01*
X152182635Y-116524990D01*
X145887365Y-116524990D01*
X145823555Y-116472622D01*
X145699343Y-116406229D01*
X145596397Y-116375001D01*
X152473603Y-116375001D01*
X152370657Y-116406229D01*
G36*
X131335845Y-98337424D02*
G01*
X131407047Y-98385000D01*
X112248561Y-98385000D01*
X112240280Y-98376719D01*
X112308246Y-98275000D01*
X131273421Y-98275000D01*
X131335845Y-98337424D01*
G37*
X131335845Y-98337424D02*
X131407047Y-98385000D01*
X112248561Y-98385000D01*
X112240280Y-98376719D01*
X112308246Y-98275000D01*
X131273421Y-98275000D01*
X131335845Y-98337424D01*
M02*
