G04 #@! TF.GenerationSoftware,KiCad,Pcbnew,(5.1.5-0-10_14)*
G04 #@! TF.CreationDate,2020-03-03T11:53:45+01:00*
G04 #@! TF.ProjectId,control,636f6e74-726f-46c2-9e6b-696361645f70,1*
G04 #@! TF.SameCoordinates,Original*
G04 #@! TF.FileFunction,Legend,Top*
G04 #@! TF.FilePolarity,Positive*
%FSLAX46Y46*%
G04 Gerber Fmt 4.6, Leading zero omitted, Abs format (unit mm)*
G04 Created by KiCad (PCBNEW (5.1.5-0-10_14)) date 2020-03-03 11:53:45*
%MOMM*%
%LPD*%
G04 APERTURE LIST*
%ADD10C,0.150000*%
%ADD11C,0.120000*%
%ADD12C,0.600000*%
G04 APERTURE END LIST*
D10*
X186988095Y-120404761D02*
X187130952Y-120452380D01*
X187369047Y-120452380D01*
X187464285Y-120404761D01*
X187511904Y-120357142D01*
X187559523Y-120261904D01*
X187559523Y-120166666D01*
X187511904Y-120071428D01*
X187464285Y-120023809D01*
X187369047Y-119976190D01*
X187178571Y-119928571D01*
X187083333Y-119880952D01*
X187035714Y-119833333D01*
X186988095Y-119738095D01*
X186988095Y-119642857D01*
X187035714Y-119547619D01*
X187083333Y-119500000D01*
X187178571Y-119452380D01*
X187416666Y-119452380D01*
X187559523Y-119500000D01*
X188511904Y-120452380D02*
X187940476Y-120452380D01*
X188226190Y-120452380D02*
X188226190Y-119452380D01*
X188130952Y-119595238D01*
X188035714Y-119690476D01*
X187940476Y-119738095D01*
X191738095Y-120404761D02*
X191880952Y-120452380D01*
X192119047Y-120452380D01*
X192214285Y-120404761D01*
X192261904Y-120357142D01*
X192309523Y-120261904D01*
X192309523Y-120166666D01*
X192261904Y-120071428D01*
X192214285Y-120023809D01*
X192119047Y-119976190D01*
X191928571Y-119928571D01*
X191833333Y-119880952D01*
X191785714Y-119833333D01*
X191738095Y-119738095D01*
X191738095Y-119642857D01*
X191785714Y-119547619D01*
X191833333Y-119500000D01*
X191928571Y-119452380D01*
X192166666Y-119452380D01*
X192309523Y-119500000D01*
X192690476Y-119547619D02*
X192738095Y-119500000D01*
X192833333Y-119452380D01*
X193071428Y-119452380D01*
X193166666Y-119500000D01*
X193214285Y-119547619D01*
X193261904Y-119642857D01*
X193261904Y-119738095D01*
X193214285Y-119880952D01*
X192642857Y-120452380D01*
X193261904Y-120452380D01*
X194845238Y-117085000D02*
X195845238Y-117085000D01*
X195654761Y-118357142D02*
X195607142Y-118404761D01*
X195464285Y-118452380D01*
X195369047Y-118452380D01*
X195226190Y-118404761D01*
X195130952Y-118309523D01*
X195083333Y-118214285D01*
X195035714Y-118023809D01*
X195035714Y-117880952D01*
X195083333Y-117690476D01*
X195130952Y-117595238D01*
X195226190Y-117500000D01*
X195369047Y-117452380D01*
X195464285Y-117452380D01*
X195607142Y-117500000D01*
X195654761Y-117547619D01*
X195845238Y-117085000D02*
X196654761Y-117085000D01*
X196559523Y-118452380D02*
X196083333Y-118452380D01*
X196083333Y-117452380D01*
X196654761Y-117085000D02*
X197654761Y-117085000D01*
X196892857Y-118452380D02*
X196892857Y-117452380D01*
X197464285Y-118452380D02*
X197035714Y-117880952D01*
X197464285Y-117452380D02*
X196892857Y-118023809D01*
X195654761Y-116107142D02*
X195607142Y-116154761D01*
X195464285Y-116202380D01*
X195369047Y-116202380D01*
X195226190Y-116154761D01*
X195130952Y-116059523D01*
X195083333Y-115964285D01*
X195035714Y-115773809D01*
X195035714Y-115630952D01*
X195083333Y-115440476D01*
X195130952Y-115345238D01*
X195226190Y-115250000D01*
X195369047Y-115202380D01*
X195464285Y-115202380D01*
X195607142Y-115250000D01*
X195654761Y-115297619D01*
X196559523Y-116202380D02*
X196083333Y-116202380D01*
X196083333Y-115202380D01*
X196892857Y-116202380D02*
X196892857Y-115202380D01*
X197464285Y-116202380D02*
X197035714Y-115630952D01*
X197464285Y-115202380D02*
X196892857Y-115773809D01*
X114627380Y-144478452D02*
X113627380Y-144478452D01*
X114341666Y-144145119D01*
X113627380Y-143811785D01*
X114627380Y-143811785D01*
X114579761Y-142954642D02*
X114627380Y-143049880D01*
X114627380Y-143240357D01*
X114579761Y-143335595D01*
X114484523Y-143383214D01*
X114103571Y-143383214D01*
X114008333Y-143335595D01*
X113960714Y-143240357D01*
X113960714Y-143049880D01*
X114008333Y-142954642D01*
X114103571Y-142907023D01*
X114198809Y-142907023D01*
X114294047Y-143383214D01*
X114627380Y-142478452D02*
X113960714Y-142478452D01*
X114055952Y-142478452D02*
X114008333Y-142430833D01*
X113960714Y-142335595D01*
X113960714Y-142192738D01*
X114008333Y-142097500D01*
X114103571Y-142049880D01*
X114627380Y-142049880D01*
X114103571Y-142049880D02*
X114008333Y-142002261D01*
X113960714Y-141907023D01*
X113960714Y-141764166D01*
X114008333Y-141668928D01*
X114103571Y-141621309D01*
X114627380Y-141621309D01*
X114627380Y-141002261D02*
X114579761Y-141097500D01*
X114532142Y-141145119D01*
X114436904Y-141192738D01*
X114151190Y-141192738D01*
X114055952Y-141145119D01*
X114008333Y-141097500D01*
X113960714Y-141002261D01*
X113960714Y-140859404D01*
X114008333Y-140764166D01*
X114055952Y-140716547D01*
X114151190Y-140668928D01*
X114436904Y-140668928D01*
X114532142Y-140716547D01*
X114579761Y-140764166D01*
X114627380Y-140859404D01*
X114627380Y-141002261D01*
X114627380Y-140240357D02*
X113960714Y-140240357D01*
X114151190Y-140240357D02*
X114055952Y-140192738D01*
X114008333Y-140145119D01*
X113960714Y-140049880D01*
X113960714Y-139954642D01*
X113960714Y-139716547D02*
X114627380Y-139478452D01*
X113960714Y-139240357D02*
X114627380Y-139478452D01*
X114865476Y-139573690D01*
X114913095Y-139621309D01*
X114960714Y-139716547D01*
X116229761Y-143716547D02*
X116277380Y-143811785D01*
X116277380Y-144002261D01*
X116229761Y-144097500D01*
X116182142Y-144145119D01*
X116086904Y-144192738D01*
X115801190Y-144192738D01*
X115705952Y-144145119D01*
X115658333Y-144097500D01*
X115610714Y-144002261D01*
X115610714Y-143811785D01*
X115658333Y-143716547D01*
X116277380Y-143145119D02*
X116229761Y-143240357D01*
X116182142Y-143287976D01*
X116086904Y-143335595D01*
X115801190Y-143335595D01*
X115705952Y-143287976D01*
X115658333Y-143240357D01*
X115610714Y-143145119D01*
X115610714Y-143002261D01*
X115658333Y-142907023D01*
X115705952Y-142859404D01*
X115801190Y-142811785D01*
X116086904Y-142811785D01*
X116182142Y-142859404D01*
X116229761Y-142907023D01*
X116277380Y-143002261D01*
X116277380Y-143145119D01*
X115610714Y-142383214D02*
X116277380Y-142383214D01*
X115705952Y-142383214D02*
X115658333Y-142335595D01*
X115610714Y-142240357D01*
X115610714Y-142097500D01*
X115658333Y-142002261D01*
X115753571Y-141954642D01*
X116277380Y-141954642D01*
X115610714Y-141621309D02*
X115610714Y-141240357D01*
X115277380Y-141478452D02*
X116134523Y-141478452D01*
X116229761Y-141430833D01*
X116277380Y-141335595D01*
X116277380Y-141240357D01*
X116277380Y-140907023D02*
X115610714Y-140907023D01*
X115801190Y-140907023D02*
X115705952Y-140859404D01*
X115658333Y-140811785D01*
X115610714Y-140716547D01*
X115610714Y-140621309D01*
X116277380Y-140145119D02*
X116229761Y-140240357D01*
X116182142Y-140287976D01*
X116086904Y-140335595D01*
X115801190Y-140335595D01*
X115705952Y-140287976D01*
X115658333Y-140240357D01*
X115610714Y-140145119D01*
X115610714Y-140002261D01*
X115658333Y-139907023D01*
X115705952Y-139859404D01*
X115801190Y-139811785D01*
X116086904Y-139811785D01*
X116182142Y-139859404D01*
X116229761Y-139907023D01*
X116277380Y-140002261D01*
X116277380Y-140145119D01*
X116277380Y-139240357D02*
X116229761Y-139335595D01*
X116134523Y-139383214D01*
X115277380Y-139383214D01*
D11*
X113500000Y-138000000D02*
X116500000Y-138000000D01*
D10*
X120627380Y-144621309D02*
X119627380Y-144621309D01*
X119960714Y-144145119D02*
X120627380Y-144145119D01*
X120055952Y-144145119D02*
X120008333Y-144097500D01*
X119960714Y-144002261D01*
X119960714Y-143859404D01*
X120008333Y-143764166D01*
X120103571Y-143716547D01*
X120627380Y-143716547D01*
X119960714Y-143383214D02*
X119960714Y-143002261D01*
X119627380Y-143240357D02*
X120484523Y-143240357D01*
X120579761Y-143192738D01*
X120627380Y-143097500D01*
X120627380Y-143002261D01*
X120579761Y-142287976D02*
X120627380Y-142383214D01*
X120627380Y-142573690D01*
X120579761Y-142668928D01*
X120484523Y-142716547D01*
X120103571Y-142716547D01*
X120008333Y-142668928D01*
X119960714Y-142573690D01*
X119960714Y-142383214D01*
X120008333Y-142287976D01*
X120103571Y-142240357D01*
X120198809Y-142240357D01*
X120294047Y-142716547D01*
X120627380Y-141811785D02*
X119960714Y-141811785D01*
X120151190Y-141811785D02*
X120055952Y-141764166D01*
X120008333Y-141716547D01*
X119960714Y-141621309D01*
X119960714Y-141526071D01*
X119960714Y-141192738D02*
X120627380Y-141192738D01*
X120055952Y-141192738D02*
X120008333Y-141145119D01*
X119960714Y-141049880D01*
X119960714Y-140907023D01*
X120008333Y-140811785D01*
X120103571Y-140764166D01*
X120627380Y-140764166D01*
X120627380Y-139859404D02*
X120103571Y-139859404D01*
X120008333Y-139907023D01*
X119960714Y-140002261D01*
X119960714Y-140192738D01*
X120008333Y-140287976D01*
X120579761Y-139859404D02*
X120627380Y-139954642D01*
X120627380Y-140192738D01*
X120579761Y-140287976D01*
X120484523Y-140335595D01*
X120389285Y-140335595D01*
X120294047Y-140287976D01*
X120246428Y-140192738D01*
X120246428Y-139954642D01*
X120198809Y-139859404D01*
X120627380Y-139240357D02*
X120579761Y-139335595D01*
X120484523Y-139383214D01*
X119627380Y-139383214D01*
X122277380Y-147430833D02*
X121277380Y-147430833D01*
X122229761Y-147430833D02*
X122277380Y-147526071D01*
X122277380Y-147716547D01*
X122229761Y-147811785D01*
X122182142Y-147859404D01*
X122086904Y-147907023D01*
X121801190Y-147907023D01*
X121705952Y-147859404D01*
X121658333Y-147811785D01*
X121610714Y-147716547D01*
X121610714Y-147526071D01*
X121658333Y-147430833D01*
X122277380Y-146526071D02*
X121753571Y-146526071D01*
X121658333Y-146573690D01*
X121610714Y-146668928D01*
X121610714Y-146859404D01*
X121658333Y-146954642D01*
X122229761Y-146526071D02*
X122277380Y-146621309D01*
X122277380Y-146859404D01*
X122229761Y-146954642D01*
X122134523Y-147002261D01*
X122039285Y-147002261D01*
X121944047Y-146954642D01*
X121896428Y-146859404D01*
X121896428Y-146621309D01*
X121848809Y-146526071D01*
X121610714Y-146192738D02*
X121610714Y-145811785D01*
X121277380Y-146049880D02*
X122134523Y-146049880D01*
X122229761Y-146002261D01*
X122277380Y-145907023D01*
X122277380Y-145811785D01*
X122277380Y-145049880D02*
X121753571Y-145049880D01*
X121658333Y-145097500D01*
X121610714Y-145192738D01*
X121610714Y-145383214D01*
X121658333Y-145478452D01*
X122229761Y-145049880D02*
X122277380Y-145145119D01*
X122277380Y-145383214D01*
X122229761Y-145478452D01*
X122134523Y-145526071D01*
X122039285Y-145526071D01*
X121944047Y-145478452D01*
X121896428Y-145383214D01*
X121896428Y-145145119D01*
X121848809Y-145049880D01*
X122229761Y-143859404D02*
X122277380Y-143764166D01*
X122277380Y-143573690D01*
X122229761Y-143478452D01*
X122134523Y-143430833D01*
X122086904Y-143430833D01*
X121991666Y-143478452D01*
X121944047Y-143573690D01*
X121944047Y-143716547D01*
X121896428Y-143811785D01*
X121801190Y-143859404D01*
X121753571Y-143859404D01*
X121658333Y-143811785D01*
X121610714Y-143716547D01*
X121610714Y-143573690D01*
X121658333Y-143478452D01*
X122277380Y-142859404D02*
X122229761Y-142954642D01*
X122182142Y-143002261D01*
X122086904Y-143049880D01*
X121801190Y-143049880D01*
X121705952Y-143002261D01*
X121658333Y-142954642D01*
X121610714Y-142859404D01*
X121610714Y-142716547D01*
X121658333Y-142621309D01*
X121705952Y-142573690D01*
X121801190Y-142526071D01*
X122086904Y-142526071D01*
X122182142Y-142573690D01*
X122229761Y-142621309D01*
X122277380Y-142716547D01*
X122277380Y-142859404D01*
X121610714Y-141668928D02*
X122277380Y-141668928D01*
X121610714Y-142097500D02*
X122134523Y-142097500D01*
X122229761Y-142049880D01*
X122277380Y-141954642D01*
X122277380Y-141811785D01*
X122229761Y-141716547D01*
X122182142Y-141668928D01*
X122277380Y-141192738D02*
X121610714Y-141192738D01*
X121801190Y-141192738D02*
X121705952Y-141145119D01*
X121658333Y-141097500D01*
X121610714Y-141002261D01*
X121610714Y-140907023D01*
X122229761Y-140145119D02*
X122277380Y-140240357D01*
X122277380Y-140430833D01*
X122229761Y-140526071D01*
X122182142Y-140573690D01*
X122086904Y-140621309D01*
X121801190Y-140621309D01*
X121705952Y-140573690D01*
X121658333Y-140526071D01*
X121610714Y-140430833D01*
X121610714Y-140240357D01*
X121658333Y-140145119D01*
X122229761Y-139335595D02*
X122277380Y-139430833D01*
X122277380Y-139621309D01*
X122229761Y-139716547D01*
X122134523Y-139764166D01*
X121753571Y-139764166D01*
X121658333Y-139716547D01*
X121610714Y-139621309D01*
X121610714Y-139430833D01*
X121658333Y-139335595D01*
X121753571Y-139287976D01*
X121848809Y-139287976D01*
X121944047Y-139764166D01*
X125627380Y-142621309D02*
X126627380Y-142383214D01*
X125913095Y-142192738D01*
X126627380Y-142002261D01*
X125627380Y-141764166D01*
X126627380Y-141383214D02*
X125960714Y-141383214D01*
X126151190Y-141383214D02*
X126055952Y-141335595D01*
X126008333Y-141287976D01*
X125960714Y-141192738D01*
X125960714Y-141097500D01*
X126627380Y-140764166D02*
X125960714Y-140764166D01*
X125627380Y-140764166D02*
X125675000Y-140811785D01*
X125722619Y-140764166D01*
X125675000Y-140716547D01*
X125627380Y-140764166D01*
X125722619Y-140764166D01*
X125960714Y-140430833D02*
X125960714Y-140049880D01*
X125627380Y-140287976D02*
X126484523Y-140287976D01*
X126579761Y-140240357D01*
X126627380Y-140145119D01*
X126627380Y-140049880D01*
X126579761Y-139335595D02*
X126627380Y-139430833D01*
X126627380Y-139621309D01*
X126579761Y-139716547D01*
X126484523Y-139764166D01*
X126103571Y-139764166D01*
X126008333Y-139716547D01*
X125960714Y-139621309D01*
X125960714Y-139430833D01*
X126008333Y-139335595D01*
X126103571Y-139287976D01*
X126198809Y-139287976D01*
X126294047Y-139764166D01*
X128277380Y-145383214D02*
X127610714Y-145383214D01*
X127801190Y-145383214D02*
X127705952Y-145335595D01*
X127658333Y-145287976D01*
X127610714Y-145192738D01*
X127610714Y-145097500D01*
X128229761Y-144383214D02*
X128277380Y-144478452D01*
X128277380Y-144668928D01*
X128229761Y-144764166D01*
X128134523Y-144811785D01*
X127753571Y-144811785D01*
X127658333Y-144764166D01*
X127610714Y-144668928D01*
X127610714Y-144478452D01*
X127658333Y-144383214D01*
X127753571Y-144335595D01*
X127848809Y-144335595D01*
X127944047Y-144811785D01*
X127610714Y-143478452D02*
X128420238Y-143478452D01*
X128515476Y-143526071D01*
X128563095Y-143573690D01*
X128610714Y-143668928D01*
X128610714Y-143811785D01*
X128563095Y-143907023D01*
X128229761Y-143478452D02*
X128277380Y-143573690D01*
X128277380Y-143764166D01*
X128229761Y-143859404D01*
X128182142Y-143907023D01*
X128086904Y-143954642D01*
X127801190Y-143954642D01*
X127705952Y-143907023D01*
X127658333Y-143859404D01*
X127610714Y-143764166D01*
X127610714Y-143573690D01*
X127658333Y-143478452D01*
X128277380Y-143002261D02*
X127610714Y-143002261D01*
X127277380Y-143002261D02*
X127325000Y-143049880D01*
X127372619Y-143002261D01*
X127325000Y-142954642D01*
X127277380Y-143002261D01*
X127372619Y-143002261D01*
X128229761Y-142573690D02*
X128277380Y-142478452D01*
X128277380Y-142287976D01*
X128229761Y-142192738D01*
X128134523Y-142145119D01*
X128086904Y-142145119D01*
X127991666Y-142192738D01*
X127944047Y-142287976D01*
X127944047Y-142430833D01*
X127896428Y-142526071D01*
X127801190Y-142573690D01*
X127753571Y-142573690D01*
X127658333Y-142526071D01*
X127610714Y-142430833D01*
X127610714Y-142287976D01*
X127658333Y-142192738D01*
X127610714Y-141859404D02*
X127610714Y-141478452D01*
X127277380Y-141716547D02*
X128134523Y-141716547D01*
X128229761Y-141668928D01*
X128277380Y-141573690D01*
X128277380Y-141478452D01*
X128229761Y-140764166D02*
X128277380Y-140859404D01*
X128277380Y-141049880D01*
X128229761Y-141145119D01*
X128134523Y-141192738D01*
X127753571Y-141192738D01*
X127658333Y-141145119D01*
X127610714Y-141049880D01*
X127610714Y-140859404D01*
X127658333Y-140764166D01*
X127753571Y-140716547D01*
X127848809Y-140716547D01*
X127944047Y-141192738D01*
X128277380Y-140287976D02*
X127610714Y-140287976D01*
X127801190Y-140287976D02*
X127705952Y-140240357D01*
X127658333Y-140192738D01*
X127610714Y-140097500D01*
X127610714Y-140002261D01*
X128229761Y-139716547D02*
X128277380Y-139621309D01*
X128277380Y-139430833D01*
X128229761Y-139335595D01*
X128134523Y-139287976D01*
X128086904Y-139287976D01*
X127991666Y-139335595D01*
X127944047Y-139430833D01*
X127944047Y-139573690D01*
X127896428Y-139668928D01*
X127801190Y-139716547D01*
X127753571Y-139716547D01*
X127658333Y-139668928D01*
X127610714Y-139573690D01*
X127610714Y-139430833D01*
X127658333Y-139335595D01*
X132627380Y-142573690D02*
X131627380Y-142573690D01*
X131627380Y-142335595D01*
X131675000Y-142192738D01*
X131770238Y-142097500D01*
X131865476Y-142049880D01*
X132055952Y-142002261D01*
X132198809Y-142002261D01*
X132389285Y-142049880D01*
X132484523Y-142097500D01*
X132579761Y-142192738D01*
X132627380Y-142335595D01*
X132627380Y-142573690D01*
X132627380Y-141573690D02*
X131960714Y-141573690D01*
X132151190Y-141573690D02*
X132055952Y-141526071D01*
X132008333Y-141478452D01*
X131960714Y-141383214D01*
X131960714Y-141287976D01*
X132627380Y-140954642D02*
X131960714Y-140954642D01*
X131627380Y-140954642D02*
X131675000Y-141002261D01*
X131722619Y-140954642D01*
X131675000Y-140907023D01*
X131627380Y-140954642D01*
X131722619Y-140954642D01*
X131960714Y-140573690D02*
X132627380Y-140335595D01*
X131960714Y-140097500D01*
X132579761Y-139335595D02*
X132627380Y-139430833D01*
X132627380Y-139621309D01*
X132579761Y-139716547D01*
X132484523Y-139764166D01*
X132103571Y-139764166D01*
X132008333Y-139716547D01*
X131960714Y-139621309D01*
X131960714Y-139430833D01*
X132008333Y-139335595D01*
X132103571Y-139287976D01*
X132198809Y-139287976D01*
X132294047Y-139764166D01*
X134277380Y-145097500D02*
X133277380Y-145097500D01*
X134229761Y-145097500D02*
X134277380Y-145192738D01*
X134277380Y-145383214D01*
X134229761Y-145478452D01*
X134182142Y-145526071D01*
X134086904Y-145573690D01*
X133801190Y-145573690D01*
X133705952Y-145526071D01*
X133658333Y-145478452D01*
X133610714Y-145383214D01*
X133610714Y-145192738D01*
X133658333Y-145097500D01*
X134277380Y-144192738D02*
X133753571Y-144192738D01*
X133658333Y-144240357D01*
X133610714Y-144335595D01*
X133610714Y-144526071D01*
X133658333Y-144621309D01*
X134229761Y-144192738D02*
X134277380Y-144287976D01*
X134277380Y-144526071D01*
X134229761Y-144621309D01*
X134134523Y-144668928D01*
X134039285Y-144668928D01*
X133944047Y-144621309D01*
X133896428Y-144526071D01*
X133896428Y-144287976D01*
X133848809Y-144192738D01*
X133610714Y-143859404D02*
X133610714Y-143478452D01*
X133277380Y-143716547D02*
X134134523Y-143716547D01*
X134229761Y-143668928D01*
X134277380Y-143573690D01*
X134277380Y-143478452D01*
X134277380Y-142716547D02*
X133753571Y-142716547D01*
X133658333Y-142764166D01*
X133610714Y-142859404D01*
X133610714Y-143049880D01*
X133658333Y-143145119D01*
X134229761Y-142716547D02*
X134277380Y-142811785D01*
X134277380Y-143049880D01*
X134229761Y-143145119D01*
X134134523Y-143192738D01*
X134039285Y-143192738D01*
X133944047Y-143145119D01*
X133896428Y-143049880D01*
X133896428Y-142811785D01*
X133848809Y-142716547D01*
X134277380Y-141478452D02*
X133277380Y-141478452D01*
X133658333Y-141478452D02*
X133610714Y-141383214D01*
X133610714Y-141192738D01*
X133658333Y-141097500D01*
X133705952Y-141049880D01*
X133801190Y-141002261D01*
X134086904Y-141002261D01*
X134182142Y-141049880D01*
X134229761Y-141097500D01*
X134277380Y-141192738D01*
X134277380Y-141383214D01*
X134229761Y-141478452D01*
X133610714Y-140145119D02*
X134277380Y-140145119D01*
X133610714Y-140573690D02*
X134134523Y-140573690D01*
X134229761Y-140526071D01*
X134277380Y-140430833D01*
X134277380Y-140287976D01*
X134229761Y-140192738D01*
X134182142Y-140145119D01*
X134229761Y-139716547D02*
X134277380Y-139621309D01*
X134277380Y-139430833D01*
X134229761Y-139335595D01*
X134134523Y-139287976D01*
X134086904Y-139287976D01*
X133991666Y-139335595D01*
X133944047Y-139430833D01*
X133944047Y-139573690D01*
X133896428Y-139668928D01*
X133801190Y-139716547D01*
X133753571Y-139716547D01*
X133658333Y-139668928D01*
X133610714Y-139573690D01*
X133610714Y-139430833D01*
X133658333Y-139335595D01*
X137341666Y-143383214D02*
X137341666Y-142907023D01*
X137627380Y-143478452D02*
X136627380Y-143145119D01*
X137627380Y-142811785D01*
X137627380Y-142002261D02*
X137627380Y-142478452D01*
X136627380Y-142478452D01*
X136627380Y-141668928D02*
X137436904Y-141668928D01*
X137532142Y-141621309D01*
X137579761Y-141573690D01*
X137627380Y-141478452D01*
X137627380Y-141287976D01*
X137579761Y-141192738D01*
X137532142Y-141145119D01*
X137436904Y-141097500D01*
X136627380Y-141097500D01*
X137103571Y-139526071D02*
X137151190Y-139383214D01*
X137198809Y-139335595D01*
X137294047Y-139287976D01*
X137436904Y-139287976D01*
X137532142Y-139335595D01*
X137579761Y-139383214D01*
X137627380Y-139478452D01*
X137627380Y-139859404D01*
X136627380Y-139859404D01*
X136627380Y-139526071D01*
X136675000Y-139430833D01*
X136722619Y-139383214D01*
X136817857Y-139335595D01*
X136913095Y-139335595D01*
X137008333Y-139383214D01*
X137055952Y-139430833D01*
X137103571Y-139526071D01*
X137103571Y-139859404D01*
X139277380Y-142621309D02*
X138610714Y-142621309D01*
X138277380Y-142621309D02*
X138325000Y-142668928D01*
X138372619Y-142621309D01*
X138325000Y-142573690D01*
X138277380Y-142621309D01*
X138372619Y-142621309D01*
X138610714Y-142145119D02*
X139277380Y-142145119D01*
X138705952Y-142145119D02*
X138658333Y-142097500D01*
X138610714Y-142002261D01*
X138610714Y-141859404D01*
X138658333Y-141764166D01*
X138753571Y-141716547D01*
X139277380Y-141716547D01*
X138610714Y-141240357D02*
X139610714Y-141240357D01*
X138658333Y-141240357D02*
X138610714Y-141145119D01*
X138610714Y-140954642D01*
X138658333Y-140859404D01*
X138705952Y-140811785D01*
X138801190Y-140764166D01*
X139086904Y-140764166D01*
X139182142Y-140811785D01*
X139229761Y-140859404D01*
X139277380Y-140954642D01*
X139277380Y-141145119D01*
X139229761Y-141240357D01*
X138610714Y-139907023D02*
X139277380Y-139907023D01*
X138610714Y-140335595D02*
X139134523Y-140335595D01*
X139229761Y-140287976D01*
X139277380Y-140192738D01*
X139277380Y-140049880D01*
X139229761Y-139954642D01*
X139182142Y-139907023D01*
X138610714Y-139573690D02*
X138610714Y-139192738D01*
X138277380Y-139430833D02*
X139134523Y-139430833D01*
X139229761Y-139383214D01*
X139277380Y-139287976D01*
X139277380Y-139192738D01*
X143627380Y-147859404D02*
X142627380Y-147859404D01*
X142627380Y-147478452D01*
X142675000Y-147383214D01*
X142722619Y-147335595D01*
X142817857Y-147287976D01*
X142960714Y-147287976D01*
X143055952Y-147335595D01*
X143103571Y-147383214D01*
X143151190Y-147478452D01*
X143151190Y-147859404D01*
X143627380Y-146716547D02*
X143579761Y-146811785D01*
X143532142Y-146859404D01*
X143436904Y-146907023D01*
X143151190Y-146907023D01*
X143055952Y-146859404D01*
X143008333Y-146811785D01*
X142960714Y-146716547D01*
X142960714Y-146573690D01*
X143008333Y-146478452D01*
X143055952Y-146430833D01*
X143151190Y-146383214D01*
X143436904Y-146383214D01*
X143532142Y-146430833D01*
X143579761Y-146478452D01*
X143627380Y-146573690D01*
X143627380Y-146716547D01*
X143627380Y-145954642D02*
X142960714Y-145954642D01*
X142627380Y-145954642D02*
X142675000Y-146002261D01*
X142722619Y-145954642D01*
X142675000Y-145907023D01*
X142627380Y-145954642D01*
X142722619Y-145954642D01*
X142960714Y-145478452D02*
X143627380Y-145478452D01*
X143055952Y-145478452D02*
X143008333Y-145430833D01*
X142960714Y-145335595D01*
X142960714Y-145192738D01*
X143008333Y-145097500D01*
X143103571Y-145049880D01*
X143627380Y-145049880D01*
X142960714Y-144716547D02*
X142960714Y-144335595D01*
X142627380Y-144573690D02*
X143484523Y-144573690D01*
X143579761Y-144526071D01*
X143627380Y-144430833D01*
X143627380Y-144335595D01*
X143579761Y-143621309D02*
X143627380Y-143716547D01*
X143627380Y-143907023D01*
X143579761Y-144002261D01*
X143484523Y-144049880D01*
X143103571Y-144049880D01*
X143008333Y-144002261D01*
X142960714Y-143907023D01*
X142960714Y-143716547D01*
X143008333Y-143621309D01*
X143103571Y-143573690D01*
X143198809Y-143573690D01*
X143294047Y-144049880D01*
X143627380Y-143145119D02*
X142960714Y-143145119D01*
X143151190Y-143145119D02*
X143055952Y-143097500D01*
X143008333Y-143049880D01*
X142960714Y-142954642D01*
X142960714Y-142859404D01*
X142960714Y-141764166D02*
X143960714Y-141764166D01*
X143008333Y-141764166D02*
X142960714Y-141668928D01*
X142960714Y-141478452D01*
X143008333Y-141383214D01*
X143055952Y-141335595D01*
X143151190Y-141287976D01*
X143436904Y-141287976D01*
X143532142Y-141335595D01*
X143579761Y-141383214D01*
X143627380Y-141478452D01*
X143627380Y-141668928D01*
X143579761Y-141764166D01*
X143627380Y-140430833D02*
X143103571Y-140430833D01*
X143008333Y-140478452D01*
X142960714Y-140573690D01*
X142960714Y-140764166D01*
X143008333Y-140859404D01*
X143579761Y-140430833D02*
X143627380Y-140526071D01*
X143627380Y-140764166D01*
X143579761Y-140859404D01*
X143484523Y-140907023D01*
X143389285Y-140907023D01*
X143294047Y-140859404D01*
X143246428Y-140764166D01*
X143246428Y-140526071D01*
X143198809Y-140430833D01*
X143627380Y-139954642D02*
X142960714Y-139954642D01*
X142627380Y-139954642D02*
X142675000Y-140002261D01*
X142722619Y-139954642D01*
X142675000Y-139907023D01*
X142627380Y-139954642D01*
X142722619Y-139954642D01*
X143627380Y-139478452D02*
X142960714Y-139478452D01*
X143151190Y-139478452D02*
X143055952Y-139430833D01*
X143008333Y-139383214D01*
X142960714Y-139287976D01*
X142960714Y-139192738D01*
X145229761Y-143716547D02*
X145277380Y-143811785D01*
X145277380Y-144002261D01*
X145229761Y-144097500D01*
X145182142Y-144145119D01*
X145086904Y-144192738D01*
X144801190Y-144192738D01*
X144705952Y-144145119D01*
X144658333Y-144097500D01*
X144610714Y-144002261D01*
X144610714Y-143811785D01*
X144658333Y-143716547D01*
X145277380Y-143145119D02*
X145229761Y-143240357D01*
X145182142Y-143287976D01*
X145086904Y-143335595D01*
X144801190Y-143335595D01*
X144705952Y-143287976D01*
X144658333Y-143240357D01*
X144610714Y-143145119D01*
X144610714Y-143002261D01*
X144658333Y-142907023D01*
X144705952Y-142859404D01*
X144801190Y-142811785D01*
X145086904Y-142811785D01*
X145182142Y-142859404D01*
X145229761Y-142907023D01*
X145277380Y-143002261D01*
X145277380Y-143145119D01*
X144610714Y-142383214D02*
X145277380Y-142383214D01*
X144705952Y-142383214D02*
X144658333Y-142335595D01*
X144610714Y-142240357D01*
X144610714Y-142097500D01*
X144658333Y-142002261D01*
X144753571Y-141954642D01*
X145277380Y-141954642D01*
X144610714Y-141621309D02*
X144610714Y-141240357D01*
X144277380Y-141478452D02*
X145134523Y-141478452D01*
X145229761Y-141430833D01*
X145277380Y-141335595D01*
X145277380Y-141240357D01*
X145277380Y-140907023D02*
X144610714Y-140907023D01*
X144801190Y-140907023D02*
X144705952Y-140859404D01*
X144658333Y-140811785D01*
X144610714Y-140716547D01*
X144610714Y-140621309D01*
X145277380Y-140145119D02*
X145229761Y-140240357D01*
X145182142Y-140287976D01*
X145086904Y-140335595D01*
X144801190Y-140335595D01*
X144705952Y-140287976D01*
X144658333Y-140240357D01*
X144610714Y-140145119D01*
X144610714Y-140002261D01*
X144658333Y-139907023D01*
X144705952Y-139859404D01*
X144801190Y-139811785D01*
X145086904Y-139811785D01*
X145182142Y-139859404D01*
X145229761Y-139907023D01*
X145277380Y-140002261D01*
X145277380Y-140145119D01*
X145277380Y-139240357D02*
X145229761Y-139335595D01*
X145134523Y-139383214D01*
X144277380Y-139383214D01*
D11*
X141500000Y-138000000D02*
X146500000Y-138000000D01*
X135500000Y-138000000D02*
X140500000Y-138000000D01*
X131500000Y-138000000D02*
X134500000Y-138000000D01*
X123500000Y-138000000D02*
X130500000Y-138000000D01*
X119500000Y-138000000D02*
X122500000Y-138000000D01*
D10*
X165404761Y-121261904D02*
X165452380Y-121357142D01*
X165452380Y-121547619D01*
X165404761Y-121642857D01*
X165357142Y-121690476D01*
X165261904Y-121738095D01*
X164976190Y-121738095D01*
X164880952Y-121690476D01*
X164833333Y-121642857D01*
X164785714Y-121547619D01*
X164785714Y-121357142D01*
X164833333Y-121261904D01*
X164785714Y-120928571D02*
X165452380Y-120690476D01*
X164785714Y-120452380D02*
X165452380Y-120690476D01*
X165690476Y-120785714D01*
X165738095Y-120833333D01*
X165785714Y-120928571D01*
X165404761Y-119642857D02*
X165452380Y-119738095D01*
X165452380Y-119928571D01*
X165404761Y-120023809D01*
X165357142Y-120071428D01*
X165261904Y-120119047D01*
X164976190Y-120119047D01*
X164880952Y-120071428D01*
X164833333Y-120023809D01*
X164785714Y-119928571D01*
X164785714Y-119738095D01*
X164833333Y-119642857D01*
X165452380Y-119071428D02*
X165404761Y-119166666D01*
X165309523Y-119214285D01*
X164452380Y-119214285D01*
X165404761Y-118309523D02*
X165452380Y-118404761D01*
X165452380Y-118595238D01*
X165404761Y-118690476D01*
X165309523Y-118738095D01*
X164928571Y-118738095D01*
X164833333Y-118690476D01*
X164785714Y-118595238D01*
X164785714Y-118404761D01*
X164833333Y-118309523D01*
X164928571Y-118261904D01*
X165023809Y-118261904D01*
X165119047Y-118738095D01*
X147785714Y-129759642D02*
X148452380Y-129569166D01*
X147976190Y-129378690D01*
X148452380Y-129188214D01*
X147785714Y-128997738D01*
X148404761Y-128235833D02*
X148452380Y-128331071D01*
X148452380Y-128521547D01*
X148404761Y-128616785D01*
X148309523Y-128664404D01*
X147928571Y-128664404D01*
X147833333Y-128616785D01*
X147785714Y-128521547D01*
X147785714Y-128331071D01*
X147833333Y-128235833D01*
X147928571Y-128188214D01*
X148023809Y-128188214D01*
X148119047Y-128664404D01*
X148547619Y-127997738D02*
X148547619Y-127235833D01*
X148452380Y-126997738D02*
X147785714Y-126997738D01*
X147452380Y-126997738D02*
X147500000Y-127045357D01*
X147547619Y-126997738D01*
X147500000Y-126950119D01*
X147452380Y-126997738D01*
X147547619Y-126997738D01*
X148452380Y-126521547D02*
X147785714Y-126521547D01*
X147976190Y-126521547D02*
X147880952Y-126473928D01*
X147833333Y-126426309D01*
X147785714Y-126331071D01*
X147785714Y-126235833D01*
X122452380Y-129521547D02*
X122404761Y-129616785D01*
X122357142Y-129664404D01*
X122261904Y-129712023D01*
X121976190Y-129712023D01*
X121880952Y-129664404D01*
X121833333Y-129616785D01*
X121785714Y-129521547D01*
X121785714Y-129378690D01*
X121833333Y-129283452D01*
X121880952Y-129235833D01*
X121976190Y-129188214D01*
X122261904Y-129188214D01*
X122357142Y-129235833D01*
X122404761Y-129283452D01*
X122452380Y-129378690D01*
X122452380Y-129521547D01*
X122404761Y-128378690D02*
X122452380Y-128473928D01*
X122452380Y-128664404D01*
X122404761Y-128759642D01*
X122309523Y-128807261D01*
X121928571Y-128807261D01*
X121833333Y-128759642D01*
X121785714Y-128664404D01*
X121785714Y-128473928D01*
X121833333Y-128378690D01*
X121928571Y-128331071D01*
X122023809Y-128331071D01*
X122119047Y-128807261D01*
X122547619Y-128140595D02*
X122547619Y-127378690D01*
X122452380Y-126712023D02*
X121452380Y-126712023D01*
X122404761Y-126712023D02*
X122452380Y-126807261D01*
X122452380Y-126997738D01*
X122404761Y-127092976D01*
X122357142Y-127140595D01*
X122261904Y-127188214D01*
X121976190Y-127188214D01*
X121880952Y-127140595D01*
X121833333Y-127092976D01*
X121785714Y-126997738D01*
X121785714Y-126807261D01*
X121833333Y-126712023D01*
X122547619Y-126473928D02*
X122547619Y-125712023D01*
X122452380Y-125045357D02*
X121452380Y-125045357D01*
X122404761Y-125045357D02*
X122452380Y-125140595D01*
X122452380Y-125331071D01*
X122404761Y-125426309D01*
X122357142Y-125473928D01*
X122261904Y-125521547D01*
X121976190Y-125521547D01*
X121880952Y-125473928D01*
X121833333Y-125426309D01*
X121785714Y-125331071D01*
X121785714Y-125140595D01*
X121833333Y-125045357D01*
X122452380Y-124569166D02*
X121785714Y-124569166D01*
X121452380Y-124569166D02*
X121500000Y-124616785D01*
X121547619Y-124569166D01*
X121500000Y-124521547D01*
X121452380Y-124569166D01*
X121547619Y-124569166D01*
X144452380Y-129235833D02*
X143928571Y-129235833D01*
X143833333Y-129283452D01*
X143785714Y-129378690D01*
X143785714Y-129569166D01*
X143833333Y-129664404D01*
X144404761Y-129235833D02*
X144452380Y-129331071D01*
X144452380Y-129569166D01*
X144404761Y-129664404D01*
X144309523Y-129712023D01*
X144214285Y-129712023D01*
X144119047Y-129664404D01*
X144071428Y-129569166D01*
X144071428Y-129331071D01*
X144023809Y-129235833D01*
X144452380Y-128331071D02*
X143452380Y-128331071D01*
X144404761Y-128331071D02*
X144452380Y-128426309D01*
X144452380Y-128616785D01*
X144404761Y-128712023D01*
X144357142Y-128759642D01*
X144261904Y-128807261D01*
X143976190Y-128807261D01*
X143880952Y-128759642D01*
X143833333Y-128712023D01*
X143785714Y-128616785D01*
X143785714Y-128426309D01*
X143833333Y-128331071D01*
X144452380Y-127426309D02*
X143452380Y-127426309D01*
X144404761Y-127426309D02*
X144452380Y-127521547D01*
X144452380Y-127712023D01*
X144404761Y-127807261D01*
X144357142Y-127854880D01*
X144261904Y-127902500D01*
X143976190Y-127902500D01*
X143880952Y-127854880D01*
X143833333Y-127807261D01*
X143785714Y-127712023D01*
X143785714Y-127521547D01*
X143833333Y-127426309D01*
X144452380Y-126950119D02*
X143785714Y-126950119D01*
X143976190Y-126950119D02*
X143880952Y-126902500D01*
X143833333Y-126854880D01*
X143785714Y-126759642D01*
X143785714Y-126664404D01*
X144547619Y-126569166D02*
X144547619Y-125807261D01*
X144452380Y-125140595D02*
X143452380Y-125140595D01*
X144404761Y-125140595D02*
X144452380Y-125235833D01*
X144452380Y-125426309D01*
X144404761Y-125521547D01*
X144357142Y-125569166D01*
X144261904Y-125616785D01*
X143976190Y-125616785D01*
X143880952Y-125569166D01*
X143833333Y-125521547D01*
X143785714Y-125426309D01*
X143785714Y-125235833D01*
X143833333Y-125140595D01*
X143785714Y-124664404D02*
X144785714Y-124664404D01*
X143833333Y-124664404D02*
X143785714Y-124569166D01*
X143785714Y-124378690D01*
X143833333Y-124283452D01*
X143880952Y-124235833D01*
X143976190Y-124188214D01*
X144261904Y-124188214D01*
X144357142Y-124235833D01*
X144404761Y-124283452D01*
X144452380Y-124378690D01*
X144452380Y-124569166D01*
X144404761Y-124664404D01*
X142452380Y-129664404D02*
X141785714Y-129664404D01*
X141452380Y-129664404D02*
X141500000Y-129712023D01*
X141547619Y-129664404D01*
X141500000Y-129616785D01*
X141452380Y-129664404D01*
X141547619Y-129664404D01*
X141785714Y-129188214D02*
X142452380Y-129188214D01*
X141880952Y-129188214D02*
X141833333Y-129140595D01*
X141785714Y-129045357D01*
X141785714Y-128902500D01*
X141833333Y-128807261D01*
X141928571Y-128759642D01*
X142452380Y-128759642D01*
X142404761Y-127854880D02*
X142452380Y-127950119D01*
X142452380Y-128140595D01*
X142404761Y-128235833D01*
X142357142Y-128283452D01*
X142261904Y-128331071D01*
X141976190Y-128331071D01*
X141880952Y-128283452D01*
X141833333Y-128235833D01*
X141785714Y-128140595D01*
X141785714Y-127950119D01*
X141833333Y-127854880D01*
X142547619Y-127664404D02*
X142547619Y-126902500D01*
X142452380Y-126664404D02*
X141785714Y-126664404D01*
X141452380Y-126664404D02*
X141500000Y-126712023D01*
X141547619Y-126664404D01*
X141500000Y-126616785D01*
X141452380Y-126664404D01*
X141547619Y-126664404D01*
X141785714Y-126188214D02*
X142785714Y-126188214D01*
X141833333Y-126188214D02*
X141785714Y-126092976D01*
X141785714Y-125902500D01*
X141833333Y-125807261D01*
X141880952Y-125759642D01*
X141976190Y-125712023D01*
X142261904Y-125712023D01*
X142357142Y-125759642D01*
X142404761Y-125807261D01*
X142452380Y-125902500D01*
X142452380Y-126092976D01*
X142404761Y-126188214D01*
X127785714Y-129759642D02*
X128452380Y-129569166D01*
X127976190Y-129378690D01*
X128452380Y-129188214D01*
X127785714Y-128997738D01*
X128404761Y-128235833D02*
X128452380Y-128331071D01*
X128452380Y-128521547D01*
X128404761Y-128616785D01*
X128309523Y-128664404D01*
X127928571Y-128664404D01*
X127833333Y-128616785D01*
X127785714Y-128521547D01*
X127785714Y-128331071D01*
X127833333Y-128235833D01*
X127928571Y-128188214D01*
X128023809Y-128188214D01*
X128119047Y-128664404D01*
X128547619Y-127997738D02*
X128547619Y-127235833D01*
X127785714Y-126997738D02*
X128785714Y-126997738D01*
X127833333Y-126997738D02*
X127785714Y-126902500D01*
X127785714Y-126712023D01*
X127833333Y-126616785D01*
X127880952Y-126569166D01*
X127976190Y-126521547D01*
X128261904Y-126521547D01*
X128357142Y-126569166D01*
X128404761Y-126616785D01*
X128452380Y-126712023D01*
X128452380Y-126902500D01*
X128404761Y-126997738D01*
X128452380Y-125950119D02*
X128404761Y-126045357D01*
X128309523Y-126092976D01*
X127452380Y-126092976D01*
X145785714Y-129664404D02*
X146785714Y-129664404D01*
X145833333Y-129664404D02*
X145785714Y-129569166D01*
X145785714Y-129378690D01*
X145833333Y-129283452D01*
X145880952Y-129235833D01*
X145976190Y-129188214D01*
X146261904Y-129188214D01*
X146357142Y-129235833D01*
X146404761Y-129283452D01*
X146452380Y-129378690D01*
X146452380Y-129569166D01*
X146404761Y-129664404D01*
X146547619Y-128997738D02*
X146547619Y-128235833D01*
X146404761Y-128045357D02*
X146452380Y-127950119D01*
X146452380Y-127759642D01*
X146404761Y-127664404D01*
X146309523Y-127616785D01*
X146261904Y-127616785D01*
X146166666Y-127664404D01*
X146119047Y-127759642D01*
X146119047Y-127902500D01*
X146071428Y-127997738D01*
X145976190Y-128045357D01*
X145928571Y-128045357D01*
X145833333Y-127997738D01*
X145785714Y-127902500D01*
X145785714Y-127759642D01*
X145833333Y-127664404D01*
X146404761Y-126807261D02*
X146452380Y-126902500D01*
X146452380Y-127092976D01*
X146404761Y-127188214D01*
X146309523Y-127235833D01*
X145928571Y-127235833D01*
X145833333Y-127188214D01*
X145785714Y-127092976D01*
X145785714Y-126902500D01*
X145833333Y-126807261D01*
X145928571Y-126759642D01*
X146023809Y-126759642D01*
X146119047Y-127235833D01*
X146452380Y-126188214D02*
X146404761Y-126283452D01*
X146309523Y-126331071D01*
X145452380Y-126331071D01*
X146404761Y-125426309D02*
X146452380Y-125521547D01*
X146452380Y-125712023D01*
X146404761Y-125807261D01*
X146309523Y-125854880D01*
X145928571Y-125854880D01*
X145833333Y-125807261D01*
X145785714Y-125712023D01*
X145785714Y-125521547D01*
X145833333Y-125426309D01*
X145928571Y-125378690D01*
X146023809Y-125378690D01*
X146119047Y-125854880D01*
X146404761Y-124521547D02*
X146452380Y-124616785D01*
X146452380Y-124807261D01*
X146404761Y-124902500D01*
X146357142Y-124950119D01*
X146261904Y-124997738D01*
X145976190Y-124997738D01*
X145880952Y-124950119D01*
X145833333Y-124902500D01*
X145785714Y-124807261D01*
X145785714Y-124616785D01*
X145833333Y-124521547D01*
X145785714Y-124235833D02*
X145785714Y-123854880D01*
X145452380Y-124092976D02*
X146309523Y-124092976D01*
X146404761Y-124045357D01*
X146452380Y-123950119D01*
X146452380Y-123854880D01*
X146452380Y-123378690D02*
X146404761Y-123473928D01*
X146357142Y-123521547D01*
X146261904Y-123569166D01*
X145976190Y-123569166D01*
X145880952Y-123521547D01*
X145833333Y-123473928D01*
X145785714Y-123378690D01*
X145785714Y-123235833D01*
X145833333Y-123140595D01*
X145880952Y-123092976D01*
X145976190Y-123045357D01*
X146261904Y-123045357D01*
X146357142Y-123092976D01*
X146404761Y-123140595D01*
X146452380Y-123235833D01*
X146452380Y-123378690D01*
X146452380Y-122616785D02*
X145785714Y-122616785D01*
X145976190Y-122616785D02*
X145880952Y-122569166D01*
X145833333Y-122521547D01*
X145785714Y-122426309D01*
X145785714Y-122331071D01*
X123785714Y-129759642D02*
X124452380Y-129569166D01*
X123976190Y-129378690D01*
X124452380Y-129188214D01*
X123785714Y-128997738D01*
X124404761Y-128235833D02*
X124452380Y-128331071D01*
X124452380Y-128521547D01*
X124404761Y-128616785D01*
X124309523Y-128664404D01*
X123928571Y-128664404D01*
X123833333Y-128616785D01*
X123785714Y-128521547D01*
X123785714Y-128331071D01*
X123833333Y-128235833D01*
X123928571Y-128188214D01*
X124023809Y-128188214D01*
X124119047Y-128664404D01*
X124547619Y-127997738D02*
X124547619Y-127235833D01*
X124452380Y-126569166D02*
X123928571Y-126569166D01*
X123833333Y-126616785D01*
X123785714Y-126712023D01*
X123785714Y-126902500D01*
X123833333Y-126997738D01*
X124404761Y-126569166D02*
X124452380Y-126664404D01*
X124452380Y-126902500D01*
X124404761Y-126997738D01*
X124309523Y-127045357D01*
X124214285Y-127045357D01*
X124119047Y-126997738D01*
X124071428Y-126902500D01*
X124071428Y-126664404D01*
X124023809Y-126569166D01*
X129785714Y-129759642D02*
X130452380Y-129569166D01*
X129976190Y-129378690D01*
X130452380Y-129188214D01*
X129785714Y-128997738D01*
X130404761Y-128235833D02*
X130452380Y-128331071D01*
X130452380Y-128521547D01*
X130404761Y-128616785D01*
X130309523Y-128664404D01*
X129928571Y-128664404D01*
X129833333Y-128616785D01*
X129785714Y-128521547D01*
X129785714Y-128331071D01*
X129833333Y-128235833D01*
X129928571Y-128188214D01*
X130023809Y-128188214D01*
X130119047Y-128664404D01*
X130547619Y-127997738D02*
X130547619Y-127235833D01*
X129785714Y-126997738D02*
X130785714Y-126997738D01*
X129833333Y-126997738D02*
X129785714Y-126902500D01*
X129785714Y-126712023D01*
X129833333Y-126616785D01*
X129880952Y-126569166D01*
X129976190Y-126521547D01*
X130261904Y-126521547D01*
X130357142Y-126569166D01*
X130404761Y-126616785D01*
X130452380Y-126712023D01*
X130452380Y-126902500D01*
X130404761Y-126997738D01*
X130452380Y-126092976D02*
X129452380Y-126092976D01*
X130452380Y-125664404D02*
X129928571Y-125664404D01*
X129833333Y-125712023D01*
X129785714Y-125807261D01*
X129785714Y-125950119D01*
X129833333Y-126045357D01*
X129880952Y-126092976D01*
X140452380Y-129521547D02*
X140404761Y-129616785D01*
X140357142Y-129664404D01*
X140261904Y-129712023D01*
X139976190Y-129712023D01*
X139880952Y-129664404D01*
X139833333Y-129616785D01*
X139785714Y-129521547D01*
X139785714Y-129378690D01*
X139833333Y-129283452D01*
X139880952Y-129235833D01*
X139976190Y-129188214D01*
X140261904Y-129188214D01*
X140357142Y-129235833D01*
X140404761Y-129283452D01*
X140452380Y-129378690D01*
X140452380Y-129521547D01*
X140404761Y-128378690D02*
X140452380Y-128473928D01*
X140452380Y-128664404D01*
X140404761Y-128759642D01*
X140309523Y-128807261D01*
X139928571Y-128807261D01*
X139833333Y-128759642D01*
X139785714Y-128664404D01*
X139785714Y-128473928D01*
X139833333Y-128378690D01*
X139928571Y-128331071D01*
X140023809Y-128331071D01*
X140119047Y-128807261D01*
X140547619Y-128140595D02*
X140547619Y-127378690D01*
X139785714Y-127140595D02*
X140785714Y-127140595D01*
X139833333Y-127140595D02*
X139785714Y-127045357D01*
X139785714Y-126854880D01*
X139833333Y-126759642D01*
X139880952Y-126712023D01*
X139976190Y-126664404D01*
X140261904Y-126664404D01*
X140357142Y-126712023D01*
X140404761Y-126759642D01*
X140452380Y-126854880D01*
X140452380Y-127045357D01*
X140404761Y-127140595D01*
X140452380Y-126235833D02*
X139452380Y-126235833D01*
X140452380Y-125807261D02*
X139928571Y-125807261D01*
X139833333Y-125854880D01*
X139785714Y-125950119D01*
X139785714Y-126092976D01*
X139833333Y-126188214D01*
X139880952Y-126235833D01*
X140547619Y-125569166D02*
X140547619Y-124807261D01*
X140452380Y-124140595D02*
X139928571Y-124140595D01*
X139833333Y-124188214D01*
X139785714Y-124283452D01*
X139785714Y-124473928D01*
X139833333Y-124569166D01*
X140404761Y-124140595D02*
X140452380Y-124235833D01*
X140452380Y-124473928D01*
X140404761Y-124569166D01*
X140309523Y-124616785D01*
X140214285Y-124616785D01*
X140119047Y-124569166D01*
X140071428Y-124473928D01*
X140071428Y-124235833D01*
X140023809Y-124140595D01*
X140452380Y-123521547D02*
X140404761Y-123616785D01*
X140309523Y-123664404D01*
X139452380Y-123664404D01*
X139785714Y-122712023D02*
X140452380Y-122712023D01*
X139785714Y-123140595D02*
X140309523Y-123140595D01*
X140404761Y-123092976D01*
X140452380Y-122997738D01*
X140452380Y-122854880D01*
X140404761Y-122759642D01*
X140357142Y-122712023D01*
X125785714Y-129759642D02*
X126452380Y-129569166D01*
X125976190Y-129378690D01*
X126452380Y-129188214D01*
X125785714Y-128997738D01*
X126404761Y-128235833D02*
X126452380Y-128331071D01*
X126452380Y-128521547D01*
X126404761Y-128616785D01*
X126309523Y-128664404D01*
X125928571Y-128664404D01*
X125833333Y-128616785D01*
X125785714Y-128521547D01*
X125785714Y-128331071D01*
X125833333Y-128235833D01*
X125928571Y-128188214D01*
X126023809Y-128188214D01*
X126119047Y-128664404D01*
X126547619Y-127997738D02*
X126547619Y-127235833D01*
X126452380Y-126997738D02*
X125452380Y-126997738D01*
X125833333Y-126997738D02*
X125785714Y-126902500D01*
X125785714Y-126712023D01*
X125833333Y-126616785D01*
X125880952Y-126569166D01*
X125976190Y-126521547D01*
X126261904Y-126521547D01*
X126357142Y-126569166D01*
X126404761Y-126616785D01*
X126452380Y-126712023D01*
X126452380Y-126902500D01*
X126404761Y-126997738D01*
X136452380Y-129521547D02*
X136404761Y-129616785D01*
X136357142Y-129664404D01*
X136261904Y-129712023D01*
X135976190Y-129712023D01*
X135880952Y-129664404D01*
X135833333Y-129616785D01*
X135785714Y-129521547D01*
X135785714Y-129378690D01*
X135833333Y-129283452D01*
X135880952Y-129235833D01*
X135976190Y-129188214D01*
X136261904Y-129188214D01*
X136357142Y-129235833D01*
X136404761Y-129283452D01*
X136452380Y-129378690D01*
X136452380Y-129521547D01*
X136404761Y-128378690D02*
X136452380Y-128473928D01*
X136452380Y-128664404D01*
X136404761Y-128759642D01*
X136309523Y-128807261D01*
X135928571Y-128807261D01*
X135833333Y-128759642D01*
X135785714Y-128664404D01*
X135785714Y-128473928D01*
X135833333Y-128378690D01*
X135928571Y-128331071D01*
X136023809Y-128331071D01*
X136119047Y-128807261D01*
X136547619Y-128140595D02*
X136547619Y-127378690D01*
X136452380Y-127140595D02*
X135452380Y-127140595D01*
X135833333Y-127140595D02*
X135785714Y-127045357D01*
X135785714Y-126854880D01*
X135833333Y-126759642D01*
X135880952Y-126712023D01*
X135976190Y-126664404D01*
X136261904Y-126664404D01*
X136357142Y-126712023D01*
X136404761Y-126759642D01*
X136452380Y-126854880D01*
X136452380Y-127045357D01*
X136404761Y-127140595D01*
X136547619Y-126473928D02*
X136547619Y-125712023D01*
X136452380Y-125045357D02*
X135928571Y-125045357D01*
X135833333Y-125092976D01*
X135785714Y-125188214D01*
X135785714Y-125378690D01*
X135833333Y-125473928D01*
X136404761Y-125045357D02*
X136452380Y-125140595D01*
X136452380Y-125378690D01*
X136404761Y-125473928D01*
X136309523Y-125521547D01*
X136214285Y-125521547D01*
X136119047Y-125473928D01*
X136071428Y-125378690D01*
X136071428Y-125140595D01*
X136023809Y-125045357D01*
X136452380Y-124426309D02*
X136404761Y-124521547D01*
X136309523Y-124569166D01*
X135452380Y-124569166D01*
X135785714Y-123616785D02*
X136452380Y-123616785D01*
X135785714Y-124045357D02*
X136309523Y-124045357D01*
X136404761Y-123997738D01*
X136452380Y-123902500D01*
X136452380Y-123759642D01*
X136404761Y-123664404D01*
X136357142Y-123616785D01*
X138452380Y-129521547D02*
X138404761Y-129616785D01*
X138357142Y-129664404D01*
X138261904Y-129712023D01*
X137976190Y-129712023D01*
X137880952Y-129664404D01*
X137833333Y-129616785D01*
X137785714Y-129521547D01*
X137785714Y-129378690D01*
X137833333Y-129283452D01*
X137880952Y-129235833D01*
X137976190Y-129188214D01*
X138261904Y-129188214D01*
X138357142Y-129235833D01*
X138404761Y-129283452D01*
X138452380Y-129378690D01*
X138452380Y-129521547D01*
X138404761Y-128378690D02*
X138452380Y-128473928D01*
X138452380Y-128664404D01*
X138404761Y-128759642D01*
X138309523Y-128807261D01*
X137928571Y-128807261D01*
X137833333Y-128759642D01*
X137785714Y-128664404D01*
X137785714Y-128473928D01*
X137833333Y-128378690D01*
X137928571Y-128331071D01*
X138023809Y-128331071D01*
X138119047Y-128807261D01*
X138547619Y-128140595D02*
X138547619Y-127378690D01*
X137785714Y-127140595D02*
X138785714Y-127140595D01*
X137833333Y-127140595D02*
X137785714Y-127045357D01*
X137785714Y-126854880D01*
X137833333Y-126759642D01*
X137880952Y-126712023D01*
X137976190Y-126664404D01*
X138261904Y-126664404D01*
X138357142Y-126712023D01*
X138404761Y-126759642D01*
X138452380Y-126854880D01*
X138452380Y-127045357D01*
X138404761Y-127140595D01*
X138452380Y-126092976D02*
X138404761Y-126188214D01*
X138309523Y-126235833D01*
X137452380Y-126235833D01*
X138547619Y-125950119D02*
X138547619Y-125188214D01*
X138452380Y-124521547D02*
X137928571Y-124521547D01*
X137833333Y-124569166D01*
X137785714Y-124664404D01*
X137785714Y-124854880D01*
X137833333Y-124950119D01*
X138404761Y-124521547D02*
X138452380Y-124616785D01*
X138452380Y-124854880D01*
X138404761Y-124950119D01*
X138309523Y-124997738D01*
X138214285Y-124997738D01*
X138119047Y-124950119D01*
X138071428Y-124854880D01*
X138071428Y-124616785D01*
X138023809Y-124521547D01*
X138452380Y-123902500D02*
X138404761Y-123997738D01*
X138309523Y-124045357D01*
X137452380Y-124045357D01*
X137785714Y-123092976D02*
X138452380Y-123092976D01*
X137785714Y-123521547D02*
X138309523Y-123521547D01*
X138404761Y-123473928D01*
X138452380Y-123378690D01*
X138452380Y-123235833D01*
X138404761Y-123140595D01*
X138357142Y-123092976D01*
X134452380Y-129521547D02*
X134404761Y-129616785D01*
X134357142Y-129664404D01*
X134261904Y-129712023D01*
X133976190Y-129712023D01*
X133880952Y-129664404D01*
X133833333Y-129616785D01*
X133785714Y-129521547D01*
X133785714Y-129378690D01*
X133833333Y-129283452D01*
X133880952Y-129235833D01*
X133976190Y-129188214D01*
X134261904Y-129188214D01*
X134357142Y-129235833D01*
X134404761Y-129283452D01*
X134452380Y-129378690D01*
X134452380Y-129521547D01*
X134404761Y-128378690D02*
X134452380Y-128473928D01*
X134452380Y-128664404D01*
X134404761Y-128759642D01*
X134309523Y-128807261D01*
X133928571Y-128807261D01*
X133833333Y-128759642D01*
X133785714Y-128664404D01*
X133785714Y-128473928D01*
X133833333Y-128378690D01*
X133928571Y-128331071D01*
X134023809Y-128331071D01*
X134119047Y-128807261D01*
X134547619Y-128140595D02*
X134547619Y-127378690D01*
X134452380Y-127140595D02*
X133452380Y-127140595D01*
X133833333Y-127140595D02*
X133785714Y-127045357D01*
X133785714Y-126854880D01*
X133833333Y-126759642D01*
X133880952Y-126712023D01*
X133976190Y-126664404D01*
X134261904Y-126664404D01*
X134357142Y-126712023D01*
X134404761Y-126759642D01*
X134452380Y-126854880D01*
X134452380Y-127045357D01*
X134404761Y-127140595D01*
X134547619Y-126473928D02*
X134547619Y-125712023D01*
X134452380Y-125045357D02*
X133452380Y-125045357D01*
X134404761Y-125045357D02*
X134452380Y-125140595D01*
X134452380Y-125331071D01*
X134404761Y-125426309D01*
X134357142Y-125473928D01*
X134261904Y-125521547D01*
X133976190Y-125521547D01*
X133880952Y-125473928D01*
X133833333Y-125426309D01*
X133785714Y-125331071D01*
X133785714Y-125140595D01*
X133833333Y-125045357D01*
X132452380Y-129521547D02*
X132404761Y-129616785D01*
X132357142Y-129664404D01*
X132261904Y-129712023D01*
X131976190Y-129712023D01*
X131880952Y-129664404D01*
X131833333Y-129616785D01*
X131785714Y-129521547D01*
X131785714Y-129378690D01*
X131833333Y-129283452D01*
X131880952Y-129235833D01*
X131976190Y-129188214D01*
X132261904Y-129188214D01*
X132357142Y-129235833D01*
X132404761Y-129283452D01*
X132452380Y-129378690D01*
X132452380Y-129521547D01*
X132404761Y-128378690D02*
X132452380Y-128473928D01*
X132452380Y-128664404D01*
X132404761Y-128759642D01*
X132309523Y-128807261D01*
X131928571Y-128807261D01*
X131833333Y-128759642D01*
X131785714Y-128664404D01*
X131785714Y-128473928D01*
X131833333Y-128378690D01*
X131928571Y-128331071D01*
X132023809Y-128331071D01*
X132119047Y-128807261D01*
X132547619Y-128140595D02*
X132547619Y-127378690D01*
X132452380Y-126712023D02*
X131928571Y-126712023D01*
X131833333Y-126759642D01*
X131785714Y-126854880D01*
X131785714Y-127045357D01*
X131833333Y-127140595D01*
X132404761Y-126712023D02*
X132452380Y-126807261D01*
X132452380Y-127045357D01*
X132404761Y-127140595D01*
X132309523Y-127188214D01*
X132214285Y-127188214D01*
X132119047Y-127140595D01*
X132071428Y-127045357D01*
X132071428Y-126807261D01*
X132023809Y-126712023D01*
X132547619Y-126473928D02*
X132547619Y-125712023D01*
X132452380Y-125045357D02*
X131452380Y-125045357D01*
X132404761Y-125045357D02*
X132452380Y-125140595D01*
X132452380Y-125331071D01*
X132404761Y-125426309D01*
X132357142Y-125473928D01*
X132261904Y-125521547D01*
X131976190Y-125521547D01*
X131880952Y-125473928D01*
X131833333Y-125426309D01*
X131785714Y-125331071D01*
X131785714Y-125140595D01*
X131833333Y-125045357D01*
X120452380Y-129521547D02*
X120404761Y-129616785D01*
X120357142Y-129664404D01*
X120261904Y-129712023D01*
X119976190Y-129712023D01*
X119880952Y-129664404D01*
X119833333Y-129616785D01*
X119785714Y-129521547D01*
X119785714Y-129378690D01*
X119833333Y-129283452D01*
X119880952Y-129235833D01*
X119976190Y-129188214D01*
X120261904Y-129188214D01*
X120357142Y-129235833D01*
X120404761Y-129283452D01*
X120452380Y-129378690D01*
X120452380Y-129521547D01*
X120404761Y-128378690D02*
X120452380Y-128473928D01*
X120452380Y-128664404D01*
X120404761Y-128759642D01*
X120309523Y-128807261D01*
X119928571Y-128807261D01*
X119833333Y-128759642D01*
X119785714Y-128664404D01*
X119785714Y-128473928D01*
X119833333Y-128378690D01*
X119928571Y-128331071D01*
X120023809Y-128331071D01*
X120119047Y-128807261D01*
X120547619Y-128140595D02*
X120547619Y-127378690D01*
X120452380Y-126712023D02*
X119928571Y-126712023D01*
X119833333Y-126759642D01*
X119785714Y-126854880D01*
X119785714Y-127045357D01*
X119833333Y-127140595D01*
X120404761Y-126712023D02*
X120452380Y-126807261D01*
X120452380Y-127045357D01*
X120404761Y-127140595D01*
X120309523Y-127188214D01*
X120214285Y-127188214D01*
X120119047Y-127140595D01*
X120071428Y-127045357D01*
X120071428Y-126807261D01*
X120023809Y-126712023D01*
X120452380Y-126092976D02*
X120404761Y-126188214D01*
X120309523Y-126235833D01*
X119452380Y-126235833D01*
X119785714Y-125283452D02*
X120452380Y-125283452D01*
X119785714Y-125712023D02*
X120309523Y-125712023D01*
X120404761Y-125664404D01*
X120452380Y-125569166D01*
X120452380Y-125426309D01*
X120404761Y-125331071D01*
X120357142Y-125283452D01*
X117785714Y-129759642D02*
X118452380Y-129569166D01*
X117976190Y-129378690D01*
X118452380Y-129188214D01*
X117785714Y-128997738D01*
X118404761Y-128235833D02*
X118452380Y-128331071D01*
X118452380Y-128521547D01*
X118404761Y-128616785D01*
X118309523Y-128664404D01*
X117928571Y-128664404D01*
X117833333Y-128616785D01*
X117785714Y-128521547D01*
X117785714Y-128331071D01*
X117833333Y-128235833D01*
X117928571Y-128188214D01*
X118023809Y-128188214D01*
X118119047Y-128664404D01*
X118547619Y-127997738D02*
X118547619Y-127235833D01*
X117785714Y-127140595D02*
X117785714Y-126759642D01*
X118452380Y-126997738D02*
X117595238Y-126997738D01*
X117500000Y-126950119D01*
X117452380Y-126854880D01*
X117452380Y-126759642D01*
X118452380Y-126283452D02*
X118404761Y-126378690D01*
X118309523Y-126426309D01*
X117452380Y-126426309D01*
X118452380Y-125473928D02*
X117928571Y-125473928D01*
X117833333Y-125521547D01*
X117785714Y-125616785D01*
X117785714Y-125807261D01*
X117833333Y-125902500D01*
X118404761Y-125473928D02*
X118452380Y-125569166D01*
X118452380Y-125807261D01*
X118404761Y-125902500D01*
X118309523Y-125950119D01*
X118214285Y-125950119D01*
X118119047Y-125902500D01*
X118071428Y-125807261D01*
X118071428Y-125569166D01*
X118023809Y-125473928D01*
X117785714Y-124569166D02*
X118595238Y-124569166D01*
X118690476Y-124616785D01*
X118738095Y-124664404D01*
X118785714Y-124759642D01*
X118785714Y-124902500D01*
X118738095Y-124997738D01*
X118404761Y-124569166D02*
X118452380Y-124664404D01*
X118452380Y-124854880D01*
X118404761Y-124950119D01*
X118357142Y-124997738D01*
X118261904Y-125045357D01*
X117976190Y-125045357D01*
X117880952Y-124997738D01*
X117833333Y-124950119D01*
X117785714Y-124854880D01*
X117785714Y-124664404D01*
X117833333Y-124569166D01*
X118404761Y-124140595D02*
X118452380Y-124045357D01*
X118452380Y-123854880D01*
X118404761Y-123759642D01*
X118309523Y-123712023D01*
X118261904Y-123712023D01*
X118166666Y-123759642D01*
X118119047Y-123854880D01*
X118119047Y-123997738D01*
X118071428Y-124092976D01*
X117976190Y-124140595D01*
X117928571Y-124140595D01*
X117833333Y-124092976D01*
X117785714Y-123997738D01*
X117785714Y-123854880D01*
X117833333Y-123759642D01*
X115785714Y-129759642D02*
X116452380Y-129569166D01*
X115976190Y-129378690D01*
X116452380Y-129188214D01*
X115785714Y-128997738D01*
X116404761Y-128235833D02*
X116452380Y-128331071D01*
X116452380Y-128521547D01*
X116404761Y-128616785D01*
X116309523Y-128664404D01*
X115928571Y-128664404D01*
X115833333Y-128616785D01*
X115785714Y-128521547D01*
X115785714Y-128331071D01*
X115833333Y-128235833D01*
X115928571Y-128188214D01*
X116023809Y-128188214D01*
X116119047Y-128664404D01*
X116547619Y-127997738D02*
X116547619Y-127235833D01*
X116452380Y-126997738D02*
X115785714Y-126997738D01*
X115880952Y-126997738D02*
X115833333Y-126950119D01*
X115785714Y-126854880D01*
X115785714Y-126712023D01*
X115833333Y-126616785D01*
X115928571Y-126569166D01*
X116452380Y-126569166D01*
X115928571Y-126569166D02*
X115833333Y-126521547D01*
X115785714Y-126426309D01*
X115785714Y-126283452D01*
X115833333Y-126188214D01*
X115928571Y-126140595D01*
X116452380Y-126140595D01*
X116404761Y-125283452D02*
X116452380Y-125378690D01*
X116452380Y-125569166D01*
X116404761Y-125664404D01*
X116309523Y-125712023D01*
X115928571Y-125712023D01*
X115833333Y-125664404D01*
X115785714Y-125569166D01*
X115785714Y-125378690D01*
X115833333Y-125283452D01*
X115928571Y-125235833D01*
X116023809Y-125235833D01*
X116119047Y-125712023D01*
X116452380Y-124807261D02*
X115785714Y-124807261D01*
X115880952Y-124807261D02*
X115833333Y-124759642D01*
X115785714Y-124664404D01*
X115785714Y-124521547D01*
X115833333Y-124426309D01*
X115928571Y-124378690D01*
X116452380Y-124378690D01*
X115928571Y-124378690D02*
X115833333Y-124331071D01*
X115785714Y-124235833D01*
X115785714Y-124092976D01*
X115833333Y-123997738D01*
X115928571Y-123950119D01*
X116452380Y-123950119D01*
X114452380Y-129521547D02*
X114404761Y-129616785D01*
X114357142Y-129664404D01*
X114261904Y-129712023D01*
X113976190Y-129712023D01*
X113880952Y-129664404D01*
X113833333Y-129616785D01*
X113785714Y-129521547D01*
X113785714Y-129378690D01*
X113833333Y-129283452D01*
X113880952Y-129235833D01*
X113976190Y-129188214D01*
X114261904Y-129188214D01*
X114357142Y-129235833D01*
X114404761Y-129283452D01*
X114452380Y-129378690D01*
X114452380Y-129521547D01*
X114404761Y-128378690D02*
X114452380Y-128473928D01*
X114452380Y-128664404D01*
X114404761Y-128759642D01*
X114309523Y-128807261D01*
X113928571Y-128807261D01*
X113833333Y-128759642D01*
X113785714Y-128664404D01*
X113785714Y-128473928D01*
X113833333Y-128378690D01*
X113928571Y-128331071D01*
X114023809Y-128331071D01*
X114119047Y-128807261D01*
X114547619Y-128140595D02*
X114547619Y-127378690D01*
X114452380Y-127140595D02*
X113785714Y-127140595D01*
X113880952Y-127140595D02*
X113833333Y-127092976D01*
X113785714Y-126997738D01*
X113785714Y-126854880D01*
X113833333Y-126759642D01*
X113928571Y-126712023D01*
X114452380Y-126712023D01*
X113928571Y-126712023D02*
X113833333Y-126664404D01*
X113785714Y-126569166D01*
X113785714Y-126426309D01*
X113833333Y-126331071D01*
X113928571Y-126283452D01*
X114452380Y-126283452D01*
X114404761Y-125426309D02*
X114452380Y-125521547D01*
X114452380Y-125712023D01*
X114404761Y-125807261D01*
X114309523Y-125854880D01*
X113928571Y-125854880D01*
X113833333Y-125807261D01*
X113785714Y-125712023D01*
X113785714Y-125521547D01*
X113833333Y-125426309D01*
X113928571Y-125378690D01*
X114023809Y-125378690D01*
X114119047Y-125854880D01*
X114452380Y-124950119D02*
X113785714Y-124950119D01*
X113880952Y-124950119D02*
X113833333Y-124902500D01*
X113785714Y-124807261D01*
X113785714Y-124664404D01*
X113833333Y-124569166D01*
X113928571Y-124521547D01*
X114452380Y-124521547D01*
X113928571Y-124521547D02*
X113833333Y-124473928D01*
X113785714Y-124378690D01*
X113785714Y-124235833D01*
X113833333Y-124140595D01*
X113928571Y-124092976D01*
X114452380Y-124092976D01*
D12*
X190535714Y-70214285D02*
X191107142Y-70404761D01*
X191297619Y-70595238D01*
X191488095Y-70976190D01*
X191488095Y-71547619D01*
X191297619Y-71928571D01*
X191107142Y-72119047D01*
X190726190Y-72309523D01*
X189202380Y-72309523D01*
X189202380Y-68309523D01*
X190535714Y-68309523D01*
X190916666Y-68500000D01*
X191107142Y-68690476D01*
X191297619Y-69071428D01*
X191297619Y-69452380D01*
X191107142Y-69833333D01*
X190916666Y-70023809D01*
X190535714Y-70214285D01*
X189202380Y-70214285D01*
X170488095Y-71928571D02*
X170297619Y-72119047D01*
X169726190Y-72309523D01*
X169345238Y-72309523D01*
X168773809Y-72119047D01*
X168392857Y-71738095D01*
X168202380Y-71357142D01*
X168011904Y-70595238D01*
X168011904Y-70023809D01*
X168202380Y-69261904D01*
X168392857Y-68880952D01*
X168773809Y-68500000D01*
X169345238Y-68309523D01*
X169726190Y-68309523D01*
X170297619Y-68500000D01*
X170488095Y-68690476D01*
X146297619Y-71166666D02*
X148202380Y-71166666D01*
X145916666Y-72309523D02*
X147250000Y-68309523D01*
X148583333Y-72309523D01*
D11*
X183290000Y-107741422D02*
X183290000Y-108258578D01*
X184710000Y-107741422D02*
X184710000Y-108258578D01*
X188008578Y-115040000D02*
X187491422Y-115040000D01*
X188008578Y-116460000D02*
X187491422Y-116460000D01*
X192758578Y-123290000D02*
X192241422Y-123290000D01*
X192758578Y-124710000D02*
X192241422Y-124710000D01*
X185565000Y-108000000D02*
X185565000Y-111450000D01*
X185565000Y-108000000D02*
X185565000Y-106050000D01*
X194435000Y-108000000D02*
X194435000Y-109950000D01*
X194435000Y-108000000D02*
X194435000Y-106050000D01*
X189435000Y-121040000D02*
X186750000Y-121040000D01*
X189435000Y-122960000D02*
X189435000Y-121040000D01*
X186750000Y-122960000D02*
X189435000Y-122960000D01*
X194185000Y-121040000D02*
X191500000Y-121040000D01*
X194185000Y-122960000D02*
X194185000Y-121040000D01*
X191500000Y-122960000D02*
X194185000Y-122960000D01*
X188008578Y-117040000D02*
X187491422Y-117040000D01*
X188008578Y-118460000D02*
X187491422Y-118460000D01*
X188008578Y-123290000D02*
X187491422Y-123290000D01*
X188008578Y-124710000D02*
X187491422Y-124710000D01*
X192241422Y-118460000D02*
X192758578Y-118460000D01*
X192241422Y-117040000D02*
X192758578Y-117040000D01*
X192241422Y-116460000D02*
X192758578Y-116460000D01*
X192241422Y-115040000D02*
X192758578Y-115040000D01*
X123803922Y-75710000D02*
X124321078Y-75710000D01*
X123803922Y-74290000D02*
X124321078Y-74290000D01*
X189803922Y-97290000D02*
X190321078Y-97290000D01*
X189803922Y-98710000D02*
X190321078Y-98710000D01*
X147803922Y-97290000D02*
X148321078Y-97290000D01*
X147803922Y-98710000D02*
X148321078Y-98710000D01*
X157258578Y-116290000D02*
X156741422Y-116290000D01*
X157258578Y-117710000D02*
X156741422Y-117710000D01*
X168803922Y-97290000D02*
X169321078Y-97290000D01*
X168803922Y-98710000D02*
X169321078Y-98710000D01*
X110210000Y-122010000D02*
X110210000Y-120810000D01*
X110210000Y-117490000D02*
X110210000Y-118690000D01*
X106754437Y-117490000D02*
X110210000Y-117490000D01*
X106754437Y-122010000D02*
X110210000Y-122010000D01*
X105690000Y-120945563D02*
X105690000Y-120810000D01*
X105690000Y-118554437D02*
X105690000Y-118690000D01*
X105690000Y-118554437D02*
X106754437Y-117490000D01*
X105690000Y-120945563D02*
X106754437Y-122010000D01*
X104950000Y-118190000D02*
X105450000Y-118190000D01*
X105200000Y-117940000D02*
X105200000Y-118440000D01*
X166040000Y-118127500D02*
X166040000Y-120812500D01*
X167960000Y-118127500D02*
X166040000Y-118127500D01*
X167960000Y-120812500D02*
X167960000Y-118127500D01*
X116960000Y-133000000D02*
X116960000Y-130315000D01*
X116960000Y-130315000D02*
X115040000Y-130315000D01*
X115040000Y-130315000D02*
X115040000Y-133000000D01*
X121040000Y-130315000D02*
X121040000Y-133000000D01*
X122960000Y-130315000D02*
X121040000Y-130315000D01*
X122960000Y-133000000D02*
X122960000Y-130315000D01*
X148960000Y-133685000D02*
X148960000Y-131000000D01*
X147040000Y-133685000D02*
X148960000Y-133685000D01*
X147040000Y-131000000D02*
X147040000Y-133685000D01*
X142960000Y-133685000D02*
X142960000Y-131000000D01*
X141040000Y-133685000D02*
X142960000Y-133685000D01*
X141040000Y-131000000D02*
X141040000Y-133685000D01*
X143040000Y-131000000D02*
X143040000Y-133685000D01*
X143040000Y-133685000D02*
X144960000Y-133685000D01*
X144960000Y-133685000D02*
X144960000Y-131000000D01*
X145040000Y-131000000D02*
X145040000Y-133685000D01*
X145040000Y-133685000D02*
X146960000Y-133685000D01*
X146960000Y-133685000D02*
X146960000Y-131000000D01*
X128960000Y-133000000D02*
X128960000Y-130315000D01*
X128960000Y-130315000D02*
X127040000Y-130315000D01*
X127040000Y-130315000D02*
X127040000Y-133000000D01*
X130960000Y-133000000D02*
X130960000Y-130315000D01*
X130960000Y-130315000D02*
X129040000Y-130315000D01*
X129040000Y-130315000D02*
X129040000Y-133000000D01*
X124960000Y-133685000D02*
X124960000Y-131000000D01*
X123040000Y-133685000D02*
X124960000Y-133685000D01*
X123040000Y-131000000D02*
X123040000Y-133685000D01*
X125040000Y-131000000D02*
X125040000Y-133685000D01*
X125040000Y-133685000D02*
X126960000Y-133685000D01*
X126960000Y-133685000D02*
X126960000Y-131000000D01*
X140960000Y-133000000D02*
X140960000Y-130315000D01*
X140960000Y-130315000D02*
X139040000Y-130315000D01*
X139040000Y-130315000D02*
X139040000Y-133000000D01*
X137040000Y-130315000D02*
X137040000Y-133000000D01*
X138960000Y-130315000D02*
X137040000Y-130315000D01*
X138960000Y-133000000D02*
X138960000Y-130315000D01*
X132960000Y-133000000D02*
X132960000Y-130315000D01*
X132960000Y-130315000D02*
X131040000Y-130315000D01*
X131040000Y-130315000D02*
X131040000Y-133000000D01*
X133040000Y-130315000D02*
X133040000Y-133000000D01*
X134960000Y-130315000D02*
X133040000Y-130315000D01*
X134960000Y-133000000D02*
X134960000Y-130315000D01*
X118960000Y-133000000D02*
X118960000Y-130315000D01*
X118960000Y-130315000D02*
X117040000Y-130315000D01*
X117040000Y-130315000D02*
X117040000Y-133000000D01*
X119040000Y-130315000D02*
X119040000Y-133000000D01*
X120960000Y-130315000D02*
X119040000Y-130315000D01*
X120960000Y-133000000D02*
X120960000Y-130315000D01*
X136960000Y-133000000D02*
X136960000Y-130315000D01*
X136960000Y-130315000D02*
X135040000Y-130315000D01*
X135040000Y-130315000D02*
X135040000Y-133000000D01*
X113040000Y-130315000D02*
X113040000Y-133000000D01*
X114960000Y-130315000D02*
X113040000Y-130315000D01*
X114960000Y-133000000D02*
X114960000Y-130315000D01*
X167710000Y-124446078D02*
X167710000Y-123928922D01*
X166290000Y-124446078D02*
X166290000Y-123928922D01*
X116710000Y-136258578D02*
X116710000Y-135741422D01*
X115290000Y-136258578D02*
X115290000Y-135741422D01*
X121290000Y-136258578D02*
X121290000Y-135741422D01*
X122710000Y-136258578D02*
X122710000Y-135741422D01*
X148710000Y-136258578D02*
X148710000Y-135741422D01*
X147290000Y-136258578D02*
X147290000Y-135741422D01*
X141290000Y-136258578D02*
X141290000Y-135741422D01*
X142710000Y-136258578D02*
X142710000Y-135741422D01*
X144710000Y-136258578D02*
X144710000Y-135741422D01*
X143290000Y-136258578D02*
X143290000Y-135741422D01*
X145290000Y-136258578D02*
X145290000Y-135741422D01*
X146710000Y-136258578D02*
X146710000Y-135741422D01*
X128710000Y-136258578D02*
X128710000Y-135741422D01*
X127290000Y-136258578D02*
X127290000Y-135741422D01*
X129290000Y-136258578D02*
X129290000Y-135741422D01*
X130710000Y-136258578D02*
X130710000Y-135741422D01*
X123290000Y-136258578D02*
X123290000Y-135741422D01*
X124710000Y-136258578D02*
X124710000Y-135741422D01*
X126710000Y-136258578D02*
X126710000Y-135741422D01*
X125290000Y-136258578D02*
X125290000Y-135741422D01*
X139290000Y-136258578D02*
X139290000Y-135741422D01*
X140710000Y-136258578D02*
X140710000Y-135741422D01*
X138710000Y-136258578D02*
X138710000Y-135741422D01*
X137290000Y-136258578D02*
X137290000Y-135741422D01*
X131290000Y-136258578D02*
X131290000Y-135741422D01*
X132710000Y-136258578D02*
X132710000Y-135741422D01*
X134710000Y-136258578D02*
X134710000Y-135741422D01*
X133290000Y-136258578D02*
X133290000Y-135741422D01*
X117290000Y-136258578D02*
X117290000Y-135741422D01*
X118710000Y-136258578D02*
X118710000Y-135741422D01*
X120710000Y-136258578D02*
X120710000Y-135741422D01*
X119290000Y-136258578D02*
X119290000Y-135741422D01*
X135290000Y-136258578D02*
X135290000Y-135741422D01*
X136710000Y-136258578D02*
X136710000Y-135741422D01*
X114710000Y-136258578D02*
X114710000Y-135741422D01*
X113290000Y-136258578D02*
X113290000Y-135741422D01*
D10*
X116675000Y-92875000D02*
X116675000Y-93000000D01*
X121325000Y-92875000D02*
X121325000Y-93100000D01*
X121325000Y-98125000D02*
X121325000Y-97900000D01*
X116675000Y-98125000D02*
X116675000Y-97900000D01*
X116675000Y-92875000D02*
X121325000Y-92875000D01*
X116675000Y-98125000D02*
X121325000Y-98125000D01*
X116675000Y-93000000D02*
X115325000Y-93000000D01*
D11*
X119000000Y-90810000D02*
X120950000Y-90810000D01*
X119000000Y-90810000D02*
X117050000Y-90810000D01*
X119000000Y-80690000D02*
X120950000Y-80690000D01*
X119000000Y-80690000D02*
X115550000Y-80690000D01*
X168935000Y-107750000D02*
X168935000Y-105800000D01*
X168935000Y-107750000D02*
X168935000Y-109700000D01*
X160065000Y-107750000D02*
X160065000Y-105800000D01*
X160065000Y-107750000D02*
X160065000Y-111200000D01*
X144315000Y-107750000D02*
X144315000Y-111200000D01*
X144315000Y-107750000D02*
X144315000Y-105800000D01*
X153185000Y-107750000D02*
X153185000Y-109700000D01*
X153185000Y-107750000D02*
X153185000Y-105800000D01*
D10*
X130750000Y-84175000D02*
X130750000Y-82825000D01*
X125625000Y-84175000D02*
X125625000Y-88825000D01*
X130875000Y-84175000D02*
X130875000Y-88825000D01*
X125625000Y-84175000D02*
X125850000Y-84175000D01*
X125625000Y-88825000D02*
X125850000Y-88825000D01*
X130875000Y-88825000D02*
X130650000Y-88825000D01*
X130875000Y-84175000D02*
X130750000Y-84175000D01*
D11*
X157100000Y-74600000D02*
X138900000Y-74600000D01*
X138900000Y-74600000D02*
X138900000Y-95400000D01*
X138900000Y-95400000D02*
X155100000Y-95400000D01*
X155100000Y-95400000D02*
X157100000Y-93400000D01*
X157100000Y-93400000D02*
X157100000Y-74600000D01*
X199100000Y-93400000D02*
X199100000Y-74600000D01*
X197100000Y-95400000D02*
X199100000Y-93400000D01*
X180900000Y-95400000D02*
X197100000Y-95400000D01*
X180900000Y-74600000D02*
X180900000Y-95400000D01*
X199100000Y-74600000D02*
X180900000Y-74600000D01*
X178100000Y-74600000D02*
X159900000Y-74600000D01*
X159900000Y-74600000D02*
X159900000Y-95400000D01*
X159900000Y-95400000D02*
X176100000Y-95400000D01*
X176100000Y-95400000D02*
X178100000Y-93400000D01*
X178100000Y-93400000D02*
X178100000Y-74600000D01*
M02*
