G04 #@! TF.GenerationSoftware,KiCad,Pcbnew,(5.1.5-0-10_14)*
G04 #@! TF.CreationDate,2020-10-26T17:44:22+01:00*
G04 #@! TF.ProjectId,control,636f6e74-726f-46c2-9e6b-696361645f70,2*
G04 #@! TF.SameCoordinates,Original*
G04 #@! TF.FileFunction,Legend,Bot*
G04 #@! TF.FilePolarity,Positive*
%FSLAX46Y46*%
G04 Gerber Fmt 4.6, Leading zero omitted, Abs format (unit mm)*
G04 Created by KiCad (PCBNEW (5.1.5-0-10_14)) date 2020-10-26 17:44:22*
%MOMM*%
%LPD*%
G04 APERTURE LIST*
%ADD10C,0.150000*%
%ADD11C,0.120000*%
G04 APERTURE END LIST*
D10*
X160171428Y-87227380D02*
X160647619Y-87227380D01*
X160647619Y-86227380D01*
X159838095Y-87227380D02*
X159838095Y-86560714D01*
X159838095Y-86227380D02*
X159885714Y-86275000D01*
X159838095Y-86322619D01*
X159790476Y-86275000D01*
X159838095Y-86227380D01*
X159838095Y-86322619D01*
X158933333Y-87179761D02*
X159028571Y-87227380D01*
X159219047Y-87227380D01*
X159314285Y-87179761D01*
X159361904Y-87132142D01*
X159409523Y-87036904D01*
X159409523Y-86751190D01*
X159361904Y-86655952D01*
X159314285Y-86608333D01*
X159219047Y-86560714D01*
X159028571Y-86560714D01*
X158933333Y-86608333D01*
X158123809Y-87179761D02*
X158219047Y-87227380D01*
X158409523Y-87227380D01*
X158504761Y-87179761D01*
X158552380Y-87084523D01*
X158552380Y-86703571D01*
X158504761Y-86608333D01*
X158409523Y-86560714D01*
X158219047Y-86560714D01*
X158123809Y-86608333D01*
X158076190Y-86703571D01*
X158076190Y-86798809D01*
X158552380Y-86894047D01*
X157647619Y-86560714D02*
X157647619Y-87227380D01*
X157647619Y-86655952D02*
X157600000Y-86608333D01*
X157504761Y-86560714D01*
X157361904Y-86560714D01*
X157266666Y-86608333D01*
X157219047Y-86703571D01*
X157219047Y-87227380D01*
X156790476Y-87179761D02*
X156695238Y-87227380D01*
X156504761Y-87227380D01*
X156409523Y-87179761D01*
X156361904Y-87084523D01*
X156361904Y-87036904D01*
X156409523Y-86941666D01*
X156504761Y-86894047D01*
X156647619Y-86894047D01*
X156742857Y-86846428D01*
X156790476Y-86751190D01*
X156790476Y-86703571D01*
X156742857Y-86608333D01*
X156647619Y-86560714D01*
X156504761Y-86560714D01*
X156409523Y-86608333D01*
X155552380Y-87179761D02*
X155647619Y-87227380D01*
X155838095Y-87227380D01*
X155933333Y-87179761D01*
X155980952Y-87084523D01*
X155980952Y-86703571D01*
X155933333Y-86608333D01*
X155838095Y-86560714D01*
X155647619Y-86560714D01*
X155552380Y-86608333D01*
X155504761Y-86703571D01*
X155504761Y-86798809D01*
X155980952Y-86894047D01*
X154647619Y-87227380D02*
X154647619Y-86227380D01*
X154647619Y-87179761D02*
X154742857Y-87227380D01*
X154933333Y-87227380D01*
X155028571Y-87179761D01*
X155076190Y-87132142D01*
X155123809Y-87036904D01*
X155123809Y-86751190D01*
X155076190Y-86655952D01*
X155028571Y-86608333D01*
X154933333Y-86560714D01*
X154742857Y-86560714D01*
X154647619Y-86608333D01*
X152980952Y-86560714D02*
X152980952Y-87227380D01*
X153409523Y-86560714D02*
X153409523Y-87084523D01*
X153361904Y-87179761D01*
X153266666Y-87227380D01*
X153123809Y-87227380D01*
X153028571Y-87179761D01*
X152980952Y-87132142D01*
X152504761Y-86560714D02*
X152504761Y-87227380D01*
X152504761Y-86655952D02*
X152457142Y-86608333D01*
X152361904Y-86560714D01*
X152219047Y-86560714D01*
X152123809Y-86608333D01*
X152076190Y-86703571D01*
X152076190Y-87227380D01*
X151171428Y-87227380D02*
X151171428Y-86227380D01*
X151171428Y-87179761D02*
X151266666Y-87227380D01*
X151457142Y-87227380D01*
X151552380Y-87179761D01*
X151600000Y-87132142D01*
X151647619Y-87036904D01*
X151647619Y-86751190D01*
X151600000Y-86655952D01*
X151552380Y-86608333D01*
X151457142Y-86560714D01*
X151266666Y-86560714D01*
X151171428Y-86608333D01*
X150314285Y-87179761D02*
X150409523Y-87227380D01*
X150600000Y-87227380D01*
X150695238Y-87179761D01*
X150742857Y-87084523D01*
X150742857Y-86703571D01*
X150695238Y-86608333D01*
X150600000Y-86560714D01*
X150409523Y-86560714D01*
X150314285Y-86608333D01*
X150266666Y-86703571D01*
X150266666Y-86798809D01*
X150742857Y-86894047D01*
X149838095Y-87227380D02*
X149838095Y-86560714D01*
X149838095Y-86751190D02*
X149790476Y-86655952D01*
X149742857Y-86608333D01*
X149647619Y-86560714D01*
X149552380Y-86560714D01*
X148600000Y-86560714D02*
X148219047Y-86560714D01*
X148457142Y-86227380D02*
X148457142Y-87084523D01*
X148409523Y-87179761D01*
X148314285Y-87227380D01*
X148219047Y-87227380D01*
X147885714Y-87227380D02*
X147885714Y-86227380D01*
X147457142Y-87227380D02*
X147457142Y-86703571D01*
X147504761Y-86608333D01*
X147600000Y-86560714D01*
X147742857Y-86560714D01*
X147838095Y-86608333D01*
X147885714Y-86655952D01*
X146600000Y-87179761D02*
X146695238Y-87227380D01*
X146885714Y-87227380D01*
X146980952Y-87179761D01*
X147028571Y-87084523D01*
X147028571Y-86703571D01*
X146980952Y-86608333D01*
X146885714Y-86560714D01*
X146695238Y-86560714D01*
X146600000Y-86608333D01*
X146552380Y-86703571D01*
X146552380Y-86798809D01*
X147028571Y-86894047D01*
X145504761Y-86227380D02*
X144933333Y-86227380D01*
X145219047Y-87227380D02*
X145219047Y-86227380D01*
X144647619Y-86941666D02*
X144171428Y-86941666D01*
X144742857Y-87227380D02*
X144409523Y-86227380D01*
X144076190Y-87227380D01*
X143742857Y-87227380D02*
X143742857Y-86227380D01*
X143361904Y-86227380D01*
X143266666Y-86275000D01*
X143219047Y-86322619D01*
X143171428Y-86417857D01*
X143171428Y-86560714D01*
X143219047Y-86655952D01*
X143266666Y-86703571D01*
X143361904Y-86751190D01*
X143742857Y-86751190D01*
X142171428Y-87227380D02*
X142504761Y-86751190D01*
X142742857Y-87227380D02*
X142742857Y-86227380D01*
X142361904Y-86227380D01*
X142266666Y-86275000D01*
X142219047Y-86322619D01*
X142171428Y-86417857D01*
X142171428Y-86560714D01*
X142219047Y-86655952D01*
X142266666Y-86703571D01*
X142361904Y-86751190D01*
X142742857Y-86751190D01*
X140790476Y-86227380D02*
X140600000Y-86227380D01*
X140504761Y-86275000D01*
X140409523Y-86370238D01*
X140361904Y-86560714D01*
X140361904Y-86894047D01*
X140409523Y-87084523D01*
X140504761Y-87179761D01*
X140600000Y-87227380D01*
X140790476Y-87227380D01*
X140885714Y-87179761D01*
X140980952Y-87084523D01*
X141028571Y-86894047D01*
X141028571Y-86560714D01*
X140980952Y-86370238D01*
X140885714Y-86275000D01*
X140790476Y-86227380D01*
X139933333Y-87227380D02*
X139933333Y-86227380D01*
X139933333Y-86703571D02*
X139361904Y-86703571D01*
X139361904Y-87227380D02*
X139361904Y-86227380D01*
X138409523Y-87227380D02*
X138885714Y-87227380D01*
X138885714Y-86227380D01*
X156480952Y-89258333D02*
X156528571Y-89210714D01*
X156623809Y-89067857D01*
X156671428Y-88972619D01*
X156719047Y-88829761D01*
X156766666Y-88591666D01*
X156766666Y-88401190D01*
X156719047Y-88163095D01*
X156671428Y-88020238D01*
X156623809Y-87925000D01*
X156528571Y-87782142D01*
X156480952Y-87734523D01*
X156195238Y-88210714D02*
X156004761Y-88877380D01*
X155814285Y-88401190D01*
X155623809Y-88877380D01*
X155433333Y-88210714D01*
X155147619Y-88210714D02*
X154957142Y-88877380D01*
X154766666Y-88401190D01*
X154576190Y-88877380D01*
X154385714Y-88210714D01*
X154100000Y-88210714D02*
X153909523Y-88877380D01*
X153719047Y-88401190D01*
X153528571Y-88877380D01*
X153338095Y-88210714D01*
X152957142Y-88782142D02*
X152909523Y-88829761D01*
X152957142Y-88877380D01*
X153004761Y-88829761D01*
X152957142Y-88782142D01*
X152957142Y-88877380D01*
X152623809Y-88210714D02*
X152242857Y-88210714D01*
X152480952Y-87877380D02*
X152480952Y-88734523D01*
X152433333Y-88829761D01*
X152338095Y-88877380D01*
X152242857Y-88877380D01*
X151480952Y-88877380D02*
X151480952Y-88353571D01*
X151528571Y-88258333D01*
X151623809Y-88210714D01*
X151814285Y-88210714D01*
X151909523Y-88258333D01*
X151480952Y-88829761D02*
X151576190Y-88877380D01*
X151814285Y-88877380D01*
X151909523Y-88829761D01*
X151957142Y-88734523D01*
X151957142Y-88639285D01*
X151909523Y-88544047D01*
X151814285Y-88496428D01*
X151576190Y-88496428D01*
X151480952Y-88448809D01*
X151004761Y-88210714D02*
X151004761Y-89210714D01*
X151004761Y-88258333D02*
X150909523Y-88210714D01*
X150719047Y-88210714D01*
X150623809Y-88258333D01*
X150576190Y-88305952D01*
X150528571Y-88401190D01*
X150528571Y-88686904D01*
X150576190Y-88782142D01*
X150623809Y-88829761D01*
X150719047Y-88877380D01*
X150909523Y-88877380D01*
X151004761Y-88829761D01*
X150100000Y-88877380D02*
X150100000Y-88210714D01*
X150100000Y-88401190D02*
X150052380Y-88305952D01*
X150004761Y-88258333D01*
X149909523Y-88210714D01*
X149814285Y-88210714D01*
X149480952Y-88782142D02*
X149433333Y-88829761D01*
X149480952Y-88877380D01*
X149528571Y-88829761D01*
X149480952Y-88782142D01*
X149480952Y-88877380D01*
X148861904Y-88877380D02*
X148957142Y-88829761D01*
X149004761Y-88782142D01*
X149052380Y-88686904D01*
X149052380Y-88401190D01*
X149004761Y-88305952D01*
X148957142Y-88258333D01*
X148861904Y-88210714D01*
X148719047Y-88210714D01*
X148623809Y-88258333D01*
X148576190Y-88305952D01*
X148528571Y-88401190D01*
X148528571Y-88686904D01*
X148576190Y-88782142D01*
X148623809Y-88829761D01*
X148719047Y-88877380D01*
X148861904Y-88877380D01*
X148100000Y-88877380D02*
X148100000Y-88210714D01*
X148100000Y-88401190D02*
X148052380Y-88305952D01*
X148004761Y-88258333D01*
X147909523Y-88210714D01*
X147814285Y-88210714D01*
X147052380Y-88210714D02*
X147052380Y-89020238D01*
X147100000Y-89115476D01*
X147147619Y-89163095D01*
X147242857Y-89210714D01*
X147385714Y-89210714D01*
X147480952Y-89163095D01*
X147052380Y-88829761D02*
X147147619Y-88877380D01*
X147338095Y-88877380D01*
X147433333Y-88829761D01*
X147480952Y-88782142D01*
X147528571Y-88686904D01*
X147528571Y-88401190D01*
X147480952Y-88305952D01*
X147433333Y-88258333D01*
X147338095Y-88210714D01*
X147147619Y-88210714D01*
X147052380Y-88258333D01*
X145861904Y-87829761D02*
X146719047Y-89115476D01*
X145338095Y-87877380D02*
X145147619Y-87877380D01*
X145052380Y-87925000D01*
X144957142Y-88020238D01*
X144909523Y-88210714D01*
X144909523Y-88544047D01*
X144957142Y-88734523D01*
X145052380Y-88829761D01*
X145147619Y-88877380D01*
X145338095Y-88877380D01*
X145433333Y-88829761D01*
X145528571Y-88734523D01*
X145576190Y-88544047D01*
X145576190Y-88210714D01*
X145528571Y-88020238D01*
X145433333Y-87925000D01*
X145338095Y-87877380D01*
X144480952Y-88877380D02*
X144480952Y-87877380D01*
X144480952Y-88353571D02*
X143909523Y-88353571D01*
X143909523Y-88877380D02*
X143909523Y-87877380D01*
X142957142Y-88877380D02*
X143433333Y-88877380D01*
X143433333Y-87877380D01*
X142719047Y-89258333D02*
X142671428Y-89210714D01*
X142576190Y-89067857D01*
X142528571Y-88972619D01*
X142480952Y-88829761D01*
X142433333Y-88591666D01*
X142433333Y-88401190D01*
X142480952Y-88163095D01*
X142528571Y-88020238D01*
X142576190Y-87925000D01*
X142671428Y-87782142D01*
X142719047Y-87734523D01*
D11*
X107020000Y-60670000D02*
X107020000Y-111590000D01*
X107020000Y-111590000D02*
X104360000Y-111590000D01*
X104360000Y-111590000D02*
X104360000Y-60670000D01*
X104360000Y-60670000D02*
X107020000Y-60670000D01*
X104360000Y-61620000D02*
X98360000Y-61620000D01*
X98360000Y-61620000D02*
X98360000Y-62380000D01*
X98360000Y-62380000D02*
X104360000Y-62380000D01*
X104360000Y-61680000D02*
X98360000Y-61680000D01*
X104360000Y-61800000D02*
X98360000Y-61800000D01*
X104360000Y-61920000D02*
X98360000Y-61920000D01*
X104360000Y-62040000D02*
X98360000Y-62040000D01*
X104360000Y-62160000D02*
X98360000Y-62160000D01*
X104360000Y-62280000D02*
X98360000Y-62280000D01*
X107417071Y-61620000D02*
X107020000Y-61620000D01*
X107417071Y-62380000D02*
X107020000Y-62380000D01*
X109890000Y-61620000D02*
X109502929Y-61620000D01*
X109890000Y-62380000D02*
X109502929Y-62380000D01*
X107020000Y-63270000D02*
X104360000Y-63270000D01*
X104360000Y-64160000D02*
X98360000Y-64160000D01*
X98360000Y-64160000D02*
X98360000Y-64920000D01*
X98360000Y-64920000D02*
X104360000Y-64920000D01*
X107417071Y-64160000D02*
X107020000Y-64160000D01*
X107417071Y-64920000D02*
X107020000Y-64920000D01*
X109957071Y-64160000D02*
X109502929Y-64160000D01*
X109957071Y-64920000D02*
X109502929Y-64920000D01*
X107020000Y-65810000D02*
X104360000Y-65810000D01*
X104360000Y-66700000D02*
X98360000Y-66700000D01*
X98360000Y-66700000D02*
X98360000Y-67460000D01*
X98360000Y-67460000D02*
X104360000Y-67460000D01*
X107417071Y-66700000D02*
X107020000Y-66700000D01*
X107417071Y-67460000D02*
X107020000Y-67460000D01*
X109957071Y-66700000D02*
X109502929Y-66700000D01*
X109957071Y-67460000D02*
X109502929Y-67460000D01*
X107020000Y-68350000D02*
X104360000Y-68350000D01*
X104360000Y-69240000D02*
X98360000Y-69240000D01*
X98360000Y-69240000D02*
X98360000Y-70000000D01*
X98360000Y-70000000D02*
X104360000Y-70000000D01*
X107417071Y-69240000D02*
X107020000Y-69240000D01*
X107417071Y-70000000D02*
X107020000Y-70000000D01*
X109957071Y-69240000D02*
X109502929Y-69240000D01*
X109957071Y-70000000D02*
X109502929Y-70000000D01*
X107020000Y-70890000D02*
X104360000Y-70890000D01*
X104360000Y-71780000D02*
X98360000Y-71780000D01*
X98360000Y-71780000D02*
X98360000Y-72540000D01*
X98360000Y-72540000D02*
X104360000Y-72540000D01*
X107417071Y-71780000D02*
X107020000Y-71780000D01*
X107417071Y-72540000D02*
X107020000Y-72540000D01*
X109957071Y-71780000D02*
X109502929Y-71780000D01*
X109957071Y-72540000D02*
X109502929Y-72540000D01*
X107020000Y-73430000D02*
X104360000Y-73430000D01*
X104360000Y-74320000D02*
X98360000Y-74320000D01*
X98360000Y-74320000D02*
X98360000Y-75080000D01*
X98360000Y-75080000D02*
X104360000Y-75080000D01*
X107417071Y-74320000D02*
X107020000Y-74320000D01*
X107417071Y-75080000D02*
X107020000Y-75080000D01*
X109957071Y-74320000D02*
X109502929Y-74320000D01*
X109957071Y-75080000D02*
X109502929Y-75080000D01*
X107020000Y-75970000D02*
X104360000Y-75970000D01*
X104360000Y-76860000D02*
X98360000Y-76860000D01*
X98360000Y-76860000D02*
X98360000Y-77620000D01*
X98360000Y-77620000D02*
X104360000Y-77620000D01*
X107417071Y-76860000D02*
X107020000Y-76860000D01*
X107417071Y-77620000D02*
X107020000Y-77620000D01*
X109957071Y-76860000D02*
X109502929Y-76860000D01*
X109957071Y-77620000D02*
X109502929Y-77620000D01*
X107020000Y-78510000D02*
X104360000Y-78510000D01*
X104360000Y-79400000D02*
X98360000Y-79400000D01*
X98360000Y-79400000D02*
X98360000Y-80160000D01*
X98360000Y-80160000D02*
X104360000Y-80160000D01*
X107417071Y-79400000D02*
X107020000Y-79400000D01*
X107417071Y-80160000D02*
X107020000Y-80160000D01*
X109957071Y-79400000D02*
X109502929Y-79400000D01*
X109957071Y-80160000D02*
X109502929Y-80160000D01*
X107020000Y-81050000D02*
X104360000Y-81050000D01*
X104360000Y-81940000D02*
X98360000Y-81940000D01*
X98360000Y-81940000D02*
X98360000Y-82700000D01*
X98360000Y-82700000D02*
X104360000Y-82700000D01*
X107417071Y-81940000D02*
X107020000Y-81940000D01*
X107417071Y-82700000D02*
X107020000Y-82700000D01*
X109957071Y-81940000D02*
X109502929Y-81940000D01*
X109957071Y-82700000D02*
X109502929Y-82700000D01*
X107020000Y-83590000D02*
X104360000Y-83590000D01*
X104360000Y-84480000D02*
X98360000Y-84480000D01*
X98360000Y-84480000D02*
X98360000Y-85240000D01*
X98360000Y-85240000D02*
X104360000Y-85240000D01*
X107417071Y-84480000D02*
X107020000Y-84480000D01*
X107417071Y-85240000D02*
X107020000Y-85240000D01*
X109957071Y-84480000D02*
X109502929Y-84480000D01*
X109957071Y-85240000D02*
X109502929Y-85240000D01*
X107020000Y-86130000D02*
X104360000Y-86130000D01*
X104360000Y-87020000D02*
X98360000Y-87020000D01*
X98360000Y-87020000D02*
X98360000Y-87780000D01*
X98360000Y-87780000D02*
X104360000Y-87780000D01*
X107417071Y-87020000D02*
X107020000Y-87020000D01*
X107417071Y-87780000D02*
X107020000Y-87780000D01*
X109957071Y-87020000D02*
X109502929Y-87020000D01*
X109957071Y-87780000D02*
X109502929Y-87780000D01*
X107020000Y-88670000D02*
X104360000Y-88670000D01*
X104360000Y-89560000D02*
X98360000Y-89560000D01*
X98360000Y-89560000D02*
X98360000Y-90320000D01*
X98360000Y-90320000D02*
X104360000Y-90320000D01*
X107417071Y-89560000D02*
X107020000Y-89560000D01*
X107417071Y-90320000D02*
X107020000Y-90320000D01*
X109957071Y-89560000D02*
X109502929Y-89560000D01*
X109957071Y-90320000D02*
X109502929Y-90320000D01*
X107020000Y-91210000D02*
X104360000Y-91210000D01*
X104360000Y-92100000D02*
X98360000Y-92100000D01*
X98360000Y-92100000D02*
X98360000Y-92860000D01*
X98360000Y-92860000D02*
X104360000Y-92860000D01*
X107417071Y-92100000D02*
X107020000Y-92100000D01*
X107417071Y-92860000D02*
X107020000Y-92860000D01*
X109957071Y-92100000D02*
X109502929Y-92100000D01*
X109957071Y-92860000D02*
X109502929Y-92860000D01*
X107020000Y-93750000D02*
X104360000Y-93750000D01*
X104360000Y-94640000D02*
X98360000Y-94640000D01*
X98360000Y-94640000D02*
X98360000Y-95400000D01*
X98360000Y-95400000D02*
X104360000Y-95400000D01*
X107417071Y-94640000D02*
X107020000Y-94640000D01*
X107417071Y-95400000D02*
X107020000Y-95400000D01*
X109957071Y-94640000D02*
X109502929Y-94640000D01*
X109957071Y-95400000D02*
X109502929Y-95400000D01*
X107020000Y-96290000D02*
X104360000Y-96290000D01*
X104360000Y-97180000D02*
X98360000Y-97180000D01*
X98360000Y-97180000D02*
X98360000Y-97940000D01*
X98360000Y-97940000D02*
X104360000Y-97940000D01*
X107417071Y-97180000D02*
X107020000Y-97180000D01*
X107417071Y-97940000D02*
X107020000Y-97940000D01*
X109957071Y-97180000D02*
X109502929Y-97180000D01*
X109957071Y-97940000D02*
X109502929Y-97940000D01*
X107020000Y-98830000D02*
X104360000Y-98830000D01*
X104360000Y-99720000D02*
X98360000Y-99720000D01*
X98360000Y-99720000D02*
X98360000Y-100480000D01*
X98360000Y-100480000D02*
X104360000Y-100480000D01*
X107417071Y-99720000D02*
X107020000Y-99720000D01*
X107417071Y-100480000D02*
X107020000Y-100480000D01*
X109957071Y-99720000D02*
X109502929Y-99720000D01*
X109957071Y-100480000D02*
X109502929Y-100480000D01*
X107020000Y-101370000D02*
X104360000Y-101370000D01*
X104360000Y-102260000D02*
X98360000Y-102260000D01*
X98360000Y-102260000D02*
X98360000Y-103020000D01*
X98360000Y-103020000D02*
X104360000Y-103020000D01*
X107417071Y-102260000D02*
X107020000Y-102260000D01*
X107417071Y-103020000D02*
X107020000Y-103020000D01*
X109957071Y-102260000D02*
X109502929Y-102260000D01*
X109957071Y-103020000D02*
X109502929Y-103020000D01*
X107020000Y-103910000D02*
X104360000Y-103910000D01*
X104360000Y-104800000D02*
X98360000Y-104800000D01*
X98360000Y-104800000D02*
X98360000Y-105560000D01*
X98360000Y-105560000D02*
X104360000Y-105560000D01*
X107417071Y-104800000D02*
X107020000Y-104800000D01*
X107417071Y-105560000D02*
X107020000Y-105560000D01*
X109957071Y-104800000D02*
X109502929Y-104800000D01*
X109957071Y-105560000D02*
X109502929Y-105560000D01*
X107020000Y-106450000D02*
X104360000Y-106450000D01*
X104360000Y-107340000D02*
X98360000Y-107340000D01*
X98360000Y-107340000D02*
X98360000Y-108100000D01*
X98360000Y-108100000D02*
X104360000Y-108100000D01*
X107417071Y-107340000D02*
X107020000Y-107340000D01*
X107417071Y-108100000D02*
X107020000Y-108100000D01*
X109957071Y-107340000D02*
X109502929Y-107340000D01*
X109957071Y-108100000D02*
X109502929Y-108100000D01*
X107020000Y-108990000D02*
X104360000Y-108990000D01*
X104360000Y-109880000D02*
X98360000Y-109880000D01*
X98360000Y-109880000D02*
X98360000Y-110640000D01*
X98360000Y-110640000D02*
X104360000Y-110640000D01*
X107417071Y-109880000D02*
X107020000Y-109880000D01*
X107417071Y-110640000D02*
X107020000Y-110640000D01*
X109957071Y-109880000D02*
X109502929Y-109880000D01*
X109957071Y-110640000D02*
X109502929Y-110640000D01*
X112270000Y-62000000D02*
X112270000Y-60730000D01*
X112270000Y-60730000D02*
X111000000Y-60730000D01*
D10*
X105678333Y-59182380D02*
X105678333Y-59896666D01*
X105725952Y-60039523D01*
X105821190Y-60134761D01*
X105964047Y-60182380D01*
X106059285Y-60182380D01*
X104678333Y-60182380D02*
X105249761Y-60182380D01*
X104964047Y-60182380D02*
X104964047Y-59182380D01*
X105059285Y-59325238D01*
X105154523Y-59420476D01*
X105249761Y-59468095D01*
M02*
