M48
; DRILL file {KiCad (5.1.5-0-10_14)} date 2020 March 22, Sunday 18:51:08
; FORMAT={-:-/ absolute / metric / decimal}
; #@! TF.CreationDate,2020-03-22T18:51:08+01:00
; #@! TF.GenerationSoftware,Kicad,Pcbnew,(5.1.5-0-10_14)
; #@! TF.FileFunction,Plated,1,2,PTH
FMAT,2
METRIC
T1C0.400
T2C1.000
%
G90
G05
T1
X102.4Y-125.4
X109.1Y-128.0
X109.7Y-117.5
X113.2Y-78.4
X113.3Y-109.8
X113.8Y-85.94
X114.0Y-116.3
X114.8Y-81.0
X114.8Y-96.1
X114.97Y-88.5
X115.0Y-117.1
X115.2Y-85.8
X115.2Y-89.9
X115.6Y-97.8
X115.7Y-70.8
X115.7Y-103.7
X116.4Y-59.2
X116.4Y-121.4
X117.0Y-123.0
X117.1Y-102.8
X117.2Y-76.2
X117.684Y-86.344
X117.8Y-77.2
X117.8Y-79.2
X118.1Y-105.2
X118.2Y-87.2
X118.7Y-80.0
X119.3Y-127.9
X119.6Y-87.9
X119.9Y-124.7
X120.2Y-116.4
X120.5Y-96.1
X121.0Y-84.2
X121.1Y-97.0
X121.4Y-62.3
X122.0Y-67.0
X122.0Y-70.8
X122.0Y-122.2
X122.194Y-89.265
X122.295Y-107.2
X122.4Y-82.4
X122.5Y-71.8
X123.4Y-103.7
X123.4Y-67.6
X123.565Y-89.8
X123.565Y-96.1
X123.8Y-83.0
X124.0Y-123.0
X124.0Y-138.4
X124.2Y-55.5
X124.2Y-66.4
X124.8Y-65.6
X124.835Y-102.0
X124.9Y-118.5
X124.907Y-54.793
X125.2Y-90.4
X125.5Y-58.5
X125.6Y-64.6
X126.0Y-121.5
X126.0Y-138.4
X126.1Y-74.1
X126.1Y-82.5
X126.1Y-114.5
X126.1Y-120.5
X126.2Y-60.4
X126.207Y-59.207
X126.235Y-104.4
X126.3Y-108.8
X126.8Y-54.0
X126.8Y-61.4
X127.2Y-119.6
X127.3Y-91.9
X127.4Y-77.3
X127.4Y-79.1
X127.4Y-113.8
X127.507Y-53.293
X128.0Y-121.4
X128.5Y-63.0
X128.6Y-73.4
X128.6Y-83.2
X128.6Y-113.2
X128.7Y-91.9
X129.3Y-127.5
X130.0Y-77.8
X130.0Y-96.1
X130.0Y-108.0
X130.0Y-122.9
X131.0Y-100.2
X131.0Y-115.7
X131.1Y-80.7
X131.4Y-126.1
X131.7Y-123.8
X132.0Y-79.0
X132.6Y-83.3
X132.6Y-98.7
X132.7Y-77.8
X132.8Y-123.0
X133.4Y-73.4
X133.4Y-121.4
X134.1Y-58.5
X134.1Y-77.1
X134.1Y-82.2
X134.1Y-101.2
X134.1Y-123.0
X134.8Y-60.4
X134.8Y-108.1
X134.8Y-109.1
X135.8Y-64.6
X135.8Y-115.8
X135.9Y-123.0
X136.8Y-102.0
X136.9Y-78.8
X137.0Y-55.5
X137.0Y-64.6
X137.1Y-95.0
X137.1Y-125.5
X137.6Y-100.2
X137.8Y-54.0
X137.8Y-84.9
X138.5Y-55.493
X138.5Y-65.6
X138.6Y-113.2
X139.1Y-123.0
X139.2Y-66.4
X139.2Y-89.6
X139.2Y-107.2
X139.9Y-69.5
X139.9Y-78.1
X139.9Y-94.8
X140.0Y-59.4
X140.6Y-73.5
X140.6Y-82.8
X140.6Y-96.6
X140.6Y-109.8
X140.6Y-111.8
X141.9Y-80.5
X142.0Y-138.3
X142.9Y-117.1
X143.9Y-95.8
X144.0Y-83.5
X144.0Y-122.9
X144.0Y-138.3
X144.1Y-70.1
X144.6Y-94.8
X144.6Y-101.3
X144.7Y-60.4
X144.7Y-77.4
X144.7Y-109.5
X144.7Y-115.4
X144.752Y-82.57
X144.8Y-79.5
X145.3Y-73.2
X145.3Y-106.1
X145.4Y-55.6
X145.4Y-68.3
X145.4Y-89.6
X145.4Y-128.5
X145.6Y-83.1
X145.7Y-115.4
X145.9Y-58.6
X145.9Y-121.407
X146.0Y-61.4
X146.0Y-76.7
X146.217Y-84.441
X146.3Y-106.1
X146.5Y-95.7
X146.6Y-59.4
X146.6Y-69.0
X146.6Y-102.1
X146.7Y-82.4
X146.706Y-107.014
X147.0Y-123.6
X147.2Y-96.6
X147.3Y-55.6
X147.3Y-73.6
X147.3Y-89.265
X147.3Y-112.6
X147.35Y-66.9
X148.0Y-70.8
X148.0Y-109.5
X148.0Y-138.3
X148.6Y-92.1
X148.632Y-100.5
X148.632Y-113.0
X148.8Y-63.1
X148.8Y-81.0
X149.332Y-114.7
X149.4Y-89.265
X149.5Y-83.2
X150.1Y-95.7
X150.2Y-73.2
X150.2Y-114.2
X150.9Y-76.7
X150.9Y-97.4
X151.6Y-68.3
X151.6Y-83.0
X152.3Y-122.9
X152.4Y-85.8
X152.5Y-58.5
X152.5Y-82.4
X153.4Y-60.4
X153.4Y-77.4
X153.4Y-83.2
X153.4Y-101.3
X153.4Y-125.7
X154.2Y-55.5
X154.2Y-89.2
X154.3Y-91.4
X154.3Y-118.0
X155.0Y-54.8
X155.0Y-65.2
X155.7Y-67.6
X155.7Y-91.1
X155.7Y-119.2
X156.4Y-125.7
X156.6Y-70.8
X156.6Y-122.0
X157.1Y-83.9
X157.5Y-101.4
X157.5Y-105.2
X157.5Y-114.247
X157.5Y-124.9
X157.6Y-58.8
X158.2Y-122.0
X158.3Y-55.1
X158.5Y-115.4
X158.9Y-74.5
X158.9Y-99.1
X159.2Y-73.2
X159.9Y-92.2
X160.0Y-84.2
X160.8Y-62.2
X161.1Y-103.5
X161.2Y-122.7
X161.5Y-130.1
X161.9Y-118.0
X162.0Y-96.9
X162.3Y-99.1
X163.0Y-64.5
X163.0Y-78.1
X163.6Y-84.2
X163.65Y-101.4
X163.7Y-54.0
X163.7Y-66.0
X163.7Y-109.1
X163.7Y-115.2
X163.8Y-76.5
X164.3Y-91.1
X164.3Y-122.7
X164.4Y-61.4
X164.4Y-70.8
X164.4Y-85.8
X164.4Y-102.8
X164.6Y-58.8
X165.0Y-55.2
X165.0Y-65.2
X165.0Y-89.265
X165.0Y-115.3
X165.04Y-103.568
X165.1Y-71.8
X165.6Y-66.0
X165.6Y-78.1
X165.6Y-94.8
X165.6Y-119.2
X165.8Y-82.5
X166.3Y-53.3
X166.3Y-60.5
X166.3Y-66.9
X166.3Y-79.5
X166.3Y-91.1
X166.3Y-102.8
X166.3Y-109.1
X166.3Y-114.3
X167.8Y-75.1
X168.0Y-98.9
X168.049Y-116.236
X168.1Y-63.6
X168.2Y-81.0
X168.4Y-102.8
X168.4Y-115.3
X168.4Y-76.5
X169.5Y-122.0
X169.8Y-70.1
X169.8Y-82.4
X169.8Y-95.5
X169.8Y-106.0
X169.8Y-107.0
X169.8Y-113.2
X170.5Y-66.0
X170.5Y-80.8
X170.5Y-117.1
X171.8Y-88.6
X171.8Y-107.8
X172.2Y-108.8
X172.2Y-120.0
X172.572Y-87.923
X172.6Y-106.8
X173.348Y-87.292
X173.4Y-120.0
X173.8Y-86.4
X174.2Y-119.0
X174.9Y-75.1
X175.0Y-72.0
X175.0Y-101.4
X175.6Y-79.7
X175.7Y-98.5
X175.9Y-106.0
X175.9Y-127.2
X177.2Y-115.2
X178.2Y-80.8
X178.3Y-98.4
X179.2Y-66.0
X180.1Y-118.3
X180.4Y-83.6
X180.5Y-60.4
X180.5Y-66.0
X180.5Y-73.0
X180.6Y-101.4
X181.6Y-78.8
X181.6Y-107.8
X181.6Y-119.0
X181.7Y-55.8
X181.7Y-65.1
X181.7Y-70.0
X181.8Y-91.4
X181.8Y-101.3
X182.092Y-121.407
X182.3Y-105.9
X182.893Y-120.707
X183.0Y-113.2
X183.6Y-106.8
X183.6Y-120.0
X184.2Y-72.2
X184.2Y-78.2
X184.3Y-61.2
X184.3Y-84.8
X184.3Y-100.6
X184.3Y-108.9
X184.3Y-123.5
X185.0Y-112.5
X185.5Y-60.3
X185.5Y-66.9
X185.5Y-95.5
X185.6Y-83.5
X186.3Y-116.9
X186.8Y-55.8
X186.8Y-70.0
X186.8Y-100.6
X187.5Y-82.6
X188.1Y-63.1
X188.3Y-69.1
X189.0Y-66.9
X189.1Y-128.5
X190.3Y-66.1
X190.3Y-101.3
X191.1Y-55.8
X191.1Y-60.3
X191.1Y-102.1
X191.8Y-130.3
X195.2Y-88.3
T2
X108.46Y-62.0
X108.46Y-64.54
X108.46Y-67.08
X108.46Y-69.62
X108.46Y-72.16
X108.46Y-74.7
X108.46Y-77.24
X108.46Y-79.78
X108.46Y-82.32
X108.46Y-84.86
X108.46Y-87.4
X108.46Y-89.94
X108.46Y-92.48
X108.46Y-95.02
X108.46Y-97.56
X108.46Y-100.1
X108.46Y-102.64
X108.46Y-105.18
X108.46Y-107.72
X108.46Y-110.26
X111.0Y-62.0
X111.0Y-64.54
X111.0Y-67.08
X111.0Y-69.62
X111.0Y-72.16
X111.0Y-74.7
X111.0Y-77.24
X111.0Y-79.78
X111.0Y-82.32
X111.0Y-84.86
X111.0Y-87.4
X111.0Y-89.94
X111.0Y-92.48
X111.0Y-95.02
X111.0Y-97.56
X111.0Y-100.1
X111.0Y-102.64
X111.0Y-105.18
X111.0Y-107.72
X111.0Y-110.26
T0
M30
