G04 #@! TF.GenerationSoftware,KiCad,Pcbnew,(5.1.6-0-10_14)*
G04 #@! TF.CreationDate,2020-12-19T15:44:30+01:00*
G04 #@! TF.ProjectId,control,636f6e74-726f-46c2-9e6b-696361645f70,2*
G04 #@! TF.SameCoordinates,Original*
G04 #@! TF.FileFunction,Legend,Top*
G04 #@! TF.FilePolarity,Positive*
%FSLAX46Y46*%
G04 Gerber Fmt 4.6, Leading zero omitted, Abs format (unit mm)*
G04 Created by KiCad (PCBNEW (5.1.6-0-10_14)) date 2020-12-19 15:44:30*
%MOMM*%
%LPD*%
G01*
G04 APERTURE LIST*
%ADD10C,0.150000*%
%ADD11C,0.120000*%
G04 APERTURE END LIST*
D10*
X109452380Y-129664404D02*
X108785714Y-129664404D01*
X108880952Y-129664404D02*
X108833333Y-129616785D01*
X108785714Y-129521547D01*
X108785714Y-129378690D01*
X108833333Y-129283452D01*
X108928571Y-129235833D01*
X109452380Y-129235833D01*
X108928571Y-129235833D02*
X108833333Y-129188214D01*
X108785714Y-129092976D01*
X108785714Y-128950119D01*
X108833333Y-128854880D01*
X108928571Y-128807261D01*
X109452380Y-128807261D01*
X109404761Y-127950119D02*
X109452380Y-128045357D01*
X109452380Y-128235833D01*
X109404761Y-128331071D01*
X109309523Y-128378690D01*
X108928571Y-128378690D01*
X108833333Y-128331071D01*
X108785714Y-128235833D01*
X108785714Y-128045357D01*
X108833333Y-127950119D01*
X108928571Y-127902500D01*
X109023809Y-127902500D01*
X109119047Y-128378690D01*
X109452380Y-127473928D02*
X108785714Y-127473928D01*
X108880952Y-127473928D02*
X108833333Y-127426309D01*
X108785714Y-127331071D01*
X108785714Y-127188214D01*
X108833333Y-127092976D01*
X108928571Y-127045357D01*
X109452380Y-127045357D01*
X108928571Y-127045357D02*
X108833333Y-126997738D01*
X108785714Y-126902500D01*
X108785714Y-126759642D01*
X108833333Y-126664404D01*
X108928571Y-126616785D01*
X109452380Y-126616785D01*
X109547619Y-126378690D02*
X109547619Y-125616785D01*
X109452380Y-125378690D02*
X108785714Y-125378690D01*
X108976190Y-125378690D02*
X108880952Y-125331071D01*
X108833333Y-125283452D01*
X108785714Y-125188214D01*
X108785714Y-125092976D01*
X109452380Y-124331071D02*
X108452380Y-124331071D01*
X109404761Y-124331071D02*
X109452380Y-124426309D01*
X109452380Y-124616785D01*
X109404761Y-124712023D01*
X109357142Y-124759642D01*
X109261904Y-124807261D01*
X108976190Y-124807261D01*
X108880952Y-124759642D01*
X108833333Y-124712023D01*
X108785714Y-124616785D01*
X108785714Y-124426309D01*
X108833333Y-124331071D01*
X108785714Y-123950119D02*
X109452380Y-123712023D01*
X108785714Y-123473928D02*
X109452380Y-123712023D01*
X109690476Y-123807261D01*
X109738095Y-123854880D01*
X109785714Y-123950119D01*
X163304761Y-129135833D02*
X163352380Y-129231071D01*
X163352380Y-129421547D01*
X163304761Y-129516785D01*
X163257142Y-129564404D01*
X163161904Y-129612023D01*
X162876190Y-129612023D01*
X162780952Y-129564404D01*
X162733333Y-129516785D01*
X162685714Y-129421547D01*
X162685714Y-129231071D01*
X162733333Y-129135833D01*
X162685714Y-128802500D02*
X163352380Y-128564404D01*
X162685714Y-128326309D02*
X163352380Y-128564404D01*
X163590476Y-128659642D01*
X163638095Y-128707261D01*
X163685714Y-128802500D01*
X163304761Y-127516785D02*
X163352380Y-127612023D01*
X163352380Y-127802500D01*
X163304761Y-127897738D01*
X163257142Y-127945357D01*
X163161904Y-127992976D01*
X162876190Y-127992976D01*
X162780952Y-127945357D01*
X162733333Y-127897738D01*
X162685714Y-127802500D01*
X162685714Y-127612023D01*
X162733333Y-127516785D01*
X163352380Y-126945357D02*
X163304761Y-127040595D01*
X163209523Y-127088214D01*
X162352380Y-127088214D01*
X163304761Y-126183452D02*
X163352380Y-126278690D01*
X163352380Y-126469166D01*
X163304761Y-126564404D01*
X163209523Y-126612023D01*
X162828571Y-126612023D01*
X162733333Y-126564404D01*
X162685714Y-126469166D01*
X162685714Y-126278690D01*
X162733333Y-126183452D01*
X162828571Y-126135833D01*
X162923809Y-126135833D01*
X163019047Y-126612023D01*
X163447619Y-125945357D02*
X163447619Y-125183452D01*
X162685714Y-125088214D02*
X162685714Y-124707261D01*
X163352380Y-124945357D02*
X162495238Y-124945357D01*
X162400000Y-124897738D01*
X162352380Y-124802500D01*
X162352380Y-124707261D01*
X163352380Y-124231071D02*
X163304761Y-124326309D01*
X163209523Y-124373928D01*
X162352380Y-124373928D01*
X163352380Y-123850119D02*
X162685714Y-123850119D01*
X162352380Y-123850119D02*
X162400000Y-123897738D01*
X162447619Y-123850119D01*
X162400000Y-123802500D01*
X162352380Y-123850119D01*
X162447619Y-123850119D01*
X162685714Y-123373928D02*
X163685714Y-123373928D01*
X162733333Y-123373928D02*
X162685714Y-123278690D01*
X162685714Y-123088214D01*
X162733333Y-122992976D01*
X162780952Y-122945357D01*
X162876190Y-122897738D01*
X163161904Y-122897738D01*
X163257142Y-122945357D01*
X163304761Y-122992976D01*
X163352380Y-123088214D01*
X163352380Y-123278690D01*
X163304761Y-123373928D01*
X163447619Y-122707261D02*
X163447619Y-121945357D01*
X163304761Y-121326309D02*
X163352380Y-121421547D01*
X163352380Y-121612023D01*
X163304761Y-121707261D01*
X163209523Y-121754880D01*
X162828571Y-121754880D01*
X162733333Y-121707261D01*
X162685714Y-121612023D01*
X162685714Y-121421547D01*
X162733333Y-121326309D01*
X162828571Y-121278690D01*
X162923809Y-121278690D01*
X163019047Y-121754880D01*
X162685714Y-120850119D02*
X163352380Y-120850119D01*
X162780952Y-120850119D02*
X162733333Y-120802500D01*
X162685714Y-120707261D01*
X162685714Y-120564404D01*
X162733333Y-120469166D01*
X162828571Y-120421547D01*
X163352380Y-120421547D01*
X163352380Y-119516785D02*
X162828571Y-119516785D01*
X162733333Y-119564404D01*
X162685714Y-119659642D01*
X162685714Y-119850119D01*
X162733333Y-119945357D01*
X163304761Y-119516785D02*
X163352380Y-119612023D01*
X163352380Y-119850119D01*
X163304761Y-119945357D01*
X163209523Y-119992976D01*
X163114285Y-119992976D01*
X163019047Y-119945357D01*
X162971428Y-119850119D01*
X162971428Y-119612023D01*
X162923809Y-119516785D01*
X160785714Y-129659642D02*
X161452380Y-129469166D01*
X160976190Y-129278690D01*
X161452380Y-129088214D01*
X160785714Y-128897738D01*
X161404761Y-128135833D02*
X161452380Y-128231071D01*
X161452380Y-128421547D01*
X161404761Y-128516785D01*
X161309523Y-128564404D01*
X160928571Y-128564404D01*
X160833333Y-128516785D01*
X160785714Y-128421547D01*
X160785714Y-128231071D01*
X160833333Y-128135833D01*
X160928571Y-128088214D01*
X161023809Y-128088214D01*
X161119047Y-128564404D01*
X161547619Y-127897738D02*
X161547619Y-127135833D01*
X161404761Y-126469166D02*
X161452380Y-126564404D01*
X161452380Y-126754880D01*
X161404761Y-126850119D01*
X161357142Y-126897738D01*
X161261904Y-126945357D01*
X160976190Y-126945357D01*
X160880952Y-126897738D01*
X160833333Y-126850119D01*
X160785714Y-126754880D01*
X160785714Y-126564404D01*
X160833333Y-126469166D01*
X160785714Y-126135833D02*
X161452380Y-125897738D01*
X160785714Y-125659642D02*
X161452380Y-125897738D01*
X161690476Y-125992976D01*
X161738095Y-126040595D01*
X161785714Y-126135833D01*
X161404761Y-124850119D02*
X161452380Y-124945357D01*
X161452380Y-125135833D01*
X161404761Y-125231071D01*
X161357142Y-125278690D01*
X161261904Y-125326309D01*
X160976190Y-125326309D01*
X160880952Y-125278690D01*
X160833333Y-125231071D01*
X160785714Y-125135833D01*
X160785714Y-124945357D01*
X160833333Y-124850119D01*
X161452380Y-124278690D02*
X161404761Y-124373928D01*
X161309523Y-124421547D01*
X160452380Y-124421547D01*
X161404761Y-123516785D02*
X161452380Y-123612023D01*
X161452380Y-123802500D01*
X161404761Y-123897738D01*
X161309523Y-123945357D01*
X160928571Y-123945357D01*
X160833333Y-123897738D01*
X160785714Y-123802500D01*
X160785714Y-123612023D01*
X160833333Y-123516785D01*
X160928571Y-123469166D01*
X161023809Y-123469166D01*
X161119047Y-123945357D01*
X159404761Y-129612023D02*
X159452380Y-129516785D01*
X159452380Y-129326309D01*
X159404761Y-129231071D01*
X159309523Y-129183452D01*
X159261904Y-129183452D01*
X159166666Y-129231071D01*
X159119047Y-129326309D01*
X159119047Y-129469166D01*
X159071428Y-129564404D01*
X158976190Y-129612023D01*
X158928571Y-129612023D01*
X158833333Y-129564404D01*
X158785714Y-129469166D01*
X158785714Y-129326309D01*
X158833333Y-129231071D01*
X158785714Y-128326309D02*
X159452380Y-128326309D01*
X158785714Y-128754880D02*
X159309523Y-128754880D01*
X159404761Y-128707261D01*
X159452380Y-128612023D01*
X159452380Y-128469166D01*
X159404761Y-128373928D01*
X159357142Y-128326309D01*
X158785714Y-127850119D02*
X159785714Y-127850119D01*
X158833333Y-127850119D02*
X158785714Y-127754880D01*
X158785714Y-127564404D01*
X158833333Y-127469166D01*
X158880952Y-127421547D01*
X158976190Y-127373928D01*
X159261904Y-127373928D01*
X159357142Y-127421547D01*
X159404761Y-127469166D01*
X159452380Y-127564404D01*
X159452380Y-127754880D01*
X159404761Y-127850119D01*
X159404761Y-126564404D02*
X159452380Y-126659642D01*
X159452380Y-126850119D01*
X159404761Y-126945357D01*
X159309523Y-126992976D01*
X158928571Y-126992976D01*
X158833333Y-126945357D01*
X158785714Y-126850119D01*
X158785714Y-126659642D01*
X158833333Y-126564404D01*
X158928571Y-126516785D01*
X159023809Y-126516785D01*
X159119047Y-126992976D01*
X159452380Y-126088214D02*
X158785714Y-126088214D01*
X158976190Y-126088214D02*
X158880952Y-126040595D01*
X158833333Y-125992976D01*
X158785714Y-125897738D01*
X158785714Y-125802500D01*
X159404761Y-125040595D02*
X159452380Y-125135833D01*
X159452380Y-125326309D01*
X159404761Y-125421547D01*
X159357142Y-125469166D01*
X159261904Y-125516785D01*
X158976190Y-125516785D01*
X158880952Y-125469166D01*
X158833333Y-125421547D01*
X158785714Y-125326309D01*
X158785714Y-125135833D01*
X158833333Y-125040595D01*
X158785714Y-124707261D02*
X159452380Y-124469166D01*
X158785714Y-124231071D02*
X159452380Y-124469166D01*
X159690476Y-124564404D01*
X159738095Y-124612023D01*
X159785714Y-124707261D01*
X159404761Y-123421547D02*
X159452380Y-123516785D01*
X159452380Y-123707261D01*
X159404761Y-123802500D01*
X159357142Y-123850119D01*
X159261904Y-123897738D01*
X158976190Y-123897738D01*
X158880952Y-123850119D01*
X158833333Y-123802500D01*
X158785714Y-123707261D01*
X158785714Y-123516785D01*
X158833333Y-123421547D01*
X159452380Y-122850119D02*
X159404761Y-122945357D01*
X159309523Y-122992976D01*
X158452380Y-122992976D01*
X159404761Y-122088214D02*
X159452380Y-122183452D01*
X159452380Y-122373928D01*
X159404761Y-122469166D01*
X159309523Y-122516785D01*
X158928571Y-122516785D01*
X158833333Y-122469166D01*
X158785714Y-122373928D01*
X158785714Y-122183452D01*
X158833333Y-122088214D01*
X158928571Y-122040595D01*
X159023809Y-122040595D01*
X159119047Y-122516785D01*
X157404761Y-129135833D02*
X157452380Y-129231071D01*
X157452380Y-129421547D01*
X157404761Y-129516785D01*
X157357142Y-129564404D01*
X157261904Y-129612023D01*
X156976190Y-129612023D01*
X156880952Y-129564404D01*
X156833333Y-129516785D01*
X156785714Y-129421547D01*
X156785714Y-129231071D01*
X156833333Y-129135833D01*
X156785714Y-128802500D02*
X157452380Y-128564404D01*
X156785714Y-128326309D02*
X157452380Y-128564404D01*
X157690476Y-128659642D01*
X157738095Y-128707261D01*
X157785714Y-128802500D01*
X157404761Y-127516785D02*
X157452380Y-127612023D01*
X157452380Y-127802500D01*
X157404761Y-127897738D01*
X157357142Y-127945357D01*
X157261904Y-127992976D01*
X156976190Y-127992976D01*
X156880952Y-127945357D01*
X156833333Y-127897738D01*
X156785714Y-127802500D01*
X156785714Y-127612023D01*
X156833333Y-127516785D01*
X157452380Y-126945357D02*
X157404761Y-127040595D01*
X157309523Y-127088214D01*
X156452380Y-127088214D01*
X157404761Y-126183452D02*
X157452380Y-126278690D01*
X157452380Y-126469166D01*
X157404761Y-126564404D01*
X157309523Y-126612023D01*
X156928571Y-126612023D01*
X156833333Y-126564404D01*
X156785714Y-126469166D01*
X156785714Y-126278690D01*
X156833333Y-126183452D01*
X156928571Y-126135833D01*
X157023809Y-126135833D01*
X157119047Y-126612023D01*
X155404761Y-129135833D02*
X155452380Y-129231071D01*
X155452380Y-129421547D01*
X155404761Y-129516785D01*
X155357142Y-129564404D01*
X155261904Y-129612023D01*
X154976190Y-129612023D01*
X154880952Y-129564404D01*
X154833333Y-129516785D01*
X154785714Y-129421547D01*
X154785714Y-129231071D01*
X154833333Y-129135833D01*
X155452380Y-128564404D02*
X155404761Y-128659642D01*
X155309523Y-128707261D01*
X154452380Y-128707261D01*
X155452380Y-128183452D02*
X154452380Y-128183452D01*
X155071428Y-128088214D02*
X155452380Y-127802500D01*
X154785714Y-127802500D02*
X155166666Y-128183452D01*
X114627380Y-144478452D02*
X113627380Y-144478452D01*
X114341666Y-144145119D01*
X113627380Y-143811785D01*
X114627380Y-143811785D01*
X114579761Y-142954642D02*
X114627380Y-143049880D01*
X114627380Y-143240357D01*
X114579761Y-143335595D01*
X114484523Y-143383214D01*
X114103571Y-143383214D01*
X114008333Y-143335595D01*
X113960714Y-143240357D01*
X113960714Y-143049880D01*
X114008333Y-142954642D01*
X114103571Y-142907023D01*
X114198809Y-142907023D01*
X114294047Y-143383214D01*
X114627380Y-142478452D02*
X113960714Y-142478452D01*
X114055952Y-142478452D02*
X114008333Y-142430833D01*
X113960714Y-142335595D01*
X113960714Y-142192738D01*
X114008333Y-142097500D01*
X114103571Y-142049880D01*
X114627380Y-142049880D01*
X114103571Y-142049880D02*
X114008333Y-142002261D01*
X113960714Y-141907023D01*
X113960714Y-141764166D01*
X114008333Y-141668928D01*
X114103571Y-141621309D01*
X114627380Y-141621309D01*
X114627380Y-141002261D02*
X114579761Y-141097500D01*
X114532142Y-141145119D01*
X114436904Y-141192738D01*
X114151190Y-141192738D01*
X114055952Y-141145119D01*
X114008333Y-141097500D01*
X113960714Y-141002261D01*
X113960714Y-140859404D01*
X114008333Y-140764166D01*
X114055952Y-140716547D01*
X114151190Y-140668928D01*
X114436904Y-140668928D01*
X114532142Y-140716547D01*
X114579761Y-140764166D01*
X114627380Y-140859404D01*
X114627380Y-141002261D01*
X114627380Y-140240357D02*
X113960714Y-140240357D01*
X114151190Y-140240357D02*
X114055952Y-140192738D01*
X114008333Y-140145119D01*
X113960714Y-140049880D01*
X113960714Y-139954642D01*
X113960714Y-139716547D02*
X114627380Y-139478452D01*
X113960714Y-139240357D02*
X114627380Y-139478452D01*
X114865476Y-139573690D01*
X114913095Y-139621309D01*
X114960714Y-139716547D01*
X116229761Y-143716547D02*
X116277380Y-143811785D01*
X116277380Y-144002261D01*
X116229761Y-144097500D01*
X116182142Y-144145119D01*
X116086904Y-144192738D01*
X115801190Y-144192738D01*
X115705952Y-144145119D01*
X115658333Y-144097500D01*
X115610714Y-144002261D01*
X115610714Y-143811785D01*
X115658333Y-143716547D01*
X116277380Y-143145119D02*
X116229761Y-143240357D01*
X116182142Y-143287976D01*
X116086904Y-143335595D01*
X115801190Y-143335595D01*
X115705952Y-143287976D01*
X115658333Y-143240357D01*
X115610714Y-143145119D01*
X115610714Y-143002261D01*
X115658333Y-142907023D01*
X115705952Y-142859404D01*
X115801190Y-142811785D01*
X116086904Y-142811785D01*
X116182142Y-142859404D01*
X116229761Y-142907023D01*
X116277380Y-143002261D01*
X116277380Y-143145119D01*
X115610714Y-142383214D02*
X116277380Y-142383214D01*
X115705952Y-142383214D02*
X115658333Y-142335595D01*
X115610714Y-142240357D01*
X115610714Y-142097500D01*
X115658333Y-142002261D01*
X115753571Y-141954642D01*
X116277380Y-141954642D01*
X115610714Y-141621309D02*
X115610714Y-141240357D01*
X115277380Y-141478452D02*
X116134523Y-141478452D01*
X116229761Y-141430833D01*
X116277380Y-141335595D01*
X116277380Y-141240357D01*
X116277380Y-140907023D02*
X115610714Y-140907023D01*
X115801190Y-140907023D02*
X115705952Y-140859404D01*
X115658333Y-140811785D01*
X115610714Y-140716547D01*
X115610714Y-140621309D01*
X116277380Y-140145119D02*
X116229761Y-140240357D01*
X116182142Y-140287976D01*
X116086904Y-140335595D01*
X115801190Y-140335595D01*
X115705952Y-140287976D01*
X115658333Y-140240357D01*
X115610714Y-140145119D01*
X115610714Y-140002261D01*
X115658333Y-139907023D01*
X115705952Y-139859404D01*
X115801190Y-139811785D01*
X116086904Y-139811785D01*
X116182142Y-139859404D01*
X116229761Y-139907023D01*
X116277380Y-140002261D01*
X116277380Y-140145119D01*
X116277380Y-139240357D02*
X116229761Y-139335595D01*
X116134523Y-139383214D01*
X115277380Y-139383214D01*
D11*
X113500000Y-138000000D02*
X116500000Y-138000000D01*
D10*
X120627380Y-144621309D02*
X119627380Y-144621309D01*
X119960714Y-144145119D02*
X120627380Y-144145119D01*
X120055952Y-144145119D02*
X120008333Y-144097500D01*
X119960714Y-144002261D01*
X119960714Y-143859404D01*
X120008333Y-143764166D01*
X120103571Y-143716547D01*
X120627380Y-143716547D01*
X119960714Y-143383214D02*
X119960714Y-143002261D01*
X119627380Y-143240357D02*
X120484523Y-143240357D01*
X120579761Y-143192738D01*
X120627380Y-143097500D01*
X120627380Y-143002261D01*
X120579761Y-142287976D02*
X120627380Y-142383214D01*
X120627380Y-142573690D01*
X120579761Y-142668928D01*
X120484523Y-142716547D01*
X120103571Y-142716547D01*
X120008333Y-142668928D01*
X119960714Y-142573690D01*
X119960714Y-142383214D01*
X120008333Y-142287976D01*
X120103571Y-142240357D01*
X120198809Y-142240357D01*
X120294047Y-142716547D01*
X120627380Y-141811785D02*
X119960714Y-141811785D01*
X120151190Y-141811785D02*
X120055952Y-141764166D01*
X120008333Y-141716547D01*
X119960714Y-141621309D01*
X119960714Y-141526071D01*
X119960714Y-141192738D02*
X120627380Y-141192738D01*
X120055952Y-141192738D02*
X120008333Y-141145119D01*
X119960714Y-141049880D01*
X119960714Y-140907023D01*
X120008333Y-140811785D01*
X120103571Y-140764166D01*
X120627380Y-140764166D01*
X120627380Y-139859404D02*
X120103571Y-139859404D01*
X120008333Y-139907023D01*
X119960714Y-140002261D01*
X119960714Y-140192738D01*
X120008333Y-140287976D01*
X120579761Y-139859404D02*
X120627380Y-139954642D01*
X120627380Y-140192738D01*
X120579761Y-140287976D01*
X120484523Y-140335595D01*
X120389285Y-140335595D01*
X120294047Y-140287976D01*
X120246428Y-140192738D01*
X120246428Y-139954642D01*
X120198809Y-139859404D01*
X120627380Y-139240357D02*
X120579761Y-139335595D01*
X120484523Y-139383214D01*
X119627380Y-139383214D01*
X122277380Y-147430833D02*
X121277380Y-147430833D01*
X122229761Y-147430833D02*
X122277380Y-147526071D01*
X122277380Y-147716547D01*
X122229761Y-147811785D01*
X122182142Y-147859404D01*
X122086904Y-147907023D01*
X121801190Y-147907023D01*
X121705952Y-147859404D01*
X121658333Y-147811785D01*
X121610714Y-147716547D01*
X121610714Y-147526071D01*
X121658333Y-147430833D01*
X122277380Y-146526071D02*
X121753571Y-146526071D01*
X121658333Y-146573690D01*
X121610714Y-146668928D01*
X121610714Y-146859404D01*
X121658333Y-146954642D01*
X122229761Y-146526071D02*
X122277380Y-146621309D01*
X122277380Y-146859404D01*
X122229761Y-146954642D01*
X122134523Y-147002261D01*
X122039285Y-147002261D01*
X121944047Y-146954642D01*
X121896428Y-146859404D01*
X121896428Y-146621309D01*
X121848809Y-146526071D01*
X121610714Y-146192738D02*
X121610714Y-145811785D01*
X121277380Y-146049880D02*
X122134523Y-146049880D01*
X122229761Y-146002261D01*
X122277380Y-145907023D01*
X122277380Y-145811785D01*
X122277380Y-145049880D02*
X121753571Y-145049880D01*
X121658333Y-145097500D01*
X121610714Y-145192738D01*
X121610714Y-145383214D01*
X121658333Y-145478452D01*
X122229761Y-145049880D02*
X122277380Y-145145119D01*
X122277380Y-145383214D01*
X122229761Y-145478452D01*
X122134523Y-145526071D01*
X122039285Y-145526071D01*
X121944047Y-145478452D01*
X121896428Y-145383214D01*
X121896428Y-145145119D01*
X121848809Y-145049880D01*
X122229761Y-143859404D02*
X122277380Y-143764166D01*
X122277380Y-143573690D01*
X122229761Y-143478452D01*
X122134523Y-143430833D01*
X122086904Y-143430833D01*
X121991666Y-143478452D01*
X121944047Y-143573690D01*
X121944047Y-143716547D01*
X121896428Y-143811785D01*
X121801190Y-143859404D01*
X121753571Y-143859404D01*
X121658333Y-143811785D01*
X121610714Y-143716547D01*
X121610714Y-143573690D01*
X121658333Y-143478452D01*
X122277380Y-142859404D02*
X122229761Y-142954642D01*
X122182142Y-143002261D01*
X122086904Y-143049880D01*
X121801190Y-143049880D01*
X121705952Y-143002261D01*
X121658333Y-142954642D01*
X121610714Y-142859404D01*
X121610714Y-142716547D01*
X121658333Y-142621309D01*
X121705952Y-142573690D01*
X121801190Y-142526071D01*
X122086904Y-142526071D01*
X122182142Y-142573690D01*
X122229761Y-142621309D01*
X122277380Y-142716547D01*
X122277380Y-142859404D01*
X121610714Y-141668928D02*
X122277380Y-141668928D01*
X121610714Y-142097500D02*
X122134523Y-142097500D01*
X122229761Y-142049880D01*
X122277380Y-141954642D01*
X122277380Y-141811785D01*
X122229761Y-141716547D01*
X122182142Y-141668928D01*
X122277380Y-141192738D02*
X121610714Y-141192738D01*
X121801190Y-141192738D02*
X121705952Y-141145119D01*
X121658333Y-141097500D01*
X121610714Y-141002261D01*
X121610714Y-140907023D01*
X122229761Y-140145119D02*
X122277380Y-140240357D01*
X122277380Y-140430833D01*
X122229761Y-140526071D01*
X122182142Y-140573690D01*
X122086904Y-140621309D01*
X121801190Y-140621309D01*
X121705952Y-140573690D01*
X121658333Y-140526071D01*
X121610714Y-140430833D01*
X121610714Y-140240357D01*
X121658333Y-140145119D01*
X122229761Y-139335595D02*
X122277380Y-139430833D01*
X122277380Y-139621309D01*
X122229761Y-139716547D01*
X122134523Y-139764166D01*
X121753571Y-139764166D01*
X121658333Y-139716547D01*
X121610714Y-139621309D01*
X121610714Y-139430833D01*
X121658333Y-139335595D01*
X121753571Y-139287976D01*
X121848809Y-139287976D01*
X121944047Y-139764166D01*
X125627380Y-142621309D02*
X126627380Y-142383214D01*
X125913095Y-142192738D01*
X126627380Y-142002261D01*
X125627380Y-141764166D01*
X126627380Y-141383214D02*
X125960714Y-141383214D01*
X126151190Y-141383214D02*
X126055952Y-141335595D01*
X126008333Y-141287976D01*
X125960714Y-141192738D01*
X125960714Y-141097500D01*
X126627380Y-140764166D02*
X125960714Y-140764166D01*
X125627380Y-140764166D02*
X125675000Y-140811785D01*
X125722619Y-140764166D01*
X125675000Y-140716547D01*
X125627380Y-140764166D01*
X125722619Y-140764166D01*
X125960714Y-140430833D02*
X125960714Y-140049880D01*
X125627380Y-140287976D02*
X126484523Y-140287976D01*
X126579761Y-140240357D01*
X126627380Y-140145119D01*
X126627380Y-140049880D01*
X126579761Y-139335595D02*
X126627380Y-139430833D01*
X126627380Y-139621309D01*
X126579761Y-139716547D01*
X126484523Y-139764166D01*
X126103571Y-139764166D01*
X126008333Y-139716547D01*
X125960714Y-139621309D01*
X125960714Y-139430833D01*
X126008333Y-139335595D01*
X126103571Y-139287976D01*
X126198809Y-139287976D01*
X126294047Y-139764166D01*
X128277380Y-145383214D02*
X127610714Y-145383214D01*
X127801190Y-145383214D02*
X127705952Y-145335595D01*
X127658333Y-145287976D01*
X127610714Y-145192738D01*
X127610714Y-145097500D01*
X128229761Y-144383214D02*
X128277380Y-144478452D01*
X128277380Y-144668928D01*
X128229761Y-144764166D01*
X128134523Y-144811785D01*
X127753571Y-144811785D01*
X127658333Y-144764166D01*
X127610714Y-144668928D01*
X127610714Y-144478452D01*
X127658333Y-144383214D01*
X127753571Y-144335595D01*
X127848809Y-144335595D01*
X127944047Y-144811785D01*
X127610714Y-143478452D02*
X128420238Y-143478452D01*
X128515476Y-143526071D01*
X128563095Y-143573690D01*
X128610714Y-143668928D01*
X128610714Y-143811785D01*
X128563095Y-143907023D01*
X128229761Y-143478452D02*
X128277380Y-143573690D01*
X128277380Y-143764166D01*
X128229761Y-143859404D01*
X128182142Y-143907023D01*
X128086904Y-143954642D01*
X127801190Y-143954642D01*
X127705952Y-143907023D01*
X127658333Y-143859404D01*
X127610714Y-143764166D01*
X127610714Y-143573690D01*
X127658333Y-143478452D01*
X128277380Y-143002261D02*
X127610714Y-143002261D01*
X127277380Y-143002261D02*
X127325000Y-143049880D01*
X127372619Y-143002261D01*
X127325000Y-142954642D01*
X127277380Y-143002261D01*
X127372619Y-143002261D01*
X128229761Y-142573690D02*
X128277380Y-142478452D01*
X128277380Y-142287976D01*
X128229761Y-142192738D01*
X128134523Y-142145119D01*
X128086904Y-142145119D01*
X127991666Y-142192738D01*
X127944047Y-142287976D01*
X127944047Y-142430833D01*
X127896428Y-142526071D01*
X127801190Y-142573690D01*
X127753571Y-142573690D01*
X127658333Y-142526071D01*
X127610714Y-142430833D01*
X127610714Y-142287976D01*
X127658333Y-142192738D01*
X127610714Y-141859404D02*
X127610714Y-141478452D01*
X127277380Y-141716547D02*
X128134523Y-141716547D01*
X128229761Y-141668928D01*
X128277380Y-141573690D01*
X128277380Y-141478452D01*
X128229761Y-140764166D02*
X128277380Y-140859404D01*
X128277380Y-141049880D01*
X128229761Y-141145119D01*
X128134523Y-141192738D01*
X127753571Y-141192738D01*
X127658333Y-141145119D01*
X127610714Y-141049880D01*
X127610714Y-140859404D01*
X127658333Y-140764166D01*
X127753571Y-140716547D01*
X127848809Y-140716547D01*
X127944047Y-141192738D01*
X128277380Y-140287976D02*
X127610714Y-140287976D01*
X127801190Y-140287976D02*
X127705952Y-140240357D01*
X127658333Y-140192738D01*
X127610714Y-140097500D01*
X127610714Y-140002261D01*
X128229761Y-139716547D02*
X128277380Y-139621309D01*
X128277380Y-139430833D01*
X128229761Y-139335595D01*
X128134523Y-139287976D01*
X128086904Y-139287976D01*
X127991666Y-139335595D01*
X127944047Y-139430833D01*
X127944047Y-139573690D01*
X127896428Y-139668928D01*
X127801190Y-139716547D01*
X127753571Y-139716547D01*
X127658333Y-139668928D01*
X127610714Y-139573690D01*
X127610714Y-139430833D01*
X127658333Y-139335595D01*
X132627380Y-142573690D02*
X131627380Y-142573690D01*
X131627380Y-142335595D01*
X131675000Y-142192738D01*
X131770238Y-142097500D01*
X131865476Y-142049880D01*
X132055952Y-142002261D01*
X132198809Y-142002261D01*
X132389285Y-142049880D01*
X132484523Y-142097500D01*
X132579761Y-142192738D01*
X132627380Y-142335595D01*
X132627380Y-142573690D01*
X132627380Y-141573690D02*
X131960714Y-141573690D01*
X132151190Y-141573690D02*
X132055952Y-141526071D01*
X132008333Y-141478452D01*
X131960714Y-141383214D01*
X131960714Y-141287976D01*
X132627380Y-140954642D02*
X131960714Y-140954642D01*
X131627380Y-140954642D02*
X131675000Y-141002261D01*
X131722619Y-140954642D01*
X131675000Y-140907023D01*
X131627380Y-140954642D01*
X131722619Y-140954642D01*
X131960714Y-140573690D02*
X132627380Y-140335595D01*
X131960714Y-140097500D01*
X132579761Y-139335595D02*
X132627380Y-139430833D01*
X132627380Y-139621309D01*
X132579761Y-139716547D01*
X132484523Y-139764166D01*
X132103571Y-139764166D01*
X132008333Y-139716547D01*
X131960714Y-139621309D01*
X131960714Y-139430833D01*
X132008333Y-139335595D01*
X132103571Y-139287976D01*
X132198809Y-139287976D01*
X132294047Y-139764166D01*
X134277380Y-145097500D02*
X133277380Y-145097500D01*
X134229761Y-145097500D02*
X134277380Y-145192738D01*
X134277380Y-145383214D01*
X134229761Y-145478452D01*
X134182142Y-145526071D01*
X134086904Y-145573690D01*
X133801190Y-145573690D01*
X133705952Y-145526071D01*
X133658333Y-145478452D01*
X133610714Y-145383214D01*
X133610714Y-145192738D01*
X133658333Y-145097500D01*
X134277380Y-144192738D02*
X133753571Y-144192738D01*
X133658333Y-144240357D01*
X133610714Y-144335595D01*
X133610714Y-144526071D01*
X133658333Y-144621309D01*
X134229761Y-144192738D02*
X134277380Y-144287976D01*
X134277380Y-144526071D01*
X134229761Y-144621309D01*
X134134523Y-144668928D01*
X134039285Y-144668928D01*
X133944047Y-144621309D01*
X133896428Y-144526071D01*
X133896428Y-144287976D01*
X133848809Y-144192738D01*
X133610714Y-143859404D02*
X133610714Y-143478452D01*
X133277380Y-143716547D02*
X134134523Y-143716547D01*
X134229761Y-143668928D01*
X134277380Y-143573690D01*
X134277380Y-143478452D01*
X134277380Y-142716547D02*
X133753571Y-142716547D01*
X133658333Y-142764166D01*
X133610714Y-142859404D01*
X133610714Y-143049880D01*
X133658333Y-143145119D01*
X134229761Y-142716547D02*
X134277380Y-142811785D01*
X134277380Y-143049880D01*
X134229761Y-143145119D01*
X134134523Y-143192738D01*
X134039285Y-143192738D01*
X133944047Y-143145119D01*
X133896428Y-143049880D01*
X133896428Y-142811785D01*
X133848809Y-142716547D01*
X134277380Y-141478452D02*
X133277380Y-141478452D01*
X133658333Y-141478452D02*
X133610714Y-141383214D01*
X133610714Y-141192738D01*
X133658333Y-141097500D01*
X133705952Y-141049880D01*
X133801190Y-141002261D01*
X134086904Y-141002261D01*
X134182142Y-141049880D01*
X134229761Y-141097500D01*
X134277380Y-141192738D01*
X134277380Y-141383214D01*
X134229761Y-141478452D01*
X133610714Y-140145119D02*
X134277380Y-140145119D01*
X133610714Y-140573690D02*
X134134523Y-140573690D01*
X134229761Y-140526071D01*
X134277380Y-140430833D01*
X134277380Y-140287976D01*
X134229761Y-140192738D01*
X134182142Y-140145119D01*
X134229761Y-139716547D02*
X134277380Y-139621309D01*
X134277380Y-139430833D01*
X134229761Y-139335595D01*
X134134523Y-139287976D01*
X134086904Y-139287976D01*
X133991666Y-139335595D01*
X133944047Y-139430833D01*
X133944047Y-139573690D01*
X133896428Y-139668928D01*
X133801190Y-139716547D01*
X133753571Y-139716547D01*
X133658333Y-139668928D01*
X133610714Y-139573690D01*
X133610714Y-139430833D01*
X133658333Y-139335595D01*
X137341666Y-143383214D02*
X137341666Y-142907023D01*
X137627380Y-143478452D02*
X136627380Y-143145119D01*
X137627380Y-142811785D01*
X137627380Y-142002261D02*
X137627380Y-142478452D01*
X136627380Y-142478452D01*
X136627380Y-141668928D02*
X137436904Y-141668928D01*
X137532142Y-141621309D01*
X137579761Y-141573690D01*
X137627380Y-141478452D01*
X137627380Y-141287976D01*
X137579761Y-141192738D01*
X137532142Y-141145119D01*
X137436904Y-141097500D01*
X136627380Y-141097500D01*
X137103571Y-139526071D02*
X137151190Y-139383214D01*
X137198809Y-139335595D01*
X137294047Y-139287976D01*
X137436904Y-139287976D01*
X137532142Y-139335595D01*
X137579761Y-139383214D01*
X137627380Y-139478452D01*
X137627380Y-139859404D01*
X136627380Y-139859404D01*
X136627380Y-139526071D01*
X136675000Y-139430833D01*
X136722619Y-139383214D01*
X136817857Y-139335595D01*
X136913095Y-139335595D01*
X137008333Y-139383214D01*
X137055952Y-139430833D01*
X137103571Y-139526071D01*
X137103571Y-139859404D01*
X139277380Y-142621309D02*
X138610714Y-142621309D01*
X138277380Y-142621309D02*
X138325000Y-142668928D01*
X138372619Y-142621309D01*
X138325000Y-142573690D01*
X138277380Y-142621309D01*
X138372619Y-142621309D01*
X138610714Y-142145119D02*
X139277380Y-142145119D01*
X138705952Y-142145119D02*
X138658333Y-142097500D01*
X138610714Y-142002261D01*
X138610714Y-141859404D01*
X138658333Y-141764166D01*
X138753571Y-141716547D01*
X139277380Y-141716547D01*
X138610714Y-141240357D02*
X139610714Y-141240357D01*
X138658333Y-141240357D02*
X138610714Y-141145119D01*
X138610714Y-140954642D01*
X138658333Y-140859404D01*
X138705952Y-140811785D01*
X138801190Y-140764166D01*
X139086904Y-140764166D01*
X139182142Y-140811785D01*
X139229761Y-140859404D01*
X139277380Y-140954642D01*
X139277380Y-141145119D01*
X139229761Y-141240357D01*
X138610714Y-139907023D02*
X139277380Y-139907023D01*
X138610714Y-140335595D02*
X139134523Y-140335595D01*
X139229761Y-140287976D01*
X139277380Y-140192738D01*
X139277380Y-140049880D01*
X139229761Y-139954642D01*
X139182142Y-139907023D01*
X138610714Y-139573690D02*
X138610714Y-139192738D01*
X138277380Y-139430833D02*
X139134523Y-139430833D01*
X139229761Y-139383214D01*
X139277380Y-139287976D01*
X139277380Y-139192738D01*
X143627380Y-147859404D02*
X142627380Y-147859404D01*
X142627380Y-147478452D01*
X142675000Y-147383214D01*
X142722619Y-147335595D01*
X142817857Y-147287976D01*
X142960714Y-147287976D01*
X143055952Y-147335595D01*
X143103571Y-147383214D01*
X143151190Y-147478452D01*
X143151190Y-147859404D01*
X143627380Y-146716547D02*
X143579761Y-146811785D01*
X143532142Y-146859404D01*
X143436904Y-146907023D01*
X143151190Y-146907023D01*
X143055952Y-146859404D01*
X143008333Y-146811785D01*
X142960714Y-146716547D01*
X142960714Y-146573690D01*
X143008333Y-146478452D01*
X143055952Y-146430833D01*
X143151190Y-146383214D01*
X143436904Y-146383214D01*
X143532142Y-146430833D01*
X143579761Y-146478452D01*
X143627380Y-146573690D01*
X143627380Y-146716547D01*
X143627380Y-145954642D02*
X142960714Y-145954642D01*
X142627380Y-145954642D02*
X142675000Y-146002261D01*
X142722619Y-145954642D01*
X142675000Y-145907023D01*
X142627380Y-145954642D01*
X142722619Y-145954642D01*
X142960714Y-145478452D02*
X143627380Y-145478452D01*
X143055952Y-145478452D02*
X143008333Y-145430833D01*
X142960714Y-145335595D01*
X142960714Y-145192738D01*
X143008333Y-145097500D01*
X143103571Y-145049880D01*
X143627380Y-145049880D01*
X142960714Y-144716547D02*
X142960714Y-144335595D01*
X142627380Y-144573690D02*
X143484523Y-144573690D01*
X143579761Y-144526071D01*
X143627380Y-144430833D01*
X143627380Y-144335595D01*
X143579761Y-143621309D02*
X143627380Y-143716547D01*
X143627380Y-143907023D01*
X143579761Y-144002261D01*
X143484523Y-144049880D01*
X143103571Y-144049880D01*
X143008333Y-144002261D01*
X142960714Y-143907023D01*
X142960714Y-143716547D01*
X143008333Y-143621309D01*
X143103571Y-143573690D01*
X143198809Y-143573690D01*
X143294047Y-144049880D01*
X143627380Y-143145119D02*
X142960714Y-143145119D01*
X143151190Y-143145119D02*
X143055952Y-143097500D01*
X143008333Y-143049880D01*
X142960714Y-142954642D01*
X142960714Y-142859404D01*
X142960714Y-141764166D02*
X143960714Y-141764166D01*
X143008333Y-141764166D02*
X142960714Y-141668928D01*
X142960714Y-141478452D01*
X143008333Y-141383214D01*
X143055952Y-141335595D01*
X143151190Y-141287976D01*
X143436904Y-141287976D01*
X143532142Y-141335595D01*
X143579761Y-141383214D01*
X143627380Y-141478452D01*
X143627380Y-141668928D01*
X143579761Y-141764166D01*
X143627380Y-140430833D02*
X143103571Y-140430833D01*
X143008333Y-140478452D01*
X142960714Y-140573690D01*
X142960714Y-140764166D01*
X143008333Y-140859404D01*
X143579761Y-140430833D02*
X143627380Y-140526071D01*
X143627380Y-140764166D01*
X143579761Y-140859404D01*
X143484523Y-140907023D01*
X143389285Y-140907023D01*
X143294047Y-140859404D01*
X143246428Y-140764166D01*
X143246428Y-140526071D01*
X143198809Y-140430833D01*
X143627380Y-139954642D02*
X142960714Y-139954642D01*
X142627380Y-139954642D02*
X142675000Y-140002261D01*
X142722619Y-139954642D01*
X142675000Y-139907023D01*
X142627380Y-139954642D01*
X142722619Y-139954642D01*
X143627380Y-139478452D02*
X142960714Y-139478452D01*
X143151190Y-139478452D02*
X143055952Y-139430833D01*
X143008333Y-139383214D01*
X142960714Y-139287976D01*
X142960714Y-139192738D01*
X145229761Y-143716547D02*
X145277380Y-143811785D01*
X145277380Y-144002261D01*
X145229761Y-144097500D01*
X145182142Y-144145119D01*
X145086904Y-144192738D01*
X144801190Y-144192738D01*
X144705952Y-144145119D01*
X144658333Y-144097500D01*
X144610714Y-144002261D01*
X144610714Y-143811785D01*
X144658333Y-143716547D01*
X145277380Y-143145119D02*
X145229761Y-143240357D01*
X145182142Y-143287976D01*
X145086904Y-143335595D01*
X144801190Y-143335595D01*
X144705952Y-143287976D01*
X144658333Y-143240357D01*
X144610714Y-143145119D01*
X144610714Y-143002261D01*
X144658333Y-142907023D01*
X144705952Y-142859404D01*
X144801190Y-142811785D01*
X145086904Y-142811785D01*
X145182142Y-142859404D01*
X145229761Y-142907023D01*
X145277380Y-143002261D01*
X145277380Y-143145119D01*
X144610714Y-142383214D02*
X145277380Y-142383214D01*
X144705952Y-142383214D02*
X144658333Y-142335595D01*
X144610714Y-142240357D01*
X144610714Y-142097500D01*
X144658333Y-142002261D01*
X144753571Y-141954642D01*
X145277380Y-141954642D01*
X144610714Y-141621309D02*
X144610714Y-141240357D01*
X144277380Y-141478452D02*
X145134523Y-141478452D01*
X145229761Y-141430833D01*
X145277380Y-141335595D01*
X145277380Y-141240357D01*
X145277380Y-140907023D02*
X144610714Y-140907023D01*
X144801190Y-140907023D02*
X144705952Y-140859404D01*
X144658333Y-140811785D01*
X144610714Y-140716547D01*
X144610714Y-140621309D01*
X145277380Y-140145119D02*
X145229761Y-140240357D01*
X145182142Y-140287976D01*
X145086904Y-140335595D01*
X144801190Y-140335595D01*
X144705952Y-140287976D01*
X144658333Y-140240357D01*
X144610714Y-140145119D01*
X144610714Y-140002261D01*
X144658333Y-139907023D01*
X144705952Y-139859404D01*
X144801190Y-139811785D01*
X145086904Y-139811785D01*
X145182142Y-139859404D01*
X145229761Y-139907023D01*
X145277380Y-140002261D01*
X145277380Y-140145119D01*
X145277380Y-139240357D02*
X145229761Y-139335595D01*
X145134523Y-139383214D01*
X144277380Y-139383214D01*
D11*
X141500000Y-138000000D02*
X146500000Y-138000000D01*
X135500000Y-138000000D02*
X140500000Y-138000000D01*
X131500000Y-138000000D02*
X134500000Y-138000000D01*
X123500000Y-138000000D02*
X130500000Y-138000000D01*
X119500000Y-138000000D02*
X122500000Y-138000000D01*
D10*
X147785714Y-129759642D02*
X148452380Y-129569166D01*
X147976190Y-129378690D01*
X148452380Y-129188214D01*
X147785714Y-128997738D01*
X148404761Y-128235833D02*
X148452380Y-128331071D01*
X148452380Y-128521547D01*
X148404761Y-128616785D01*
X148309523Y-128664404D01*
X147928571Y-128664404D01*
X147833333Y-128616785D01*
X147785714Y-128521547D01*
X147785714Y-128331071D01*
X147833333Y-128235833D01*
X147928571Y-128188214D01*
X148023809Y-128188214D01*
X148119047Y-128664404D01*
X148547619Y-127997738D02*
X148547619Y-127235833D01*
X148452380Y-126997738D02*
X147785714Y-126997738D01*
X147452380Y-126997738D02*
X147500000Y-127045357D01*
X147547619Y-126997738D01*
X147500000Y-126950119D01*
X147452380Y-126997738D01*
X147547619Y-126997738D01*
X148452380Y-126521547D02*
X147785714Y-126521547D01*
X147976190Y-126521547D02*
X147880952Y-126473928D01*
X147833333Y-126426309D01*
X147785714Y-126331071D01*
X147785714Y-126235833D01*
X122452380Y-129521547D02*
X122404761Y-129616785D01*
X122357142Y-129664404D01*
X122261904Y-129712023D01*
X121976190Y-129712023D01*
X121880952Y-129664404D01*
X121833333Y-129616785D01*
X121785714Y-129521547D01*
X121785714Y-129378690D01*
X121833333Y-129283452D01*
X121880952Y-129235833D01*
X121976190Y-129188214D01*
X122261904Y-129188214D01*
X122357142Y-129235833D01*
X122404761Y-129283452D01*
X122452380Y-129378690D01*
X122452380Y-129521547D01*
X122404761Y-128378690D02*
X122452380Y-128473928D01*
X122452380Y-128664404D01*
X122404761Y-128759642D01*
X122309523Y-128807261D01*
X121928571Y-128807261D01*
X121833333Y-128759642D01*
X121785714Y-128664404D01*
X121785714Y-128473928D01*
X121833333Y-128378690D01*
X121928571Y-128331071D01*
X122023809Y-128331071D01*
X122119047Y-128807261D01*
X122547619Y-128140595D02*
X122547619Y-127378690D01*
X122452380Y-126712023D02*
X121452380Y-126712023D01*
X122404761Y-126712023D02*
X122452380Y-126807261D01*
X122452380Y-126997738D01*
X122404761Y-127092976D01*
X122357142Y-127140595D01*
X122261904Y-127188214D01*
X121976190Y-127188214D01*
X121880952Y-127140595D01*
X121833333Y-127092976D01*
X121785714Y-126997738D01*
X121785714Y-126807261D01*
X121833333Y-126712023D01*
X122547619Y-126473928D02*
X122547619Y-125712023D01*
X122452380Y-125045357D02*
X121452380Y-125045357D01*
X122404761Y-125045357D02*
X122452380Y-125140595D01*
X122452380Y-125331071D01*
X122404761Y-125426309D01*
X122357142Y-125473928D01*
X122261904Y-125521547D01*
X121976190Y-125521547D01*
X121880952Y-125473928D01*
X121833333Y-125426309D01*
X121785714Y-125331071D01*
X121785714Y-125140595D01*
X121833333Y-125045357D01*
X122452380Y-124569166D02*
X121785714Y-124569166D01*
X121452380Y-124569166D02*
X121500000Y-124616785D01*
X121547619Y-124569166D01*
X121500000Y-124521547D01*
X121452380Y-124569166D01*
X121547619Y-124569166D01*
X144452380Y-129235833D02*
X143928571Y-129235833D01*
X143833333Y-129283452D01*
X143785714Y-129378690D01*
X143785714Y-129569166D01*
X143833333Y-129664404D01*
X144404761Y-129235833D02*
X144452380Y-129331071D01*
X144452380Y-129569166D01*
X144404761Y-129664404D01*
X144309523Y-129712023D01*
X144214285Y-129712023D01*
X144119047Y-129664404D01*
X144071428Y-129569166D01*
X144071428Y-129331071D01*
X144023809Y-129235833D01*
X144452380Y-128331071D02*
X143452380Y-128331071D01*
X144404761Y-128331071D02*
X144452380Y-128426309D01*
X144452380Y-128616785D01*
X144404761Y-128712023D01*
X144357142Y-128759642D01*
X144261904Y-128807261D01*
X143976190Y-128807261D01*
X143880952Y-128759642D01*
X143833333Y-128712023D01*
X143785714Y-128616785D01*
X143785714Y-128426309D01*
X143833333Y-128331071D01*
X144452380Y-127426309D02*
X143452380Y-127426309D01*
X144404761Y-127426309D02*
X144452380Y-127521547D01*
X144452380Y-127712023D01*
X144404761Y-127807261D01*
X144357142Y-127854880D01*
X144261904Y-127902500D01*
X143976190Y-127902500D01*
X143880952Y-127854880D01*
X143833333Y-127807261D01*
X143785714Y-127712023D01*
X143785714Y-127521547D01*
X143833333Y-127426309D01*
X144452380Y-126950119D02*
X143785714Y-126950119D01*
X143976190Y-126950119D02*
X143880952Y-126902500D01*
X143833333Y-126854880D01*
X143785714Y-126759642D01*
X143785714Y-126664404D01*
X144547619Y-126569166D02*
X144547619Y-125807261D01*
X144452380Y-125140595D02*
X143452380Y-125140595D01*
X144404761Y-125140595D02*
X144452380Y-125235833D01*
X144452380Y-125426309D01*
X144404761Y-125521547D01*
X144357142Y-125569166D01*
X144261904Y-125616785D01*
X143976190Y-125616785D01*
X143880952Y-125569166D01*
X143833333Y-125521547D01*
X143785714Y-125426309D01*
X143785714Y-125235833D01*
X143833333Y-125140595D01*
X143785714Y-124664404D02*
X144785714Y-124664404D01*
X143833333Y-124664404D02*
X143785714Y-124569166D01*
X143785714Y-124378690D01*
X143833333Y-124283452D01*
X143880952Y-124235833D01*
X143976190Y-124188214D01*
X144261904Y-124188214D01*
X144357142Y-124235833D01*
X144404761Y-124283452D01*
X144452380Y-124378690D01*
X144452380Y-124569166D01*
X144404761Y-124664404D01*
X142452380Y-129664404D02*
X141785714Y-129664404D01*
X141452380Y-129664404D02*
X141500000Y-129712023D01*
X141547619Y-129664404D01*
X141500000Y-129616785D01*
X141452380Y-129664404D01*
X141547619Y-129664404D01*
X141785714Y-129188214D02*
X142452380Y-129188214D01*
X141880952Y-129188214D02*
X141833333Y-129140595D01*
X141785714Y-129045357D01*
X141785714Y-128902500D01*
X141833333Y-128807261D01*
X141928571Y-128759642D01*
X142452380Y-128759642D01*
X142404761Y-127854880D02*
X142452380Y-127950119D01*
X142452380Y-128140595D01*
X142404761Y-128235833D01*
X142357142Y-128283452D01*
X142261904Y-128331071D01*
X141976190Y-128331071D01*
X141880952Y-128283452D01*
X141833333Y-128235833D01*
X141785714Y-128140595D01*
X141785714Y-127950119D01*
X141833333Y-127854880D01*
X142547619Y-127664404D02*
X142547619Y-126902500D01*
X142452380Y-126664404D02*
X141785714Y-126664404D01*
X141452380Y-126664404D02*
X141500000Y-126712023D01*
X141547619Y-126664404D01*
X141500000Y-126616785D01*
X141452380Y-126664404D01*
X141547619Y-126664404D01*
X141785714Y-126188214D02*
X142785714Y-126188214D01*
X141833333Y-126188214D02*
X141785714Y-126092976D01*
X141785714Y-125902500D01*
X141833333Y-125807261D01*
X141880952Y-125759642D01*
X141976190Y-125712023D01*
X142261904Y-125712023D01*
X142357142Y-125759642D01*
X142404761Y-125807261D01*
X142452380Y-125902500D01*
X142452380Y-126092976D01*
X142404761Y-126188214D01*
X127785714Y-129759642D02*
X128452380Y-129569166D01*
X127976190Y-129378690D01*
X128452380Y-129188214D01*
X127785714Y-128997738D01*
X128404761Y-128235833D02*
X128452380Y-128331071D01*
X128452380Y-128521547D01*
X128404761Y-128616785D01*
X128309523Y-128664404D01*
X127928571Y-128664404D01*
X127833333Y-128616785D01*
X127785714Y-128521547D01*
X127785714Y-128331071D01*
X127833333Y-128235833D01*
X127928571Y-128188214D01*
X128023809Y-128188214D01*
X128119047Y-128664404D01*
X128547619Y-127997738D02*
X128547619Y-127235833D01*
X127785714Y-126997738D02*
X128785714Y-126997738D01*
X127833333Y-126997738D02*
X127785714Y-126902500D01*
X127785714Y-126712023D01*
X127833333Y-126616785D01*
X127880952Y-126569166D01*
X127976190Y-126521547D01*
X128261904Y-126521547D01*
X128357142Y-126569166D01*
X128404761Y-126616785D01*
X128452380Y-126712023D01*
X128452380Y-126902500D01*
X128404761Y-126997738D01*
X128452380Y-125950119D02*
X128404761Y-126045357D01*
X128309523Y-126092976D01*
X127452380Y-126092976D01*
X145785714Y-129664404D02*
X146785714Y-129664404D01*
X145833333Y-129664404D02*
X145785714Y-129569166D01*
X145785714Y-129378690D01*
X145833333Y-129283452D01*
X145880952Y-129235833D01*
X145976190Y-129188214D01*
X146261904Y-129188214D01*
X146357142Y-129235833D01*
X146404761Y-129283452D01*
X146452380Y-129378690D01*
X146452380Y-129569166D01*
X146404761Y-129664404D01*
X146547619Y-128997738D02*
X146547619Y-128235833D01*
X146404761Y-128045357D02*
X146452380Y-127950119D01*
X146452380Y-127759642D01*
X146404761Y-127664404D01*
X146309523Y-127616785D01*
X146261904Y-127616785D01*
X146166666Y-127664404D01*
X146119047Y-127759642D01*
X146119047Y-127902500D01*
X146071428Y-127997738D01*
X145976190Y-128045357D01*
X145928571Y-128045357D01*
X145833333Y-127997738D01*
X145785714Y-127902500D01*
X145785714Y-127759642D01*
X145833333Y-127664404D01*
X146404761Y-126807261D02*
X146452380Y-126902500D01*
X146452380Y-127092976D01*
X146404761Y-127188214D01*
X146309523Y-127235833D01*
X145928571Y-127235833D01*
X145833333Y-127188214D01*
X145785714Y-127092976D01*
X145785714Y-126902500D01*
X145833333Y-126807261D01*
X145928571Y-126759642D01*
X146023809Y-126759642D01*
X146119047Y-127235833D01*
X146452380Y-126188214D02*
X146404761Y-126283452D01*
X146309523Y-126331071D01*
X145452380Y-126331071D01*
X146404761Y-125426309D02*
X146452380Y-125521547D01*
X146452380Y-125712023D01*
X146404761Y-125807261D01*
X146309523Y-125854880D01*
X145928571Y-125854880D01*
X145833333Y-125807261D01*
X145785714Y-125712023D01*
X145785714Y-125521547D01*
X145833333Y-125426309D01*
X145928571Y-125378690D01*
X146023809Y-125378690D01*
X146119047Y-125854880D01*
X146404761Y-124521547D02*
X146452380Y-124616785D01*
X146452380Y-124807261D01*
X146404761Y-124902500D01*
X146357142Y-124950119D01*
X146261904Y-124997738D01*
X145976190Y-124997738D01*
X145880952Y-124950119D01*
X145833333Y-124902500D01*
X145785714Y-124807261D01*
X145785714Y-124616785D01*
X145833333Y-124521547D01*
X145785714Y-124235833D02*
X145785714Y-123854880D01*
X145452380Y-124092976D02*
X146309523Y-124092976D01*
X146404761Y-124045357D01*
X146452380Y-123950119D01*
X146452380Y-123854880D01*
X146452380Y-123378690D02*
X146404761Y-123473928D01*
X146357142Y-123521547D01*
X146261904Y-123569166D01*
X145976190Y-123569166D01*
X145880952Y-123521547D01*
X145833333Y-123473928D01*
X145785714Y-123378690D01*
X145785714Y-123235833D01*
X145833333Y-123140595D01*
X145880952Y-123092976D01*
X145976190Y-123045357D01*
X146261904Y-123045357D01*
X146357142Y-123092976D01*
X146404761Y-123140595D01*
X146452380Y-123235833D01*
X146452380Y-123378690D01*
X146452380Y-122616785D02*
X145785714Y-122616785D01*
X145976190Y-122616785D02*
X145880952Y-122569166D01*
X145833333Y-122521547D01*
X145785714Y-122426309D01*
X145785714Y-122331071D01*
X123785714Y-129759642D02*
X124452380Y-129569166D01*
X123976190Y-129378690D01*
X124452380Y-129188214D01*
X123785714Y-128997738D01*
X124404761Y-128235833D02*
X124452380Y-128331071D01*
X124452380Y-128521547D01*
X124404761Y-128616785D01*
X124309523Y-128664404D01*
X123928571Y-128664404D01*
X123833333Y-128616785D01*
X123785714Y-128521547D01*
X123785714Y-128331071D01*
X123833333Y-128235833D01*
X123928571Y-128188214D01*
X124023809Y-128188214D01*
X124119047Y-128664404D01*
X124547619Y-127997738D02*
X124547619Y-127235833D01*
X124452380Y-126569166D02*
X123928571Y-126569166D01*
X123833333Y-126616785D01*
X123785714Y-126712023D01*
X123785714Y-126902500D01*
X123833333Y-126997738D01*
X124404761Y-126569166D02*
X124452380Y-126664404D01*
X124452380Y-126902500D01*
X124404761Y-126997738D01*
X124309523Y-127045357D01*
X124214285Y-127045357D01*
X124119047Y-126997738D01*
X124071428Y-126902500D01*
X124071428Y-126664404D01*
X124023809Y-126569166D01*
X129785714Y-129759642D02*
X130452380Y-129569166D01*
X129976190Y-129378690D01*
X130452380Y-129188214D01*
X129785714Y-128997738D01*
X130404761Y-128235833D02*
X130452380Y-128331071D01*
X130452380Y-128521547D01*
X130404761Y-128616785D01*
X130309523Y-128664404D01*
X129928571Y-128664404D01*
X129833333Y-128616785D01*
X129785714Y-128521547D01*
X129785714Y-128331071D01*
X129833333Y-128235833D01*
X129928571Y-128188214D01*
X130023809Y-128188214D01*
X130119047Y-128664404D01*
X130547619Y-127997738D02*
X130547619Y-127235833D01*
X129785714Y-126997738D02*
X130785714Y-126997738D01*
X129833333Y-126997738D02*
X129785714Y-126902500D01*
X129785714Y-126712023D01*
X129833333Y-126616785D01*
X129880952Y-126569166D01*
X129976190Y-126521547D01*
X130261904Y-126521547D01*
X130357142Y-126569166D01*
X130404761Y-126616785D01*
X130452380Y-126712023D01*
X130452380Y-126902500D01*
X130404761Y-126997738D01*
X130452380Y-126092976D02*
X129452380Y-126092976D01*
X130452380Y-125664404D02*
X129928571Y-125664404D01*
X129833333Y-125712023D01*
X129785714Y-125807261D01*
X129785714Y-125950119D01*
X129833333Y-126045357D01*
X129880952Y-126092976D01*
X140452380Y-129521547D02*
X140404761Y-129616785D01*
X140357142Y-129664404D01*
X140261904Y-129712023D01*
X139976190Y-129712023D01*
X139880952Y-129664404D01*
X139833333Y-129616785D01*
X139785714Y-129521547D01*
X139785714Y-129378690D01*
X139833333Y-129283452D01*
X139880952Y-129235833D01*
X139976190Y-129188214D01*
X140261904Y-129188214D01*
X140357142Y-129235833D01*
X140404761Y-129283452D01*
X140452380Y-129378690D01*
X140452380Y-129521547D01*
X140404761Y-128378690D02*
X140452380Y-128473928D01*
X140452380Y-128664404D01*
X140404761Y-128759642D01*
X140309523Y-128807261D01*
X139928571Y-128807261D01*
X139833333Y-128759642D01*
X139785714Y-128664404D01*
X139785714Y-128473928D01*
X139833333Y-128378690D01*
X139928571Y-128331071D01*
X140023809Y-128331071D01*
X140119047Y-128807261D01*
X140547619Y-128140595D02*
X140547619Y-127378690D01*
X139785714Y-127140595D02*
X140785714Y-127140595D01*
X139833333Y-127140595D02*
X139785714Y-127045357D01*
X139785714Y-126854880D01*
X139833333Y-126759642D01*
X139880952Y-126712023D01*
X139976190Y-126664404D01*
X140261904Y-126664404D01*
X140357142Y-126712023D01*
X140404761Y-126759642D01*
X140452380Y-126854880D01*
X140452380Y-127045357D01*
X140404761Y-127140595D01*
X140452380Y-126235833D02*
X139452380Y-126235833D01*
X140452380Y-125807261D02*
X139928571Y-125807261D01*
X139833333Y-125854880D01*
X139785714Y-125950119D01*
X139785714Y-126092976D01*
X139833333Y-126188214D01*
X139880952Y-126235833D01*
X140547619Y-125569166D02*
X140547619Y-124807261D01*
X140452380Y-124140595D02*
X139928571Y-124140595D01*
X139833333Y-124188214D01*
X139785714Y-124283452D01*
X139785714Y-124473928D01*
X139833333Y-124569166D01*
X140404761Y-124140595D02*
X140452380Y-124235833D01*
X140452380Y-124473928D01*
X140404761Y-124569166D01*
X140309523Y-124616785D01*
X140214285Y-124616785D01*
X140119047Y-124569166D01*
X140071428Y-124473928D01*
X140071428Y-124235833D01*
X140023809Y-124140595D01*
X140452380Y-123521547D02*
X140404761Y-123616785D01*
X140309523Y-123664404D01*
X139452380Y-123664404D01*
X139785714Y-122712023D02*
X140452380Y-122712023D01*
X139785714Y-123140595D02*
X140309523Y-123140595D01*
X140404761Y-123092976D01*
X140452380Y-122997738D01*
X140452380Y-122854880D01*
X140404761Y-122759642D01*
X140357142Y-122712023D01*
X125785714Y-129759642D02*
X126452380Y-129569166D01*
X125976190Y-129378690D01*
X126452380Y-129188214D01*
X125785714Y-128997738D01*
X126404761Y-128235833D02*
X126452380Y-128331071D01*
X126452380Y-128521547D01*
X126404761Y-128616785D01*
X126309523Y-128664404D01*
X125928571Y-128664404D01*
X125833333Y-128616785D01*
X125785714Y-128521547D01*
X125785714Y-128331071D01*
X125833333Y-128235833D01*
X125928571Y-128188214D01*
X126023809Y-128188214D01*
X126119047Y-128664404D01*
X126547619Y-127997738D02*
X126547619Y-127235833D01*
X126452380Y-126997738D02*
X125452380Y-126997738D01*
X125833333Y-126997738D02*
X125785714Y-126902500D01*
X125785714Y-126712023D01*
X125833333Y-126616785D01*
X125880952Y-126569166D01*
X125976190Y-126521547D01*
X126261904Y-126521547D01*
X126357142Y-126569166D01*
X126404761Y-126616785D01*
X126452380Y-126712023D01*
X126452380Y-126902500D01*
X126404761Y-126997738D01*
X136452380Y-129521547D02*
X136404761Y-129616785D01*
X136357142Y-129664404D01*
X136261904Y-129712023D01*
X135976190Y-129712023D01*
X135880952Y-129664404D01*
X135833333Y-129616785D01*
X135785714Y-129521547D01*
X135785714Y-129378690D01*
X135833333Y-129283452D01*
X135880952Y-129235833D01*
X135976190Y-129188214D01*
X136261904Y-129188214D01*
X136357142Y-129235833D01*
X136404761Y-129283452D01*
X136452380Y-129378690D01*
X136452380Y-129521547D01*
X136404761Y-128378690D02*
X136452380Y-128473928D01*
X136452380Y-128664404D01*
X136404761Y-128759642D01*
X136309523Y-128807261D01*
X135928571Y-128807261D01*
X135833333Y-128759642D01*
X135785714Y-128664404D01*
X135785714Y-128473928D01*
X135833333Y-128378690D01*
X135928571Y-128331071D01*
X136023809Y-128331071D01*
X136119047Y-128807261D01*
X136547619Y-128140595D02*
X136547619Y-127378690D01*
X136452380Y-127140595D02*
X135452380Y-127140595D01*
X135833333Y-127140595D02*
X135785714Y-127045357D01*
X135785714Y-126854880D01*
X135833333Y-126759642D01*
X135880952Y-126712023D01*
X135976190Y-126664404D01*
X136261904Y-126664404D01*
X136357142Y-126712023D01*
X136404761Y-126759642D01*
X136452380Y-126854880D01*
X136452380Y-127045357D01*
X136404761Y-127140595D01*
X136547619Y-126473928D02*
X136547619Y-125712023D01*
X136452380Y-125045357D02*
X135928571Y-125045357D01*
X135833333Y-125092976D01*
X135785714Y-125188214D01*
X135785714Y-125378690D01*
X135833333Y-125473928D01*
X136404761Y-125045357D02*
X136452380Y-125140595D01*
X136452380Y-125378690D01*
X136404761Y-125473928D01*
X136309523Y-125521547D01*
X136214285Y-125521547D01*
X136119047Y-125473928D01*
X136071428Y-125378690D01*
X136071428Y-125140595D01*
X136023809Y-125045357D01*
X136452380Y-124426309D02*
X136404761Y-124521547D01*
X136309523Y-124569166D01*
X135452380Y-124569166D01*
X135785714Y-123616785D02*
X136452380Y-123616785D01*
X135785714Y-124045357D02*
X136309523Y-124045357D01*
X136404761Y-123997738D01*
X136452380Y-123902500D01*
X136452380Y-123759642D01*
X136404761Y-123664404D01*
X136357142Y-123616785D01*
X138452380Y-129521547D02*
X138404761Y-129616785D01*
X138357142Y-129664404D01*
X138261904Y-129712023D01*
X137976190Y-129712023D01*
X137880952Y-129664404D01*
X137833333Y-129616785D01*
X137785714Y-129521547D01*
X137785714Y-129378690D01*
X137833333Y-129283452D01*
X137880952Y-129235833D01*
X137976190Y-129188214D01*
X138261904Y-129188214D01*
X138357142Y-129235833D01*
X138404761Y-129283452D01*
X138452380Y-129378690D01*
X138452380Y-129521547D01*
X138404761Y-128378690D02*
X138452380Y-128473928D01*
X138452380Y-128664404D01*
X138404761Y-128759642D01*
X138309523Y-128807261D01*
X137928571Y-128807261D01*
X137833333Y-128759642D01*
X137785714Y-128664404D01*
X137785714Y-128473928D01*
X137833333Y-128378690D01*
X137928571Y-128331071D01*
X138023809Y-128331071D01*
X138119047Y-128807261D01*
X138547619Y-128140595D02*
X138547619Y-127378690D01*
X137785714Y-127140595D02*
X138785714Y-127140595D01*
X137833333Y-127140595D02*
X137785714Y-127045357D01*
X137785714Y-126854880D01*
X137833333Y-126759642D01*
X137880952Y-126712023D01*
X137976190Y-126664404D01*
X138261904Y-126664404D01*
X138357142Y-126712023D01*
X138404761Y-126759642D01*
X138452380Y-126854880D01*
X138452380Y-127045357D01*
X138404761Y-127140595D01*
X138452380Y-126092976D02*
X138404761Y-126188214D01*
X138309523Y-126235833D01*
X137452380Y-126235833D01*
X138547619Y-125950119D02*
X138547619Y-125188214D01*
X138452380Y-124521547D02*
X137928571Y-124521547D01*
X137833333Y-124569166D01*
X137785714Y-124664404D01*
X137785714Y-124854880D01*
X137833333Y-124950119D01*
X138404761Y-124521547D02*
X138452380Y-124616785D01*
X138452380Y-124854880D01*
X138404761Y-124950119D01*
X138309523Y-124997738D01*
X138214285Y-124997738D01*
X138119047Y-124950119D01*
X138071428Y-124854880D01*
X138071428Y-124616785D01*
X138023809Y-124521547D01*
X138452380Y-123902500D02*
X138404761Y-123997738D01*
X138309523Y-124045357D01*
X137452380Y-124045357D01*
X137785714Y-123092976D02*
X138452380Y-123092976D01*
X137785714Y-123521547D02*
X138309523Y-123521547D01*
X138404761Y-123473928D01*
X138452380Y-123378690D01*
X138452380Y-123235833D01*
X138404761Y-123140595D01*
X138357142Y-123092976D01*
X134452380Y-129521547D02*
X134404761Y-129616785D01*
X134357142Y-129664404D01*
X134261904Y-129712023D01*
X133976190Y-129712023D01*
X133880952Y-129664404D01*
X133833333Y-129616785D01*
X133785714Y-129521547D01*
X133785714Y-129378690D01*
X133833333Y-129283452D01*
X133880952Y-129235833D01*
X133976190Y-129188214D01*
X134261904Y-129188214D01*
X134357142Y-129235833D01*
X134404761Y-129283452D01*
X134452380Y-129378690D01*
X134452380Y-129521547D01*
X134404761Y-128378690D02*
X134452380Y-128473928D01*
X134452380Y-128664404D01*
X134404761Y-128759642D01*
X134309523Y-128807261D01*
X133928571Y-128807261D01*
X133833333Y-128759642D01*
X133785714Y-128664404D01*
X133785714Y-128473928D01*
X133833333Y-128378690D01*
X133928571Y-128331071D01*
X134023809Y-128331071D01*
X134119047Y-128807261D01*
X134547619Y-128140595D02*
X134547619Y-127378690D01*
X134452380Y-127140595D02*
X133452380Y-127140595D01*
X133833333Y-127140595D02*
X133785714Y-127045357D01*
X133785714Y-126854880D01*
X133833333Y-126759642D01*
X133880952Y-126712023D01*
X133976190Y-126664404D01*
X134261904Y-126664404D01*
X134357142Y-126712023D01*
X134404761Y-126759642D01*
X134452380Y-126854880D01*
X134452380Y-127045357D01*
X134404761Y-127140595D01*
X134547619Y-126473928D02*
X134547619Y-125712023D01*
X134452380Y-125045357D02*
X133452380Y-125045357D01*
X134404761Y-125045357D02*
X134452380Y-125140595D01*
X134452380Y-125331071D01*
X134404761Y-125426309D01*
X134357142Y-125473928D01*
X134261904Y-125521547D01*
X133976190Y-125521547D01*
X133880952Y-125473928D01*
X133833333Y-125426309D01*
X133785714Y-125331071D01*
X133785714Y-125140595D01*
X133833333Y-125045357D01*
X132452380Y-129521547D02*
X132404761Y-129616785D01*
X132357142Y-129664404D01*
X132261904Y-129712023D01*
X131976190Y-129712023D01*
X131880952Y-129664404D01*
X131833333Y-129616785D01*
X131785714Y-129521547D01*
X131785714Y-129378690D01*
X131833333Y-129283452D01*
X131880952Y-129235833D01*
X131976190Y-129188214D01*
X132261904Y-129188214D01*
X132357142Y-129235833D01*
X132404761Y-129283452D01*
X132452380Y-129378690D01*
X132452380Y-129521547D01*
X132404761Y-128378690D02*
X132452380Y-128473928D01*
X132452380Y-128664404D01*
X132404761Y-128759642D01*
X132309523Y-128807261D01*
X131928571Y-128807261D01*
X131833333Y-128759642D01*
X131785714Y-128664404D01*
X131785714Y-128473928D01*
X131833333Y-128378690D01*
X131928571Y-128331071D01*
X132023809Y-128331071D01*
X132119047Y-128807261D01*
X132547619Y-128140595D02*
X132547619Y-127378690D01*
X132452380Y-126712023D02*
X131928571Y-126712023D01*
X131833333Y-126759642D01*
X131785714Y-126854880D01*
X131785714Y-127045357D01*
X131833333Y-127140595D01*
X132404761Y-126712023D02*
X132452380Y-126807261D01*
X132452380Y-127045357D01*
X132404761Y-127140595D01*
X132309523Y-127188214D01*
X132214285Y-127188214D01*
X132119047Y-127140595D01*
X132071428Y-127045357D01*
X132071428Y-126807261D01*
X132023809Y-126712023D01*
X132547619Y-126473928D02*
X132547619Y-125712023D01*
X132452380Y-125045357D02*
X131452380Y-125045357D01*
X132404761Y-125045357D02*
X132452380Y-125140595D01*
X132452380Y-125331071D01*
X132404761Y-125426309D01*
X132357142Y-125473928D01*
X132261904Y-125521547D01*
X131976190Y-125521547D01*
X131880952Y-125473928D01*
X131833333Y-125426309D01*
X131785714Y-125331071D01*
X131785714Y-125140595D01*
X131833333Y-125045357D01*
X120452380Y-129521547D02*
X120404761Y-129616785D01*
X120357142Y-129664404D01*
X120261904Y-129712023D01*
X119976190Y-129712023D01*
X119880952Y-129664404D01*
X119833333Y-129616785D01*
X119785714Y-129521547D01*
X119785714Y-129378690D01*
X119833333Y-129283452D01*
X119880952Y-129235833D01*
X119976190Y-129188214D01*
X120261904Y-129188214D01*
X120357142Y-129235833D01*
X120404761Y-129283452D01*
X120452380Y-129378690D01*
X120452380Y-129521547D01*
X120404761Y-128378690D02*
X120452380Y-128473928D01*
X120452380Y-128664404D01*
X120404761Y-128759642D01*
X120309523Y-128807261D01*
X119928571Y-128807261D01*
X119833333Y-128759642D01*
X119785714Y-128664404D01*
X119785714Y-128473928D01*
X119833333Y-128378690D01*
X119928571Y-128331071D01*
X120023809Y-128331071D01*
X120119047Y-128807261D01*
X120547619Y-128140595D02*
X120547619Y-127378690D01*
X120452380Y-126712023D02*
X119928571Y-126712023D01*
X119833333Y-126759642D01*
X119785714Y-126854880D01*
X119785714Y-127045357D01*
X119833333Y-127140595D01*
X120404761Y-126712023D02*
X120452380Y-126807261D01*
X120452380Y-127045357D01*
X120404761Y-127140595D01*
X120309523Y-127188214D01*
X120214285Y-127188214D01*
X120119047Y-127140595D01*
X120071428Y-127045357D01*
X120071428Y-126807261D01*
X120023809Y-126712023D01*
X120452380Y-126092976D02*
X120404761Y-126188214D01*
X120309523Y-126235833D01*
X119452380Y-126235833D01*
X119785714Y-125283452D02*
X120452380Y-125283452D01*
X119785714Y-125712023D02*
X120309523Y-125712023D01*
X120404761Y-125664404D01*
X120452380Y-125569166D01*
X120452380Y-125426309D01*
X120404761Y-125331071D01*
X120357142Y-125283452D01*
X117785714Y-129759642D02*
X118452380Y-129569166D01*
X117976190Y-129378690D01*
X118452380Y-129188214D01*
X117785714Y-128997738D01*
X118404761Y-128235833D02*
X118452380Y-128331071D01*
X118452380Y-128521547D01*
X118404761Y-128616785D01*
X118309523Y-128664404D01*
X117928571Y-128664404D01*
X117833333Y-128616785D01*
X117785714Y-128521547D01*
X117785714Y-128331071D01*
X117833333Y-128235833D01*
X117928571Y-128188214D01*
X118023809Y-128188214D01*
X118119047Y-128664404D01*
X118547619Y-127997738D02*
X118547619Y-127235833D01*
X117785714Y-127140595D02*
X117785714Y-126759642D01*
X118452380Y-126997738D02*
X117595238Y-126997738D01*
X117500000Y-126950119D01*
X117452380Y-126854880D01*
X117452380Y-126759642D01*
X118452380Y-126283452D02*
X118404761Y-126378690D01*
X118309523Y-126426309D01*
X117452380Y-126426309D01*
X118452380Y-125473928D02*
X117928571Y-125473928D01*
X117833333Y-125521547D01*
X117785714Y-125616785D01*
X117785714Y-125807261D01*
X117833333Y-125902500D01*
X118404761Y-125473928D02*
X118452380Y-125569166D01*
X118452380Y-125807261D01*
X118404761Y-125902500D01*
X118309523Y-125950119D01*
X118214285Y-125950119D01*
X118119047Y-125902500D01*
X118071428Y-125807261D01*
X118071428Y-125569166D01*
X118023809Y-125473928D01*
X117785714Y-124569166D02*
X118595238Y-124569166D01*
X118690476Y-124616785D01*
X118738095Y-124664404D01*
X118785714Y-124759642D01*
X118785714Y-124902500D01*
X118738095Y-124997738D01*
X118404761Y-124569166D02*
X118452380Y-124664404D01*
X118452380Y-124854880D01*
X118404761Y-124950119D01*
X118357142Y-124997738D01*
X118261904Y-125045357D01*
X117976190Y-125045357D01*
X117880952Y-124997738D01*
X117833333Y-124950119D01*
X117785714Y-124854880D01*
X117785714Y-124664404D01*
X117833333Y-124569166D01*
X118404761Y-124140595D02*
X118452380Y-124045357D01*
X118452380Y-123854880D01*
X118404761Y-123759642D01*
X118309523Y-123712023D01*
X118261904Y-123712023D01*
X118166666Y-123759642D01*
X118119047Y-123854880D01*
X118119047Y-123997738D01*
X118071428Y-124092976D01*
X117976190Y-124140595D01*
X117928571Y-124140595D01*
X117833333Y-124092976D01*
X117785714Y-123997738D01*
X117785714Y-123854880D01*
X117833333Y-123759642D01*
X115785714Y-129759642D02*
X116452380Y-129569166D01*
X115976190Y-129378690D01*
X116452380Y-129188214D01*
X115785714Y-128997738D01*
X116404761Y-128235833D02*
X116452380Y-128331071D01*
X116452380Y-128521547D01*
X116404761Y-128616785D01*
X116309523Y-128664404D01*
X115928571Y-128664404D01*
X115833333Y-128616785D01*
X115785714Y-128521547D01*
X115785714Y-128331071D01*
X115833333Y-128235833D01*
X115928571Y-128188214D01*
X116023809Y-128188214D01*
X116119047Y-128664404D01*
X116547619Y-127997738D02*
X116547619Y-127235833D01*
X116452380Y-126997738D02*
X115785714Y-126997738D01*
X115880952Y-126997738D02*
X115833333Y-126950119D01*
X115785714Y-126854880D01*
X115785714Y-126712023D01*
X115833333Y-126616785D01*
X115928571Y-126569166D01*
X116452380Y-126569166D01*
X115928571Y-126569166D02*
X115833333Y-126521547D01*
X115785714Y-126426309D01*
X115785714Y-126283452D01*
X115833333Y-126188214D01*
X115928571Y-126140595D01*
X116452380Y-126140595D01*
X116404761Y-125283452D02*
X116452380Y-125378690D01*
X116452380Y-125569166D01*
X116404761Y-125664404D01*
X116309523Y-125712023D01*
X115928571Y-125712023D01*
X115833333Y-125664404D01*
X115785714Y-125569166D01*
X115785714Y-125378690D01*
X115833333Y-125283452D01*
X115928571Y-125235833D01*
X116023809Y-125235833D01*
X116119047Y-125712023D01*
X116452380Y-124807261D02*
X115785714Y-124807261D01*
X115880952Y-124807261D02*
X115833333Y-124759642D01*
X115785714Y-124664404D01*
X115785714Y-124521547D01*
X115833333Y-124426309D01*
X115928571Y-124378690D01*
X116452380Y-124378690D01*
X115928571Y-124378690D02*
X115833333Y-124331071D01*
X115785714Y-124235833D01*
X115785714Y-124092976D01*
X115833333Y-123997738D01*
X115928571Y-123950119D01*
X116452380Y-123950119D01*
X114452380Y-129521547D02*
X114404761Y-129616785D01*
X114357142Y-129664404D01*
X114261904Y-129712023D01*
X113976190Y-129712023D01*
X113880952Y-129664404D01*
X113833333Y-129616785D01*
X113785714Y-129521547D01*
X113785714Y-129378690D01*
X113833333Y-129283452D01*
X113880952Y-129235833D01*
X113976190Y-129188214D01*
X114261904Y-129188214D01*
X114357142Y-129235833D01*
X114404761Y-129283452D01*
X114452380Y-129378690D01*
X114452380Y-129521547D01*
X114404761Y-128378690D02*
X114452380Y-128473928D01*
X114452380Y-128664404D01*
X114404761Y-128759642D01*
X114309523Y-128807261D01*
X113928571Y-128807261D01*
X113833333Y-128759642D01*
X113785714Y-128664404D01*
X113785714Y-128473928D01*
X113833333Y-128378690D01*
X113928571Y-128331071D01*
X114023809Y-128331071D01*
X114119047Y-128807261D01*
X114547619Y-128140595D02*
X114547619Y-127378690D01*
X114452380Y-127140595D02*
X113785714Y-127140595D01*
X113880952Y-127140595D02*
X113833333Y-127092976D01*
X113785714Y-126997738D01*
X113785714Y-126854880D01*
X113833333Y-126759642D01*
X113928571Y-126712023D01*
X114452380Y-126712023D01*
X113928571Y-126712023D02*
X113833333Y-126664404D01*
X113785714Y-126569166D01*
X113785714Y-126426309D01*
X113833333Y-126331071D01*
X113928571Y-126283452D01*
X114452380Y-126283452D01*
X114404761Y-125426309D02*
X114452380Y-125521547D01*
X114452380Y-125712023D01*
X114404761Y-125807261D01*
X114309523Y-125854880D01*
X113928571Y-125854880D01*
X113833333Y-125807261D01*
X113785714Y-125712023D01*
X113785714Y-125521547D01*
X113833333Y-125426309D01*
X113928571Y-125378690D01*
X114023809Y-125378690D01*
X114119047Y-125854880D01*
X114452380Y-124950119D02*
X113785714Y-124950119D01*
X113880952Y-124950119D02*
X113833333Y-124902500D01*
X113785714Y-124807261D01*
X113785714Y-124664404D01*
X113833333Y-124569166D01*
X113928571Y-124521547D01*
X114452380Y-124521547D01*
X113928571Y-124521547D02*
X113833333Y-124473928D01*
X113785714Y-124378690D01*
X113785714Y-124235833D01*
X113833333Y-124140595D01*
X113928571Y-124092976D01*
X114452380Y-124092976D01*
D11*
X189010000Y-77200000D02*
X189010000Y-75000000D01*
X189010000Y-77200000D02*
X189010000Y-79400000D01*
X183790000Y-77200000D02*
X183790000Y-75000000D01*
X183790000Y-77200000D02*
X183790000Y-80800000D01*
X173447500Y-77200000D02*
X173447500Y-75000000D01*
X173447500Y-77200000D02*
X173447500Y-79400000D01*
X168227500Y-77200000D02*
X168227500Y-75000000D01*
X168227500Y-77200000D02*
X168227500Y-80800000D01*
X142362500Y-113600000D02*
X142362500Y-111400000D01*
X142362500Y-113600000D02*
X142362500Y-115800000D01*
X136892500Y-113600000D02*
X136892500Y-111400000D01*
X136892500Y-113600000D02*
X136892500Y-117200000D01*
X157990000Y-113600000D02*
X157990000Y-111400000D01*
X157990000Y-113600000D02*
X157990000Y-115800000D01*
X152520000Y-113600000D02*
X152520000Y-111400000D01*
X152520000Y-113600000D02*
X152520000Y-117200000D01*
X142210000Y-59900000D02*
X142210000Y-57700000D01*
X142210000Y-59900000D02*
X142210000Y-62100000D01*
X136990000Y-59900000D02*
X136990000Y-57700000D01*
X136990000Y-59900000D02*
X136990000Y-63500000D01*
X126610000Y-95500000D02*
X126610000Y-93300000D01*
X126610000Y-95500000D02*
X126610000Y-97700000D01*
X121390000Y-95500000D02*
X121390000Y-93300000D01*
X121390000Y-95500000D02*
X121390000Y-99100000D01*
X142222500Y-77200000D02*
X142222500Y-75000000D01*
X142222500Y-77200000D02*
X142222500Y-79400000D01*
X137002500Y-77200000D02*
X137002500Y-75000000D01*
X137002500Y-77200000D02*
X137002500Y-80800000D01*
X126735000Y-113600000D02*
X126735000Y-111400000D01*
X126735000Y-113600000D02*
X126735000Y-115800000D01*
X121265000Y-113600000D02*
X121265000Y-111400000D01*
X121265000Y-113600000D02*
X121265000Y-117200000D01*
X162190000Y-136258578D02*
X162190000Y-135741422D01*
X163610000Y-136258578D02*
X163610000Y-135741422D01*
X125610000Y-53241422D02*
X125610000Y-53758578D01*
X124190000Y-53241422D02*
X124190000Y-53758578D01*
X105358578Y-93110000D02*
X104841422Y-93110000D01*
X105358578Y-91690000D02*
X104841422Y-91690000D01*
X123990000Y-101558578D02*
X123990000Y-101041422D01*
X125410000Y-101558578D02*
X125410000Y-101041422D01*
X108390000Y-136258578D02*
X108390000Y-135741422D01*
X109810000Y-136258578D02*
X109810000Y-135741422D01*
X163860000Y-133100000D02*
X163860000Y-130415000D01*
X163860000Y-130415000D02*
X161940000Y-130415000D01*
X161940000Y-130415000D02*
X161940000Y-133100000D01*
X108140000Y-131000000D02*
X108140000Y-133685000D01*
X108140000Y-133685000D02*
X110060000Y-133685000D01*
X110060000Y-133685000D02*
X110060000Y-131000000D01*
X183410000Y-111341422D02*
X183410000Y-111858578D01*
X181990000Y-111341422D02*
X181990000Y-111858578D01*
X167610000Y-111341422D02*
X167610000Y-111858578D01*
X166190000Y-111341422D02*
X166190000Y-111858578D01*
X152010000Y-111341422D02*
X152010000Y-111858578D01*
X150590000Y-111341422D02*
X150590000Y-111858578D01*
X136410000Y-111341422D02*
X136410000Y-111858578D01*
X134990000Y-111341422D02*
X134990000Y-111858578D01*
X120810000Y-111241422D02*
X120810000Y-111758578D01*
X119390000Y-111241422D02*
X119390000Y-111758578D01*
X183110000Y-93141422D02*
X183110000Y-93658578D01*
X181690000Y-93141422D02*
X181690000Y-93658578D01*
X167510000Y-93141422D02*
X167510000Y-93658578D01*
X166090000Y-93141422D02*
X166090000Y-93658578D01*
X151910000Y-93141422D02*
X151910000Y-93658578D01*
X150490000Y-93141422D02*
X150490000Y-93658578D01*
X136310000Y-93141422D02*
X136310000Y-93658578D01*
X134890000Y-93141422D02*
X134890000Y-93658578D01*
X109700000Y-118240000D02*
X105315000Y-118240000D01*
X105315000Y-118240000D02*
X105315000Y-121260000D01*
X105315000Y-121260000D02*
X109700000Y-121260000D01*
D10*
X168412500Y-116025000D02*
X168412500Y-117375000D01*
X173537500Y-116025000D02*
X173537500Y-111375000D01*
X168287500Y-116025000D02*
X168287500Y-111375000D01*
X173537500Y-116025000D02*
X173312500Y-116025000D01*
X173537500Y-111375000D02*
X173312500Y-111375000D01*
X168287500Y-111375000D02*
X168512500Y-111375000D01*
X168287500Y-116025000D02*
X168412500Y-116025000D01*
X152675000Y-97925000D02*
X152675000Y-99275000D01*
X157800000Y-97925000D02*
X157800000Y-93275000D01*
X152550000Y-97925000D02*
X152550000Y-93275000D01*
X157800000Y-97925000D02*
X157575000Y-97925000D01*
X157800000Y-93275000D02*
X157575000Y-93275000D01*
X152550000Y-93275000D02*
X152775000Y-93275000D01*
X152550000Y-97925000D02*
X152675000Y-97925000D01*
X152725000Y-79625000D02*
X152725000Y-80975000D01*
X157850000Y-79625000D02*
X157850000Y-74975000D01*
X152600000Y-79625000D02*
X152600000Y-74975000D01*
X157850000Y-79625000D02*
X157625000Y-79625000D01*
X157850000Y-74975000D02*
X157625000Y-74975000D01*
X152600000Y-74975000D02*
X152825000Y-74975000D01*
X152600000Y-79625000D02*
X152725000Y-79625000D01*
X168287500Y-97925000D02*
X168287500Y-99275000D01*
X173412500Y-97925000D02*
X173412500Y-93275000D01*
X168162500Y-97925000D02*
X168162500Y-93275000D01*
X173412500Y-97925000D02*
X173187500Y-97925000D01*
X173412500Y-93275000D02*
X173187500Y-93275000D01*
X168162500Y-93275000D02*
X168387500Y-93275000D01*
X168162500Y-97925000D02*
X168287500Y-97925000D01*
X183900000Y-97925000D02*
X183900000Y-99275000D01*
X189025000Y-97925000D02*
X189025000Y-93275000D01*
X183775000Y-97925000D02*
X183775000Y-93275000D01*
X189025000Y-97925000D02*
X188800000Y-97925000D01*
X189025000Y-93275000D02*
X188800000Y-93275000D01*
X183775000Y-93275000D02*
X184000000Y-93275000D01*
X183775000Y-97925000D02*
X183900000Y-97925000D01*
X137062500Y-97925000D02*
X137062500Y-99275000D01*
X142187500Y-97925000D02*
X142187500Y-93275000D01*
X136937500Y-97925000D02*
X136937500Y-93275000D01*
X142187500Y-97925000D02*
X141962500Y-97925000D01*
X142187500Y-93275000D02*
X141962500Y-93275000D01*
X136937500Y-93275000D02*
X137162500Y-93275000D01*
X136937500Y-97925000D02*
X137062500Y-97925000D01*
X121500000Y-79625000D02*
X121500000Y-80975000D01*
X126625000Y-79625000D02*
X126625000Y-74975000D01*
X121375000Y-79625000D02*
X121375000Y-74975000D01*
X126625000Y-79625000D02*
X126400000Y-79625000D01*
X126625000Y-74975000D02*
X126400000Y-74975000D01*
X121375000Y-74975000D02*
X121600000Y-74975000D01*
X121375000Y-79625000D02*
X121500000Y-79625000D01*
X123000000Y-62125000D02*
X123000000Y-63475000D01*
X128125000Y-62125000D02*
X128125000Y-57475000D01*
X122875000Y-62125000D02*
X122875000Y-57475000D01*
X128125000Y-62125000D02*
X127900000Y-62125000D01*
X128125000Y-57475000D02*
X127900000Y-57475000D01*
X122875000Y-57475000D02*
X123100000Y-57475000D01*
X122875000Y-62125000D02*
X123000000Y-62125000D01*
D11*
X161660000Y-136258578D02*
X161660000Y-135741422D01*
X160240000Y-136258578D02*
X160240000Y-135741422D01*
X159710000Y-136258578D02*
X159710000Y-135741422D01*
X158290000Y-136258578D02*
X158290000Y-135741422D01*
X155710000Y-136258578D02*
X155710000Y-135741422D01*
X154290000Y-136258578D02*
X154290000Y-135741422D01*
X159990000Y-130415000D02*
X159990000Y-133100000D01*
X161910000Y-130415000D02*
X159990000Y-130415000D01*
X161910000Y-133100000D02*
X161910000Y-130415000D01*
X159926666Y-133785000D02*
X159926666Y-131100000D01*
X158006666Y-133785000D02*
X159926666Y-133785000D01*
X158006666Y-131100000D02*
X158006666Y-133785000D01*
X154039998Y-130415000D02*
X154039998Y-133100000D01*
X155959998Y-130415000D02*
X154039998Y-130415000D01*
X155959998Y-133100000D02*
X155959998Y-130415000D01*
X119390000Y-93141422D02*
X119390000Y-93658578D01*
X120810000Y-93141422D02*
X120810000Y-93658578D01*
X181690000Y-74941422D02*
X181690000Y-75458578D01*
X183110000Y-74941422D02*
X183110000Y-75458578D01*
X166190000Y-74941422D02*
X166190000Y-75458578D01*
X167610000Y-74941422D02*
X167610000Y-75458578D01*
X150490000Y-74841422D02*
X150490000Y-75358578D01*
X151910000Y-74841422D02*
X151910000Y-75358578D01*
X134990000Y-74841422D02*
X134990000Y-75358578D01*
X136410000Y-74841422D02*
X136410000Y-75358578D01*
X119290000Y-74941422D02*
X119290000Y-75458578D01*
X120710000Y-74941422D02*
X120710000Y-75458578D01*
X173290000Y-57341422D02*
X173290000Y-57858578D01*
X174710000Y-57341422D02*
X174710000Y-57858578D01*
X120790000Y-57341422D02*
X120790000Y-57858578D01*
X122210000Y-57341422D02*
X122210000Y-57858578D01*
X136310000Y-57541422D02*
X136310000Y-58058578D01*
X134890000Y-57541422D02*
X134890000Y-58058578D01*
X156023332Y-130415000D02*
X156023332Y-133100000D01*
X157943332Y-130415000D02*
X156023332Y-130415000D01*
X157943332Y-133100000D02*
X157943332Y-130415000D01*
X116960000Y-133000000D02*
X116960000Y-130315000D01*
X116960000Y-130315000D02*
X115040000Y-130315000D01*
X115040000Y-130315000D02*
X115040000Y-133000000D01*
X121040000Y-130315000D02*
X121040000Y-133000000D01*
X122960000Y-130315000D02*
X121040000Y-130315000D01*
X122960000Y-133000000D02*
X122960000Y-130315000D01*
X148960000Y-133685000D02*
X148960000Y-131000000D01*
X147040000Y-133685000D02*
X148960000Y-133685000D01*
X147040000Y-131000000D02*
X147040000Y-133685000D01*
X142960000Y-133685000D02*
X142960000Y-131000000D01*
X141040000Y-133685000D02*
X142960000Y-133685000D01*
X141040000Y-131000000D02*
X141040000Y-133685000D01*
X143040000Y-131000000D02*
X143040000Y-133685000D01*
X143040000Y-133685000D02*
X144960000Y-133685000D01*
X144960000Y-133685000D02*
X144960000Y-131000000D01*
X146960000Y-133000000D02*
X146960000Y-130315000D01*
X146960000Y-130315000D02*
X145040000Y-130315000D01*
X145040000Y-130315000D02*
X145040000Y-133000000D01*
X128960000Y-133000000D02*
X128960000Y-130315000D01*
X128960000Y-130315000D02*
X127040000Y-130315000D01*
X127040000Y-130315000D02*
X127040000Y-133000000D01*
X130960000Y-133000000D02*
X130960000Y-130315000D01*
X130960000Y-130315000D02*
X129040000Y-130315000D01*
X129040000Y-130315000D02*
X129040000Y-133000000D01*
X124960000Y-133685000D02*
X124960000Y-131000000D01*
X123040000Y-133685000D02*
X124960000Y-133685000D01*
X123040000Y-131000000D02*
X123040000Y-133685000D01*
X125040000Y-131000000D02*
X125040000Y-133685000D01*
X125040000Y-133685000D02*
X126960000Y-133685000D01*
X126960000Y-133685000D02*
X126960000Y-131000000D01*
X140960000Y-133000000D02*
X140960000Y-130315000D01*
X140960000Y-130315000D02*
X139040000Y-130315000D01*
X139040000Y-130315000D02*
X139040000Y-133000000D01*
X137040000Y-130315000D02*
X137040000Y-133000000D01*
X138960000Y-130315000D02*
X137040000Y-130315000D01*
X138960000Y-133000000D02*
X138960000Y-130315000D01*
X132960000Y-133000000D02*
X132960000Y-130315000D01*
X132960000Y-130315000D02*
X131040000Y-130315000D01*
X131040000Y-130315000D02*
X131040000Y-133000000D01*
X133040000Y-130315000D02*
X133040000Y-133000000D01*
X134960000Y-130315000D02*
X133040000Y-130315000D01*
X134960000Y-133000000D02*
X134960000Y-130315000D01*
X118960000Y-133000000D02*
X118960000Y-130315000D01*
X118960000Y-130315000D02*
X117040000Y-130315000D01*
X117040000Y-130315000D02*
X117040000Y-133000000D01*
X119040000Y-130315000D02*
X119040000Y-133000000D01*
X120960000Y-130315000D02*
X119040000Y-130315000D01*
X120960000Y-133000000D02*
X120960000Y-130315000D01*
X136960000Y-133000000D02*
X136960000Y-130315000D01*
X136960000Y-130315000D02*
X135040000Y-130315000D01*
X135040000Y-130315000D02*
X135040000Y-133000000D01*
X113040000Y-130315000D02*
X113040000Y-133000000D01*
X114960000Y-130315000D02*
X113040000Y-130315000D01*
X114960000Y-133000000D02*
X114960000Y-130315000D01*
X157710000Y-136258578D02*
X157710000Y-135741422D01*
X156290000Y-136258578D02*
X156290000Y-135741422D01*
X116710000Y-136258578D02*
X116710000Y-135741422D01*
X115290000Y-136258578D02*
X115290000Y-135741422D01*
X121290000Y-136258578D02*
X121290000Y-135741422D01*
X122710000Y-136258578D02*
X122710000Y-135741422D01*
X148710000Y-136258578D02*
X148710000Y-135741422D01*
X147290000Y-136258578D02*
X147290000Y-135741422D01*
X141290000Y-136258578D02*
X141290000Y-135741422D01*
X142710000Y-136258578D02*
X142710000Y-135741422D01*
X144710000Y-136258578D02*
X144710000Y-135741422D01*
X143290000Y-136258578D02*
X143290000Y-135741422D01*
X145290000Y-136258578D02*
X145290000Y-135741422D01*
X146710000Y-136258578D02*
X146710000Y-135741422D01*
X128710000Y-136258578D02*
X128710000Y-135741422D01*
X127290000Y-136258578D02*
X127290000Y-135741422D01*
X129290000Y-136258578D02*
X129290000Y-135741422D01*
X130710000Y-136258578D02*
X130710000Y-135741422D01*
X123290000Y-136258578D02*
X123290000Y-135741422D01*
X124710000Y-136258578D02*
X124710000Y-135741422D01*
X126710000Y-136258578D02*
X126710000Y-135741422D01*
X125290000Y-136258578D02*
X125290000Y-135741422D01*
X139290000Y-136258578D02*
X139290000Y-135741422D01*
X140710000Y-136258578D02*
X140710000Y-135741422D01*
X138710000Y-136258578D02*
X138710000Y-135741422D01*
X137290000Y-136258578D02*
X137290000Y-135741422D01*
X131290000Y-136258578D02*
X131290000Y-135741422D01*
X132710000Y-136258578D02*
X132710000Y-135741422D01*
X134710000Y-136258578D02*
X134710000Y-135741422D01*
X133290000Y-136258578D02*
X133290000Y-135741422D01*
X117290000Y-136258578D02*
X117290000Y-135741422D01*
X118710000Y-136258578D02*
X118710000Y-135741422D01*
X120710000Y-136258578D02*
X120710000Y-135741422D01*
X119290000Y-136258578D02*
X119290000Y-135741422D01*
X135290000Y-136258578D02*
X135290000Y-135741422D01*
X136710000Y-136258578D02*
X136710000Y-135741422D01*
X114710000Y-136258578D02*
X114710000Y-135741422D01*
X113290000Y-136258578D02*
X113290000Y-135741422D01*
D10*
X175275000Y-62125000D02*
X175400000Y-62125000D01*
X175275000Y-57475000D02*
X175500000Y-57475000D01*
X180525000Y-57475000D02*
X180300000Y-57475000D01*
X180525000Y-62125000D02*
X180300000Y-62125000D01*
X175275000Y-62125000D02*
X175275000Y-57475000D01*
X180525000Y-62125000D02*
X180525000Y-57475000D01*
X175400000Y-62125000D02*
X175400000Y-63475000D01*
X184100000Y-116025000D02*
X184100000Y-117375000D01*
X189225000Y-116025000D02*
X189225000Y-111375000D01*
X183975000Y-116025000D02*
X183975000Y-111375000D01*
X189225000Y-116025000D02*
X189000000Y-116025000D01*
X189225000Y-111375000D02*
X189000000Y-111375000D01*
X183975000Y-111375000D02*
X184200000Y-111375000D01*
X183975000Y-116025000D02*
X184100000Y-116025000D01*
X185161904Y-72052380D02*
X185161904Y-72861904D01*
X185209523Y-72957142D01*
X185257142Y-73004761D01*
X185352380Y-73052380D01*
X185542857Y-73052380D01*
X185638095Y-73004761D01*
X185685714Y-72957142D01*
X185733333Y-72861904D01*
X185733333Y-72052380D01*
X186733333Y-73052380D02*
X186161904Y-73052380D01*
X186447619Y-73052380D02*
X186447619Y-72052380D01*
X186352380Y-72195238D01*
X186257142Y-72290476D01*
X186161904Y-72338095D01*
X187304761Y-72480952D02*
X187209523Y-72433333D01*
X187161904Y-72385714D01*
X187114285Y-72290476D01*
X187114285Y-72242857D01*
X187161904Y-72147619D01*
X187209523Y-72100000D01*
X187304761Y-72052380D01*
X187495238Y-72052380D01*
X187590476Y-72100000D01*
X187638095Y-72147619D01*
X187685714Y-72242857D01*
X187685714Y-72290476D01*
X187638095Y-72385714D01*
X187590476Y-72433333D01*
X187495238Y-72480952D01*
X187304761Y-72480952D01*
X187209523Y-72528571D01*
X187161904Y-72576190D01*
X187114285Y-72671428D01*
X187114285Y-72861904D01*
X187161904Y-72957142D01*
X187209523Y-73004761D01*
X187304761Y-73052380D01*
X187495238Y-73052380D01*
X187590476Y-73004761D01*
X187638095Y-72957142D01*
X187685714Y-72861904D01*
X187685714Y-72671428D01*
X187638095Y-72576190D01*
X187590476Y-72528571D01*
X187495238Y-72480952D01*
X169661904Y-71952380D02*
X169661904Y-72761904D01*
X169709523Y-72857142D01*
X169757142Y-72904761D01*
X169852380Y-72952380D01*
X170042857Y-72952380D01*
X170138095Y-72904761D01*
X170185714Y-72857142D01*
X170233333Y-72761904D01*
X170233333Y-71952380D01*
X171233333Y-72952380D02*
X170661904Y-72952380D01*
X170947619Y-72952380D02*
X170947619Y-71952380D01*
X170852380Y-72095238D01*
X170757142Y-72190476D01*
X170661904Y-72238095D01*
X171566666Y-71952380D02*
X172233333Y-71952380D01*
X171804761Y-72952380D01*
X138261904Y-108252380D02*
X138261904Y-109061904D01*
X138309523Y-109157142D01*
X138357142Y-109204761D01*
X138452380Y-109252380D01*
X138642857Y-109252380D01*
X138738095Y-109204761D01*
X138785714Y-109157142D01*
X138833333Y-109061904D01*
X138833333Y-108252380D01*
X139833333Y-109252380D02*
X139261904Y-109252380D01*
X139547619Y-109252380D02*
X139547619Y-108252380D01*
X139452380Y-108395238D01*
X139357142Y-108490476D01*
X139261904Y-108538095D01*
X140738095Y-108252380D02*
X140261904Y-108252380D01*
X140214285Y-108728571D01*
X140261904Y-108680952D01*
X140357142Y-108633333D01*
X140595238Y-108633333D01*
X140690476Y-108680952D01*
X140738095Y-108728571D01*
X140785714Y-108823809D01*
X140785714Y-109061904D01*
X140738095Y-109157142D01*
X140690476Y-109204761D01*
X140595238Y-109252380D01*
X140357142Y-109252380D01*
X140261904Y-109204761D01*
X140214285Y-109157142D01*
X153961904Y-108352380D02*
X153961904Y-109161904D01*
X154009523Y-109257142D01*
X154057142Y-109304761D01*
X154152380Y-109352380D01*
X154342857Y-109352380D01*
X154438095Y-109304761D01*
X154485714Y-109257142D01*
X154533333Y-109161904D01*
X154533333Y-108352380D01*
X155533333Y-109352380D02*
X154961904Y-109352380D01*
X155247619Y-109352380D02*
X155247619Y-108352380D01*
X155152380Y-108495238D01*
X155057142Y-108590476D01*
X154961904Y-108638095D01*
X156152380Y-108352380D02*
X156247619Y-108352380D01*
X156342857Y-108400000D01*
X156390476Y-108447619D01*
X156438095Y-108542857D01*
X156485714Y-108733333D01*
X156485714Y-108971428D01*
X156438095Y-109161904D01*
X156390476Y-109257142D01*
X156342857Y-109304761D01*
X156247619Y-109352380D01*
X156152380Y-109352380D01*
X156057142Y-109304761D01*
X156009523Y-109257142D01*
X155961904Y-109161904D01*
X155914285Y-108971428D01*
X155914285Y-108733333D01*
X155961904Y-108542857D01*
X156009523Y-108447619D01*
X156057142Y-108400000D01*
X156152380Y-108352380D01*
X138838095Y-54652380D02*
X138838095Y-55461904D01*
X138885714Y-55557142D01*
X138933333Y-55604761D01*
X139028571Y-55652380D01*
X139219047Y-55652380D01*
X139314285Y-55604761D01*
X139361904Y-55557142D01*
X139409523Y-55461904D01*
X139409523Y-54652380D01*
X140314285Y-54652380D02*
X140123809Y-54652380D01*
X140028571Y-54700000D01*
X139980952Y-54747619D01*
X139885714Y-54890476D01*
X139838095Y-55080952D01*
X139838095Y-55461904D01*
X139885714Y-55557142D01*
X139933333Y-55604761D01*
X140028571Y-55652380D01*
X140219047Y-55652380D01*
X140314285Y-55604761D01*
X140361904Y-55557142D01*
X140409523Y-55461904D01*
X140409523Y-55223809D01*
X140361904Y-55128571D01*
X140314285Y-55080952D01*
X140219047Y-55033333D01*
X140028571Y-55033333D01*
X139933333Y-55080952D01*
X139885714Y-55128571D01*
X139838095Y-55223809D01*
X123338095Y-90352380D02*
X123338095Y-91161904D01*
X123385714Y-91257142D01*
X123433333Y-91304761D01*
X123528571Y-91352380D01*
X123719047Y-91352380D01*
X123814285Y-91304761D01*
X123861904Y-91257142D01*
X123909523Y-91161904D01*
X123909523Y-90352380D01*
X124814285Y-90685714D02*
X124814285Y-91352380D01*
X124576190Y-90304761D02*
X124338095Y-91019047D01*
X124957142Y-91019047D01*
X138738095Y-72152380D02*
X138738095Y-72961904D01*
X138785714Y-73057142D01*
X138833333Y-73104761D01*
X138928571Y-73152380D01*
X139119047Y-73152380D01*
X139214285Y-73104761D01*
X139261904Y-73057142D01*
X139309523Y-72961904D01*
X139309523Y-72152380D01*
X139690476Y-72152380D02*
X140309523Y-72152380D01*
X139976190Y-72533333D01*
X140119047Y-72533333D01*
X140214285Y-72580952D01*
X140261904Y-72628571D01*
X140309523Y-72723809D01*
X140309523Y-72961904D01*
X140261904Y-73057142D01*
X140214285Y-73104761D01*
X140119047Y-73152380D01*
X139833333Y-73152380D01*
X139738095Y-73104761D01*
X139690476Y-73057142D01*
X123338095Y-108452380D02*
X123338095Y-109261904D01*
X123385714Y-109357142D01*
X123433333Y-109404761D01*
X123528571Y-109452380D01*
X123719047Y-109452380D01*
X123814285Y-109404761D01*
X123861904Y-109357142D01*
X123909523Y-109261904D01*
X123909523Y-108452380D01*
X124338095Y-108547619D02*
X124385714Y-108500000D01*
X124480952Y-108452380D01*
X124719047Y-108452380D01*
X124814285Y-108500000D01*
X124861904Y-108547619D01*
X124909523Y-108642857D01*
X124909523Y-108738095D01*
X124861904Y-108880952D01*
X124290476Y-109452380D01*
X124909523Y-109452380D01*
X127002380Y-54142857D02*
X126526190Y-54476190D01*
X127002380Y-54714285D02*
X126002380Y-54714285D01*
X126002380Y-54333333D01*
X126050000Y-54238095D01*
X126097619Y-54190476D01*
X126192857Y-54142857D01*
X126335714Y-54142857D01*
X126430952Y-54190476D01*
X126478571Y-54238095D01*
X126526190Y-54333333D01*
X126526190Y-54714285D01*
X126097619Y-53761904D02*
X126050000Y-53714285D01*
X126002380Y-53619047D01*
X126002380Y-53380952D01*
X126050000Y-53285714D01*
X126097619Y-53238095D01*
X126192857Y-53190476D01*
X126288095Y-53190476D01*
X126430952Y-53238095D01*
X127002380Y-53809523D01*
X127002380Y-53190476D01*
X126002380Y-52333333D02*
X126002380Y-52523809D01*
X126050000Y-52619047D01*
X126097619Y-52666666D01*
X126240476Y-52761904D01*
X126430952Y-52809523D01*
X126811904Y-52809523D01*
X126907142Y-52761904D01*
X126954761Y-52714285D01*
X127002380Y-52619047D01*
X127002380Y-52428571D01*
X126954761Y-52333333D01*
X126907142Y-52285714D01*
X126811904Y-52238095D01*
X126573809Y-52238095D01*
X126478571Y-52285714D01*
X126430952Y-52333333D01*
X126383333Y-52428571D01*
X126383333Y-52619047D01*
X126430952Y-52714285D01*
X126478571Y-52761904D01*
X126573809Y-52809523D01*
X104457142Y-94502380D02*
X104123809Y-94026190D01*
X103885714Y-94502380D02*
X103885714Y-93502380D01*
X104266666Y-93502380D01*
X104361904Y-93550000D01*
X104409523Y-93597619D01*
X104457142Y-93692857D01*
X104457142Y-93835714D01*
X104409523Y-93930952D01*
X104361904Y-93978571D01*
X104266666Y-94026190D01*
X103885714Y-94026190D01*
X104838095Y-93597619D02*
X104885714Y-93550000D01*
X104980952Y-93502380D01*
X105219047Y-93502380D01*
X105314285Y-93550000D01*
X105361904Y-93597619D01*
X105409523Y-93692857D01*
X105409523Y-93788095D01*
X105361904Y-93930952D01*
X104790476Y-94502380D01*
X105409523Y-94502380D01*
X106314285Y-93502380D02*
X105838095Y-93502380D01*
X105790476Y-93978571D01*
X105838095Y-93930952D01*
X105933333Y-93883333D01*
X106171428Y-93883333D01*
X106266666Y-93930952D01*
X106314285Y-93978571D01*
X106361904Y-94073809D01*
X106361904Y-94311904D01*
X106314285Y-94407142D01*
X106266666Y-94454761D01*
X106171428Y-94502380D01*
X105933333Y-94502380D01*
X105838095Y-94454761D01*
X105790476Y-94407142D01*
X123502380Y-101942857D02*
X123026190Y-102276190D01*
X123502380Y-102514285D02*
X122502380Y-102514285D01*
X122502380Y-102133333D01*
X122550000Y-102038095D01*
X122597619Y-101990476D01*
X122692857Y-101942857D01*
X122835714Y-101942857D01*
X122930952Y-101990476D01*
X122978571Y-102038095D01*
X123026190Y-102133333D01*
X123026190Y-102514285D01*
X122597619Y-101561904D02*
X122550000Y-101514285D01*
X122502380Y-101419047D01*
X122502380Y-101180952D01*
X122550000Y-101085714D01*
X122597619Y-101038095D01*
X122692857Y-100990476D01*
X122788095Y-100990476D01*
X122930952Y-101038095D01*
X123502380Y-101609523D01*
X123502380Y-100990476D01*
X122835714Y-100133333D02*
X123502380Y-100133333D01*
X122454761Y-100371428D02*
X123169047Y-100609523D01*
X123169047Y-99990476D01*
X181057142Y-112342857D02*
X181104761Y-112390476D01*
X181152380Y-112533333D01*
X181152380Y-112628571D01*
X181104761Y-112771428D01*
X181009523Y-112866666D01*
X180914285Y-112914285D01*
X180723809Y-112961904D01*
X180580952Y-112961904D01*
X180390476Y-112914285D01*
X180295238Y-112866666D01*
X180200000Y-112771428D01*
X180152380Y-112628571D01*
X180152380Y-112533333D01*
X180200000Y-112390476D01*
X180247619Y-112342857D01*
X181152380Y-111390476D02*
X181152380Y-111961904D01*
X181152380Y-111676190D02*
X180152380Y-111676190D01*
X180295238Y-111771428D01*
X180390476Y-111866666D01*
X180438095Y-111961904D01*
X181152380Y-110914285D02*
X181152380Y-110723809D01*
X181104761Y-110628571D01*
X181057142Y-110580952D01*
X180914285Y-110485714D01*
X180723809Y-110438095D01*
X180342857Y-110438095D01*
X180247619Y-110485714D01*
X180200000Y-110533333D01*
X180152380Y-110628571D01*
X180152380Y-110819047D01*
X180200000Y-110914285D01*
X180247619Y-110961904D01*
X180342857Y-111009523D01*
X180580952Y-111009523D01*
X180676190Y-110961904D01*
X180723809Y-110914285D01*
X180771428Y-110819047D01*
X180771428Y-110628571D01*
X180723809Y-110533333D01*
X180676190Y-110485714D01*
X180580952Y-110438095D01*
X165257142Y-112342857D02*
X165304761Y-112390476D01*
X165352380Y-112533333D01*
X165352380Y-112628571D01*
X165304761Y-112771428D01*
X165209523Y-112866666D01*
X165114285Y-112914285D01*
X164923809Y-112961904D01*
X164780952Y-112961904D01*
X164590476Y-112914285D01*
X164495238Y-112866666D01*
X164400000Y-112771428D01*
X164352380Y-112628571D01*
X164352380Y-112533333D01*
X164400000Y-112390476D01*
X164447619Y-112342857D01*
X165352380Y-111390476D02*
X165352380Y-111961904D01*
X165352380Y-111676190D02*
X164352380Y-111676190D01*
X164495238Y-111771428D01*
X164590476Y-111866666D01*
X164638095Y-111961904D01*
X164780952Y-110819047D02*
X164733333Y-110914285D01*
X164685714Y-110961904D01*
X164590476Y-111009523D01*
X164542857Y-111009523D01*
X164447619Y-110961904D01*
X164400000Y-110914285D01*
X164352380Y-110819047D01*
X164352380Y-110628571D01*
X164400000Y-110533333D01*
X164447619Y-110485714D01*
X164542857Y-110438095D01*
X164590476Y-110438095D01*
X164685714Y-110485714D01*
X164733333Y-110533333D01*
X164780952Y-110628571D01*
X164780952Y-110819047D01*
X164828571Y-110914285D01*
X164876190Y-110961904D01*
X164971428Y-111009523D01*
X165161904Y-111009523D01*
X165257142Y-110961904D01*
X165304761Y-110914285D01*
X165352380Y-110819047D01*
X165352380Y-110628571D01*
X165304761Y-110533333D01*
X165257142Y-110485714D01*
X165161904Y-110438095D01*
X164971428Y-110438095D01*
X164876190Y-110485714D01*
X164828571Y-110533333D01*
X164780952Y-110628571D01*
X149857142Y-112342857D02*
X149904761Y-112390476D01*
X149952380Y-112533333D01*
X149952380Y-112628571D01*
X149904761Y-112771428D01*
X149809523Y-112866666D01*
X149714285Y-112914285D01*
X149523809Y-112961904D01*
X149380952Y-112961904D01*
X149190476Y-112914285D01*
X149095238Y-112866666D01*
X149000000Y-112771428D01*
X148952380Y-112628571D01*
X148952380Y-112533333D01*
X149000000Y-112390476D01*
X149047619Y-112342857D01*
X149952380Y-111390476D02*
X149952380Y-111961904D01*
X149952380Y-111676190D02*
X148952380Y-111676190D01*
X149095238Y-111771428D01*
X149190476Y-111866666D01*
X149238095Y-111961904D01*
X148952380Y-111057142D02*
X148952380Y-110390476D01*
X149952380Y-110819047D01*
X134457142Y-112342857D02*
X134504761Y-112390476D01*
X134552380Y-112533333D01*
X134552380Y-112628571D01*
X134504761Y-112771428D01*
X134409523Y-112866666D01*
X134314285Y-112914285D01*
X134123809Y-112961904D01*
X133980952Y-112961904D01*
X133790476Y-112914285D01*
X133695238Y-112866666D01*
X133600000Y-112771428D01*
X133552380Y-112628571D01*
X133552380Y-112533333D01*
X133600000Y-112390476D01*
X133647619Y-112342857D01*
X134552380Y-111390476D02*
X134552380Y-111961904D01*
X134552380Y-111676190D02*
X133552380Y-111676190D01*
X133695238Y-111771428D01*
X133790476Y-111866666D01*
X133838095Y-111961904D01*
X133552380Y-110533333D02*
X133552380Y-110723809D01*
X133600000Y-110819047D01*
X133647619Y-110866666D01*
X133790476Y-110961904D01*
X133980952Y-111009523D01*
X134361904Y-111009523D01*
X134457142Y-110961904D01*
X134504761Y-110914285D01*
X134552380Y-110819047D01*
X134552380Y-110628571D01*
X134504761Y-110533333D01*
X134457142Y-110485714D01*
X134361904Y-110438095D01*
X134123809Y-110438095D01*
X134028571Y-110485714D01*
X133980952Y-110533333D01*
X133933333Y-110628571D01*
X133933333Y-110819047D01*
X133980952Y-110914285D01*
X134028571Y-110961904D01*
X134123809Y-111009523D01*
X118757142Y-112142857D02*
X118804761Y-112190476D01*
X118852380Y-112333333D01*
X118852380Y-112428571D01*
X118804761Y-112571428D01*
X118709523Y-112666666D01*
X118614285Y-112714285D01*
X118423809Y-112761904D01*
X118280952Y-112761904D01*
X118090476Y-112714285D01*
X117995238Y-112666666D01*
X117900000Y-112571428D01*
X117852380Y-112428571D01*
X117852380Y-112333333D01*
X117900000Y-112190476D01*
X117947619Y-112142857D01*
X118852380Y-111190476D02*
X118852380Y-111761904D01*
X118852380Y-111476190D02*
X117852380Y-111476190D01*
X117995238Y-111571428D01*
X118090476Y-111666666D01*
X118138095Y-111761904D01*
X117852380Y-110285714D02*
X117852380Y-110761904D01*
X118328571Y-110809523D01*
X118280952Y-110761904D01*
X118233333Y-110666666D01*
X118233333Y-110428571D01*
X118280952Y-110333333D01*
X118328571Y-110285714D01*
X118423809Y-110238095D01*
X118661904Y-110238095D01*
X118757142Y-110285714D01*
X118804761Y-110333333D01*
X118852380Y-110428571D01*
X118852380Y-110666666D01*
X118804761Y-110761904D01*
X118757142Y-110809523D01*
X180957142Y-94142857D02*
X181004761Y-94190476D01*
X181052380Y-94333333D01*
X181052380Y-94428571D01*
X181004761Y-94571428D01*
X180909523Y-94666666D01*
X180814285Y-94714285D01*
X180623809Y-94761904D01*
X180480952Y-94761904D01*
X180290476Y-94714285D01*
X180195238Y-94666666D01*
X180100000Y-94571428D01*
X180052380Y-94428571D01*
X180052380Y-94333333D01*
X180100000Y-94190476D01*
X180147619Y-94142857D01*
X181052380Y-93190476D02*
X181052380Y-93761904D01*
X181052380Y-93476190D02*
X180052380Y-93476190D01*
X180195238Y-93571428D01*
X180290476Y-93666666D01*
X180338095Y-93761904D01*
X180385714Y-92333333D02*
X181052380Y-92333333D01*
X180004761Y-92571428D02*
X180719047Y-92809523D01*
X180719047Y-92190476D01*
X165457142Y-94242857D02*
X165504761Y-94290476D01*
X165552380Y-94433333D01*
X165552380Y-94528571D01*
X165504761Y-94671428D01*
X165409523Y-94766666D01*
X165314285Y-94814285D01*
X165123809Y-94861904D01*
X164980952Y-94861904D01*
X164790476Y-94814285D01*
X164695238Y-94766666D01*
X164600000Y-94671428D01*
X164552380Y-94528571D01*
X164552380Y-94433333D01*
X164600000Y-94290476D01*
X164647619Y-94242857D01*
X165552380Y-93290476D02*
X165552380Y-93861904D01*
X165552380Y-93576190D02*
X164552380Y-93576190D01*
X164695238Y-93671428D01*
X164790476Y-93766666D01*
X164838095Y-93861904D01*
X164552380Y-92957142D02*
X164552380Y-92338095D01*
X164933333Y-92671428D01*
X164933333Y-92528571D01*
X164980952Y-92433333D01*
X165028571Y-92385714D01*
X165123809Y-92338095D01*
X165361904Y-92338095D01*
X165457142Y-92385714D01*
X165504761Y-92433333D01*
X165552380Y-92528571D01*
X165552380Y-92814285D01*
X165504761Y-92909523D01*
X165457142Y-92957142D01*
X149857142Y-94142857D02*
X149904761Y-94190476D01*
X149952380Y-94333333D01*
X149952380Y-94428571D01*
X149904761Y-94571428D01*
X149809523Y-94666666D01*
X149714285Y-94714285D01*
X149523809Y-94761904D01*
X149380952Y-94761904D01*
X149190476Y-94714285D01*
X149095238Y-94666666D01*
X149000000Y-94571428D01*
X148952380Y-94428571D01*
X148952380Y-94333333D01*
X149000000Y-94190476D01*
X149047619Y-94142857D01*
X149952380Y-93190476D02*
X149952380Y-93761904D01*
X149952380Y-93476190D02*
X148952380Y-93476190D01*
X149095238Y-93571428D01*
X149190476Y-93666666D01*
X149238095Y-93761904D01*
X149047619Y-92809523D02*
X149000000Y-92761904D01*
X148952380Y-92666666D01*
X148952380Y-92428571D01*
X149000000Y-92333333D01*
X149047619Y-92285714D01*
X149142857Y-92238095D01*
X149238095Y-92238095D01*
X149380952Y-92285714D01*
X149952380Y-92857142D01*
X149952380Y-92238095D01*
X134257142Y-94042857D02*
X134304761Y-94090476D01*
X134352380Y-94233333D01*
X134352380Y-94328571D01*
X134304761Y-94471428D01*
X134209523Y-94566666D01*
X134114285Y-94614285D01*
X133923809Y-94661904D01*
X133780952Y-94661904D01*
X133590476Y-94614285D01*
X133495238Y-94566666D01*
X133400000Y-94471428D01*
X133352380Y-94328571D01*
X133352380Y-94233333D01*
X133400000Y-94090476D01*
X133447619Y-94042857D01*
X134352380Y-93090476D02*
X134352380Y-93661904D01*
X134352380Y-93376190D02*
X133352380Y-93376190D01*
X133495238Y-93471428D01*
X133590476Y-93566666D01*
X133638095Y-93661904D01*
X134352380Y-92138095D02*
X134352380Y-92709523D01*
X134352380Y-92423809D02*
X133352380Y-92423809D01*
X133495238Y-92519047D01*
X133590476Y-92614285D01*
X133638095Y-92709523D01*
X107783333Y-117757142D02*
X107735714Y-117804761D01*
X107592857Y-117852380D01*
X107497619Y-117852380D01*
X107354761Y-117804761D01*
X107259523Y-117709523D01*
X107211904Y-117614285D01*
X107164285Y-117423809D01*
X107164285Y-117280952D01*
X107211904Y-117090476D01*
X107259523Y-116995238D01*
X107354761Y-116900000D01*
X107497619Y-116852380D01*
X107592857Y-116852380D01*
X107735714Y-116900000D01*
X107783333Y-116947619D01*
X108640476Y-117185714D02*
X108640476Y-117852380D01*
X108402380Y-116804761D02*
X108164285Y-117519047D01*
X108783333Y-117519047D01*
X169561904Y-108352380D02*
X169561904Y-109161904D01*
X169609523Y-109257142D01*
X169657142Y-109304761D01*
X169752380Y-109352380D01*
X169942857Y-109352380D01*
X170038095Y-109304761D01*
X170085714Y-109257142D01*
X170133333Y-109161904D01*
X170133333Y-108352380D01*
X171133333Y-109352380D02*
X170561904Y-109352380D01*
X170847619Y-109352380D02*
X170847619Y-108352380D01*
X170752380Y-108495238D01*
X170657142Y-108590476D01*
X170561904Y-108638095D01*
X171990476Y-108352380D02*
X171800000Y-108352380D01*
X171704761Y-108400000D01*
X171657142Y-108447619D01*
X171561904Y-108590476D01*
X171514285Y-108780952D01*
X171514285Y-109161904D01*
X171561904Y-109257142D01*
X171609523Y-109304761D01*
X171704761Y-109352380D01*
X171895238Y-109352380D01*
X171990476Y-109304761D01*
X172038095Y-109257142D01*
X172085714Y-109161904D01*
X172085714Y-108923809D01*
X172038095Y-108828571D01*
X171990476Y-108780952D01*
X171895238Y-108733333D01*
X171704761Y-108733333D01*
X171609523Y-108780952D01*
X171561904Y-108828571D01*
X171514285Y-108923809D01*
X153861904Y-90352380D02*
X153861904Y-91161904D01*
X153909523Y-91257142D01*
X153957142Y-91304761D01*
X154052380Y-91352380D01*
X154242857Y-91352380D01*
X154338095Y-91304761D01*
X154385714Y-91257142D01*
X154433333Y-91161904D01*
X154433333Y-90352380D01*
X155433333Y-91352380D02*
X154861904Y-91352380D01*
X155147619Y-91352380D02*
X155147619Y-90352380D01*
X155052380Y-90495238D01*
X154957142Y-90590476D01*
X154861904Y-90638095D01*
X156290476Y-90685714D02*
X156290476Y-91352380D01*
X156052380Y-90304761D02*
X155814285Y-91019047D01*
X156433333Y-91019047D01*
X153961904Y-71752380D02*
X153961904Y-72561904D01*
X154009523Y-72657142D01*
X154057142Y-72704761D01*
X154152380Y-72752380D01*
X154342857Y-72752380D01*
X154438095Y-72704761D01*
X154485714Y-72657142D01*
X154533333Y-72561904D01*
X154533333Y-71752380D01*
X155533333Y-72752380D02*
X154961904Y-72752380D01*
X155247619Y-72752380D02*
X155247619Y-71752380D01*
X155152380Y-71895238D01*
X155057142Y-71990476D01*
X154961904Y-72038095D01*
X155866666Y-71752380D02*
X156485714Y-71752380D01*
X156152380Y-72133333D01*
X156295238Y-72133333D01*
X156390476Y-72180952D01*
X156438095Y-72228571D01*
X156485714Y-72323809D01*
X156485714Y-72561904D01*
X156438095Y-72657142D01*
X156390476Y-72704761D01*
X156295238Y-72752380D01*
X156009523Y-72752380D01*
X155914285Y-72704761D01*
X155866666Y-72657142D01*
X169461904Y-90252380D02*
X169461904Y-91061904D01*
X169509523Y-91157142D01*
X169557142Y-91204761D01*
X169652380Y-91252380D01*
X169842857Y-91252380D01*
X169938095Y-91204761D01*
X169985714Y-91157142D01*
X170033333Y-91061904D01*
X170033333Y-90252380D01*
X171033333Y-91252380D02*
X170461904Y-91252380D01*
X170747619Y-91252380D02*
X170747619Y-90252380D01*
X170652380Y-90395238D01*
X170557142Y-90490476D01*
X170461904Y-90538095D01*
X171414285Y-90347619D02*
X171461904Y-90300000D01*
X171557142Y-90252380D01*
X171795238Y-90252380D01*
X171890476Y-90300000D01*
X171938095Y-90347619D01*
X171985714Y-90442857D01*
X171985714Y-90538095D01*
X171938095Y-90680952D01*
X171366666Y-91252380D01*
X171985714Y-91252380D01*
X185261904Y-90152380D02*
X185261904Y-90961904D01*
X185309523Y-91057142D01*
X185357142Y-91104761D01*
X185452380Y-91152380D01*
X185642857Y-91152380D01*
X185738095Y-91104761D01*
X185785714Y-91057142D01*
X185833333Y-90961904D01*
X185833333Y-90152380D01*
X186833333Y-91152380D02*
X186261904Y-91152380D01*
X186547619Y-91152380D02*
X186547619Y-90152380D01*
X186452380Y-90295238D01*
X186357142Y-90390476D01*
X186261904Y-90438095D01*
X187785714Y-91152380D02*
X187214285Y-91152380D01*
X187500000Y-91152380D02*
X187500000Y-90152380D01*
X187404761Y-90295238D01*
X187309523Y-90390476D01*
X187214285Y-90438095D01*
X138938095Y-90152380D02*
X138938095Y-90961904D01*
X138985714Y-91057142D01*
X139033333Y-91104761D01*
X139128571Y-91152380D01*
X139319047Y-91152380D01*
X139414285Y-91104761D01*
X139461904Y-91057142D01*
X139509523Y-90961904D01*
X139509523Y-90152380D01*
X140033333Y-91152380D02*
X140223809Y-91152380D01*
X140319047Y-91104761D01*
X140366666Y-91057142D01*
X140461904Y-90914285D01*
X140509523Y-90723809D01*
X140509523Y-90342857D01*
X140461904Y-90247619D01*
X140414285Y-90200000D01*
X140319047Y-90152380D01*
X140128571Y-90152380D01*
X140033333Y-90200000D01*
X139985714Y-90247619D01*
X139938095Y-90342857D01*
X139938095Y-90580952D01*
X139985714Y-90676190D01*
X140033333Y-90723809D01*
X140128571Y-90771428D01*
X140319047Y-90771428D01*
X140414285Y-90723809D01*
X140461904Y-90676190D01*
X140509523Y-90580952D01*
X123138095Y-72152380D02*
X123138095Y-72961904D01*
X123185714Y-73057142D01*
X123233333Y-73104761D01*
X123328571Y-73152380D01*
X123519047Y-73152380D01*
X123614285Y-73104761D01*
X123661904Y-73057142D01*
X123709523Y-72961904D01*
X123709523Y-72152380D01*
X124328571Y-72580952D02*
X124233333Y-72533333D01*
X124185714Y-72485714D01*
X124138095Y-72390476D01*
X124138095Y-72342857D01*
X124185714Y-72247619D01*
X124233333Y-72200000D01*
X124328571Y-72152380D01*
X124519047Y-72152380D01*
X124614285Y-72200000D01*
X124661904Y-72247619D01*
X124709523Y-72342857D01*
X124709523Y-72390476D01*
X124661904Y-72485714D01*
X124614285Y-72533333D01*
X124519047Y-72580952D01*
X124328571Y-72580952D01*
X124233333Y-72628571D01*
X124185714Y-72676190D01*
X124138095Y-72771428D01*
X124138095Y-72961904D01*
X124185714Y-73057142D01*
X124233333Y-73104761D01*
X124328571Y-73152380D01*
X124519047Y-73152380D01*
X124614285Y-73104761D01*
X124661904Y-73057142D01*
X124709523Y-72961904D01*
X124709523Y-72771428D01*
X124661904Y-72676190D01*
X124614285Y-72628571D01*
X124519047Y-72580952D01*
X128652380Y-60561904D02*
X129461904Y-60561904D01*
X129557142Y-60514285D01*
X129604761Y-60466666D01*
X129652380Y-60371428D01*
X129652380Y-60180952D01*
X129604761Y-60085714D01*
X129557142Y-60038095D01*
X129461904Y-59990476D01*
X128652380Y-59990476D01*
X128652380Y-59609523D02*
X128652380Y-58942857D01*
X129652380Y-59371428D01*
X118857142Y-94042857D02*
X118904761Y-94090476D01*
X118952380Y-94233333D01*
X118952380Y-94328571D01*
X118904761Y-94471428D01*
X118809523Y-94566666D01*
X118714285Y-94614285D01*
X118523809Y-94661904D01*
X118380952Y-94661904D01*
X118190476Y-94614285D01*
X118095238Y-94566666D01*
X118000000Y-94471428D01*
X117952380Y-94328571D01*
X117952380Y-94233333D01*
X118000000Y-94090476D01*
X118047619Y-94042857D01*
X118952380Y-93090476D02*
X118952380Y-93661904D01*
X118952380Y-93376190D02*
X117952380Y-93376190D01*
X118095238Y-93471428D01*
X118190476Y-93566666D01*
X118238095Y-93661904D01*
X117952380Y-92471428D02*
X117952380Y-92376190D01*
X118000000Y-92280952D01*
X118047619Y-92233333D01*
X118142857Y-92185714D01*
X118333333Y-92138095D01*
X118571428Y-92138095D01*
X118761904Y-92185714D01*
X118857142Y-92233333D01*
X118904761Y-92280952D01*
X118952380Y-92376190D01*
X118952380Y-92471428D01*
X118904761Y-92566666D01*
X118857142Y-92614285D01*
X118761904Y-92661904D01*
X118571428Y-92709523D01*
X118333333Y-92709523D01*
X118142857Y-92661904D01*
X118047619Y-92614285D01*
X118000000Y-92566666D01*
X117952380Y-92471428D01*
X180957142Y-75366666D02*
X181004761Y-75414285D01*
X181052380Y-75557142D01*
X181052380Y-75652380D01*
X181004761Y-75795238D01*
X180909523Y-75890476D01*
X180814285Y-75938095D01*
X180623809Y-75985714D01*
X180480952Y-75985714D01*
X180290476Y-75938095D01*
X180195238Y-75890476D01*
X180100000Y-75795238D01*
X180052380Y-75652380D01*
X180052380Y-75557142D01*
X180100000Y-75414285D01*
X180147619Y-75366666D01*
X181052380Y-74890476D02*
X181052380Y-74700000D01*
X181004761Y-74604761D01*
X180957142Y-74557142D01*
X180814285Y-74461904D01*
X180623809Y-74414285D01*
X180242857Y-74414285D01*
X180147619Y-74461904D01*
X180100000Y-74509523D01*
X180052380Y-74604761D01*
X180052380Y-74795238D01*
X180100000Y-74890476D01*
X180147619Y-74938095D01*
X180242857Y-74985714D01*
X180480952Y-74985714D01*
X180576190Y-74938095D01*
X180623809Y-74890476D01*
X180671428Y-74795238D01*
X180671428Y-74604761D01*
X180623809Y-74509523D01*
X180576190Y-74461904D01*
X180480952Y-74414285D01*
X165457142Y-75366666D02*
X165504761Y-75414285D01*
X165552380Y-75557142D01*
X165552380Y-75652380D01*
X165504761Y-75795238D01*
X165409523Y-75890476D01*
X165314285Y-75938095D01*
X165123809Y-75985714D01*
X164980952Y-75985714D01*
X164790476Y-75938095D01*
X164695238Y-75890476D01*
X164600000Y-75795238D01*
X164552380Y-75652380D01*
X164552380Y-75557142D01*
X164600000Y-75414285D01*
X164647619Y-75366666D01*
X164980952Y-74795238D02*
X164933333Y-74890476D01*
X164885714Y-74938095D01*
X164790476Y-74985714D01*
X164742857Y-74985714D01*
X164647619Y-74938095D01*
X164600000Y-74890476D01*
X164552380Y-74795238D01*
X164552380Y-74604761D01*
X164600000Y-74509523D01*
X164647619Y-74461904D01*
X164742857Y-74414285D01*
X164790476Y-74414285D01*
X164885714Y-74461904D01*
X164933333Y-74509523D01*
X164980952Y-74604761D01*
X164980952Y-74795238D01*
X165028571Y-74890476D01*
X165076190Y-74938095D01*
X165171428Y-74985714D01*
X165361904Y-74985714D01*
X165457142Y-74938095D01*
X165504761Y-74890476D01*
X165552380Y-74795238D01*
X165552380Y-74604761D01*
X165504761Y-74509523D01*
X165457142Y-74461904D01*
X165361904Y-74414285D01*
X165171428Y-74414285D01*
X165076190Y-74461904D01*
X165028571Y-74509523D01*
X164980952Y-74604761D01*
X149957142Y-75266666D02*
X150004761Y-75314285D01*
X150052380Y-75457142D01*
X150052380Y-75552380D01*
X150004761Y-75695238D01*
X149909523Y-75790476D01*
X149814285Y-75838095D01*
X149623809Y-75885714D01*
X149480952Y-75885714D01*
X149290476Y-75838095D01*
X149195238Y-75790476D01*
X149100000Y-75695238D01*
X149052380Y-75552380D01*
X149052380Y-75457142D01*
X149100000Y-75314285D01*
X149147619Y-75266666D01*
X149052380Y-74933333D02*
X149052380Y-74266666D01*
X150052380Y-74695238D01*
X134457142Y-75266666D02*
X134504761Y-75314285D01*
X134552380Y-75457142D01*
X134552380Y-75552380D01*
X134504761Y-75695238D01*
X134409523Y-75790476D01*
X134314285Y-75838095D01*
X134123809Y-75885714D01*
X133980952Y-75885714D01*
X133790476Y-75838095D01*
X133695238Y-75790476D01*
X133600000Y-75695238D01*
X133552380Y-75552380D01*
X133552380Y-75457142D01*
X133600000Y-75314285D01*
X133647619Y-75266666D01*
X133552380Y-74409523D02*
X133552380Y-74600000D01*
X133600000Y-74695238D01*
X133647619Y-74742857D01*
X133790476Y-74838095D01*
X133980952Y-74885714D01*
X134361904Y-74885714D01*
X134457142Y-74838095D01*
X134504761Y-74790476D01*
X134552380Y-74695238D01*
X134552380Y-74504761D01*
X134504761Y-74409523D01*
X134457142Y-74361904D01*
X134361904Y-74314285D01*
X134123809Y-74314285D01*
X134028571Y-74361904D01*
X133980952Y-74409523D01*
X133933333Y-74504761D01*
X133933333Y-74695238D01*
X133980952Y-74790476D01*
X134028571Y-74838095D01*
X134123809Y-74885714D01*
X118757142Y-75366666D02*
X118804761Y-75414285D01*
X118852380Y-75557142D01*
X118852380Y-75652380D01*
X118804761Y-75795238D01*
X118709523Y-75890476D01*
X118614285Y-75938095D01*
X118423809Y-75985714D01*
X118280952Y-75985714D01*
X118090476Y-75938095D01*
X117995238Y-75890476D01*
X117900000Y-75795238D01*
X117852380Y-75652380D01*
X117852380Y-75557142D01*
X117900000Y-75414285D01*
X117947619Y-75366666D01*
X117852380Y-74461904D02*
X117852380Y-74938095D01*
X118328571Y-74985714D01*
X118280952Y-74938095D01*
X118233333Y-74842857D01*
X118233333Y-74604761D01*
X118280952Y-74509523D01*
X118328571Y-74461904D01*
X118423809Y-74414285D01*
X118661904Y-74414285D01*
X118757142Y-74461904D01*
X118804761Y-74509523D01*
X118852380Y-74604761D01*
X118852380Y-74842857D01*
X118804761Y-74938095D01*
X118757142Y-74985714D01*
X172757142Y-57566666D02*
X172804761Y-57614285D01*
X172852380Y-57757142D01*
X172852380Y-57852380D01*
X172804761Y-57995238D01*
X172709523Y-58090476D01*
X172614285Y-58138095D01*
X172423809Y-58185714D01*
X172280952Y-58185714D01*
X172090476Y-58138095D01*
X171995238Y-58090476D01*
X171900000Y-57995238D01*
X171852380Y-57852380D01*
X171852380Y-57757142D01*
X171900000Y-57614285D01*
X171947619Y-57566666D01*
X171852380Y-57233333D02*
X171852380Y-56614285D01*
X172233333Y-56947619D01*
X172233333Y-56804761D01*
X172280952Y-56709523D01*
X172328571Y-56661904D01*
X172423809Y-56614285D01*
X172661904Y-56614285D01*
X172757142Y-56661904D01*
X172804761Y-56709523D01*
X172852380Y-56804761D01*
X172852380Y-57090476D01*
X172804761Y-57185714D01*
X172757142Y-57233333D01*
X120257142Y-57766666D02*
X120304761Y-57814285D01*
X120352380Y-57957142D01*
X120352380Y-58052380D01*
X120304761Y-58195238D01*
X120209523Y-58290476D01*
X120114285Y-58338095D01*
X119923809Y-58385714D01*
X119780952Y-58385714D01*
X119590476Y-58338095D01*
X119495238Y-58290476D01*
X119400000Y-58195238D01*
X119352380Y-58052380D01*
X119352380Y-57957142D01*
X119400000Y-57814285D01*
X119447619Y-57766666D01*
X120352380Y-56814285D02*
X120352380Y-57385714D01*
X120352380Y-57100000D02*
X119352380Y-57100000D01*
X119495238Y-57195238D01*
X119590476Y-57290476D01*
X119638095Y-57385714D01*
X134157142Y-58166666D02*
X134204761Y-58214285D01*
X134252380Y-58357142D01*
X134252380Y-58452380D01*
X134204761Y-58595238D01*
X134109523Y-58690476D01*
X134014285Y-58738095D01*
X133823809Y-58785714D01*
X133680952Y-58785714D01*
X133490476Y-58738095D01*
X133395238Y-58690476D01*
X133300000Y-58595238D01*
X133252380Y-58452380D01*
X133252380Y-58357142D01*
X133300000Y-58214285D01*
X133347619Y-58166666D01*
X133347619Y-57785714D02*
X133300000Y-57738095D01*
X133252380Y-57642857D01*
X133252380Y-57404761D01*
X133300000Y-57309523D01*
X133347619Y-57261904D01*
X133442857Y-57214285D01*
X133538095Y-57214285D01*
X133680952Y-57261904D01*
X134252380Y-57833333D01*
X134252380Y-57214285D01*
X180952380Y-60561904D02*
X181761904Y-60561904D01*
X181857142Y-60514285D01*
X181904761Y-60466666D01*
X181952380Y-60371428D01*
X181952380Y-60180952D01*
X181904761Y-60085714D01*
X181857142Y-60038095D01*
X181761904Y-59990476D01*
X180952380Y-59990476D01*
X181952380Y-58990476D02*
X181952380Y-59561904D01*
X181952380Y-59276190D02*
X180952380Y-59276190D01*
X181095238Y-59371428D01*
X181190476Y-59466666D01*
X181238095Y-59561904D01*
X186038095Y-108352380D02*
X186038095Y-109161904D01*
X186085714Y-109257142D01*
X186133333Y-109304761D01*
X186228571Y-109352380D01*
X186419047Y-109352380D01*
X186514285Y-109304761D01*
X186561904Y-109257142D01*
X186609523Y-109161904D01*
X186609523Y-108352380D01*
X187561904Y-108352380D02*
X187085714Y-108352380D01*
X187038095Y-108828571D01*
X187085714Y-108780952D01*
X187180952Y-108733333D01*
X187419047Y-108733333D01*
X187514285Y-108780952D01*
X187561904Y-108828571D01*
X187609523Y-108923809D01*
X187609523Y-109161904D01*
X187561904Y-109257142D01*
X187514285Y-109304761D01*
X187419047Y-109352380D01*
X187180952Y-109352380D01*
X187085714Y-109304761D01*
X187038095Y-109257142D01*
M02*
