M48
; DRILL file {KiCad (5.1.5-0-10_14)} date 2020 March 03, Tuesday 11:53:48
; FORMAT={-:-/ absolute / metric / decimal}
; #@! TF.CreationDate,2020-03-03T11:53:48+01:00
; #@! TF.GenerationSoftware,Kicad,Pcbnew,(5.1.5-0-10_14)
; #@! TF.FileFunction,Plated,1,2,PTH
FMAT,2
METRIC
T1C0.400
T2C1.000
%
G90
G05
T1
X103.75Y-126.0
X106.75Y-76.0
X110.0Y-118.0
X112.55Y-107.75
X113.243Y-95.257
X113.5Y-78.0
X113.546Y-92.45
X114.5Y-92.75
X114.75Y-82.5
X114.75Y-83.75
X115.0Y-111.25
X115.0Y-112.75
X116.0Y-106.5
X116.5Y-64.5
X117.0Y-114.0
X117.317Y-96.86
X117.5Y-94.0
X118.0Y-105.25
X118.25Y-86.3
X118.25Y-88.0
X118.298Y-84.9
X118.75Y-116.75
X119.0Y-90.2
X120.0Y-104.0
X120.5Y-96.86
X122.0Y-112.0
X123.5Y-95.2
X123.5Y-96.86
X124.0Y-111.0
X124.0Y-138.0
X124.25Y-80.25
X124.5Y-81.75
X124.5Y-92.75
X124.5Y-95.6
X125.0Y-64.5
X125.0Y-79.5
X125.5Y-91.758
X126.0Y-138.0
X126.25Y-96.86
X126.9Y-80.25
X127.0Y-88.0
X127.25Y-97.5
X127.5Y-78.75
X128.0Y-110.25
X128.25Y-86.3
X128.25Y-95.6
X128.85Y-81.75
X129.0Y-90.8
X129.5Y-77.25
X130.0Y-108.25
X130.25Y-85.25
X131.5Y-81.0
X132.0Y-88.0
X132.0Y-95.2
X132.0Y-102.25
X133.0Y-69.5
X133.0Y-114.75
X134.0Y-101.25
X135.0Y-98.75
X135.65Y-74.75
X135.65Y-108.25
X136.05Y-110.16
X136.5Y-71.0
X137.0Y-73.5
X137.25Y-111.0
X137.75Y-68.5
X138.0Y-115.75
X138.25Y-72.25
X138.25Y-103.25
X138.5Y-108.5
X139.0Y-100.25
X139.75Y-66.75
X139.75Y-112.0
X140.5Y-96.25
X140.75Y-88.0
X141.0Y-83.3
X142.0Y-114.7
X142.0Y-138.0
X142.5Y-91.25
X142.5Y-112.75
X143.0Y-119.5
X144.0Y-115.75
X144.0Y-138.0
X144.25Y-66.0
X144.25Y-87.75
X144.25Y-93.75
X144.75Y-80.75
X145.0Y-114.75
X145.5Y-68.5
X146.0Y-138.0
X146.25Y-108.5
X146.75Y-69.5
X147.5Y-107.75
X148.0Y-138.0
X148.25Y-126.0
X148.75Y-112.75
X149.25Y-69.75
X150.0Y-119.5
X150.5Y-66.75
X150.5Y-93.25
X150.75Y-89.25
X150.954Y-107.346
X151.0Y-83.75
X151.0Y-86.25
X151.75Y-82.5
X151.75Y-85.0
X151.75Y-87.0
X151.75Y-90.0
X152.75Y-77.0
X153.25Y-91.75
X155.75Y-109.25
X156.5Y-76.0
X156.5Y-87.75
X157.5Y-77.0
X157.5Y-106.0
X158.5Y-83.5
X158.5Y-112.0
X160.5Y-114.0
X161.25Y-97.5
X162.0Y-83.55
X162.0Y-88.5
X162.0Y-94.5
X162.0Y-108.5
X163.25Y-91.05
X163.25Y-107.75
X163.25Y-112.75
X164.5Y-107.0
X165.0Y-94.0
X165.25Y-73.5
X165.25Y-88.0
X165.5Y-81.5
X165.75Y-112.0
X166.5Y-75.0
X167.0Y-103.25
X167.0Y-108.5
X167.75Y-71.0
X168.25Y-112.25
X170.25Y-75.25
X171.5Y-76.0
X171.5Y-93.25
X171.75Y-84.5
X171.75Y-89.45
X171.869Y-86.202
X172.75Y-80.0
X172.75Y-82.5
X172.75Y-85.0
X172.75Y-87.5
X172.75Y-90.0
X174.0Y-78.0
X174.0Y-91.75
X178.0Y-113.5
X178.25Y-79.75
X178.25Y-115.75
X178.3Y-104.0
X179.0Y-76.0
X179.0Y-114.75
X179.75Y-102.25
X180.0Y-75.75
X180.5Y-101.25
X180.5Y-105.25
X180.5Y-107.0
X180.5Y-117.75
X180.75Y-76.75
X181.25Y-103.75
X181.45Y-78.25
X182.0Y-112.5
X182.75Y-83.55
X182.75Y-89.0
X184.0Y-110.25
X184.25Y-91.0
X185.25Y-78.25
X185.5Y-115.75
X185.5Y-117.75
X186.0Y-88.2
X186.25Y-93.95
X186.25Y-102.75
X186.5Y-81.5
X187.5Y-76.75
X187.5Y-95.0
X187.5Y-112.5
X188.75Y-75.75
X188.75Y-103.75
X190.25Y-113.75
X191.24Y-102.75
X191.25Y-75.75
X192.5Y-93.25
X192.5Y-113.75
X192.75Y-84.25
X192.75Y-86.75
X192.75Y-89.25
X193.25Y-94.0
X193.75Y-82.5
X193.75Y-85.0
X193.75Y-87.5
X193.75Y-90.0
X194.0Y-108.75
X194.75Y-115.75
X194.75Y-117.75
X195.0Y-91.75
X195.25Y-102.75
X197.0Y-100.25
X198.0Y-96.25
X199.0Y-98.75
T2
X108.46Y-62.0
X108.46Y-64.54
X108.46Y-67.08
X108.46Y-69.62
X108.46Y-72.16
X108.46Y-74.7
X108.46Y-77.24
X108.46Y-79.78
X108.46Y-82.32
X108.46Y-84.86
X108.46Y-87.4
X108.46Y-89.94
X108.46Y-92.48
X108.46Y-95.02
X108.46Y-97.56
X108.46Y-100.1
X108.46Y-102.64
X108.46Y-105.18
X108.46Y-107.72
X108.46Y-110.26
X111.0Y-62.0
X111.0Y-64.54
X111.0Y-67.08
X111.0Y-69.62
X111.0Y-72.16
X111.0Y-74.7
X111.0Y-77.24
X111.0Y-79.78
X111.0Y-82.32
X111.0Y-84.86
X111.0Y-87.4
X111.0Y-89.94
X111.0Y-92.48
X111.0Y-95.02
X111.0Y-97.56
X111.0Y-100.1
X111.0Y-102.64
X111.0Y-105.18
X111.0Y-107.72
X111.0Y-110.26
T0
M30
