M48
; DRILL file {KiCad (5.1.6-0-10_14)} date Saturday, December 19, 2020 at 03:44:35 PM
; FORMAT={-:-/ absolute / inch / decimal}
; #@! TF.CreationDate,2020-12-19T15:44:35+01:00
; #@! TF.GenerationSoftware,Kicad,Pcbnew,(5.1.6-0-10_14)
; #@! TF.FileFunction,Plated,1,2,PTH
FMAT,2
INCH
T1C0.0118
T2C0.0157
T3C0.0394
%
G90
G05
T1
X4.0984Y-3.6929
X4.2953Y-5.4409
X4.3228Y-4.8268
X4.4634Y-4.2075
X4.4858Y-3.5433
X4.4882Y-4.2795
X4.5067Y-3.4843
X4.5118Y-4.2598
X4.5276Y-4.2323
X4.5276Y-4.3031
X4.5276Y-3.4409
X4.5472Y-4.5039
X4.5484Y-3.3386
X4.5484Y-3.3858
X4.5512Y-2.3189
X4.5512Y-3.0157
X4.5693Y-3.2874
X4.5733Y-4.4861
X4.5906Y-4.4646
X4.6Y-3.2402
X4.611Y-3.378
X4.611Y-3.689
X4.6181Y-3.3504
X4.6209Y-3.1378
X4.622Y-4.9882
X4.6248Y-4.185
X4.6417Y-2.2953
X4.6417Y-3.1063
X4.6417Y-3.7402
X4.6457Y-4.1417
X4.6457Y-4.9291
X4.7244Y-4.9882
X4.7953Y-4.5118
X4.8031Y-3.1024
X4.8031Y-3.7913
X4.8031Y-4.8858
X4.8189Y-4.1614
X4.8189Y-4.4646
X4.8268Y-3.9618
X4.8307Y-3.0157
X4.8307Y-3.2441
X4.8307Y-3.5157
X4.8398Y-4.4854
X4.8425Y-4.2598
X4.8543Y-2.8622
X4.8583Y-3.2689
X4.8583Y-3.7087
X4.8583Y-3.7402
X4.8661Y-2.6142
X4.8661Y-4.2807
X4.8701Y-4.5327
X4.8819Y-2.8189
X4.8819Y-3.076
X4.8819Y-3.7598
X4.8819Y-4.7244
X4.8819Y-5.437
X4.8898Y-2.5972
X4.8937Y-2.2953
X4.8937Y-4.0756
X4.8937Y-4.6339
X4.9094Y-2.8622
X4.9094Y-3.248
X4.9094Y-3.5957
X4.9122Y-2.7638
X4.9134Y-2.3398
X4.9173Y-4.1173
X4.9173Y-4.4409
X4.9331Y-2.7201
X4.9331Y-3.1114
X4.9331Y-3.4843
X4.9331Y-3.739
X4.937Y-2.4173
X4.9449Y-2.3606
X4.9449Y-4.1406
X4.9488Y-4.424
X4.9567Y-3.7126
X4.9567Y-4.0236
X4.9606Y-4.7795
X4.9606Y-5.437
X4.9646Y-2.185
X4.9724Y-2.1122
X4.9921Y-2.315
X4.9921Y-2.6618
X5.0224Y-3.4055
X5.0394Y-4.7559
X5.0642Y-3.7559
X5.0642Y-4.0236
X5.0787Y-2.7201
X5.0933Y-2.7638
X5.1102Y-4.9646
X5.1106Y-3.076
X5.1118Y-3.463
X5.1118Y-4.1406
X5.1142Y-2.1142
X5.1142Y-2.3465
X5.1142Y-3.4291
X5.1327Y-3.735
X5.1327Y-4.0118
X5.1382Y-3.076
X5.1417Y-4.8543
X5.1535Y-2.6181
X5.1535Y-3.5945
X5.1535Y-4.6929
X5.1772Y-2.5
X5.1772Y-3.7913
X5.1796Y-3.2548
X5.1929Y-3.8445
X5.1969Y-2.189
X5.1969Y-4.7728
X5.2012Y-3.2165
X5.2091Y-2.8289
X5.2091Y-2.8591
X5.2154Y-3.5591
X5.2193Y-3.9427
X5.2205Y-4.8031
X5.2299Y-2.5921
X5.2413Y-4.0512
X5.2413Y-4.672
X5.2505Y-3.1188
X5.2579Y-2.185
X5.2677Y-3.735
X5.2677Y-4.1063
X5.2717Y-2.5433
X5.2776Y-3.2335
X5.2795Y-4.6512
X5.2854Y-4.185
X5.2913Y-3.7835
X5.3161Y-4.1535
X5.337Y-4.0945
X5.3543Y-4.8583
X5.3858Y-2.4941
X5.4055Y-4.5327
X5.4213Y-3.3071
X5.4331Y-4.2323
X5.4331Y-4.4618
X5.4331Y-4.7953
X5.4449Y-2.185
X5.4449Y-2.5472
X5.4449Y-3.2126
X5.4449Y-3.7559
X5.4449Y-4.1118
X5.4488Y-3.0315
X5.4606Y-4.2598
X5.4685Y-3.735
X5.4685Y-4.2047
X5.4724Y-2.7201
X5.4724Y-3.2283
X5.4724Y-2.185
X5.4843Y-2.3465
X5.4843Y-4.2756
X5.4843Y-4.672
X5.4961Y-2.5276
X5.4961Y-2.8071
X5.4961Y-3.076
X5.4961Y-3.5591
X5.5118Y-4.6496
X5.5118Y-4.7756
X5.5197Y-2.2992
X5.5197Y-3.0106
X5.5197Y-3.9331
X5.5236Y-2.8425
X5.5236Y-3.5366
X5.5472Y-2.1535
X5.5472Y-3.3268
X5.5472Y-3.7795
X5.5472Y-4.3031
X5.5512Y-2.6201
X5.5591Y-4.4618
X5.5681Y-3.735
X5.5906Y-4.8268
X5.5906Y-5.437
X5.6299Y-3.9843
X5.6654Y-2.185
X5.6693Y-2.7087
X5.6693Y-5.437
X5.6732Y-4.9094
X5.6744Y-3.9961
X5.6744Y-2.8011
X5.6772Y-3.3268
X5.685Y-3.2717
X5.6862Y-2.2992
X5.7154Y-3.9331
X5.7154Y-4.1772
X5.7154Y-4.6299
X5.7165Y-2.1535
X5.7362Y-2.7441
X5.7362Y-3.2874
X5.7402Y-4.8268
X5.7441Y-2.2362
X5.7441Y-2.5315
X5.7638Y-2.685
X5.7638Y-3.248
X5.7638Y-4.0315
X5.7846Y-2.8858
X5.7846Y-4.1575
X5.7846Y-4.752
X5.8055Y-2.9843
X5.8055Y-4.0146
X5.8055Y-4.7319
X5.8268Y-2.8228
X5.8268Y-3.828
X5.8268Y-3.9016
X5.8268Y-4.7756
X5.8268Y-5.437
X5.8476Y-5.1102
X5.8543Y-2.3425
X5.8685Y-2.3687
X5.8685Y-4.1783
X6.0116Y-4.0591
X6.0197Y-4.6299
X6.0315Y-3.248
X6.0551Y-3.828
X6.0591Y-3.076
X6.063Y-3.311
X6.063Y-4.476
X6.0827Y-2.9803
X6.0827Y-4.0146
X6.0866Y-3.0106
X6.0878Y-4.4879
X6.1024Y-5.1142
X6.1102Y-2.8504
X6.1102Y-3.2165
X6.1102Y-4.0787
X6.122Y-4.8622
X6.1339Y-3.4291
X6.1339Y-3.7559
X6.1378Y-3.2638
X6.1496Y-4.1783
X6.1535Y-4.7992
X6.1614Y-3.0106
X6.1654Y-3.7913
X6.1772Y-4.1575
X6.1772Y-4.7717
X6.1811Y-4.9854
X6.185Y-3.5575
X6.189Y-2.6417
X6.198Y-4.1811
X6.248Y-2.9528
X6.252Y-4.9646
X6.2598Y-5.4331
X6.2689Y-3.4803
X6.2992Y-2.9803
X6.2996Y-3.5366
X6.2996Y-4.1811
X6.2996Y-4.476
X6.3031Y-4.1535
X6.3228Y-3.315
X6.3228Y-4.4909
X6.324Y-3.7874
X6.324Y-4.0748
X6.3571Y-2.7126
X6.374Y-4.8858
X6.378Y-2.6417
X6.378Y-3.4331
X6.4016Y-4.9055
X6.4055Y-2.7874
X6.4055Y-4.0079
X6.4264Y-3.2441
X6.4264Y-4.8425
X6.4449Y-3.0315
X6.4685Y-4.5327
X6.4724Y-2.3425
X6.4724Y-2.6024
X6.4724Y-2.8465
X6.4894Y-3.5827
X6.4894Y-4.0563
X6.6417Y-3.7559
X6.6496Y-3.2402
X6.6535Y-4.4618
X6.6693Y-3.7335
X6.6732Y-3.4094
X6.679Y-4.5154
X6.7008Y-3.4291
X6.7008Y-4.0039
X6.7008Y-4.4921
X6.7102Y-3.8083
X6.7244Y-3.0106
X6.7244Y-3.5827
X6.7283Y-4.4646
X6.7311Y-3.7126
X6.752Y-3.7559
X6.752Y-4.1811
X6.752Y-4.6929
X6.7756Y-3.0343
X6.7756Y-3.7335
X6.7756Y-3.7874
X6.7795Y-4.937
X6.7835Y-4.1535
X6.8031Y-3.3295
X6.8071Y-4.1063
X6.8858Y-2.4961
X6.9528Y-2.4134
X6.9528Y-3.5157
X6.9803Y-2.6614
X6.9803Y-4.0146
X7.0015Y-2.3435
X7.0022Y-3.076
X7.0039Y-2.5197
X7.0039Y-3.8031
X7.0039Y-4.9843
X7.0067Y-4.1811
X7.0276Y-2.315
X7.0276Y-4.7165
X7.0301Y-2.5406
X7.0315Y-3.0551
X7.0435Y-3.1007
X7.0512Y-4.6957
X7.0591Y-2.3358
X7.0693Y-3.3504
X7.0693Y-4.2598
X7.0827Y-3.1929
X7.0906Y-4.2835
X7.2598Y-3.2874
X7.2598Y-3.7126
X7.2638Y-4.5394
X7.2874Y-3.7992
X7.2913Y-3.0197
X7.2953Y-4.2835
X7.2953Y-4.7165
X7.311Y-3.063
X7.315Y-3.4528
X7.315Y-4.0354
X7.3189Y-3.2638
X7.3189Y-4.5118
X7.3228Y-4.4201
X7.3386Y-4.0157
X7.3413Y-3.2402
X7.3425Y-4.2835
X7.3465Y-4.6417
X7.3622Y-3.378
X7.3622Y-3.9764
X7.3661Y-3.0
X7.3661Y-3.7559
X7.3701Y-4.2559
X7.374Y-4.6969
X7.3898Y-3.8189
X7.4016Y-4.4134
X7.4016Y-4.5394
X7.4106Y-3.7323
X7.4173Y-3.2165
X7.4252Y-4.3071
X7.4606Y-3.5591
X7.5157Y-4.3043
X7.5185Y-2.3386
X7.5394Y-2.315
X7.5394Y-4.2835
X7.5602Y-2.5197
X7.563Y-4.5118
X7.5811Y-2.5418
X7.5866Y-4.5394
T2
X4.378Y-4.7165
X4.6693Y-2.9252
X4.6693Y-3.6417
X4.6811Y-4.3543
X4.7244Y-3.1614
X4.7244Y-3.874
X4.7283Y-4.5827
X4.7323Y-2.2323
X4.7835Y-2.4685
X4.9921Y-3.8701
X4.9961Y-3.1614
X5.0039Y-4.5827
X5.0551Y-2.4685
X5.2835Y-2.2362
X5.2835Y-3.6417
X5.2913Y-2.9252
X5.2913Y-4.3583
X5.3386Y-2.4685
X5.3386Y-3.8701
X5.3425Y-4.5827
X5.3465Y-3.1614
X5.6024Y-3.8701
X5.6063Y-2.4685
X5.6102Y-3.1614
X5.622Y-4.5827
X5.8976Y-3.6417
X5.9016Y-2.9252
X5.9055Y-4.3543
X5.9528Y-3.1614
X5.9567Y-3.8701
X5.9567Y-4.5827
X6.2165Y-3.8701
X6.2205Y-3.1654
X6.2362Y-4.5827
X6.5157Y-3.6378
X6.5197Y-2.9291
X6.5197Y-4.3543
X6.5669Y-3.1654
X6.5669Y-4.5827
X6.5709Y-3.8701
X6.7953Y-2.2323
X6.8346Y-3.8701
X6.8386Y-3.1654
X6.8386Y-4.5827
X6.8504Y-2.4685
X7.1181Y-2.4685
X7.1299Y-2.9213
X7.1299Y-3.6378
X7.1378Y-4.3543
X7.1811Y-3.1654
X7.185Y-3.8701
X7.189Y-4.5827
X7.4488Y-3.1654
X7.4488Y-3.874
X7.4567Y-4.5827
X7.7953Y-2.9252
X7.7953Y-3.6339
X7.7953Y-4.3425
T3
X4.2701Y-2.4409
X4.2701Y-2.5409
X4.2701Y-2.6409
X4.2701Y-2.7409
X4.2701Y-2.8409
X4.2701Y-2.9409
X4.2701Y-3.0409
X4.2701Y-3.1409
X4.2701Y-3.2409
X4.2701Y-3.3409
X4.2701Y-3.4409
X4.2701Y-3.5409
X4.2701Y-3.6409
X4.2701Y-3.7409
X4.2701Y-3.8409
X4.2701Y-3.9409
X4.2701Y-4.0409
X4.2701Y-4.1409
X4.2701Y-4.2409
X4.2701Y-4.3409
X4.3701Y-2.4409
X4.3701Y-2.5409
X4.3701Y-2.6409
X4.3701Y-2.7409
X4.3701Y-2.8409
X4.3701Y-2.9409
X4.3701Y-3.0409
X4.3701Y-3.1409
X4.3701Y-3.2409
X4.3701Y-3.3409
X4.3701Y-3.4409
X4.3701Y-3.5409
X4.3701Y-3.6409
X4.3701Y-3.7409
X4.3701Y-3.8409
X4.3701Y-3.9409
X4.3701Y-4.0409
X4.3701Y-4.1409
X4.3701Y-4.2409
X4.3701Y-4.3409
T0
M30
