G04 #@! TF.GenerationSoftware,KiCad,Pcbnew,(5.1.6-0-10_14)*
G04 #@! TF.CreationDate,2020-12-19T15:44:30+01:00*
G04 #@! TF.ProjectId,control,636f6e74-726f-46c2-9e6b-696361645f70,2*
G04 #@! TF.SameCoordinates,Original*
G04 #@! TF.FileFunction,Legend,Bot*
G04 #@! TF.FilePolarity,Positive*
%FSLAX46Y46*%
G04 Gerber Fmt 4.6, Leading zero omitted, Abs format (unit mm)*
G04 Created by KiCad (PCBNEW (5.1.6-0-10_14)) date 2020-12-19 15:44:30*
%MOMM*%
%LPD*%
G01*
G04 APERTURE LIST*
%ADD10C,0.150000*%
%ADD11C,0.120000*%
G04 APERTURE END LIST*
D10*
X114627380Y-75928571D02*
X114627380Y-75452380D01*
X113627380Y-75452380D01*
X114627380Y-76261904D02*
X113960714Y-76261904D01*
X113627380Y-76261904D02*
X113675000Y-76214285D01*
X113722619Y-76261904D01*
X113675000Y-76309523D01*
X113627380Y-76261904D01*
X113722619Y-76261904D01*
X114579761Y-77166666D02*
X114627380Y-77071428D01*
X114627380Y-76880952D01*
X114579761Y-76785714D01*
X114532142Y-76738095D01*
X114436904Y-76690476D01*
X114151190Y-76690476D01*
X114055952Y-76738095D01*
X114008333Y-76785714D01*
X113960714Y-76880952D01*
X113960714Y-77071428D01*
X114008333Y-77166666D01*
X114579761Y-77976190D02*
X114627380Y-77880952D01*
X114627380Y-77690476D01*
X114579761Y-77595238D01*
X114484523Y-77547619D01*
X114103571Y-77547619D01*
X114008333Y-77595238D01*
X113960714Y-77690476D01*
X113960714Y-77880952D01*
X114008333Y-77976190D01*
X114103571Y-78023809D01*
X114198809Y-78023809D01*
X114294047Y-77547619D01*
X113960714Y-78452380D02*
X114627380Y-78452380D01*
X114055952Y-78452380D02*
X114008333Y-78500000D01*
X113960714Y-78595238D01*
X113960714Y-78738095D01*
X114008333Y-78833333D01*
X114103571Y-78880952D01*
X114627380Y-78880952D01*
X114579761Y-79309523D02*
X114627380Y-79404761D01*
X114627380Y-79595238D01*
X114579761Y-79690476D01*
X114484523Y-79738095D01*
X114436904Y-79738095D01*
X114341666Y-79690476D01*
X114294047Y-79595238D01*
X114294047Y-79452380D01*
X114246428Y-79357142D01*
X114151190Y-79309523D01*
X114103571Y-79309523D01*
X114008333Y-79357142D01*
X113960714Y-79452380D01*
X113960714Y-79595238D01*
X114008333Y-79690476D01*
X114579761Y-80547619D02*
X114627380Y-80452380D01*
X114627380Y-80261904D01*
X114579761Y-80166666D01*
X114484523Y-80119047D01*
X114103571Y-80119047D01*
X114008333Y-80166666D01*
X113960714Y-80261904D01*
X113960714Y-80452380D01*
X114008333Y-80547619D01*
X114103571Y-80595238D01*
X114198809Y-80595238D01*
X114294047Y-80119047D01*
X114627380Y-81452380D02*
X113627380Y-81452380D01*
X114579761Y-81452380D02*
X114627380Y-81357142D01*
X114627380Y-81166666D01*
X114579761Y-81071428D01*
X114532142Y-81023809D01*
X114436904Y-80976190D01*
X114151190Y-80976190D01*
X114055952Y-81023809D01*
X114008333Y-81071428D01*
X113960714Y-81166666D01*
X113960714Y-81357142D01*
X114008333Y-81452380D01*
X113960714Y-83119047D02*
X114627380Y-83119047D01*
X113960714Y-82690476D02*
X114484523Y-82690476D01*
X114579761Y-82738095D01*
X114627380Y-82833333D01*
X114627380Y-82976190D01*
X114579761Y-83071428D01*
X114532142Y-83119047D01*
X113960714Y-83595238D02*
X114627380Y-83595238D01*
X114055952Y-83595238D02*
X114008333Y-83642857D01*
X113960714Y-83738095D01*
X113960714Y-83880952D01*
X114008333Y-83976190D01*
X114103571Y-84023809D01*
X114627380Y-84023809D01*
X114627380Y-84928571D02*
X113627380Y-84928571D01*
X114579761Y-84928571D02*
X114627380Y-84833333D01*
X114627380Y-84642857D01*
X114579761Y-84547619D01*
X114532142Y-84500000D01*
X114436904Y-84452380D01*
X114151190Y-84452380D01*
X114055952Y-84500000D01*
X114008333Y-84547619D01*
X113960714Y-84642857D01*
X113960714Y-84833333D01*
X114008333Y-84928571D01*
X114579761Y-85785714D02*
X114627380Y-85690476D01*
X114627380Y-85500000D01*
X114579761Y-85404761D01*
X114484523Y-85357142D01*
X114103571Y-85357142D01*
X114008333Y-85404761D01*
X113960714Y-85500000D01*
X113960714Y-85690476D01*
X114008333Y-85785714D01*
X114103571Y-85833333D01*
X114198809Y-85833333D01*
X114294047Y-85357142D01*
X114627380Y-86261904D02*
X113960714Y-86261904D01*
X114151190Y-86261904D02*
X114055952Y-86309523D01*
X114008333Y-86357142D01*
X113960714Y-86452380D01*
X113960714Y-86547619D01*
X113960714Y-87500000D02*
X113960714Y-87880952D01*
X113627380Y-87642857D02*
X114484523Y-87642857D01*
X114579761Y-87690476D01*
X114627380Y-87785714D01*
X114627380Y-87880952D01*
X114627380Y-88214285D02*
X113627380Y-88214285D01*
X114627380Y-88642857D02*
X114103571Y-88642857D01*
X114008333Y-88595238D01*
X113960714Y-88500000D01*
X113960714Y-88357142D01*
X114008333Y-88261904D01*
X114055952Y-88214285D01*
X114579761Y-89500000D02*
X114627380Y-89404761D01*
X114627380Y-89214285D01*
X114579761Y-89119047D01*
X114484523Y-89071428D01*
X114103571Y-89071428D01*
X114008333Y-89119047D01*
X113960714Y-89214285D01*
X113960714Y-89404761D01*
X114008333Y-89500000D01*
X114103571Y-89547619D01*
X114198809Y-89547619D01*
X114294047Y-89071428D01*
X113627380Y-90595238D02*
X113627380Y-91166666D01*
X114627380Y-90880952D02*
X113627380Y-90880952D01*
X114341666Y-91452380D02*
X114341666Y-91928571D01*
X114627380Y-91357142D02*
X113627380Y-91690476D01*
X114627380Y-92023809D01*
X114627380Y-92357142D02*
X113627380Y-92357142D01*
X113627380Y-92738095D01*
X113675000Y-92833333D01*
X113722619Y-92880952D01*
X113817857Y-92928571D01*
X113960714Y-92928571D01*
X114055952Y-92880952D01*
X114103571Y-92833333D01*
X114151190Y-92738095D01*
X114151190Y-92357142D01*
X114627380Y-93928571D02*
X114151190Y-93595238D01*
X114627380Y-93357142D02*
X113627380Y-93357142D01*
X113627380Y-93738095D01*
X113675000Y-93833333D01*
X113722619Y-93880952D01*
X113817857Y-93928571D01*
X113960714Y-93928571D01*
X114055952Y-93880952D01*
X114103571Y-93833333D01*
X114151190Y-93738095D01*
X114151190Y-93357142D01*
X113627380Y-95309523D02*
X113627380Y-95500000D01*
X113675000Y-95595238D01*
X113770238Y-95690476D01*
X113960714Y-95738095D01*
X114294047Y-95738095D01*
X114484523Y-95690476D01*
X114579761Y-95595238D01*
X114627380Y-95500000D01*
X114627380Y-95309523D01*
X114579761Y-95214285D01*
X114484523Y-95119047D01*
X114294047Y-95071428D01*
X113960714Y-95071428D01*
X113770238Y-95119047D01*
X113675000Y-95214285D01*
X113627380Y-95309523D01*
X114627380Y-96166666D02*
X113627380Y-96166666D01*
X114103571Y-96166666D02*
X114103571Y-96738095D01*
X114627380Y-96738095D02*
X113627380Y-96738095D01*
X114627380Y-97690476D02*
X114627380Y-97214285D01*
X113627380Y-97214285D01*
X116658333Y-79619047D02*
X116610714Y-79571428D01*
X116467857Y-79476190D01*
X116372619Y-79428571D01*
X116229761Y-79380952D01*
X115991666Y-79333333D01*
X115801190Y-79333333D01*
X115563095Y-79380952D01*
X115420238Y-79428571D01*
X115325000Y-79476190D01*
X115182142Y-79571428D01*
X115134523Y-79619047D01*
X115610714Y-79904761D02*
X116277380Y-80095238D01*
X115801190Y-80285714D01*
X116277380Y-80476190D01*
X115610714Y-80666666D01*
X115610714Y-80952380D02*
X116277380Y-81142857D01*
X115801190Y-81333333D01*
X116277380Y-81523809D01*
X115610714Y-81714285D01*
X115610714Y-82000000D02*
X116277380Y-82190476D01*
X115801190Y-82380952D01*
X116277380Y-82571428D01*
X115610714Y-82761904D01*
X116182142Y-83142857D02*
X116229761Y-83190476D01*
X116277380Y-83142857D01*
X116229761Y-83095238D01*
X116182142Y-83142857D01*
X116277380Y-83142857D01*
X115610714Y-83476190D02*
X115610714Y-83857142D01*
X115277380Y-83619047D02*
X116134523Y-83619047D01*
X116229761Y-83666666D01*
X116277380Y-83761904D01*
X116277380Y-83857142D01*
X116277380Y-84619047D02*
X115753571Y-84619047D01*
X115658333Y-84571428D01*
X115610714Y-84476190D01*
X115610714Y-84285714D01*
X115658333Y-84190476D01*
X116229761Y-84619047D02*
X116277380Y-84523809D01*
X116277380Y-84285714D01*
X116229761Y-84190476D01*
X116134523Y-84142857D01*
X116039285Y-84142857D01*
X115944047Y-84190476D01*
X115896428Y-84285714D01*
X115896428Y-84523809D01*
X115848809Y-84619047D01*
X115610714Y-85095238D02*
X116610714Y-85095238D01*
X115658333Y-85095238D02*
X115610714Y-85190476D01*
X115610714Y-85380952D01*
X115658333Y-85476190D01*
X115705952Y-85523809D01*
X115801190Y-85571428D01*
X116086904Y-85571428D01*
X116182142Y-85523809D01*
X116229761Y-85476190D01*
X116277380Y-85380952D01*
X116277380Y-85190476D01*
X116229761Y-85095238D01*
X116277380Y-86000000D02*
X115610714Y-86000000D01*
X115801190Y-86000000D02*
X115705952Y-86047619D01*
X115658333Y-86095238D01*
X115610714Y-86190476D01*
X115610714Y-86285714D01*
X116182142Y-86619047D02*
X116229761Y-86666666D01*
X116277380Y-86619047D01*
X116229761Y-86571428D01*
X116182142Y-86619047D01*
X116277380Y-86619047D01*
X116277380Y-87238095D02*
X116229761Y-87142857D01*
X116182142Y-87095238D01*
X116086904Y-87047619D01*
X115801190Y-87047619D01*
X115705952Y-87095238D01*
X115658333Y-87142857D01*
X115610714Y-87238095D01*
X115610714Y-87380952D01*
X115658333Y-87476190D01*
X115705952Y-87523809D01*
X115801190Y-87571428D01*
X116086904Y-87571428D01*
X116182142Y-87523809D01*
X116229761Y-87476190D01*
X116277380Y-87380952D01*
X116277380Y-87238095D01*
X116277380Y-88000000D02*
X115610714Y-88000000D01*
X115801190Y-88000000D02*
X115705952Y-88047619D01*
X115658333Y-88095238D01*
X115610714Y-88190476D01*
X115610714Y-88285714D01*
X115610714Y-89047619D02*
X116420238Y-89047619D01*
X116515476Y-89000000D01*
X116563095Y-88952380D01*
X116610714Y-88857142D01*
X116610714Y-88714285D01*
X116563095Y-88619047D01*
X116229761Y-89047619D02*
X116277380Y-88952380D01*
X116277380Y-88761904D01*
X116229761Y-88666666D01*
X116182142Y-88619047D01*
X116086904Y-88571428D01*
X115801190Y-88571428D01*
X115705952Y-88619047D01*
X115658333Y-88666666D01*
X115610714Y-88761904D01*
X115610714Y-88952380D01*
X115658333Y-89047619D01*
X115229761Y-90238095D02*
X116515476Y-89380952D01*
X115277380Y-90761904D02*
X115277380Y-90952380D01*
X115325000Y-91047619D01*
X115420238Y-91142857D01*
X115610714Y-91190476D01*
X115944047Y-91190476D01*
X116134523Y-91142857D01*
X116229761Y-91047619D01*
X116277380Y-90952380D01*
X116277380Y-90761904D01*
X116229761Y-90666666D01*
X116134523Y-90571428D01*
X115944047Y-90523809D01*
X115610714Y-90523809D01*
X115420238Y-90571428D01*
X115325000Y-90666666D01*
X115277380Y-90761904D01*
X116277380Y-91619047D02*
X115277380Y-91619047D01*
X115753571Y-91619047D02*
X115753571Y-92190476D01*
X116277380Y-92190476D02*
X115277380Y-92190476D01*
X116277380Y-93142857D02*
X116277380Y-92666666D01*
X115277380Y-92666666D01*
X116658333Y-93380952D02*
X116610714Y-93428571D01*
X116467857Y-93523809D01*
X116372619Y-93571428D01*
X116229761Y-93619047D01*
X115991666Y-93666666D01*
X115801190Y-93666666D01*
X115563095Y-93619047D01*
X115420238Y-93571428D01*
X115325000Y-93523809D01*
X115182142Y-93428571D01*
X115134523Y-93380952D01*
D11*
X107020000Y-60670000D02*
X107020000Y-111590000D01*
X107020000Y-111590000D02*
X104360000Y-111590000D01*
X104360000Y-111590000D02*
X104360000Y-60670000D01*
X104360000Y-60670000D02*
X107020000Y-60670000D01*
X104360000Y-61620000D02*
X98360000Y-61620000D01*
X98360000Y-61620000D02*
X98360000Y-62380000D01*
X98360000Y-62380000D02*
X104360000Y-62380000D01*
X104360000Y-61680000D02*
X98360000Y-61680000D01*
X104360000Y-61800000D02*
X98360000Y-61800000D01*
X104360000Y-61920000D02*
X98360000Y-61920000D01*
X104360000Y-62040000D02*
X98360000Y-62040000D01*
X104360000Y-62160000D02*
X98360000Y-62160000D01*
X104360000Y-62280000D02*
X98360000Y-62280000D01*
X107417071Y-61620000D02*
X107020000Y-61620000D01*
X107417071Y-62380000D02*
X107020000Y-62380000D01*
X109890000Y-61620000D02*
X109502929Y-61620000D01*
X109890000Y-62380000D02*
X109502929Y-62380000D01*
X107020000Y-63270000D02*
X104360000Y-63270000D01*
X104360000Y-64160000D02*
X98360000Y-64160000D01*
X98360000Y-64160000D02*
X98360000Y-64920000D01*
X98360000Y-64920000D02*
X104360000Y-64920000D01*
X107417071Y-64160000D02*
X107020000Y-64160000D01*
X107417071Y-64920000D02*
X107020000Y-64920000D01*
X109957071Y-64160000D02*
X109502929Y-64160000D01*
X109957071Y-64920000D02*
X109502929Y-64920000D01*
X107020000Y-65810000D02*
X104360000Y-65810000D01*
X104360000Y-66700000D02*
X98360000Y-66700000D01*
X98360000Y-66700000D02*
X98360000Y-67460000D01*
X98360000Y-67460000D02*
X104360000Y-67460000D01*
X107417071Y-66700000D02*
X107020000Y-66700000D01*
X107417071Y-67460000D02*
X107020000Y-67460000D01*
X109957071Y-66700000D02*
X109502929Y-66700000D01*
X109957071Y-67460000D02*
X109502929Y-67460000D01*
X107020000Y-68350000D02*
X104360000Y-68350000D01*
X104360000Y-69240000D02*
X98360000Y-69240000D01*
X98360000Y-69240000D02*
X98360000Y-70000000D01*
X98360000Y-70000000D02*
X104360000Y-70000000D01*
X107417071Y-69240000D02*
X107020000Y-69240000D01*
X107417071Y-70000000D02*
X107020000Y-70000000D01*
X109957071Y-69240000D02*
X109502929Y-69240000D01*
X109957071Y-70000000D02*
X109502929Y-70000000D01*
X107020000Y-70890000D02*
X104360000Y-70890000D01*
X104360000Y-71780000D02*
X98360000Y-71780000D01*
X98360000Y-71780000D02*
X98360000Y-72540000D01*
X98360000Y-72540000D02*
X104360000Y-72540000D01*
X107417071Y-71780000D02*
X107020000Y-71780000D01*
X107417071Y-72540000D02*
X107020000Y-72540000D01*
X109957071Y-71780000D02*
X109502929Y-71780000D01*
X109957071Y-72540000D02*
X109502929Y-72540000D01*
X107020000Y-73430000D02*
X104360000Y-73430000D01*
X104360000Y-74320000D02*
X98360000Y-74320000D01*
X98360000Y-74320000D02*
X98360000Y-75080000D01*
X98360000Y-75080000D02*
X104360000Y-75080000D01*
X107417071Y-74320000D02*
X107020000Y-74320000D01*
X107417071Y-75080000D02*
X107020000Y-75080000D01*
X109957071Y-74320000D02*
X109502929Y-74320000D01*
X109957071Y-75080000D02*
X109502929Y-75080000D01*
X107020000Y-75970000D02*
X104360000Y-75970000D01*
X104360000Y-76860000D02*
X98360000Y-76860000D01*
X98360000Y-76860000D02*
X98360000Y-77620000D01*
X98360000Y-77620000D02*
X104360000Y-77620000D01*
X107417071Y-76860000D02*
X107020000Y-76860000D01*
X107417071Y-77620000D02*
X107020000Y-77620000D01*
X109957071Y-76860000D02*
X109502929Y-76860000D01*
X109957071Y-77620000D02*
X109502929Y-77620000D01*
X107020000Y-78510000D02*
X104360000Y-78510000D01*
X104360000Y-79400000D02*
X98360000Y-79400000D01*
X98360000Y-79400000D02*
X98360000Y-80160000D01*
X98360000Y-80160000D02*
X104360000Y-80160000D01*
X107417071Y-79400000D02*
X107020000Y-79400000D01*
X107417071Y-80160000D02*
X107020000Y-80160000D01*
X109957071Y-79400000D02*
X109502929Y-79400000D01*
X109957071Y-80160000D02*
X109502929Y-80160000D01*
X107020000Y-81050000D02*
X104360000Y-81050000D01*
X104360000Y-81940000D02*
X98360000Y-81940000D01*
X98360000Y-81940000D02*
X98360000Y-82700000D01*
X98360000Y-82700000D02*
X104360000Y-82700000D01*
X107417071Y-81940000D02*
X107020000Y-81940000D01*
X107417071Y-82700000D02*
X107020000Y-82700000D01*
X109957071Y-81940000D02*
X109502929Y-81940000D01*
X109957071Y-82700000D02*
X109502929Y-82700000D01*
X107020000Y-83590000D02*
X104360000Y-83590000D01*
X104360000Y-84480000D02*
X98360000Y-84480000D01*
X98360000Y-84480000D02*
X98360000Y-85240000D01*
X98360000Y-85240000D02*
X104360000Y-85240000D01*
X107417071Y-84480000D02*
X107020000Y-84480000D01*
X107417071Y-85240000D02*
X107020000Y-85240000D01*
X109957071Y-84480000D02*
X109502929Y-84480000D01*
X109957071Y-85240000D02*
X109502929Y-85240000D01*
X107020000Y-86130000D02*
X104360000Y-86130000D01*
X104360000Y-87020000D02*
X98360000Y-87020000D01*
X98360000Y-87020000D02*
X98360000Y-87780000D01*
X98360000Y-87780000D02*
X104360000Y-87780000D01*
X107417071Y-87020000D02*
X107020000Y-87020000D01*
X107417071Y-87780000D02*
X107020000Y-87780000D01*
X109957071Y-87020000D02*
X109502929Y-87020000D01*
X109957071Y-87780000D02*
X109502929Y-87780000D01*
X107020000Y-88670000D02*
X104360000Y-88670000D01*
X104360000Y-89560000D02*
X98360000Y-89560000D01*
X98360000Y-89560000D02*
X98360000Y-90320000D01*
X98360000Y-90320000D02*
X104360000Y-90320000D01*
X107417071Y-89560000D02*
X107020000Y-89560000D01*
X107417071Y-90320000D02*
X107020000Y-90320000D01*
X109957071Y-89560000D02*
X109502929Y-89560000D01*
X109957071Y-90320000D02*
X109502929Y-90320000D01*
X107020000Y-91210000D02*
X104360000Y-91210000D01*
X104360000Y-92100000D02*
X98360000Y-92100000D01*
X98360000Y-92100000D02*
X98360000Y-92860000D01*
X98360000Y-92860000D02*
X104360000Y-92860000D01*
X107417071Y-92100000D02*
X107020000Y-92100000D01*
X107417071Y-92860000D02*
X107020000Y-92860000D01*
X109957071Y-92100000D02*
X109502929Y-92100000D01*
X109957071Y-92860000D02*
X109502929Y-92860000D01*
X107020000Y-93750000D02*
X104360000Y-93750000D01*
X104360000Y-94640000D02*
X98360000Y-94640000D01*
X98360000Y-94640000D02*
X98360000Y-95400000D01*
X98360000Y-95400000D02*
X104360000Y-95400000D01*
X107417071Y-94640000D02*
X107020000Y-94640000D01*
X107417071Y-95400000D02*
X107020000Y-95400000D01*
X109957071Y-94640000D02*
X109502929Y-94640000D01*
X109957071Y-95400000D02*
X109502929Y-95400000D01*
X107020000Y-96290000D02*
X104360000Y-96290000D01*
X104360000Y-97180000D02*
X98360000Y-97180000D01*
X98360000Y-97180000D02*
X98360000Y-97940000D01*
X98360000Y-97940000D02*
X104360000Y-97940000D01*
X107417071Y-97180000D02*
X107020000Y-97180000D01*
X107417071Y-97940000D02*
X107020000Y-97940000D01*
X109957071Y-97180000D02*
X109502929Y-97180000D01*
X109957071Y-97940000D02*
X109502929Y-97940000D01*
X107020000Y-98830000D02*
X104360000Y-98830000D01*
X104360000Y-99720000D02*
X98360000Y-99720000D01*
X98360000Y-99720000D02*
X98360000Y-100480000D01*
X98360000Y-100480000D02*
X104360000Y-100480000D01*
X107417071Y-99720000D02*
X107020000Y-99720000D01*
X107417071Y-100480000D02*
X107020000Y-100480000D01*
X109957071Y-99720000D02*
X109502929Y-99720000D01*
X109957071Y-100480000D02*
X109502929Y-100480000D01*
X107020000Y-101370000D02*
X104360000Y-101370000D01*
X104360000Y-102260000D02*
X98360000Y-102260000D01*
X98360000Y-102260000D02*
X98360000Y-103020000D01*
X98360000Y-103020000D02*
X104360000Y-103020000D01*
X107417071Y-102260000D02*
X107020000Y-102260000D01*
X107417071Y-103020000D02*
X107020000Y-103020000D01*
X109957071Y-102260000D02*
X109502929Y-102260000D01*
X109957071Y-103020000D02*
X109502929Y-103020000D01*
X107020000Y-103910000D02*
X104360000Y-103910000D01*
X104360000Y-104800000D02*
X98360000Y-104800000D01*
X98360000Y-104800000D02*
X98360000Y-105560000D01*
X98360000Y-105560000D02*
X104360000Y-105560000D01*
X107417071Y-104800000D02*
X107020000Y-104800000D01*
X107417071Y-105560000D02*
X107020000Y-105560000D01*
X109957071Y-104800000D02*
X109502929Y-104800000D01*
X109957071Y-105560000D02*
X109502929Y-105560000D01*
X107020000Y-106450000D02*
X104360000Y-106450000D01*
X104360000Y-107340000D02*
X98360000Y-107340000D01*
X98360000Y-107340000D02*
X98360000Y-108100000D01*
X98360000Y-108100000D02*
X104360000Y-108100000D01*
X107417071Y-107340000D02*
X107020000Y-107340000D01*
X107417071Y-108100000D02*
X107020000Y-108100000D01*
X109957071Y-107340000D02*
X109502929Y-107340000D01*
X109957071Y-108100000D02*
X109502929Y-108100000D01*
X107020000Y-108990000D02*
X104360000Y-108990000D01*
X104360000Y-109880000D02*
X98360000Y-109880000D01*
X98360000Y-109880000D02*
X98360000Y-110640000D01*
X98360000Y-110640000D02*
X104360000Y-110640000D01*
X107417071Y-109880000D02*
X107020000Y-109880000D01*
X107417071Y-110640000D02*
X107020000Y-110640000D01*
X109957071Y-109880000D02*
X109502929Y-109880000D01*
X109957071Y-110640000D02*
X109502929Y-110640000D01*
X112270000Y-62000000D02*
X112270000Y-60730000D01*
X112270000Y-60730000D02*
X111000000Y-60730000D01*
D10*
X105678333Y-59182380D02*
X105678333Y-59896666D01*
X105725952Y-60039523D01*
X105821190Y-60134761D01*
X105964047Y-60182380D01*
X106059285Y-60182380D01*
X104678333Y-60182380D02*
X105249761Y-60182380D01*
X104964047Y-60182380D02*
X104964047Y-59182380D01*
X105059285Y-59325238D01*
X105154523Y-59420476D01*
X105249761Y-59468095D01*
M02*
